<svg width="256" height="52" viewBox="0 0 256 52" fill="none" xmlns="http://www.w3.org/2000/svg">
<path d="M55.9527 17.5V14.97H58.4827V4.63H55.9527V2.1H63.8727V4.63H61.3427V14.97H63.8727V17.5H55.9527ZM76.0349 13.958L75.5069 11.428L81.0069 5.906H84.6149L76.0349 13.958ZM73.5049 17.5V1.22H76.2109V17.5H73.5049ZM81.3369 17.5L77.0689 12.33L78.9829 10.702L84.6809 17.5H81.3369ZM86.46 17.5V5.906H89.1L89.144 8.282L88.638 8.546C88.7846 8.018 89.0706 7.54133 89.496 7.116C89.9213 6.676 90.4273 6.324 91.014 6.06C91.6006 5.796 92.202 5.664 92.818 5.664C93.698 5.664 94.4313 5.84 95.018 6.192C95.6193 6.544 96.0666 7.072 96.36 7.776C96.668 8.48 96.822 9.36 96.822 10.416V17.5H94.116V10.614C94.116 10.0273 94.0353 9.54333 93.874 9.162C93.7126 8.766 93.4633 8.48 93.126 8.304C92.7886 8.11333 92.378 8.02533 91.894 8.04C91.498 8.04 91.1313 8.106 90.794 8.238C90.4713 8.35533 90.1853 8.53133 89.936 8.766C89.7013 8.986 89.5106 9.24267 89.364 9.536C89.232 9.82933 89.166 10.152 89.166 10.504V17.5H87.824C87.56 17.5 87.3106 17.5 87.076 17.5C86.856 17.5 86.6506 17.5 86.46 17.5ZM105.168 17.72C104.01 17.72 102.976 17.4633 102.066 16.95C101.157 16.422 100.438 15.7033 99.9102 14.794C99.3822 13.8847 99.1182 12.8507 99.1182 11.692C99.1182 10.5333 99.3822 9.49933 99.9102 8.59C100.438 7.68067 101.157 6.96933 102.066 6.456C102.976 5.928 104.01 5.664 105.168 5.664C106.312 5.664 107.339 5.928 108.248 6.456C109.158 6.96933 109.869 7.68067 110.382 8.59C110.91 9.49933 111.174 10.5333 111.174 11.692C111.174 12.8507 110.91 13.8847 110.382 14.794C109.869 15.7033 109.158 16.422 108.248 16.95C107.339 17.4633 106.312 17.72 105.168 17.72ZM105.168 15.322C105.799 15.322 106.356 15.1607 106.84 14.838C107.339 14.5153 107.728 14.0827 108.006 13.54C108.3 12.9973 108.439 12.3813 108.424 11.692C108.439 10.988 108.3 10.3647 108.006 9.822C107.728 9.27933 107.339 8.854 106.84 8.546C106.356 8.22333 105.799 8.062 105.168 8.062C104.538 8.062 103.966 8.22333 103.452 8.546C102.954 8.854 102.565 9.28667 102.286 9.844C102.008 10.3867 101.868 11.0027 101.868 11.692C101.868 12.3813 102.008 12.9973 102.286 13.54C102.565 14.0827 102.954 14.5153 103.452 14.838C103.966 15.1607 104.538 15.322 105.168 15.322ZM115.893 17.5L111.999 5.906L114.771 5.884L117.367 14.156L116.883 14.112L119.699 7.644H121.327L124.209 14.112L123.637 14.178L126.255 5.906H129.027L125.111 17.5H123.175L120.205 10.548L120.623 10.592L117.807 17.5H115.893ZM139.245 22.56L141.709 16.862L141.731 18.666L136.011 5.906H139.135L142.325 13.474C142.428 13.6647 142.531 13.9213 142.633 14.244C142.736 14.552 142.824 14.86 142.897 15.168L142.347 15.344C142.45 15.0653 142.56 14.772 142.677 14.464C142.795 14.1413 142.905 13.8113 143.007 13.474L145.735 5.906H148.881L144.041 17.5L142.061 22.56H139.245ZM155.657 17.72C154.498 17.72 153.464 17.4633 152.555 16.95C151.645 16.422 150.927 15.7033 150.399 14.794C149.871 13.8847 149.607 12.8507 149.607 11.692C149.607 10.5333 149.871 9.49933 150.399 8.59C150.927 7.68067 151.645 6.96933 152.555 6.456C153.464 5.928 154.498 5.664 155.657 5.664C156.801 5.664 157.827 5.928 158.737 6.456C159.646 6.96933 160.357 7.68067 160.871 8.59C161.399 9.49933 161.663 10.5333 161.663 11.692C161.663 12.8507 161.399 13.8847 160.871 14.794C160.357 15.7033 159.646 16.422 158.737 16.95C157.827 17.4633 156.801 17.72 155.657 17.72ZM155.657 15.322C156.287 15.322 156.845 15.1607 157.329 14.838C157.827 14.5153 158.216 14.0827 158.495 13.54C158.788 12.9973 158.927 12.3813 158.913 11.692C158.927 10.988 158.788 10.3647 158.495 9.822C158.216 9.27933 157.827 8.854 157.329 8.546C156.845 8.22333 156.287 8.062 155.657 8.062C155.026 8.062 154.454 8.22333 153.941 8.546C153.442 8.854 153.053 9.28667 152.775 9.844C152.496 10.3867 152.357 11.0027 152.357 11.692C152.357 12.3813 152.496 12.9973 152.775 13.54C153.053 14.0827 153.442 14.5153 153.941 14.838C154.454 15.1607 155.026 15.322 155.657 15.322ZM168.109 17.72C167.273 17.72 166.547 17.5367 165.931 17.17C165.315 16.7887 164.846 16.2533 164.523 15.564C164.2 14.86 164.039 14.024 164.039 13.056V5.906H166.745V12.484C166.745 13.1 166.84 13.628 167.031 14.068C167.222 14.4933 167.5 14.8233 167.867 15.058C168.234 15.2927 168.674 15.41 169.187 15.41C169.568 15.41 169.913 15.3513 170.221 15.234C170.544 15.102 170.822 14.926 171.057 14.706C171.292 14.4713 171.475 14.2 171.607 13.892C171.739 13.5693 171.805 13.2247 171.805 12.858V5.906H174.511V17.5H171.871L171.827 15.08L172.311 14.816C172.135 15.3733 171.834 15.872 171.409 16.312C170.998 16.7373 170.507 17.082 169.935 17.346C169.363 17.5953 168.754 17.72 168.109 17.72ZM177.485 7.402L176.583 6.324C177.169 6.06 177.646 5.752 178.013 5.4C178.379 5.03333 178.563 4.72533 178.563 4.476C178.563 4.3 178.489 4.13867 178.343 3.992C178.211 3.83067 178.064 3.69133 177.903 3.574C177.565 3.31 177.338 3.08267 177.221 2.892C177.103 2.70133 177.045 2.48867 177.045 2.254C177.045 1.87267 177.184 1.56467 177.463 1.33C177.756 1.09533 178.123 0.977999 178.563 0.977999C178.973 0.977999 179.347 1.088 179.685 1.308C180.037 1.528 180.308 1.82867 180.499 2.21C180.689 2.59133 180.785 3.046 180.785 3.574C180.785 3.98467 180.704 4.388 180.543 4.784C180.381 5.18 180.147 5.554 179.839 5.906C179.545 6.24333 179.193 6.544 178.783 6.808C178.387 7.072 177.954 7.27 177.485 7.402ZM182.581 17.5V5.906H185.243L185.287 9.602L184.913 8.766C185.074 8.17933 185.353 7.65133 185.749 7.182C186.145 6.71267 186.6 6.346 187.113 6.082C187.641 5.80333 188.191 5.664 188.763 5.664C189.012 5.664 189.247 5.686 189.467 5.73C189.702 5.774 189.892 5.82533 190.039 5.884L189.313 8.854C189.152 8.766 188.954 8.69267 188.719 8.634C188.484 8.57533 188.25 8.546 188.015 8.546C187.648 8.546 187.296 8.61933 186.959 8.766C186.636 8.898 186.35 9.08867 186.101 9.338C185.852 9.58733 185.654 9.88067 185.507 10.218C185.375 10.5407 185.309 10.9073 185.309 11.318V17.5H182.581ZM196.781 17.72C195.563 17.72 194.485 17.4633 193.547 16.95C192.623 16.4367 191.897 15.74 191.369 14.86C190.855 13.9653 190.599 12.946 190.599 11.802C190.599 10.8927 190.745 10.064 191.039 9.316C191.332 8.568 191.735 7.92267 192.249 7.38C192.777 6.82267 193.4 6.39733 194.119 6.104C194.852 5.796 195.651 5.642 196.517 5.642C197.279 5.642 197.991 5.78867 198.651 6.082C199.311 6.37533 199.883 6.77867 200.367 7.292C200.851 7.79067 201.217 8.392 201.467 9.096C201.731 9.78533 201.855 10.5407 201.841 11.362L201.819 12.308H192.425L191.919 10.46H199.553L199.201 10.834V10.35C199.157 9.89533 199.01 9.49933 198.761 9.162C198.511 8.81 198.189 8.53867 197.793 8.348C197.411 8.14267 196.986 8.04 196.517 8.04C195.798 8.04 195.189 8.17933 194.691 8.458C194.207 8.73667 193.84 9.14 193.591 9.668C193.341 10.1813 193.217 10.8267 193.217 11.604C193.217 12.352 193.371 13.0047 193.679 13.562C194.001 14.1193 194.449 14.552 195.021 14.86C195.607 15.1533 196.289 15.3 197.067 15.3C197.609 15.3 198.108 15.212 198.563 15.036C199.017 14.86 199.509 14.5447 200.037 14.09L201.379 15.96C200.983 16.3267 200.528 16.642 200.015 16.906C199.516 17.1553 198.988 17.3533 198.431 17.5C197.873 17.6467 197.323 17.72 196.781 17.72ZM6.8107 51.56C5.94536 51.56 5.08003 51.428 4.2147 51.164C3.36403 50.9 2.6747 50.5553 2.1467 50.13L3.1147 48.128C3.4227 48.348 3.76736 48.5387 4.1487 48.7C4.53003 48.8613 4.93336 48.986 5.3587 49.074C5.7987 49.162 6.23136 49.206 6.6567 49.206C7.43403 49.206 8.07936 49.0813 8.5927 48.832C9.1207 48.5973 9.5167 48.2307 9.7807 47.732C10.0447 47.248 10.1767 46.6393 10.1767 45.906V43.772L10.5727 43.926C10.4847 44.3807 10.2427 44.8133 9.8467 45.224C9.4507 45.6347 8.95203 45.972 8.3507 46.236C7.74936 46.4853 7.13336 46.61 6.5027 46.61C5.4027 46.61 4.42736 46.3533 3.5767 45.84C2.7407 45.3267 2.07336 44.63 1.5747 43.75C1.0907 42.8553 0.848695 41.8287 0.848695 40.67C0.848695 39.5113 1.0907 38.4847 1.5747 37.59C2.0587 36.6807 2.7187 35.9693 3.5547 35.456C4.40536 34.928 5.3587 34.664 6.4147 34.664C6.8547 34.664 7.28003 34.7153 7.6907 34.818C8.10136 34.9207 8.47536 35.0673 8.8127 35.258C9.1647 35.4487 9.48003 35.6613 9.7587 35.896C10.0374 36.1307 10.2647 36.38 10.4407 36.644C10.6167 36.908 10.7267 37.1647 10.7707 37.414L10.1987 37.59L10.2427 34.906H12.9047V45.708C12.9047 46.6467 12.7654 47.4753 12.4867 48.194C12.208 48.9127 11.8047 49.5213 11.2767 50.02C10.7487 50.5333 10.1107 50.9147 9.3627 51.164C8.6147 51.428 7.76403 51.56 6.8107 51.56ZM6.9207 44.3C7.5807 44.3 8.16003 44.146 8.6587 43.838C9.17203 43.53 9.56803 43.1047 9.8467 42.562C10.1254 42.0193 10.2647 41.396 10.2647 40.692C10.2647 39.9733 10.118 39.3427 9.8247 38.8C9.54603 38.2427 9.15736 37.81 8.6587 37.502C8.16003 37.194 7.5807 37.04 6.9207 37.04C6.2607 37.04 5.68136 37.2013 5.1827 37.524C4.68403 37.832 4.28803 38.2647 3.9947 38.822C3.71603 39.3647 3.5767 39.988 3.5767 40.692C3.5767 41.3813 3.71603 42.0047 3.9947 42.562C4.28803 43.1047 4.68403 43.53 5.1827 43.838C5.68136 44.146 6.2607 44.3 6.9207 44.3ZM21.3362 46.72C20.1775 46.72 19.1435 46.4633 18.2342 45.95C17.3249 45.422 16.6062 44.7033 16.0782 43.794C15.5502 42.8847 15.2862 41.8507 15.2862 40.692C15.2862 39.5333 15.5502 38.4993 16.0782 37.59C16.6062 36.6807 17.3249 35.9693 18.2342 35.456C19.1435 34.928 20.1775 34.664 21.3362 34.664C22.4802 34.664 23.5069 34.928 24.4162 35.456C25.3255 35.9693 26.0369 36.6807 26.5502 37.59C27.0782 38.4993 27.3422 39.5333 27.3422 40.692C27.3422 41.8507 27.0782 42.8847 26.5502 43.794C26.0369 44.7033 25.3255 45.422 24.4162 45.95C23.5069 46.4633 22.4802 46.72 21.3362 46.72ZM21.3362 44.322C21.9669 44.322 22.5242 44.1607 23.0082 43.838C23.5069 43.5153 23.8955 43.0827 24.1742 42.54C24.4675 41.9973 24.6069 41.3813 24.5922 40.692C24.6069 39.988 24.4675 39.3647 24.1742 38.822C23.8955 38.2793 23.5069 37.854 23.0082 37.546C22.5242 37.2233 21.9669 37.062 21.3362 37.062C20.7055 37.062 20.1335 37.2233 19.6202 37.546C19.1215 37.854 18.7329 38.2867 18.4542 38.844C18.1755 39.3867 18.0362 40.0027 18.0362 40.692C18.0362 41.3813 18.1755 41.9973 18.4542 42.54C18.7329 43.0827 19.1215 43.5153 19.6202 43.838C20.1335 44.1607 20.7055 44.322 21.3362 44.322ZM30.0707 46.5V34.906H32.7767V46.5H30.0707ZM31.3907 32.442C30.848 32.442 30.4227 32.31 30.1147 32.046C29.8214 31.7673 29.6747 31.3787 29.6747 30.88C29.6747 30.4107 29.8287 30.0293 30.1367 29.736C30.4447 29.4427 30.8627 29.296 31.3907 29.296C31.948 29.296 32.3734 29.4353 32.6667 29.714C32.9747 29.978 33.1287 30.3667 33.1287 30.88C33.1287 31.3347 32.9747 31.7087 32.6667 32.002C32.3587 32.2953 31.9334 32.442 31.3907 32.442ZM36.208 46.5V34.906H38.848L38.892 37.282L38.386 37.546C38.5327 37.018 38.8187 36.5413 39.244 36.116C39.6694 35.676 40.1754 35.324 40.762 35.06C41.3487 34.796 41.95 34.664 42.566 34.664C43.446 34.664 44.1794 34.84 44.766 35.192C45.3674 35.544 45.8147 36.072 46.108 36.776C46.416 37.48 46.57 38.36 46.57 39.416V46.5H43.864V39.614C43.864 39.0273 43.7834 38.5433 43.622 38.162C43.4607 37.766 43.2114 37.48 42.874 37.304C42.5367 37.1133 42.126 37.0253 41.642 37.04C41.246 37.04 40.8794 37.106 40.542 37.238C40.2194 37.3553 39.9334 37.5313 39.684 37.766C39.4494 37.986 39.2587 38.2427 39.112 38.536C38.98 38.8293 38.914 39.152 38.914 39.504V46.5H37.572C37.308 46.5 37.0587 46.5 36.824 46.5C36.604 46.5 36.3987 46.5 36.208 46.5ZM54.8283 51.56C53.9629 51.56 53.0976 51.428 52.2323 51.164C51.3816 50.9 50.6923 50.5553 50.1643 50.13L51.1323 48.128C51.4403 48.348 51.7849 48.5387 52.1663 48.7C52.5476 48.8613 52.9509 48.986 53.3763 49.074C53.8163 49.162 54.2489 49.206 54.6743 49.206C55.4516 49.206 56.0969 49.0813 56.6103 48.832C57.1383 48.5973 57.5343 48.2307 57.7983 47.732C58.0623 47.248 58.1943 46.6393 58.1943 45.906V43.772L58.5903 43.926C58.5023 44.3807 58.2603 44.8133 57.8643 45.224C57.4683 45.6347 56.9696 45.972 56.3683 46.236C55.7669 46.4853 55.1509 46.61 54.5203 46.61C53.4203 46.61 52.4449 46.3533 51.5943 45.84C50.7583 45.3267 50.0909 44.63 49.5923 43.75C49.1083 42.8553 48.8663 41.8287 48.8663 40.67C48.8663 39.5113 49.1083 38.4847 49.5923 37.59C50.0763 36.6807 50.7363 35.9693 51.5723 35.456C52.4229 34.928 53.3763 34.664 54.4323 34.664C54.8723 34.664 55.2976 34.7153 55.7083 34.818C56.1189 34.9207 56.4929 35.0673 56.8303 35.258C57.1823 35.4487 57.4976 35.6613 57.7763 35.896C58.0549 36.1307 58.2823 36.38 58.4583 36.644C58.6343 36.908 58.7443 37.1647 58.7883 37.414L58.2163 37.59L58.2603 34.906H60.9223V45.708C60.9223 46.6467 60.7829 47.4753 60.5043 48.194C60.2256 48.9127 59.8223 49.5213 59.2943 50.02C58.7663 50.5333 58.1283 50.9147 57.3803 51.164C56.6323 51.428 55.7816 51.56 54.8283 51.56ZM54.9383 44.3C55.5983 44.3 56.1776 44.146 56.6763 43.838C57.1896 43.53 57.5856 43.1047 57.8643 42.562C58.1429 42.0193 58.2823 41.396 58.2823 40.692C58.2823 39.9733 58.1356 39.3427 57.8423 38.8C57.5636 38.2427 57.1749 37.81 56.6763 37.502C56.1776 37.194 55.5983 37.04 54.9383 37.04C54.2783 37.04 53.6989 37.2013 53.2003 37.524C52.7016 37.832 52.3056 38.2647 52.0123 38.822C51.7336 39.3647 51.5943 39.988 51.5943 40.692C51.5943 41.3813 51.7336 42.0047 52.0123 42.562C52.3056 43.1047 52.7016 43.53 53.2003 43.838C53.6989 44.146 54.2783 44.3 54.9383 44.3ZM71.7726 46.5V31.958H74.4786V46.5H71.7726ZM69.4846 37.414V34.906H77.0086V37.414H69.4846ZM84.2639 46.72C83.1053 46.72 82.0713 46.4633 81.1619 45.95C80.2526 45.422 79.5339 44.7033 79.0059 43.794C78.4779 42.8847 78.2139 41.8507 78.2139 40.692C78.2139 39.5333 78.4779 38.4993 79.0059 37.59C79.5339 36.6807 80.2526 35.9693 81.1619 35.456C82.0713 34.928 83.1053 34.664 84.2639 34.664C85.4079 34.664 86.4346 34.928 87.3439 35.456C88.2533 35.9693 88.9646 36.6807 89.4779 37.59C90.0059 38.4993 90.2699 39.5333 90.2699 40.692C90.2699 41.8507 90.0059 42.8847 89.4779 43.794C88.9646 44.7033 88.2533 45.422 87.3439 45.95C86.4346 46.4633 85.4079 46.72 84.2639 46.72ZM84.2639 44.322C84.8946 44.322 85.4519 44.1607 85.9359 43.838C86.4346 43.5153 86.8233 43.0827 87.1019 42.54C87.3953 41.9973 87.5346 41.3813 87.5199 40.692C87.5346 39.988 87.3953 39.3647 87.1019 38.822C86.8233 38.2793 86.4346 37.854 85.9359 37.546C85.4519 37.2233 84.8946 37.062 84.2639 37.062C83.6333 37.062 83.0613 37.2233 82.5479 37.546C82.0493 37.854 81.6606 38.2867 81.3819 38.844C81.1033 39.3867 80.9639 40.0027 80.9639 40.692C80.9639 41.3813 81.1033 41.9973 81.3819 42.54C81.6606 43.0827 82.0493 43.5153 82.5479 43.838C83.0613 44.1607 83.6333 44.322 84.2639 44.322ZM105.559 46.72C105.046 46.72 104.54 46.6467 104.041 46.5C103.557 46.3387 103.117 46.126 102.721 45.862C102.325 45.598 101.995 45.3047 101.731 44.982C101.467 44.6447 101.291 44.3073 101.203 43.97L101.841 43.684L101.775 46.456H99.1572V30.22H101.863V37.59L101.379 37.37C101.453 37.018 101.614 36.688 101.863 36.38C102.127 36.0573 102.45 35.7713 102.831 35.522C103.213 35.258 103.631 35.0527 104.085 34.906C104.54 34.7447 105.002 34.664 105.471 34.664C106.513 34.664 107.429 34.9207 108.221 35.434C109.028 35.9473 109.659 36.6587 110.113 37.568C110.583 38.4773 110.817 39.5113 110.817 40.67C110.817 41.8433 110.59 42.8847 110.135 43.794C109.681 44.7033 109.05 45.422 108.243 45.95C107.451 46.4633 106.557 46.72 105.559 46.72ZM104.987 44.344C105.603 44.344 106.153 44.19 106.637 43.882C107.121 43.5593 107.503 43.1267 107.781 42.584C108.06 42.0267 108.199 41.3887 108.199 40.67C108.199 39.966 108.06 39.3427 107.781 38.8C107.517 38.2573 107.143 37.832 106.659 37.524C106.175 37.216 105.618 37.062 104.987 37.062C104.357 37.062 103.799 37.216 103.315 37.524C102.831 37.832 102.45 38.2573 102.171 38.8C101.893 39.3427 101.753 39.966 101.753 40.67C101.753 41.3887 101.893 42.0267 102.171 42.584C102.45 43.1267 102.831 43.5593 103.315 43.882C103.799 44.19 104.357 44.344 104.987 44.344ZM117.256 46.72C116.42 46.72 115.694 46.5367 115.078 46.17C114.462 45.7887 113.992 45.2533 113.67 44.564C113.347 43.86 113.186 43.024 113.186 42.056V34.906H115.892V41.484C115.892 42.1 115.987 42.628 116.178 43.068C116.368 43.4933 116.647 43.8233 117.014 44.058C117.38 44.2927 117.82 44.41 118.334 44.41C118.715 44.41 119.06 44.3513 119.368 44.234C119.69 44.102 119.969 43.926 120.204 43.706C120.438 43.4713 120.622 43.2 120.754 42.892C120.886 42.5693 120.952 42.2247 120.952 41.858V34.906H123.658V46.5H121.018L120.974 44.08L121.458 43.816C121.282 44.3733 120.981 44.872 120.556 45.312C120.145 45.7373 119.654 46.082 119.082 46.346C118.51 46.5953 117.901 46.72 117.256 46.72ZM128.589 51.56L131.053 45.862L131.075 47.666L125.355 34.906H128.479L131.669 42.474C131.772 42.6647 131.874 42.9213 131.977 43.244C132.08 43.552 132.168 43.86 132.241 44.168L131.691 44.344C131.794 44.0653 131.904 43.772 132.021 43.464C132.138 43.1413 132.248 42.8113 132.351 42.474L135.079 34.906H138.225L133.385 46.5L131.405 51.56H128.589ZM146.688 46.5V34.906H149.394V46.5H146.688ZM148.008 32.442C147.465 32.442 147.04 32.31 146.732 32.046C146.439 31.7673 146.292 31.3787 146.292 30.88C146.292 30.4107 146.446 30.0293 146.754 29.736C147.062 29.4427 147.48 29.296 148.008 29.296C148.565 29.296 148.991 29.4353 149.284 29.714C149.592 29.978 149.746 30.3667 149.746 30.88C149.746 31.3347 149.592 31.7087 149.284 32.002C148.976 32.2953 148.551 32.442 148.008 32.442ZM154.079 46.5V31.958H156.785V46.5H154.079ZM151.791 37.414V34.906H159.315V37.414H151.791ZM172.221 46.72C171.267 46.72 170.402 46.456 169.625 45.928C168.847 45.4 168.224 44.6813 167.755 43.772C167.285 42.8627 167.051 41.8287 167.051 40.67C167.051 39.5113 167.285 38.4773 167.755 37.568C168.224 36.6587 168.862 35.9473 169.669 35.434C170.475 34.9207 171.385 34.664 172.397 34.664C172.983 34.664 173.519 34.752 174.003 34.928C174.487 35.0893 174.912 35.324 175.279 35.632C175.645 35.94 175.946 36.292 176.181 36.688C176.43 37.084 176.599 37.5093 176.687 37.964L176.093 37.81V34.906H178.821V46.5H176.071V43.728L176.709 43.618C176.606 44.014 176.415 44.4027 176.137 44.784C175.873 45.1507 175.535 45.4807 175.125 45.774C174.729 46.0527 174.281 46.28 173.783 46.456C173.299 46.632 172.778 46.72 172.221 46.72ZM172.969 44.322C173.599 44.322 174.157 44.168 174.641 43.86C175.125 43.552 175.499 43.1267 175.763 42.584C176.041 42.0267 176.181 41.3887 176.181 40.67C176.181 39.966 176.041 39.3427 175.763 38.8C175.499 38.2573 175.125 37.832 174.641 37.524C174.157 37.216 173.599 37.062 172.969 37.062C172.338 37.062 171.781 37.216 171.297 37.524C170.827 37.832 170.461 38.2573 170.197 38.8C169.933 39.3427 169.801 39.966 169.801 40.67C169.801 41.3887 169.933 42.0267 170.197 42.584C170.461 43.1267 170.827 43.552 171.297 43.86C171.781 44.168 172.338 44.322 172.969 44.322ZM181.958 46.5V34.906H184.598L184.642 37.282L184.136 37.546C184.283 37.018 184.569 36.5413 184.994 36.116C185.419 35.676 185.925 35.324 186.512 35.06C187.099 34.796 187.7 34.664 188.316 34.664C189.196 34.664 189.929 34.84 190.516 35.192C191.117 35.544 191.565 36.072 191.858 36.776C192.166 37.48 192.32 38.36 192.32 39.416V46.5H189.614V39.614C189.614 39.0273 189.533 38.5433 189.372 38.162C189.211 37.766 188.961 37.48 188.624 37.304C188.287 37.1133 187.876 37.0253 187.392 37.04C186.996 37.04 186.629 37.106 186.292 37.238C185.969 37.3553 185.683 37.5313 185.434 37.766C185.199 37.986 185.009 38.2427 184.862 38.536C184.73 38.8293 184.664 39.152 184.664 39.504V46.5H183.322C183.058 46.5 182.809 46.5 182.574 46.5C182.354 46.5 182.149 46.5 181.958 46.5ZM197.017 51.56L199.481 45.862L199.503 47.666L193.783 34.906H196.907L200.097 42.474C200.2 42.6647 200.302 42.9213 200.405 43.244C200.508 43.552 200.596 43.86 200.669 44.168L200.119 44.344C200.222 44.0653 200.332 43.772 200.449 43.464C200.566 43.1413 200.676 42.8113 200.779 42.474L203.507 34.906H206.653L201.813 46.5L199.833 51.56H197.017ZM211.069 46.5L207.175 34.906L209.947 34.884L212.543 43.156L212.059 43.112L214.875 36.644H216.503L219.385 43.112L218.813 43.178L221.431 34.906H224.203L220.287 46.5H218.351L215.381 39.548L215.799 39.592L212.983 46.5H211.069ZM230.25 46.72C229.297 46.72 228.431 46.456 227.654 45.928C226.877 45.4 226.253 44.6813 225.784 43.772C225.315 42.8627 225.08 41.8287 225.08 40.67C225.08 39.5113 225.315 38.4773 225.784 37.568C226.253 36.6587 226.891 35.9473 227.698 35.434C228.505 34.9207 229.414 34.664 230.426 34.664C231.013 34.664 231.548 34.752 232.032 34.928C232.516 35.0893 232.941 35.324 233.308 35.632C233.675 35.94 233.975 36.292 234.21 36.688C234.459 37.084 234.628 37.5093 234.716 37.964L234.122 37.81V34.906H236.85V46.5H234.1V43.728L234.738 43.618C234.635 44.014 234.445 44.4027 234.166 44.784C233.902 45.1507 233.565 45.4807 233.154 45.774C232.758 46.0527 232.311 46.28 231.812 46.456C231.328 46.632 230.807 46.72 230.25 46.72ZM230.998 44.322C231.629 44.322 232.186 44.168 232.67 43.86C233.154 43.552 233.528 43.1267 233.792 42.584C234.071 42.0267 234.21 41.3887 234.21 40.67C234.21 39.966 234.071 39.3427 233.792 38.8C233.528 38.2573 233.154 37.832 232.67 37.524C232.186 37.216 231.629 37.062 230.998 37.062C230.367 37.062 229.81 37.216 229.326 37.524C228.857 37.832 228.49 38.2573 228.226 38.8C227.962 39.3427 227.83 39.966 227.83 40.67C227.83 41.3887 227.962 42.0267 228.226 42.584C228.49 43.1267 228.857 43.552 229.326 43.86C229.81 44.168 230.367 44.322 230.998 44.322ZM241.49 51.56L243.954 45.862L243.976 47.666L238.256 34.906H241.38L244.57 42.474C244.672 42.6647 244.775 42.9213 244.878 43.244C244.98 43.552 245.068 43.86 245.142 44.168L244.592 44.344C244.694 44.0653 244.804 43.772 244.922 43.464C245.039 43.1413 245.149 42.8113 245.252 42.474L247.98 34.906H251.126L246.286 46.5L244.306 51.56H241.49ZM253.275 41.088C253.173 40.1787 253.07 39.24 252.967 38.272C252.879 37.2893 252.806 36.3213 252.747 35.368C252.689 34.4 252.659 33.4833 252.659 32.618V31.012H255.519V32.618C255.519 33.5127 255.49 34.4513 255.431 35.434C255.387 36.4167 255.314 37.392 255.211 38.36C255.123 39.328 255.021 40.2373 254.903 41.088H253.275ZM254.045 46.742C253.517 46.742 253.107 46.588 252.813 46.28C252.535 45.972 252.395 45.5393 252.395 44.982C252.395 44.4687 252.542 44.0507 252.835 43.728C253.143 43.3907 253.547 43.222 254.045 43.222C254.573 43.222 254.977 43.376 255.255 43.684C255.549 43.9773 255.695 44.41 255.695 44.982C255.695 45.4953 255.541 45.9207 255.233 46.258C254.94 46.5807 254.544 46.742 254.045 46.742Z" fill="#007BED"/>
</svg>
