<svg width="239" height="48" viewBox="0 0 239 48" fill="none" xmlns="http://www.w3.org/2000/svg">
<path d="M8.13583 18.22C7.03583 18.22 6.01649 18.022 5.07783 17.626C4.13916 17.23 3.31783 16.68 2.61383 15.976C1.92449 15.2573 1.38916 14.414 1.00783 13.446C0.626495 12.478 0.435828 11.422 0.435828 10.278C0.435828 9.134 0.626495 8.078 1.00783 7.11C1.38916 6.142 1.92449 5.306 2.61383 4.602C3.31783 3.88333 4.13916 3.326 5.07783 2.93C6.01649 2.534 7.03583 2.336 8.13583 2.336C9.2505 2.336 10.2772 2.534 11.2158 2.93C12.1545 3.326 12.9685 3.88333 13.6578 4.602C14.3472 5.32067 14.8825 6.164 15.2638 7.132C15.6452 8.08533 15.8358 9.134 15.8358 10.278C15.8358 11.4073 15.6452 12.456 15.2638 13.424C14.8825 14.392 14.3472 15.2353 13.6578 15.954C12.9685 16.6727 12.1545 17.23 11.2158 17.626C10.2772 18.022 9.2505 18.22 8.13583 18.22ZM8.13583 15.492C8.83983 15.492 9.47783 15.3673 10.0498 15.118C10.6365 14.854 11.1425 14.4873 11.5678 14.018C11.9932 13.534 12.3232 12.9767 12.5578 12.346C12.8072 11.7153 12.9318 11.026 12.9318 10.278C12.9318 9.53 12.8072 8.84067 12.5578 8.21C12.3232 7.57933 11.9932 7.02933 11.5678 6.56C11.1425 6.076 10.6365 5.70933 10.0498 5.46C9.47783 5.196 8.83983 5.064 8.13583 5.064C7.4465 5.064 6.8085 5.196 6.22183 5.46C5.63516 5.70933 5.12916 6.06867 4.70383 6.538C4.2785 7.00733 3.9485 7.55733 3.71383 8.188C3.47916 8.81867 3.36183 9.51533 3.36183 10.278C3.36183 11.026 3.47916 11.7227 3.71383 12.368C3.9485 12.9987 4.2785 13.5487 4.70383 14.018C5.12916 14.4873 5.63516 14.854 6.22183 15.118C6.8085 15.3673 7.4465 15.492 8.13583 15.492ZM18.4531 18V1.72H21.1371V8.782L20.6311 9.046C20.7778 8.518 21.0638 8.04133 21.4891 7.616C21.9145 7.176 22.4205 6.824 23.0071 6.56C23.5938 6.296 24.1951 6.164 24.8111 6.164C25.6911 6.164 26.4245 6.34 27.0111 6.692C27.6125 7.044 28.0598 7.572 28.3531 8.276C28.6611 8.98 28.8151 9.86 28.8151 10.916V18H26.1091V11.114C26.1091 10.5273 26.0285 10.0433 25.8671 9.662C25.7058 9.266 25.4565 8.98 25.1191 8.804C24.7818 8.61333 24.3711 8.52533 23.8871 8.54C23.4911 8.54 23.1245 8.606 22.7871 8.738C22.4645 8.85533 22.1785 9.03133 21.9291 9.266C21.6945 9.486 21.5038 9.74267 21.3571 10.036C21.2251 10.3293 21.1591 10.652 21.1591 11.004V18H19.8171C19.5531 18 19.3038 18 19.0691 18C18.8491 18 18.6438 18 18.4531 18ZM32.1894 22.092L31.2874 21.014C31.8301 20.7207 32.2627 20.376 32.5854 19.98C32.9227 19.5987 33.0914 19.2687 33.0914 18.99C33.0914 18.8433 33.0547 18.6967 32.9814 18.55C32.9227 18.418 32.7687 18.2347 32.5194 18C32.2114 17.7213 32.0061 17.4793 31.9034 17.274C31.8007 17.0687 31.7494 16.8413 31.7494 16.592C31.7494 16.2107 31.8887 15.9027 32.1674 15.668C32.4461 15.4333 32.8054 15.316 33.2454 15.316C33.6414 15.316 33.9934 15.426 34.3014 15.646C34.6241 15.866 34.8734 16.174 35.0494 16.57C35.2254 16.9513 35.3134 17.3987 35.3134 17.912C35.3134 18.3667 35.2327 18.8067 35.0714 19.232C34.9247 19.672 34.7047 20.0753 34.4114 20.442C34.1327 20.8087 33.8027 21.1313 33.4214 21.41C33.0547 21.7033 32.6441 21.9307 32.1894 22.092ZM44.3853 18V15.47H46.9153V5.13H44.3853V2.6H52.3053V5.13H49.7753V15.47H52.3053V18H44.3853ZM56.7247 18V3.458H59.4307V18H56.7247ZM54.4367 8.914V6.406H61.9607V8.914H54.4367ZM63.8235 7.902L62.9215 6.824C63.5082 6.56 63.9848 6.252 64.3515 5.9C64.7182 5.53333 64.9015 5.22533 64.9015 4.976C64.9015 4.8 64.8282 4.63867 64.6815 4.492C64.5495 4.33067 64.4028 4.19133 64.2415 4.074C63.9042 3.81 63.6768 3.58267 63.5595 3.392C63.4422 3.20133 63.3835 2.98867 63.3835 2.754C63.3835 2.37267 63.5228 2.06467 63.8015 1.83C64.0948 1.59533 64.4615 1.478 64.9015 1.478C65.3122 1.478 65.6862 1.588 66.0235 1.808C66.3755 2.028 66.6468 2.32867 66.8375 2.71C67.0282 3.09133 67.1235 3.546 67.1235 4.074C67.1235 4.48467 67.0428 4.888 66.8815 5.284C66.7202 5.68 66.4855 6.054 66.1775 6.406C65.8842 6.74333 65.5322 7.044 65.1215 7.308C64.7255 7.572 64.2928 7.77 63.8235 7.902ZM73.458 18.22C72.4313 18.22 71.5073 18.0513 70.686 17.714C69.8793 17.362 69.2193 16.8633 68.706 16.218L70.466 14.7C70.906 15.1987 71.3973 15.558 71.94 15.778C72.4826 15.998 73.0546 16.108 73.656 16.108C73.9053 16.108 74.1253 16.0787 74.316 16.02C74.5213 15.9613 74.6973 15.8733 74.844 15.756C74.9906 15.6387 75.1006 15.5067 75.174 15.36C75.262 15.1987 75.306 15.0227 75.306 14.832C75.306 14.48 75.174 14.2013 74.91 13.996C74.7633 13.8933 74.5286 13.7833 74.206 13.666C73.898 13.5487 73.4946 13.4313 72.996 13.314C72.204 13.1087 71.544 12.874 71.016 12.61C70.488 12.3313 70.0773 12.0233 69.784 11.686C69.5346 11.4073 69.344 11.092 69.212 10.74C69.0946 10.388 69.036 10.0067 69.036 9.596C69.036 9.08267 69.146 8.62067 69.366 8.21C69.6006 7.78467 69.916 7.418 70.312 7.11C70.708 6.802 71.17 6.56733 71.698 6.406C72.226 6.24467 72.776 6.164 73.348 6.164C73.9346 6.164 74.4993 6.23733 75.042 6.384C75.5993 6.53067 76.1126 6.74333 76.582 7.022C77.066 7.286 77.4766 7.60867 77.814 7.99L76.318 9.64C76.0393 9.376 75.7313 9.14133 75.394 8.936C75.0713 8.73067 74.7413 8.56933 74.404 8.452C74.0666 8.32 73.7513 8.254 73.458 8.254C73.1793 8.254 72.93 8.28333 72.71 8.342C72.49 8.386 72.3066 8.45933 72.16 8.562C72.0133 8.66467 71.896 8.79667 71.808 8.958C71.7346 9.10467 71.698 9.28067 71.698 9.486C71.7126 9.662 71.7566 9.83067 71.83 9.992C71.918 10.1387 72.0353 10.2633 72.182 10.366C72.3433 10.4687 72.5853 10.586 72.908 10.718C73.2306 10.85 73.6486 10.9747 74.162 11.092C74.8806 11.2827 75.482 11.4953 75.966 11.73C76.45 11.9647 76.8313 12.236 77.11 12.544C77.3886 12.808 77.5866 13.116 77.704 13.468C77.8213 13.82 77.88 14.2087 77.88 14.634C77.88 15.3233 77.682 15.9393 77.286 16.482C76.9046 17.0247 76.3766 17.45 75.702 17.758C75.042 18.066 74.294 18.22 73.458 18.22ZM88.4905 23.06L90.9545 17.362L90.9765 19.166L85.2565 6.406H88.3805L91.5705 13.974C91.6732 14.1647 91.7758 14.4213 91.8785 14.744C91.9812 15.052 92.0692 15.36 92.1425 15.668L91.5925 15.844C91.6952 15.5653 91.8052 15.272 91.9225 14.964C92.0398 14.6413 92.1498 14.3113 92.2525 13.974L94.9805 6.406H98.1265L93.2865 18L91.3065 23.06H88.4905ZM104.902 18.22C103.743 18.22 102.709 17.9633 101.8 17.45C100.89 16.922 100.172 16.2033 99.6436 15.294C99.1156 14.3847 98.8516 13.3507 98.8516 12.192C98.8516 11.0333 99.1156 9.99933 99.6436 9.09C100.172 8.18067 100.89 7.46933 101.8 6.956C102.709 6.428 103.743 6.164 104.902 6.164C106.046 6.164 107.072 6.428 107.982 6.956C108.891 7.46933 109.602 8.18067 110.116 9.09C110.644 9.99933 110.908 11.0333 110.908 12.192C110.908 13.3507 110.644 14.3847 110.116 15.294C109.602 16.2033 108.891 16.922 107.982 17.45C107.072 17.9633 106.046 18.22 104.902 18.22ZM104.902 15.822C105.532 15.822 106.09 15.6607 106.574 15.338C107.072 15.0153 107.461 14.5827 107.74 14.04C108.033 13.4973 108.172 12.8813 108.158 12.192C108.172 11.488 108.033 10.8647 107.74 10.322C107.461 9.77933 107.072 9.354 106.574 9.046C106.09 8.72333 105.532 8.562 104.902 8.562C104.271 8.562 103.699 8.72333 103.186 9.046C102.687 9.354 102.298 9.78667 102.02 10.344C101.741 10.8867 101.602 11.5027 101.602 12.192C101.602 12.8813 101.741 13.4973 102.02 14.04C102.298 14.5827 102.687 15.0153 103.186 15.338C103.699 15.6607 104.271 15.822 104.902 15.822ZM117.354 18.22C116.518 18.22 115.792 18.0367 115.176 17.67C114.56 17.2887 114.091 16.7533 113.768 16.064C113.445 15.36 113.284 14.524 113.284 13.556V6.406H115.99V12.984C115.99 13.6 116.085 14.128 116.276 14.568C116.467 14.9933 116.745 15.3233 117.112 15.558C117.479 15.7927 117.919 15.91 118.432 15.91C118.813 15.91 119.158 15.8513 119.466 15.734C119.789 15.602 120.067 15.426 120.302 15.206C120.537 14.9713 120.72 14.7 120.852 14.392C120.984 14.0693 121.05 13.7247 121.05 13.358V6.406H123.756V18H121.116L121.072 15.58L121.556 15.316C121.38 15.8733 121.079 16.372 120.654 16.812C120.243 17.2373 119.752 17.582 119.18 17.846C118.608 18.0953 117.999 18.22 117.354 18.22ZM126.928 18V6.406H129.59L129.634 10.102L129.26 9.266C129.421 8.67933 129.7 8.15133 130.096 7.682C130.492 7.21267 130.946 6.846 131.46 6.582C131.988 6.30333 132.538 6.164 133.11 6.164C133.359 6.164 133.594 6.186 133.814 6.23C134.048 6.274 134.239 6.32533 134.386 6.384L133.66 9.354C133.498 9.266 133.3 9.19267 133.066 9.134C132.831 9.07533 132.596 9.046 132.362 9.046C131.995 9.046 131.643 9.11933 131.306 9.266C130.983 9.398 130.697 9.58867 130.448 9.838C130.198 10.0873 130 10.3807 129.854 10.718C129.722 11.0407 129.656 11.4073 129.656 11.818V18H126.928ZM143.71 18V5.372C143.71 4.668 143.864 4.04467 144.172 3.502C144.48 2.94467 144.906 2.512 145.448 2.204C145.991 1.88133 146.622 1.72 147.34 1.72C147.839 1.72 148.301 1.808 148.726 1.984C149.152 2.14533 149.511 2.37267 149.804 2.666L148.968 4.712C148.778 4.55067 148.572 4.426 148.352 4.338C148.147 4.25 147.949 4.206 147.758 4.206C147.465 4.206 147.216 4.25733 147.01 4.36C146.82 4.448 146.673 4.58733 146.57 4.778C146.482 4.96867 146.438 5.196 146.438 5.46V18H145.074C144.81 18 144.561 18 144.326 18C144.106 18 143.901 18 143.71 18ZM141.906 9.024V6.648H149.056V9.024H141.906ZM151.608 18V6.406H154.314V18H151.608ZM152.928 3.942C152.386 3.942 151.96 3.81 151.652 3.546C151.359 3.26733 151.212 2.87867 151.212 2.38C151.212 1.91067 151.366 1.52933 151.674 1.236C151.982 0.942666 152.4 0.795999 152.928 0.795999C153.486 0.795999 153.911 0.935332 154.204 1.214C154.512 1.478 154.666 1.86667 154.666 2.38C154.666 2.83467 154.512 3.20867 154.204 3.502C153.896 3.79533 153.471 3.942 152.928 3.942ZM157.736 18V6.406H160.398L160.442 10.102L160.068 9.266C160.23 8.67933 160.508 8.15133 160.904 7.682C161.3 7.21267 161.755 6.846 162.268 6.582C162.796 6.30333 163.346 6.164 163.918 6.164C164.168 6.164 164.402 6.186 164.622 6.23C164.857 6.274 165.048 6.32533 165.194 6.384L164.468 9.354C164.307 9.266 164.109 9.19267 163.874 9.134C163.64 9.07533 163.405 9.046 163.17 9.046C162.804 9.046 162.452 9.11933 162.114 9.266C161.792 9.398 161.506 9.58867 161.256 9.838C161.007 10.0873 160.809 10.3807 160.662 10.718C160.53 11.0407 160.464 11.4073 160.464 11.818V18H157.736ZM170.868 18.22C169.841 18.22 168.917 18.0513 168.096 17.714C167.289 17.362 166.629 16.8633 166.116 16.218L167.876 14.7C168.316 15.1987 168.807 15.558 169.35 15.778C169.893 15.998 170.465 16.108 171.066 16.108C171.315 16.108 171.535 16.0787 171.726 16.02C171.931 15.9613 172.107 15.8733 172.254 15.756C172.401 15.6387 172.511 15.5067 172.584 15.36C172.672 15.1987 172.716 15.0227 172.716 14.832C172.716 14.48 172.584 14.2013 172.32 13.996C172.173 13.8933 171.939 13.7833 171.616 13.666C171.308 13.5487 170.905 13.4313 170.406 13.314C169.614 13.1087 168.954 12.874 168.426 12.61C167.898 12.3313 167.487 12.0233 167.194 11.686C166.945 11.4073 166.754 11.092 166.622 10.74C166.505 10.388 166.446 10.0067 166.446 9.596C166.446 9.08267 166.556 8.62067 166.776 8.21C167.011 7.78467 167.326 7.418 167.722 7.11C168.118 6.802 168.58 6.56733 169.108 6.406C169.636 6.24467 170.186 6.164 170.758 6.164C171.345 6.164 171.909 6.23733 172.452 6.384C173.009 6.53067 173.523 6.74333 173.992 7.022C174.476 7.286 174.887 7.60867 175.224 7.99L173.728 9.64C173.449 9.376 173.141 9.14133 172.804 8.936C172.481 8.73067 172.151 8.56933 171.814 8.452C171.477 8.32 171.161 8.254 170.868 8.254C170.589 8.254 170.34 8.28333 170.12 8.342C169.9 8.386 169.717 8.45933 169.57 8.562C169.423 8.66467 169.306 8.79667 169.218 8.958C169.145 9.10467 169.108 9.28067 169.108 9.486C169.123 9.662 169.167 9.83067 169.24 9.992C169.328 10.1387 169.445 10.2633 169.592 10.366C169.753 10.4687 169.995 10.586 170.318 10.718C170.641 10.85 171.059 10.9747 171.572 11.092C172.291 11.2827 172.892 11.4953 173.376 11.73C173.86 11.9647 174.241 12.236 174.52 12.544C174.799 12.808 174.997 13.116 175.114 13.468C175.231 13.82 175.29 14.2087 175.29 14.634C175.29 15.3233 175.092 15.9393 174.696 16.482C174.315 17.0247 173.787 17.45 173.112 17.758C172.452 18.066 171.704 18.22 170.868 18.22ZM178.928 18V3.458H181.634V18H178.928ZM176.64 8.914V6.406H184.164V8.914H176.64ZM193.945 18V3.458H196.651V18H193.945ZM191.657 8.914V6.406H199.181V8.914H191.657ZM201.55 18V6.406H204.256V18H201.55ZM202.87 3.942C202.328 3.942 201.902 3.81 201.594 3.546C201.301 3.26733 201.154 2.87867 201.154 2.38C201.154 1.91067 201.308 1.52933 201.616 1.236C201.924 0.942666 202.342 0.795999 202.87 0.795999C203.428 0.795999 203.853 0.935332 204.146 1.214C204.454 1.478 204.608 1.86667 204.608 2.38C204.608 2.83467 204.454 3.20867 204.146 3.502C203.838 3.79533 203.413 3.942 202.87 3.942ZM207.644 18V6.406H210.306L210.35 8.738L209.91 8.914C210.042 8.53267 210.24 8.18067 210.504 7.858C210.768 7.52067 211.083 7.23467 211.45 7C211.816 6.75067 212.205 6.56 212.616 6.428C213.026 6.28133 213.444 6.208 213.87 6.208C214.5 6.208 215.058 6.31067 215.542 6.516C216.04 6.70667 216.451 7.01467 216.774 7.44C217.111 7.86533 217.36 8.408 217.522 9.068L217.104 8.98L217.28 8.628C217.441 8.276 217.668 7.96067 217.962 7.682C218.255 7.38867 218.585 7.132 218.952 6.912C219.318 6.67733 219.7 6.50133 220.096 6.384C220.506 6.26667 220.91 6.208 221.306 6.208C222.186 6.208 222.919 6.384 223.506 6.736C224.092 7.088 224.532 7.62333 224.826 8.342C225.119 9.06067 225.266 9.948 225.266 11.004V18H222.538V11.18C222.538 10.5933 222.457 10.1093 222.296 9.728C222.149 9.34667 221.914 9.068 221.592 8.892C221.284 8.70133 220.895 8.606 220.426 8.606C220.059 8.606 219.707 8.672 219.37 8.804C219.047 8.92133 218.768 9.09733 218.534 9.332C218.299 9.552 218.116 9.80867 217.984 10.102C217.852 10.3953 217.786 10.718 217.786 11.07V18H215.058V11.158C215.058 10.6007 214.977 10.1387 214.816 9.772C214.654 9.39067 214.42 9.10467 214.112 8.914C213.804 8.70867 213.43 8.606 212.99 8.606C212.623 8.606 212.278 8.672 211.956 8.804C211.633 8.92133 211.354 9.09 211.12 9.31C210.885 9.53 210.702 9.78667 210.57 10.08C210.438 10.3733 210.372 10.696 210.372 11.048V18H207.644ZM233.704 18.22C232.486 18.22 231.408 17.9633 230.47 17.45C229.546 16.9367 228.82 16.24 228.292 15.36C227.778 14.4653 227.522 13.446 227.522 12.302C227.522 11.3927 227.668 10.564 227.962 9.816C228.255 9.068 228.658 8.42267 229.172 7.88C229.7 7.32267 230.323 6.89733 231.042 6.604C231.775 6.296 232.574 6.142 233.44 6.142C234.202 6.142 234.914 6.28867 235.574 6.582C236.234 6.87533 236.806 7.27867 237.29 7.792C237.774 8.29067 238.14 8.892 238.39 9.596C238.654 10.2853 238.778 11.0407 238.764 11.862L238.742 12.808H229.348L228.842 10.96H236.476L236.124 11.334V10.85C236.08 10.3953 235.933 9.99933 235.684 9.662C235.434 9.31 235.112 9.03867 234.716 8.848C234.334 8.64267 233.909 8.54 233.44 8.54C232.721 8.54 232.112 8.67933 231.614 8.958C231.13 9.23667 230.763 9.64 230.514 10.168C230.264 10.6813 230.14 11.3267 230.14 12.104C230.14 12.852 230.294 13.5047 230.602 14.062C230.924 14.6193 231.372 15.052 231.944 15.36C232.53 15.6533 233.212 15.8 233.99 15.8C234.532 15.8 235.031 15.712 235.486 15.536C235.94 15.36 236.432 15.0447 236.96 14.59L238.302 16.46C237.906 16.8267 237.451 17.142 236.938 17.406C236.439 17.6553 235.911 17.8533 235.354 18C234.796 18.1467 234.246 18.22 233.704 18.22ZM47.3568 47V35.406H50.0628V47H47.3568ZM48.6768 32.942C48.1342 32.942 47.7088 32.81 47.4008 32.546C47.1075 32.2673 46.9608 31.8787 46.9608 31.38C46.9608 30.9107 47.1148 30.5293 47.4228 30.236C47.7308 29.9427 48.1488 29.796 48.6768 29.796C49.2342 29.796 49.6595 29.9353 49.9528 30.214C50.2608 30.478 50.4148 30.8667 50.4148 31.38C50.4148 31.8347 50.2608 32.2087 49.9528 32.502C49.6448 32.7953 49.2195 32.942 48.6768 32.942ZM53.4942 47V35.406H56.1342L56.1782 37.782L55.6722 38.046C55.8188 37.518 56.1048 37.0413 56.5302 36.616C56.9555 36.176 57.4615 35.824 58.0482 35.56C58.6348 35.296 59.2362 35.164 59.8522 35.164C60.7322 35.164 61.4655 35.34 62.0522 35.692C62.6535 36.044 63.1008 36.572 63.3942 37.276C63.7022 37.98 63.8562 38.86 63.8562 39.916V47H61.1502V40.114C61.1502 39.5273 61.0695 39.0433 60.9082 38.662C60.7468 38.266 60.4975 37.98 60.1602 37.804C59.8228 37.6133 59.4122 37.5253 58.9282 37.54C58.5322 37.54 58.1655 37.606 57.8282 37.738C57.5055 37.8553 57.2195 38.0313 56.9702 38.266C56.7355 38.486 56.5448 38.7427 56.3982 39.036C56.2662 39.3293 56.2002 39.652 56.2002 40.004V47H54.8582C54.5942 47 54.3448 47 54.1102 47C53.8902 47 53.6848 47 53.4942 47ZM78.7352 47.22C77.8405 47.22 77.0192 47.11 76.2712 46.89C75.5232 46.6553 74.8485 46.3107 74.2472 45.856C73.6459 45.4013 73.1105 44.8513 72.6412 44.206L74.5112 42.094C75.2299 43.0913 75.9339 43.7807 76.6232 44.162C77.3125 44.5433 78.0899 44.734 78.9552 44.734C79.4539 44.734 79.9085 44.6607 80.3192 44.514C80.7299 44.3527 81.0525 44.14 81.2872 43.876C81.5219 43.5973 81.6392 43.282 81.6392 42.93C81.6392 42.6807 81.5879 42.4533 81.4852 42.248C81.3972 42.028 81.2579 41.8373 81.0672 41.676C80.8765 41.5 80.6419 41.3387 80.3632 41.192C80.0845 41.0453 79.7692 40.9207 79.4172 40.818C79.0652 40.7153 78.6765 40.62 78.2512 40.532C77.4445 40.3707 76.7405 40.158 76.1392 39.894C75.5379 39.6153 75.0319 39.278 74.6212 38.882C74.2105 38.4713 73.9099 38.0167 73.7192 37.518C73.5285 37.0047 73.4332 36.4253 73.4332 35.78C73.4332 35.1347 73.5725 34.5407 73.8512 33.998C74.1445 33.4553 74.5405 32.986 75.0392 32.59C75.5379 32.194 76.1172 31.886 76.7772 31.666C77.4372 31.446 78.1485 31.336 78.9112 31.336C79.7765 31.336 80.5465 31.4387 81.2212 31.644C81.9105 31.8493 82.5119 32.1573 83.0252 32.568C83.5532 32.964 83.9859 33.448 84.3232 34.02L82.4312 35.89C82.1379 35.4353 81.8079 35.0613 81.4412 34.768C81.0745 34.46 80.6785 34.2327 80.2532 34.086C79.8279 33.9247 79.3805 33.844 78.9112 33.844C78.3832 33.844 77.9212 33.9173 77.5252 34.064C77.1439 34.2107 76.8432 34.4233 76.6232 34.702C76.4032 34.966 76.2932 35.2887 76.2932 35.67C76.2932 35.9633 76.3592 36.2273 76.4912 36.462C76.6232 36.682 76.8065 36.88 77.0412 37.056C77.2905 37.232 77.6059 37.386 77.9872 37.518C78.3685 37.65 78.8012 37.7673 79.2852 37.87C80.0919 38.0313 80.8179 38.2513 81.4632 38.53C82.1085 38.794 82.6585 39.1167 83.1132 39.498C83.5679 39.8647 83.9125 40.29 84.1472 40.774C84.3819 41.2433 84.4992 41.7713 84.4992 42.358C84.4992 43.37 84.2572 44.2427 83.7732 44.976C83.3039 45.6947 82.6365 46.252 81.7712 46.648C80.9059 47.0293 79.8939 47.22 78.7352 47.22ZM91.5382 47.22C90.5848 47.22 89.7195 46.956 88.9422 46.428C88.1648 45.9 87.5415 45.1813 87.0722 44.272C86.6028 43.3627 86.3682 42.3287 86.3682 41.17C86.3682 40.0113 86.6028 38.9773 87.0722 38.068C87.5415 37.1587 88.1795 36.4473 88.9862 35.934C89.7928 35.4207 90.7022 35.164 91.7142 35.164C92.3008 35.164 92.8362 35.252 93.3202 35.428C93.8042 35.5893 94.2295 35.824 94.5962 36.132C94.9628 36.44 95.2635 36.792 95.4982 37.188C95.7475 37.584 95.9162 38.0093 96.0042 38.464L95.4102 38.31V35.406H98.1382V47H95.3882V44.228L96.0262 44.118C95.9235 44.514 95.7328 44.9027 95.4542 45.284C95.1902 45.6507 94.8528 45.9807 94.4422 46.274C94.0462 46.5527 93.5988 46.78 93.1002 46.956C92.6162 47.132 92.0955 47.22 91.5382 47.22ZM92.2862 44.822C92.9168 44.822 93.4742 44.668 93.9582 44.36C94.4422 44.052 94.8162 43.6267 95.0802 43.084C95.3588 42.5267 95.4982 41.8887 95.4982 41.17C95.4982 40.466 95.3588 39.8427 95.0802 39.3C94.8162 38.7573 94.4422 38.332 93.9582 38.024C93.4742 37.716 92.9168 37.562 92.2862 37.562C91.6555 37.562 91.0982 37.716 90.6142 38.024C90.1448 38.332 89.7782 38.7573 89.5142 39.3C89.2502 39.8427 89.1182 40.466 89.1182 41.17C89.1182 41.8887 89.2502 42.5267 89.5142 43.084C89.7782 43.6267 90.1448 44.052 90.6142 44.36C91.0982 44.668 91.6555 44.822 92.2862 44.822ZM101.275 47V35.406H103.937L103.981 39.102L103.607 38.266C103.769 37.6793 104.047 37.1513 104.443 36.682C104.839 36.2127 105.294 35.846 105.807 35.582C106.335 35.3033 106.885 35.164 107.457 35.164C107.707 35.164 107.941 35.186 108.161 35.23C108.396 35.274 108.587 35.3253 108.733 35.384L108.007 38.354C107.846 38.266 107.648 38.1927 107.413 38.134C107.179 38.0753 106.944 38.046 106.709 38.046C106.343 38.046 105.991 38.1193 105.653 38.266C105.331 38.398 105.045 38.5887 104.795 38.838C104.546 39.0873 104.348 39.3807 104.201 39.718C104.069 40.0407 104.003 40.4073 104.003 40.818V47H101.275ZM114.419 47.22C113.466 47.22 112.6 46.956 111.823 46.428C111.046 45.9 110.422 45.1813 109.953 44.272C109.484 43.3627 109.249 42.3287 109.249 41.17C109.249 40.0113 109.484 38.9773 109.953 38.068C110.422 37.1587 111.06 36.4473 111.867 35.934C112.674 35.4207 113.583 35.164 114.595 35.164C115.182 35.164 115.717 35.252 116.201 35.428C116.685 35.5893 117.11 35.824 117.477 36.132C117.844 36.44 118.144 36.792 118.379 37.188C118.628 37.584 118.797 38.0093 118.885 38.464L118.291 38.31V35.406H121.019V47H118.269V44.228L118.907 44.118C118.804 44.514 118.614 44.9027 118.335 45.284C118.071 45.6507 117.734 45.9807 117.323 46.274C116.927 46.5527 116.48 46.78 115.981 46.956C115.497 47.132 114.976 47.22 114.419 47.22ZM115.167 44.822C115.798 44.822 116.355 44.668 116.839 44.36C117.323 44.052 117.697 43.6267 117.961 43.084C118.24 42.5267 118.379 41.8887 118.379 41.17C118.379 40.466 118.24 39.8427 117.961 39.3C117.697 38.7573 117.323 38.332 116.839 38.024C116.355 37.716 115.798 37.562 115.167 37.562C114.536 37.562 113.979 37.716 113.495 38.024C113.026 38.332 112.659 38.7573 112.395 39.3C112.131 39.8427 111.999 40.466 111.999 41.17C111.999 41.8887 112.131 42.5267 112.395 43.084C112.659 43.6267 113.026 44.052 113.495 44.36C113.979 44.668 114.536 44.822 115.167 44.822ZM123.716 42.006V39.41H130.514V42.006H123.716ZM133.728 47V31.6H136.434L142.044 40.73L140.46 40.708L146.136 31.6H148.71V47H145.872V41.214C145.872 39.894 145.901 38.706 145.96 37.65C146.033 36.594 146.151 35.5453 146.312 34.504L146.664 35.45L141.89 42.82H140.438L135.818 35.516L136.126 34.504C136.287 35.4867 136.397 36.4987 136.456 37.54C136.529 38.5667 136.566 39.7913 136.566 41.214V47H133.728ZM156.743 47.22C155.79 47.22 154.925 46.956 154.147 46.428C153.37 45.9 152.747 45.1813 152.277 44.272C151.808 43.3627 151.573 42.3287 151.573 41.17C151.573 40.0113 151.808 38.9773 152.277 38.068C152.747 37.1587 153.385 36.4473 154.191 35.934C154.998 35.4207 155.907 35.164 156.919 35.164C157.506 35.164 158.041 35.252 158.525 35.428C159.009 35.5893 159.435 35.824 159.801 36.132C160.168 36.44 160.469 36.792 160.703 37.188C160.953 37.584 161.121 38.0093 161.209 38.464L160.615 38.31V35.406H163.343V47H160.593V44.228L161.231 44.118C161.129 44.514 160.938 44.9027 160.659 45.284C160.395 45.6507 160.058 45.9807 159.647 46.274C159.251 46.5527 158.804 46.78 158.305 46.956C157.821 47.132 157.301 47.22 156.743 47.22ZM157.491 44.822C158.122 44.822 158.679 44.668 159.163 44.36C159.647 44.052 160.021 43.6267 160.285 43.084C160.564 42.5267 160.703 41.8887 160.703 41.17C160.703 40.466 160.564 39.8427 160.285 39.3C160.021 38.7573 159.647 38.332 159.163 38.024C158.679 37.716 158.122 37.562 157.491 37.562C156.861 37.562 156.303 37.716 155.819 38.024C155.35 38.332 154.983 38.7573 154.719 39.3C154.455 39.8427 154.323 40.466 154.323 41.17C154.323 41.8887 154.455 42.5267 154.719 43.084C154.983 43.6267 155.35 44.052 155.819 44.36C156.303 44.668 156.861 44.822 157.491 44.822ZM166.48 47V35.406H169.142L169.186 39.102L168.812 38.266C168.974 37.6793 169.252 37.1513 169.648 36.682C170.044 36.2127 170.499 35.846 171.012 35.582C171.54 35.3033 172.09 35.164 172.662 35.164C172.912 35.164 173.146 35.186 173.366 35.23C173.601 35.274 173.792 35.3253 173.938 35.384L173.212 38.354C173.051 38.266 172.853 38.1927 172.618 38.134C172.384 38.0753 172.149 38.046 171.914 38.046C171.548 38.046 171.196 38.1193 170.858 38.266C170.536 38.398 170.25 38.5887 170 38.838C169.751 39.0873 169.553 39.3807 169.406 39.718C169.274 40.0407 169.208 40.4073 169.208 40.818V47H166.48ZM179.624 47.22C178.671 47.22 177.805 46.956 177.028 46.428C176.251 45.9 175.627 45.1813 175.158 44.272C174.689 43.3627 174.454 42.3287 174.454 41.17C174.454 40.0113 174.689 38.9773 175.158 38.068C175.627 37.1587 176.265 36.4473 177.072 35.934C177.879 35.4207 178.788 35.164 179.8 35.164C180.387 35.164 180.922 35.252 181.406 35.428C181.89 35.5893 182.315 35.824 182.682 36.132C183.049 36.44 183.349 36.792 183.584 37.188C183.833 37.584 184.002 38.0093 184.09 38.464L183.496 38.31V35.406H186.224V47H183.474V44.228L184.112 44.118C184.009 44.514 183.819 44.9027 183.54 45.284C183.276 45.6507 182.939 45.9807 182.528 46.274C182.132 46.5527 181.685 46.78 181.186 46.956C180.702 47.132 180.181 47.22 179.624 47.22ZM180.372 44.822C181.003 44.822 181.56 44.668 182.044 44.36C182.528 44.052 182.902 43.6267 183.166 43.084C183.445 42.5267 183.584 41.8887 183.584 41.17C183.584 40.466 183.445 39.8427 183.166 39.3C182.902 38.7573 182.528 38.332 182.044 38.024C181.56 37.716 181.003 37.562 180.372 37.562C179.741 37.562 179.184 37.716 178.7 38.024C178.231 38.332 177.864 38.7573 177.6 39.3C177.336 39.8427 177.204 40.466 177.204 41.17C177.204 41.8887 177.336 42.5267 177.6 43.084C177.864 43.6267 178.231 44.052 178.7 44.36C179.184 44.668 179.741 44.822 180.372 44.822ZM189.823 41.588C189.721 40.6787 189.618 39.74 189.515 38.772C189.427 37.7893 189.354 36.8213 189.295 35.868C189.237 34.9 189.207 33.9833 189.207 33.118V31.512H192.067V33.118C192.067 34.0127 192.038 34.9513 191.979 35.934C191.935 36.9167 191.862 37.892 191.759 38.86C191.671 39.828 191.569 40.7373 191.451 41.588H189.823ZM190.593 47.242C190.065 47.242 189.655 47.088 189.361 46.78C189.083 46.472 188.943 46.0393 188.943 45.482C188.943 44.9687 189.09 44.5507 189.383 44.228C189.691 43.8907 190.095 43.722 190.593 43.722C191.121 43.722 191.525 43.876 191.803 44.184C192.097 44.4773 192.243 44.91 192.243 45.482C192.243 45.9953 192.089 46.4207 191.781 46.758C191.488 47.0807 191.092 47.242 190.593 47.242Z" fill="#007BED"/>
</svg>
