<svg width="137" height="20" viewBox="0 0 137 20" fill="none" xmlns="http://www.w3.org/2000/svg">
<path d="M1.60938 15.5V1.35938H4.53906V7.21875H10.6719V1.35938H13.6211V15.5H10.6719V9.64062H4.53906V15.5H1.60938ZM15.9453 15.5V4.89453H18.8359V15.5H15.9453ZM15.8086 2.04297C15.8086 1.22266 16.5215 0.568359 17.3906 0.558594C18.25 0.568359 18.9629 1.22266 18.9531 2.04297C18.9629 2.84375 18.25 3.50781 17.3906 3.50781C16.5215 3.50781 15.8086 2.84375 15.8086 2.04297ZM24.2266 14.0547L22.5469 19.6211H20.4766L21.4531 14.0547H24.2266ZM33.7773 1.35938V15.5H30.8477V1.35938H33.7773ZM39.4805 1.35938L37.8008 6.92578H35.7305L36.707 1.35938H39.4805ZM40.9648 15.5V4.89453H43.7188V6.75H43.8359C44.2852 5.50977 45.3594 4.75781 46.7852 4.75781C48.2402 4.75781 49.3242 5.5293 49.6758 6.75H49.7734C50.2129 5.54883 51.4238 4.75781 52.9766 4.75781C54.9395 4.75781 56.3164 6.05664 56.3164 8.37109V15.5H53.4258V8.9375C53.4355 7.72656 52.7129 7.14062 51.7656 7.14062C50.6816 7.14062 50.0371 7.89258 50.0469 9.01562V15.5H47.2344V8.85938C47.2441 7.81445 46.5801 7.14062 45.5938 7.14062C44.6074 7.14062 43.8457 7.93164 43.8555 9.13281V15.5H40.9648Z" fill="#EF2B00"/>
<path d="M68.7281 0.507057H74.2261C74.7202 2.80085 75.1578 5.25697 75.5459 7.86836C75.9341 10.4797 76.1811 12.8159 76.2799 14.8768H76.414C77.261 13.0559 78.3267 11.0373 79.6112 8.82116C80.8958 6.60501 82.3497 4.14889 83.9941 1.46692L84.5729 0.507057H90.0497L86.7185 16.126H82.2297L83.9518 8.05892C84.0577 7.46606 84.1706 6.94378 84.2976 6.5062C84.4247 6.06861 84.5376 5.70161 84.6435 5.39812C84.6717 5.27814 84.7211 5.16521 84.7776 5.05935H84.6223L78.0726 16.126H74.0708L72.2358 5.05935H72.1229C72.1088 5.17933 72.0947 5.31343 72.0805 5.46164C72.0029 6.14625 71.8618 7.01436 71.6571 8.05186L69.935 16.1189H65.418L68.7281 0.5V0.507057Z" fill="#EF2B00"/>
<path d="M91.8509 15.9354C91.1169 15.5543 90.5452 15.0179 90.1429 14.3121C89.7406 13.6134 89.543 12.8018 89.543 11.8772C89.543 10.5644 89.8253 9.35049 90.3828 8.22124C90.9404 7.09905 91.7591 6.19565 92.839 5.53222C93.9188 4.86172 95.2033 4.52295 96.6925 4.52295C97.5536 4.52295 98.3229 4.69939 98.9934 5.05934C99.6639 5.41929 100.186 5.93451 100.567 6.61206C100.948 7.28961 101.139 8.10126 101.139 9.03995H101.252C101.344 8.42592 101.428 7.81189 101.52 7.18375C101.612 6.63324 101.732 5.87099 101.88 4.90407H105.945L104.604 11.1855L104.513 11.5455C104.421 11.9337 104.386 12.223 104.393 12.4136C104.393 12.6112 104.484 12.7594 104.64 12.8582C104.795 12.9641 105.07 13.0135 105.458 13.0135L104.724 16.5001H103.807C102.402 16.5001 101.421 16.2954 100.857 15.9001C100.292 15.4978 100.01 14.9615 100.01 14.291C100.01 14.1286 100.024 13.9592 100.052 13.7757C100.08 13.5993 100.13 13.4158 100.186 13.2393C100.2 13.2111 100.214 13.1617 100.228 13.1053H100.116C99.5015 14.2839 98.7322 15.145 97.7936 15.6884C96.8549 16.2319 95.7468 16.5001 94.4623 16.5001C93.4671 16.5001 92.599 16.3095 91.8579 15.9284L91.8509 15.9354ZM98.6899 12.5124C99.2757 12.2371 99.7203 11.8842 100.01 11.4537C100.299 11.0232 100.447 10.5574 100.447 10.0704C100.447 9.68221 100.327 9.34344 100.08 9.03995C99.8333 8.74352 99.4733 8.51061 99.0075 8.34828C98.5417 8.18595 97.9559 8.10126 97.2501 8.10126C96.3255 8.10126 95.5774 8.24948 95.0128 8.5459C94.4481 8.84233 94.0388 9.20228 93.7918 9.63281C93.5447 10.0633 93.4248 10.5009 93.4248 10.9597C93.4248 11.5525 93.693 12.0325 94.2294 12.3924C94.7658 12.7524 95.528 12.9288 96.509 12.9288C97.3701 12.9288 98.097 12.7876 98.6899 12.5124Z" fill="#EF2B00"/>
<path d="M107.775 8.63006C107.775 8.38304 107.705 8.21365 107.564 8.12896C107.422 8.04427 107.147 7.99486 106.745 7.99486L107.479 4.5083C109.01 4.5083 110.118 4.66357 110.796 4.96706C111.474 5.27055 111.855 5.73636 111.939 6.36451C112.024 6.99265 111.89 7.85371 111.551 8.95473L111.509 9.06765L111.015 10.7192H111.149C111.699 9.28644 112.313 8.10779 112.984 7.17616C113.654 6.24452 114.353 5.57403 115.073 5.15056C115.793 4.73415 116.52 4.52242 117.254 4.52242C118.503 4.52242 119.371 4.86825 119.844 5.55992C120.317 6.25158 120.465 7.14792 120.268 8.24189C120.077 9.33585 119.625 10.4722 118.927 11.6508L116.287 11.4744C116.647 10.818 116.837 10.2675 116.859 9.80872C116.88 9.35702 116.753 9.01825 116.47 8.7924C116.188 8.56655 115.758 8.46068 115.172 8.46068C114.515 8.46068 113.901 8.66535 113.316 9.06059C112.737 9.46289 112.257 9.97105 111.876 10.5921C111.495 11.2132 111.234 11.8484 111.085 12.5048L110.302 16.1255H106.258L107.578 9.93576C107.712 9.30762 107.782 8.87709 107.782 8.63006H107.775Z" fill="#EF2B00"/>
<path d="M122.488 15.9354C121.754 15.5543 121.182 15.0179 120.78 14.3121C120.377 13.6134 120.18 12.8018 120.18 11.8772C120.18 10.5644 120.462 9.35049 121.02 8.22124C121.577 7.09905 122.396 6.19565 123.476 5.53222C124.556 4.86172 125.84 4.52295 127.329 4.52295C128.19 4.52295 128.96 4.69939 129.63 5.05934C130.301 5.41929 130.823 5.93451 131.204 6.61206C131.585 7.28961 131.776 8.10126 131.776 9.03995H131.889C131.98 8.42592 132.065 7.81189 132.157 7.18375C132.249 6.63324 132.369 5.87099 132.517 4.90407H136.582L135.241 11.1855L135.149 11.5455C135.058 11.9337 135.022 12.223 135.029 12.4136C135.029 12.6112 135.121 12.7594 135.276 12.8582C135.432 12.9641 135.707 13.0135 136.095 13.0135L135.361 16.5001H134.444C133.039 16.5001 132.058 16.2954 131.493 15.9001C130.929 15.4978 130.646 14.9615 130.646 14.291C130.646 14.1286 130.661 13.9592 130.689 13.7757C130.717 13.5993 130.766 13.4158 130.823 13.2393C130.837 13.2111 130.851 13.1617 130.865 13.1053H130.752C130.138 14.2839 129.369 15.145 128.43 15.6884C127.492 16.2319 126.384 16.5001 125.099 16.5001C124.104 16.5001 123.236 16.3095 122.495 15.9284L122.488 15.9354ZM129.327 12.5124C129.912 12.2371 130.357 11.8842 130.646 11.4537C130.936 11.0232 131.084 10.5574 131.084 10.0704C131.084 9.68221 130.964 9.34344 130.717 9.03995C130.47 8.74352 130.11 8.51061 129.644 8.34828C129.178 8.18595 128.593 8.10126 127.887 8.10126C126.962 8.10126 126.214 8.24948 125.649 8.5459C125.085 8.84233 124.676 9.20228 124.428 9.63281C124.181 10.0633 124.061 10.5009 124.061 10.9597C124.061 11.5525 124.33 12.0325 124.866 12.3924C125.402 12.7524 126.165 12.9288 127.146 12.9288C128.007 12.9288 128.734 12.7876 129.327 12.5124Z" fill="#EF2B00"/>
</svg>
