<svg width="129" height="20" viewBox="0 0 129 20" fill="none" xmlns="http://www.w3.org/2000/svg">
<path d="M2.01172 15.5V1.35938H4.94141V7.21875H11.0742V1.35938H14.0234V15.5H11.0742V9.64062H4.94141V15.5H2.01172ZM16.3477 15.5V4.89453H19.2383V15.5H16.3477ZM16.2109 2.04297C16.2109 1.22266 16.9238 0.568359 17.793 0.558594C18.6523 0.568359 19.3652 1.22266 19.3555 2.04297C19.3652 2.84375 18.6523 3.50781 17.793 3.50781C16.9238 3.50781 16.2109 2.84375 16.2109 2.04297ZM24.6289 14.0547L22.9492 19.6211H20.8789L21.8555 14.0547H24.6289ZM34.1797 1.35938V15.5H31.25V1.35938H34.1797ZM39.8828 1.35938L38.2031 6.92578H36.1328L37.1094 1.35938H39.8828ZM41.3672 15.5V4.89453H44.1211V6.75H44.2383C44.6875 5.50977 45.7617 4.75781 47.1875 4.75781C48.6426 4.75781 49.7266 5.5293 50.0781 6.75H50.1758C50.6152 5.54883 51.8262 4.75781 53.3789 4.75781C55.3418 4.75781 56.7188 6.05664 56.7188 8.37109V15.5H53.8281V8.9375C53.8379 7.72656 53.1152 7.14062 52.168 7.14062C51.084 7.14062 50.4395 7.89258 50.4492 9.01562V15.5H47.6367V8.85938C47.6465 7.81445 46.9824 7.14062 45.9961 7.14062C45.0098 7.14062 44.248 7.93164 44.2578 9.13281V15.5H41.3672Z" fill="#007BED"/>
<path d="M68.722 15.7283C67.5611 15.2025 66.7485 14.4582 66.2909 13.4885C65.8266 12.5256 65.7105 11.3784 65.9222 10.0467L70.0536 9.07704C69.9375 9.67115 70.0127 10.2038 70.279 10.6886C70.5453 11.1735 71.0097 11.5491 71.6652 11.8222C72.3208 12.0954 73.1539 12.232 74.1646 12.232C74.8543 12.232 75.4416 12.1637 75.9128 12.0271C76.384 11.8905 76.7391 11.7061 76.9713 11.474C77.2034 11.2418 77.3468 10.9891 77.4015 10.716C77.4561 10.4565 77.4424 10.2379 77.3468 10.0536C77.2512 9.87601 77.0464 9.71895 76.7322 9.5892C76.4181 9.45945 75.9538 9.34336 75.346 9.24093L71.8838 8.76291C70.3541 8.54439 69.2342 8.10051 68.5103 7.43128C67.7864 6.76206 67.5338 5.90845 67.7523 4.87047C68.0664 3.45689 68.9542 2.37793 70.4019 1.62676C71.8496 0.875587 73.5978 0.5 75.6465 0.5C77.1898 0.5 78.5009 0.691208 79.5799 1.07362C80.6588 1.45604 81.4783 2.09112 82.0314 2.9857C82.5846 3.88028 82.7963 5.08899 82.6665 6.61865L78.3439 7.7659C78.5487 7.04887 78.4873 6.46159 78.1731 6.01771C77.859 5.57384 77.3742 5.24605 76.7322 5.04119C76.0903 4.84315 75.3665 4.74072 74.5607 4.74072C73.7071 4.74072 73.0583 4.84998 72.6144 5.07533C72.1706 5.30068 71.8906 5.62847 71.795 6.05869C71.7404 6.30452 71.7472 6.51622 71.8155 6.68694C71.8906 6.85766 72.0477 7.0079 72.2935 7.14447C72.5393 7.27422 72.8876 7.37665 73.3315 7.44494L76.664 7.89565C77.9341 8.10051 78.9448 8.36684 79.6891 8.70828C80.4335 9.04972 80.9593 9.47311 81.2461 9.9921C81.5329 10.5111 81.6012 11.1325 81.4373 11.8496C81.2529 12.7988 80.7476 13.6319 79.9213 14.3489C79.1019 15.0591 78.0912 15.5986 76.903 15.9605C75.7147 16.3225 74.4719 16.5 73.1744 16.5C71.3579 16.5 69.8692 16.2405 68.7083 15.7079L68.722 15.7283Z" fill="#007BED"/>
<path d="M84.8932 15.8997C84.183 15.5309 83.6299 15.0119 83.2406 14.329C82.8514 13.653 82.6602 12.8677 82.6602 11.9731C82.6602 10.7029 82.9333 9.52836 83.4728 8.43574C84.0123 7.34995 84.8044 6.47586 85.8492 5.83395C86.894 5.18521 88.1369 4.85742 89.5778 4.85742C90.4109 4.85742 91.1553 5.02814 91.804 5.37641C92.4527 5.72469 92.9581 6.22319 93.3268 6.87876C93.6956 7.53433 93.88 8.31965 93.88 9.22789H93.9892C94.078 8.63378 94.1599 8.03967 94.2487 7.4319C94.3375 6.89925 94.4536 6.16173 94.597 5.22618H98.5304L97.2329 11.3039L97.1442 11.6521C97.0554 12.0277 97.0144 12.3077 97.0281 12.4921C97.0349 12.6833 97.1168 12.8267 97.2671 12.9223C97.4173 13.0247 97.6836 13.0725 98.0592 13.0725L97.3422 16.446H96.4544C95.1023 16.446 94.1463 16.2479 93.6 15.8655C93.0537 15.4763 92.7805 14.9573 92.7805 14.3086C92.7805 14.1515 92.7942 13.9876 92.8215 13.81C92.8488 13.6393 92.8966 13.4618 92.9512 13.2911C92.9649 13.2637 92.9786 13.2159 92.9922 13.1613H92.883C92.2888 14.3017 91.5445 15.1348 90.6363 15.6607C89.728 16.1865 88.6559 16.446 87.413 16.446C86.4502 16.446 85.6102 16.2616 84.8932 15.8928V15.8997ZM91.5104 12.5877C92.0771 12.3214 92.5074 11.9799 92.7873 11.5634C93.0673 11.1468 93.2107 10.6961 93.2107 10.2249C93.2107 9.84931 93.0946 9.52153 92.8556 9.22789C92.6166 8.94107 92.2752 8.71572 91.8176 8.55866C91.3601 8.4016 90.8002 8.31965 90.1173 8.31965C89.2227 8.31965 88.5057 8.46306 87.9525 8.74987C87.4062 9.03668 87.0101 9.38495 86.7711 9.80151C86.5321 10.2112 86.416 10.6415 86.416 11.0853C86.416 11.659 86.6755 12.1233 87.1945 12.4716C87.7135 12.8199 88.451 12.9906 89.4002 12.9906C90.2334 12.9906 90.9367 12.854 91.5104 12.5877Z" fill="#007BED"/>
<path d="M100.304 8.83131C100.304 8.5923 100.236 8.42841 100.099 8.34646C99.9627 8.26452 99.6964 8.21671 99.3071 8.21671L100.017 4.84326C101.499 4.84326 102.571 4.9935 103.227 5.28714C103.882 5.58078 104.251 6.03148 104.333 6.63925C104.415 7.24702 104.285 8.08014 103.958 9.14544L103.917 9.2547L103.439 10.8527H103.568C104.101 9.4664 104.695 8.32598 105.344 7.42457C105.993 6.52316 106.669 5.87442 107.365 5.46469C108.062 5.06178 108.765 4.85692 109.475 4.85692C110.684 4.85692 111.524 5.19153 111.981 5.86076C112.446 6.52999 112.582 7.39725 112.391 8.45572C112.207 9.5142 111.77 10.6136 111.094 11.7541L108.54 11.5833C108.888 10.9483 109.072 10.4156 109.093 9.97173C109.113 9.53468 108.99 9.2069 108.717 8.98838C108.444 8.76985 108.028 8.66742 107.461 8.66742C106.826 8.66742 106.225 8.86546 105.665 9.24787C105.105 9.63712 104.64 10.1288 104.272 10.7297C103.903 11.3307 103.65 11.9453 103.507 12.5804L102.749 16.0836H98.8359L100.113 10.0946C100.243 9.48688 100.311 9.07032 100.311 8.83131H100.304Z" fill="#007BED"/>
<path d="M114.546 15.8997C113.835 15.5309 113.282 15.0119 112.893 14.329C112.504 13.653 112.312 12.8677 112.312 11.9731C112.312 10.7029 112.586 9.52836 113.125 8.43574C113.665 7.34995 114.457 6.47586 115.502 5.83395C116.546 5.18521 117.789 4.85742 119.23 4.85742C120.063 4.85742 120.808 5.02814 121.456 5.37641C122.105 5.72469 122.61 6.22319 122.979 6.87876C123.348 7.53433 123.532 8.31965 123.532 9.22789H123.642C123.73 8.63378 123.812 8.03967 123.901 7.4319C123.99 6.89925 124.106 6.16173 124.249 5.22618H128.183L126.885 11.3039L126.797 11.6521C126.708 12.0277 126.667 12.3077 126.68 12.4921C126.687 12.6833 126.769 12.8267 126.919 12.9223C127.07 13.0247 127.336 13.0725 127.712 13.0725L126.995 16.446H126.107C124.755 16.446 123.799 16.2479 123.252 15.8655C122.706 15.4763 122.433 14.9573 122.433 14.3086C122.433 14.1515 122.447 13.9876 122.474 13.81C122.501 13.6393 122.549 13.4618 122.604 13.2911C122.617 13.2637 122.631 13.2159 122.645 13.1613H122.535C121.941 14.3017 121.197 15.1348 120.289 15.6607C119.38 16.1865 118.308 16.446 117.065 16.446C116.103 16.446 115.263 16.2616 114.546 15.8928V15.8997ZM121.163 12.5877C121.729 12.3214 122.16 11.9799 122.44 11.5634C122.72 11.1468 122.863 10.6961 122.863 10.2249C122.863 9.84931 122.747 9.52153 122.508 9.22789C122.269 8.94107 121.928 8.71572 121.47 8.55866C121.012 8.4016 120.452 8.31965 119.77 8.31965C118.875 8.31965 118.158 8.46306 117.605 8.74987C117.059 9.03668 116.662 9.38495 116.423 9.80151C116.184 10.2112 116.068 10.6415 116.068 11.0853C116.068 11.659 116.328 12.1233 116.847 12.4716C117.366 12.8199 118.103 12.9906 119.053 12.9906C119.886 12.9906 120.589 12.854 121.163 12.5877Z" fill="#007BED"/>
</svg>
