<svg width="257" height="52" viewBox="0 0 257 52" fill="none" xmlns="http://www.w3.org/2000/svg">
<path d="M6.5809 17.5V9.822L6.7349 10.9L0.508898 2.1H3.8529L8.6049 8.92L7.5709 8.854L11.8609 2.1H15.0729L9.1109 11.142L9.4409 9.646V17.5H6.5809ZM20.2835 17.72C19.1248 17.72 18.0908 17.4633 17.1815 16.95C16.2721 16.422 15.5535 15.7033 15.0255 14.794C14.4975 13.8847 14.2335 12.8507 14.2335 11.692C14.2335 10.5333 14.4975 9.49933 15.0255 8.59C15.5535 7.68067 16.2721 6.96933 17.1815 6.456C18.0908 5.928 19.1248 5.664 20.2835 5.664C21.4275 5.664 22.4541 5.928 23.3635 6.456C24.2728 6.96933 24.9841 7.68067 25.4975 8.59C26.0255 9.49933 26.2895 10.5333 26.2895 11.692C26.2895 12.8507 26.0255 13.8847 25.4975 14.794C24.9841 15.7033 24.2728 16.422 23.3635 16.95C22.4541 17.4633 21.4275 17.72 20.2835 17.72ZM20.2835 15.322C20.9141 15.322 21.4715 15.1607 21.9555 14.838C22.4541 14.5153 22.8428 14.0827 23.1215 13.54C23.4148 12.9973 23.5541 12.3813 23.5395 11.692C23.5541 10.988 23.4148 10.3647 23.1215 9.822C22.8428 9.27933 22.4541 8.854 21.9555 8.546C21.4715 8.22333 20.9141 8.062 20.2835 8.062C19.6528 8.062 19.0808 8.22333 18.5675 8.546C18.0688 8.854 17.6801 9.28667 17.4015 9.844C17.1228 10.3867 16.9835 11.0027 16.9835 11.692C16.9835 12.3813 17.1228 12.9973 17.4015 13.54C17.6801 14.0827 18.0688 14.5153 18.5675 14.838C19.0808 15.1607 19.6528 15.322 20.2835 15.322ZM32.736 17.72C31.9 17.72 31.174 17.5367 30.558 17.17C29.942 16.7887 29.4726 16.2533 29.15 15.564C28.8273 14.86 28.666 14.024 28.666 13.056V5.906H31.372V12.484C31.372 13.1 31.4673 13.628 31.658 14.068C31.8486 14.4933 32.1273 14.8233 32.494 15.058C32.8606 15.2927 33.3006 15.41 33.814 15.41C34.1953 15.41 34.54 15.3513 34.848 15.234C35.1706 15.102 35.4493 14.926 35.684 14.706C35.9186 14.4713 36.102 14.2 36.234 13.892C36.366 13.5693 36.432 13.2247 36.432 12.858V5.906H39.138V17.5H36.498L36.454 15.08L36.938 14.816C36.762 15.3733 36.4613 15.872 36.036 16.312C35.6253 16.7373 35.134 17.082 34.562 17.346C33.99 17.5953 33.3813 17.72 32.736 17.72ZM51.3064 13.958L50.7784 11.428L56.2784 5.906H59.8864L51.3064 13.958ZM48.7764 17.5V1.22H51.4824V17.5H48.7764ZM56.6084 17.5L52.3404 12.33L54.2544 10.702L59.9524 17.5H56.6084ZM61.7315 17.5V5.906H64.3715L64.4155 8.282L63.9095 8.546C64.0561 8.018 64.3421 7.54133 64.7675 7.116C65.1928 6.676 65.6988 6.324 66.2855 6.06C66.8721 5.796 67.4735 5.664 68.0895 5.664C68.9695 5.664 69.7028 5.84 70.2895 6.192C70.8908 6.544 71.3381 7.072 71.6315 7.776C71.9395 8.48 72.0935 9.36 72.0935 10.416V17.5H69.3875V10.614C69.3875 10.0273 69.3068 9.54333 69.1455 9.162C68.9841 8.766 68.7348 8.48 68.3975 8.304C68.0601 8.11333 67.6495 8.02533 67.1655 8.04C66.7695 8.04 66.4028 8.106 66.0655 8.238C65.7428 8.35533 65.4568 8.53133 65.2075 8.766C64.9728 8.986 64.7821 9.24267 64.6355 9.536C64.5035 9.82933 64.4375 10.152 64.4375 10.504V17.5H63.0955C62.8315 17.5 62.5821 17.5 62.3475 17.5C62.1275 17.5 61.9221 17.5 61.7315 17.5ZM80.4397 17.72C79.281 17.72 78.247 17.4633 77.3377 16.95C76.4284 16.422 75.7097 15.7033 75.1817 14.794C74.6537 13.8847 74.3897 12.8507 74.3897 11.692C74.3897 10.5333 74.6537 9.49933 75.1817 8.59C75.7097 7.68067 76.4284 6.96933 77.3377 6.456C78.247 5.928 79.281 5.664 80.4397 5.664C81.5837 5.664 82.6104 5.928 83.5197 6.456C84.429 6.96933 85.1404 7.68067 85.6537 8.59C86.1817 9.49933 86.4457 10.5333 86.4457 11.692C86.4457 12.8507 86.1817 13.8847 85.6537 14.794C85.1404 15.7033 84.429 16.422 83.5197 16.95C82.6104 17.4633 81.5837 17.72 80.4397 17.72ZM80.4397 15.322C81.0704 15.322 81.6277 15.1607 82.1117 14.838C82.6104 14.5153 82.999 14.0827 83.2777 13.54C83.571 12.9973 83.7104 12.3813 83.6957 11.692C83.7104 10.988 83.571 10.3647 83.2777 9.822C82.999 9.27933 82.6104 8.854 82.1117 8.546C81.6277 8.22333 81.0704 8.062 80.4397 8.062C79.809 8.062 79.237 8.22333 78.7237 8.546C78.225 8.854 77.8364 9.28667 77.5577 9.844C77.279 10.3867 77.1397 11.0027 77.1397 11.692C77.1397 12.3813 77.279 12.9973 77.5577 13.54C77.8364 14.0827 78.225 14.5153 78.7237 14.838C79.237 15.1607 79.809 15.322 80.4397 15.322ZM91.1645 17.5L87.2705 5.906L90.0425 5.884L92.6385 14.156L92.1545 14.112L94.9705 7.644H96.5985L99.4805 14.112L98.9085 14.178L101.527 5.906H104.299L100.383 17.5H98.4465L95.4765 10.548L95.8945 10.592L93.0785 17.5H91.1645ZM114.517 22.56L116.981 16.862L117.003 18.666L111.283 5.906H114.407L117.597 13.474C117.7 13.6647 117.802 13.9213 117.905 14.244C118.008 14.552 118.096 14.86 118.169 15.168L117.619 15.344C117.722 15.0653 117.832 14.772 117.949 14.464C118.066 14.1413 118.176 13.8113 118.279 13.474L121.007 5.906H124.153L119.313 17.5L117.333 22.56H114.517ZM130.928 17.72C129.769 17.72 128.735 17.4633 127.826 16.95C126.917 16.422 126.198 15.7033 125.67 14.794C125.142 13.8847 124.878 12.8507 124.878 11.692C124.878 10.5333 125.142 9.49933 125.67 8.59C126.198 7.68067 126.917 6.96933 127.826 6.456C128.735 5.928 129.769 5.664 130.928 5.664C132.072 5.664 133.099 5.928 134.008 6.456C134.917 6.96933 135.629 7.68067 136.142 8.59C136.67 9.49933 136.934 10.5333 136.934 11.692C136.934 12.8507 136.67 13.8847 136.142 14.794C135.629 15.7033 134.917 16.422 134.008 16.95C133.099 17.4633 132.072 17.72 130.928 17.72ZM130.928 15.322C131.559 15.322 132.116 15.1607 132.6 14.838C133.099 14.5153 133.487 14.0827 133.766 13.54C134.059 12.9973 134.199 12.3813 134.184 11.692C134.199 10.988 134.059 10.3647 133.766 9.822C133.487 9.27933 133.099 8.854 132.6 8.546C132.116 8.22333 131.559 8.062 130.928 8.062C130.297 8.062 129.725 8.22333 129.212 8.546C128.713 8.854 128.325 9.28667 128.046 9.844C127.767 10.3867 127.628 11.0027 127.628 11.692C127.628 12.3813 127.767 12.9973 128.046 13.54C128.325 14.0827 128.713 14.5153 129.212 14.838C129.725 15.1607 130.297 15.322 130.928 15.322ZM143.381 17.72C142.545 17.72 141.819 17.5367 141.203 17.17C140.587 16.7887 140.117 16.2533 139.795 15.564C139.472 14.86 139.311 14.024 139.311 13.056V5.906H142.017V12.484C142.017 13.1 142.112 13.628 142.303 14.068C142.493 14.4933 142.772 14.8233 143.139 15.058C143.505 15.2927 143.945 15.41 144.459 15.41C144.84 15.41 145.185 15.3513 145.493 15.234C145.815 15.102 146.094 14.926 146.329 14.706C146.563 14.4713 146.747 14.2 146.879 13.892C147.011 13.5693 147.077 13.2247 147.077 12.858V5.906H149.783V17.5H147.143L147.099 15.08L147.583 14.816C147.407 15.3733 147.106 15.872 146.681 16.312C146.27 16.7373 145.779 17.082 145.207 17.346C144.635 17.5953 144.026 17.72 143.381 17.72ZM163.293 17.72C162.266 17.72 161.342 17.5513 160.521 17.214C159.714 16.862 159.054 16.3633 158.541 15.718L160.301 14.2C160.741 14.6987 161.232 15.058 161.775 15.278C162.318 15.498 162.89 15.608 163.491 15.608C163.74 15.608 163.96 15.5787 164.151 15.52C164.356 15.4613 164.532 15.3733 164.679 15.256C164.826 15.1387 164.936 15.0067 165.009 14.86C165.097 14.6987 165.141 14.5227 165.141 14.332C165.141 13.98 165.009 13.7013 164.745 13.496C164.598 13.3933 164.364 13.2833 164.041 13.166C163.733 13.0487 163.33 12.9313 162.831 12.814C162.039 12.6087 161.379 12.374 160.851 12.11C160.323 11.8313 159.912 11.5233 159.619 11.186C159.37 10.9073 159.179 10.592 159.047 10.24C158.93 9.888 158.871 9.50667 158.871 9.096C158.871 8.58267 158.981 8.12067 159.201 7.71C159.436 7.28467 159.751 6.918 160.147 6.61C160.543 6.302 161.005 6.06733 161.533 5.906C162.061 5.74467 162.611 5.664 163.183 5.664C163.77 5.664 164.334 5.73733 164.877 5.884C165.434 6.03067 165.948 6.24333 166.417 6.522C166.901 6.786 167.312 7.10867 167.649 7.49L166.153 9.14C165.874 8.876 165.566 8.64133 165.229 8.436C164.906 8.23067 164.576 8.06933 164.239 7.952C163.902 7.82 163.586 7.754 163.293 7.754C163.014 7.754 162.765 7.78333 162.545 7.842C162.325 7.886 162.142 7.95933 161.995 8.062C161.848 8.16467 161.731 8.29667 161.643 8.458C161.57 8.60467 161.533 8.78067 161.533 8.986C161.548 9.162 161.592 9.33067 161.665 9.492C161.753 9.63867 161.87 9.76333 162.017 9.866C162.178 9.96867 162.42 10.086 162.743 10.218C163.066 10.35 163.484 10.4747 163.997 10.592C164.716 10.7827 165.317 10.9953 165.801 11.23C166.285 11.4647 166.666 11.736 166.945 12.044C167.224 12.308 167.422 12.616 167.539 12.968C167.656 13.32 167.715 13.7087 167.715 14.134C167.715 14.8233 167.517 15.4393 167.121 15.982C166.74 16.5247 166.212 16.95 165.537 17.258C164.877 17.566 164.129 17.72 163.293 17.72ZM170.099 17.5V1.22H172.783V8.282L172.277 8.546C172.423 8.018 172.709 7.54133 173.135 7.116C173.56 6.676 174.066 6.324 174.653 6.06C175.239 5.796 175.841 5.664 176.457 5.664C177.337 5.664 178.07 5.84 178.657 6.192C179.258 6.544 179.705 7.072 179.999 7.776C180.307 8.48 180.461 9.36 180.461 10.416V17.5H177.755V10.614C177.755 10.0273 177.674 9.54333 177.513 9.162C177.351 8.766 177.102 8.48 176.765 8.304C176.427 8.11333 176.017 8.02533 175.533 8.04C175.137 8.04 174.77 8.106 174.433 8.238C174.11 8.35533 173.824 8.53133 173.575 8.766C173.34 8.986 173.149 9.24267 173.003 9.536C172.871 9.82933 172.805 10.152 172.805 10.504V17.5H171.463C171.199 17.5 170.949 17.5 170.715 17.5C170.495 17.5 170.289 17.5 170.099 17.5ZM188.807 17.72C187.648 17.72 186.614 17.4633 185.705 16.95C184.796 16.422 184.077 15.7033 183.549 14.794C183.021 13.8847 182.757 12.8507 182.757 11.692C182.757 10.5333 183.021 9.49933 183.549 8.59C184.077 7.68067 184.796 6.96933 185.705 6.456C186.614 5.928 187.648 5.664 188.807 5.664C189.951 5.664 190.978 5.928 191.887 6.456C192.796 6.96933 193.508 7.68067 194.021 8.59C194.549 9.49933 194.813 10.5333 194.813 11.692C194.813 12.8507 194.549 13.8847 194.021 14.794C193.508 15.7033 192.796 16.422 191.887 16.95C190.978 17.4633 189.951 17.72 188.807 17.72ZM188.807 15.322C189.438 15.322 189.995 15.1607 190.479 14.838C190.978 14.5153 191.366 14.0827 191.645 13.54C191.938 12.9973 192.078 12.3813 192.063 11.692C192.078 10.988 191.938 10.3647 191.645 9.822C191.366 9.27933 190.978 8.854 190.479 8.546C189.995 8.22333 189.438 8.062 188.807 8.062C188.176 8.062 187.604 8.22333 187.091 8.546C186.592 8.854 186.204 9.28667 185.925 9.844C185.646 10.3867 185.507 11.0027 185.507 11.692C185.507 12.3813 185.646 12.9973 185.925 13.54C186.204 14.0827 186.592 14.5153 187.091 14.838C187.604 15.1607 188.176 15.322 188.807 15.322ZM201.259 17.72C200.423 17.72 199.697 17.5367 199.081 17.17C198.465 16.7887 197.996 16.2533 197.673 15.564C197.351 14.86 197.189 14.024 197.189 13.056V5.906H199.895V12.484C199.895 13.1 199.991 13.628 200.181 14.068C200.372 14.4933 200.651 14.8233 201.017 15.058C201.384 15.2927 201.824 15.41 202.337 15.41C202.719 15.41 203.063 15.3513 203.371 15.234C203.694 15.102 203.973 14.926 204.207 14.706C204.442 14.4713 204.625 14.2 204.757 13.892C204.889 13.5693 204.955 13.2247 204.955 12.858V5.906H207.661V17.5H205.021L204.977 15.08L205.461 14.816C205.285 15.3733 204.985 15.872 204.559 16.312C204.149 16.7373 203.657 17.082 203.085 17.346C202.513 17.5953 201.905 17.72 201.259 17.72ZM210.855 17.5V1.22H213.583V17.5H210.855ZM221.212 17.72C220.185 17.72 219.261 17.4633 218.44 16.95C217.633 16.422 216.988 15.7107 216.504 14.816C216.035 13.9067 215.8 12.8653 215.8 11.692C215.8 10.5333 216.035 9.49933 216.504 8.59C216.973 7.68067 217.611 6.96933 218.418 6.456C219.239 5.928 220.163 5.664 221.19 5.664C221.747 5.664 222.283 5.752 222.796 5.928C223.324 6.104 223.793 6.346 224.204 6.654C224.615 6.94733 224.937 7.27733 225.172 7.644C225.421 8.01067 225.561 8.392 225.59 8.788L224.864 8.876V1.22H227.57V17.5H224.952L224.886 14.772L225.414 14.816C225.399 15.1827 225.267 15.5347 225.018 15.872C224.783 16.2093 224.475 16.5173 224.094 16.796C223.713 17.0747 223.265 17.302 222.752 17.478C222.253 17.6393 221.74 17.72 221.212 17.72ZM221.74 15.432C222.371 15.432 222.928 15.2707 223.412 14.948C223.896 14.6253 224.27 14.1853 224.534 13.628C224.813 13.0707 224.952 12.4253 224.952 11.692C224.952 10.9733 224.813 10.3353 224.534 9.778C224.27 9.206 223.896 8.766 223.412 8.458C222.928 8.13533 222.371 7.974 221.74 7.974C221.109 7.974 220.552 8.13533 220.068 8.458C219.584 8.766 219.203 9.206 218.924 9.778C218.66 10.3353 218.528 10.9733 218.528 11.692C218.528 12.4253 218.66 13.0707 218.924 13.628C219.203 14.1853 219.584 14.6253 220.068 14.948C220.552 15.2707 221.109 15.432 221.74 15.432ZM230.642 17.5V5.906H233.282L233.326 8.282L232.82 8.546C232.966 8.018 233.252 7.54133 233.678 7.116C234.103 6.676 234.609 6.324 235.196 6.06C235.782 5.796 236.384 5.664 237 5.664C237.88 5.664 238.613 5.84 239.2 6.192C239.801 6.544 240.248 7.072 240.542 7.776C240.85 8.48 241.004 9.36 241.004 10.416V17.5H238.298V10.614C238.298 10.0273 238.217 9.54333 238.056 9.162C237.894 8.766 237.645 8.48 237.308 8.304C236.97 8.11333 236.56 8.02533 236.076 8.04C235.68 8.04 235.313 8.106 234.976 8.238C234.653 8.35533 234.367 8.53133 234.118 8.766C233.883 8.986 233.692 9.24267 233.546 9.536C233.414 9.82933 233.348 10.152 233.348 10.504V17.5H232.006C231.742 17.5 231.492 17.5 231.258 17.5C231.038 17.5 230.832 17.5 230.642 17.5ZM243.85 7.402L242.948 6.324C243.535 6.06 244.011 5.752 244.378 5.4C244.745 5.03333 244.928 4.72533 244.928 4.476C244.928 4.3 244.855 4.13867 244.708 3.992C244.576 3.83067 244.429 3.69133 244.268 3.574C243.931 3.31 243.703 3.08267 243.586 2.892C243.469 2.70133 243.41 2.48867 243.41 2.254C243.41 1.87267 243.549 1.56467 243.828 1.33C244.121 1.09533 244.488 0.977999 244.928 0.977999C245.339 0.977999 245.713 1.088 246.05 1.308C246.402 1.528 246.673 1.82867 246.864 2.21C247.055 2.59133 247.15 3.046 247.15 3.574C247.15 3.98467 247.069 4.388 246.908 4.784C246.747 5.18 246.512 5.554 246.204 5.906C245.911 6.24333 245.559 6.544 245.148 6.808C244.752 7.072 244.319 7.27 243.85 7.402ZM250.866 17.5V2.958H253.572V17.5H250.866ZM248.578 8.414V5.906H256.102V8.414H248.578ZM52.7614 46.72C52.2481 46.72 51.7421 46.6467 51.2434 46.5C50.7594 46.3387 50.3194 46.126 49.9234 45.862C49.5274 45.598 49.1974 45.3047 48.9334 44.982C48.6694 44.6447 48.4934 44.3073 48.4054 43.97L49.0434 43.684L48.9774 46.456H46.3594V30.22H49.0654V37.59L48.5814 37.37C48.6547 37.018 48.8161 36.688 49.0654 36.38C49.3294 36.0573 49.6521 35.7713 50.0334 35.522C50.4147 35.258 50.8327 35.0527 51.2874 34.906C51.7421 34.7447 52.2041 34.664 52.6734 34.664C53.7147 34.664 54.6314 34.9207 55.4234 35.434C56.2301 35.9473 56.8607 36.6587 57.3154 37.568C57.7847 38.4773 58.0194 39.5113 58.0194 40.67C58.0194 41.8433 57.7921 42.8847 57.3374 43.794C56.8827 44.7033 56.2521 45.422 55.4454 45.95C54.6534 46.4633 53.7587 46.72 52.7614 46.72ZM52.1894 44.344C52.8054 44.344 53.3554 44.19 53.8394 43.882C54.3234 43.5593 54.7047 43.1267 54.9834 42.584C55.2621 42.0267 55.4014 41.3887 55.4014 40.67C55.4014 39.966 55.2621 39.3427 54.9834 38.8C54.7194 38.2573 54.3454 37.832 53.8614 37.524C53.3774 37.216 52.8201 37.062 52.1894 37.062C51.5587 37.062 51.0014 37.216 50.5174 37.524C50.0334 37.832 49.6521 38.2573 49.3734 38.8C49.0947 39.3427 48.9554 39.966 48.9554 40.67C48.9554 41.3887 49.0947 42.0267 49.3734 42.584C49.6521 43.1267 50.0334 43.5593 50.5174 43.882C51.0014 44.19 51.5587 44.344 52.1894 44.344ZM64.4577 46.72C63.6217 46.72 62.8957 46.5367 62.2797 46.17C61.6637 45.7887 61.1943 45.2533 60.8717 44.564C60.549 43.86 60.3877 43.024 60.3877 42.056V34.906H63.0937V41.484C63.0937 42.1 63.189 42.628 63.3797 43.068C63.5703 43.4933 63.849 43.8233 64.2157 44.058C64.5823 44.2927 65.0223 44.41 65.5357 44.41C65.917 44.41 66.2617 44.3513 66.5697 44.234C66.8923 44.102 67.171 43.926 67.4057 43.706C67.6403 43.4713 67.8237 43.2 67.9557 42.892C68.0877 42.5693 68.1537 42.2247 68.1537 41.858V34.906H70.8597V46.5H68.2197L68.1757 44.08L68.6597 43.816C68.4837 44.3733 68.183 44.872 67.7577 45.312C67.347 45.7373 66.8557 46.082 66.2837 46.346C65.7117 46.5953 65.103 46.72 64.4577 46.72ZM75.7913 51.56L78.2553 45.862L78.2773 47.666L72.5573 34.906H75.6813L78.8713 42.474C78.9739 42.6647 79.0766 42.9213 79.1793 43.244C79.2819 43.552 79.3699 43.86 79.4433 44.168L78.8933 44.344C78.9959 44.0653 79.1059 43.772 79.2233 43.464C79.3406 43.1413 79.4506 42.8113 79.5533 42.474L82.2813 34.906H85.4273L80.5873 46.5L78.6073 51.56H75.7913ZM94.836 46.5V31.958H97.542V46.5H94.836ZM92.548 37.414V34.906H100.072V37.414H92.548ZM102.133 46.5V30.22H104.817V37.282L104.311 37.546C104.457 37.018 104.743 36.5413 105.169 36.116C105.594 35.676 106.1 35.324 106.687 35.06C107.273 34.796 107.875 34.664 108.491 34.664C109.371 34.664 110.104 34.84 110.691 35.192C111.292 35.544 111.739 36.072 112.033 36.776C112.341 37.48 112.495 38.36 112.495 39.416V46.5H109.789V39.614C109.789 39.0273 109.708 38.5433 109.547 38.162C109.385 37.766 109.136 37.48 108.799 37.304C108.461 37.1133 108.051 37.0253 107.567 37.04C107.171 37.04 106.804 37.106 106.467 37.238C106.144 37.3553 105.858 37.5313 105.609 37.766C105.374 37.986 105.183 38.2427 105.037 38.536C104.905 38.8293 104.839 39.152 104.839 39.504V46.5H103.497C103.233 46.5 102.983 46.5 102.749 46.5C102.529 46.5 102.323 46.5 102.133 46.5ZM119.917 46.72C118.964 46.72 118.098 46.456 117.321 45.928C116.544 45.4 115.92 44.6813 115.451 43.772C114.982 42.8627 114.747 41.8287 114.747 40.67C114.747 39.5113 114.982 38.4773 115.451 37.568C115.92 36.6587 116.558 35.9473 117.365 35.434C118.172 34.9207 119.081 34.664 120.093 34.664C120.68 34.664 121.215 34.752 121.699 34.928C122.183 35.0893 122.608 35.324 122.975 35.632C123.342 35.94 123.642 36.292 123.877 36.688C124.126 37.084 124.295 37.5093 124.383 37.964L123.789 37.81V34.906H126.517V46.5H123.767V43.728L124.405 43.618C124.302 44.014 124.112 44.4027 123.833 44.784C123.569 45.1507 123.232 45.4807 122.821 45.774C122.425 46.0527 121.978 46.28 121.479 46.456C120.995 46.632 120.474 46.72 119.917 46.72ZM120.665 44.322C121.296 44.322 121.853 44.168 122.337 43.86C122.821 43.552 123.195 43.1267 123.459 42.584C123.738 42.0267 123.877 41.3887 123.877 40.67C123.877 39.966 123.738 39.3427 123.459 38.8C123.195 38.2573 122.821 37.832 122.337 37.524C121.853 37.216 121.296 37.062 120.665 37.062C120.034 37.062 119.477 37.216 118.993 37.524C118.524 37.832 118.157 38.2573 117.893 38.8C117.629 39.3427 117.497 39.966 117.497 40.67C117.497 41.3887 117.629 42.0267 117.893 42.584C118.157 43.1267 118.524 43.552 118.993 43.86C119.477 44.168 120.034 44.322 120.665 44.322ZM130.908 46.5V31.958H133.614V46.5H130.908ZM128.62 37.414V34.906H136.144V37.414H128.62ZM138.105 50.592L137.203 49.514C137.746 49.2207 138.179 48.876 138.501 48.48C138.839 48.0987 139.007 47.7687 139.007 47.49C139.007 47.3433 138.971 47.1967 138.897 47.05C138.839 46.918 138.685 46.7347 138.435 46.5C138.127 46.2213 137.922 45.9793 137.819 45.774C137.717 45.5687 137.665 45.3413 137.665 45.092C137.665 44.7107 137.805 44.4027 138.083 44.168C138.362 43.9333 138.721 43.816 139.161 43.816C139.557 43.816 139.909 43.926 140.217 44.146C140.54 44.366 140.789 44.674 140.965 45.07C141.141 45.4513 141.229 45.8987 141.229 46.412C141.229 46.8667 141.149 47.3067 140.987 47.732C140.841 48.172 140.621 48.5753 140.327 48.942C140.049 49.3087 139.719 49.6313 139.337 49.91C138.971 50.2033 138.56 50.4307 138.105 50.592ZM150.279 46.5V34.906H152.941L152.985 38.602L152.611 37.766C152.773 37.1793 153.051 36.6513 153.447 36.182C153.843 35.7127 154.298 35.346 154.811 35.082C155.339 34.8033 155.889 34.664 156.461 34.664C156.711 34.664 156.945 34.686 157.165 34.73C157.4 34.774 157.591 34.8253 157.737 34.884L157.011 37.854C156.85 37.766 156.652 37.6927 156.417 37.634C156.183 37.5753 155.948 37.546 155.713 37.546C155.347 37.546 154.995 37.6193 154.657 37.766C154.335 37.898 154.049 38.0887 153.799 38.338C153.55 38.5873 153.352 38.8807 153.205 39.218C153.073 39.5407 153.007 39.9073 153.007 40.318V46.5H150.279ZM159.847 46.5V34.906H162.553V46.5H159.847ZM161.167 32.442C160.624 32.442 160.199 32.31 159.891 32.046C159.598 31.7673 159.451 31.3787 159.451 30.88C159.451 30.4107 159.605 30.0293 159.913 29.736C160.221 29.4427 160.639 29.296 161.167 29.296C161.724 29.296 162.15 29.4353 162.443 29.714C162.751 29.978 162.905 30.3667 162.905 30.88C162.905 31.3347 162.751 31.7087 162.443 32.002C162.135 32.2953 161.71 32.442 161.167 32.442ZM171.198 51.56C170.333 51.56 169.468 51.428 168.602 51.164C167.752 50.9 167.062 50.5553 166.534 50.13L167.502 48.128C167.81 48.348 168.155 48.5387 168.536 48.7C168.918 48.8613 169.321 48.986 169.746 49.074C170.186 49.162 170.619 49.206 171.044 49.206C171.822 49.206 172.467 49.0813 172.98 48.832C173.508 48.5973 173.904 48.2307 174.168 47.732C174.432 47.248 174.564 46.6393 174.564 45.906V43.772L174.96 43.926C174.872 44.3807 174.63 44.8133 174.234 45.224C173.838 45.6347 173.34 45.972 172.738 46.236C172.137 46.4853 171.521 46.61 170.89 46.61C169.79 46.61 168.815 46.3533 167.964 45.84C167.128 45.3267 166.461 44.63 165.962 43.75C165.478 42.8553 165.236 41.8287 165.236 40.67C165.236 39.5113 165.478 38.4847 165.962 37.59C166.446 36.6807 167.106 35.9693 167.942 35.456C168.793 34.928 169.746 34.664 170.802 34.664C171.242 34.664 171.668 34.7153 172.078 34.818C172.489 34.9207 172.863 35.0673 173.2 35.258C173.552 35.4487 173.868 35.6613 174.146 35.896C174.425 36.1307 174.652 36.38 174.828 36.644C175.004 36.908 175.114 37.1647 175.158 37.414L174.586 37.59L174.63 34.906H177.292V45.708C177.292 46.6467 177.153 47.4753 176.874 48.194C176.596 48.9127 176.192 49.5213 175.664 50.02C175.136 50.5333 174.498 50.9147 173.75 51.164C173.002 51.428 172.152 51.56 171.198 51.56ZM171.308 44.3C171.968 44.3 172.548 44.146 173.046 43.838C173.56 43.53 173.956 43.1047 174.234 42.562C174.513 42.0193 174.652 41.396 174.652 40.692C174.652 39.9733 174.506 39.3427 174.212 38.8C173.934 38.2427 173.545 37.81 173.046 37.502C172.548 37.194 171.968 37.04 171.308 37.04C170.648 37.04 170.069 37.2013 169.57 37.524C169.072 37.832 168.676 38.2647 168.382 38.822C168.104 39.3647 167.964 39.988 167.964 40.692C167.964 41.3813 168.104 42.0047 168.382 42.562C168.676 43.1047 169.072 43.53 169.57 43.838C170.069 44.146 170.648 44.3 171.308 44.3ZM180.422 46.5V30.22H183.106V37.282L182.6 37.546C182.747 37.018 183.033 36.5413 183.458 36.116C183.883 35.676 184.389 35.324 184.976 35.06C185.563 34.796 186.164 34.664 186.78 34.664C187.66 34.664 188.393 34.84 188.98 35.192C189.581 35.544 190.029 36.072 190.322 36.776C190.63 37.48 190.784 38.36 190.784 39.416V46.5H188.078V39.614C188.078 39.0273 187.997 38.5433 187.836 38.162C187.675 37.766 187.425 37.48 187.088 37.304C186.751 37.1133 186.34 37.0253 185.856 37.04C185.46 37.04 185.093 37.106 184.756 37.238C184.433 37.3553 184.147 37.5313 183.898 37.766C183.663 37.986 183.473 38.2427 183.326 38.536C183.194 38.8293 183.128 39.152 183.128 39.504V46.5H181.786C181.522 46.5 181.273 46.5 181.038 46.5C180.818 46.5 180.613 46.5 180.422 46.5ZM195.082 46.5V31.958H197.788V46.5H195.082ZM192.794 37.414V34.906H200.318V37.414H192.794ZM205.063 41.638L204.447 38.602C204.96 38.47 205.43 38.3233 205.855 38.162C206.295 38.0007 206.676 37.8247 206.999 37.634C207.322 37.4287 207.593 37.2087 207.813 36.974C208.048 36.7393 208.216 36.4827 208.319 36.204C208.436 35.9253 208.495 35.632 208.495 35.324C208.495 34.9427 208.4 34.6053 208.209 34.312C208.018 34.0187 207.747 33.7913 207.395 33.63C207.043 33.4687 206.654 33.388 206.229 33.388C205.672 33.388 205.129 33.5787 204.601 33.96C204.073 34.3413 203.611 34.906 203.215 35.654L201.301 33.96C201.932 32.9773 202.687 32.2147 203.567 31.672C204.462 31.1293 205.4 30.858 206.383 30.858C207.322 30.858 208.165 31.0487 208.913 31.43C209.661 31.8113 210.255 32.3393 210.695 33.014C211.135 33.674 211.355 34.422 211.355 35.258C211.355 35.7567 211.252 36.2553 211.047 36.754C210.842 37.238 210.548 37.6927 210.167 38.118C209.786 38.5433 209.338 38.9247 208.825 39.262C208.312 39.5847 207.747 39.8487 207.131 40.054L206.823 41.638H205.063ZM204.271 44.982C204.271 44.4687 204.425 44.0507 204.733 43.728C205.041 43.3907 205.444 43.222 205.943 43.222C206.456 43.222 206.86 43.376 207.153 43.684C207.446 43.9773 207.593 44.41 207.593 44.982C207.593 45.4953 207.439 45.9207 207.131 46.258C206.823 46.5807 206.427 46.742 205.943 46.742C205.415 46.742 205.004 46.588 204.711 46.28C204.418 45.972 204.271 45.5393 204.271 44.982Z" fill="#EF2B00"/>
</svg>
