<svg width="108" height="40" viewBox="0 0 108 40" fill="none" xmlns="http://www.w3.org/2000/svg">
<path fill-rule="evenodd" clip-rule="evenodd" d="M17.0707 40L25.5729 0H39.4136L30.8516 40H17.0707ZM15.567 40H0L8.56192 0H24.0583L21.9579 9.8818H20.3286L15.9759 30.0236H17.6766L15.5565 39.9978L15.567 40ZM78.8932 0L73.5969 24.9173H85.9055L91.2627 0H78.8932ZM68.9251 24.9173H72.0823L74.4598 13.7323L74.1867 14.9882H57.2063L51.8491 40H68.8873L68.8769 39.9978L70.9869 30.0709H67.825L68.9251 24.9173ZM72.5014 30.0709L70.391 40H82.7008L84.8054 30.0709H72.5014ZM60.4111 0H77.3787L75.2682 9.92908H58.3064L60.4111 0ZM51.7542 14.9882H55.2938L52.9978 25.6265H49.4583L46.397 40H32.5257L41.0877 0H54.959L51.7542 14.9882ZM103.603 14.9882H107.143L104.847 25.6265H101.307L98.2461 40H84.3749L92.9368 0H106.808L103.603 14.9882Z" fill="#EF2B00"/>
</svg>
