<svg width="290" height="64" viewBox="0 0 290 64" fill="none" xmlns="http://www.w3.org/2000/svg">
<path d="M61.7892 10.2884H64.1758V17.5452H61.7892V27.3498H52.4361V0.0645038H61.7892V10.2884ZM47.7595 0.0645038L51.8878 27.3498H42.9862L41.051 10.611L39.1159 27.3498H30.2143L34.3426 0.0645038H47.7595Z" fill="#EF2B00"/>
<path d="M97.5724 0.0645038V18.803H88.2193V12.3203H86.4777V14.449H65.5138V0.0645038H86.4777V2.2899H88.2193V0.0645038H97.5724ZM74.8669 15.7391V20.0931H97.895V27.3498H65.5138V15.7391H74.8669ZM74.8669 5.28935V9.22412H77.1246V5.28935H74.8669ZM86.4777 6.48268V8.12754H88.2193V6.48268H86.4777Z" fill="#EF2B00"/>
<path d="M142.502 5.22485H144.888V11.9978H142.502V18.803H133.149V0.0645038H142.502V5.22485ZM120.57 15.7391V20.0931H142.824V27.3498H111.217V15.7391H120.57ZM132.02 7.38574C132.02 12.0623 130.633 14.707 121.215 14.707C111.894 14.707 110.54 12.0623 110.54 7.38574C110.54 2.61242 111.894 0 121.215 0C130.633 0 132.02 2.61242 132.02 7.38574ZM122.634 7.38574C122.634 6.38593 122.699 5.90214 121.215 5.90214C119.828 5.90214 119.893 6.38593 119.893 7.38574C119.893 8.2888 119.828 8.80484 121.215 8.80484C122.699 8.80484 122.634 8.2888 122.634 7.38574Z" fill="#EF2B00"/>
<path d="M156.92 0.0645038H178.658V6.6762H166.274V9.12736H178.658V15.7391H172.434V20.0931H178.658V27.3498H156.92V20.0931H163.081V15.7391H156.92V0.0645038ZM188.979 0.0645038V27.3498H179.626V0.0645038H188.979Z" fill="#EF2B00"/>
<path d="M223.988 11.6108V16.7066H192.252V11.6108H223.988ZM202.25 21.3832H223.666V27.3498H192.897V17.8354H202.25V21.3832ZM202.25 0.0645038V5.41836H223.343V10.6755H192.897V0.0645038H202.25Z" fill="#EF2B00"/>
<path d="M243.678 0.0645038V7.32124H236.292V20.0931H243.678V27.3498H226.939V0.0645038H243.678ZM239.711 17.3194V10.5465H244.678V0.0645038H251.451V27.3498H244.678V17.3194H239.711ZM259.191 0.0645038V27.3498H252.418V0.0645038H259.191Z" fill="#EF2B00"/>
<path d="M22.32 47.4224V51.0991H15.7083V51.9054H32.6407V59.6782H10.9027V60.6135H32.9632V64H0.582031V56.453H22.32V55.5177H0.582031V51.9054H7.00021V51.0991H0.582031V47.4224H22.32ZM32.6407 36.7147V51.0991H23.2875V44.7455H21.5459V46.4548H0.582031V36.7147H21.5459V38.6176H23.2875V36.7147H32.6407ZM10.3222 40.3592V42.8103H11.8058V40.3592H10.3222Z" fill="#EF2B00"/>
<path d="M54.5419 56.7433V49.164H63.895V56.7433H78.6665V64H46.2853V56.7433H54.5419ZM66.8945 53.4858L67.8943 43.9714H47.5754V36.7147H77.4087V42.8426L76.3444 53.4858H66.8945Z" fill="#EF2B00"/>
<path d="M102.258 36.7147V51.0991H81.2946V36.7147H102.258ZM90.6477 41.9395V45.8743H92.9053V41.9395H90.6477ZM90.6477 52.3892V56.7433H113.676V64H81.2946V52.3892H90.6477ZM113.353 36.7147V55.4532H104V36.7147H113.353Z" fill="#EF2B00"/>
<path d="M116.336 55.1307V53.5826C116.336 46.7451 119.594 44.7132 126.915 44.7132C134.236 44.7132 137.493 46.7451 137.493 53.5826V55.1307C137.493 61.9681 134.236 64 126.915 64C119.594 64 116.336 61.9681 116.336 55.1307ZM147.588 46.9386H149.975V54.1953H147.588V64H138.235V36.7147H147.588V46.9386ZM137.397 37.3597V43.9714H116.304V37.3597H122.174V35.4246H131.527V37.3597H137.397ZM129.108 54.8081V53.9051C129.108 51.2604 128.269 50.8411 126.915 50.8411C125.528 50.8411 124.722 51.2604 124.722 53.9051V54.8081C124.722 57.4528 125.528 57.8721 126.915 57.8721C128.269 57.8721 129.108 57.4528 129.108 54.8081Z" fill="#EF2B00"/>
<path d="M159.57 56.7433V49.164H168.923V56.7433H183.694V64H151.313V56.7433H159.57ZM171.922 53.4858L172.922 43.9714H152.603V36.7147H182.436V42.8426L181.372 53.4858H171.922Z" fill="#EF2B00"/>
<path d="M229.075 36.7147V51.0991H219.722V36.7147H229.075ZM211.304 52.3892L204.499 64H196.307L203.305 52.3892H211.304ZM217.432 58.8397L214.529 64H205.628L212.433 52.3892H223.141L230.107 64H220.528L217.432 58.8397ZM217.819 44.0359C217.819 48.7125 216.432 51.3572 207.014 51.3572C197.694 51.3572 196.339 48.7125 196.339 44.0359C196.339 39.2626 197.694 36.6502 207.014 36.6502C216.432 36.6502 217.819 39.2626 217.819 44.0359ZM208.434 44.0359C208.434 43.0361 208.498 42.5523 207.014 42.5523C205.628 42.5523 205.692 43.0361 205.692 44.0359C205.692 44.939 205.628 45.455 207.014 45.455C208.498 45.455 208.434 44.939 208.434 44.0359Z" fill="#EF2B00"/>
<path d="M252.828 36.7147V64H232.026V36.7147H252.828ZM263.31 51.4217H265.697V58.1946H263.31V64H253.957V36.7147H263.31V41.746H265.697V48.519H263.31V51.4217ZM241.379 43.4554V57.1948H243.475V43.4554H241.379Z" fill="#EF2B00"/>
<path d="M273.259 63.355V56.8078H282.129V63.355H273.259ZM275.517 45.713H266.873C267.196 40.972 270.26 35.9406 278.387 35.9406C286.483 35.9406 289.224 40.4237 289.418 43.8102C289.418 48.4867 286.515 49.3898 283.774 50.6799C281.871 51.6474 281.226 52.4215 281.451 54.8726H273.808C273.743 53.7761 273.743 53.26 273.743 52.7117C273.743 50.9701 274.291 48.6157 276.678 47.4224C278.033 46.7451 280.548 46.1323 280.548 44.4229C280.548 43.1006 279.774 42.4878 278.129 42.4878C276.162 42.4878 275.356 44.0359 275.517 45.713Z" fill="#EF2B00"/>
</svg>
