<svg width="134" height="18" viewBox="0 0 134 18" fill="none" xmlns="http://www.w3.org/2000/svg">
<path d="M3.99877 17.1319C2.69276 16.5403 1.77854 15.7029 1.26382 14.612C0.741413 13.5288 0.610811 12.2382 0.848967 10.7401L5.49685 9.64917C5.36625 10.3175 5.45076 10.9168 5.75038 11.4622C6.04999 12.0077 6.5724 12.4302 7.30992 12.7375C8.04743 13.0448 8.98469 13.1985 10.1217 13.1985C10.8976 13.1985 11.5583 13.1216 12.0884 12.968C12.6185 12.8143 13.018 12.6069 13.2792 12.3457C13.5404 12.0845 13.7017 11.8003 13.7632 11.493C13.8246 11.201 13.8093 10.9552 13.7017 10.7478C13.5942 10.548 13.3637 10.3713 13.0103 10.2254C12.6569 10.0794 12.1345 9.94878 11.4508 9.83355L7.55575 9.29578C5.83488 9.04994 4.57496 8.55058 3.76062 7.7977C2.94628 7.04481 2.66203 6.08451 2.90787 4.91677C3.26126 3.3265 4.25998 2.11268 5.88866 1.26761C7.51734 0.422535 9.48405 0 11.7888 0C13.525 0 15.0001 0.215109 16.2139 0.645327C17.4277 1.07554 18.3496 1.79001 18.9719 2.79641C19.5942 3.80282 19.8323 5.16261 19.6864 6.88348L14.8234 8.17414C15.0538 7.36748 14.9847 6.70679 14.6313 6.20743C14.2779 5.70807 13.7325 5.33931 13.0103 5.10883C12.2881 4.88604 11.4738 4.77081 10.5673 4.77081C9.60697 4.77081 8.87714 4.89373 8.37778 5.14725C7.87842 5.40077 7.56344 5.76953 7.45588 6.25352C7.39442 6.53009 7.4021 6.76825 7.47893 6.96031C7.56344 7.15237 7.74013 7.32138 8.0167 7.47503C8.29327 7.621 8.68507 7.73624 9.18443 7.81306L12.9335 8.3201C14.3624 8.55058 15.4994 8.85019 16.3368 9.23431C17.1742 9.61844 17.7657 10.0948 18.0884 10.6786C18.4111 11.2625 18.4879 11.9616 18.3035 12.7682C18.0961 13.8361 17.5276 14.7734 16.598 15.58C15.6761 16.379 14.5391 16.9859 13.2024 17.3931C11.8656 17.8003 10.4674 18 9.00774 18C6.9642 18 5.28943 17.7081 3.98341 17.1088L3.99877 17.1319Z" fill="#007BED"/>
<path d="M22.1899 17.3239C21.3909 16.9091 20.7686 16.3252 20.3307 15.5569C19.8928 14.7964 19.6777 13.9129 19.6777 12.9065C19.6777 11.4776 19.985 10.1562 20.5919 8.92698C21.1989 7.70546 22.09 6.72211 23.2654 5.99996C24.4409 5.27013 25.8391 4.90137 27.4601 4.90137C28.3973 4.90137 29.2347 5.09343 29.9645 5.48523C30.6944 5.87704 31.2629 6.43786 31.6777 7.17538C32.0926 7.91289 32.3 8.79637 32.3 9.81814H32.4229C32.5228 9.14977 32.615 8.48139 32.7149 7.79765C32.8147 7.19842 32.9453 6.36872 33.1067 5.31622H37.5318L36.0721 12.1536L35.9722 12.5454C35.8724 12.9679 35.8263 13.2829 35.8416 13.4904C35.8493 13.7055 35.9415 13.8668 36.1105 13.9744C36.2795 14.0896 36.5791 14.1434 37.0017 14.1434L36.195 17.9385H35.1963C33.6752 17.9385 32.5996 17.7157 31.985 17.2855C31.3704 16.8476 31.0631 16.2637 31.0631 15.5339C31.0631 15.3572 31.0785 15.1728 31.1092 14.9731C31.14 14.781 31.1937 14.5813 31.2552 14.3892C31.2706 14.3585 31.2859 14.3047 31.3013 14.2432H31.1784C30.51 15.5262 29.6726 16.4635 28.6508 17.055C27.6291 17.6466 26.4229 17.9385 25.0247 17.9385C23.9415 17.9385 22.9966 17.7311 22.1899 17.3162V17.3239ZM29.6342 13.5979C30.2718 13.2983 30.7558 12.9142 31.0708 12.4455C31.3858 11.9769 31.5471 11.4699 31.5471 10.9398C31.5471 10.5172 31.4165 10.1485 31.1476 9.81814C30.8788 9.49548 30.4946 9.24196 29.9799 9.06526C29.4652 8.88856 28.8352 8.79637 28.067 8.79637C27.0606 8.79637 26.2539 8.95771 25.6316 9.28037C25.017 9.60303 24.5715 9.99484 24.3026 10.4635C24.0337 10.9244 23.9031 11.4084 23.9031 11.9078C23.9031 12.5531 24.195 13.0755 24.7789 13.4673C25.3628 13.8591 26.1925 14.0512 27.2603 14.0512C28.1976 14.0512 28.9889 13.8975 29.6342 13.5979Z" fill="#007BED"/>
<path d="M39.5306 9.3723C39.5306 9.10341 39.4538 8.91903 39.3002 8.82684C39.1465 8.73465 38.8469 8.68088 38.409 8.68088L39.208 4.88574C40.8751 4.88574 42.0812 5.05476 42.8187 5.3851C43.5562 5.71545 43.9711 6.22249 44.0633 6.90623C44.1555 7.58997 44.0095 8.52723 43.6407 9.72569L43.5947 9.84861L43.0569 11.6463H43.2028C43.8021 10.0868 44.4705 8.8038 45.2003 7.78971C45.9301 6.77563 46.6907 6.04579 47.4743 5.58485C48.2579 5.13158 49.0492 4.90111 49.8482 4.90111C51.208 4.90111 52.1529 5.27755 52.6676 6.03043C53.19 6.78331 53.3437 7.75898 53.1286 8.94976C52.9212 10.1405 52.4295 11.3774 51.6689 12.6604L48.7957 12.4683C49.1875 11.7539 49.3949 11.1546 49.418 10.6553C49.441 10.1636 49.3027 9.79483 48.9954 9.549C48.6881 9.30316 48.2195 9.18792 47.5819 9.18792C46.8674 9.18792 46.1913 9.41071 45.5614 9.84093C44.9314 10.2788 44.409 10.832 43.9941 11.508C43.5793 12.1841 43.295 12.8755 43.1337 13.59L42.281 17.5311H37.8789L39.3155 10.7936C39.4615 10.1098 39.5383 9.64118 39.5383 9.3723H39.5306Z" fill="#007BED"/>
<path d="M55.5493 17.3239C54.7503 16.9091 54.128 16.3252 53.6901 15.5569C53.2522 14.7964 53.0371 13.9129 53.0371 12.9065C53.0371 11.4776 53.3444 10.1562 53.9513 8.92698C54.5582 7.70546 55.4494 6.72211 56.6248 5.99996C57.8002 5.27013 59.1984 4.90137 60.8194 4.90137C61.7567 4.90137 62.5941 5.09343 63.3239 5.48523C64.0538 5.87704 64.6223 6.43786 65.0371 7.17538C65.452 7.91289 65.6594 8.79637 65.6594 9.81814H65.7823C65.8822 9.14977 65.9744 8.48139 66.0742 7.79765C66.1741 7.19842 66.3047 6.36872 66.466 5.31622H70.8911L69.4315 12.1536L69.3316 12.5454C69.2317 12.9679 69.1856 13.2829 69.201 13.4904C69.2087 13.7055 69.3009 13.8668 69.4699 13.9744C69.6389 14.0896 69.9385 14.1434 70.3611 14.1434L69.5544 17.9385H68.5557C67.0345 17.9385 65.959 17.7157 65.3444 17.2855C64.7298 16.8476 64.4225 16.2637 64.4225 15.5339C64.4225 15.3572 64.4379 15.1728 64.4686 14.9731C64.4993 14.781 64.5531 14.5813 64.6146 14.3892C64.6299 14.3585 64.6453 14.3047 64.6607 14.2432H64.5378C63.8694 15.5262 63.032 16.4635 62.0102 17.055C60.9885 17.6466 59.7823 17.9385 58.3841 17.9385C57.3009 17.9385 56.3559 17.7311 55.5493 17.3162V17.3239ZM62.9936 13.5979C63.6312 13.2983 64.1152 12.9142 64.4302 12.4455C64.7452 11.9769 64.9065 11.4699 64.9065 10.9398C64.9065 10.5172 64.7759 10.1485 64.507 9.81814C64.2381 9.49548 63.854 9.24196 63.3393 9.06526C62.8246 8.88856 62.1946 8.79637 61.4264 8.79637C60.42 8.79637 59.6133 8.95771 58.991 9.28037C58.3764 9.60303 57.9308 9.99484 57.6619 10.4635C57.3931 10.9244 57.2625 11.4084 57.2625 11.9078C57.2625 12.5531 57.5544 13.0755 58.1383 13.4673C58.7221 13.8591 59.5518 14.0512 60.6197 14.0512C61.557 14.0512 62.3482 13.8975 62.9936 13.5979Z" fill="#007BED"/>
<path d="M124.804 11.3915C124.804 11.8079 124.834 12.1896 124.893 12.5367C124.963 12.8837 125.077 13.2109 125.235 13.5182C125.394 13.8157 125.602 14.1082 125.86 14.3957C126.128 14.6733 126.46 14.951 126.856 15.2286C127.174 15.4566 127.382 15.7144 127.481 16.0019C127.59 16.2895 127.546 16.5919 127.347 16.9092C127.238 17.0777 127.104 17.2016 126.946 17.281C126.797 17.3702 126.633 17.4198 126.455 17.4297C126.346 17.4297 126.232 17.4148 126.113 17.3851C125.994 17.3652 125.88 17.3157 125.771 17.2363C125.325 16.9191 124.923 16.572 124.566 16.1953C124.219 15.8284 123.917 15.4368 123.659 15.0204C123.401 15.4665 123.104 15.878 122.767 16.2548C122.439 16.6315 122.068 16.9538 121.651 17.2215C121.383 17.39 121.086 17.4842 120.759 17.5041C120.59 17.514 120.417 17.4842 120.238 17.4148C120.06 17.3454 119.911 17.2116 119.792 17.0133C119.594 16.696 119.544 16.3936 119.643 16.106C119.752 15.8185 119.966 15.5607 120.283 15.3327C120.679 15.0551 121.007 14.7725 121.264 14.485C121.532 14.1875 121.745 13.8801 121.904 13.5629C122.063 13.2456 122.172 12.9085 122.231 12.5515C122.301 12.1946 122.335 11.8079 122.335 11.3915V6.30513C122.335 6.05726 122.37 5.84904 122.439 5.68049C122.509 5.51193 122.598 5.37808 122.707 5.27893C122.826 5.17978 122.96 5.11038 123.109 5.07072C123.257 5.03106 123.411 5.01123 123.57 5.01123C123.728 5.01123 123.882 5.03106 124.031 5.07072C124.179 5.11038 124.308 5.17978 124.417 5.27893C124.536 5.37808 124.631 5.51193 124.7 5.68049C124.769 5.84904 124.804 6.05726 124.804 6.30513V11.3915ZM128.567 6.30513C128.567 5.80938 128.686 5.47228 128.924 5.29381C129.172 5.10542 129.454 5.01123 129.771 5.01123C129.93 5.01123 130.079 5.03106 130.218 5.07072C130.366 5.11038 130.495 5.17978 130.604 5.27893C130.713 5.37808 130.803 5.51193 130.872 5.68049C130.941 5.84904 130.976 6.05726 130.976 6.30513V7.73288H131.913C132.191 7.73288 132.419 7.76263 132.597 7.82212C132.776 7.8816 132.914 7.96092 133.014 8.06007C133.113 8.14931 133.177 8.25837 133.207 8.38727C133.247 8.50625 133.266 8.62523 133.266 8.7442C133.266 8.89293 133.247 9.03174 133.207 9.16063C133.177 9.27961 133.113 9.38868 133.014 9.48783C132.914 9.57706 132.776 9.65142 132.597 9.71091C132.419 9.76049 132.191 9.78527 131.913 9.78527H130.976V12.3582H131.913C132.191 12.3582 132.419 12.3879 132.597 12.4474C132.776 12.5069 132.914 12.5862 133.014 12.6854C133.113 12.7746 133.177 12.8837 133.207 13.0126C133.247 13.1316 133.266 13.2505 133.266 13.3695C133.266 13.5182 133.247 13.6571 133.207 13.786C133.177 13.9049 133.113 14.014 133.014 14.1131C132.914 14.2024 132.776 14.2767 132.597 14.3362C132.419 14.3858 132.191 14.4106 131.913 14.4106H130.976V16.463C130.976 16.7208 130.941 16.9339 130.872 17.1025C130.803 17.2711 130.713 17.4049 130.604 17.5041C130.495 17.6032 130.366 17.6726 130.218 17.7123C130.079 17.7519 129.93 17.7718 129.771 17.7718C129.613 17.7718 129.459 17.7519 129.31 17.7123C129.172 17.6726 129.043 17.6032 128.924 17.5041C128.815 17.4049 128.725 17.2711 128.656 17.1025C128.597 16.9339 128.567 16.7208 128.567 16.463V6.30513Z" fill="#007BED"/>
<path d="M115.31 6.30513C115.31 5.80938 115.429 5.47228 115.667 5.29381C115.915 5.10542 116.198 5.01123 116.515 5.01123C116.673 5.01123 116.822 5.03106 116.961 5.07072C117.11 5.11038 117.239 5.17978 117.348 5.27893C117.457 5.37808 117.546 5.51193 117.615 5.68049C117.685 5.84904 117.719 6.05726 117.719 6.30513V16.463C117.719 16.7208 117.685 16.9339 117.615 17.1025C117.546 17.2711 117.457 17.4049 117.348 17.5041C117.239 17.6032 117.11 17.6726 116.961 17.7123C116.822 17.7519 116.673 17.7718 116.515 17.7718C116.356 17.7718 116.202 17.7519 116.054 17.7123C115.915 17.6726 115.786 17.6032 115.667 17.5041C115.558 17.4049 115.469 17.2711 115.399 17.1025C115.34 16.9339 115.31 16.7208 115.31 16.463V6.30513ZM109.227 5.05585C109.773 5.05585 110.239 5.12525 110.625 5.26406C111.022 5.39296 111.344 5.5863 111.592 5.84409C111.85 6.10187 112.043 6.42411 112.172 6.81079C112.311 7.18756 112.395 7.61886 112.425 8.10469C112.425 8.19393 112.425 8.4071 112.425 8.7442C112.435 9.0714 112.44 9.46304 112.44 9.91912C112.44 10.3752 112.44 10.861 112.44 11.3766C112.45 11.8922 112.45 12.378 112.44 12.8341C112.44 13.2902 112.435 13.6868 112.425 14.0239C112.425 14.3511 112.425 14.5544 112.425 14.6337C112.405 15.6351 112.147 16.3837 111.652 16.8794C111.156 17.3752 110.348 17.623 109.227 17.623C108.652 17.623 108.166 17.5586 107.77 17.4297C107.383 17.3008 107.066 17.1075 106.818 16.8497C106.57 16.6018 106.382 16.2895 106.253 15.9127C106.134 15.5459 106.059 15.1195 106.03 14.6337C106.02 14.5444 106.015 14.3362 106.015 14.009C106.015 13.6719 106.01 13.2753 106 12.8192C106 12.3632 106 11.8773 106 11.3617C106 10.8462 106 10.3603 106 9.90425C106.01 9.44817 106.015 9.05653 106.015 8.72933C106.015 8.40214 106.02 8.19393 106.03 8.10469C106.059 7.60894 106.134 7.17269 106.253 6.79592C106.372 6.41915 106.555 6.10187 106.803 5.84409C107.051 5.5863 107.368 5.39296 107.755 5.26406C108.152 5.12525 108.642 5.05585 109.227 5.05585ZM110.016 8.0452C110.016 7.83699 109.991 7.66843 109.941 7.53954C109.892 7.41065 109.827 7.31645 109.748 7.25696C109.669 7.18756 109.579 7.14294 109.48 7.12311C109.391 7.10328 109.307 7.09337 109.227 7.09337C109.148 7.09337 109.064 7.10824 108.974 7.13798C108.885 7.15781 108.801 7.20243 108.722 7.27184C108.652 7.34124 108.588 7.44535 108.528 7.58416C108.479 7.71305 108.449 7.8816 108.439 8.08982C108.439 8.17905 108.434 8.39222 108.424 8.72933C108.424 9.06644 108.419 9.46304 108.409 9.91912C108.409 10.3752 108.409 10.861 108.409 11.3766C108.409 11.8922 108.409 12.378 108.409 12.8341C108.419 13.2902 108.424 13.6868 108.424 14.0239C108.424 14.3511 108.429 14.5544 108.439 14.6337C108.439 14.8617 108.464 15.0402 108.513 15.1691C108.563 15.2881 108.623 15.3823 108.692 15.4517C108.771 15.5211 108.856 15.5607 108.945 15.5706C109.044 15.5905 109.138 15.6004 109.227 15.6004C109.307 15.6004 109.391 15.5905 109.48 15.5706C109.569 15.5607 109.649 15.5211 109.718 15.4517C109.797 15.3823 109.862 15.2881 109.911 15.1691C109.971 15.0402 110.006 14.8617 110.016 14.6337C110.016 14.5444 110.016 14.3313 110.016 13.9942C110.025 13.6571 110.03 13.2605 110.03 12.8044C110.03 12.3384 110.03 11.8476 110.03 11.332C110.03 10.8164 110.03 10.3306 110.03 9.87451C110.03 9.40851 110.025 9.01191 110.016 8.68472C110.016 8.34761 110.016 8.13444 110.016 8.0452Z" fill="#007BED"/>
<path d="M99.544 13.5182C99.544 13.8653 99.6481 14.1726 99.8563 14.4403C100.074 14.708 100.347 14.9361 100.674 15.1245C101.011 15.3128 101.388 15.4665 101.805 15.5855C102.221 15.7045 102.637 15.7888 103.054 15.8383C103.441 15.8879 103.728 16.0119 103.916 16.2102C104.105 16.4184 104.174 16.7109 104.125 17.0876C104.095 17.2859 104.035 17.4446 103.946 17.5635C103.867 17.6825 103.768 17.7767 103.649 17.8461C103.53 17.9155 103.396 17.9601 103.247 17.98C103.099 17.9998 102.95 18.0048 102.801 17.9948C101.968 17.9254 101.17 17.7222 100.407 17.3851C99.6431 17.0579 98.9788 16.6514 98.4137 16.1655C98.1361 16.4035 97.8138 16.6266 97.447 16.8348C97.0901 17.043 96.7083 17.2264 96.3018 17.3851C95.9052 17.5536 95.4937 17.6875 95.0674 17.7866C94.6411 17.8957 94.2197 17.9651 93.8033 17.9948C93.6545 18.0048 93.5058 17.9998 93.3571 17.98C93.2084 17.9601 93.0745 17.9155 92.9555 17.8461C92.8365 17.7767 92.7324 17.6825 92.6432 17.5635C92.5639 17.4446 92.5094 17.2859 92.4796 17.0876C92.43 16.7109 92.4994 16.4184 92.6878 16.2102C92.8762 16.0119 93.1637 15.8879 93.5504 15.8383C93.9768 15.7888 94.3981 15.7094 94.8146 15.6004C95.231 15.5012 95.6028 15.3575 95.93 15.1691C96.2671 14.9807 96.5398 14.7527 96.748 14.485C96.9562 14.2073 97.0653 13.8801 97.0752 13.5034V13.31C97.0752 13.0324 97.1842 12.8143 97.4024 12.6556C97.6205 12.4871 97.9229 12.4028 98.3096 12.4028C98.6963 12.4028 98.9987 12.4871 99.2168 12.6556C99.4349 12.8143 99.544 13.0324 99.544 13.31V13.5182ZM96.51 5.1897C96.7777 5.1897 96.9859 5.21944 97.1347 5.27893C97.2834 5.32851 97.3974 5.40287 97.4767 5.50202C97.5561 5.59125 97.6056 5.70528 97.6255 5.84409C97.6453 5.98289 97.6552 6.14153 97.6552 6.32V8.3129C97.6552 8.61035 97.6205 8.9425 97.5511 9.30936C97.4817 9.66629 97.3677 10.0331 97.209 10.4099C97.0603 10.7867 96.8571 11.1585 96.5993 11.5253C96.3514 11.8823 96.044 12.1996 95.6772 12.4772C95.4095 12.6755 95.1467 12.7498 94.8889 12.7003C94.6311 12.6408 94.413 12.5416 94.2346 12.4028C94.0065 12.2442 93.8776 12.0211 93.8479 11.7336C93.828 11.4361 93.9173 11.1585 94.1156 10.9007C94.4527 10.4744 94.7204 10.0728 94.9187 9.69604C95.1269 9.30936 95.231 8.89293 95.231 8.44676V7.24209H92.6581C92.3805 7.24209 92.1524 7.2173 91.9739 7.16773C91.7955 7.10824 91.6567 7.03388 91.5575 6.94464C91.4584 6.84549 91.389 6.73643 91.3493 6.61745C91.3196 6.48856 91.3047 6.34975 91.3047 6.20102C91.3047 6.08204 91.3196 5.96306 91.3493 5.84409C91.389 5.71519 91.4584 5.60613 91.5575 5.51689C91.6567 5.41774 91.7955 5.33842 91.9739 5.27893C92.1524 5.21944 92.3805 5.1897 92.6581 5.1897H96.51ZM101.091 9.85963H99.544C99.2664 9.85963 99.0433 9.83485 98.8747 9.78527C98.7062 9.72578 98.5723 9.64646 98.4732 9.54731C98.384 9.44816 98.3245 9.3391 98.2947 9.22012C98.265 9.09123 98.2501 8.95242 98.2501 8.80369C98.2501 8.68472 98.265 8.56574 98.2947 8.44676C98.3245 8.31786 98.384 8.20384 98.4732 8.10469C98.5723 8.00554 98.7062 7.92622 98.8747 7.86673C99.0433 7.80724 99.2664 7.7775 99.544 7.7775H101.091V6.30513C101.091 5.80938 101.21 5.47227 101.448 5.29381C101.696 5.10542 101.978 5.01123 102.295 5.01123C102.454 5.01123 102.603 5.03106 102.742 5.07072C102.89 5.11038 103.019 5.17978 103.128 5.27893C103.237 5.37808 103.327 5.51193 103.396 5.68049C103.465 5.84904 103.5 6.05726 103.5 6.30513V11.6592C103.5 11.917 103.465 12.1302 103.396 12.2987C103.327 12.4673 103.237 12.6011 103.128 12.7003C103.019 12.7994 102.89 12.8688 102.742 12.9085C102.603 12.9481 102.454 12.968 102.295 12.968C102.137 12.968 101.983 12.9481 101.834 12.9085C101.696 12.8688 101.567 12.7994 101.448 12.7003C101.339 12.6011 101.249 12.4673 101.18 12.2987C101.12 12.1302 101.091 11.917 101.091 11.6592V9.85963Z" fill="#007BED"/>
<path d="M74.0229 12.7598C73.775 12.7598 73.5767 12.735 73.428 12.6854C73.2793 12.6358 73.1652 12.5714 73.0859 12.4921C73.0066 12.4028 72.9521 12.3037 72.9223 12.1946C72.9025 12.0756 72.8926 11.9467 72.8926 11.8079C72.8926 11.6989 72.9025 11.5898 72.9223 11.4807C72.9521 11.3717 73.0066 11.2725 73.0859 11.1833C73.1652 11.094 73.2793 11.0246 73.428 10.9751C73.5767 10.9156 73.775 10.8858 74.0229 10.8858H84.8351C85.083 10.8858 85.2813 10.9156 85.43 10.9751C85.5787 11.0246 85.6928 11.094 85.7721 11.1833C85.8514 11.2725 85.901 11.3717 85.9208 11.4807C85.9506 11.5898 85.9654 11.6989 85.9654 11.8079C85.9654 11.9467 85.9506 12.0756 85.9208 12.1946C85.901 12.3037 85.8514 12.4028 85.7721 12.4921C85.6928 12.5714 85.5787 12.6358 85.43 12.6854C85.2813 12.735 85.083 12.7598 84.8351 12.7598H74.0229ZM75.1383 9.51757C74.8607 9.51757 74.6426 9.49278 74.4839 9.44321C74.3253 9.38372 74.2013 9.30936 74.1121 9.22012C74.0328 9.12097 73.9832 9.01191 73.9634 8.89293C73.9436 8.76403 73.9336 8.62523 73.9336 8.4765V6.30513C73.9336 5.80938 74.0526 5.47227 74.2906 5.29381C74.5385 5.10542 74.821 5.01123 75.1383 5.01123C75.297 5.01123 75.4457 5.03106 75.5845 5.07072C75.7332 5.11038 75.8621 5.17978 75.9712 5.27893C76.0802 5.37808 76.1695 5.51193 76.2389 5.68049C76.3083 5.84904 76.343 6.05726 76.343 6.30513V7.6139H83.7643C84.0122 7.6139 84.2105 7.64365 84.3592 7.70314C84.5079 7.76263 84.622 7.83699 84.7013 7.92622C84.7806 8.01546 84.8302 8.11956 84.85 8.23854C84.8797 8.34761 84.8946 8.45171 84.8946 8.55086C84.8946 8.67976 84.8797 8.80369 84.85 8.92267C84.8302 9.03174 84.7806 9.13089 84.7013 9.22012C84.622 9.30936 84.5079 9.38372 84.3592 9.44321C84.2105 9.49278 84.0122 9.51757 83.7643 9.51757H75.1383ZM75.1383 17.9205C74.8607 17.9205 74.6426 17.8907 74.4839 17.8312C74.3253 17.7817 74.2013 17.7073 74.1121 17.6082C74.0328 17.5189 73.9832 17.4099 73.9634 17.281C73.9436 17.162 73.9336 17.0281 73.9336 16.8794V14.9609C73.9336 14.4651 74.0526 14.128 74.2906 13.9495C74.5385 13.7612 74.821 13.667 75.1383 13.667C75.297 13.667 75.4457 13.6868 75.5845 13.7265C75.7332 13.7661 75.8621 13.8355 75.9712 13.9347C76.0802 14.0338 76.1695 14.1677 76.2389 14.3362C76.3083 14.5048 76.343 14.713 76.343 14.9609V16.0168H83.7643C84.0122 16.0168 84.2105 16.0466 84.3592 16.106C84.5079 16.1655 84.622 16.2399 84.7013 16.3291C84.7806 16.4184 84.8302 16.5175 84.85 16.6266C84.8797 16.7456 84.8946 16.8546 84.8946 16.9538C84.8946 17.0827 84.8797 17.2016 84.85 17.3107C84.8302 17.4297 84.7806 17.5338 84.7013 17.623C84.622 17.7123 84.5079 17.7817 84.3592 17.8312C84.2105 17.8907 84.0122 17.9205 83.7643 17.9205H75.1383Z" fill="#007BED"/>
</svg>
