<svg width="48" height="48" viewBox="0 0 48 48" fill="none" xmlns="http://www.w3.org/2000/svg">
<rect width="48" height="48" rx="16" fill="#EF2B00"/>
<rect x="0.5" y="0.5" width="47" height="47" rx="15.5" stroke="black" stroke-opacity="0.1"/>
<path d="M20.924 31.712C21.6955 32.6038 23.0672 32.638 23.8822 31.7856L29.885 25.5071C31.1015 24.2348 30.1997 22.125 28.4394 22.125H17.0054C15.2924 22.125 14.3721 24.1379 15.4928 25.4335L20.924 31.712Z" fill="white" fill-opacity="0.75"/>
<path fill-rule="evenodd" clip-rule="evenodd" d="M15.8691 20.625C17.526 20.625 18.8691 19.2818 18.8691 17.625C18.8691 17.3848 18.8409 17.1513 18.7876 16.9274C18.6984 16.5528 18.9496 16.125 19.3347 16.125H21.3691C21.6453 16.125 21.8691 15.9011 21.8691 15.625V15.125C21.8691 14.8489 21.6453 14.625 21.3691 14.625H15.8691C14.2123 14.625 12.8691 15.9682 12.8691 17.625C12.8691 19.2818 14.2123 20.625 15.8691 20.625ZM29.3691 20.625C31.026 20.625 32.3691 19.2818 32.3691 17.625C32.3691 17.3848 32.3409 17.1513 32.2876 16.9274C32.1984 16.5528 32.4496 16.125 32.8347 16.125H34.8691C35.1453 16.125 35.3691 15.9011 35.3691 15.625V15.125C35.3691 14.8489 35.1453 14.625 34.8691 14.625H29.3691C27.7123 14.625 26.3691 15.9682 26.3691 17.625C26.3691 19.2818 27.7123 20.625 29.3691 20.625Z" fill="black" fill-opacity="0.75"/>
</svg>
