<svg width="49" height="48" viewBox="0 0 49 48" fill="none" xmlns="http://www.w3.org/2000/svg">
<rect x="0.5" width="48" height="48" rx="16" fill="#EF2B00"/>
<rect x="0.5" width="48" height="48" rx="16" fill="white" fill-opacity="0.9"/>
<rect x="1" y="0.5" width="47" height="47" rx="15.5" stroke="#EF2B00" stroke-opacity="0.1"/>
<path d="M21.424 31.712C22.1955 32.6038 23.5672 32.638 24.3822 31.7856L30.385 25.5071C31.6015 24.2348 30.6997 22.125 28.9394 22.125H17.5054C15.7924 22.125 14.8721 24.1379 15.9928 25.4335L21.424 31.712Z" fill="#EF2B00" fill-opacity="0.35"/>
<path fill-rule="evenodd" clip-rule="evenodd" d="M16.3691 20.625C18.026 20.625 19.3691 19.2818 19.3691 17.625C19.3691 17.3848 19.3409 17.1513 19.2876 16.9274C19.1984 16.5528 19.4496 16.125 19.8347 16.125H21.8691C22.1453 16.125 22.3691 15.9011 22.3691 15.625V15.125C22.3691 14.8489 22.1453 14.625 21.8691 14.625H16.3691C14.7123 14.625 13.3691 15.9682 13.3691 17.625C13.3691 19.2818 14.7123 20.625 16.3691 20.625ZM29.8691 20.625C31.526 20.625 32.8691 19.2818 32.8691 17.625C32.8691 17.3848 32.8409 17.1513 32.7876 16.9274C32.6984 16.5528 32.9496 16.125 33.3347 16.125H35.3691C35.6453 16.125 35.8691 15.9011 35.8691 15.625V15.125C35.8691 14.8489 35.6453 14.625 35.3691 14.625H29.8691C28.2123 14.625 26.8691 15.9682 26.8691 17.625C26.8691 19.2818 28.2123 20.625 29.8691 20.625Z" fill="#EF2B00" fill-opacity="0.35"/>
</svg>
