<svg width="108" height="12" viewBox="0 0 108 12" fill="none" xmlns="http://www.w3.org/2000/svg">
<path d="M3.07861 11.4213C2.20793 11.0269 1.59846 10.4686 1.25531 9.74136C0.907036 9.01921 0.819968 8.15877 0.978739 7.16005L4.07733 6.43278C3.99026 6.87836 4.0466 7.27785 4.24634 7.64149C4.44609 8.00512 4.79436 8.28681 5.28604 8.49168C5.77771 8.69654 6.40255 8.79898 7.16056 8.79898C7.67784 8.79898 8.1183 8.74776 8.4717 8.64533C8.82509 8.54289 9.09142 8.40461 9.26555 8.23047C9.43969 8.05634 9.54724 7.86684 9.58821 7.66197C9.62919 7.46735 9.61894 7.30346 9.54724 7.16517C9.47554 7.03201 9.32189 6.91421 9.08629 6.8169C8.8507 6.71959 8.50243 6.63252 8.0466 6.5557L5.44993 6.19718C4.30268 6.03329 3.46273 5.70038 2.91984 5.19846C2.37695 4.69654 2.18745 4.05634 2.35134 3.27785C2.58693 2.21767 3.25275 1.40845 4.33853 0.84507C5.42432 0.28169 6.73546 0 8.27195 0C9.42944 0 10.4128 0.143406 11.222 0.430218C12.0312 0.71703 12.6458 1.19334 13.0607 1.86428C13.4755 2.53521 13.6343 3.44174 13.537 4.58899L10.295 5.44942C10.4486 4.91165 10.4026 4.47119 10.167 4.13828C9.93136 3.80538 9.56773 3.55954 9.08629 3.40589C8.60486 3.25736 8.06197 3.18054 7.45761 3.18054C6.81741 3.18054 6.33085 3.26248 5.99794 3.4315C5.66504 3.60051 5.45505 3.84635 5.38335 4.16901C5.34237 4.35339 5.3475 4.51216 5.39871 4.6402C5.45505 4.76825 5.57285 4.88092 5.75723 4.98336C5.94161 5.08067 6.20281 5.15749 6.53572 5.20871L9.03508 5.54674C9.9877 5.70038 10.7457 5.90013 11.304 6.15621C11.8622 6.41229 12.2566 6.72983 12.4717 7.11908C12.6868 7.50832 12.738 7.97439 12.6151 8.51217C12.4768 9.22407 12.0978 9.84891 11.4781 10.3867C10.8635 10.9193 10.1055 11.3239 9.21433 11.5954C8.32317 11.8668 7.39103 12 6.41792 12C5.05556 12 3.93905 11.8054 3.06837 11.4059L3.07861 11.4213Z" fill="currentColor"/>
<path d="M15.206 11.5493C14.6734 11.2727 14.2585 10.8835 13.9666 10.3713C13.6747 9.86425 13.5312 9.27526 13.5312 8.60433C13.5312 7.6517 13.7361 6.77078 14.1407 5.95132C14.5453 5.13698 15.1394 4.48141 15.9231 3.99997C16.7067 3.51342 17.6388 3.26758 18.7195 3.26758C19.3443 3.26758 19.9026 3.39562 20.3891 3.65682C20.8757 3.91803 21.2547 4.29191 21.5313 4.78358C21.8078 5.27526 21.9461 5.86425 21.9461 6.54543H22.028C22.0946 6.09984 22.1561 5.65426 22.2227 5.19844C22.2893 4.79895 22.3763 4.24581 22.4839 3.54415H25.4339L24.4608 8.1024L24.3942 8.36361C24.3277 8.6453 24.2969 8.85529 24.3072 8.99357C24.3123 9.13698 24.3738 9.24453 24.4864 9.31623C24.5991 9.39306 24.7989 9.42891 25.0805 9.42891L24.5428 11.959H23.877C22.8629 11.959 22.1458 11.8105 21.7361 11.5237C21.3264 11.2317 21.1215 10.8425 21.1215 10.3559C21.1215 10.2381 21.1318 10.1152 21.1522 9.98205C21.1727 9.85401 21.2086 9.72084 21.2496 9.5928C21.2598 9.57231 21.27 9.53646 21.2803 9.49549H21.1983C20.7528 10.3508 20.1945 10.9756 19.5133 11.37C18.8321 11.7644 18.0281 11.959 17.0959 11.959C16.3738 11.959 15.7438 11.8207 15.206 11.5441V11.5493ZM20.1689 9.06527C20.594 8.86553 20.9167 8.60945 21.1266 8.29703C21.3366 7.98461 21.4442 7.64658 21.4442 7.29319C21.4442 7.0115 21.3571 6.76566 21.1779 6.54543C20.9986 6.33032 20.7425 6.1613 20.3994 6.04351C20.0562 5.92571 19.6362 5.86425 19.1241 5.86425C18.4531 5.86425 17.9154 5.9718 17.5005 6.18691C17.0908 6.40202 16.7937 6.66322 16.6145 6.97564C16.4352 7.28294 16.3482 7.60561 16.3482 7.93851C16.3482 8.36873 16.5428 8.717 16.932 8.97821C17.3213 9.23941 17.8744 9.36745 18.5863 9.36745C19.2111 9.36745 19.7387 9.26502 20.1689 9.06527Z" fill="currentColor"/>
<path d="M26.7652 6.24787C26.7652 6.06862 26.714 5.9457 26.6116 5.88424C26.5091 5.82278 26.3094 5.78693 26.0175 5.78693L26.5501 3.25684C27.6615 3.25684 28.4656 3.36951 28.9573 3.58974C29.449 3.80997 29.7255 4.148 29.787 4.60383C29.8484 5.05965 29.7511 5.68449 29.5053 6.48347L29.4746 6.56542L29.116 7.76388H29.2134C29.6128 6.72419 30.0584 5.86887 30.545 5.19282C31.0315 4.51676 31.5386 4.0302 32.061 3.7229C32.5834 3.42073 33.1109 3.26708 33.6436 3.26708C34.5501 3.26708 35.1801 3.51804 35.5232 4.01996C35.8715 4.52188 35.9739 5.17233 35.8305 5.96618C35.6922 6.76004 35.3644 7.58462 34.8574 8.43993L32.9419 8.31189C33.2031 7.83558 33.3414 7.43609 33.3568 7.10319C33.3721 6.7754 33.2799 6.52956 33.0751 6.36567C32.8702 6.20178 32.5578 6.12495 32.1327 6.12495C31.6564 6.12495 31.2057 6.27348 30.7857 6.56029C30.3657 6.85223 30.0175 7.22098 29.7409 7.67169C29.4643 8.12239 29.2748 8.58334 29.1673 9.05965L28.5988 11.6871H25.6641L26.6218 7.19538C26.7191 6.73955 26.7703 6.42713 26.7703 6.24787H26.7652Z" fill="currentColor"/>
<path d="M37.4443 11.5493C36.9117 11.2727 36.4968 10.8835 36.2049 10.3713C35.9129 9.86425 35.7695 9.27526 35.7695 8.60433C35.7695 7.6517 35.9744 6.77078 36.379 5.95132C36.7836 5.13698 37.3777 4.48141 38.1613 3.99997C38.9449 3.51342 39.8771 3.26758 40.9577 3.26758C41.5826 3.26758 42.1408 3.39562 42.6274 3.65682C43.114 3.91803 43.493 4.29191 43.7695 4.78358C44.0461 5.27526 44.1844 5.86425 44.1844 6.54543H44.2663C44.3329 6.09984 44.3944 5.65426 44.461 5.19844C44.5275 4.79895 44.6146 4.24581 44.7222 3.54415H47.6722L46.6991 8.1024L46.6325 8.36361C46.5659 8.6453 46.5352 8.85529 46.5455 8.99357C46.5506 9.13698 46.612 9.24453 46.7247 9.31623C46.8374 9.39306 47.0371 9.42891 47.3188 9.42891L46.7811 11.959H46.1152C45.1012 11.959 44.3841 11.8105 43.9744 11.5237C43.5647 11.2317 43.3598 10.8425 43.3598 10.3559C43.3598 10.2381 43.37 10.1152 43.3905 9.98205C43.411 9.85401 43.4469 9.72084 43.4878 9.5928C43.4981 9.57231 43.5083 9.53646 43.5186 9.49549H43.4366C42.991 10.3508 42.4328 10.9756 41.7516 11.37C41.0704 11.7644 40.2663 11.959 39.3342 11.959C38.612 11.959 37.9821 11.8207 37.4443 11.5441V11.5493ZM42.4072 9.06527C42.8323 8.86553 43.1549 8.60945 43.3649 8.29703C43.5749 7.98461 43.6825 7.64658 43.6825 7.29319C43.6825 7.0115 43.5954 6.76566 43.4161 6.54543C43.2369 6.33032 42.9808 6.1613 42.6376 6.04351C42.2945 5.92571 41.8745 5.86425 41.3624 5.86425C40.6914 5.86425 40.1537 5.9718 39.7388 6.18691C39.3291 6.40202 39.032 6.66322 38.8528 6.97564C38.6735 7.28294 38.5864 7.60561 38.5864 7.93851C38.5864 8.36873 38.7811 8.717 39.1703 8.97821C39.5595 9.23941 40.1127 9.36745 40.8246 9.36745C41.4494 9.36745 41.977 9.26502 42.4072 9.06527Z" fill="currentColor"/>
<path d="M56.1545 0.00529247H60.278C60.6485 1.72563 60.9767 3.56772 61.2678 5.52627C61.559 7.48481 61.7442 9.23691 61.8184 10.7826H61.9189C62.5541 9.41689 63.3534 7.90299 64.3168 6.24087C65.2802 4.57876 66.3706 2.73667 67.604 0.72519L68.0381 0.00529247H72.1457L69.6472 11.7195H66.2807L67.5722 5.66919C67.6516 5.22455 67.7363 4.83284 67.8316 4.50465C67.9269 4.17646 68.0116 3.90121 68.091 3.67359C68.1122 3.5836 68.1492 3.49891 68.1916 3.41951H68.0751L63.1629 11.7195H60.1615L58.7853 3.41951H58.7006C58.69 3.5095 58.6794 3.61007 58.6688 3.72123C58.6106 4.23469 58.5047 4.88577 58.3512 5.66389L57.0596 11.7142H53.6719L56.1545 0V0.00529247Z" fill="currentColor"/>
<path d="M73.4966 11.5769C72.946 11.2911 72.5173 10.8888 72.2156 10.3595C71.9138 9.83542 71.7656 9.22669 71.7656 8.53326C71.7656 7.5487 71.9774 6.63824 72.3955 5.7913C72.8137 4.94965 73.4277 4.2721 74.2376 3.77453C75.0475 3.27166 76.0109 3.01758 77.1278 3.01758C77.7736 3.01758 78.3506 3.14991 78.8534 3.41987C79.3563 3.68983 79.748 4.07625 80.0339 4.58441C80.3197 5.09258 80.4626 5.70131 80.4626 6.40533H80.5473C80.6161 5.94481 80.6796 5.48428 80.7485 5.01318C80.8173 4.60029 80.9073 4.02861 81.0184 3.30342H84.0674L83.0617 8.01451L82.9928 8.28447C82.924 8.57561 82.8976 8.79263 82.9029 8.93555C82.9029 9.08377 82.9717 9.19493 83.0881 9.26904C83.2046 9.34844 83.411 9.38549 83.7022 9.38549L83.1516 12.0004H82.4635C81.4101 12.0004 80.6744 11.8469 80.2509 11.5505C79.8274 11.2488 79.6157 10.8465 79.6157 10.3436C79.6157 10.2218 79.6263 10.0948 79.6474 9.95717C79.6686 9.82484 79.7057 9.68721 79.748 9.55488C79.7586 9.5337 79.7692 9.49665 79.7798 9.4543H79.6951C79.2346 10.3383 78.6576 10.9841 77.9536 11.3917C77.2495 11.7993 76.4185 12.0004 75.4551 12.0004C74.7087 12.0004 74.0576 11.8575 73.5018 11.5716L73.4966 11.5769ZM78.6258 9.00966C79.0652 8.80322 79.3987 8.53855 79.6157 8.21566C79.8327 7.89276 79.9439 7.5434 79.9439 7.17816C79.9439 6.88702 79.8539 6.63294 79.6686 6.40533C79.4833 6.18301 79.2134 6.00833 78.864 5.88658C78.5147 5.76483 78.0753 5.70131 77.546 5.70131C76.8525 5.70131 76.2914 5.81247 75.868 6.03479C75.4445 6.25711 75.1375 6.52708 74.9522 6.84997C74.767 7.17287 74.677 7.50105 74.677 7.84512C74.677 8.28976 74.8781 8.64971 75.2804 8.91967C75.6827 9.18964 76.2544 9.32197 76.9902 9.32197C77.636 9.32197 78.1812 9.2161 78.6258 9.00966Z" fill="currentColor"/>
<path d="M85.4389 6.09718C85.4389 5.91192 85.3859 5.78487 85.2801 5.72135C85.1742 5.65783 84.9677 5.62078 84.666 5.62078L85.2165 3.00586C86.3652 3.00586 87.1962 3.12231 87.7044 3.34993C88.2126 3.57754 88.4984 3.9269 88.5619 4.39801C88.6255 4.86912 88.5249 5.51491 88.2708 6.34068L88.239 6.42537L87.8685 7.66402H87.9691C88.382 6.58946 88.8425 5.70547 89.3454 5.00675C89.8482 4.30803 90.3723 3.80516 90.9122 3.48756C91.4521 3.17525 91.9973 3.01645 92.5478 3.01645C93.4848 3.01645 94.1358 3.27582 94.4905 3.79457C94.8452 4.31332 94.9563 4.98558 94.8081 5.80605C94.6652 6.62652 94.3264 7.47875 93.8024 8.36274L91.8226 8.23041C92.0926 7.73812 92.2355 7.32524 92.2514 6.98117C92.2673 6.6424 92.172 6.38832 91.9603 6.21893C91.7485 6.04954 91.4256 5.97014 90.9863 5.97014C90.494 5.97014 90.0335 6.12365 89.5941 6.42008C89.1601 6.7218 88.8001 7.10292 88.5143 7.56874C88.2285 8.03455 88.0326 8.51096 87.9214 9.00324L87.3339 11.7187H84.3008L85.2906 7.07646C85.3912 6.60535 85.4441 6.28245 85.4441 6.09718H85.4389Z" fill="currentColor"/>
<path d="M96.4731 11.5769C95.9226 11.2911 95.4938 10.8888 95.1921 10.3595C94.8904 9.83542 94.7422 9.22669 94.7422 8.53326C94.7422 7.5487 94.9539 6.63824 95.3721 5.7913C95.7903 4.94965 96.4043 4.2721 97.2142 3.77453C98.0241 3.27166 98.9875 3.01758 100.104 3.01758C100.75 3.01758 101.327 3.14991 101.83 3.41987C102.333 3.68983 102.725 4.07625 103.01 4.58441C103.296 5.09258 103.439 5.70131 103.439 6.40533H103.524C103.593 5.94481 103.656 5.48428 103.725 5.01318C103.794 4.60029 103.884 4.02861 103.995 3.30342H107.044L106.038 8.01451L105.969 8.28447C105.901 8.57561 105.874 8.79263 105.879 8.93555C105.879 9.08377 105.948 9.19493 106.065 9.26904C106.181 9.34844 106.388 9.38549 106.679 9.38549L106.128 12.0004H105.44C104.387 12.0004 103.651 11.8469 103.227 11.5505C102.804 11.2488 102.592 10.8465 102.592 10.3436C102.592 10.2218 102.603 10.0948 102.624 9.95717C102.645 9.82484 102.682 9.68721 102.725 9.55488C102.735 9.5337 102.746 9.49665 102.756 9.4543H102.672C102.211 10.3383 101.634 10.9841 100.93 11.3917C100.226 11.7993 99.3951 12.0004 98.4317 12.0004C97.6853 12.0004 97.0342 11.8575 96.4784 11.5716L96.4731 11.5769ZM101.602 9.00966C102.042 8.80322 102.375 8.53855 102.592 8.21566C102.809 7.89276 102.92 7.5434 102.92 7.17816C102.92 6.88702 102.83 6.63294 102.645 6.40533C102.46 6.18301 102.19 6.00833 101.841 5.88658C101.491 5.76483 101.052 5.70131 100.523 5.70131C99.8291 5.70131 99.268 5.81247 98.8445 6.03479C98.4211 6.25711 98.1141 6.52708 97.9288 6.84997C97.7435 7.17287 97.6535 7.50105 97.6535 7.84512C97.6535 8.28976 97.8547 8.64971 98.257 8.91967C98.6593 9.18964 99.231 9.32197 99.9667 9.32197C100.613 9.32197 101.158 9.2161 101.602 9.00966Z" fill="currentColor"/>
</svg>
