<svg width="61" height="32" viewBox="0 0 61 32" fill="none" xmlns="http://www.w3.org/2000/svg">
<path d="M6.85678 5.68263C7.01217 5.16557 7.16219 4.64852 7.31758 4.13146C8.13201 3.83026 8.95716 3.54412 9.78231 3.27305C9.62692 3.46883 9.46618 3.66962 9.31079 3.87042C9.18756 4.03106 9.06432 4.18668 8.94108 4.35234C9.53048 4.15154 10.1252 3.95576 10.7253 3.77504C10.8271 4.04612 10.9289 4.3172 11.0254 4.5933C11.1433 4.92462 11.2665 5.25091 11.3844 5.58223C10.645 5.80311 9.9109 6.03403 9.1822 6.28001C9.15541 6.11435 9.13933 5.93865 9.11254 5.77299C9.08575 5.57219 9.05896 5.37139 9.03217 5.16055C9.00002 4.96478 8.97323 4.769 8.9518 4.57824C8.9518 4.57322 8.9518 4.57322 8.94644 4.57824H8.93573C8.93037 4.57824 8.93037 4.57824 8.93037 4.58828C8.8875 4.92964 8.84464 5.27099 8.80177 5.60733C8.76427 5.88845 8.72676 6.17459 8.68925 6.44566C7.91768 6.71172 7.15148 6.99284 6.39062 7.28902C6.54601 6.7569 6.70139 6.21977 6.86214 5.68765L6.85678 5.68263ZM6.92108 8.60425C6.92108 8.39843 6.92108 8.20265 6.92108 7.99683C8.39991 7.4346 9.90018 6.9326 11.4112 6.4808V6.41554C11.4112 6.38041 11.4112 6.34527 11.4112 6.30511C11.4112 6.30009 11.4112 6.30009 11.4058 6.30511C9.89483 6.7569 8.39991 7.2589 6.92108 7.82114V7.23882C9.12862 6.4055 11.3737 5.69267 13.6455 5.10031V5.86335C13.6455 5.95873 13.6455 6.05411 13.6455 6.15451C12.1184 6.55108 10.6075 7.00288 9.11254 7.5099C9.10718 7.5099 9.10718 7.5099 9.10718 7.51994V7.69062C9.10718 7.69062 9.10718 7.69564 9.11254 7.69062C9.96448 7.40448 10.8218 7.1334 11.6844 6.87738C12.3971 6.66654 13.115 6.47076 13.8384 6.28503C13.7741 6.6314 13.7044 6.9828 13.6401 7.32918C11.3683 7.92153 9.12862 8.62935 6.92108 9.46768V8.61429V8.60425ZM11.454 4.73386C11.454 4.55816 11.454 4.37242 11.454 4.1917C11.454 3.70978 11.454 3.23289 11.454 2.75097C12.1827 2.53511 12.9114 2.33431 13.6455 2.14355V2.83631C13.7955 2.79615 13.9456 2.76101 14.0902 2.72085C14.0902 3.33329 14.0902 3.9407 14.0902 4.55314C13.9402 4.58828 13.7902 4.62844 13.6455 4.6686V4.9447C12.9114 5.13545 12.1827 5.33625 11.454 5.55211C11.454 5.28103 11.454 5.00493 11.454 4.73386Z" fill="#007BED"/>
<path d="M14.5867 5.68259C14.6402 5.27597 14.6885 4.86936 14.742 4.46776C14.7742 4.18664 14.8063 3.9005 14.8439 3.61939C14.8439 3.61437 14.8439 3.61437 14.8385 3.61939C14.651 3.66457 14.4688 3.70974 14.2812 3.75492C14.2812 3.20273 14.2812 2.65555 14.2812 2.10336C15.1385 1.8875 16.0066 1.69172 16.8692 1.511C16.8103 2.15858 16.7513 2.80113 16.6978 3.44871C16.6067 4.43262 16.5263 5.41151 16.4352 6.39041C15.7708 6.53097 15.1064 6.68659 14.4474 6.84722C14.4902 6.46069 14.5438 6.07917 14.5867 5.68761V5.68259ZM16.9978 1.48088C17.7801 1.32024 18.5677 1.17466 19.3554 1.04414C19.2964 1.89754 19.2375 2.75093 19.1786 3.60433C19.125 4.36736 19.0768 5.12036 19.0232 5.88841C18.332 6.00889 17.6408 6.13941 16.9496 6.27997C16.9817 5.93861 17.0139 5.59223 17.0407 5.25087C17.0943 4.78402 17.1371 4.32218 17.1746 3.86536C17.2014 3.60935 17.2175 3.34831 17.2443 3.09229C17.2443 3.08727 17.2443 3.08727 17.2389 3.09229C17.1103 3.11739 16.9764 3.14751 16.8478 3.17261C16.896 2.61037 16.9442 2.05316 16.9978 1.49092V1.48088ZM19.5268 4.59828V0.893543C20.2502 0.773064 20.9735 0.667645 21.7022 0.572266V2.02806C21.8523 2.00798 22.0076 1.9879 22.1577 1.96782V4.0762C22.0076 4.09628 21.8523 4.11636 21.7022 4.13644V5.74785C20.9735 5.84323 20.2502 5.94865 19.5268 6.06913V4.59828Z" fill="#007BED"/>
<path d="M22.4531 1.83731C22.4531 1.39053 22.4531 0.958814 22.4531 0.517056C23.1765 0.431717 23.8998 0.356418 24.6232 0.291158V1.13953C24.6339 1.07427 24.6446 1.00399 24.6553 0.938734C24.6767 0.938734 24.6767 0.938734 24.7142 0.883514C24.816 0.672675 24.9125 0.466857 25.0143 0.256018C25.5769 0.160639 25.9734 0.115459 26.4396 0.120479C26.9486 0.125499 27.2861 0.351398 27.2861 0.697775V2.01803C27.2861 2.29914 27.2861 2.58528 27.2861 2.87142C25.6733 2.94672 24.0606 3.08226 22.4531 3.27302V1.83229V1.83731ZM22.8764 4.74889C22.8764 4.54307 22.8764 4.34729 22.8764 4.14147C24.4356 3.96577 26.0002 3.84027 27.5701 3.77502V3.70976C27.5701 3.67462 27.5701 3.63948 27.5701 3.59932C27.5701 3.5943 27.5701 3.5943 27.5648 3.5943C26.0002 3.65956 24.4356 3.78505 22.8818 3.96075C22.8818 3.76498 22.8818 3.5692 22.8818 3.37844C25.2072 3.11238 27.5433 2.97182 29.8795 2.95174V3.71478C29.8795 3.81015 29.8795 3.90553 29.8795 4.00593C28.3095 4.02099 26.745 4.08625 25.1804 4.21175C25.175 4.21175 25.175 4.21175 25.175 4.21677C25.175 4.24689 25.175 4.27199 25.175 4.30211C25.175 4.33223 25.175 4.35733 25.175 4.38745C25.175 4.39247 25.175 4.39247 25.1804 4.39247C26.0698 4.32219 26.9646 4.27199 27.8541 4.23685C28.5935 4.20673 29.3329 4.19167 30.0777 4.18665C30.0081 4.51797 29.9438 4.84929 29.8741 5.18061C27.538 5.20069 25.2072 5.34125 22.8818 5.6073C22.8818 5.32117 22.8818 5.03503 22.8818 4.75391L22.8764 4.74889ZM25.234 2.19373C25.234 2.19373 25.2393 2.19373 25.2393 2.18871C25.2393 1.96281 25.2393 1.73691 25.2393 1.50599C25.2393 1.39555 25.1215 1.36041 24.9661 1.37045C24.8268 1.38049 24.7571 1.39555 24.6285 1.41563V1.78209C24.6285 1.93771 24.6285 2.08831 24.6285 2.23891C24.8321 2.21883 25.0357 2.20377 25.234 2.18871V2.19373ZM27.613 2.03811C27.613 1.86241 27.613 1.67667 27.613 1.49595V0.0552195C28.3685 0.0250997 29.1186 0.00501997 29.8741 0V0.692756C30.0295 0.692756 30.1795 0.692756 30.3349 0.692756V2.52504C30.1795 2.52504 30.0295 2.52504 29.8741 2.52504V2.80114C29.1186 2.80616 28.3685 2.82624 27.613 2.85636V2.03811Z" fill="#007BED"/>
<path d="M30.8498 3.77967C30.9034 3.38812 30.957 2.99154 31.0052 2.59998C31.0374 2.3289 31.0695 2.04778 31.1124 1.77671C31.1124 1.77169 31.1124 1.77169 31.107 1.77169C30.9195 1.77169 30.7266 1.77169 30.5391 1.77169V0.120117C31.4232 0.120117 32.3019 0.140197 33.186 0.175337C33.127 0.807852 33.0681 1.44037 33.0092 2.07288C32.9181 3.0317 32.8323 3.99051 32.7412 4.94431C32.0661 4.91921 31.3856 4.90917 30.7105 4.90415C30.7587 4.53267 30.807 4.16119 30.8552 3.77967H30.8498ZM33.3146 0.180357C34.1129 0.215496 34.9059 0.260676 35.7043 0.325936C35.6453 1.16427 35.5864 2.0026 35.5275 2.84094C35.4739 3.58891 35.4257 4.33187 35.3721 5.08486C34.6702 5.03466 33.9736 4.9945 33.2717 4.96438C33.3038 4.62805 33.336 4.29171 33.3628 3.95537C33.4164 3.49855 33.4592 3.05178 33.5021 2.59998C33.5289 2.34898 33.545 2.09798 33.5718 1.84197C33.5718 1.83695 33.5718 1.83695 33.5664 1.83695C33.4324 1.83193 33.2985 1.82691 33.1645 1.82189C33.2128 1.27471 33.2663 0.727533 33.3146 0.180357ZM35.8704 3.92023C35.8704 3.57887 35.8704 3.2325 35.8704 2.88612V0.220516C36.5991 0.280756 37.3278 0.351036 38.0565 0.436375C38.0565 0.923312 38.0565 1.40523 38.0565 1.89217C38.2065 1.90723 38.3619 1.92731 38.5119 1.94739V4.05075C38.3619 4.03067 38.2065 4.01561 38.0565 3.99553C38.0565 4.53267 38.0565 5.0698 38.0565 5.60694C37.3278 5.5216 36.5991 5.45132 35.8704 5.39108V3.92023Z" fill="#007BED"/>
<path d="M40.2491 3.59454C40.1258 3.5594 40.0079 3.5092 39.9061 3.46402C39.3007 3.19797 38.9685 2.83653 38.9685 2.43493C38.9685 2.33453 39.006 2.22409 39.0488 2.17389C39.0542 2.16887 39.0542 2.17389 39.0488 2.16887C38.9149 2.15381 38.7863 2.13373 38.6523 2.11867C38.6523 1.92289 38.6523 1.72712 38.6523 1.52632C40.3562 1.73716 42.0547 2.01325 43.7372 2.35461V2.94697C43.1424 2.82649 42.5477 2.71605 41.9476 2.61063C42.5102 2.76123 43.0781 2.91685 43.6407 3.08251C43.6461 3.12769 43.6461 3.16785 43.6461 3.20299C43.6461 3.55438 43.3996 3.77526 43.0085 3.87064C42.5906 3.97104 41.9904 3.95096 41.3153 3.84052C40.9242 3.77526 40.5705 3.68992 40.2544 3.58952L40.2491 3.59454ZM39.1131 0.527344C40.5813 0.718102 42.0494 0.959061 43.5068 1.25022C43.4318 1.53134 43.3514 1.80744 43.2764 2.08855C42.2208 1.88273 41.1599 1.70202 40.099 1.5464C39.7668 1.4962 39.4453 1.45604 39.1185 1.41086C39.1185 1.11468 39.1185 0.818502 39.1185 0.527344H39.1131ZM39.2364 4.94993C39.2364 4.75918 39.2364 4.5634 39.2364 4.37264C40.7902 4.57846 42.3334 4.83949 43.8711 5.15073V5.09049C43.8711 5.06037 43.8711 5.02523 43.8711 4.99009C43.8711 4.98507 43.8711 4.98507 43.8658 4.98507C42.3334 4.66882 40.7849 4.4128 39.2364 4.20698V3.67486C41.5564 3.98108 43.8604 4.40778 46.143 4.95997C46.143 5.03025 46.143 5.10053 46.143 5.17081C46.143 5.33647 46.143 5.50213 46.143 5.66277C46.143 5.75313 46.143 5.83847 46.143 5.92883C44.6159 5.56237 43.0781 5.24611 41.535 4.98507C41.5297 4.98507 41.5296 4.98507 41.5296 4.99009C41.5296 5.01519 41.5296 5.04029 41.5296 5.07041C41.5296 5.10053 41.5296 5.12061 41.5296 5.15073C41.5296 5.15575 41.5297 5.15575 41.535 5.15575C42.4137 5.30133 43.2871 5.46699 44.1605 5.65273C44.8892 5.80333 45.6125 5.96899 46.3359 6.14469C46.2716 6.44086 46.2019 6.73704 46.1376 7.03824C43.8604 6.48604 41.5564 6.05935 39.2364 5.75313V4.95495V4.94993ZM40.9885 2.87167C41.0742 2.92187 41.176 2.96203 41.3046 2.98211C41.5886 3.02729 41.7815 2.98211 41.7815 2.77629C41.7815 2.68593 41.7225 2.61565 41.6207 2.55541C41.4118 2.52027 41.2028 2.48513 40.9938 2.44999C40.9242 2.47007 40.8331 2.52027 40.8331 2.61565C40.8331 2.72609 40.892 2.80139 40.9885 2.87167ZM43.9301 3.43892C43.9301 3.25319 43.9301 3.05741 43.9301 2.87167V1.36568C44.6695 1.51628 45.4089 1.68194 46.143 1.86265C46.143 2.10361 46.143 2.33955 46.143 2.58051C46.293 2.61565 46.443 2.65079 46.5931 2.69095C46.5931 3.30339 46.5931 3.92084 46.5931 4.53328C46.443 4.49814 46.293 4.45798 46.143 4.42284C46.143 4.54332 46.143 4.6638 46.143 4.78428C45.4089 4.60858 44.6695 4.44292 43.9301 4.2873V3.43892Z" fill="#007BED"/>
<path d="M46.8179 4.44227C46.8179 4.12099 46.8179 3.80976 46.8179 3.49852C47.1715 3.49852 47.5251 3.51358 47.8734 3.52362C47.9056 3.52362 47.9163 3.5186 47.9163 3.49852C47.5519 3.39812 47.1822 3.30274 46.8125 3.21238V2.12305C47.4662 2.28871 48.1145 2.4644 48.7629 2.65014C48.7629 3.01158 48.7629 3.37804 48.7629 3.73948C48.6235 3.69932 48.4896 3.65916 48.3503 3.62402V4.78865C48.3503 4.78865 48.3503 4.79367 48.3556 4.79869C48.5378 4.84889 48.72 4.89909 48.9022 4.95431C48.8593 5.23041 48.8218 5.50651 48.7843 5.7826C48.1306 5.59686 47.4715 5.42117 46.8125 5.25049V4.44227H46.8179ZM47.4555 6.79162C47.4555 6.52556 47.4555 6.2595 47.4555 5.99846C47.4555 5.86292 47.4555 5.72738 47.4555 5.59686C48.286 5.81774 49.1111 6.04866 49.9309 6.29966V6.54062C49.9309 6.6109 49.9309 6.69624 49.9309 6.77154C49.9309 6.77656 49.9309 6.77656 49.9363 6.78158C51.4794 7.25345 53.0011 7.78055 54.5121 8.36789C54.4692 8.7745 54.4264 9.18112 54.3835 9.58774C52.1117 8.70924 49.797 7.96629 47.4555 7.34883C47.4555 7.16811 47.4555 6.98238 47.4555 6.80166V6.79162ZM48.9236 4.95431C48.9236 4.58785 48.9236 4.19127 48.9236 3.82984V2.68528C49.5505 2.866 50.1774 3.05676 50.7989 3.25756C50.7989 3.619 50.7882 3.98043 50.7882 4.34187C50.6168 4.28665 50.4507 4.23645 50.2792 4.18123C50.2738 4.18123 50.2738 4.18123 50.2738 4.18123V5.35591C50.2738 5.35591 50.2738 5.36093 50.2792 5.36595C50.5096 5.43623 50.74 5.51153 50.9704 5.58682C50.9436 5.86794 50.9222 6.14404 50.8954 6.42516C50.2417 6.21432 49.588 6.01352 48.929 5.82276V4.95933L48.9236 4.95431ZM51.0293 4.92419C51.0293 4.35693 51.0293 3.80474 51.0293 3.23748C51.4901 3.38808 51.9456 3.53868 52.401 3.69932V4.79869C52.401 4.79869 52.401 4.80371 52.4064 4.80873C52.5082 4.84387 52.61 4.87901 52.7118 4.91415C52.7171 4.91415 52.7171 4.91415 52.7171 4.91415C52.7171 4.54769 52.7171 4.18123 52.7171 3.8198C53.269 4.01557 53.8155 4.21637 54.3621 4.42721C54.3621 4.73343 54.3621 5.03965 54.3621 5.34587C54.3621 5.86794 54.3621 6.39002 54.3621 6.90708C54.3621 7.29361 54.3621 7.68015 54.3621 8.06669C53.8155 7.85585 53.269 7.65505 52.7171 7.45927C52.7171 7.09783 52.7171 6.7364 52.7171 6.37496C52.7171 6.36994 52.7171 6.36994 52.7118 6.36492C52.61 6.32978 52.5082 6.29464 52.4064 6.2595C52.401 6.2595 52.401 6.2595 52.401 6.2595V7.16309C51.9456 7.00246 51.4901 6.85186 51.0293 6.70126C51.0293 6.1089 51.0293 5.51655 51.0293 4.92419Z" fill="#007BED"/>
<path d="M9.18595 23.8303C8.31296 23.4437 7.70187 22.8966 7.35781 22.1837C7.00861 21.4759 6.92131 20.6325 7.0805 19.6537L10.1873 18.9408C10.1 19.3776 10.1565 19.7691 10.3568 20.1255C10.5571 20.482 10.9063 20.758 11.3992 20.9588C11.8922 21.1596 12.5187 21.26 13.2787 21.26C13.7974 21.26 14.239 21.2098 14.5934 21.1094C14.9477 21.009 15.2147 20.8735 15.3893 20.7028C15.5639 20.5321 15.6718 20.3464 15.7129 20.1456C15.7539 19.9549 15.7437 19.7942 15.6718 19.6587C15.5999 19.5282 15.4458 19.4127 15.2096 19.3173C14.9734 19.2219 14.6242 19.1366 14.1671 19.0613L11.5636 18.7099C10.4133 18.5493 9.5711 18.223 9.02676 17.731C8.48243 17.2391 8.29242 16.6116 8.45675 15.8485C8.69297 14.8094 9.36055 14.0162 10.4492 13.464C11.5379 12.9118 12.8525 12.6357 14.3931 12.6357C15.5537 12.6357 16.5396 12.7763 17.351 13.0574C18.1624 13.3385 18.7786 13.8054 19.1946 14.463C19.6105 15.1206 19.7697 16.0092 19.6721 17.1336L16.4215 17.977C16.5756 17.4499 16.5294 17.0182 16.2931 16.6919C16.0569 16.3656 15.6923 16.1246 15.2096 15.974C14.7269 15.8284 14.1825 15.7531 13.5766 15.7531C12.9347 15.7531 12.4468 15.8335 12.113 15.9991C11.7793 16.1648 11.5687 16.4057 11.4968 16.722C11.4557 16.9027 11.4609 17.0583 11.5122 17.1838C11.5687 17.3093 11.6868 17.4198 11.8717 17.5202C12.0566 17.6155 12.3185 17.6908 12.6522 17.741L15.1582 18.0724C16.1134 18.223 16.8734 18.4187 17.4332 18.6697C17.9929 18.9207 18.3883 19.232 18.604 19.6135C18.8197 19.995 18.871 20.4518 18.7478 20.9789C18.6091 21.6767 18.2291 22.2891 17.6078 22.8162C16.9915 23.3383 16.2315 23.7349 15.338 24.0009C14.4444 24.267 13.5098 24.3975 12.5341 24.3975C11.1682 24.3975 10.0487 24.2068 9.17568 23.8152L9.18595 23.8303Z" fill="#007BED"/>
<path d="M21.3472 23.9562C20.8131 23.6851 20.3972 23.3036 20.1045 22.8016C19.8118 22.3046 19.668 21.7273 19.668 21.0697C19.668 20.136 19.8734 19.2725 20.2791 18.4693C20.6847 17.6712 21.2804 17.0286 22.0661 16.5567C22.8518 16.0798 23.7864 15.8389 24.87 15.8389C25.4965 15.8389 26.0562 15.9644 26.5441 16.2204C27.0319 16.4764 27.4119 16.8429 27.6892 17.3248C27.9665 17.8067 28.1052 18.384 28.1052 19.0516H28.1873C28.2541 18.6149 28.3157 18.1782 28.3825 17.7314C28.4492 17.3398 28.5365 16.7977 28.6444 16.1099H31.6023L30.6266 20.5777L30.5598 20.8337C30.4931 21.1098 30.4623 21.3157 30.4725 21.4512C30.4777 21.5918 30.5393 21.6972 30.6523 21.7674C30.7652 21.8427 30.9655 21.8779 31.2479 21.8779L30.7087 24.3578H30.0412C29.0244 24.3578 28.3055 24.2122 27.8946 23.9311C27.4838 23.6449 27.2784 23.2634 27.2784 22.7865C27.2784 22.671 27.2887 22.5506 27.3092 22.42C27.3298 22.2945 27.3657 22.164 27.4068 22.0385C27.4171 22.0184 27.4273 21.9833 27.4376 21.9431H27.3554C26.9087 22.7815 26.3489 23.3939 25.6659 23.7805C24.9829 24.167 24.1767 24.3578 23.2421 24.3578C22.518 24.3578 21.8864 24.2222 21.3472 23.9511V23.9562ZM26.3232 21.5215C26.7495 21.3257 27.073 21.0747 27.2835 20.7685C27.4941 20.4623 27.6019 20.1309 27.6019 19.7846C27.6019 19.5085 27.5146 19.2675 27.3349 19.0516C27.1552 18.8408 26.8984 18.6751 26.5543 18.5597C26.2103 18.4442 25.7892 18.384 25.2757 18.384C24.6029 18.384 24.0637 18.4894 23.6478 18.7002C23.237 18.9111 22.9391 19.1671 22.7594 19.4733C22.5797 19.7745 22.4924 20.0908 22.4924 20.4171C22.4924 20.8388 22.6875 21.1801 23.0778 21.4361C23.4681 21.6922 24.0227 21.8176 24.7365 21.8176C25.363 21.8176 25.8919 21.7172 26.3232 21.5215Z" fill="#007BED"/>
<path d="M32.9361 18.7598C32.9361 18.5841 32.8848 18.4636 32.7821 18.4034C32.6793 18.3431 32.4791 18.308 32.1864 18.308L32.7204 15.8281C33.8348 15.8281 34.641 15.9386 35.134 16.1544C35.627 16.3703 35.9043 16.7016 35.9659 17.1484C36.0275 17.5952 35.93 18.2076 35.6835 18.9907L35.6527 19.071L35.2932 20.2457H35.3908C35.7913 19.2266 36.2381 18.3883 36.7259 17.7257C37.2138 17.063 37.7222 16.5861 38.246 16.2849C38.7697 15.9888 39.2987 15.8382 39.8327 15.8382C40.7417 15.8382 41.3733 16.0841 41.7174 16.5761C42.0666 17.0681 42.1693 17.7056 42.0255 18.4837C41.8868 19.2618 41.5582 20.07 41.0498 20.9083L39.1292 20.7828C39.3911 20.316 39.5298 19.9244 39.5452 19.5981C39.5606 19.2768 39.4681 19.0359 39.2627 18.8752C39.0573 18.7146 38.7441 18.6393 38.3178 18.6393C37.8403 18.6393 37.3884 18.7849 36.9673 19.066C36.5462 19.3521 36.197 19.7136 35.9197 20.1553C35.6424 20.5971 35.4524 21.0489 35.3445 21.5157L34.7745 24.091H31.832L32.7923 19.6885C32.8899 19.2417 32.9412 18.9355 32.9412 18.7598H32.9361Z" fill="#007BED"/>
<path d="M43.6441 23.9562C43.11 23.6851 42.694 23.3036 42.4013 22.8016C42.1086 22.3046 41.9648 21.7273 41.9648 21.0697C41.9648 20.136 42.1703 19.2725 42.5759 18.4693C42.9816 17.6712 43.5773 17.0286 44.363 16.5567C45.1487 16.0798 46.0833 15.8389 47.1668 15.8389C47.7933 15.8389 48.3531 15.9644 48.8409 16.2204C49.3288 16.4764 49.7088 16.8429 49.9861 17.3248C50.2634 17.8067 50.4021 18.384 50.4021 19.0516H50.4842C50.551 18.6149 50.6126 18.1782 50.6794 17.7314C50.7461 17.3398 50.8334 16.7977 50.9413 16.1099H53.8992L52.9235 20.5777L52.8567 20.8337C52.7899 21.1098 52.7591 21.3157 52.7694 21.4512C52.7745 21.5918 52.8362 21.6972 52.9491 21.7674C53.0621 21.8427 53.2624 21.8779 53.5448 21.8779L53.0056 24.3578H52.338C51.3213 24.3578 50.6023 24.2122 50.1915 23.9311C49.7807 23.6449 49.5753 23.2634 49.5753 22.7865C49.5753 22.671 49.5855 22.5506 49.6061 22.42C49.6266 22.2945 49.6626 22.164 49.7037 22.0385C49.7139 22.0184 49.7242 21.9833 49.7345 21.9431H49.6523C49.2055 22.7815 48.6458 23.3939 47.9628 23.7805C47.2798 24.167 46.4736 24.3578 45.539 24.3578C44.8149 24.3578 44.1833 24.2222 43.6441 23.9511V23.9562ZM48.6201 21.5215C49.0463 21.3257 49.3699 21.0747 49.5804 20.7685C49.791 20.4623 49.8988 20.1309 49.8988 19.7846C49.8988 19.5085 49.8115 19.2675 49.6318 19.0516C49.452 18.8408 49.1953 18.6751 48.8512 18.5597C48.5071 18.4442 48.0861 18.384 47.5725 18.384C46.8998 18.384 46.3606 18.4894 45.9447 18.7002C45.5338 18.9111 45.236 19.1671 45.0563 19.4733C44.8765 19.7745 44.7892 20.0908 44.7892 20.4171C44.7892 20.8388 44.9844 21.1801 45.3746 21.4361C45.7649 21.6922 46.3195 21.8176 47.0333 21.8176C47.6598 21.8176 48.1888 21.7172 48.6201 21.5215Z" fill="#007BED"/>
<path fill-rule="evenodd" clip-rule="evenodd" d="M57.7042 23.3415C59.1054 21.9372 59.7754 20.5022 59.7754 19.0907C59.7754 17.6793 59.1054 16.2443 57.7042 14.8399C56.2981 13.4306 54.208 12.1107 51.5368 10.9784C46.1982 8.71521 38.7443 7.28813 30.4516 7.28813C22.1589 7.28813 14.705 8.71521 9.36643 10.9784C6.69526 12.1107 4.60518 13.4306 3.19901 14.8399C1.79783 16.2443 1.12784 17.6793 1.12784 19.0907C1.12784 20.5022 1.79783 21.9372 3.19901 23.3415C4.60518 24.7509 6.69526 26.0707 9.36643 27.2031C14.705 29.4663 22.1589 30.8933 30.4516 30.8933C38.7443 30.8933 46.1982 29.4663 51.5368 27.2031C54.208 26.0707 56.2981 24.7509 57.7042 23.3415ZM60.9032 19.0907C60.9032 26.2202 47.2696 31.9998 30.4516 31.9998C13.6337 31.9998 0 26.2202 0 19.0907C0 11.9612 13.6337 6.18164 30.4516 6.18164C47.2696 6.18164 60.9032 11.9612 60.9032 19.0907Z" fill="#007BED"/>
<path fill-rule="evenodd" clip-rule="evenodd" d="M56.5939 23.0534C57.98 21.7702 58.6758 20.4263 58.6758 19.0776C58.6758 17.7289 57.98 16.385 56.5939 15.1017C55.2068 13.8177 53.1688 12.6354 50.603 11.6307C45.4747 9.6227 38.3512 8.36833 30.454 8.36833C22.5569 8.36833 15.4334 9.6227 10.3051 11.6307C7.73924 12.6354 5.70126 13.8177 4.31422 15.1017C2.92806 16.385 2.23229 17.7289 2.23229 19.0776C2.23229 20.4263 2.92806 21.7702 4.31422 23.0534C5.70126 24.3375 7.73924 25.5198 10.3051 26.5245C15.4334 28.5325 22.5569 29.7869 30.454 29.7869C38.3512 29.7869 45.4747 28.5325 50.603 26.5245C53.1688 25.5198 55.2068 24.3375 56.5939 23.0534ZM59.244 19.0776C59.244 25.3034 46.3543 30.3505 30.454 30.3505C14.5538 30.3505 1.66406 25.3034 1.66406 19.0776C1.66406 12.8517 14.5538 7.80469 30.454 7.80469C46.3543 7.80469 59.244 12.8517 59.244 19.0776Z" fill="#007BED"/>
</svg>
