<svg width="64" height="64" viewBox="0 0 64 64" fill="none" xmlns="http://www.w3.org/2000/svg">
<circle cx="32" cy="32" r="32" fill="#EEEEEE"/>
<mask id="mask0_248_1334" style="mask-type:alpha" maskUnits="userSpaceOnUse" x="0" y="0" width="64" height="64">
<circle cx="32" cy="32" r="32" fill="#EEEEEE"/>
</mask>
<g mask="url(#mask0_248_1334)">
<path d="M-56.397 119.716H16.016C16.7792 119.716 17.4758 119.281 17.8118 118.596L30.0891 93.5576C30.8158 92.0756 32.9235 92.062 33.6691 93.5346L46.3708 118.619C46.7114 119.292 47.4013 119.716 48.1551 119.716H117.002C118.957 119.716 119.751 117.199 118.149 116.077L112.503 112.123C112.25 111.946 112.042 111.713 111.894 111.443L34.1342 -31.0079C33.3848 -32.3807 31.4206 -32.4008 30.6432 -31.0437L-50.9791 111.446C-51.133 111.714 -51.3472 111.944 -51.6048 112.115L-57.5068 116.052C-59.1528 117.15 -58.3756 119.716 -56.397 119.716Z" fill="current"/>
<circle cx="21" cy="20" r="4" fill="black"/>
<circle cx="42" cy="20" r="4" fill="black"/>
<path d="M31.0617 43.346L46.0108 27.6228H17.5362L31.0617 43.346Z" fill="white"/>
</g>
</svg>
