<svg width="57" height="22" viewBox="0 0 57 22" fill="none" xmlns="http://www.w3.org/2000/svg">
<rect width="56.4774" height="22" rx="6" fill="#EF2B00"/>
<path d="M8.06882 6.00441H11.5051C11.8139 7.43803 12.0874 8.9731 12.33 10.6052C12.5726 12.2373 12.727 13.6974 12.7887 14.9855H12.8725C13.4019 13.8474 14.068 12.5858 14.8708 11.2007C15.6736 9.81563 16.5823 8.28056 17.6101 6.60432L17.9718 6.00441H21.3949L19.3128 15.7662H16.5073L17.5836 10.7243C17.6498 10.3538 17.7204 10.0274 17.7998 9.75387C17.8792 9.48038 17.9498 9.251 18.0159 9.06133C18.0336 8.98634 18.0644 8.91576 18.0997 8.84959H18.0027L13.9092 15.7662H11.408L10.2612 8.84959H10.1906C10.1818 8.92458 10.1729 9.00839 10.1641 9.10103C10.1156 9.52891 10.0274 10.0715 9.89944 10.7199L8.82313 15.7618H6L8.06882 6V6.00441Z" fill="white"/>
<path d="M22.5196 15.647C22.0608 15.4088 21.7035 15.0735 21.4521 14.6324C21.2007 14.1957 21.0771 13.6884 21.0771 13.1106C21.0771 12.2901 21.2536 11.5314 21.6021 10.8256C21.9506 10.1242 22.4622 9.5596 23.1371 9.14495C23.8121 8.72589 24.6149 8.51416 25.5456 8.51416C26.0838 8.51416 26.5646 8.62444 26.9837 8.84941C27.4027 9.07437 27.7291 9.39639 27.9673 9.81986C28.2055 10.2433 28.3246 10.7506 28.3246 11.3373H28.3952C28.4526 10.9535 28.5055 10.5697 28.5628 10.1772C28.6202 9.83309 28.6952 9.35669 28.7878 8.75236H31.3286L30.4905 12.6783L30.4332 12.9032C30.3758 13.1459 30.3538 13.3267 30.3582 13.4458C30.3582 13.5693 30.4155 13.662 30.5126 13.7237C30.6096 13.7899 30.7816 13.8208 31.0243 13.8208L30.5655 15.9999H29.992C29.1142 15.9999 28.5011 15.8719 28.1482 15.6249C27.7953 15.3735 27.6189 15.0382 27.6189 14.6192C27.6189 14.5177 27.6277 14.4118 27.6453 14.2972C27.663 14.1869 27.6938 14.0722 27.7291 13.9619C27.738 13.9443 27.7468 13.9134 27.7556 13.8781H27.685C27.3013 14.6148 26.8204 15.1529 26.2338 15.4926C25.6471 15.8322 24.9545 15.9999 24.1517 15.9999C23.5297 15.9999 22.9872 15.8808 22.524 15.6426L22.5196 15.647ZM26.794 13.5076C27.1601 13.3355 27.438 13.115 27.6189 12.8459C27.7997 12.5768 27.8923 12.2857 27.8923 11.9813C27.8923 11.7387 27.8174 11.527 27.663 11.3373C27.5086 11.152 27.2836 11.0065 26.9925 10.905C26.7013 10.8035 26.3352 10.7506 25.8941 10.7506C25.3162 10.7506 24.8487 10.8432 24.4958 11.0285C24.1429 11.2138 23.887 11.4387 23.7327 11.7078C23.5783 11.9769 23.5033 12.2504 23.5033 12.5371C23.5033 12.9076 23.6709 13.2076 24.0061 13.4326C24.3414 13.6575 24.8178 13.7678 25.4309 13.7678C25.9691 13.7678 26.4234 13.6796 26.794 13.5076Z" fill="white"/>
<path d="M32.4718 11.0815C32.4718 10.9271 32.4277 10.8212 32.3395 10.7683C32.2513 10.7153 32.0792 10.6845 31.8278 10.6845L32.2866 8.50537C33.2438 8.50537 33.9363 8.60242 34.3598 8.7921C34.7833 8.98177 35.0215 9.27291 35.0744 9.6655C35.1273 10.0581 35.0435 10.5962 34.8318 11.2844L34.8053 11.355L34.4965 12.3872H34.5804C34.9244 11.4917 35.3082 10.755 35.7272 10.1728C36.1463 9.59051 36.583 9.17145 37.0329 8.90678C37.4829 8.64653 37.9372 8.51419 38.396 8.51419C39.1768 8.51419 39.7193 8.73034 40.0149 9.16263C40.3104 9.59492 40.403 10.1551 40.2795 10.8389C40.1604 11.5226 39.8781 12.2328 39.4414 12.9694L37.7917 12.8592C38.0166 12.4489 38.1357 12.1049 38.149 11.8181C38.1622 11.5358 38.0828 11.3241 37.9063 11.1829C37.7299 11.0418 37.4608 10.9756 37.0947 10.9756C36.6845 10.9756 36.3007 11.1035 35.9346 11.3506C35.5729 11.602 35.2729 11.9196 35.0347 12.3078C34.7965 12.6959 34.6333 13.093 34.5407 13.5032L34.051 15.7661H31.5234L32.3483 11.8975C32.4321 11.5049 32.4762 11.2359 32.4762 11.0815H32.4718Z" fill="white"/>
<path d="M41.668 15.647C41.2093 15.4088 40.852 15.0735 40.6005 14.6324C40.3491 14.1957 40.2256 13.6884 40.2256 13.1106C40.2256 12.2901 40.402 11.5314 40.7505 10.8256C41.099 10.1242 41.6107 9.5596 42.2856 9.14495C42.9605 8.72589 43.7633 8.51416 44.6941 8.51416C45.2322 8.51416 45.713 8.62444 46.1321 8.84941C46.5512 9.07437 46.8776 9.39639 47.1158 9.81986C47.354 10.2433 47.4731 10.7506 47.4731 11.3373H47.5437C47.601 10.9535 47.6539 10.5697 47.7113 10.1772C47.7686 9.83309 47.8436 9.35669 47.9362 8.75236H50.4771L49.6389 12.6783L49.5816 12.9032C49.5243 13.1459 49.5022 13.3267 49.5066 13.4458C49.5066 13.5693 49.564 13.662 49.661 13.7237C49.758 13.7899 49.9301 13.8208 50.1727 13.8208L49.7139 15.9999H49.1405C48.2627 15.9999 47.6495 15.8719 47.2966 15.6249C46.9437 15.3735 46.7673 15.0382 46.7673 14.6192C46.7673 14.5177 46.7761 14.4118 46.7938 14.2972C46.8114 14.1869 46.8423 14.0722 46.8776 13.9619C46.8864 13.9443 46.8952 13.9134 46.904 13.8781H46.8335C46.4497 14.6148 45.9689 15.1529 45.3822 15.4926C44.7955 15.8322 44.103 15.9999 43.3001 15.9999C42.6782 15.9999 42.1356 15.8808 41.6724 15.6426L41.668 15.647ZM45.9424 13.5076C46.3085 13.3355 46.5864 13.115 46.7673 12.8459C46.9482 12.5768 47.0408 12.2857 47.0408 11.9813C47.0408 11.7387 46.9658 11.527 46.8114 11.3373C46.657 11.152 46.4321 11.0065 46.1409 10.905C45.8498 10.8035 45.4837 10.7506 45.0425 10.7506C44.4647 10.7506 43.9971 10.8432 43.6442 11.0285C43.2913 11.2138 43.0355 11.4387 42.8811 11.7078C42.7267 11.9769 42.6517 12.2504 42.6517 12.5371C42.6517 12.9076 42.8193 13.2076 43.1546 13.4326C43.4898 13.6575 43.9662 13.7678 44.5794 13.7678C45.1175 13.7678 45.5719 13.6796 45.9424 13.5076Z" fill="white"/>
</svg>
