<svg width="14" height="14" viewBox="0 0 14 14" fill="none" xmlns="http://www.w3.org/2000/svg">
<path d="M7.9375 6.06201C7.9375 6.57978 7.51777 6.99951 7 6.99951C6.48223 6.99951 6.0625 6.57978 6.0625 6.06201C6.0625 5.54424 6.48223 5.12451 7 5.12451C7.51777 5.12451 7.9375 5.54424 7.9375 6.06201Z" fill="#333333"/>
<path d="M10.75 6.06201C10.75 6.57978 10.3303 6.99951 9.8125 6.99951C9.29473 6.99951 8.875 6.57978 8.875 6.06201C8.875 5.54424 9.29473 5.12451 9.8125 5.12451C10.3303 5.12451 10.75 5.54424 10.75 6.06201Z" fill="#333333"/>
<path d="M5.125 6.06201C5.125 6.57978 4.70527 6.99951 4.1875 6.99951C3.66973 6.99951 3.25 6.57978 3.25 6.06201C3.25 5.54424 3.66973 5.12451 4.1875 5.12451C4.70527 5.12451 5.125 5.54424 5.125 6.06201Z" fill="#333333"/>
<path d="M12.625 8.875C12.625 9.20652 12.4933 9.52446 12.2589 9.75888C12.0245 9.9933 11.7065 10.125 11.375 10.125H3.875L1.375 12V3.25C1.375 2.91848 1.5067 2.60054 1.74112 2.36612C1.97554 2.1317 2.29348 2 2.625 2H11.375C11.7065 2 12.0245 2.1317 12.2589 2.36612C12.4933 2.60054 12.625 2.91848 12.625 3.25V8.875Z" stroke="#333333" stroke-linecap="round" stroke-linejoin="round"/>
</svg>
