<svg width="112" height="18" viewBox="0 0 112 18" fill="none" xmlns="http://www.w3.org/2000/svg">
<path d="M6.69043 7.63281C6.68359 9.86133 7.63379 12.1104 9.62988 13.0742L8.57715 14.4688C7.24414 13.8057 6.3418 12.5752 5.8291 11.0781C5.28223 12.6846 4.3252 14.0039 2.91699 14.7012L1.83691 13.293C3.94922 12.3223 4.94043 9.94336 4.94043 7.63281V5.77344H6.69043V7.63281ZM10.1768 17.2578V4.81641H11.9268V9.61523H13.7588V11.0918H11.9268V17.2578H10.1768ZM19.0361 8.20703C19.0293 10.2168 20.0684 12.3701 22.1533 13.2383L21.21 14.6055C19.7471 13.9834 18.7354 12.7461 18.1748 11.2422C17.6143 12.876 16.582 14.2432 15.1123 14.9199L14.1143 13.5391C16.1787 12.6162 17.2451 10.3125 17.2451 8.20703V7.44141H14.6064V6.01953H21.6338V7.44141H19.0361V8.20703ZM22.8643 17.2578V4.81641H24.6279V17.2578H22.8643Z" fill="#EF2B00"/>
<path d="M35.6643 0.00793871H41.8496C42.4054 2.58845 42.8977 5.35159 43.3344 8.2894C43.7711 11.2272 44.049 13.8554 44.1602 16.1739H44.311C45.2638 14.1253 46.4628 11.8545 47.9079 9.36131C49.3529 6.86813 50.9886 4.105 52.8386 1.08778L53.4897 0.00793871H59.6512L55.9035 17.5792H50.8536L52.791 8.50378C52.9101 7.83682 53.0371 7.24926 53.18 6.75697C53.323 6.26469 53.45 5.85181 53.5691 5.51039C53.6009 5.37541 53.6564 5.24837 53.72 5.12927H53.5453L46.1769 17.5792H41.6749L39.6105 5.12927H39.4835C39.4676 5.26425 39.4517 5.41511 39.4358 5.58185C39.3485 6.35203 39.1897 7.32866 38.9594 8.49584L37.0221 17.5713H31.9404L35.6643 0V0.00793871Z" fill="#EF2B00"/>
<path d="M61.6755 17.3654C60.8497 16.9367 60.2066 16.3332 59.754 15.5392C59.3014 14.7531 59.0791 13.84 59.0791 12.7999C59.0791 11.323 59.3967 9.95735 60.024 8.68695C60.6512 7.42448 61.5723 6.40816 62.7871 5.66179C64.0019 4.90749 65.447 4.52637 67.1224 4.52637C68.091 4.52637 68.9565 4.72487 69.7108 5.12981C70.4651 5.53475 71.0527 6.11438 71.4814 6.87662C71.9102 7.63886 72.1246 8.55197 72.1246 9.60799H72.2516C72.3548 8.91721 72.4501 8.22643 72.5534 7.51976C72.6566 6.90044 72.7915 6.04292 72.9583 4.95513H77.5318L76.0231 12.0218L75.9199 12.4267C75.8167 12.8634 75.777 13.189 75.785 13.4033C75.785 13.6257 75.8882 13.7924 76.0628 13.9036C76.2375 14.0227 76.5472 14.0782 76.9839 14.0782L76.1581 18.0006H75.1259C73.5459 18.0006 72.4422 17.7704 71.807 17.3257C71.1718 16.8731 70.8542 16.2697 70.8542 15.5154C70.8542 15.3328 70.8701 15.1422 70.9018 14.9358C70.9336 14.7373 70.9892 14.5308 71.0527 14.3323C71.0686 14.3006 71.0844 14.245 71.1003 14.1815H70.9733C70.2825 15.5074 69.417 16.4761 68.361 17.0875C67.305 17.6989 66.0584 18.0006 64.6133 18.0006C63.4938 18.0006 62.5171 17.7862 61.6834 17.3575L61.6755 17.3654ZM69.3694 13.5145C70.0284 13.2048 70.5286 12.8078 70.8542 12.3235C71.1797 11.8391 71.3465 11.3151 71.3465 10.7672C71.3465 10.3305 71.2115 9.94941 70.9336 9.60799C70.6557 9.27451 70.2507 9.01249 69.7267 8.82987C69.2027 8.64725 68.5436 8.55197 67.7496 8.55197C66.7095 8.55197 65.8678 8.71871 65.2326 9.05219C64.5974 9.38567 64.1369 9.79061 63.859 10.275C63.5811 10.7593 63.4461 11.2516 63.4461 11.7677C63.4461 12.4346 63.7478 12.9746 64.3513 13.3795C64.9547 13.7845 65.8123 13.983 66.9159 13.983C67.8846 13.983 68.7024 13.8242 69.3694 13.5145Z" fill="#EF2B00"/>
<path d="M79.5899 9.14577C79.5899 8.86787 79.5105 8.67731 79.3517 8.58203C79.1929 8.48675 78.8833 8.43117 78.4307 8.43117L79.2564 4.50879C80.9794 4.50879 82.226 4.68347 82.9883 5.02489C83.7505 5.36631 84.1793 5.89036 84.2745 6.59702C84.3698 7.30368 84.219 8.27237 83.8378 9.51102L83.7902 9.63806L83.2344 11.496H83.3853C84.0046 9.8842 84.6954 8.55821 85.4497 7.51013C86.204 6.46204 86.99 5.70774 87.7999 5.23133C88.6098 4.76287 89.4276 4.52467 90.2534 4.52467C91.6588 4.52467 92.6354 4.91373 93.1674 5.69186C93.6994 6.46998 93.8661 7.47837 93.6438 8.70907C93.4294 9.93978 92.9212 11.2181 92.1352 12.5441L89.1656 12.3456C89.5705 11.6072 89.7849 10.9879 89.8087 10.4718C89.8326 9.9636 89.6897 9.58248 89.3721 9.3284C89.0544 9.07431 88.5701 8.95521 87.9111 8.95521C87.1727 8.95521 86.4819 9.18547 85.8229 9.63012C85.1718 10.0827 84.6318 10.6544 84.2031 11.3531C83.7743 12.0518 83.4805 12.7664 83.3138 13.5049L82.4325 17.5781H77.8828L79.3676 10.6147C79.5185 9.90802 79.5979 9.42368 79.5979 9.14577H79.5899Z" fill="#EF2B00"/>
<path d="M96.1433 17.3654C95.3175 16.9367 94.6744 16.3332 94.2218 15.5392C93.7692 14.7531 93.5469 13.84 93.5469 12.7999C93.5469 11.323 93.8645 9.95735 94.4917 8.68695C95.119 7.42448 96.0401 6.40816 97.2549 5.66179C98.4697 4.90749 99.9148 4.52637 101.59 4.52637C102.559 4.52637 103.424 4.72487 104.179 5.12981C104.933 5.53475 105.52 6.11438 105.949 6.87662C106.378 7.63886 106.592 8.55197 106.592 9.60799H106.719C106.823 8.91721 106.918 8.22643 107.021 7.51976C107.124 6.90044 107.259 6.04292 107.426 4.95513H112L110.491 12.0218L110.388 12.4267C110.284 12.8634 110.245 13.189 110.253 13.4033C110.253 13.6257 110.356 13.7924 110.531 13.9036C110.705 14.0227 111.015 14.0782 111.452 14.0782L110.626 18.0006H109.594C108.014 18.0006 106.91 17.7704 106.275 17.3257C105.64 16.8731 105.322 16.2697 105.322 15.5154C105.322 15.3328 105.338 15.1422 105.37 14.9358C105.401 14.7373 105.457 14.5308 105.52 14.3323C105.536 14.3006 105.552 14.245 105.568 14.1815H105.441C104.75 15.5074 103.885 16.4761 102.829 17.0875C101.773 17.6989 100.526 18.0006 99.0811 18.0006C97.9615 18.0006 96.9849 17.7862 96.1512 17.3575L96.1433 17.3654ZM103.837 13.5145C104.496 13.2048 104.996 12.8078 105.322 12.3235C105.647 11.8391 105.814 11.3151 105.814 10.7672C105.814 10.3305 105.679 9.94941 105.401 9.60799C105.123 9.27451 104.719 9.01249 104.194 8.82987C103.67 8.64725 103.011 8.55197 102.217 8.55197C101.177 8.55197 100.336 8.71871 99.7004 9.05219C99.0652 9.38567 98.6047 9.79061 98.3268 10.275C98.0489 10.7593 97.9139 11.2516 97.9139 11.7677C97.9139 12.4346 98.2156 12.9746 98.8191 13.3795C99.4225 13.7845 100.28 13.983 101.384 13.983C102.352 13.983 103.17 13.8242 103.837 13.5145Z" fill="#EF2B00"/>
</svg>
