<svg width="148" height="80" viewBox="0 0 148 80" fill="none" xmlns="http://www.w3.org/2000/svg">
<path d="M19.8827 13.9119C20.2391 12.646 20.5832 11.3802 20.9396 10.1143C22.8077 9.37693 24.7003 8.67642 26.5929 8.01277C26.2365 8.49207 25.8678 8.98366 25.5114 9.47525C25.2288 9.86853 24.9461 10.2495 24.6634 10.6551C26.0153 10.1635 27.3795 9.68418 28.7559 9.24175C28.9894 9.9054 29.2229 10.569 29.4442 11.245C29.7145 12.0561 29.9972 12.855 30.2676 13.6661C28.5716 14.2068 26.8879 14.7722 25.2165 15.3744C25.155 14.9688 25.1181 14.5387 25.0567 14.1331C24.9953 13.6415 24.9338 13.1499 24.8724 12.6337C24.7986 12.1544 24.7372 11.6751 24.688 11.2081C24.688 11.1958 24.688 11.1958 24.6757 11.2081H24.6511C24.6388 11.2081 24.6388 11.2081 24.6388 11.2327C24.5405 12.0684 24.4422 12.9041 24.3439 13.7275C24.2579 14.4158 24.1718 15.1163 24.0858 15.7799C22.3161 16.4313 20.5586 17.1195 18.8135 17.8446C19.1699 16.5419 19.5263 15.2269 19.895 13.9242L19.8827 13.9119ZM20.0302 21.0645C20.0302 20.5607 20.0302 20.0814 20.0302 19.5775C23.4222 18.201 26.8633 16.972 30.329 15.866V15.7062C30.329 15.6202 30.329 15.5341 30.329 15.4358C30.329 15.4235 30.329 15.4235 30.3167 15.4358C26.851 16.5419 23.4222 17.7709 20.0302 19.1473V17.7217C25.0936 15.6816 30.243 13.9365 35.4539 12.4863V14.3543C35.4539 14.5878 35.4539 14.8213 35.4539 15.0671C31.9513 16.038 28.4856 17.1441 25.0567 18.3854C25.0444 18.3854 25.0444 18.3854 25.0444 18.4099V18.8278C25.0444 18.8278 25.0444 18.8401 25.0567 18.8278C27.0108 18.1273 28.9771 17.4636 30.9558 16.8368C32.5904 16.3207 34.2372 15.8414 35.8963 15.3867C35.7488 16.2346 35.5891 17.0949 35.4416 17.9429C30.2307 19.3931 25.0936 21.126 20.0302 23.1784V21.0891V21.0645ZM30.4273 11.5891C30.4273 11.159 30.4273 10.7042 30.4273 10.2618C30.4273 9.08198 30.4273 7.91445 30.4273 6.73463C32.0988 6.20616 33.7702 5.71457 35.4539 5.24756V6.94355C35.798 6.84523 36.1421 6.7592 36.4739 6.66089C36.4739 8.16024 36.4739 9.64731 36.4739 11.1467C36.1298 11.2327 35.7857 11.331 35.4539 11.4293V12.1053C33.7702 12.5723 32.0988 13.0639 30.4273 13.5923C30.4273 12.9287 30.4273 12.2527 30.4273 11.5891Z" fill="#007BED"/>
<path d="M37.6185 13.9119C37.7414 12.9164 37.852 11.921 37.9749 10.9378C38.0486 10.2495 38.1224 9.54902 38.2084 8.86079C38.2084 8.8485 38.2084 8.8485 38.1961 8.86079C37.766 8.9714 37.3481 9.08201 36.918 9.19262C36.918 7.84074 36.918 6.50115 36.918 5.14927C38.8843 4.62081 40.8753 4.14151 42.8539 3.69907C42.7188 5.28446 42.5836 6.85755 42.4607 8.44294C42.2517 10.8517 42.0674 13.2483 41.8585 15.6448C40.3345 15.9889 38.8106 16.3699 37.299 16.7631C37.3973 15.8168 37.5202 14.8828 37.6185 13.9242V13.9119ZM43.1489 3.62533C44.9432 3.23206 46.7498 2.87566 48.5564 2.55612C48.4212 4.64539 48.286 6.73466 48.1509 8.82392C48.028 10.692 47.9173 12.5354 47.7945 14.4158C46.2091 14.7107 44.6237 15.0303 43.0383 15.3744C43.112 14.5387 43.1858 13.6907 43.2472 12.855C43.3701 11.712 43.4684 10.5814 43.5545 9.46299C43.6159 8.83621 43.6528 8.19714 43.7142 7.57036C43.7142 7.55807 43.7142 7.55807 43.7019 7.57036C43.407 7.63181 43.0997 7.70555 42.8048 7.767C42.9154 6.39054 43.026 5.02637 43.1489 3.64991V3.62533ZM48.9497 11.2573V2.18743C50.6088 1.89247 52.2679 1.63439 53.9394 1.40088V4.96492C54.2835 4.91576 54.6399 4.86661 54.984 4.81745V9.97917C54.6399 10.0283 54.2835 10.0775 53.9394 10.1266V14.0717C52.2679 14.3052 50.6088 14.5633 48.9497 14.8582V11.2573Z" fill="#007BED"/>
<path d="M55.6592 4.49807C55.6592 3.40428 55.6592 2.34735 55.6592 1.26585C57.3183 1.05692 58.9774 0.872576 60.6366 0.712809V2.78979C60.6611 2.63002 60.6857 2.45796 60.7103 2.29819C60.7594 2.29819 60.7594 2.29819 60.8455 2.16301C61.079 1.64683 61.3002 1.14295 61.5337 0.626781C62.8241 0.393274 63.7336 0.282665 64.8028 0.294955C65.9703 0.307245 66.7446 0.860287 66.7446 1.70828V4.9405C66.7446 5.62873 66.7446 6.32925 66.7446 7.02977C63.0454 7.21412 59.3461 7.54594 55.6592 8.01296V4.48578V4.49807ZM56.6301 11.6262C56.6301 11.1223 56.6301 10.643 56.6301 10.1391C60.2064 9.70895 63.795 9.4017 67.3959 9.24194V9.08217C67.3959 8.99614 67.3959 8.91011 67.3959 8.81179C67.3959 8.7995 67.3959 8.7995 67.3837 8.7995C63.795 8.95927 60.2064 9.26652 56.6424 9.69666C56.6424 9.21736 56.6424 8.73805 56.6424 8.27104C61.9761 7.61968 67.3345 7.27557 72.6929 7.22641V9.09446C72.6929 9.32797 72.6929 9.56147 72.6929 9.80727C69.0919 9.84414 65.5033 10.0039 61.9147 10.3112C61.9024 10.3112 61.9024 10.3112 61.9024 10.3234C61.9024 10.3972 61.9024 10.4586 61.9024 10.5324C61.9024 10.6061 61.9024 10.6676 61.9024 10.7413C61.9024 10.7536 61.9024 10.7536 61.9147 10.7536C63.9548 10.5815 66.0072 10.4586 68.0473 10.3726C69.7433 10.2989 71.4393 10.262 73.1476 10.2497C72.9878 11.0608 72.8403 11.872 72.6806 12.6831C67.3222 12.7322 61.9761 13.0764 56.6424 13.7277C56.6424 13.0272 56.6424 12.3267 56.6424 11.6385L56.6301 11.6262ZM62.0376 5.37065C62.0376 5.37065 62.0499 5.37065 62.0499 5.35836C62.0499 4.80532 62.0499 4.25227 62.0499 3.68694C62.0499 3.41657 61.7795 3.33054 61.4231 3.35512C61.1036 3.3797 60.9438 3.41657 60.6488 3.46573V4.36288C60.6488 4.74387 60.6488 5.11256 60.6488 5.48126C61.1159 5.4321 61.5829 5.39523 62.0376 5.35836V5.37065ZM67.4943 4.98966C67.4943 4.55952 67.4943 4.1048 67.4943 3.66236V0.135187C69.2271 0.0614486 70.9477 0.0122898 72.6806 0V1.69599C73.037 1.69599 73.3811 1.69599 73.7375 1.69599V6.18177C73.3811 6.18177 73.037 6.18177 72.6806 6.18177V6.85771C70.9477 6.87 69.2271 6.91916 67.4943 6.9929V4.98966Z" fill="#007BED"/>
<path d="M74.9179 9.25444C75.0408 8.29583 75.1637 7.32494 75.2743 6.36633C75.348 5.70268 75.4218 5.01445 75.5201 4.3508C75.5201 4.33851 75.5201 4.33851 75.5078 4.33851C75.0777 4.33851 74.6352 4.33851 74.2051 4.33851V0.295166C76.2329 0.295166 78.2484 0.344325 80.2762 0.430354C80.1411 1.97887 80.0059 3.52739 79.8707 5.0759C79.6618 7.42326 79.4651 9.77061 79.2562 12.1057C77.7077 12.0442 76.1469 12.0196 74.5984 12.0074C74.709 11.0979 74.8196 10.1885 74.9302 9.25444H74.9179ZM80.5712 0.442644C82.4024 0.528672 84.2213 0.639281 86.0525 0.799048C85.9173 2.85145 85.7821 4.90385 85.6469 6.95624C85.524 8.78743 85.4134 10.6063 85.2905 12.4498C83.6805 12.3269 82.0828 12.2286 80.4729 12.1548C80.5466 11.3314 80.6204 10.508 80.6818 9.68458C80.8047 8.56621 80.903 7.47242 81.0013 6.36633C81.0628 5.75184 81.0997 5.13735 81.1611 4.51057C81.1611 4.49828 81.1611 4.49828 81.1488 4.49828C80.8416 4.48599 80.5343 4.4737 80.2271 4.46141C80.3377 3.12182 80.4606 1.78223 80.5712 0.442644ZM86.4334 9.59855C86.4334 8.76285 86.4334 7.91485 86.4334 7.06685V0.540962C88.1049 0.68844 89.7763 0.860497 91.4477 1.06942C91.4477 2.26154 91.4477 3.44136 91.4477 4.63347C91.7918 4.67034 92.1482 4.7195 92.4923 4.76866V9.91809C92.1482 9.86893 91.7918 9.83206 91.4477 9.7829C91.4477 11.0979 91.4477 12.4129 91.4477 13.7279C89.7763 13.519 88.1049 13.3469 86.4334 13.1995V9.59855Z" fill="#007BED"/>
<path d="M96.4719 8.79985C96.1893 8.71382 95.9189 8.59092 95.6854 8.48031C94.2966 7.82895 93.5347 6.94409 93.5347 5.9609C93.5347 5.7151 93.6207 5.44473 93.719 5.32183C93.7313 5.30954 93.7313 5.32183 93.719 5.30954C93.4118 5.27267 93.1168 5.22351 92.8096 5.18664C92.8096 4.70734 92.8096 4.22804 92.8096 3.73644C96.7177 4.25262 100.614 4.92856 104.473 5.76426V7.21446C103.108 6.91951 101.744 6.64913 100.368 6.39104C101.658 6.75974 102.961 7.14072 104.251 7.54629C104.264 7.65689 104.264 7.75521 104.264 7.84124C104.264 8.70153 103.698 9.24228 102.801 9.47579C101.843 9.72158 100.466 9.67242 98.9176 9.40205C98.0205 9.24228 97.2093 9.03335 96.4842 8.78756L96.4719 8.79985ZM93.8665 1.29077C97.2339 1.75778 100.601 2.3477 103.944 3.0605C103.772 3.74873 103.588 4.42467 103.416 5.1129C100.995 4.60902 98.5612 4.16659 96.1278 3.7856C95.3659 3.66271 94.6285 3.56439 93.8788 3.45378C93.8788 2.72868 93.8788 2.00358 93.8788 1.29077H93.8665ZM94.1492 12.1181C94.1492 11.6511 94.1492 11.1718 94.1492 10.7048C97.7132 11.2086 101.253 11.8477 104.78 12.6097V12.4622C104.78 12.3885 104.78 12.3024 104.78 12.2164C104.78 12.2041 104.78 12.2041 104.768 12.2041C101.253 11.4299 97.7009 10.8031 94.1492 10.2992V8.99648C99.4707 9.74616 104.755 10.7908 109.991 12.1427C109.991 12.3147 109.991 12.4868 109.991 12.6588C109.991 13.0644 109.991 13.47 109.991 13.8632C109.991 14.0845 109.991 14.2934 109.991 14.5146C106.488 13.6175 102.961 12.8432 99.4215 12.2041C99.4092 12.2041 99.4092 12.2041 99.4092 12.2164C99.4092 12.2779 99.4092 12.3393 99.4092 12.4131C99.4092 12.4868 99.4092 12.5359 99.4092 12.6097C99.4092 12.622 99.4092 12.622 99.4215 12.622C101.437 12.9784 103.44 13.3839 105.443 13.8387C107.115 14.2074 108.774 14.6129 110.433 15.0431C110.286 15.7682 110.126 16.4933 109.978 17.2307C104.755 15.8788 99.4707 14.8341 94.1492 14.0845V12.1304V12.1181ZM98.1679 7.03011C98.3646 7.15301 98.5981 7.25133 98.893 7.30049C99.5444 7.4111 99.9868 7.30049 99.9868 6.79661C99.9868 6.57539 99.8516 6.40333 99.6181 6.25586C99.1388 6.16983 98.6595 6.0838 98.1802 5.99777C98.0205 6.04693 97.8115 6.16983 97.8115 6.40333C97.8115 6.67371 97.9467 6.85806 98.1679 7.03011ZM104.915 8.41886C104.915 7.96414 104.915 7.48484 104.915 7.03011V3.34317C106.611 3.71186 108.307 4.11743 109.991 4.55986C109.991 5.14977 109.991 5.72739 109.991 6.3173C110.335 6.40333 110.679 6.48936 111.023 6.58768C111.023 8.08704 111.023 9.59868 111.023 11.098C110.679 11.012 110.335 10.9137 109.991 10.8277C109.991 11.1226 109.991 11.4176 109.991 11.7125C108.307 11.2824 106.611 10.8768 104.915 10.4958V8.41886Z" fill="#007BED"/>
<path d="M111.54 10.8764C111.54 10.0898 111.54 9.32786 111.54 8.56589C112.351 8.56589 113.162 8.60276 113.961 8.62734C114.034 8.62734 114.059 8.61505 114.059 8.56589C113.223 8.3201 112.375 8.08659 111.527 7.86538V5.19849C113.027 5.60405 114.514 6.03419 116.001 6.48892C116.001 7.37378 116.001 8.27094 116.001 9.15581C115.681 9.05749 115.374 8.95917 115.055 8.87314V11.7244C115.055 11.7244 115.055 11.7367 115.067 11.749C115.485 11.8719 115.903 11.9948 116.32 12.1299C116.222 12.8059 116.136 13.4818 116.05 14.1578C114.551 13.703 113.039 13.2729 111.527 12.855V10.8764H111.54ZM113.002 16.628C113.002 15.9767 113.002 15.3253 113.002 14.6862C113.002 14.3544 113.002 14.0226 113.002 13.703C114.907 14.2438 116.8 14.8091 118.68 15.4236V16.0135C118.68 16.1856 118.68 16.3945 118.68 16.5789C118.68 16.5911 118.68 16.5911 118.692 16.6034C122.232 17.7587 125.722 19.0491 129.188 20.487C129.089 21.4825 128.991 22.478 128.893 23.4734C123.682 21.3227 118.373 19.5038 113.002 17.9922C113.002 17.5497 113.002 17.095 113.002 16.6526V16.628ZM116.37 12.1299C116.37 11.2328 116.37 10.2619 116.37 9.37702V6.57495C117.807 7.01738 119.245 7.48439 120.671 7.97598C120.671 8.86085 120.646 9.74572 120.646 10.6306C120.253 10.4954 119.872 10.3725 119.479 10.2373C119.467 10.2373 119.467 10.2373 119.467 10.2373V13.1131C119.467 13.1131 119.467 13.1254 119.479 13.1377C120.007 13.3098 120.536 13.4941 121.064 13.6785C121.003 14.3667 120.954 15.0426 120.892 15.7309C119.393 15.2147 117.893 14.7231 116.382 14.2561V12.1422L116.37 12.1299ZM121.199 12.0562C121.199 10.6675 121.199 9.31557 121.199 7.92682C122.256 8.29552 123.301 8.66421 124.346 9.05749V11.749C124.346 11.749 124.346 11.7612 124.358 11.7735C124.591 11.8596 124.825 11.9456 125.058 12.0316C125.071 12.0316 125.071 12.0316 125.071 12.0316C125.071 11.1345 125.071 10.2373 125.071 9.35244C126.337 9.83175 127.59 10.3233 128.844 10.8395C128.844 11.5892 128.844 12.3389 128.844 13.0885C128.844 14.3667 128.844 15.6448 128.844 16.9107C128.844 17.857 128.844 18.8033 128.844 19.7496C127.59 19.2335 126.337 18.7419 125.071 18.2626C125.071 17.3777 125.071 16.4928 125.071 15.608C125.071 15.5957 125.071 15.5957 125.058 15.5834C124.825 15.4973 124.591 15.4113 124.358 15.3253C124.346 15.3253 124.346 15.3253 124.346 15.3253V17.5375C123.301 17.1442 122.256 16.7755 121.199 16.4068C121.199 14.9566 121.199 13.5064 121.199 12.0562Z" fill="#007BED"/>
<path d="M23.2544 59.0952C21.1651 58.1489 19.7026 56.8093 18.8792 55.0642C18.0435 53.3313 17.8346 51.2666 18.2155 48.8701L25.6509 47.125C25.442 48.1942 25.5771 49.1528 26.0564 50.0254C26.5357 50.8979 27.3715 51.5739 28.5513 52.0655C29.7311 52.5571 31.2305 52.8029 33.0493 52.8029C34.2906 52.8029 35.3475 52.68 36.1955 52.4342C37.0435 52.1884 37.6826 51.8565 38.1005 51.4387C38.5183 51.0208 38.7764 50.5661 38.8747 50.0745C38.973 49.6075 38.9485 49.2142 38.7764 48.8824C38.6043 48.5629 38.2356 48.2802 37.6703 48.0467C37.105 47.8132 36.2693 47.6043 35.1755 47.4199L28.9445 46.5596C26.1916 46.1664 24.1761 45.3675 22.8734 44.1631C21.5707 42.9587 21.1159 41.4225 21.5092 39.5544C22.0745 37.0105 23.6722 35.0687 26.2777 33.7168C28.8831 32.3649 32.0293 31.689 35.7162 31.689C38.4937 31.689 40.8534 32.0331 42.7952 32.7213C44.737 33.4095 46.2117 34.5525 47.2072 36.1625C48.2027 37.7724 48.5837 39.9477 48.3502 42.7006L40.5707 44.7653C40.9394 43.4749 40.8288 42.418 40.2635 41.6191C39.6981 40.8203 38.8256 40.2304 37.6703 39.8617C36.5151 39.5053 35.2124 39.3209 33.7622 39.3209C32.2259 39.3209 31.0584 39.5176 30.2596 39.9231C29.4607 40.3287 28.9568 40.9186 28.7848 41.6929C28.6865 42.1353 28.6988 42.5163 28.8217 42.8235C28.9568 43.1308 29.2395 43.4012 29.6819 43.647C30.1244 43.8805 30.7512 44.0648 31.55 44.1877L37.5474 44.9988C39.8333 45.3675 41.6522 45.8468 42.9918 46.4613C44.3314 47.0758 45.2777 47.8378 45.7939 48.7718C46.3101 49.7058 46.433 50.8242 46.138 52.1146C45.8062 53.8229 44.8967 55.3223 43.4097 56.6127C41.9349 57.8908 40.116 58.8617 37.9776 59.5131C35.8391 60.1645 33.6024 60.484 31.2673 60.484C27.9982 60.484 25.3191 60.017 23.2298 59.0584L23.2544 59.0952Z" fill="#007BED"/>
<path d="M52.3567 59.4019C51.0785 58.7383 50.083 57.8042 49.3825 56.5753C48.682 55.3586 48.3379 53.9452 48.3379 52.3353C48.3379 50.0494 48.8295 47.9355 49.8004 45.9692C50.7713 44.0151 52.1969 42.442 54.0772 41.2867C55.9576 40.1192 58.1943 39.5293 60.7875 39.5293C62.2868 39.5293 63.6264 39.8365 64.7939 40.4633C65.9615 41.0901 66.8709 41.9873 67.5346 43.1671C68.1982 44.3469 68.5301 45.7602 68.5301 47.3948H68.7267C68.8865 46.3256 69.0339 45.2563 69.1937 44.1626C69.3535 43.204 69.5624 41.8767 69.8205 40.1929H76.8994L74.5644 51.1309L74.4046 51.7577C74.2448 52.4336 74.1711 52.9375 74.1957 53.2693C74.2079 53.6134 74.3554 53.8715 74.6258 54.0436C74.8962 54.2279 75.3755 54.3139 76.0514 54.3139L74.761 60.3851H73.1633C70.7299 60.3851 69.0094 60.0287 68.0262 59.3405C67.043 58.64 66.5514 57.7059 66.5514 56.5384C66.5514 56.2557 66.576 55.9608 66.6251 55.6412C66.6743 55.334 66.7603 55.0145 66.8586 54.7072C66.8832 54.6581 66.9078 54.572 66.9324 54.4737H66.7357C65.6665 56.5261 64.3269 58.0255 62.6924 58.9718C61.0578 59.9181 59.1283 60.3851 56.8916 60.3851C55.1587 60.3851 53.6471 60.0533 52.3567 59.3896V59.4019ZM64.2655 53.4414C65.2855 52.9621 66.0598 52.3476 66.5637 51.5979C67.0676 50.8482 67.3256 50.0371 67.3256 49.1891C67.3256 48.5131 67.1167 47.9232 66.6866 47.3948C66.2564 46.8786 65.6419 46.473 64.8185 46.1904C63.9951 45.9077 62.9873 45.7602 61.7584 45.7602C60.1484 45.7602 58.858 46.0183 57.8625 46.5345C56.8793 47.0507 56.1665 47.6774 55.7364 48.4271C55.3062 49.1645 55.0973 49.9388 55.0973 50.7376C55.0973 51.77 55.5643 52.6057 56.4983 53.2324C57.4324 53.8592 58.7597 54.1665 60.4679 54.1665C61.9673 54.1665 63.2331 53.9207 64.2655 53.4414Z" fill="#007BED"/>
<path d="M80.0964 46.6831C80.0964 46.253 79.9735 45.958 79.7277 45.8105C79.4819 45.6631 79.0026 45.577 78.3021 45.577L79.5802 39.5059C82.2471 39.5059 84.1766 39.7762 85.3564 40.3047C86.5363 40.8332 87.1999 41.6443 87.3474 42.7381C87.4949 43.8319 87.2614 45.3312 86.6715 47.2484L86.5977 47.4451L85.7374 50.3209H85.9709C86.9295 47.8261 87.9988 45.7737 89.1663 44.1514C90.3338 42.5292 91.5505 41.3616 92.8041 40.6242C94.0576 39.8991 95.3235 39.5304 96.6016 39.5304C98.7769 39.5304 100.289 40.1326 101.112 41.337C101.948 42.5414 102.193 44.1023 101.849 46.0072C101.518 47.9121 100.731 49.8907 99.5143 51.9431L94.9179 51.6359C95.5447 50.4929 95.8765 49.5343 95.9134 48.7355C95.9503 47.949 95.729 47.3591 95.2375 46.9658C94.7459 46.5725 93.9962 46.3882 92.9761 46.3882C91.8332 46.3882 90.7517 46.7446 89.7439 47.4328C88.7361 48.1333 87.9004 49.0182 87.2368 50.0997C86.5731 51.1812 86.1184 52.2873 85.8603 53.4302L84.4962 59.7349H77.4541L79.7523 48.9567C79.9858 47.8629 80.1087 47.1133 80.1087 46.6831H80.0964Z" fill="#007BED"/>
<path d="M105.719 59.4019C104.441 58.7383 103.445 57.8042 102.745 56.5753C102.044 55.3586 101.7 53.9452 101.7 52.3353C101.7 50.0494 102.192 47.9355 103.163 45.9692C104.134 44.0151 105.559 42.442 107.44 41.2867C109.32 40.1192 111.557 39.5293 114.15 39.5293C115.649 39.5293 116.989 39.8365 118.156 40.4633C119.324 41.0901 120.233 41.9873 120.897 43.1671C121.561 44.3469 121.892 45.7602 121.892 47.3948H122.089C122.249 46.3256 122.396 45.2563 122.556 44.1626C122.716 43.204 122.925 41.8767 123.183 40.1929H130.262L127.927 51.1309L127.767 51.7577C127.607 52.4336 127.533 52.9375 127.558 53.2693C127.57 53.6134 127.718 53.8715 127.988 54.0436C128.258 54.2279 128.738 54.3139 129.414 54.3139L128.123 60.3851H126.526C124.092 60.3851 122.372 60.0287 121.388 59.3405C120.405 58.64 119.914 57.7059 119.914 56.5384C119.914 56.2557 119.938 55.9608 119.987 55.6412C120.037 55.334 120.123 55.0145 120.221 54.7072C120.246 54.6581 120.27 54.572 120.295 54.4737H120.098C119.029 56.5261 117.689 58.0255 116.055 58.9718C114.42 59.9181 112.491 60.3851 110.254 60.3851C108.521 60.3851 107.009 60.0533 105.719 59.3896V59.4019ZM117.628 53.4414C118.648 52.9621 119.422 52.3476 119.926 51.5979C120.43 50.8482 120.688 50.0371 120.688 49.1891C120.688 48.5131 120.479 47.9232 120.049 47.3948C119.619 46.8786 119.004 46.473 118.181 46.1904C117.357 45.9077 116.35 45.7602 115.121 45.7602C113.511 45.7602 112.22 46.0183 111.225 46.5345C110.242 47.0507 109.529 47.6774 109.099 48.4271C108.669 49.1645 108.46 49.9388 108.46 50.7376C108.46 51.77 108.927 52.6057 109.861 53.2324C110.795 53.8592 112.122 54.1665 113.83 54.1665C115.33 54.1665 116.595 53.9207 117.628 53.4414Z" fill="#007BED"/>
<path fill-rule="evenodd" clip-rule="evenodd" d="M12.151 38.0387C8.90264 41.168 7.29213 44.4246 7.29213 47.6764C7.29213 50.9282 8.90264 54.1848 12.151 57.3141C15.4041 60.4479 20.1981 63.346 26.2572 65.8148C38.3673 70.7491 55.2108 73.8388 73.9003 73.8388C92.5897 73.8388 109.433 70.7491 121.543 65.8148C127.602 63.346 132.396 60.4479 135.649 57.3141C138.898 54.1848 140.508 50.9282 140.508 47.6764C140.508 44.4246 138.898 41.168 135.649 38.0387C132.396 34.905 127.602 32.0068 121.543 29.538C109.433 24.6037 92.5897 21.5141 73.9003 21.5141C55.2108 21.5141 38.3673 24.6037 26.2572 29.538C20.1981 32.0068 15.4041 34.905 12.151 38.0387ZM25.0124 26.4829C37.6068 21.3513 54.8921 18.2151 73.9003 18.2151C92.9084 18.2151 110.194 21.3513 122.788 26.4829C129.081 29.0471 134.283 32.1419 137.938 35.6629C141.598 39.1883 143.807 43.2482 143.807 47.6764C143.807 52.1047 141.598 56.1645 137.938 59.69C134.283 63.211 129.081 66.3058 122.788 68.8699C110.194 74.0015 92.9084 77.1377 73.9003 77.1377C54.8921 77.1377 37.6068 74.0015 25.0124 68.8699C18.7194 66.3058 13.5173 63.211 9.86229 59.69C6.20266 56.1645 3.99316 52.1047 3.99316 47.6764C3.99316 43.2482 6.20266 39.1883 9.86229 35.6629C13.5173 32.1419 18.7194 29.0471 25.0124 26.4829Z" fill="#007BED"/>
<path fill-rule="evenodd" clip-rule="evenodd" d="M7.15603 35.9934C3.56047 39.6577 1.64948 43.6047 1.64948 47.6766C1.64948 51.7484 3.56047 55.6954 7.15603 59.3597C10.7552 63.0276 16.0039 66.3686 22.5544 69.1922C35.6528 74.8382 53.8056 78.3506 73.9 78.3506C93.9943 78.3506 112.147 74.8382 125.245 69.1922C131.796 66.3686 137.045 63.0276 140.644 59.3597C144.239 55.6954 146.15 51.7484 146.15 47.6766C146.15 43.6047 144.239 39.6577 140.644 35.9934C137.045 32.3255 131.796 28.9845 125.245 26.1609C112.147 20.5149 93.9943 17.0025 73.9 17.0025C53.8056 17.0025 35.6528 20.5149 22.5544 26.1609C16.0039 28.9845 10.7552 32.3255 7.15603 35.9934ZM21.9015 24.6462C35.2512 18.8919 53.636 15.353 73.9 15.353C94.1639 15.353 112.549 18.8919 125.898 24.6462C132.572 27.5227 138.025 30.9692 141.821 34.8382C145.621 38.7108 147.8 43.0503 147.8 47.6766C147.8 52.3028 145.621 56.6423 141.821 60.5149C138.025 64.3839 132.572 67.8304 125.898 70.7069C112.549 76.4613 94.1639 80.0001 73.9 80.0001C53.636 80.0001 35.2512 76.4613 21.9015 70.7069C15.2281 67.8304 9.77513 64.3839 5.97868 60.5149C2.17863 56.6423 0 52.3028 0 47.6766C0 43.0503 2.17863 38.7108 5.97868 34.8382C9.77513 30.9692 15.2281 27.5227 21.9015 24.6462Z" fill="#007BED"/>
</svg>
