<svg width="60%" height="60%"  fill="none" xmlns="http://www.w3.org/2000/svg">
<path d="M0 0H81.4599L90 9.19708L98.5401 0H180V180H0V0Z" fill="#EF2B00"/>
<path fill-rule="evenodd" clip-rule="evenodd" d="M75.7314 75.7317C66.6389 75.7317 59.268 83.1026 59.268 92.1951C59.268 101.288 66.6389 108.659 75.7314 108.659C81.4579 108.659 86.5015 105.735 89.4509 101.299C92.4004 105.735 97.444 108.659 103.17 108.659C112.263 108.659 119.634 101.288 119.634 92.1951C119.634 83.1026 112.263 75.7317 103.17 75.7317C97.444 75.7317 92.4004 78.6553 89.4509 83.0914C86.5015 78.6553 81.4579 75.7317 75.7314 75.7317Z" fill="white"/>
<circle cx="69.6951" cy="67.5" r="6.03659" fill="black"/>
<circle cx="109.207" cy="67.5" r="6.03659" fill="black"/>
</svg>
