<svg width="103" height="43" viewBox="0 0 103 43" fill="none" xmlns="http://www.w3.org/2000/svg">
<path d="M15.8545 11.8861H21.9333C22.4795 14.4222 22.9633 17.1378 23.3925 20.025C23.8217 22.9122 24.0948 25.4952 24.2041 27.7737H24.3523C25.2887 25.7605 26.467 23.5287 27.8872 21.0785C29.3075 18.6282 30.9149 15.9126 32.7331 12.9474L33.373 11.8861H39.4284L35.7452 29.1549H30.7823L32.6863 20.2357C32.8034 19.5802 32.9282 19.0028 33.0687 18.5189C33.2091 18.0351 33.334 17.6294 33.451 17.2938C33.4823 17.1612 33.5369 17.0363 33.5993 16.9193H33.4276L26.1861 29.1549H21.7616L19.7327 16.9193H19.6079C19.5923 17.0519 19.5767 17.2002 19.5611 17.3641C19.4752 18.121 19.3192 19.0808 19.0929 20.2279L17.1888 29.1471H12.1947L15.8545 11.8783V11.8861Z" fill="white"/>
<path d="M41.4179 28.9443C40.6064 28.5229 39.9743 27.9298 39.5295 27.1495C39.0847 26.377 38.8662 25.4796 38.8662 24.4573C38.8662 23.0059 39.1783 21.6637 39.7948 20.4152C40.4113 19.1745 41.3165 18.1756 42.5104 17.4421C43.7043 16.7008 45.1245 16.3262 46.771 16.3262C47.723 16.3262 48.5736 16.5213 49.3149 16.9193C50.0562 17.3173 50.6337 17.8869 51.055 18.636C51.4764 19.3851 51.6871 20.2825 51.6871 21.3204H51.812C51.9134 20.6415 52.0071 19.9626 52.1085 19.2681C52.2099 18.6594 52.3426 17.8167 52.5065 16.7476H57.0012L55.5186 23.6926L55.4171 24.0906C55.3157 24.5198 55.2767 24.8397 55.2845 25.0504C55.2845 25.2689 55.3859 25.4327 55.5576 25.542C55.7293 25.659 56.0336 25.7137 56.4628 25.7137L55.6512 29.5685H54.6368C53.0839 29.5685 51.9993 29.3422 51.375 28.9052C50.7507 28.4604 50.4386 27.8674 50.4386 27.1261C50.4386 26.9466 50.4542 26.7593 50.4854 26.5564C50.5166 26.3613 50.5712 26.1585 50.6337 25.9634C50.6493 25.9322 50.6649 25.8775 50.6805 25.8151H50.5556C49.8767 27.1183 49.0262 28.0703 47.9883 28.6711C46.9505 29.272 45.7254 29.5685 44.3051 29.5685C43.2049 29.5685 42.2451 29.3578 41.4257 28.9365L41.4179 28.9443ZM48.9794 25.1596C49.627 24.8553 50.1186 24.4651 50.4386 23.9891C50.7585 23.5131 50.9224 22.9981 50.9224 22.4597C50.9224 22.0305 50.7897 21.6559 50.5166 21.3204C50.2435 20.9926 49.8455 20.7351 49.3305 20.5557C48.8155 20.3762 48.1678 20.2825 47.3875 20.2825C46.3652 20.2825 45.5381 20.4464 44.9138 20.7741C44.2895 21.1019 43.8369 21.4999 43.5638 21.9759C43.2907 22.4519 43.1581 22.9357 43.1581 23.4429C43.1581 24.0984 43.4546 24.629 44.0476 25.027C44.6407 25.4249 45.4835 25.62 46.5681 25.62C47.5201 25.62 48.3239 25.464 48.9794 25.1596Z" fill="white"/>
<path d="M59.0228 20.8678C59.0228 20.5947 58.9447 20.4074 58.7887 20.3137C58.6326 20.2201 58.3283 20.1655 57.8835 20.1655L58.695 16.3106C60.3883 16.3106 61.6135 16.4823 62.3626 16.8178C63.1117 17.1534 63.5331 17.6684 63.6267 18.3629C63.7204 19.0574 63.5721 20.0094 63.1975 21.2267L63.1507 21.3516L62.6045 23.1776H62.7528C63.3614 21.5935 64.0403 20.2903 64.7816 19.2603C65.5229 18.2302 66.2955 17.4889 67.0914 17.0207C67.8874 16.5603 68.6911 16.3262 69.5027 16.3262C70.8839 16.3262 71.8437 16.7086 72.3665 17.4733C72.8893 18.238 73.0532 19.2291 72.8347 20.4386C72.624 21.6481 72.1246 22.9044 71.3521 24.2076L68.4336 24.0125C68.8316 23.2868 69.0423 22.6781 69.0657 22.1709C69.0891 21.6715 68.9486 21.297 68.6365 21.0472C68.3244 20.7975 67.8483 20.6805 67.2007 20.6805C66.475 20.6805 65.7961 20.9068 65.1484 21.3438C64.5085 21.7886 63.9779 22.3504 63.5565 23.0371C63.1351 23.7238 62.8464 24.4261 62.6825 25.1518L61.8164 29.1549H57.345L58.8043 22.3114C58.9525 21.6169 59.0306 21.1409 59.0306 20.8678H59.0228Z" fill="white"/>
<path d="M75.2927 28.9443C74.4812 28.5229 73.8491 27.9298 73.4043 27.1495C72.9595 26.377 72.741 25.4796 72.741 24.4573C72.741 23.0059 73.0532 21.6637 73.6696 20.4152C74.2861 19.1745 75.1913 18.1756 76.3852 17.4421C77.5791 16.7008 78.9993 16.3262 80.6458 16.3262C81.5978 16.3262 82.4484 16.5213 83.1897 16.9193C83.931 17.3173 84.5085 17.8869 84.9299 18.636C85.3513 19.3851 85.5619 20.2825 85.5619 21.3204H85.6868C85.7882 20.6415 85.8819 19.9626 85.9833 19.2681C86.0848 18.6594 86.2174 17.8167 86.3813 16.7476H90.876L89.3934 23.6926L89.2919 24.0906C89.1905 24.5198 89.1515 24.8397 89.1593 25.0504C89.1593 25.2689 89.2607 25.4327 89.4324 25.542C89.6041 25.659 89.9084 25.7137 90.3376 25.7137L89.526 29.5685H88.5116C86.9587 29.5685 85.8741 29.3422 85.2498 28.9052C84.6255 28.4604 84.3134 27.8674 84.3134 27.1261C84.3134 26.9466 84.329 26.7593 84.3602 26.5564C84.3914 26.3613 84.4461 26.1585 84.5085 25.9634C84.5241 25.9322 84.5397 25.8775 84.5553 25.8151H84.4305C83.7516 27.1183 82.901 28.0703 81.8632 28.6711C80.8253 29.272 79.6002 29.5685 78.18 29.5685C77.0797 29.5685 76.1199 29.3578 75.3005 28.9365L75.2927 28.9443ZM82.8542 25.1596C83.5019 24.8553 83.9935 24.4651 84.3134 23.9891C84.6333 23.5131 84.7972 22.9981 84.7972 22.4597C84.7972 22.0305 84.6646 21.6559 84.3914 21.3204C84.1183 20.9926 83.7204 20.7351 83.2053 20.5557C82.6903 20.3762 82.0426 20.2825 81.2623 20.2825C80.2401 20.2825 79.4129 20.4464 78.7886 20.7741C78.1644 21.1019 77.7118 21.4999 77.4387 21.9759C77.1655 22.4519 77.0329 22.9357 77.0329 23.4429C77.0329 24.0984 77.3294 24.629 77.9225 25.027C78.5155 25.4249 79.3583 25.62 80.4429 25.62C81.3949 25.62 82.1987 25.464 82.8542 25.1596Z" fill="white"/>
<path d="M51.4999 39.159C77.4355 39.159 98.4605 31.2528 98.4605 21.5001C98.4605 11.7473 77.4355 3.84106 51.4999 3.84106C25.5643 3.84106 4.53931 11.7473 4.53931 21.5001C4.53931 31.2528 25.5643 39.159 51.4999 39.159Z" stroke="white" stroke-width="0.5" stroke-miterlimit="10"/>
<path d="M51.5 41.5C79.2629 41.5 101.769 32.5457 101.769 21.5C101.769 10.4543 79.2629 1.5 51.5 1.5C23.7371 1.5 1.23077 10.4543 1.23077 21.5C1.23077 32.5457 23.7371 41.5 51.5 41.5Z" stroke="white" stroke-width="1.5" stroke-miterlimit="10"/>
</svg>
