<svg width="103" height="42" viewBox="0 0 103 42" fill="none" xmlns="http://www.w3.org/2000/svg">
<path d="M15.6237 11.3861H21.7025C22.2487 13.9222 22.7326 16.6378 23.1617 19.525C23.5909 22.4122 23.864 24.9952 23.9733 27.2737H24.1216C25.058 25.2605 26.2363 23.0287 27.6565 20.5785C29.0767 18.1282 30.6842 15.4126 32.5024 12.4474L33.1422 11.3861H39.1976L35.5145 28.6549H30.5515L32.4555 19.7357C32.5726 19.0802 32.6974 18.5028 32.8379 18.0189C32.9784 17.5351 33.1032 17.1294 33.2203 16.7938C33.2515 16.6612 33.3061 16.5363 33.3685 16.4193H33.1969L25.9553 28.6549H21.5308L19.502 16.4193H19.3771C19.3615 16.5519 19.3459 16.7002 19.3303 16.8641C19.2445 17.621 19.0884 18.5808 18.8621 19.7279L16.9581 28.6471H11.9639L15.6237 11.3783V11.3861Z" fill="#EF2B00"/>
<path d="M41.1871 28.4443C40.3756 28.0229 39.7435 27.4298 39.2987 26.6495C38.8539 25.877 38.6354 24.9796 38.6354 23.9573C38.6354 22.5059 38.9476 21.1637 39.564 19.9152C40.1805 18.6745 41.0857 17.6756 42.2796 16.9421C43.4735 16.2008 44.8937 15.8262 46.5402 15.8262C47.4922 15.8262 48.3428 16.0213 49.0841 16.4193C49.8254 16.8173 50.4029 17.3869 50.8243 18.136C51.2457 18.8851 51.4564 19.7825 51.4564 20.8204H51.5812C51.6826 20.1415 51.7763 19.4626 51.8777 18.7681C51.9792 18.1594 52.1118 17.3167 52.2757 16.2476H56.7704L55.2878 23.1926L55.1864 23.5906C55.0849 24.0198 55.0459 24.3397 55.0537 24.5504C55.0537 24.7689 55.1551 24.9327 55.3268 25.042C55.4985 25.159 55.8028 25.2137 56.232 25.2137L55.4205 29.0685H54.406C52.8532 29.0685 51.7685 28.8422 51.1442 28.4052C50.5199 27.9604 50.2078 27.3674 50.2078 26.6261C50.2078 26.4466 50.2234 26.2593 50.2546 26.0564C50.2858 25.8613 50.3405 25.6585 50.4029 25.4634C50.4185 25.4322 50.4341 25.3775 50.4497 25.3151H50.3249C49.646 26.6183 48.7954 27.5703 47.7576 28.1711C46.7197 28.772 45.4946 29.0685 44.0744 29.0685C42.9741 29.0685 42.0143 28.8578 41.1949 28.4365L41.1871 28.4443ZM48.7486 24.6596C49.3963 24.3553 49.8879 23.9651 50.2078 23.4891C50.5277 23.0131 50.6916 22.4981 50.6916 21.9597C50.6916 21.5305 50.559 21.1559 50.2858 20.8204C50.0127 20.4926 49.6148 20.2351 49.0997 20.0557C48.5847 19.8762 47.937 19.7825 47.1567 19.7825C46.1345 19.7825 45.3073 19.9464 44.683 20.2741C44.0588 20.6019 43.6062 20.9999 43.3331 21.4759C43.0599 21.9519 42.9273 22.4357 42.9273 22.9429C42.9273 23.5984 43.2238 24.129 43.8169 24.527C44.4099 24.9249 45.2527 25.12 46.3373 25.12C47.2894 25.12 48.0931 24.964 48.7486 24.6596Z" fill="#EF2B00"/>
<path d="M58.792 20.3678C58.792 20.0947 58.7139 19.9074 58.5579 19.8137C58.4018 19.7201 58.0975 19.6655 57.6527 19.6655L58.4642 15.8106C60.1576 15.8106 61.3827 15.9823 62.1318 16.3178C62.8809 16.6534 63.3023 17.1684 63.396 17.8629C63.4896 18.5574 63.3413 19.5094 62.9668 20.7267L62.92 20.8516L62.3737 22.6776H62.522C63.1306 21.0935 63.8095 19.7903 64.5509 18.7603C65.2922 17.7302 66.0647 16.9889 66.8606 16.5207C67.6566 16.0603 68.4603 15.8262 69.2719 15.8262C70.6531 15.8262 71.6129 16.2086 72.1357 16.9733C72.6585 17.738 72.8224 18.7291 72.6039 19.9386C72.3932 21.1481 71.8938 22.4044 71.1213 23.7076L68.2028 23.5125C68.6008 22.7868 68.8115 22.1781 68.8349 21.6709C68.8583 21.1715 68.7178 20.797 68.4057 20.5472C68.0936 20.2975 67.6176 20.1805 66.9699 20.1805C66.2442 20.1805 65.5653 20.4068 64.9176 20.8438C64.2777 21.2886 63.7471 21.8504 63.3257 22.5371C62.9043 23.2238 62.6156 23.9261 62.4517 24.6518L61.5856 28.6549H57.1143L58.5735 21.8114C58.7217 21.1169 58.7998 20.6409 58.7998 20.3678H58.792Z" fill="#EF2B00"/>
<path d="M75.062 28.4443C74.2504 28.0229 73.6183 27.4298 73.1735 26.6495C72.7288 25.877 72.5103 24.9796 72.5103 23.9573C72.5103 22.5059 72.8224 21.1637 73.4389 19.9152C74.0553 18.6745 74.9605 17.6756 76.1544 16.9421C77.3483 16.2008 78.7685 15.8262 80.4151 15.8262C81.3671 15.8262 82.2176 16.0213 82.9589 16.4193C83.7003 16.8173 84.2777 17.3869 84.6991 18.136C85.1205 18.8851 85.3312 19.7825 85.3312 20.8204H85.456C85.5575 20.1415 85.6511 19.4626 85.7525 18.7681C85.854 18.1594 85.9866 17.3167 86.1505 16.2476H90.6453L89.1626 23.1926L89.0612 23.5906C88.9597 24.0198 88.9207 24.3397 88.9285 24.5504C88.9285 24.7689 89.03 24.9327 89.2016 25.042C89.3733 25.159 89.6776 25.2137 90.1068 25.2137L89.2953 29.0685H88.2808C86.728 29.0685 85.6433 28.8422 85.019 28.4052C84.3948 27.9604 84.0826 27.3674 84.0826 26.6261C84.0826 26.4466 84.0982 26.2593 84.1294 26.0564C84.1607 25.8613 84.2153 25.6585 84.2777 25.4634C84.2933 25.4322 84.3089 25.3775 84.3245 25.3151H84.1997C83.5208 26.6183 82.6702 27.5703 81.6324 28.1711C80.5945 28.772 79.3694 29.0685 77.9492 29.0685C76.8489 29.0685 75.8891 28.8578 75.0698 28.4365L75.062 28.4443ZM82.6234 24.6596C83.2711 24.3553 83.7627 23.9651 84.0826 23.4891C84.4026 23.0131 84.5664 22.4981 84.5664 21.9597C84.5664 21.5305 84.4338 21.1559 84.1607 20.8204C83.8875 20.4926 83.4896 20.2351 82.9746 20.0557C82.4595 19.8762 81.8119 19.7825 81.0315 19.7825C80.0093 19.7825 79.1821 19.9464 78.5579 20.2741C77.9336 20.6019 77.481 20.9999 77.2079 21.4759C76.9348 21.9519 76.8021 22.4357 76.8021 22.9429C76.8021 23.5984 77.0986 24.129 77.6917 24.527C78.2847 24.9249 79.1275 25.12 80.2122 25.12C81.1642 25.12 81.9679 24.964 82.6234 24.6596Z" fill="#EF2B00"/>
<path d="M51.2691 38.659C77.2047 38.659 98.2297 30.7528 98.2297 21.0001C98.2297 11.2473 77.2047 3.34106 51.2691 3.34106C25.3335 3.34106 4.30853 11.2473 4.30853 21.0001C4.30853 30.7528 25.3335 38.659 51.2691 38.659Z" stroke="#EF2B00" stroke-width="0.5" stroke-miterlimit="10"/>
<path d="M51.2692 41C79.0321 41 101.538 32.0457 101.538 21C101.538 9.95431 79.0321 1 51.2692 1C23.5063 1 1 9.95431 1 21C1 32.0457 23.5063 41 51.2692 41Z" stroke="#EF2B00" stroke-width="1.5" stroke-miterlimit="10"/>
</svg>
