<svg width="81" height="18" viewBox="0 0 81 18" fill="none" xmlns="http://www.w3.org/2000/svg">
<path d="M3.72386 0.00793867H9.90912C10.4649 2.58844 10.9572 5.35156 11.3939 8.28936C11.8306 11.2272 12.1085 13.8553 12.2197 16.1738H12.3705C13.3233 14.1253 14.5223 11.8544 15.9673 9.36126C17.4124 6.8681 19.0481 4.10498 20.8981 1.08778L21.5492 0.00793867H27.7106L23.9629 17.5792H18.9131L20.8504 8.50374C20.9695 7.83678 21.0966 7.24922 21.2395 6.75694C21.3824 6.26466 21.5095 5.85178 21.6286 5.51036C21.6603 5.37538 21.7159 5.24834 21.7794 5.12924H21.6047L14.2364 17.5792H9.73444L7.67004 5.12924H7.543C7.52712 5.26422 7.51124 5.41508 7.49536 5.58182C7.40802 6.352 7.24922 7.32862 7.01896 8.4958L5.0816 17.5712H0L3.72386 0V0.00793867Z" fill="white"/>
<path d="M29.7331 17.3649C28.9073 16.9361 28.2642 16.3327 27.8116 15.5387C27.359 14.7526 27.1367 13.8395 27.1367 12.7994C27.1367 11.3225 27.4543 9.95684 28.0816 8.68644C28.7088 7.42398 29.6299 6.40766 30.8447 5.6613C32.0595 4.907 33.5046 4.52588 35.1799 4.52588C36.1486 4.52588 37.0141 4.72438 37.7684 5.12932C38.5227 5.53426 39.1102 6.11388 39.539 6.87612C39.9678 7.63836 40.1821 8.55146 40.1821 9.60748H40.3092C40.4124 8.9167 40.5077 8.22592 40.6109 7.51926C40.7141 6.89994 40.8491 6.04242 41.0158 4.95464H45.5893L44.0807 12.0212L43.9775 12.4262C43.8742 12.8629 43.8345 13.1884 43.8425 13.4028C43.8425 13.6251 43.9457 13.7919 44.1204 13.903C44.2951 14.0221 44.6047 14.0777 45.0414 14.0777L44.2157 18.0001H43.1835C41.6034 18.0001 40.4997 17.7698 39.8645 17.3252C39.2293 16.8726 38.9117 16.2691 38.9117 15.5148C38.9117 15.3322 38.9276 15.1417 38.9594 14.9352C38.9911 14.7367 39.0467 14.5303 39.1102 14.3318C39.1261 14.3 39.142 14.2444 39.1579 14.1809H39.0308C38.3401 15.5069 37.4746 16.4756 36.4186 17.087C35.3626 17.6983 34.116 18.0001 32.6709 18.0001C31.5514 18.0001 30.5747 17.7857 29.741 17.3569L29.7331 17.3649ZM37.427 13.514C38.086 13.2043 38.5862 12.8073 38.9117 12.323C39.2373 11.8386 39.404 11.3146 39.404 10.7667C39.404 10.33 39.269 9.9489 38.9911 9.60748C38.7132 9.274 38.3083 9.01198 37.7843 8.82936C37.2602 8.64674 36.6012 8.55146 35.8072 8.55146C34.7671 8.55146 33.9254 8.7182 33.2902 9.05168C32.655 9.38516 32.1945 9.7901 31.9166 10.2744C31.6387 10.7588 31.5037 11.2511 31.5037 11.7672C31.5037 12.4341 31.8054 12.974 32.4089 13.379C33.0123 13.7839 33.8698 13.9824 34.9735 13.9824C35.9422 13.9824 36.76 13.8236 37.427 13.514Z" fill="white"/>
<path d="M47.6485 9.14685C47.6485 8.86895 47.5691 8.67839 47.4103 8.58311C47.2515 8.48783 46.9418 8.43225 46.4893 8.43225L47.315 4.50989C49.038 4.50989 50.2846 4.68457 51.0468 5.02599C51.8091 5.36741 52.2378 5.89145 52.3331 6.59811C52.4284 7.30477 52.2775 8.27345 51.8964 9.51209L51.8488 9.63913L51.293 11.4971H51.4438C52.0631 9.88527 52.7539 8.55929 53.5082 7.51121C54.2625 6.46313 55.0486 5.70883 55.8585 5.23243C56.6683 4.76397 57.4862 4.52577 58.3119 4.52577C59.7173 4.52577 60.6939 4.91483 61.2259 5.69295C61.7579 6.47107 61.9246 7.47945 61.7023 8.71015C61.4879 9.94085 60.9798 11.2192 60.1937 12.5452L57.2241 12.3467C57.6291 11.6082 57.8435 10.9889 57.8673 10.4728C57.8911 9.96467 57.7482 9.58355 57.4306 9.32947C57.113 9.07539 56.6286 8.95629 55.9696 8.95629C55.2312 8.95629 54.5404 9.18655 53.8814 9.63119C53.2303 10.0838 52.6904 10.6554 52.2616 11.3542C51.8329 12.0529 51.5391 12.7675 51.3724 13.5059L50.491 17.5791H45.9414L47.4262 10.6157C47.577 9.90909 47.6564 9.42475 47.6564 9.14685H47.6485Z" fill="white"/>
<path d="M64.2058 17.3649C63.38 16.9361 62.7369 16.3327 62.2843 15.5387C61.8317 14.7526 61.6094 13.8395 61.6094 12.7994C61.6094 11.3225 61.927 9.95684 62.5542 8.68644C63.1815 7.42398 64.1025 6.40766 65.3174 5.6613C66.5322 4.907 67.9773 4.52588 69.6526 4.52588C70.6213 4.52588 71.4867 4.72438 72.241 5.12932C72.9953 5.53426 73.5829 6.11388 74.0117 6.87612C74.4404 7.63836 74.6548 8.55146 74.6548 9.60748H74.7818C74.8851 8.9167 74.9803 8.22592 75.0836 7.51926C75.1868 6.89994 75.3218 6.04242 75.4885 4.95464H80.0619L78.5533 12.0212L78.4501 12.4262C78.3469 12.8629 78.3072 13.1884 78.3151 13.4028C78.3151 13.6251 78.4183 13.7919 78.593 13.903C78.7677 14.0221 79.0774 14.0777 79.5141 14.0777L78.6883 18.0001H77.6561C76.076 18.0001 74.9724 17.7698 74.3372 17.3252C73.702 16.8726 73.3844 16.2691 73.3844 15.5148C73.3844 15.3322 73.4003 15.1417 73.432 14.9352C73.4638 14.7367 73.5194 14.5303 73.5829 14.3318C73.5988 14.3 73.6147 14.2444 73.6305 14.1809H73.5035C72.8127 15.5069 71.9473 16.4756 70.8912 17.087C69.8352 17.6983 68.5886 18.0001 67.1436 18.0001C66.024 18.0001 65.0474 17.7857 64.2137 17.3569L64.2058 17.3649ZM71.8996 13.514C72.5586 13.2043 73.0589 12.8073 73.3844 12.323C73.7099 11.8386 73.8767 11.3146 73.8767 10.7667C73.8767 10.33 73.7417 9.9489 73.4638 9.60748C73.1859 9.274 72.781 9.01198 72.2569 8.82936C71.7329 8.64674 71.0739 8.55146 70.2799 8.55146C69.2397 8.55146 68.3981 8.7182 67.7629 9.05168C67.1277 9.38516 66.6672 9.7901 66.3893 10.2744C66.1114 10.7588 65.9764 11.2511 65.9764 11.7672C65.9764 12.4341 66.2781 12.974 66.8815 13.379C67.485 13.7839 68.3425 13.9824 69.4462 13.9824C70.4148 13.9824 71.2327 13.8236 71.8996 13.514Z" fill="white"/>
</svg>
