<svg width="157" height="84" viewBox="0 0 157 84" fill="none" xmlns="http://www.w3.org/2000/svg">
<path d="M19.3989 35.3312H29.4233C30.324 39.5134 31.1219 43.9916 31.8296 48.7528C32.5374 53.5141 32.9878 57.7735 33.1679 61.531H33.4124C34.9566 58.211 36.8997 54.5307 39.2418 50.4901C41.5838 46.4494 44.2347 41.9713 47.233 37.0813L48.2882 35.3312H58.2739L52.2001 63.8087H44.0159L47.1558 49.1003C47.3488 48.0194 47.5547 47.0671 47.7863 46.2693C48.0179 45.4714 48.2238 44.8023 48.4168 44.2489C48.4683 44.0302 48.5584 43.8243 48.6613 43.6313H48.3782L36.4365 63.8087H29.1402L25.7944 43.6313H25.5885C25.5628 43.85 25.537 44.0945 25.5113 44.3648C25.3698 45.613 25.1124 47.1958 24.7392 49.0874L21.5993 63.7959H13.3636L19.3989 35.3184V35.3312Z" fill="#EF2B00"/>
<path d="M61.5539 63.4613C60.2156 62.7664 59.1732 61.7885 58.4397 60.5016C57.7063 59.2277 57.3459 57.7478 57.3459 56.0621C57.3459 53.6686 57.8607 51.4552 58.8773 49.3963C59.8939 47.3502 61.3866 45.7031 63.3554 44.4935C65.3243 43.271 67.6663 42.6533 70.3815 42.6533C71.9514 42.6533 73.3541 42.975 74.5766 43.6313C75.7991 44.2876 76.7513 45.227 77.4462 46.4623C78.1411 47.6977 78.4885 49.1775 78.4885 50.889H78.6944C78.8617 49.7695 79.0161 48.6499 79.1834 47.5047C79.3507 46.5009 79.5695 45.1112 79.8397 43.3482H87.2518L84.8069 54.801L84.6396 55.4573C84.4723 56.165 84.4079 56.6926 84.4208 57.0401C84.4208 57.4004 84.5881 57.6706 84.8712 57.8508C85.1543 58.0438 85.6562 58.1339 86.3639 58.1339L85.0256 64.4908H83.3527C80.792 64.4908 79.0033 64.1176 77.9738 63.397C76.9443 62.6635 76.4296 61.6855 76.4296 60.463C76.4296 60.1671 76.4553 59.8582 76.5068 59.5236C76.5583 59.2019 76.6484 58.8674 76.7513 58.5456C76.7771 58.4942 76.8028 58.4041 76.8285 58.3012H76.6226C75.5031 60.4502 74.1005 62.0201 72.389 63.0109C70.6775 64.0018 68.6572 64.4908 66.3151 64.4908C64.5007 64.4908 62.9179 64.1434 61.5667 63.4485L61.5539 63.4613ZM74.0232 57.2202C75.0913 56.7184 75.902 56.0749 76.4296 55.29C76.9572 54.505 77.2274 53.6557 77.2274 52.7678C77.2274 52.06 77.0087 51.4424 76.5583 50.889C76.1079 50.3486 75.4516 49.9239 74.6023 49.6279C73.753 49.332 72.6849 49.1775 71.3981 49.1775C69.7124 49.1775 68.3483 49.4478 67.3189 49.9882C66.2894 50.5287 65.543 51.185 65.0927 51.97C64.6423 52.7549 64.4235 53.5528 64.4235 54.3892C64.4235 55.4701 64.9125 56.3452 65.8905 57.0015C66.8685 57.6577 68.2582 57.9794 70.0469 57.9794C71.6169 57.9794 72.9423 57.7221 74.0232 57.2202Z" fill="#EF2B00"/>
<path d="M90.5848 50.142C90.5848 49.6916 90.4561 49.3828 90.1987 49.2284C89.9414 49.074 89.4395 48.9839 88.706 48.9839L90.0443 42.627C92.8367 42.627 94.8571 42.9101 96.0924 43.4634C97.3278 44.0167 98.0227 44.866 98.1771 46.0113C98.3315 47.1566 98.087 48.7265 97.4693 50.734L97.3921 50.9399L96.4913 53.951H96.7358C97.7396 51.3388 98.8591 49.1898 100.082 47.4912C101.304 45.7926 102.578 44.5701 103.891 43.798C105.203 43.0387 106.529 42.6527 107.867 42.6527C110.145 42.6527 111.727 43.2832 112.59 44.5443C113.452 45.8054 113.722 47.4397 113.362 49.4343C113.014 51.4289 112.191 53.5006 110.917 55.6497L106.104 55.3279C106.76 54.1312 107.108 53.1275 107.146 52.291C107.185 51.4675 106.953 50.8498 106.439 50.438C105.924 50.0262 105.139 49.8332 104.071 49.8332C102.874 49.8332 101.754 50.2064 100.686 50.927C99.6312 51.6605 98.7562 52.587 98.0613 53.7194C97.3664 54.8518 96.8902 56.01 96.62 57.2067L95.1916 63.8081H87.8181L90.2245 52.5227C90.469 51.3774 90.5977 50.5924 90.5977 50.142H90.5848Z" fill="#EF2B00"/>
<path d="M117.416 63.4613C116.078 62.7664 115.036 61.7885 114.302 60.5016C113.569 59.2277 113.208 57.7478 113.208 56.0621C113.208 53.6686 113.723 51.4552 114.74 49.3963C115.756 47.3502 117.249 45.7031 119.218 44.4935C121.187 43.271 123.529 42.6533 126.244 42.6533C127.814 42.6533 129.216 42.975 130.439 43.6313C131.661 44.2876 132.614 45.227 133.309 46.4623C134.003 47.6977 134.351 49.1775 134.351 50.889H134.557C134.724 49.7695 134.878 48.6499 135.046 47.5047C135.213 46.5009 135.432 45.1112 135.702 43.3482H143.114L140.669 54.801L140.502 55.4573C140.335 56.165 140.27 56.6926 140.283 57.0401C140.283 57.4004 140.45 57.6706 140.734 57.8508C141.017 58.0438 141.518 58.1339 142.226 58.1339L140.888 64.4908H139.215C136.654 64.4908 134.866 64.1176 133.836 63.397C132.807 62.6635 132.292 61.6855 132.292 60.463C132.292 60.1671 132.318 59.8582 132.369 59.5236C132.421 59.2019 132.511 58.8674 132.614 58.5456C132.639 58.4942 132.665 58.4041 132.691 58.3012H132.485C131.365 60.4502 129.963 62.0201 128.251 63.0109C126.54 64.0018 124.519 64.4908 122.177 64.4908C120.363 64.4908 118.78 64.1434 117.429 63.4485L117.416 63.4613ZM129.886 57.2202C130.954 56.7184 131.764 56.0749 132.292 55.29C132.82 54.505 133.09 53.6557 133.09 52.7678C133.09 52.06 132.871 51.4424 132.421 50.889C131.97 50.3486 131.314 49.9239 130.465 49.6279C129.615 49.332 128.547 49.1775 127.26 49.1775C125.575 49.1775 124.211 49.4478 123.181 49.9882C122.152 50.5287 121.405 51.185 120.955 51.97C120.505 52.7549 120.286 53.5528 120.286 54.3892C120.286 55.4701 120.775 56.3452 121.753 57.0015C122.731 57.6577 124.121 57.9794 125.909 57.9794C127.479 57.9794 128.805 57.7221 129.886 57.2202Z" fill="#EF2B00"/>
<path d="M128.981 9.23945V4.53979C128.981 3.04227 128.981 1.57662 128.981 0.0791016H132.47V2.97855C132.47 2.99448 132.47 2.99448 132.486 2.99448H133.267C133.282 2.99448 133.282 2.99448 133.282 2.97855V0.0791016H137.504V2.51655C137.504 3.90255 137.504 5.27262 137.504 6.64269V9.71738H133.282V6.84979C133.282 6.83386 133.282 6.83386 133.267 6.83386H132.486C132.47 6.83386 132.47 6.83386 132.47 6.84979V9.23945H128.981ZM118.387 8.60221V6.46745C118.387 5.6231 118.387 4.79469 118.387 3.96627L121.032 3.29717C121.111 3.28124 121.143 3.24938 121.143 3.20158H118.387V0.318068H123.278V3.20158H122.242V6.30814C122.242 6.32407 122.242 6.32407 122.258 6.32407H123.628L123.326 8.60221H118.387ZM119.98 13.7001V12.2504C119.98 11.5494 119.98 10.8485 119.98 10.1475V9.08014H126.209V9.71738C126.209 9.90855 126.209 10.1316 126.209 10.3228C126.209 10.3387 126.209 10.3387 126.225 10.3387H137.902L137.568 13.7001H119.98ZM123.66 8.60221V6.32407C123.66 5.35227 123.66 4.30083 123.66 3.34496V0.318068H128.392L128.36 3.20158H127.069C127.053 3.20158 127.053 3.20159 127.053 3.21752V6.30814C127.053 6.32407 127.053 6.32407 127.069 6.32407H128.822L128.631 8.60221H123.66Z" fill="#EF2B00"/>
<path d="M104.766 7.91772C103.81 7.91772 102.934 7.83807 102.153 7.69469C101.851 7.6469 101.564 7.56724 101.309 7.48759C99.8275 7.00966 99.015 6.16531 99.015 5.09793C99.015 4.8271 99.1106 4.52441 99.2062 4.38103C99.2221 4.3651 99.2221 4.3651 99.2062 4.3651H98.2344V2.80386H110.74V4.3651H106.327L110.501 4.77931C110.517 4.89083 110.517 5.00235 110.517 5.09793C110.517 6.02193 109.912 6.73883 108.94 7.20083C107.905 7.67876 106.423 7.91772 104.766 7.91772ZM99.3655 2.34186V0H110.167L109.593 2.34186H101.771C100.959 2.34186 100.162 2.34186 99.3655 2.34186ZM99.6682 13.7803V11.6615C99.6682 11.1517 99.6682 10.6419 99.6682 10.1321H111.075V9.97283C111.075 9.89317 111.075 9.79759 111.075 9.702C111.075 9.68607 111.075 9.68607 111.059 9.68607H99.6682V8.28414H116.714V8.84172V10.1481C116.714 10.387 116.714 10.6101 116.714 10.849H105.308C105.292 10.849 105.292 10.849 105.292 10.865V11.0721C105.292 11.1517 105.292 11.1995 105.292 11.2792C105.292 11.2951 105.292 11.2951 105.308 11.2951H111.792H117.192L116.698 13.7803H99.6682ZM103.587 4.8749C103.587 5.16165 103.731 5.3369 103.97 5.48028C104.177 5.57586 104.432 5.63959 104.75 5.63959C105.451 5.63959 105.929 5.41655 105.929 4.8749C105.929 4.63593 105.786 4.47662 105.531 4.3651H103.985C103.81 4.44476 103.587 4.62 103.587 4.8749ZM111.218 7.80621V5.55993C111.218 5.06607 111.218 4.55628 111.218 4.06241V0.0796551H116.714V1.97545H117.83V6.85035H116.714V7.80621H111.218Z" fill="#EF2B00"/>
<path d="M78.8939 13.0629C79.0055 12.0752 79.1329 11.0874 79.2444 10.0838L79.6268 6.96131C79.7064 6.24441 79.7861 5.49566 79.8817 4.77876C79.8817 4.76283 79.8817 4.76283 79.8657 4.76283H78.4797V0.397723H84.9159L84.4857 5.43193C84.2627 7.9809 84.0556 10.5299 83.8326 13.0629H78.8939ZM84.8681 4.76283L85.2345 0.397723H91.0493L90.6192 7.08876C90.4917 9.08014 90.3643 11.0556 90.2368 13.0629H85.123C85.2026 12.1708 85.2823 11.2786 85.346 10.3865C85.4735 9.17572 85.585 7.9809 85.6806 6.78607C85.7443 6.11696 85.7921 5.44786 85.8558 4.77876C85.8558 4.76283 85.8558 4.76283 85.8399 4.76283H84.8681ZM91.4635 13.7798V9.87669C91.4635 8.96862 91.4635 8.06055 91.4635 7.13655V0.0791016H96.8004V3.93441H97.9156V9.51028H96.8004V13.7798H91.4635Z" fill="#EF2B00"/>
<path d="M58.8051 7.48758V3.68007C58.8051 2.50117 58.8051 1.35413 58.8051 0.191169H64.1101V2.43744L64.1897 1.91172C64.2375 1.91172 64.2375 1.91172 64.3331 1.78427L65.066 0.191169C66.436 0.0637205 67.4078 0.0159282 68.5389 0.0955833C69.7815 0.191169 70.594 0.828411 70.594 1.73648V5.22538C70.594 5.97413 70.594 6.72289 70.594 7.48758H58.8051ZM59.8406 13.7803V11.5181C59.8406 10.9765 59.8406 10.4508 59.8406 9.9091H71.2791V9.73386C71.2791 9.63827 71.2791 9.54269 71.2791 9.4471C71.2791 9.43117 71.2791 9.43117 71.2631 9.43117H59.8406V7.88586H76.8868V8.49124V9.9091C76.8868 10.164 76.8868 10.4189 76.8868 10.6738H65.4483C65.4324 10.6738 65.4324 10.6738 65.4324 10.6897V10.9128C65.4324 10.9924 65.4324 11.0561 65.4324 11.1358C65.4324 11.1517 65.4324 11.1517 65.4483 11.1517H71.9641H77.3647L76.8708 13.7803H59.8406ZM64.1101 5.35282H65.5917C65.6076 5.35282 65.6076 5.35282 65.6076 5.33689V3.53669C65.6076 3.24993 65.3208 3.12248 64.9385 3.12248C64.604 3.12248 64.4287 3.13841 64.1101 3.17027V4.14207C64.1101 4.55627 64.1101 4.95455 64.1101 5.35282ZM71.3906 7.48758V5.32096C71.3906 4.85896 71.3906 4.3651 71.3906 3.88717V0.0796513H76.8868V1.91172H78.0019V6.75475H76.8868V7.48758H71.3906Z" fill="#EF2B00"/>
<path d="M39.0664 13.0629C39.1779 12.0752 39.3054 11.0874 39.4169 10.0838L39.7993 6.96131C39.8789 6.24441 39.9586 5.49566 40.0542 4.77876C40.0542 4.76283 40.0542 4.76283 40.0382 4.76283H38.6522V0.397723H45.0884L44.6582 5.43193C44.4352 7.9809 44.2281 10.5299 44.0051 13.0629H39.0664ZM45.0406 4.76283L45.407 0.397723H51.2218L50.7917 7.08876C50.6642 9.08014 50.5368 11.0556 50.4093 13.0629H45.2955C45.3751 12.1708 45.4548 11.2786 45.5185 10.3865C45.6459 9.17572 45.7575 7.9809 45.8531 6.78607C45.9168 6.11696 45.9646 5.44786 46.0283 4.77876C46.0283 4.76283 46.0283 4.76283 46.0124 4.76283H45.0406ZM51.636 13.7798V9.87669C51.636 8.96862 51.636 8.06055 51.636 7.13655V0.0791016H56.9729V3.93441H58.0881V9.51028H56.9729V13.7798H51.636Z" fill="#EF2B00"/>
<path d="M18.6427 7.48703L19.8535 3.72731C20.2517 2.51655 20.6341 1.28986 21.0324 0.0791016H27.3251L26.1303 1.24207C25.8117 1.56069 25.509 1.86338 25.1904 2.182H29.7148L30.4795 4.58759C30.7821 5.55938 31.0848 6.51524 31.3875 7.48703H25.8117C25.7479 7.02503 25.7001 6.5471 25.6364 6.0851C25.5727 5.52752 25.493 4.96993 25.4293 4.39641C25.3497 3.85476 25.2859 3.3131 25.2222 2.78738C25.2222 2.77145 25.2222 2.77145 25.2063 2.77145H25.1744C25.1585 2.77145 25.1585 2.77145 25.1585 2.78738L24.8239 5.36821C24.7284 6.0851 24.6328 6.802 24.5372 7.48703H18.6427ZM20.0128 13.7798V11.5176C20.0128 10.9759 20.0128 10.4502 20.0128 9.90855H31.4513V9.73331C31.4513 9.63772 31.4513 9.54214 31.4513 9.44655C31.4513 9.43062 31.4513 9.43062 31.4353 9.43062H20.0128V7.88531H37.059V8.49069V9.90855C37.059 10.1634 37.059 10.4183 37.059 10.6732H25.6205C25.6046 10.6732 25.6046 10.6732 25.6046 10.6892V10.9122C25.6046 10.9919 25.6046 11.0556 25.6046 11.1352C25.6046 11.1512 25.6046 11.1512 25.6205 11.1512H32.1363H37.5369L37.043 13.7798H20.0128ZM31.5628 7.48703V5.32041C31.5628 4.85841 31.5628 4.36455 31.5628 3.88662V0.0791016H37.059V1.91117H38.1741V6.75421H37.059V7.48703H31.5628Z" fill="#EF2B00"/>
<path fill-rule="evenodd" clip-rule="evenodd" d="M155.105 82.5481V17.6799H86.9373L78.75 24.3413L70.6945 17.6799H39.8567H1.4406V82.5481H155.105ZM0 16.2277V84.0004H156.545V16.2277L86.3876 16.2275L78.75 22.4322L71.2603 16.2277H39.1364H0Z" fill="#EF2B00"/>
<path fill-rule="evenodd" clip-rule="evenodd" d="M150.781 78.2279V21.9992H88.3628L78.7499 29.8925L69.2468 21.9992H5.764V78.2279H150.781ZM2.86365 19.0908V81.1363H153.682V19.0908L87.407 19.0908L78.7499 26.0587L70.2026 19.0908H2.86365Z" fill="#EF2B00"/>
</svg>
