<svg width="105" height="57" viewBox="0 0 105 57" fill="none" xmlns="http://www.w3.org/2000/svg">
<path d="M14.4811 9.83983C14.7332 8.94451 14.9766 8.04919 15.2286 7.15387C16.5499 6.63233 17.8885 6.13686 19.2272 5.66747C18.9751 6.00647 18.7143 6.35417 18.4622 6.70187C18.2623 6.98002 18.0624 7.24949 17.8625 7.53634C18.8186 7.18864 19.7835 6.84964 20.757 6.53671C20.9222 7.0061 21.0873 7.47549 21.2438 7.95358C21.435 8.52728 21.635 9.09228 21.8262 9.66599C20.6266 10.0485 19.4358 10.4483 18.2536 10.8742C18.2101 10.5874 18.1841 10.2831 18.1406 9.9963C18.0971 9.6486 18.0537 9.3009 18.0102 8.93582C17.9581 8.59682 17.9146 8.25781 17.8798 7.9275C17.8798 7.91881 17.8798 7.91881 17.8711 7.9275H17.8538C17.8451 7.9275 17.8451 7.9275 17.8451 7.94488C17.7755 8.53597 17.706 9.12705 17.6364 9.70945C17.5756 10.1962 17.5148 10.6917 17.4539 11.1611C16.2022 11.6218 14.9592 12.1086 13.7249 12.6214C13.9769 11.7 14.229 10.7699 14.4898 9.84853L14.4811 9.83983ZM14.5854 14.8988C14.5854 14.5424 14.5854 14.2034 14.5854 13.847C16.9845 12.8735 19.4184 12.0042 21.8697 11.2219V11.1089C21.8697 11.0481 21.8697 10.9872 21.8697 10.9177C21.8697 10.909 21.8697 10.909 21.861 10.9177C19.4097 11.7 16.9845 12.5693 14.5854 13.5428V12.5345C18.1667 11.0915 21.8088 9.85722 25.4944 8.83151V10.1528C25.4944 10.3179 25.4944 10.4831 25.4944 10.6569C23.0171 11.3436 20.5658 12.1259 18.1406 13.0039C18.1319 13.0039 18.1319 13.0039 18.1319 13.0213V13.3168C18.1319 13.3168 18.1319 13.3255 18.1406 13.3168C19.5227 12.8213 20.9135 12.3519 22.313 11.9086C23.4691 11.5436 24.6339 11.2045 25.8073 10.8829C25.703 11.4827 25.59 12.0912 25.4857 12.691C21.8001 13.7167 18.1667 14.9423 14.5854 16.3939V14.9162V14.8988ZM21.9392 8.19696C21.9392 7.89273 21.9392 7.57111 21.9392 7.25818C21.9392 6.42371 21.9392 5.59793 21.9392 4.76345C23.1214 4.38968 24.3035 4.04198 25.4944 3.71167V4.91123C25.7378 4.84169 25.9812 4.78084 26.2159 4.7113C26.2159 5.77178 26.2159 6.82356 26.2159 7.88404C25.9725 7.94488 25.7291 8.01442 25.4944 8.08396V8.56205C24.3035 8.89236 23.1214 9.24006 21.9392 9.61383C21.9392 9.14444 21.9392 8.66636 21.9392 8.19696Z" fill="#EF2B00"/>
<path d="M27.0245 9.83974C27.1114 9.13565 27.1897 8.43157 27.2766 7.73617C27.3288 7.2494 27.3809 6.75393 27.4418 6.26715C27.4418 6.25846 27.4418 6.25846 27.4331 6.26715C27.1288 6.34538 26.8333 6.42361 26.5291 6.50185C26.5291 5.54568 26.5291 4.5982 26.5291 3.64204C27.9198 3.26826 29.328 2.92926 30.7275 2.61633C30.6319 3.73765 30.5363 4.85028 30.4493 5.97161C30.3016 7.67532 30.1712 9.37035 30.0234 11.0654C28.9455 11.3088 27.8677 11.5782 26.7985 11.8564C26.8681 11.1871 26.955 10.5264 27.0245 9.84843V9.83974ZM30.9361 2.56417C32.2052 2.28602 33.483 2.03394 34.7608 1.80793C34.6652 3.28565 34.5696 4.76336 34.4739 6.24107C34.387 7.56232 34.3088 8.86619 34.2219 10.1961C33.1005 10.4047 31.9792 10.6308 30.8579 10.8741C30.91 10.2831 30.9622 9.68328 31.0057 9.09219C31.0926 8.28379 31.1621 7.48409 31.223 6.69308C31.2664 6.24977 31.2925 5.79776 31.336 5.35445C31.336 5.34575 31.336 5.34575 31.3273 5.35445C31.1187 5.39791 30.9013 5.45006 30.6927 5.49352C30.771 4.51997 30.8492 3.55511 30.9361 2.58156V2.56417ZM35.0389 7.96218V1.54716C36.2124 1.33854 37.3859 1.156 38.5681 0.990845V3.51165C38.8115 3.47688 39.0635 3.44211 39.3069 3.40734V7.05816C39.0635 7.09293 38.8115 7.1277 38.5681 7.16247V9.95274C37.3859 10.1179 36.2124 10.3004 35.0389 10.5091V7.96218Z" fill="#EF2B00"/>
<path d="M39.7856 3.18143C39.7856 2.4078 39.7856 1.66025 39.7856 0.89532C40.9591 0.747549 42.1326 0.617163 43.3061 0.504161V1.97318C43.3235 1.86018 43.3408 1.73849 43.3582 1.62548C43.393 1.62548 43.393 1.62548 43.4538 1.52987C43.619 1.16479 43.7755 0.808396 43.9406 0.443314C44.8533 0.278158 45.4966 0.199926 46.2528 0.208618C47.0786 0.217311 47.6262 0.60847 47.6262 1.20825V3.49436C47.6262 3.98113 47.6262 4.4766 47.6262 4.97207C45.0098 5.10246 42.3934 5.33715 39.7856 5.66747V3.17274V3.18143ZM40.4723 8.22304C40.4723 7.86665 40.4723 7.52765 40.4723 7.17126C43.0018 6.86702 45.54 6.64971 48.0869 6.53671V6.42371C48.0869 6.36286 48.0869 6.30201 48.0869 6.23247C48.0869 6.22378 48.0869 6.22378 48.0782 6.22378C45.54 6.33678 43.0018 6.55409 40.481 6.85833C40.481 6.51932 40.481 6.18032 40.481 5.85001C44.2536 5.38931 48.0435 5.14592 51.8334 5.11115V6.4324C51.8334 6.59756 51.8334 6.76271 51.8334 6.93656C49.2865 6.96264 46.7483 7.07564 44.2101 7.29295C44.2014 7.29295 44.2014 7.29295 44.2014 7.30164C44.2014 7.3538 44.2014 7.39726 44.2014 7.44941C44.2014 7.50157 44.2014 7.54503 44.2014 7.59718C44.2014 7.60588 44.2014 7.60588 44.2101 7.60588C45.653 7.48418 47.1047 7.39726 48.5476 7.33641C49.7472 7.28426 50.9467 7.25818 52.155 7.24949C52.042 7.82319 51.9377 8.39689 51.8247 8.97059C48.0348 9.00536 44.2536 9.24875 40.481 9.70945C40.481 9.21398 40.481 8.71851 40.481 8.23173L40.4723 8.22304ZM44.297 3.79859C44.297 3.79859 44.3057 3.79859 44.3057 3.7899C44.3057 3.39874 44.3057 3.00758 44.3057 2.60773C44.3057 2.4165 44.1145 2.35565 43.8624 2.37303C43.6364 2.39042 43.5234 2.4165 43.3148 2.45127V3.08581C43.3148 3.35528 43.3148 3.61605 43.3148 3.87682C43.6451 3.84205 43.9754 3.81598 44.297 3.7899V3.79859ZM48.1565 3.52913C48.1565 3.22489 48.1565 2.90327 48.1565 2.59034V0.0956164C49.3821 0.0434619 50.599 0.00869243 51.8247 0V1.19956C52.0767 1.19956 52.3201 1.19956 52.5722 1.19956V4.37229C52.3201 4.37229 52.0767 4.37229 51.8247 4.37229V4.85038C50.599 4.85907 49.3821 4.89384 48.1565 4.94599V3.52913Z" fill="#EF2B00"/>
<path d="M53.4063 6.5454C53.4932 5.86739 53.5801 5.18069 53.6583 4.50268C53.7105 4.03329 53.7627 3.54651 53.8322 3.07712C53.8322 3.06843 53.8322 3.06843 53.8235 3.06843C53.5193 3.06843 53.2063 3.06843 52.9021 3.06843V0.208618C54.3364 0.208618 55.7619 0.243388 57.1962 0.304235C57.1005 1.39948 57.0049 2.49473 56.9093 3.58997C56.7615 5.25023 56.6225 6.91048 56.4747 8.56205C55.3794 8.51858 54.2755 8.5012 53.1803 8.49251C53.2585 7.84927 53.3367 7.20603 53.415 6.5454H53.4063ZM57.4048 0.312927C58.7 0.373774 59.9864 0.452006 61.2816 0.565008C61.186 2.01664 61.0904 3.46828 60.9948 4.91992C60.9078 6.21509 60.8296 7.50157 60.7427 8.80543C59.604 8.71851 58.4739 8.64897 57.3352 8.59681C57.3874 8.01442 57.4396 7.43203 57.483 6.84964C57.5699 6.05862 57.6395 5.285 57.709 4.50268C57.7525 4.06806 57.7786 3.63344 57.822 3.19012C57.822 3.18143 57.822 3.18143 57.8133 3.18143C57.596 3.17274 57.3787 3.16405 57.1614 3.15535C57.2396 2.20788 57.3265 1.2604 57.4048 0.312927ZM61.5511 6.78879C61.5511 6.1977 61.5511 5.59793 61.5511 4.99815V0.382467C62.7332 0.486776 63.9154 0.60847 65.0976 0.756241C65.0976 1.59941 65.0976 2.43388 65.0976 3.27705C65.341 3.30312 65.5931 3.33789 65.8364 3.37266V7.01479C65.5931 6.98002 65.341 6.95395 65.0976 6.91918C65.0976 7.84927 65.0976 8.77936 65.0976 9.70945C63.9154 9.56168 62.7332 9.43998 61.5511 9.33567V6.78879Z" fill="#EF2B00"/>
<path d="M68.6519 6.2238C68.4519 6.16295 68.2607 6.07603 68.0956 5.99779C67.1133 5.53709 66.5744 4.91124 66.5744 4.21584C66.5744 4.042 66.6352 3.85076 66.7048 3.76384C66.7135 3.75515 66.7135 3.76384 66.7048 3.75515C66.4875 3.72907 66.2788 3.6943 66.0615 3.66822C66.0615 3.32922 66.0615 2.99021 66.0615 2.64251C68.8257 3.0076 71.5812 3.48568 74.3106 4.07677V5.10247C73.3458 4.89385 72.3809 4.70262 71.4074 4.52008C72.3201 4.78085 73.2415 5.05032 74.1542 5.33717C74.1629 5.4154 74.1629 5.48494 74.1629 5.54579C74.1629 6.15426 73.763 6.53672 73.1285 6.70188C72.4505 6.87573 71.4769 6.84096 70.3817 6.64973C69.7471 6.53672 69.1734 6.38895 68.6606 6.2151L68.6519 6.2238ZM66.8091 0.91272C69.1908 1.24303 71.5725 1.66027 73.9369 2.16443C73.8152 2.65121 73.6848 3.12929 73.5631 3.61607C71.8507 3.25968 70.1296 2.94675 68.4085 2.67728C67.8696 2.59036 67.348 2.52082 66.8178 2.44259C66.8178 1.92973 66.8178 1.41688 66.8178 0.91272H66.8091ZM67.009 8.57075C67.009 8.24044 67.009 7.90144 67.009 7.57112C69.5298 7.92751 72.0332 8.37952 74.528 8.91845V8.81414C74.528 8.76199 74.528 8.70114 74.528 8.64029C74.528 8.6316 74.528 8.6316 74.5193 8.6316C72.0332 8.08398 69.5211 7.64066 67.009 7.28427V6.36288C70.7728 6.89311 74.5106 7.63197 78.2135 8.58814C78.2135 8.70983 78.2135 8.83153 78.2135 8.95322C78.2135 9.24007 78.2135 9.52692 78.2135 9.80508C78.2135 9.96154 78.2135 10.1093 78.2135 10.2658C75.7362 9.63123 73.2415 9.08361 70.7381 8.6316C70.7294 8.6316 70.7294 8.6316 70.7294 8.64029C70.7294 8.68375 70.7294 8.72722 70.7294 8.77937C70.7294 8.83153 70.7294 8.8663 70.7294 8.91845C70.7294 8.92714 70.7294 8.92714 70.7381 8.92714C72.1636 9.17922 73.5805 9.46607 74.9973 9.78769C76.1795 10.0485 77.353 10.3353 78.5265 10.6396C78.4222 11.1524 78.3092 11.6653 78.2049 12.1868C74.5106 11.2306 70.7728 10.4918 67.009 9.96154V8.57944V8.57075ZM69.8514 4.97209C69.9905 5.05901 70.1557 5.12855 70.3643 5.16332C70.825 5.24155 71.1379 5.16332 71.1379 4.80693C71.1379 4.65047 71.0423 4.52877 70.8771 4.42446C70.5381 4.36362 70.1991 4.30277 69.8601 4.24192C69.7471 4.27669 69.5993 4.36362 69.5993 4.52877C69.5993 4.72001 69.695 4.85039 69.8514 4.97209ZM74.6236 5.95433C74.6236 5.63271 74.6236 5.29371 74.6236 4.97209V2.36436C75.8231 2.62513 77.0227 2.91198 78.2135 3.22491C78.2135 3.64214 78.2135 4.05069 78.2135 4.46792C78.4569 4.52877 78.7003 4.58962 78.9437 4.65916C78.9437 5.71964 78.9437 6.7888 78.9437 7.84928C78.7003 7.78843 78.4569 7.71889 78.2135 7.65805C78.2135 7.86667 78.2135 8.07528 78.2135 8.2839C77.0227 7.97967 75.8231 7.69282 74.6236 7.42335V5.95433Z" fill="#EF2B00"/>
<path d="M79.3095 7.69278C79.3095 7.13647 79.3095 6.59754 79.3095 6.05861C79.8832 6.05861 80.4569 6.08468 81.0219 6.10207C81.074 6.10207 81.0914 6.09338 81.0914 6.05861C80.5003 5.88476 79.9006 5.7196 79.3008 5.56314V3.67688C80.3613 3.96373 81.413 4.26797 82.4648 4.58959C82.4648 5.21544 82.4648 5.84999 82.4648 6.47584C82.2388 6.4063 82.0215 6.33676 81.7955 6.27592V8.29256C81.7955 8.29256 81.7955 8.30125 81.8042 8.30995C82.0997 8.39687 82.3953 8.48379 82.6908 8.57941C82.6213 9.05749 82.5604 9.53558 82.4996 10.0137C81.4391 9.69204 80.37 9.38781 79.3008 9.09226V7.69278H79.3095ZM80.3439 11.7608C80.3439 11.3001 80.3439 10.8394 80.3439 10.3874C80.3439 10.1527 80.3439 9.91805 80.3439 9.69204C81.6912 10.0745 83.0298 10.4744 84.3598 10.909V11.3262C84.3598 11.4479 84.3598 11.5957 84.3598 11.7261C84.3598 11.7348 84.3598 11.7348 84.3685 11.7435C86.8719 12.5605 89.3405 13.4733 91.7918 14.4903C91.7223 15.1944 91.6527 15.8984 91.5832 16.6025C87.8976 15.0813 84.1425 13.7949 80.3439 12.7257C80.3439 12.4128 80.3439 12.0912 80.3439 11.7782V11.7608ZM82.7256 8.57941C82.7256 7.94486 82.7256 7.25816 82.7256 6.63231V4.65043C83.7426 4.96336 84.7596 5.29367 85.768 5.64137C85.768 6.26722 85.7506 6.89308 85.7506 7.51893C85.4724 7.42332 85.2029 7.33639 84.9248 7.24078C84.9161 7.24078 84.9161 7.24078 84.9161 7.24078V9.27481C84.9161 9.27481 84.9161 9.2835 84.9248 9.29219C85.2986 9.41388 85.6723 9.54427 86.0461 9.67466C86.0026 10.1614 85.9679 10.6395 85.9244 11.1263C84.8639 10.7612 83.8035 10.4135 82.7343 10.0832V8.5881L82.7256 8.57941ZM86.1417 8.52726C86.1417 7.54501 86.1417 6.58884 86.1417 5.6066C86.8893 5.86737 87.6281 6.12815 88.367 6.4063V8.30995C88.367 8.30995 88.367 8.31864 88.3757 8.32733C88.5408 8.38818 88.706 8.44902 88.8712 8.50987C88.8798 8.50987 88.8798 8.50987 88.8798 8.50987C88.8798 7.87532 88.8798 7.24078 88.8798 6.61492C89.7752 6.95393 90.6618 7.30162 91.5484 7.66671C91.5484 8.19694 91.5484 8.72718 91.5484 9.25742C91.5484 10.1614 91.5484 11.0654 91.5484 11.9608C91.5484 12.6301 91.5484 13.2994 91.5484 13.9687C90.6618 13.6036 89.7752 13.2559 88.8798 12.9169C88.8798 12.2911 88.8798 11.6652 88.8798 11.0394C88.8798 11.0307 88.8798 11.0307 88.8712 11.022C88.706 10.9611 88.5408 10.9003 88.3757 10.8394C88.367 10.8394 88.367 10.8394 88.367 10.8394V12.4041C87.6281 12.1259 86.8893 11.8652 86.1417 11.6044C86.1417 10.5787 86.1417 9.55296 86.1417 8.52726Z" fill="#EF2B00"/>
<path d="M16.864 41.7966C15.3863 41.1273 14.3519 40.1798 13.7695 38.9455C13.1784 37.7198 13.0306 36.2595 13.3001 34.5645L18.559 33.3302C18.4112 34.0864 18.5068 34.7644 18.8458 35.3816C19.1848 35.9987 19.7759 36.4768 20.6104 36.8245C21.4449 37.1722 22.5054 37.3461 23.7918 37.3461C24.6698 37.3461 25.4173 37.2591 26.0171 37.0853C26.6169 36.9115 27.0689 36.6768 27.3644 36.3812C27.66 36.0857 27.8425 35.7641 27.912 35.4164C27.9816 35.086 27.9642 34.8079 27.8425 34.5732C27.7208 34.3472 27.46 34.1473 27.0602 33.9821C26.6603 33.8169 26.0693 33.6692 25.2956 33.5388L20.8886 32.9303C18.9415 32.6522 17.5159 32.0872 16.5945 31.2353C15.6731 30.3834 15.3515 29.2969 15.6296 27.9756C16.0295 26.1763 17.1595 24.8029 19.0023 23.8467C20.8451 22.8906 23.0704 22.4125 25.6781 22.4125C27.6426 22.4125 29.3115 22.6559 30.6849 23.1426C32.0583 23.6294 33.1014 24.4378 33.8055 25.5765C34.5096 26.7152 34.7791 28.2538 34.6139 30.2009L29.1116 31.6612C29.3724 30.7485 29.2941 30.001 28.8943 29.436C28.4944 28.871 27.8773 28.4537 27.0602 28.1929C26.2431 27.9409 25.3217 27.8105 24.296 27.8105C23.2094 27.8105 22.3837 27.9496 21.8187 28.2364C21.2536 28.5233 20.8973 28.9405 20.7756 29.4881C20.706 29.801 20.7147 30.0705 20.8016 30.2878C20.8973 30.5051 21.0972 30.6964 21.4101 30.8702C21.723 31.0354 22.1663 31.1658 22.7314 31.2527L26.9733 31.8264C28.5901 32.0872 29.8765 32.4262 30.824 32.8608C31.7715 33.2954 32.4408 33.8343 32.8059 34.495C33.171 35.1556 33.2579 35.9466 33.0493 36.8593C32.8146 38.0675 32.1713 39.128 31.1196 40.0407C30.0765 40.9447 28.79 41.6314 27.2775 42.0921C25.765 42.5528 24.183 42.7788 22.5314 42.7788C20.2192 42.7788 18.3243 42.4485 16.8466 41.7705L16.864 41.7966Z" fill="#EF2B00"/>
<path d="M37.4479 42.0139C36.5439 41.5445 35.8398 40.8839 35.3443 40.0147C34.8489 39.1541 34.6055 38.1545 34.6055 37.0158C34.6055 35.399 34.9532 33.9039 35.6399 32.5131C36.3266 31.131 37.3349 30.0184 38.6648 29.2013C39.9948 28.3755 41.5768 27.9583 43.4109 27.9583C44.4714 27.9583 45.4189 28.1756 46.2446 28.6189C47.0704 29.0622 47.7137 29.6967 48.183 30.5312C48.6524 31.3657 48.8871 32.3653 48.8871 33.5214H49.0262C49.1392 32.7652 49.2435 32.0089 49.3565 31.2353C49.4695 30.5573 49.6173 29.6185 49.7998 28.4276H54.8067L53.1551 36.1639L53.0421 36.6072C52.9291 37.0853 52.877 37.4417 52.8943 37.6764C52.903 37.9198 53.0073 38.1023 53.1986 38.224C53.3898 38.3544 53.7288 38.4152 54.2069 38.4152L53.2942 42.7093H52.1642C50.4431 42.7093 49.2261 42.4572 48.5307 41.9705C47.8354 41.475 47.4877 40.8144 47.4877 39.9886C47.4877 39.7887 47.505 39.58 47.5398 39.354C47.5746 39.1367 47.6354 38.9107 47.705 38.6934C47.7223 38.6586 47.7397 38.5978 47.7571 38.5282H47.618C46.8618 39.9799 45.9143 41.0404 44.7582 41.7097C43.6021 42.379 42.2374 42.7093 40.6554 42.7093C39.4298 42.7093 38.3606 42.4746 37.4479 42.0052V42.0139ZM45.8709 37.7981C46.5923 37.4591 47.14 37.0245 47.4963 36.4942C47.8527 35.964 48.0353 35.3903 48.0353 34.7905C48.0353 34.3124 47.8875 33.8952 47.5833 33.5214C47.279 33.1563 46.8444 32.8695 46.262 32.6695C45.6796 32.4696 44.9668 32.3653 44.0976 32.3653C42.9589 32.3653 42.0462 32.5479 41.3421 32.9129C40.6467 33.278 40.1425 33.7213 39.8383 34.2516C39.5341 34.7731 39.3863 35.3207 39.3863 35.8858C39.3863 36.6159 39.7166 37.207 40.3772 37.6503C41.0379 38.0936 41.9767 38.3109 43.1849 38.3109C44.2454 38.3109 45.1407 38.1371 45.8709 37.7981Z" fill="#EF2B00"/>
<path d="M57.0676 33.0174C57.0676 32.7132 56.9807 32.5046 56.8068 32.4003C56.633 32.2959 56.294 32.2351 55.7985 32.2351L56.7025 27.941C58.5888 27.941 59.9535 28.1323 60.788 28.506C61.6224 28.8798 62.0918 29.4535 62.1961 30.2272C62.3004 31.0008 62.1353 32.0613 61.7181 33.4173L61.6659 33.5564L61.0574 35.5904H61.2226C61.9006 33.8258 62.6568 32.3742 63.4826 31.2268C64.3084 30.0794 65.169 29.2536 66.0556 28.7321C66.9422 28.2192 67.8375 27.9584 68.7415 27.9584C70.2801 27.9584 71.3493 28.3844 71.9317 29.2362C72.5227 30.0881 72.6966 31.192 72.4532 32.5393C72.2185 33.8867 71.6622 35.2861 70.8016 36.7378L67.5507 36.5205C67.994 35.7121 68.2287 35.0341 68.2548 34.4691C68.2808 33.9127 68.1244 33.4955 67.7767 33.2173C67.429 32.9392 66.8987 32.8088 66.1773 32.8088C65.3689 32.8088 64.6039 33.0609 63.8912 33.5477C63.1784 34.0431 62.5873 34.669 62.1179 35.4339C61.6485 36.1989 61.3269 36.9812 61.1444 37.7896L60.1795 42.2488H55.1987L56.8242 34.6255C56.9894 33.8519 57.0763 33.3217 57.0763 33.0174H57.0676Z" fill="#EF2B00"/>
<path d="M75.1908 42.0139C74.2868 41.5445 73.5827 40.8839 73.0872 40.0147C72.5918 39.1541 72.3484 38.1545 72.3484 37.0158C72.3484 35.399 72.6961 33.9039 73.3828 32.5131C74.0695 31.131 75.0778 30.0184 76.4078 29.2013C77.7377 28.3755 79.3197 27.9583 81.1538 27.9583C82.2143 27.9583 83.1618 28.1756 83.9876 28.6189C84.8133 29.0622 85.4566 29.6967 85.926 30.5312C86.3954 31.3657 86.6301 32.3653 86.6301 33.5214H86.7691C86.8821 32.7652 86.9864 32.0089 87.0994 31.2353C87.2124 30.5573 87.3602 29.6185 87.5428 28.4276H92.5496L90.898 36.1639L90.785 36.6072C90.672 37.0853 90.6199 37.4417 90.6373 37.6764C90.646 37.9198 90.7503 38.1023 90.9415 38.224C91.1327 38.3544 91.4717 38.4152 91.9498 38.4152L91.0371 42.7093H89.9071C88.186 42.7093 86.9691 42.4572 86.2737 41.9705C85.5783 41.475 85.2306 40.8144 85.2306 39.9886C85.2306 39.7887 85.248 39.58 85.2827 39.354C85.3175 39.1367 85.3783 38.9107 85.4479 38.6934C85.4653 38.6586 85.4827 38.5978 85.5 38.5282H85.361C84.6047 39.9799 83.6572 41.0404 82.5011 41.7097C81.3451 42.379 79.9803 42.7093 78.3983 42.7093C77.1727 42.7093 76.1035 42.4746 75.1908 42.0052V42.0139ZM83.6138 37.7981C84.3353 37.4591 84.8829 37.0245 85.2393 36.4942C85.5957 35.964 85.7782 35.3903 85.7782 34.7905C85.7782 34.3124 85.6304 33.8952 85.3262 33.5214C85.022 33.1563 84.5873 32.8695 84.0049 32.6695C83.4225 32.4696 82.7098 32.3653 81.8405 32.3653C80.7018 32.3653 79.7891 32.5479 79.085 32.9129C78.3896 33.278 77.8855 33.7213 77.5812 34.2516C77.277 34.7731 77.1292 35.3207 77.1292 35.8858C77.1292 36.6159 77.4595 37.207 78.1202 37.6503C78.7808 38.0936 79.7196 38.3109 80.9278 38.3109C81.9883 38.3109 82.8836 38.1371 83.6138 37.7981Z" fill="#EF2B00"/>
<path d="M52.6855 53.3922C79.3486 53.3922 100.963 44.5852 100.963 33.7213C100.963 22.8573 79.3486 14.0503 52.6855 14.0503C26.0224 14.0503 4.40771 22.8573 4.40771 33.7213C4.40771 44.5852 26.0224 53.3922 52.6855 53.3922Z" stroke="#EF2B00" stroke-width="2" stroke-miterlimit="10"/>
<path d="M52.6852 56C81.2301 56 104.37 46.0255 104.37 33.7213C104.37 21.4171 81.2301 11.4426 52.6852 11.4426C24.1403 11.4426 1 21.4171 1 33.7213C1 46.0255 24.1403 56 52.6852 56Z" stroke="#EF2B00" stroke-miterlimit="10"/>
</svg>
