<svg width="116" height="50" viewBox="0 0 116 50" fill="none" xmlns="http://www.w3.org/2000/svg">
<path d="M14.5648 14.0925H21.9604C22.625 17.1779 23.2136 20.4817 23.7357 23.9944C24.2579 27.5071 24.5902 30.6495 24.7231 33.4216H24.9035C26.0427 30.9723 27.4763 28.2571 29.2041 25.2761C30.932 22.295 32.8877 18.9912 35.0997 15.3836L35.8782 14.0925H43.2453L38.7642 35.102H32.7263L35.0427 24.2507C35.1851 23.4533 35.337 22.7507 35.5079 22.1621C35.6788 21.5735 35.8307 21.0799 35.9731 20.6716C36.0111 20.5102 36.0775 20.3583 36.1535 20.2159H35.9446L27.1345 35.102H21.7516L19.2832 20.2159H19.1313C19.1123 20.3773 19.0933 20.5577 19.0743 20.7571C18.9699 21.678 18.78 22.8457 18.5047 24.2412L16.1883 35.0925H10.1123L14.5648 14.083V14.0925Z" fill="current"  />
<path d="M45.666 34.8435C44.6786 34.3308 43.9096 33.6093 43.3685 32.6599C42.8273 31.7201 42.5615 30.6283 42.5615 29.3846C42.5615 27.6188 42.9413 25.9859 43.6913 24.4669C44.4413 22.9574 45.5425 21.7422 46.9951 20.8498C48.4476 19.9479 50.1755 19.4922 52.1786 19.4922C53.3369 19.4922 54.3717 19.7295 55.2736 20.2137C56.1755 20.6979 56.878 21.3909 57.3907 22.3023C57.9033 23.2137 58.1597 24.3055 58.1597 25.5681H58.3116C58.435 24.7422 58.5489 23.9162 58.6723 23.0713C58.7957 22.3308 58.9571 21.3055 59.1565 20.0048H64.6249L62.8211 28.4542L62.6976 28.9384C62.5742 29.4606 62.5268 29.8498 62.5362 30.1061C62.5362 30.372 62.6597 30.5713 62.8685 30.7042C63.0774 30.8466 63.4476 30.9131 63.9698 30.9131L62.9825 35.603H61.7483C59.859 35.603 58.5394 35.3277 57.7799 34.796C57.0204 34.2549 56.6407 33.5333 56.6407 32.6314C56.6407 32.4131 56.6597 32.1852 56.6976 31.9384C56.7356 31.7011 56.8021 31.4542 56.878 31.2169C56.897 31.1789 56.916 31.1125 56.935 31.0365H56.7831C55.9571 32.622 54.9223 33.7802 53.6596 34.5112C52.397 35.2422 50.9065 35.603 49.1786 35.603C47.84 35.603 46.6723 35.3466 45.6755 34.834L45.666 34.8435ZM54.8653 30.239C55.6533 29.8688 56.2514 29.3941 56.6407 28.815C57.0299 28.2359 57.2293 27.6093 57.2293 26.9542C57.2293 26.4321 57.0679 25.9764 56.7356 25.5681C56.4033 25.1694 55.9191 24.8561 55.2926 24.6378C54.666 24.4194 53.878 24.3055 52.9286 24.3055C51.685 24.3055 50.6786 24.5049 49.9191 24.9036C49.1596 25.3023 48.609 25.7865 48.2767 26.3656C47.9444 26.9447 47.7831 27.5333 47.7831 28.1504C47.7831 28.9479 48.1438 29.5935 48.8653 30.0776C49.5869 30.5618 50.6122 30.7992 51.9318 30.7992C53.09 30.7992 54.0679 30.6093 54.8653 30.239Z" fill="current"  />
<path d="M67.0822 25.0218C67.0822 24.6896 66.9872 24.4617 66.7973 24.3478C66.6075 24.2339 66.2372 24.1674 65.6961 24.1674L66.6834 19.4775C68.7435 19.4775 70.2341 19.6864 71.1455 20.0946C72.0568 20.5029 72.5695 21.1294 72.6834 21.9744C72.7974 22.8193 72.617 23.9775 72.1613 25.4586L72.1043 25.6105L71.4398 27.832H71.6201C72.3606 25.9048 73.1866 24.3193 74.0885 23.0662C74.9904 21.813 75.9303 20.9111 76.8986 20.3415C77.867 19.7813 78.8448 19.4965 79.8322 19.4965C81.5126 19.4965 82.6803 19.9617 83.3164 20.8921C83.9524 21.8225 84.1518 23.0282 83.886 24.4997C83.6297 25.9712 83.0221 27.4997 82.0822 29.0851L78.5315 28.8478C79.0157 27.9649 79.272 27.2244 79.3005 26.6073C79.329 25.9997 79.1581 25.544 78.7784 25.2402C78.3986 24.9364 77.8195 24.794 77.0315 24.794C76.1486 24.794 75.3227 25.0693 74.5347 25.601C73.7562 26.1421 73.1106 26.8256 72.598 27.6611C72.0853 28.4965 71.7341 29.351 71.5347 30.2339L70.4809 35.1041H65.041L66.8163 26.7782C66.9967 25.9332 67.0916 25.3541 67.0916 25.0218H67.0822Z" fill="current"  />
<path d="M86.8789 34.8435C85.8915 34.3308 85.1225 33.6093 84.5814 32.6599C84.0402 31.7201 83.7744 30.6283 83.7744 29.3846C83.7744 27.6188 84.1542 25.9859 84.9042 24.4669C85.6542 22.9574 86.7554 21.7422 88.208 20.8498C89.6605 19.9479 91.3884 19.4922 93.3915 19.4922C94.5498 19.4922 95.5846 19.7295 96.4865 20.2137C97.3884 20.6979 98.0909 21.3909 98.6036 22.3023C99.1162 23.2137 99.3725 24.3055 99.3725 25.5681H99.5244C99.6479 24.7422 99.7618 23.9162 99.8852 23.0713C100.009 22.3308 100.17 21.3055 100.369 20.0048H105.838L104.034 28.4542L103.911 28.9384C103.787 29.4606 103.74 29.8498 103.749 30.1061C103.749 30.372 103.873 30.5713 104.081 30.7042C104.29 30.8466 104.661 30.9131 105.183 30.9131L104.195 35.603H102.961C101.072 35.603 99.7523 35.3277 98.9928 34.796C98.2333 34.2549 97.8536 33.5333 97.8536 32.6314C97.8536 32.4131 97.8725 32.1852 97.9105 31.9384C97.9485 31.7011 98.0149 31.4542 98.0909 31.2169C98.1099 31.1789 98.1289 31.1125 98.1479 31.0365H97.996C97.17 32.622 96.1352 33.7802 94.8725 34.5112C93.6099 35.2422 92.1194 35.603 90.3915 35.603C89.0529 35.603 87.8852 35.3466 86.8883 34.834L86.8789 34.8435ZM96.0782 30.239C96.8662 29.8688 97.4643 29.3941 97.8536 28.815C98.2428 28.2359 98.4422 27.6093 98.4422 26.9542C98.4422 26.4321 98.2808 25.9764 97.9485 25.5681C97.6162 25.1694 97.132 24.8561 96.5054 24.6378C95.8789 24.4194 95.0909 24.3055 94.1415 24.3055C92.8979 24.3055 91.8915 24.5049 91.132 24.9036C90.3725 25.3023 89.8219 25.7865 89.4896 26.3656C89.1573 26.9447 88.9959 27.5333 88.9959 28.1504C88.9959 28.9479 89.3567 29.5935 90.0782 30.0776C90.7997 30.5618 91.8251 30.7992 93.1447 30.7992C94.3029 30.7992 95.2808 30.6093 96.0782 30.239Z" fill="current"  />
<path fill-rule="evenodd" clip-rule="evenodd" d="M114.684 48.9286V1.07152H64.3926L58.3524 5.986L52.4093 1.07152H29.6585H1.31672V48.9286H114.684ZM0.253906 9.39926e-05V50H115.747V9.39926e-05L63.9871 0L58.3524 4.57755L52.8268 9.39926e-05H29.1271H0.253906Z" fill="current"  />
<path fill-rule="evenodd" clip-rule="evenodd" d="M111.494 45.7431V4.25994H65.4439L58.352 10.0833L51.341 4.25994H4.50597V45.7431H111.494ZM2.36621 2.11426V47.8888H113.634V2.11426L64.7388 2.11426L58.352 7.25489L52.0461 2.11426H2.36621Z" fill="current"  />
</svg>
