<svg width="212" height="212" viewBox="0 0 212 212" fill="none" xmlns="http://www.w3.org/2000/svg">
<circle cx="106" cy="106" r="106" fill="#EF2B00"/>
<circle cx="106" cy="106" r="106" fill="white" fill-opacity="0.9"/>
<path d="M43.9141 43.9143H100.108L106 50.2588L111.891 43.9143H168.085V168.086H43.9141V43.9143Z" fill="#EF2B00"/>
<path fill-rule="evenodd" clip-rule="evenodd" d="M96.156 96.1572C89.8836 96.1572 84.7988 101.242 84.7988 107.514C84.7988 113.787 89.8836 118.871 96.156 118.871C100.106 118.871 103.585 116.855 105.62 113.795C107.655 116.855 111.134 118.871 115.084 118.871C121.356 118.871 126.441 113.787 126.441 107.514C126.441 101.242 121.356 96.1572 115.084 96.1572C111.134 96.1572 107.655 98.1738 105.62 101.234C103.585 98.1738 100.106 96.1572 96.156 96.1572Z" fill="white"/>
<circle cx="91.9924" cy="90.4786" r="4.16429" fill="black"/>
<circle cx="119.25" cy="90.4786" r="4.16429" fill="black"/>
</svg>
