<svg width="248" height="124" viewBox="0 0 248 124" fill="none" xmlns="http://www.w3.org/2000/svg">
<path d="M41.5887 17.9774C42.1334 16.0989 42.6594 14.1828 43.223 12.3043C46.1159 11.4026 49.0276 10.5573 51.9581 9.7495C51.3945 10.4446 50.8498 11.1584 50.2862 11.8534C49.8354 12.4358 49.4221 12.9806 48.9713 13.5441C51.0752 12.943 53.1604 12.3607 55.2831 11.8159C55.64 12.8491 55.9969 13.901 56.3538 14.9342C56.7859 16.1928 57.1992 17.4514 57.6312 18.7101C55.0389 19.3675 52.4465 20.0626 49.8542 20.7952C49.7602 20.1753 49.7039 19.5178 49.6099 18.8791C49.516 18.1089 49.4033 17.3575 49.3282 16.5685C49.2155 15.8359 49.1215 15.0845 49.0464 14.3707C49.0464 14.3519 49.0464 14.3519 49.0276 14.3707H48.99C48.9713 14.3707 48.9713 14.3707 48.9713 14.4082C48.821 15.6668 48.6519 16.9255 48.5016 18.1841C48.3701 19.236 48.2386 20.288 48.1071 21.3024C45.3833 22.0914 42.6594 22.9367 39.9543 23.8196C40.5179 21.866 41.0627 19.9123 41.6262 17.9586L41.5887 17.9774ZM41.8141 28.9292C41.8141 28.159 41.8141 27.4264 41.8141 26.6562C47.0739 24.9843 52.3902 23.4815 57.7252 22.1477V21.9035C57.7252 21.772 57.7252 21.6405 57.7252 21.4903C57.7252 21.4715 57.7252 21.4715 57.7064 21.4903C52.3714 22.824 47.0739 24.3268 41.8141 25.9987C41.8141 25.2661 41.8141 24.5335 41.8141 23.8196C49.6663 21.34 57.5937 19.2173 65.5774 17.4514V20.3068C65.5774 20.6637 65.5774 21.0206 65.5774 21.3963C60.2236 22.5798 54.8698 23.9136 49.5724 25.4352C49.5536 25.4352 49.5536 25.4352 49.5536 25.4727C49.5536 25.5854 49.5536 25.6794 49.5536 25.7921C49.5536 25.9048 49.5536 25.9987 49.5536 26.1114C49.5536 26.1302 49.5536 26.1302 49.5724 26.1114C52.5968 25.2473 55.6212 24.4395 58.6644 23.6881C61.1816 23.0682 63.7176 22.4859 66.2537 21.9223C66.0282 23.2185 65.784 24.4959 65.5586 25.7921C57.5749 27.5579 49.6475 29.6806 41.8141 32.1603C41.8141 31.0895 41.8141 30.0188 41.8141 28.9668V28.9292ZM57.8754 15.6105C57.8754 14.953 57.8754 14.258 57.8754 13.5817C57.8754 11.7783 57.8754 9.99371 57.8754 8.19033C60.4302 7.55163 63.0038 6.95051 65.5774 6.36816V8.96052C66.1034 8.84781 66.6294 8.7351 67.1553 8.62239C67.1553 10.9142 67.1553 13.1872 67.1553 15.479C66.6294 15.5917 66.1034 15.7044 65.5774 15.8171V16.8503C63.0038 17.4139 60.4302 18.015 57.8754 18.6725C57.8754 17.6581 57.8754 16.6249 57.8754 15.6105Z" fill="#EF2B00"/>
<path d="M68.9204 19.8184C69.1082 18.3156 69.2773 16.794 69.4651 15.2912C69.5779 14.258 69.6906 13.1685 69.8221 12.1353C69.8221 12.1165 69.8221 12.1165 69.8033 12.1353C69.1458 12.2668 68.5071 12.3983 67.8496 12.5485C67.8496 10.4822 67.8496 8.43458 67.8496 6.36821C70.874 5.72951 73.8985 5.14717 76.9417 4.6024C76.735 7.00691 76.5284 9.41141 76.3405 11.8347C76.0212 15.4978 75.7394 19.1609 75.4201 22.7865C73.0907 23.2185 70.7613 23.6694 68.4507 24.1578C68.601 22.7301 68.7889 21.3025 68.9391 19.8372L68.9204 19.8184ZM77.3737 4.50847C80.1164 4.03884 82.859 3.58799 85.6204 3.19351C85.4138 6.36821 85.2072 9.5617 85.0005 12.7364C84.8127 15.573 84.6436 18.3907 84.4557 21.2649C82.0325 21.6218 79.6092 22.0163 77.2046 22.4296C77.3174 21.1522 77.4301 19.8748 77.524 18.5974C77.7118 16.8504 77.8621 15.1409 77.9936 13.4315C78.0876 12.4734 78.1439 11.5154 78.2378 10.5573C78.2378 10.5385 78.2378 10.5385 78.2191 10.5573C77.7682 10.6325 77.2986 10.7076 76.8477 10.8015C77.0168 8.71636 77.1859 6.6312 77.3737 4.54604V4.50847ZM86.2028 16.5122C86.2028 15.2348 86.2028 13.9387 86.2028 12.6425V2.66752C88.7388 2.3106 91.256 1.99125 93.792 1.70947V7.15719C94.318 7.10083 94.844 7.04448 95.3887 6.98812V14.8591C94.8628 14.9155 94.3368 14.9718 93.792 15.0282V21.0582C91.256 21.34 88.72 21.6594 86.2028 22.0163V16.5122Z" fill="#EF2B00"/>
<path d="M96.4426 6.51847V1.57796C98.9598 1.31497 101.496 1.08954 104.013 0.901691V4.07639C104.051 3.83219 104.088 3.56919 104.126 3.32498C104.126 3.32498 104.195 3.26237 104.332 3.13713C104.689 2.36694 105.027 1.57796 105.384 0.807765C107.338 0.488416 108.728 0.338135 110.344 0.375705C112.128 0.413275 113.274 1.2774 113.274 2.55479V7.4953C113.274 8.54728 113.274 9.61803 113.274 10.6888C107.657 10.9142 102.041 11.3087 96.4238 11.891V6.49969L96.4426 6.51847ZM97.9266 17.4515V15.1785C103.374 14.6525 108.822 14.2956 114.27 14.0889V13.8447C114.27 13.7132 114.27 13.5817 114.27 13.4314C114.27 13.4126 114.27 13.4126 114.251 13.4126C108.803 13.6193 103.356 13.9762 97.9266 14.5022V12.3043C106.042 11.5153 114.176 11.1021 122.31 11.0269V14.9906C116.843 15.0282 111.396 15.2348 105.948 15.6105C105.929 15.6105 105.929 15.6105 105.929 15.6293V15.9487C105.929 16.0614 105.929 16.1553 105.929 16.268C105.929 16.2868 105.929 16.2868 105.948 16.2868C109.047 16.0802 112.166 15.9299 115.265 15.8172C117.839 15.7232 120.413 15.6857 123.005 15.6669C122.761 16.9067 122.535 18.1465 122.291 19.3863C114.157 19.4427 106.042 19.8748 97.9266 20.6637V17.4703V17.4515ZM106.136 8.05886C106.136 8.05886 106.155 8.05886 106.155 8.04008V5.48528C106.155 5.07201 105.741 4.92173 105.197 4.9593C104.727 4.99687 104.464 5.03444 104.013 5.10958V6.4809C104.013 7.06324 104.013 7.6268 104.013 8.19036C104.727 8.134 105.422 8.09643 106.136 8.04008V8.05886ZM114.439 7.58923V0.169067C117.069 0.0751412 119.68 0.0187852 122.31 0V2.59236C122.836 2.59236 123.381 2.59236 123.907 2.59236V9.44897C123.381 9.44897 122.836 9.44897 122.31 9.44897V10.4822C119.68 10.5009 117.069 10.5573 114.439 10.6512V7.58923Z" fill="#EF2B00"/>
<path d="M125.692 14.1452C125.879 12.68 126.048 11.196 126.236 9.73071C126.349 8.7163 126.462 7.66433 126.593 6.64993C126.593 6.63114 126.593 6.63114 126.574 6.63114C125.917 6.63114 125.26 6.63114 124.583 6.63114V0.450806C127.664 0.450806 130.726 0.507162 133.788 0.619873C133.581 2.98681 133.375 5.35375 133.168 7.72069C132.849 11.3087 132.548 14.9154 132.229 18.4846C129.881 18.4095 127.514 18.3719 125.166 18.3719C125.316 16.9818 125.504 15.5729 125.673 14.164L125.692 14.1452ZM134.276 0.619873C137.057 0.713799 139.818 0.864081 142.598 1.05193C142.392 4.18907 142.185 7.3262 141.978 10.4821C141.791 13.2811 141.621 16.0613 141.434 18.8979C138.992 18.7476 136.549 18.6161 134.126 18.541C134.239 17.2824 134.352 16.0238 134.445 14.7651C134.633 13.0557 134.784 11.3838 134.915 9.69314C135.009 8.75387 135.065 7.81461 135.159 6.85657C135.159 6.83778 135.159 6.83778 135.141 6.83778C134.671 6.83778 134.22 6.80021 133.75 6.78143C133.92 4.73384 134.107 2.68625 134.276 0.619873ZM143.181 14.5022C143.181 13.2248 143.181 11.9286 143.181 10.6324V0.657443C145.717 0.82651 148.271 1.05193 150.807 1.29614V6.74385C151.333 6.80021 151.859 6.85657 152.404 6.91292C152.404 9.54285 152.404 12.1728 152.404 14.8027C151.878 14.7464 151.352 14.69 150.807 14.6336V20.6637C148.271 20.4195 145.735 20.2129 143.181 20.025V14.5022Z" fill="#EF2B00"/>
<path d="M158.432 12.9054C158 12.7926 157.587 12.6236 157.23 12.4545C155.126 11.5152 153.962 10.2003 153.962 8.69747C153.962 8.32176 154.093 7.90849 154.225 7.72063C154.225 7.72063 154.225 7.71437 154.225 7.70185C153.755 7.64549 153.304 7.60792 152.834 7.55157V5.33491C158.771 5.95482 164.707 6.78137 170.605 7.79577V10.0124C168.52 9.65551 166.435 9.31738 164.35 9.01681C166.322 9.50523 168.295 10.0124 170.267 10.5384C170.286 10.7075 170.286 10.8578 170.286 10.9893C170.286 12.3042 169.422 13.1683 168.05 13.5816C166.585 14.0137 164.481 14.0325 162.133 13.6943C160.781 13.5065 159.522 13.2247 158.414 12.8866L158.432 12.9054ZM154.469 1.55908C159.597 2.12264 164.726 2.85526 169.816 3.7006C169.553 4.75257 169.272 5.82333 169.009 6.8753C165.308 6.25539 161.607 5.7294 157.888 5.25977C156.723 5.10949 155.596 4.97799 154.469 4.86528V1.55908ZM154.901 18.0901C154.901 17.3762 154.901 16.6436 154.901 15.9298C160.311 16.5497 165.721 17.3199 171.112 18.2591V17.658C171.112 17.658 171.112 17.6392 171.094 17.6392C165.721 16.7 160.33 15.9298 154.901 15.3286V13.3186C162.997 14.2391 171.056 15.5165 179.077 17.1508V20.7764C173.724 19.6868 168.332 18.7476 162.922 17.9774C162.903 17.9774 162.903 17.9774 162.903 17.9962V18.2967C162.903 18.4094 162.903 18.4846 162.903 18.5973C162.903 18.6161 162.903 18.6161 162.922 18.6161C165.984 19.0481 169.065 19.5553 172.108 20.1001C174.663 20.5509 177.199 21.0394 179.735 21.5653C179.509 22.6925 179.265 23.8196 179.04 24.9279C171.037 23.2936 162.978 22.0162 154.882 21.0957V18.1089L154.901 18.0901ZM161.025 10.1064C161.325 10.2754 161.682 10.4257 162.133 10.4821C163.129 10.6136 163.805 10.4069 163.805 9.63673C163.805 9.29859 163.598 9.0356 163.241 8.82896C162.509 8.71625 161.776 8.62232 161.044 8.5284C160.799 8.60354 160.48 8.81018 160.48 9.1671C160.48 9.58037 160.687 9.84336 161.025 10.0876V10.1064ZM171.319 11.8158V4.05752C173.911 4.50836 176.504 4.99678 179.077 5.52276V8.20905C179.603 8.32176 180.129 8.43447 180.655 8.5284V15.4414C180.129 15.3286 179.603 15.2159 179.077 15.122V16.4745C176.485 15.9486 173.911 15.4601 171.319 15.0093V11.8158Z" fill="#EF2B00"/>
<path d="M181.445 15.0845C181.445 13.8823 181.445 12.7176 181.445 11.5529C182.685 11.4965 183.925 11.459 185.165 11.4214C185.278 11.4214 185.315 11.3838 185.315 11.3275C184.019 11.0269 182.741 10.7451 181.445 10.4634V6.38696C183.737 6.87538 186.029 7.40137 188.321 7.94614V12.0225C187.832 11.9098 187.344 11.7971 186.874 11.6844V16.0614C186.874 16.0614 186.874 16.0801 186.893 16.0801C187.532 16.2304 188.17 16.3807 188.809 16.531C188.659 17.5642 188.527 18.6161 188.377 19.6493C186.066 19.0858 183.756 18.5598 181.445 18.0714V15.0845ZM183.681 23.7445C183.681 22.7489 183.681 21.7533 183.681 20.7764V19.2736C186.592 19.9311 189.504 20.6262 192.416 21.3776V23.1434C192.416 23.1434 192.416 23.1622 192.435 23.181C197.882 24.5898 203.274 26.149 208.646 27.896C208.496 29.4364 208.346 30.958 208.177 32.4984C200.099 29.8873 191.909 27.6706 183.662 25.8297V23.7821L183.681 23.7445ZM188.847 16.5686C188.847 15.1972 188.847 13.7132 188.847 12.3607V8.07763C191.063 8.6224 193.261 9.18596 195.459 9.7683C195.459 11.1208 195.422 12.4734 195.422 13.8259C194.82 13.6568 194.219 13.5066 193.618 13.3375C193.599 13.3375 193.599 13.3375 193.599 13.3375V17.7145C193.599 17.7145 193.599 17.7332 193.618 17.752C194.426 17.9587 195.252 18.1841 196.06 18.4095C195.966 19.4615 195.891 20.5134 195.797 21.5654C193.487 20.9455 191.176 20.3444 188.847 19.7808V16.5498V16.5686ZM196.286 15.9674V9.65559C197.901 10.1064 199.517 10.5573 201.132 11.0269C201.132 12.3982 201.132 13.7696 201.132 15.1221C201.132 15.1409 201.132 15.1409 201.151 15.1597C201.508 15.2724 201.865 15.3663 202.241 15.479C202.259 15.479 202.259 15.479 202.259 15.479V11.365C204.213 11.9474 206.167 12.5485 208.102 13.1684V26.8065C206.167 26.1866 204.213 25.5667 202.259 25.0031V20.9455C202.259 20.9455 202.259 20.9267 202.241 20.9079C201.884 20.7952 201.527 20.7013 201.151 20.5886C201.132 20.5886 201.132 20.5886 201.132 20.5886C201.132 21.7157 201.132 22.8428 201.132 23.9699C199.517 23.5003 197.901 23.0307 196.286 22.5986V15.9674Z" fill="#EF2B00"/>
<path d="M38.1906 50.7102H52.8243C54.1393 56.8154 55.304 63.3526 56.3372 70.3032C57.3703 77.2537 58.0278 83.4716 58.2908 88.9569H58.6477C60.902 84.1103 63.7385 78.7377 67.1575 72.8392C70.5764 66.9406 74.4461 60.4034 78.8231 53.265L80.3635 50.7102H94.9408L86.0742 92.2819H74.1268L78.7104 70.8104C78.9921 69.2324 79.2927 67.8423 79.6308 66.6776C79.969 65.5129 80.2695 64.5361 80.5513 63.7283C80.6265 63.409 80.758 63.1084 80.9082 62.8267H80.495L63.0623 92.2819H52.4111L47.5269 62.8267H47.2263C47.1888 63.146 47.1512 63.5029 47.1136 63.8974C46.907 65.7196 46.5313 68.0302 45.9865 70.7916L41.4029 92.2631H29.3804L38.1906 50.6914V50.7102Z" fill="#EF2B00"/>
<path d="M99.7307 91.7746C97.777 90.7602 96.2554 89.3325 95.1846 87.454C94.1139 85.5942 93.5879 83.4339 93.5879 80.9731C93.5879 77.479 94.3393 74.248 95.8233 71.2423C97.3074 68.2555 99.4864 65.851 102.361 64.0852C105.235 62.3006 108.654 61.3989 112.617 61.3989C114.909 61.3989 116.957 61.8685 118.741 62.8265C120.526 63.7846 121.916 65.1559 122.93 66.9593C123.945 68.7627 124.452 70.923 124.452 73.4214H124.753C124.997 71.7871 125.222 70.1528 125.466 68.4809C125.711 67.0156 126.03 64.9868 126.424 62.4133H137.245L133.676 79.1321L133.431 80.0902C133.187 81.1234 133.093 81.8935 133.112 82.4007C133.112 82.9267 133.356 83.3212 133.769 83.5842C134.183 83.866 134.915 83.9975 135.949 83.9975L133.995 93.2774H131.553C127.815 93.2774 125.203 92.7326 123.701 91.6806C122.198 90.6099 121.446 89.1822 121.446 87.3976C121.446 86.9656 121.484 86.5147 121.559 86.0263C121.634 85.5567 121.766 85.0682 121.916 84.5986C121.954 84.5235 121.991 84.392 122.029 84.2417H121.728C120.094 87.3788 118.046 89.6706 115.548 91.1171C113.049 92.5635 110.1 93.2774 106.681 93.2774C104.032 93.2774 101.722 92.7702 99.7494 91.7558L99.7307 91.7746ZM117.934 82.6637C119.493 81.9311 120.676 80.9919 121.446 79.846C122.217 78.7001 122.611 77.4602 122.611 76.1641C122.611 75.1309 122.292 74.2292 121.634 73.4214C120.977 72.6324 120.019 72.0125 118.779 71.5805C117.539 71.1484 115.98 70.923 114.101 70.923C111.64 70.923 109.649 71.3175 108.146 72.1064C106.644 72.8954 105.554 73.8535 104.897 74.9994C104.239 76.1453 103.92 77.3099 103.92 78.531C103.92 80.1089 104.634 81.3863 106.061 82.3444C107.489 83.3024 109.518 83.7721 112.129 83.7721C114.421 83.7721 116.356 83.3964 117.934 82.6637Z" fill="#EF2B00"/>
<path d="M142.109 72.3321C142.109 71.6746 141.922 71.2238 141.546 70.9983C141.17 70.7729 140.437 70.6414 139.367 70.6414L141.32 61.3615C145.397 61.3615 148.346 61.7748 150.149 62.5826C151.953 63.3903 152.967 64.6301 153.193 66.302C153.418 67.9739 153.061 70.2657 152.159 73.1962L152.047 73.4968L150.732 77.8925H151.089C152.554 74.0791 154.188 70.942 155.973 68.4623C157.757 65.9827 159.617 64.1981 161.533 63.071C163.449 61.9626 165.384 61.3991 167.338 61.3991C170.663 61.3991 172.973 62.3196 174.232 64.1605C175.491 66.0015 175.885 68.3872 175.359 71.2989C174.852 74.2106 173.65 77.235 171.79 80.3722L164.764 79.9025C165.722 78.1555 166.23 76.6903 166.286 75.4692C166.342 74.267 166.004 73.3653 165.253 72.7641C164.501 72.163 163.355 71.8812 161.796 71.8812C160.049 71.8812 158.415 72.426 156.856 73.478C155.315 74.5487 154.038 75.9013 153.024 77.5544C152.009 79.2075 151.314 80.8981 150.92 82.6452L148.834 92.282H138.071L141.583 75.8074C141.94 74.1355 142.128 72.9896 142.128 72.3321H142.109Z" fill="#EF2B00"/>
<path d="M181.278 91.7746C179.324 90.7602 177.802 89.3325 176.732 87.454C175.661 85.5942 175.135 83.4339 175.135 80.9731C175.135 77.479 175.886 74.248 177.37 71.2423C178.854 68.2555 181.033 65.851 183.907 64.0852C186.782 62.3006 190.201 61.3989 194.164 61.3989C196.456 61.3989 198.504 61.8685 200.288 62.8265C202.073 63.7846 203.463 65.1559 204.477 66.9593C205.492 68.7627 205.999 70.923 205.999 73.4214H206.299C206.544 71.7871 206.769 70.1528 207.013 68.4809C207.257 67.0156 207.577 64.9868 207.971 62.4133H218.792L215.222 79.1321L214.978 80.0902C214.734 81.1234 214.64 81.8935 214.659 82.4007C214.659 82.9267 214.903 83.3212 215.316 83.5842C215.73 83.866 216.462 83.9975 217.495 83.9975L215.542 93.2774H213.1C209.361 93.2774 206.75 92.7326 205.247 91.6806C203.745 90.6099 202.993 89.1822 202.993 87.3976C202.993 86.9656 203.031 86.5147 203.106 86.0263C203.181 85.5567 203.313 85.0682 203.463 84.5986C203.5 84.5235 203.538 84.392 203.576 84.2417H203.275C201.641 87.3788 199.593 89.6706 197.095 91.1171C194.596 92.5635 191.647 93.2774 188.228 93.2774C185.579 93.2774 183.269 92.7702 181.296 91.7558L181.278 91.7746ZM199.48 82.6637C201.04 81.9311 202.223 80.9919 202.993 79.846C203.763 78.7001 204.158 77.4602 204.158 76.1641C204.158 75.1309 203.839 74.2292 203.181 73.4214C202.524 72.6324 201.566 72.0125 200.326 71.5805C199.086 71.1484 197.527 70.923 195.648 70.923C193.187 70.923 191.196 71.3175 189.693 72.1064C188.19 72.8954 187.101 73.8535 186.443 74.9994C185.786 76.1453 185.467 77.3099 185.467 78.531C185.467 80.1089 186.18 81.3863 187.608 82.3444C189.036 83.3024 191.065 83.7721 193.676 83.7721C195.968 83.7721 197.902 83.3964 199.48 82.6637Z" fill="#EF2B00"/>
<path d="M124 116.364C186.436 116.364 237.05 97.3316 237.05 73.8535C237.05 50.3753 186.436 31.3425 124 31.3425C61.5649 31.3425 10.9509 50.3753 10.9509 73.8535C10.9509 97.3316 61.5649 116.364 124 116.364Z" stroke="#EF2B00" stroke-width="2" stroke-miterlimit="10"/>
<path d="M124 122C190.834 122 245.014 100.444 245.014 73.8534C245.014 47.2628 190.834 25.7069 124 25.7069C57.1656 25.7069 2.9856 47.2628 2.9856 73.8534C2.9856 100.444 57.1656 122 124 122Z" stroke="#EF2B00" stroke-width="4" stroke-miterlimit="10"/>
</svg>
