<svg width="83" height="34" viewBox="0 0 83 34" fill="none" xmlns="http://www.w3.org/2000/svg">
<g id="Group 81">
<g id="Group">
<path id="Vector" d="M12.9845 9.30898H17.8475C18.2845 11.3378 18.6715 13.5103 19.0149 15.8201C19.3582 18.1299 19.5767 20.1962 19.6641 22.0191H19.7827C20.5319 20.4085 21.4745 18.6231 22.6107 16.6629C23.7468 14.7027 25.0328 12.5302 26.4874 10.158L26.9993 9.30898H31.8436L28.8971 23.124H24.9267L26.4499 15.9886C26.5436 15.4643 26.6435 15.0023 26.7558 14.6153C26.8682 14.2282 26.9681 13.9036 27.0617 13.6352C27.0867 13.529 27.1304 13.4291 27.1803 13.3355H27.043L21.2498 23.124H17.7102L16.0871 13.3355H15.9872C15.9747 13.4416 15.9622 13.5602 15.9497 13.6913C15.8811 14.2969 15.7562 15.0647 15.5752 15.9824L14.052 23.1178H10.0566L12.9845 9.30273V9.30898Z" fill="#EF2B00"/>
<path id="Vector_2" d="M33.4359 22.9555C32.7867 22.6184 32.281 22.144 31.9252 21.5197C31.5693 20.9017 31.3945 20.1838 31.3945 19.366C31.3945 18.2048 31.6442 17.1311 32.1374 16.1323C32.6306 15.1397 33.3547 14.3406 34.3099 13.7538C35.265 13.1607 36.4012 12.8611 37.7184 12.8611C38.48 12.8611 39.1604 13.0172 39.7535 13.3355C40.3465 13.6539 40.8085 14.1096 41.1456 14.7089C41.4827 15.3082 41.6513 16.0261 41.6513 16.8564H41.7511C41.8323 16.3133 41.9072 15.7702 41.9884 15.2146C42.0695 14.7276 42.1756 14.0534 42.3067 13.1982H45.9025L44.7164 18.7542L44.6353 19.0726C44.5541 19.4159 44.5229 19.6719 44.5291 19.8404C44.5291 20.0152 44.6103 20.1463 44.7476 20.2337C44.885 20.3273 45.1284 20.371 45.4718 20.371L44.8225 23.4549H44.011C42.7687 23.4549 41.901 23.2739 41.4016 22.9243C40.9021 22.5685 40.6524 22.094 40.6524 21.501C40.6524 21.3574 40.6649 21.2076 40.6899 21.0452C40.7149 20.8892 40.7586 20.7269 40.8085 20.5708C40.821 20.5458 40.8335 20.5021 40.846 20.4522H40.7461C40.203 21.4947 39.5225 22.2563 38.6922 22.737C37.862 23.2177 36.8818 23.4549 35.7457 23.4549C34.8655 23.4549 34.0976 23.2864 33.4421 22.9493L33.4359 22.9555ZM39.4851 19.9278C40.0032 19.6843 40.3965 19.3722 40.6524 18.9914C40.9084 18.6106 41.0395 18.1986 41.0395 17.7678C41.0395 17.4245 40.9334 17.1248 40.7149 16.8564C40.4964 16.5942 40.178 16.3882 39.766 16.2446C39.354 16.101 38.8358 16.0261 38.2115 16.0261C37.3938 16.0261 36.732 16.1572 36.2326 16.4194C35.7332 16.6816 35.3711 17 35.1526 17.3808C34.9341 17.7616 34.828 18.1486 34.828 18.5544C34.828 19.0788 35.0652 19.5033 35.5397 19.8217C36.0141 20.1401 36.6883 20.2961 37.5561 20.2961C38.3177 20.2961 38.9607 20.1713 39.4851 19.9278Z" fill="#EF2B00"/>
<path id="Vector_3" d="M47.5199 16.4944C47.5199 16.2759 47.4575 16.126 47.3326 16.0511C47.2078 15.9762 46.9643 15.9325 46.6085 15.9325L47.2577 12.8486C48.6124 12.8486 49.5925 12.986 50.1918 13.2544C50.7911 13.5228 51.1282 13.9349 51.2031 14.4905C51.278 15.0461 51.1594 15.8077 50.8597 16.7815L50.8223 16.8814L50.3853 18.3422H50.5039C50.9908 17.0749 51.534 16.0324 52.127 15.2084C52.7201 14.3843 53.3381 13.7913 53.9748 13.4167C54.6116 13.0484 55.2546 12.8611 55.9038 12.8611C57.0088 12.8611 57.7766 13.167 58.1949 13.7788C58.6132 14.3906 58.7443 15.1834 58.5695 16.151C58.4009 17.1186 58.0014 18.1237 57.3834 19.1662L55.0486 19.0102C55.367 18.4296 55.5355 17.9427 55.5542 17.5369C55.573 17.1374 55.4606 16.8377 55.2109 16.6379C54.9612 16.4382 54.5804 16.3445 54.0622 16.3445C53.4817 16.3445 52.9386 16.5256 52.4204 16.8752C51.9085 17.231 51.484 17.6805 51.1469 18.2298C50.8098 18.7792 50.5788 19.341 50.4477 19.9216L49.7548 23.1241H46.1777L47.3451 17.6493C47.4637 17.0937 47.5262 16.7129 47.5262 16.4944H47.5199Z" fill="#EF2B00"/>
<path id="Vector_4" d="M60.5355 22.9555C59.8863 22.6184 59.3806 22.144 59.0248 21.5197C58.6689 20.9017 58.4941 20.1838 58.4941 19.366C58.4941 18.2048 58.7438 17.1311 59.237 16.1323C59.7302 15.1397 60.4543 14.3406 61.4095 13.7538C62.3646 13.1607 63.5008 12.8611 64.818 12.8611C65.5796 12.8611 66.26 13.0172 66.8531 13.3355C67.4461 13.6539 67.9081 14.1096 68.2452 14.7089C68.5823 15.3082 68.7509 16.0261 68.7509 16.8564H68.8508C68.9319 16.3133 69.0068 15.7702 69.088 15.2146C69.1691 14.7276 69.2753 14.0534 69.4064 13.1982H73.0021L71.816 18.7542L71.7349 19.0726C71.6537 19.4159 71.6225 19.6719 71.6287 19.8404C71.6287 20.0152 71.7099 20.1463 71.8472 20.2337C71.9846 20.3273 72.228 20.371 72.5714 20.371L71.9222 23.4549H71.1106C69.8683 23.4549 69.0006 23.2739 68.5012 22.9243C68.0018 22.5685 67.752 22.094 67.752 21.501C67.752 21.3574 67.7645 21.2076 67.7895 21.0452C67.8145 20.8892 67.8582 20.7269 67.9081 20.5708C67.9206 20.5458 67.9331 20.5021 67.9456 20.4522H67.8457C67.3026 21.4947 66.6221 22.2563 65.7918 22.737C64.9616 23.2177 63.9815 23.4549 62.8453 23.4549C61.9651 23.4549 61.1972 23.2864 60.5417 22.9493L60.5355 22.9555ZM66.5847 19.9278C67.1028 19.6843 67.4961 19.3722 67.752 18.9914C68.008 18.6106 68.1391 18.1986 68.1391 17.7678C68.1391 17.4245 68.033 17.1248 67.8145 16.8564C67.596 16.5942 67.2776 16.3882 66.8656 16.2446C66.4536 16.101 65.9354 16.0261 65.3112 16.0261C64.4934 16.0261 63.8316 16.1572 63.3322 16.4194C62.8328 16.6816 62.4707 17 62.2522 17.3808C62.0337 17.7616 61.9276 18.1486 61.9276 18.5544C61.9276 19.0788 62.1648 19.5033 62.6393 19.8217C63.1137 20.1401 63.7879 20.2961 64.6557 20.2961C65.4173 20.2961 66.0603 20.1713 66.5847 19.9278Z" fill="#EF2B00"/>
</g>
<path id="Vector_5" d="M41.5001 31.1272C62.2486 31.1272 79.0686 24.8022 79.0686 17C79.0686 9.19776 62.2486 2.8728 41.5001 2.8728C20.7516 2.8728 3.93164 9.19776 3.93164 17C3.93164 24.8022 20.7516 31.1272 41.5001 31.1272Z" stroke="#EF2B00" stroke-width="0.5" stroke-miterlimit="10"/>
<path id="Vector_6" d="M41.5005 33C63.7109 33 81.7159 25.8366 81.7159 17C81.7159 8.16344 63.7109 1 41.5005 1C19.2902 1 1.28516 8.16344 1.28516 17C1.28516 25.8366 19.2902 33 41.5005 33Z" stroke="#EF2B00" stroke-width="1.5" stroke-miterlimit="10"/>
</g>
</svg>
