<svg width="132" height="54" viewBox="0 0 132 54" fill="none" xmlns="http://www.w3.org/2000/svg">
<path d="M20.4236 14.7077H28.1962C28.8947 17.9505 29.5133 21.4227 30.062 25.1144C30.6108 28.8061 30.96 32.1087 31.0997 35.0222H31.2893C32.4866 32.448 33.9932 29.5944 35.8092 26.4614C37.6251 23.3284 39.6805 19.8562 42.0053 16.0647L42.8234 14.7077H50.5661L45.8566 36.7882H39.5109L41.9454 25.3838C42.0951 24.5457 42.2547 23.8073 42.4343 23.1887C42.6139 22.5701 42.7735 22.0513 42.9232 21.6222C42.9631 21.4526 43.033 21.293 43.1128 21.1433H42.8933L33.634 36.7882H27.9767L25.3825 21.1433H25.2229C25.2029 21.3129 25.183 21.5025 25.163 21.712C25.0533 22.6799 24.8537 23.9071 24.5644 25.3738L22.1298 36.7782H15.7441L20.4236 14.6978V14.7077Z" fill="white"/>
<path d="M53.1084 36.5188C52.0707 35.98 51.2625 35.2217 50.6938 34.224C50.1251 33.2362 49.8457 32.0888 49.8457 30.7817C49.8457 28.9259 50.2448 27.2097 51.033 25.6133C51.8213 24.0268 52.9787 22.7497 54.5053 21.8118C56.0318 20.8639 57.8478 20.385 59.953 20.385C61.1703 20.385 62.2579 20.6345 63.2057 21.1433C64.1536 21.6522 64.892 22.3805 65.4308 23.3384C65.9695 24.2962 66.2389 25.4437 66.2389 26.7707H66.3986C66.5283 25.9026 66.648 25.0346 66.7777 24.1466C66.9074 23.3683 67.0771 22.2907 67.2866 20.9238H73.0337L71.138 29.8039L71.0083 30.3128C70.8785 30.8615 70.8287 31.2706 70.8386 31.54C70.8386 31.8194 70.9683 32.0289 71.1878 32.1686C71.4074 32.3183 71.7965 32.3881 72.3453 32.3881L71.3076 37.317H70.0105C68.0249 37.317 66.6381 37.0277 65.8398 36.4689C65.0416 35.9002 64.6425 35.1419 64.6425 34.194C64.6425 33.9646 64.6625 33.7251 64.7024 33.4657C64.7423 33.2162 64.8121 32.9568 64.892 32.7074C64.9119 32.6675 64.9319 32.5976 64.9518 32.5178H64.7922C63.9241 34.1841 62.8366 35.4013 61.5095 36.1696C60.1825 36.9379 58.616 37.317 56.8001 37.317C55.3933 37.317 54.166 37.0476 53.1184 36.5089L53.1084 36.5188ZM62.7767 31.6797C63.6049 31.2906 64.2334 30.7917 64.6425 30.183C65.0516 29.5744 65.2611 28.9159 65.2611 28.2274C65.2611 27.6787 65.0915 27.1997 64.7423 26.7707C64.3931 26.3516 63.8842 26.0224 63.2257 25.7929C62.5672 25.5634 61.739 25.4437 60.7413 25.4437C59.4342 25.4437 58.3766 25.6532 57.5784 26.0723C56.7802 26.4913 56.2015 27.0002 55.8522 27.6088C55.503 28.2174 55.3334 28.8361 55.3334 29.4846C55.3334 30.3227 55.7125 31.0012 56.4708 31.5101C57.2291 32.0189 58.3067 32.2684 59.6936 32.2684C60.9109 32.2684 61.9386 32.0688 62.7767 31.6797Z" fill="white"/>
<path d="M75.6198 26.1919C75.6198 25.8427 75.52 25.6032 75.3205 25.4835C75.1209 25.3638 74.7318 25.2939 74.1631 25.2939L75.2007 20.365C77.3659 20.365 78.9324 20.5845 79.8902 21.0135C80.8481 21.4426 81.3869 22.1011 81.5066 22.9891C81.6263 23.8771 81.4368 25.0944 80.9578 26.6509L80.898 26.8105L80.1995 29.1453H80.3891C81.1674 27.1198 82.0354 25.4536 82.9833 24.1365C83.9312 22.8195 84.9189 21.8716 85.9367 21.273C86.9544 20.6843 87.9821 20.3849 89.0198 20.3849C90.7858 20.3849 92.013 20.8739 92.6815 21.8517C93.35 22.8295 93.5596 24.0966 93.2802 25.6432C93.0108 27.1897 92.3722 28.7961 91.3845 30.4623L87.6528 30.2129C88.1617 29.285 88.4311 28.5067 88.461 27.8582C88.4909 27.2196 88.3113 26.7407 87.9122 26.4214C87.5131 26.1021 86.9045 25.9525 86.0764 25.9525C85.1484 25.9525 84.2804 26.2418 83.4522 26.8006C82.6341 27.3693 81.9556 28.0877 81.4168 28.9657C80.878 29.8437 80.5088 30.7417 80.2993 31.6696L79.1918 36.7882H73.4746L75.3404 28.0378C75.53 27.1498 75.6298 26.5411 75.6298 26.1919H75.6198Z" fill="white"/>
<path d="M96.4248 36.5188C95.3871 35.98 94.5789 35.2217 94.0102 34.224C93.4415 33.2362 93.1621 32.0888 93.1621 30.7817C93.1621 28.9259 93.5612 27.2097 94.3494 25.6133C95.1377 24.0268 96.2951 22.7497 97.8217 21.8118C99.3482 20.8639 101.164 20.385 103.269 20.385C104.487 20.385 105.574 20.6345 106.522 21.1433C107.47 21.6522 108.208 22.3805 108.747 23.3384C109.286 24.2962 109.555 25.4437 109.555 26.7707H109.715C109.845 25.9026 109.964 25.0346 110.094 24.1466C110.224 23.3683 110.393 22.2907 110.603 20.9238H116.35L114.454 29.8039L114.325 30.3128C114.195 30.8615 114.145 31.2706 114.155 31.54C114.155 31.8194 114.285 32.0289 114.504 32.1686C114.724 32.3183 115.113 32.3881 115.662 32.3881L114.624 37.317H113.327C111.341 37.317 109.954 37.0277 109.156 36.4689C108.358 35.9002 107.959 35.1419 107.959 34.194C107.959 33.9646 107.979 33.7251 108.019 33.4657C108.059 33.2162 108.129 32.9568 108.208 32.7074C108.228 32.6675 108.248 32.5976 108.268 32.5178H108.109C107.241 34.1841 106.153 35.4013 104.826 36.1696C103.499 36.9379 101.932 37.317 100.117 37.317C98.7097 37.317 97.4824 37.0476 96.4348 36.5089L96.4248 36.5188ZM106.093 31.6797C106.921 31.2906 107.55 30.7917 107.959 30.183C108.368 29.5744 108.578 28.9159 108.578 28.2274C108.578 27.6787 108.408 27.1997 108.059 26.7707C107.709 26.3516 107.201 26.0224 106.542 25.7929C105.884 25.5634 105.055 25.4437 104.058 25.4437C102.751 25.4437 101.693 25.6532 100.895 26.0723C100.097 26.4913 99.5179 27.0002 99.1686 27.6088C98.8194 28.2174 98.6498 28.8361 98.6498 29.4846C98.6498 30.3227 99.029 31.0012 99.7873 31.5101C100.546 32.0189 101.623 32.2684 103.01 32.2684C104.227 32.2684 105.255 32.0688 106.093 31.6797Z" fill="white"/>
<path fill-rule="evenodd" clip-rule="evenodd" d="M10.9828 18.5544C8.00087 21.2055 6.41823 24.0605 6.41823 27.0002C6.41823 29.9398 8.00087 32.7948 10.9828 35.4459C13.9643 38.0967 18.3048 40.5048 23.7076 42.5364C34.5099 46.5985 49.464 49.1204 66.0045 49.1204C82.545 49.1204 97.4991 46.5985 108.301 42.5364C113.704 40.5048 118.045 38.0967 121.026 35.4459C124.008 32.7948 125.591 29.9398 125.591 27.0002C125.591 24.0605 124.008 21.2055 121.026 18.5544C118.045 15.9036 113.704 13.4955 108.301 11.4639C97.4991 7.40177 82.545 4.8799 66.0045 4.8799C49.464 4.8799 34.5099 7.40177 23.7076 11.4639C18.3048 13.4955 13.9643 15.9036 10.9828 18.5544ZM23.3844 10.6044C34.3142 6.49436 49.3828 3.96167 66.0045 3.96167C82.6262 3.96167 97.6947 6.49436 108.625 10.6044C114.088 12.6588 118.541 15.1161 121.636 17.8681C124.731 20.6197 126.509 23.7047 126.509 27.0002C126.509 30.2957 124.731 33.3806 121.636 36.1322C118.541 38.8842 114.088 41.3415 108.625 43.3959C97.6947 47.506 82.6262 50.0386 66.0045 50.0386C49.3828 50.0386 34.3142 47.506 23.3844 43.3959C17.9212 41.3415 13.4681 38.8842 10.3727 36.1322C7.27776 33.3806 5.5 30.2957 5.5 27.0002C5.5 23.7047 7.27776 20.6197 10.3727 17.8681C13.4681 15.1161 17.9212 12.6588 23.3844 10.6044Z" fill="white"/>
<path fill-rule="evenodd" clip-rule="evenodd" d="M7.71981 18.0493C4.63877 20.9474 3.10234 23.9728 3.10234 27C3.10234 30.0273 4.63877 33.0527 7.71981 35.9508C10.8035 38.8514 15.3399 41.527 21.0601 43.8029C32.4928 48.3515 48.3812 51.1954 66.0009 51.1954C83.6206 51.1954 99.509 48.3515 110.942 43.8029C116.662 41.527 121.198 38.8514 124.282 35.9508C127.363 33.0527 128.899 30.0273 128.899 27C128.899 23.9728 127.363 20.9474 124.282 18.0493C121.198 15.1487 116.662 12.4731 110.942 10.1972C99.509 5.64864 83.6206 2.80473 66.0009 2.80473C48.3812 2.80473 32.4928 5.64864 21.0601 10.1972C15.3399 12.4731 10.8035 15.1487 7.71981 18.0493ZM20.0418 7.63768C31.8724 2.93077 48.122 0.0500488 66.0009 0.0500488C83.8798 0.0500488 100.129 2.93077 111.96 7.63768C117.871 9.98957 122.748 12.8244 126.169 16.0428C129.593 19.2636 131.654 22.9656 131.654 27C131.654 31.0345 129.593 34.7365 126.169 37.9573C122.748 41.1757 117.871 44.0105 111.96 46.3624C100.129 51.0693 83.8798 53.95 66.0009 53.95C48.122 53.95 31.8724 51.0693 20.0418 46.3624C14.1304 44.0105 9.25385 41.1757 5.83242 37.9573C2.40838 34.7365 0.347656 31.0345 0.347656 27C0.347656 22.9656 2.40838 19.2636 5.83242 16.0428C9.25385 12.8244 14.1304 9.98957 20.0418 7.63768Z" fill="white"/>
</svg>
