<svg width="100%" height="100%" viewBox="0 0 244 122" fill="none" xmlns="http://www.w3.org/2000/svg">
<path d="M40.9376 17.6828C41.4734 15.8351 41.9908 13.9504 42.5451 12.1027C45.3906 11.2158 48.2546 10.3843 51.1371 9.58976C50.5827 10.2734 50.0469 10.9756 49.4926 11.6592C49.0491 12.232 48.6426 12.7679 48.1992 13.3222C50.2686 12.7309 52.3196 12.1581 54.4075 11.6223C54.7586 12.6385 55.1097 13.6732 55.4607 14.6895C55.8857 15.9275 56.2922 17.1654 56.7172 18.4034C54.1673 19.0501 51.6175 19.7338 49.0676 20.4544C48.9752 19.8446 48.9198 19.1979 48.8274 18.5697C48.735 17.8121 48.6241 17.0731 48.5502 16.297C48.4394 15.5764 48.347 14.8373 48.2731 14.1352C48.2731 14.1167 48.2731 14.1167 48.2546 14.1352H48.2176C48.1992 14.1352 48.1992 14.1352 48.1992 14.1721C48.0513 15.4101 47.8851 16.6481 47.7372 17.8861C47.6079 18.9208 47.4786 19.9555 47.3492 20.9533C44.67 21.7293 41.9908 22.5608 39.3301 23.4292C39.8844 21.5076 40.4202 19.586 40.9746 17.6643L40.9376 17.6828ZM41.1593 28.4551C41.1593 27.6975 41.1593 26.9769 41.1593 26.2193C46.333 24.5748 51.562 23.0966 56.8096 21.7848V21.5446C56.8096 21.4152 56.8096 21.2859 56.8096 21.1381C56.8096 21.1196 56.8096 21.1196 56.7911 21.1381C51.5436 22.4499 46.333 23.9281 41.1593 25.5726C41.1593 24.852 41.1593 24.1314 41.1593 23.4292C48.8828 20.9902 56.6802 18.9023 64.5331 17.1654V19.974C64.5331 20.3251 64.5331 20.6761 64.5331 21.0457C59.2671 22.2097 54.001 23.5216 48.7904 25.0183C48.772 25.0183 48.772 25.0183 48.772 25.0552C48.772 25.1661 48.772 25.2585 48.772 25.3694C48.772 25.4802 48.772 25.5726 48.772 25.6835C48.772 25.7019 48.772 25.7019 48.7904 25.6835C51.7653 24.8335 54.7401 24.039 57.7334 23.2999C60.2094 22.6901 62.7038 22.1174 65.1983 21.563C64.9765 22.838 64.7363 24.0944 64.5146 25.3694C56.6618 27.1062 48.8643 29.1941 41.1593 31.6331C41.1593 30.5799 41.1593 29.5267 41.1593 28.492V28.4551ZM56.9574 15.3547C56.9574 14.708 56.9574 14.0243 56.9574 13.3591C56.9574 11.5853 56.9574 9.82997 56.9574 8.05615C59.4703 7.42792 62.0017 6.83665 64.5331 6.26385V8.81372C65.0504 8.70285 65.5678 8.59199 66.0852 8.48113C66.0852 10.7354 66.0852 12.9711 66.0852 15.2253C65.5678 15.3362 65.0504 15.4471 64.5331 15.5579V16.5742C62.0017 17.1285 59.4703 17.7198 56.9574 18.3665C56.9574 17.3687 56.9574 16.3524 56.9574 15.3547Z" fill="#EF2B00"/>
<path d="M67.8208 19.4936C68.0056 18.0154 68.1719 16.5188 68.3566 15.0406C68.4675 14.0243 68.5783 12.9527 68.7077 11.9364C68.7077 11.9179 68.7077 11.9179 68.6892 11.9364C68.0425 12.0657 67.4143 12.1951 66.7676 12.3429C66.7676 10.3104 66.7676 8.29638 66.7676 6.26388C69.7424 5.63565 72.7173 5.06286 75.7106 4.52702C75.5073 6.89211 75.3041 9.2572 75.1193 11.6408C74.8052 15.2438 74.528 18.8469 74.2139 22.413C71.9227 22.838 69.6316 23.2814 67.3589 23.7619C67.5067 22.3576 67.6914 20.9533 67.8393 19.5121L67.8208 19.4936ZM76.1356 4.43463C78.8332 3.9727 81.5309 3.52925 84.2471 3.14122C84.0438 6.26388 83.8406 9.40502 83.6373 12.5277C83.4526 15.3177 83.2863 18.0893 83.1015 20.9164C80.7179 21.2674 78.3343 21.6554 75.9693 22.0619C76.0801 20.8055 76.191 19.549 76.2834 18.2926C76.4681 16.5742 76.616 14.8928 76.7453 13.2113C76.8377 12.269 76.8931 11.3267 76.9855 10.3843C76.9855 10.3658 76.9855 10.3658 76.967 10.3843C76.5236 10.4582 76.0616 10.5321 75.6182 10.6245C75.7845 8.57354 75.9508 6.52256 76.1356 4.47159V4.43463ZM84.8199 16.2416C84.8199 14.9852 84.8199 13.7102 84.8199 12.4353V2.62386C87.3143 2.27279 89.7903 1.95868 92.2847 1.68152V7.03993C92.8021 6.98449 93.3194 6.92906 93.8553 6.87363V14.6156C93.3379 14.671 92.8205 14.7265 92.2847 14.7819V20.7131C89.7903 20.9903 87.2958 21.3044 84.8199 21.6554V16.2416Z" fill="#EF2B00"/>
<path d="M94.8915 6.41161V1.55209C97.3675 1.29341 99.8619 1.07168 102.338 0.886909V4.00957C102.375 3.76936 102.412 3.51068 102.449 3.27048C102.449 3.27048 102.516 3.20889 102.652 3.0857C103.003 2.32814 103.336 1.55209 103.687 0.794523C105.608 0.48041 106.976 0.332591 108.565 0.369546C110.32 0.4065 111.447 1.25645 111.447 2.51291V7.37243C111.447 8.40716 111.447 9.46036 111.447 10.5136C105.922 10.7353 100.398 11.1233 94.873 11.6961V6.39314L94.8915 6.41161ZM96.3512 17.1654V14.9296C101.71 14.4123 107.068 14.0612 112.426 13.858V13.6177C112.426 13.4884 112.426 13.3591 112.426 13.2112C112.426 13.1928 112.426 13.1928 112.408 13.1928C107.05 13.396 101.691 13.7471 96.3512 14.2645V12.1026C104.333 11.3266 112.334 10.9201 120.335 10.8462V14.7449C114.958 14.7818 109.599 14.9851 104.241 15.3546C104.223 15.3546 104.223 15.3546 104.223 15.3731V15.6872C104.223 15.7981 104.223 15.8905 104.223 16.0013C104.223 16.0198 104.223 16.0198 104.241 16.0198C107.29 15.8165 110.357 15.6687 113.406 15.5579C115.937 15.4655 118.469 15.4285 121.018 15.41C120.778 16.6295 120.556 17.849 120.316 19.0685C112.316 19.124 104.333 19.549 96.3512 20.325V17.1839V17.1654ZM104.426 7.92675C104.426 7.92675 104.444 7.92675 104.444 7.90827V5.39536C104.444 4.98886 104.038 4.84104 103.502 4.878C103.04 4.91495 102.781 4.95191 102.338 5.02582V6.37466C102.338 6.94745 102.338 7.50177 102.338 8.05609C103.04 8.00066 103.724 7.9637 104.426 7.90827V7.92675ZM112.593 7.46482V0.166296C115.18 0.0739093 117.748 0.0184773 120.335 0V2.54986C120.852 2.54986 121.388 2.54986 121.905 2.54986V9.29407C121.388 9.29407 120.852 9.29407 120.335 9.29407V10.3103C117.748 10.3288 115.18 10.3842 112.593 10.4766V7.46482Z" fill="#EF2B00"/>
<path d="M123.662 13.9134C123.847 12.4721 124.013 11.0124 124.198 9.57119C124.309 8.57342 124.42 7.53869 124.549 6.54092C124.549 6.52244 124.549 6.52244 124.531 6.52244C123.884 6.52244 123.237 6.52244 122.572 6.52244V0.44342C125.603 0.44342 128.614 0.498853 131.626 0.609716C131.423 2.93785 131.22 5.26599 131.016 7.59412C130.702 11.1233 130.407 14.6709 130.093 18.1816C127.783 18.1077 125.455 18.0707 123.145 18.0707C123.293 16.7034 123.478 15.3176 123.644 13.9318L123.662 13.9134ZM132.107 0.609716C134.841 0.702102 137.557 0.849921 140.292 1.03469C140.089 4.1204 139.885 7.2061 139.682 10.3103C139.497 13.0634 139.331 15.798 139.146 18.5881C136.744 18.4403 134.342 18.3109 131.959 18.237C132.07 16.9991 132.18 15.7611 132.273 14.5231C132.458 12.8417 132.605 11.1972 132.735 9.53424C132.827 8.61037 132.883 7.68651 132.975 6.74417C132.975 6.72569 132.975 6.72569 132.956 6.72569C132.495 6.72569 132.051 6.68874 131.589 6.67026C131.755 4.65624 131.94 2.64222 132.107 0.609716ZM140.865 14.2644C140.865 13.008 140.865 11.733 140.865 10.4581V0.646671C143.359 0.812966 145.872 1.03469 148.367 1.2749V6.63331C148.884 6.68874 149.401 6.74417 149.937 6.7996C149.937 9.38642 149.937 11.9732 149.937 14.5601C149.42 14.5046 148.902 14.4492 148.367 14.3938V20.325C145.872 20.0848 143.378 19.8815 140.865 19.6967V14.2644Z" fill="#EF2B00"/>
<path d="M155.868 12.6938C155.443 12.5829 155.036 12.4166 154.685 12.2503C152.616 11.3265 151.47 10.0331 151.47 8.55487C151.47 8.18532 151.599 7.77882 151.729 7.59405C151.729 7.59405 151.729 7.58789 151.729 7.57557C151.267 7.52014 150.823 7.48319 150.361 7.42776V5.24744C156.2 5.85719 162.039 6.67019 167.841 7.66796V9.84828C165.79 9.49721 163.739 9.16462 161.688 8.86898C163.628 9.34939 165.568 9.84828 167.508 10.3656C167.527 10.5319 167.527 10.6798 167.527 10.8091C167.527 12.1025 166.677 12.9525 165.328 13.359C163.887 13.7839 161.817 13.8024 159.508 13.4698C158.177 13.285 156.939 13.0079 155.849 12.6753L155.868 12.6938ZM151.969 1.53351C157.013 2.08783 162.057 2.80844 167.065 3.63992C166.806 4.67464 166.529 5.72785 166.27 6.76257C162.63 6.15282 158.99 5.63546 155.332 5.17353C154.186 5.02571 153.077 4.89637 151.969 4.78551V1.53351ZM152.394 17.7935C152.394 17.0914 152.394 16.3708 152.394 15.6686C157.715 16.2784 163.037 17.0359 168.34 17.9598V17.3685C168.34 17.3685 168.34 17.35 168.321 17.35C163.037 16.4262 157.734 15.6686 152.394 15.0773V13.1003C160.358 14.0057 168.284 15.2621 176.174 16.8696V20.4358C170.908 19.3641 165.605 18.4402 160.284 17.6826C160.265 17.6826 160.265 17.6826 160.265 17.7011V17.9968C160.265 18.1076 160.265 18.1815 160.265 18.2924C160.265 18.3109 160.265 18.3109 160.284 18.3109C163.295 18.7358 166.326 19.2347 169.319 19.7706C171.832 20.214 174.326 20.6944 176.821 21.2118C176.599 22.3204 176.359 23.4291 176.137 24.5192C168.266 22.9117 160.339 21.6553 152.375 20.7499V17.812L152.394 17.7935ZM158.417 9.94066C158.713 10.107 159.064 10.2548 159.508 10.3102C160.487 10.4396 161.152 10.2363 161.152 9.47873C161.152 9.14614 160.949 8.88746 160.598 8.68421C159.877 8.57335 159.156 8.48096 158.436 8.38857C158.196 8.46248 157.882 8.66573 157.882 9.0168C157.882 9.4233 158.085 9.68198 158.417 9.92219V9.94066ZM168.543 11.6221V3.99098C171.093 4.43444 173.643 4.91485 176.174 5.43221V8.07446C176.691 8.18532 177.209 8.29619 177.726 8.38857V15.1882C177.209 15.0773 176.691 14.9665 176.174 14.8741V16.2045C173.624 15.6871 171.093 15.2067 168.543 14.7632V11.6221Z" fill="#EF2B00"/>
<path d="M178.5 14.8373C178.5 13.6548 178.5 12.5092 178.5 11.3636C179.719 11.3082 180.939 11.2712 182.159 11.2343C182.269 11.2343 182.306 11.1973 182.306 11.1419C181.031 10.8462 179.775 10.5691 178.5 10.2919V6.28235C180.754 6.76276 183.008 7.28012 185.263 7.81596V11.8255C184.782 11.7147 184.302 11.6038 183.84 11.4929V15.7981C183.84 15.7981 183.84 15.8166 183.858 15.8166C184.487 15.9644 185.115 16.1123 185.743 16.2601C185.595 17.2763 185.466 18.3111 185.318 19.3273C183.045 18.773 180.773 18.2556 178.5 17.7752V14.8373ZM180.699 23.3553C180.699 22.376 180.699 21.3968 180.699 20.4359V18.9578C183.563 19.6045 186.427 20.2881 189.291 21.0272V22.7641C189.291 22.7641 189.291 22.7826 189.309 22.801C194.668 24.1868 199.971 25.7204 205.255 27.4388C205.107 28.954 204.959 30.4506 204.793 31.9658C196.848 29.3974 188.792 27.2171 180.68 25.4063V23.3923L180.699 23.3553ZM185.78 16.297C185.78 14.9482 185.78 13.4885 185.78 12.1581V7.9453C187.96 8.48114 190.122 9.03546 192.284 9.60826C192.284 10.9386 192.247 12.269 192.247 13.5993C191.656 13.4331 191.065 13.2852 190.473 13.1189C190.455 13.1189 190.455 13.1189 190.455 13.1189V17.4241C190.455 17.4241 190.455 17.4426 190.473 17.4611C191.268 17.6643 192.081 17.8861 192.875 18.1078C192.783 19.1425 192.709 20.1773 192.617 21.212C190.344 20.6022 188.071 20.011 185.78 19.4566V16.2786V16.297ZM193.097 15.7058V9.49739C194.686 9.94085 196.275 10.3843 197.864 10.8462C197.864 12.1951 197.864 13.5439 197.864 14.8743C197.864 14.8928 197.864 14.8928 197.883 14.9112C198.234 15.0221 198.585 15.1145 198.954 15.2253C198.973 15.2253 198.973 15.2253 198.973 15.2253V11.1788C200.894 11.7516 202.816 12.3429 204.719 12.9526V26.3671C202.816 25.7574 200.894 25.1476 198.973 24.5933V20.6022C198.973 20.6022 198.973 20.5838 198.954 20.5653C198.603 20.4544 198.252 20.362 197.883 20.2512C197.864 20.2512 197.864 20.2512 197.864 20.2512C197.864 21.3598 197.864 22.4684 197.864 23.5771C196.275 23.1151 194.686 22.6532 193.097 22.2282V15.7058Z" fill="#EF2B00"/>
<path d="M37.5975 49.8789H51.9913C53.2847 55.884 54.4303 62.3141 55.4465 69.1507C56.4628 75.9873 57.1095 82.1032 57.3682 87.4986H57.7192C59.9365 82.7315 62.7266 77.447 66.0894 71.6451C69.4523 65.8432 73.2586 59.4132 77.5638 52.3918L79.0789 49.8789H93.4173L84.696 90.7691H72.9445L77.4529 69.6496C77.7301 68.0975 78.0257 66.7302 78.3583 65.5846C78.6909 64.439 78.9866 63.4782 79.2637 62.6836C79.3376 62.3695 79.467 62.0739 79.6148 61.7967H79.2083L62.0614 90.7691H51.5848L46.7807 61.7967H46.485C46.4481 62.1108 46.4111 62.4619 46.3742 62.8499C46.1709 64.6422 45.8014 66.9149 45.2655 69.6311L40.7571 90.7506H28.9316L37.5975 49.8604V49.8789Z" fill="#EF2B00"/>
<path d="M98.128 90.2701C96.2064 89.2723 94.7097 87.868 93.6565 86.0203C92.6033 84.1911 92.0859 82.0662 92.0859 79.6457C92.0859 76.2089 92.825 73.0308 94.2847 70.0744C95.7444 67.1365 97.8878 64.7714 100.715 63.0346C103.542 61.2792 106.905 60.3923 110.803 60.3923C113.058 60.3923 115.072 60.8543 116.827 61.7966C118.582 62.7389 119.95 64.0878 120.947 65.8616C121.945 67.6354 122.444 69.7603 122.444 72.2178H122.74C122.98 70.6103 123.202 69.0027 123.442 67.3583C123.682 65.917 123.996 63.9215 124.384 61.3901H135.027L131.516 77.8349L131.276 78.7772C131.036 79.7935 130.944 80.551 130.962 81.0499C130.962 81.5673 131.202 81.9553 131.609 82.214C132.015 82.4911 132.736 82.6205 133.752 82.6205L131.831 91.7483H129.428C125.752 91.7483 123.183 91.2124 121.705 90.1777C120.227 89.1245 119.488 87.7202 119.488 85.9649C119.488 85.5399 119.525 85.0964 119.599 84.616C119.672 84.1541 119.802 83.6737 119.95 83.2118C119.987 83.1378 120.024 83.0085 120.061 82.8607H119.765C118.157 85.9464 116.143 88.2006 113.686 89.6234C111.228 91.0461 108.327 91.7483 104.965 91.7483C102.359 91.7483 100.087 91.2494 98.1465 90.2516L98.128 90.2701ZM116.032 81.3086C117.566 80.588 118.73 79.6641 119.488 78.537C120.245 77.4099 120.633 76.1904 120.633 74.9155C120.633 73.8992 120.319 73.0123 119.673 72.2178C119.026 71.4417 118.083 70.832 116.864 70.407C115.644 69.982 114.111 69.7603 112.263 69.7603C109.843 69.7603 107.884 70.1483 106.406 70.9244C104.928 71.7004 103.856 72.6428 103.209 73.7699C102.563 74.897 102.248 76.0426 102.248 77.2436C102.248 78.7957 102.951 80.0522 104.355 80.9945C105.759 81.9368 107.755 82.3988 110.323 82.3988C112.577 82.3988 114.48 82.0292 116.032 81.3086Z" fill="#EF2B00"/>
<path d="M139.812 71.1463C139.812 70.4996 139.628 70.0562 139.258 69.8344C138.889 69.6127 138.168 69.4834 137.115 69.4834L139.036 60.3556C143.046 60.3556 145.947 60.7621 147.721 61.5566C149.495 62.3511 150.492 63.5706 150.714 65.2151C150.936 66.8596 150.585 69.1138 149.698 71.9963L149.587 72.2919L148.294 76.6156H148.645C150.086 72.8647 151.693 69.779 153.449 67.34C155.204 64.901 157.033 63.1457 158.918 62.037C160.803 60.9469 162.706 60.3925 164.627 60.3925C167.898 60.3925 170.171 61.2979 171.409 63.1087C172.647 64.9195 173.035 67.2661 172.517 70.1301C172.018 72.994 170.836 75.9689 169.007 79.0546L162.096 78.5927C163.038 76.8743 163.537 75.433 163.593 74.232C163.648 73.0495 163.316 72.1626 162.576 71.5713C161.837 70.98 160.71 70.7029 159.177 70.7029C157.458 70.7029 155.851 71.2387 154.317 72.2734C152.802 73.3266 151.546 74.657 150.548 76.283C149.55 77.909 148.866 79.572 148.478 81.2903L146.427 90.7692H135.84L139.295 74.5646C139.646 72.9201 139.831 71.793 139.831 71.1463H139.812Z" fill="#EF2B00"/>
<path d="M178.339 90.2701C176.417 89.2723 174.921 87.868 173.867 86.0203C172.814 84.1911 172.297 82.0662 172.297 79.6457C172.297 76.2089 173.036 73.0308 174.496 70.0744C175.955 67.1365 178.099 64.7714 180.926 63.0346C183.753 61.2792 187.116 60.3923 191.014 60.3923C193.269 60.3923 195.283 60.8543 197.038 61.7966C198.793 62.7389 200.161 64.0878 201.158 65.8616C202.156 67.6354 202.655 69.7603 202.655 72.2178H202.951C203.191 70.6103 203.413 69.0027 203.653 67.3583C203.893 65.917 204.207 63.9215 204.595 61.3901H215.238L211.727 77.8349L211.487 78.7772C211.247 79.7935 211.155 80.551 211.173 81.0499C211.173 81.5673 211.413 81.9553 211.82 82.214C212.226 82.4911 212.947 82.6205 213.963 82.6205L212.041 91.7483H209.639C205.962 91.7483 203.394 91.2124 201.916 90.1777C200.438 89.1245 199.699 87.7202 199.699 85.9649C199.699 85.5399 199.736 85.0964 199.81 84.616C199.883 84.1541 200.013 83.6737 200.161 83.2118C200.198 83.1378 200.235 83.0085 200.271 82.8607H199.976C198.368 85.9464 196.354 88.2006 193.897 89.6234C191.439 91.0461 188.538 91.7483 185.176 91.7483C182.57 91.7483 180.298 91.2494 178.357 90.2516L178.339 90.2701ZM196.243 81.3086C197.777 80.588 198.941 79.6641 199.699 78.537C200.456 77.4099 200.844 76.1904 200.844 74.9155C200.844 73.8992 200.53 73.0123 199.883 72.2178C199.237 71.4417 198.294 70.832 197.075 70.407C195.855 69.982 194.322 69.7603 192.474 69.7603C190.054 69.7603 188.095 70.1483 186.617 70.9244C185.139 71.7004 184.067 72.6428 183.42 73.7699C182.773 74.897 182.459 76.0426 182.459 77.2436C182.459 78.7957 183.162 80.0522 184.566 80.9945C185.97 81.9368 187.966 82.3988 190.534 82.3988C192.788 82.3988 194.691 82.0292 196.243 81.3086Z" fill="#EF2B00"/>
<path d="M121.999 114.457C183.411 114.457 233.195 95.7361 233.195 72.6428C233.195 49.5495 183.411 30.8287 121.999 30.8287C60.587 30.8287 10.8027 49.5495 10.8027 72.6428C10.8027 95.7361 60.587 114.457 121.999 114.457Z" stroke="#EF2B00" stroke-width="2" stroke-miterlimit="10"/>
<path d="M121.999 120C187.738 120 241.03 98.7974 241.03 72.6428C241.03 46.4881 187.738 25.2855 121.999 25.2855C56.2606 25.2855 2.96875 46.4881 2.96875 72.6428C2.96875 98.7974 56.2606 120 121.999 120Z" stroke="#EF2B00" stroke-width="4" stroke-miterlimit="10"/>
</svg>
