<svg width="712" height="160" viewBox="0 0 712 160" fill="none" xmlns="http://www.w3.org/2000/svg">
<path d="M33.1009 0.0705658H88.0809C93.0213 23.0083 97.3971 47.5693 101.279 73.683C105.161 99.7967 107.631 123.158 108.619 143.767H109.96C118.429 125.558 129.086 105.372 141.932 83.211C154.777 61.0496 169.316 36.4886 185.76 9.66913L191.548 0.0705658H246.316L213.003 156.259H168.116L185.337 75.5886C186.395 69.6601 187.525 64.4373 188.795 60.0615C190.066 55.6857 191.195 52.0157 192.253 48.9809C192.536 47.781 193.03 46.6518 193.594 45.5931H192.042L126.546 156.259H86.5281L68.178 45.5931H67.0487C66.9076 46.7929 66.7664 48.1339 66.6253 49.6161C65.8489 56.4621 64.4374 65.1431 62.3906 75.518L45.1697 156.188H0L33.1009 0V0.0705658Z" fill="#EF2B00" fill-opacity="0.08"/>
<path d="M264.302 154.354C256.961 150.543 251.245 145.179 247.222 138.121C243.199 131.134 241.223 123.017 241.223 113.772C241.223 100.644 244.046 88.5048 249.621 77.2124C255.197 65.9906 263.384 56.9566 274.182 50.3223C284.981 43.6175 297.826 40.2297 312.718 40.2297C321.328 40.2297 329.021 41.9942 335.726 45.5936C342.431 49.1931 347.654 54.3453 351.465 61.1207C355.276 67.8962 357.182 76.0126 357.182 85.3994H358.311C359.228 79.2592 360.075 73.1189 360.993 66.8375C361.91 61.3324 363.11 53.7101 364.592 44.0409H405.245L391.835 106.855L390.918 110.454C390 114.336 389.647 117.23 389.718 119.136C389.718 121.112 390.635 122.594 392.188 123.582C393.741 124.641 396.493 125.135 400.375 125.135L393.035 160H383.86C369.815 160 360.005 157.953 354.359 154.001C348.712 149.978 345.889 144.614 345.889 137.909C345.889 136.286 346.03 134.592 346.313 132.757C346.595 130.993 347.089 129.158 347.654 127.393C347.795 127.111 347.936 126.617 348.077 126.052H346.948C340.808 137.839 333.115 146.449 323.728 151.884C314.341 157.318 303.26 160 290.415 160C280.464 160 271.783 158.094 264.372 154.283L264.302 154.354ZM332.691 120.124C338.549 117.371 342.996 113.842 345.889 109.537C348.783 105.232 350.265 100.574 350.265 95.7037C350.265 91.822 349.065 88.4342 346.595 85.3994C344.125 82.4352 340.525 80.1061 335.867 78.4828C331.209 76.8595 325.351 76.0126 318.293 76.0126C309.048 76.0126 301.567 77.4947 295.92 80.459C290.274 83.4232 286.181 87.0227 283.71 91.3279C281.24 95.6332 280.04 100.009 280.04 104.597C280.04 110.525 282.722 115.324 288.086 118.924C293.45 122.523 301.072 124.288 310.883 124.288C319.493 124.288 326.763 122.876 332.691 120.124Z" fill="#EF2B00" fill-opacity="0.08"/>
<path d="M423.534 81.3053C423.534 78.8351 422.828 77.1413 421.416 76.2943C420.005 75.4474 417.252 74.9534 413.229 74.9534L420.569 40.088C435.885 40.088 446.965 41.6407 453.741 44.6756C460.516 47.7104 464.327 52.3685 465.174 58.6499C466.021 64.9313 464.68 73.5418 461.293 84.5519L460.869 85.6812L455.929 102.196H457.27C462.775 87.8691 468.915 76.0826 475.62 66.7664C482.325 57.4501 489.312 50.7452 496.511 46.5106C503.71 42.3465 510.979 40.2292 518.319 40.2292C530.812 40.2292 539.493 43.6875 544.221 50.6041C548.95 57.5207 550.432 66.484 548.456 77.4236C546.55 88.3631 542.033 99.7261 535.046 111.513L508.65 109.748C512.25 103.184 514.155 97.6794 514.367 93.0918C514.579 88.5749 513.308 85.1871 510.485 82.9286C507.662 80.6702 503.357 79.6115 497.499 79.6115C490.935 79.6115 484.795 81.6582 478.937 85.6106C473.15 89.6335 468.35 94.7151 464.539 100.926C460.728 107.137 458.117 113.489 456.634 120.052L448.8 156.259H408.359L421.557 94.3622C422.898 88.0808 423.604 83.7756 423.604 81.3053H423.534Z" fill="#EF2B00" fill-opacity="0.08"/>
<path d="M570.698 154.354C563.358 150.543 557.641 145.179 553.618 138.121C549.595 131.134 547.619 123.017 547.619 113.772C547.619 100.644 550.442 88.5048 556.018 77.2124C561.594 65.9906 569.781 56.9566 580.579 50.3223C591.377 43.6175 604.222 40.2297 619.114 40.2297C627.725 40.2297 635.418 41.9942 642.123 45.5936C648.827 49.1931 654.05 54.3453 657.861 61.1207C661.673 67.8962 663.578 76.0126 663.578 85.3994H664.707C665.625 79.2592 666.472 73.1189 667.389 66.8375C668.307 61.3324 669.507 53.7101 670.989 44.0409H711.642L698.232 106.855L697.314 110.454C696.397 114.336 696.044 117.23 696.114 119.136C696.114 121.112 697.032 122.594 698.585 123.582C700.137 124.641 702.89 125.135 706.772 125.135L699.432 160H690.257C676.212 160 666.401 157.953 660.755 154.001C655.109 149.978 652.286 144.614 652.286 137.909C652.286 136.286 652.427 134.592 652.709 132.757C652.992 130.993 653.486 129.158 654.05 127.393C654.191 127.111 654.332 126.617 654.474 126.052H653.344C647.204 137.839 639.511 146.449 630.124 151.884C620.738 157.318 609.657 160 596.812 160C586.86 160 578.179 158.094 570.769 154.283L570.698 154.354ZM639.088 120.124C644.946 117.371 649.392 113.842 652.286 109.537C655.179 105.232 656.662 100.574 656.662 95.7037C656.662 91.822 655.462 88.4342 652.992 85.3994C650.521 82.4352 646.922 80.1061 642.264 78.4828C637.606 76.8595 631.748 76.0126 624.69 76.0126C615.444 76.0126 607.963 77.4947 602.317 80.459C596.671 83.4232 592.577 87.0227 590.107 91.3279C587.637 95.6332 586.437 100.009 586.437 104.597C586.437 110.525 589.119 115.324 594.483 118.924C599.847 122.523 607.469 124.288 617.279 124.288C625.89 124.288 633.159 122.876 639.088 120.124Z" fill="#EF2B00" fill-opacity="0.08"/>
</svg>
