<svg className="mainlogo" width="100%" height="100%" viewBox="0 0 224 121" fill="none" xmlns="http://www.w3.org/2000/svg">
<path d="M29.8881 21.0854C30.4283 19.1669 30.9498 17.2483 31.49 15.3298C34.3212 14.2122 37.1897 13.1504 40.0582 12.1446C39.5181 12.871 38.9593 13.6161 38.4191 14.3612C37.9907 14.9572 37.5623 15.5347 37.1339 16.1493C39.1828 15.4043 41.2504 14.6778 43.3365 14.0073C43.6904 15.0131 44.0444 16.019 44.3796 17.0434C44.7894 18.2728 45.2178 19.4835 45.6276 20.7129C43.0571 21.5324 40.5053 22.3893 37.9721 23.302C37.8789 22.6873 37.8231 22.0354 37.7299 21.4207C37.6368 20.6756 37.5437 19.9306 37.4505 19.1482C37.3388 18.4218 37.2456 17.6954 37.1711 16.9875C37.1711 16.9689 37.1711 16.9689 37.1525 16.9875H37.1152C37.0966 16.9875 37.0966 16.9875 37.0966 17.0248C36.9476 18.2914 36.7986 19.558 36.6496 20.806C36.5192 21.8491 36.3888 22.9108 36.2584 23.9167C33.5762 24.9039 30.9126 25.947 28.2676 27.0459C28.8078 25.0715 29.3479 23.0785 29.9067 21.104L29.8881 21.0854ZM30.1116 31.9261C30.1116 31.1624 30.1116 30.436 30.1116 29.6723C35.2526 27.5861 40.468 25.7234 45.7208 24.047V23.8049C45.7208 23.6745 45.7208 23.5441 45.7208 23.3951C45.7208 23.3765 45.7207 23.3765 45.7021 23.3951C40.4494 25.0715 35.2526 26.9342 30.1116 29.0204V26.8597C37.7858 23.7676 45.5904 21.1227 53.4881 18.9247V21.756C53.4881 22.1099 53.4881 22.4638 53.4881 22.8363C48.1795 24.3078 42.9268 25.9842 37.7299 27.8655C37.7113 27.8655 37.7113 27.8655 37.7113 27.9028V28.5361C37.7113 28.5361 37.7113 28.5547 37.7299 28.5361C40.6916 27.4743 43.6718 26.4685 46.6707 25.5185C49.1481 24.7362 51.644 24.0098 54.1586 23.3206C53.9351 24.6058 53.693 25.9097 53.4694 27.1949C45.5717 29.3929 37.7858 32.0192 30.1116 35.1299V31.9634V31.9261ZM45.8698 17.565C45.8698 16.913 45.8698 16.2238 45.8698 15.5533C45.8698 13.7651 45.8698 11.9956 45.8698 10.2074C48.403 9.40649 50.9362 8.66143 53.4881 7.95361V10.5241C54.0096 10.3751 54.5312 10.2447 55.0341 10.0957C55.0341 12.3681 55.0341 14.622 55.0341 16.8944C54.5125 17.0248 53.991 17.1738 53.4881 17.3228V18.3473C50.9362 19.0551 48.403 19.8002 45.8698 20.6011C45.8698 19.5953 45.8698 18.5708 45.8698 17.565Z" fill="#007BED"/>
<path d="M56.767 21.0851C56.9533 19.5763 57.1209 18.0676 57.3072 16.5775C57.419 15.5344 57.5307 14.4726 57.6611 13.4295C57.6611 13.4109 57.6611 13.4109 57.6425 13.4295C56.9906 13.5972 56.3573 13.7648 55.7053 13.9325C55.7053 11.8835 55.7053 9.85323 55.7053 7.8043C58.6856 7.00335 61.7031 6.27691 64.702 5.60635C64.4971 8.00919 64.2922 10.3934 64.1059 12.7962C63.7893 16.4471 63.5099 20.0793 63.1932 23.7115C60.8835 24.233 58.5738 24.8104 56.2827 25.4065C56.4318 23.9722 56.618 22.5566 56.767 21.1037V21.0851ZM65.149 5.49459C67.8685 4.89854 70.6066 4.35837 73.3448 3.87407C73.1399 7.04061 72.935 10.2071 72.7301 13.3737C72.5438 16.2049 72.3762 18.9989 72.1899 21.8488C69.7871 22.2958 67.3842 22.7801 64.9814 23.3017C65.0932 22.0351 65.2049 20.7498 65.298 19.4832C65.4843 17.7509 65.6333 16.0373 65.7637 14.3423C65.8568 13.3923 65.9127 12.4237 66.0059 11.4737C66.0059 11.4551 66.0059 11.4551 65.9872 11.4737C65.5402 11.5669 65.0745 11.6786 64.6275 11.7718C64.7951 9.68559 64.9628 7.61803 65.149 5.53185V5.49459ZM73.9408 17.0617V3.31527C76.4554 2.86823 78.97 2.47708 81.5032 2.12317V7.5249C82.0248 7.45039 82.565 7.37589 83.0865 7.30138V15.1246C82.565 15.1991 82.0248 15.2736 81.5032 15.3481V21.3272C78.97 21.6812 76.4554 22.0723 73.9408 22.5194V17.0617Z" fill="#007BED"/>
<path d="M84.1121 6.81735C84.1121 5.15958 84.1121 3.55769 84.1121 1.91854C86.6267 1.60189 89.1413 1.32249 91.6559 1.08035V4.22825C91.6931 3.9861 91.7304 3.72533 91.7676 3.48318C91.8421 3.48318 91.8421 3.48318 91.9725 3.27829C92.3264 2.49597 92.6617 1.73228 93.0156 0.94996C94.9714 0.596053 96.3498 0.428413 97.9703 0.447039C99.7398 0.465666 100.913 1.30387 100.913 2.5891V7.48791C100.913 8.53101 100.913 9.59273 100.913 10.6544C95.3067 10.9338 89.7001 11.4368 84.1121 12.1446V6.79873V6.81735ZM85.5836 17.6208C85.5836 16.8571 85.5836 16.1307 85.5836 15.367C91.0039 14.7151 96.4429 14.2494 101.901 14.0072V13.7651C101.901 13.6347 101.901 13.5043 101.901 13.3553C101.901 13.3367 101.901 13.3367 101.882 13.3367C96.4429 13.5788 91.0039 14.0445 85.6022 14.6964C85.6022 13.97 85.6022 13.2435 85.6022 12.5357C93.6862 11.5485 101.807 11.027 109.929 10.9525V13.7837C109.929 14.1376 109.929 14.4915 109.929 14.8641C104.471 14.9199 99.032 15.1621 93.593 15.6278C93.5744 15.6278 93.5744 15.6278 93.5744 15.6464C93.5744 15.7581 93.5744 15.8513 93.5744 15.963C93.5744 16.0748 93.5744 16.1679 93.5744 16.2797C93.5744 16.2983 93.5744 16.2983 93.593 16.2983C96.685 16.0375 99.7957 15.8513 102.888 15.7209C105.458 15.6091 108.029 15.5533 110.618 15.5346C110.376 16.764 110.152 17.9933 109.91 19.2227C101.789 19.2972 93.6862 19.8188 85.6022 20.806C85.6022 19.7443 85.6022 18.6825 85.6022 17.6394L85.5836 17.6208ZM93.7793 8.13985C93.7793 8.13985 93.7979 8.13985 93.7979 8.12122C93.7979 7.28302 93.7979 6.44482 93.7979 5.588C93.7979 5.17821 93.3881 5.04782 92.848 5.08508C92.3637 5.12233 92.1215 5.17821 91.6745 5.25272V6.61246C91.6745 7.18989 91.6745 7.74869 91.6745 8.30749C92.3823 8.23298 93.0901 8.1771 93.7793 8.12122V8.13985ZM102.05 7.56242C102.05 6.91049 102.05 6.2213 102.05 5.55074V0.204893C104.676 0.0931326 107.284 0.0186267 109.91 0V2.57048C110.45 2.57048 110.972 2.57048 111.512 2.57048V9.36921C110.972 9.36921 110.45 9.36921 109.91 9.36921V10.3937C107.284 10.4123 104.676 10.4868 102.05 10.5986V7.56242Z" fill="#007BED"/>
<path d="M113.299 14.0259C113.485 12.573 113.672 11.1015 113.839 9.64859C113.951 8.64275 114.063 7.59966 114.212 6.59382C114.212 6.57519 114.212 6.57519 114.193 6.57519C113.541 6.57519 112.871 6.57519 112.219 6.57519V0.447021C115.292 0.447021 118.347 0.521527 121.42 0.651914C121.215 2.99887 121.01 5.34583 120.806 7.69279C120.489 11.2505 120.191 14.8082 119.874 18.3472C117.527 18.2541 115.162 18.2168 112.815 18.1982C112.982 16.8198 113.15 15.4415 113.318 14.0259H113.299ZM121.867 0.670541C124.643 0.800928 127.399 0.968567 130.175 1.21071C129.97 4.32136 129.765 7.43202 129.56 10.5427C129.374 13.318 129.206 16.0748 129.02 18.8688C126.58 18.6825 124.158 18.5335 121.718 18.4217C121.83 17.1738 121.942 15.9258 122.035 14.6778C122.221 12.9828 122.37 11.325 122.519 9.64859C122.612 8.71726 122.668 7.78592 122.761 6.83596C122.761 6.81734 122.761 6.81734 122.743 6.81734C122.277 6.79871 121.811 6.78008 121.346 6.76146C121.513 4.73115 121.7 2.70085 121.867 0.670541ZM130.752 14.5474C130.752 13.2808 130.752 11.9955 130.752 10.7103V0.819554C133.285 1.04307 135.819 1.30385 138.352 1.6205C138.352 3.42729 138.352 5.21545 138.352 7.02223C138.873 7.07811 139.414 7.15262 139.935 7.22712V15.0317C139.414 14.9572 138.873 14.9013 138.352 14.8268C138.352 16.8199 138.352 18.8129 138.352 20.806C135.819 20.4893 133.285 20.2285 130.752 20.005V14.5474Z" fill="#007BED"/>
<path d="M145.968 13.3368C145.54 13.2064 145.13 13.0202 144.776 12.8525C142.671 11.8653 141.516 10.5242 141.516 9.03406C141.516 8.66153 141.647 8.25174 141.796 8.06548C141.814 8.04685 141.814 8.06547 141.796 8.04685C141.33 7.99097 140.883 7.91646 140.417 7.86058C140.417 7.13414 140.417 6.4077 140.417 5.66264C146.341 6.44496 152.245 7.46942 158.094 8.73604V10.934C156.027 10.4869 153.959 10.0772 151.873 9.68599C153.829 10.2448 155.803 10.8222 157.759 11.4369C157.777 11.6045 157.777 11.7536 157.777 11.8839C157.777 13.1878 156.921 14.0074 155.561 14.3613C154.108 14.7338 152.022 14.6593 149.675 14.2495C148.315 14.0074 147.086 13.6907 145.987 13.3182L145.968 13.3368ZM142.019 1.95593C147.123 2.66375 152.227 3.55782 157.293 4.63817C157.032 5.68126 156.753 6.70573 156.492 7.74882C152.823 6.98513 149.135 6.31457 145.447 5.73714C144.292 5.55088 143.174 5.40186 142.038 5.23422C142.038 4.13525 142.038 3.03628 142.038 1.95593H142.019ZM142.448 18.366C142.448 17.6582 142.448 16.9318 142.448 16.224C147.849 16.9876 153.214 17.9562 158.56 19.1111V18.8876C158.56 18.7758 158.56 18.6454 158.56 18.515C158.56 18.4964 158.56 18.4964 158.541 18.4964C153.214 17.3229 147.831 16.373 142.448 15.6093V13.6348C150.513 14.7711 158.523 16.3543 166.457 18.4033C166.457 18.664 166.457 18.9248 166.457 19.1856C166.457 19.8003 166.457 20.4149 166.457 21.011C166.457 21.3463 166.457 21.6629 166.457 21.9982C161.149 20.6385 155.803 19.465 150.439 18.4964C150.42 18.4964 150.42 18.4964 150.42 18.515C150.42 18.6082 150.42 18.7013 150.42 18.8131C150.42 18.9248 150.42 18.9993 150.42 19.1111C150.42 19.1297 150.42 19.1297 150.439 19.1297C153.493 19.6699 156.529 20.2846 159.566 20.9737C162.099 21.5325 164.613 22.1472 167.128 22.7992C166.905 23.8981 166.662 24.9971 166.439 26.1147C158.523 24.0658 150.513 22.4825 142.448 21.3463V18.3846V18.366ZM148.539 10.6546C148.837 10.8408 149.191 10.9899 149.638 11.0644C150.625 11.232 151.295 11.0644 151.295 10.3007C151.295 9.96539 151.09 9.70462 150.737 9.4811C150.01 9.35071 149.284 9.22033 148.557 9.08994C148.315 9.16445 147.998 9.35071 147.998 9.70462C147.998 10.1144 148.203 10.3938 148.539 10.6546ZM158.765 12.7594C158.765 12.0702 158.765 11.3438 158.765 10.6546V5.06658C161.335 5.62538 163.906 6.24006 166.457 6.91062C166.457 7.8047 166.457 8.68016 166.457 9.57423C166.979 9.70462 167.501 9.83501 168.022 9.98402C168.022 12.2565 168.022 14.5476 168.022 16.82C167.501 16.6896 166.979 16.5406 166.457 16.4102C166.457 16.8573 166.457 17.3043 166.457 17.7513C163.906 17.0994 161.335 16.4847 158.765 15.9073V12.7594Z" fill="#007BED"/>
<path d="M168.806 16.4844C168.806 15.2923 168.806 14.1375 168.806 12.9826C170.035 12.9826 171.265 13.0385 172.475 13.0757C172.587 13.0757 172.624 13.0571 172.624 12.9826C171.358 12.6101 170.073 12.2562 168.787 11.9209V7.87891C171.06 8.49359 173.314 9.14552 175.567 9.8347C175.567 11.1758 175.567 12.5356 175.567 13.8767C175.083 13.7277 174.618 13.5787 174.133 13.4483V17.7697C174.133 17.7697 174.133 17.7883 174.152 17.8069C174.785 17.9932 175.418 18.1794 176.052 18.3843C175.903 19.4088 175.772 20.4333 175.642 21.4577C173.37 20.7686 171.078 20.1166 168.787 19.4833V16.4844H168.806ZM171.023 25.2017C171.023 24.2145 171.023 23.2273 171.023 22.2587C171.023 21.7558 171.023 21.2528 171.023 20.7686C173.91 21.5881 176.778 22.4449 179.628 23.3763V24.2704C179.628 24.5311 179.628 24.8478 179.628 25.1272C179.628 25.1458 179.628 25.1458 179.647 25.1644C185.011 26.9153 190.301 28.8711 195.554 31.0505C195.405 32.5592 195.256 34.068 195.107 35.5767C187.209 32.3171 179.162 29.5603 171.023 27.2693C171.023 26.5987 171.023 25.9095 171.023 25.2389V25.2017ZM176.126 18.3843C176.126 17.0246 176.126 15.5531 176.126 14.212V9.96509C178.306 10.6357 180.485 11.3435 182.646 12.0885C182.646 13.4296 182.608 14.7708 182.608 16.1119C182.012 15.907 181.435 15.7207 180.839 15.5158C180.82 15.5158 180.82 15.5158 180.82 15.5158V19.8745C180.82 19.8745 180.82 19.8931 180.839 19.9117C181.64 20.1725 182.441 20.4519 183.242 20.7313C183.149 21.7744 183.074 22.7989 182.981 23.8419C180.708 23.0596 178.436 22.3146 176.145 21.6068V18.403L176.126 18.3843ZM183.447 18.2726C183.447 16.1678 183.447 14.1188 183.447 12.014C185.048 12.5728 186.632 13.1316 188.215 13.7277V17.8069C188.215 17.8069 188.215 17.8255 188.234 17.8442C188.587 17.9746 188.941 18.1049 189.295 18.2353C189.314 18.2353 189.314 18.2353 189.314 18.2353C189.314 16.8756 189.314 15.5158 189.314 14.1747C191.232 14.9012 193.132 15.6462 195.032 16.4285C195.032 17.5648 195.032 18.701 195.032 19.8372C195.032 21.7744 195.032 23.7116 195.032 25.6301C195.032 27.0644 195.032 28.4986 195.032 29.9329C193.132 29.1505 191.232 28.4055 189.314 27.679C189.314 26.3379 189.314 24.9968 189.314 23.6557C189.314 23.6371 189.314 23.6371 189.295 23.6184C188.941 23.488 188.587 23.3577 188.234 23.2273C188.215 23.2273 188.215 23.2273 188.215 23.2273V26.5801C186.632 25.984 185.048 25.4252 183.447 24.8664C183.447 22.6685 183.447 20.4705 183.447 18.2726Z" fill="#007BED"/>
<path d="M34.9944 89.5642C31.8278 88.13 29.6113 86.0997 28.3633 83.4547C27.0967 80.8283 26.78 77.6991 27.3574 74.0669L38.6266 71.4219C38.3099 73.0424 38.5148 74.4953 39.2412 75.8178C39.9677 77.1403 41.2343 78.1647 43.0224 78.9098C44.8106 79.6549 47.0831 80.0274 49.8398 80.0274C51.7211 80.0274 53.323 79.8411 54.6082 79.4686C55.8935 79.0961 56.8621 78.5931 57.4954 77.9598C58.1287 77.3265 58.5198 76.6373 58.6688 75.8923C58.8179 75.1845 58.7806 74.5884 58.5198 74.0855C58.2591 73.6012 57.7003 73.1728 56.8434 72.8189C55.9866 72.465 54.72 72.1483 53.0622 71.8689L43.6185 70.565C39.4461 69.969 36.3914 68.7583 34.4169 66.9328C32.4425 65.1074 31.7533 62.7791 32.3494 59.9479C33.2062 56.0921 35.6277 53.1491 39.5765 51.1002C43.5254 49.0513 48.2938 48.0268 53.8818 48.0268C58.0914 48.0268 61.6677 48.5483 64.6107 49.5914C67.5538 50.6345 69.789 52.3668 71.2977 54.8069C72.8065 57.247 73.3839 60.5439 73.03 64.7163L61.2393 67.8456C61.7981 65.8898 61.6305 64.2879 60.7736 63.0771C59.9168 61.8664 58.5943 60.9723 56.8434 60.4135C55.0925 59.8733 53.1181 59.5939 50.9201 59.5939C48.5918 59.5939 46.8223 59.892 45.6115 60.5067C44.4008 61.1213 43.6371 62.0154 43.3764 63.1889C43.2273 63.8595 43.246 64.4369 43.4322 64.9025C43.6371 65.3682 44.0655 65.778 44.7361 66.1505C45.4067 66.5044 46.3566 66.7838 47.5673 66.9701L56.6572 68.1995C60.1217 68.7583 62.8785 69.4847 64.9088 70.416C66.9391 71.3474 68.3733 72.5022 69.1556 73.9178C69.938 75.3335 70.1242 77.0285 69.6772 78.9843C69.1743 81.5734 67.7959 83.8459 65.5421 85.8017C63.3069 87.7388 60.5501 89.2103 57.3091 90.1975C54.0681 91.1848 50.678 91.669 47.1389 91.669C42.1842 91.669 38.1236 90.9612 34.9571 89.5084L34.9944 89.5642Z" fill="#007BED"/>
<path d="M79.1028 90.0298C77.1656 89.0239 75.6568 87.6083 74.5951 85.7456C73.5334 83.9016 73.0118 81.7595 73.0118 79.3194C73.0118 75.8549 73.7569 72.6511 75.2284 69.6708C76.6999 66.7092 78.8606 64.325 81.7105 62.5741C84.5604 60.8045 87.9504 59.9105 91.8806 59.9105C94.1531 59.9105 96.1834 60.3761 97.9529 61.3261C99.7225 62.276 101.101 63.6358 102.107 65.424C103.113 67.2121 103.615 69.3542 103.615 71.8315H103.913C104.156 70.211 104.379 68.5905 104.621 66.9327C104.863 65.4798 105.18 63.4682 105.571 60.9163H116.3L112.761 77.494L112.519 78.444C112.277 79.4685 112.165 80.2321 112.202 80.7351C112.221 81.2566 112.444 81.6478 112.854 81.9085C113.264 82.1879 113.99 82.3183 115.015 82.3183L113.059 91.5199H110.638C106.95 91.5199 104.342 90.9797 102.852 89.9366C101.362 88.8749 100.617 87.4593 100.617 85.6898C100.617 85.2613 100.654 84.8143 100.728 84.33C100.803 83.8643 100.933 83.38 101.082 82.9144C101.119 82.8399 101.157 82.7095 101.194 82.5605H100.896C99.2754 85.6711 97.2451 87.9436 94.7678 89.3778C92.2904 90.8121 89.366 91.5199 85.976 91.5199C83.3496 91.5199 81.0586 91.017 79.1028 90.0111V90.0298ZM97.152 80.9958C98.698 80.2694 99.8715 79.3381 100.635 78.2018C101.399 77.0656 101.79 75.8363 101.79 74.551C101.79 73.5265 101.473 72.6325 100.821 71.8315C100.17 71.0492 99.2382 70.4345 97.9902 70.0061C96.7422 69.5777 95.2148 69.3542 93.3521 69.3542C90.9121 69.3542 88.9563 69.7453 87.4475 70.5277C85.9574 71.31 84.877 72.2599 84.2251 73.3962C83.5732 74.5138 83.2565 75.6872 83.2565 76.898C83.2565 78.4626 83.9643 79.7292 85.3799 80.6792C86.7956 81.6291 88.8072 82.0948 91.3964 82.0948C93.6688 82.0948 95.5873 81.7223 97.152 80.9958Z" fill="#007BED"/>
<path d="M121.145 70.7516C121.145 70.0996 120.959 69.6526 120.586 69.4291C120.214 69.2056 119.487 69.0752 118.425 69.0752L120.363 59.8736C124.405 59.8736 127.329 60.2834 129.117 61.0843C130.905 61.8853 131.911 63.1146 132.135 64.7724C132.358 66.4302 132.004 68.7026 131.11 71.6084L130.998 71.9064L129.695 76.2651H130.049C131.501 72.4838 133.122 69.3732 134.891 66.9145C136.661 64.4558 138.505 62.6862 140.405 61.5686C142.305 60.4696 144.223 59.9109 146.161 59.9109C149.458 59.9109 151.749 60.8236 152.997 62.649C154.263 64.4744 154.636 66.84 154.114 69.7271C153.611 72.6142 152.419 75.6131 150.575 78.7238L143.609 78.2581C144.559 76.5258 145.062 75.0729 145.117 73.8622C145.173 72.6701 144.838 71.776 144.093 71.18C143.348 70.5839 142.212 70.3045 140.666 70.3045C138.933 70.3045 137.294 70.8447 135.767 71.8878C134.24 72.9495 132.973 74.2906 131.967 75.9298C130.961 77.5689 130.272 79.2453 129.881 80.9776L127.813 90.5331H117.14L120.623 74.1975C120.977 72.5397 121.164 71.4035 121.164 70.7516H121.145Z" fill="#007BED"/>
<path d="M159.981 90.0298C158.044 89.0239 156.535 87.6083 155.473 85.7456C154.411 83.9016 153.89 81.7595 153.89 79.3194C153.89 75.8549 154.635 72.6511 156.106 69.6708C157.578 66.7092 159.739 64.325 162.588 62.5741C165.438 60.8045 168.828 59.9105 172.759 59.9105C175.031 59.9105 177.061 60.3761 178.831 61.3261C180.6 62.276 181.979 63.6358 182.985 65.424C183.99 67.2121 184.493 69.3542 184.493 71.8315H184.791C185.034 70.211 185.257 68.5905 185.499 66.9327C185.741 65.4798 186.058 63.4682 186.449 60.9163H197.178L193.639 77.494L193.397 78.444C193.155 79.4685 193.043 80.2321 193.08 80.7351C193.099 81.2566 193.322 81.6478 193.732 81.9085C194.142 82.1879 194.868 82.3183 195.893 82.3183L193.937 91.5199H191.516C187.828 91.5199 185.22 90.9797 183.73 89.9366C182.24 88.8749 181.494 87.4593 181.494 85.6898C181.494 85.2613 181.532 84.8143 181.606 84.33C181.681 83.8643 181.811 83.38 181.96 82.9144C181.997 82.8399 182.035 82.7095 182.072 82.5605H181.774C180.153 85.6711 178.123 87.9436 175.646 89.3778C173.168 90.8121 170.244 91.5199 166.854 91.5199C164.228 91.5199 161.936 91.017 159.981 90.0111V90.0298ZM178.03 80.9958C179.576 80.2694 180.749 79.3381 181.513 78.2018C182.277 77.0656 182.668 75.8363 182.668 74.551C182.668 73.5265 182.351 72.6325 181.699 71.8315C181.047 71.0492 180.116 70.4345 178.868 70.0061C177.62 69.5777 176.093 69.3542 174.23 69.3542C171.79 69.3542 169.834 69.7453 168.325 70.5277C166.835 71.31 165.755 72.2599 165.103 73.3962C164.451 74.5138 164.134 75.6872 164.134 76.898C164.134 78.4626 164.842 79.7292 166.258 80.6792C167.673 81.6291 169.685 82.0948 172.274 82.0948C174.547 82.0948 176.465 81.7223 178.03 80.9958Z" fill="#007BED"/>
<path d="M111.755 114.412C168.89 114.412 215.207 95.5398 215.207 72.2598C215.207 48.9798 168.89 30.1077 111.755 30.1077C54.6197 30.1077 8.30249 48.9798 8.30249 72.2598C8.30249 95.5398 54.6197 114.412 111.755 114.412Z" stroke="#007BED" stroke-width="4" stroke-miterlimit="10"/>
<path d="M111.754 120C172.922 120 222.508 98.6262 222.508 72.26C222.508 45.8939 172.922 24.5199 111.754 24.5199C50.5863 24.5199 1 45.8939 1 72.26C1 98.6262 50.5863 120 111.754 120Z" stroke="#007BED" stroke-width="2" stroke-miterlimit="10"/>
</svg>
