<svg width="124" height="54" viewBox="0 0 124 54" fill="none" xmlns="http://www.w3.org/2000/svg">
<path d="M19.3368 36.6182C17.5767 35.821 16.3447 34.6925 15.651 33.2224C14.947 31.7626 14.771 30.0232 15.0919 28.0043L21.3556 26.5342C21.1796 27.4349 21.2935 28.2425 21.6973 28.9775C22.1011 29.7126 22.8051 30.282 23.799 30.6962C24.7929 31.1103 26.056 31.3174 27.5883 31.3174C28.634 31.3174 29.5243 31.2138 30.2387 31.0068C30.9531 30.7997 31.4914 30.5202 31.8435 30.1682C32.1955 29.8161 32.4129 29.4331 32.4957 29.0189C32.5785 28.6255 32.5578 28.2942 32.4129 28.0147C32.2679 27.7455 31.9573 27.5074 31.4811 27.3107C31.0048 27.114 30.3008 26.9379 29.3794 26.7826L24.1303 26.0579C21.8112 25.7266 20.1132 25.0537 19.0158 24.039C17.9184 23.0244 17.5353 21.7303 17.8666 20.1566C18.3428 18.0135 19.6888 16.3777 21.8836 15.2388C24.0785 14.0999 26.729 13.5305 29.8349 13.5305C32.1748 13.5305 34.1626 13.8204 35.7984 14.4002C37.4342 14.98 38.6766 15.9428 39.5152 17.2991C40.3538 18.6554 40.6748 20.4879 40.478 22.807L33.9244 24.5464C34.235 23.4593 34.1419 22.5689 33.6656 21.8959C33.1894 21.223 32.4543 20.726 31.4811 20.4154C30.5079 20.1152 29.4104 19.9599 28.1888 19.9599C26.8946 19.9599 25.9111 20.1255 25.2381 20.4672C24.5651 20.8088 24.1407 21.3058 23.9957 21.958C23.9129 22.3308 23.9232 22.6517 24.0268 22.9105C24.1407 23.1694 24.3788 23.3971 24.7515 23.6042C25.1242 23.8009 25.6522 23.9562 26.3252 24.0598L31.3776 24.7431C33.3033 25.0537 34.8355 25.4574 35.964 25.9751C37.0925 26.4928 37.8897 27.1347 38.3246 27.9215C38.7594 28.7084 38.8629 29.6505 38.6145 30.7376C38.3349 32.1767 37.5688 33.4398 36.316 34.5269C35.0737 35.6036 33.5414 36.4215 31.7399 36.9702C29.9385 37.519 28.0542 37.7881 26.0871 37.7881C23.3331 37.7881 21.0761 37.3947 19.316 36.5872L19.3368 36.6182Z" fill="white"/>
<path d="M43.8543 36.8769C42.7775 36.3178 41.9389 35.531 41.3488 34.4957C40.7586 33.4707 40.4688 32.2801 40.4688 30.9238C40.4688 28.9981 40.8829 27.2174 41.7008 25.5608C42.5187 23.9147 43.7197 22.5895 45.3037 21.6163C46.8878 20.6327 48.772 20.1357 50.9566 20.1357C52.2197 20.1357 53.3482 20.3946 54.3317 20.9226C55.3153 21.4506 56.0814 22.2064 56.6405 23.2003C57.1996 24.1942 57.4791 25.3848 57.4791 26.7618H57.6448C57.7793 25.8611 57.9036 24.9603 58.0382 24.0389C58.1728 23.2314 58.3488 22.1132 58.5662 20.6948H64.5297L62.5625 29.9092L62.4279 30.4372C62.2934 31.0066 62.2312 31.4311 62.2519 31.7107C62.2623 32.0005 62.3865 32.218 62.6143 32.3629C62.8421 32.5182 63.2459 32.5907 63.8153 32.5907L62.7282 37.7052H61.3823C59.3323 37.7052 57.8829 37.4049 57.0546 36.8251C56.2264 36.235 55.8122 35.4482 55.8122 34.4646C55.8122 34.2265 55.8329 33.978 55.8744 33.7088C55.9158 33.45 55.9882 33.1808 56.0711 32.922C56.0918 32.8806 56.1125 32.8081 56.1332 32.7253H55.9675C55.0668 34.4543 53.9383 35.7174 52.5613 36.5145C51.1843 37.3117 49.5589 37.7052 47.6746 37.7052C46.2148 37.7052 44.9413 37.4256 43.8543 36.8666V36.8769ZM53.8865 31.8556C54.7459 31.4518 55.3981 30.9342 55.8226 30.3026C56.2471 29.6711 56.4645 28.9878 56.4645 28.2734C56.4645 27.704 56.2885 27.207 55.9261 26.7618C55.5638 26.327 55.0461 25.9853 54.3524 25.7472C53.6588 25.5091 52.8098 25.3848 51.7745 25.3848C50.4182 25.3848 49.3311 25.6022 48.4925 26.0371C47.6642 26.4719 47.0638 26.9999 46.7014 27.6315C46.339 28.2527 46.163 28.9049 46.163 29.5779C46.163 30.4476 46.5564 31.1516 47.3433 31.6796C48.1301 32.2076 49.2483 32.4664 50.6874 32.4664C51.9505 32.4664 53.0169 32.2594 53.8865 31.8556Z" fill="white"/>
<path d="M67.222 26.1618C67.222 25.7994 67.1185 25.5509 66.9114 25.4267C66.7044 25.3024 66.3006 25.23 65.7105 25.23L66.7872 20.1155C69.0339 20.1155 70.6593 20.3433 71.6532 20.7884C72.6471 21.2336 73.2062 21.9169 73.3304 22.8384C73.4547 23.7598 73.258 25.0229 72.761 26.638L72.6989 26.8037L71.9742 29.2263H72.1709C72.9784 27.1246 73.8792 25.3956 74.8627 24.029C75.8463 22.6624 76.8712 21.6788 77.9273 21.0576C78.9833 20.4468 80.0497 20.1362 81.1264 20.1362C82.9589 20.1362 84.2324 20.6435 84.9261 21.6581C85.6301 22.6727 85.8371 23.9876 85.5473 25.5923C85.2677 27.1971 84.6051 28.864 83.5801 30.5929L79.708 30.3341C80.236 29.3713 80.5156 28.5637 80.5466 27.8908C80.5777 27.2281 80.3913 26.7312 79.9772 26.3999C79.5631 26.0686 78.9315 25.9133 78.0722 25.9133C77.1094 25.9133 76.1983 26.2135 75.3493 26.7933C74.5004 27.3834 73.7963 28.1289 73.2373 29.04C72.6782 29.951 72.2951 30.8828 72.0777 31.8457L70.9285 37.1569H64.9961L66.9321 28.0771C67.1289 27.1557 67.2324 26.5241 67.2324 26.1618H67.222Z" fill="white"/>
<path d="M88.8093 36.8769C87.7326 36.3178 86.894 35.531 86.3039 34.4957C85.7137 33.4707 85.4238 32.2801 85.4238 30.9238C85.4238 28.9981 85.838 27.2174 86.6559 25.5608C87.4738 23.9147 88.6747 22.5895 90.2588 21.6163C91.8428 20.6327 93.7271 20.1357 95.9116 20.1357C97.1747 20.1357 98.3032 20.3946 99.2868 20.9226C100.27 21.4506 101.036 22.2064 101.596 23.2003C102.155 24.1942 102.434 25.3848 102.434 26.7618H102.6C102.734 25.8611 102.859 24.9603 102.993 24.0389C103.128 23.2314 103.304 22.1132 103.521 20.6948H109.485L107.518 29.9092L107.383 30.4372C107.248 31.0066 107.186 31.4311 107.207 31.7107C107.217 32.0005 107.342 32.218 107.569 32.3629C107.797 32.5182 108.201 32.5907 108.77 32.5907L107.683 37.7052H106.337C104.287 37.7052 102.838 37.4049 102.01 36.8251C101.181 36.235 100.767 35.4482 100.767 34.4646C100.767 34.2265 100.788 33.978 100.829 33.7088C100.871 33.45 100.943 33.1808 101.026 32.922C101.047 32.8806 101.068 32.8081 101.088 32.7253H100.923C100.022 34.4543 98.8934 35.7174 97.5164 36.5145C96.1394 37.3117 94.514 37.7052 92.6297 37.7052C91.1699 37.7052 89.8964 37.4256 88.8093 36.8666V36.8769ZM98.8416 31.8556C99.7009 31.4518 100.353 30.9342 100.778 30.3026C101.202 29.6711 101.42 28.9878 101.42 28.2734C101.42 27.704 101.244 27.207 100.881 26.7618C100.519 26.327 100.001 25.9853 99.3075 25.7472C98.6138 25.5091 97.7649 25.3848 96.7296 25.3848C95.3733 25.3848 94.2862 25.6022 93.4476 26.0371C92.6193 26.4719 92.0188 26.9999 91.6565 27.6315C91.2941 28.2527 91.1181 28.9049 91.1181 29.5779C91.1181 30.4476 91.5115 31.1516 92.2984 31.6796C93.0852 32.2076 94.2034 32.4664 95.6425 32.4664C96.9056 32.4664 97.9719 32.2594 98.8416 31.8556Z" fill="white"/>
<path fill-rule="evenodd" clip-rule="evenodd" d="M9.93281 18.83C7.1875 21.4746 5.81799 24.2352 5.81799 26.9997C5.81799 29.7642 7.1875 32.5248 9.93281 35.1694C12.6818 37.8177 16.7291 40.2633 21.8385 42.3451C32.0506 46.5061 46.2494 49.1099 62.0007 49.1099C77.7519 49.1099 91.9507 46.5061 102.163 42.3451C107.272 40.2633 111.319 37.8177 114.069 35.1694C116.814 32.5248 118.183 29.7642 118.183 26.9997C118.183 24.2352 116.814 21.4746 114.069 18.83C111.319 16.1818 107.272 13.7361 102.163 11.6543C91.9507 7.49334 77.7519 4.88952 62.0007 4.88952C46.2494 4.88952 32.0506 7.49334 21.8385 11.6543C16.7291 13.7361 12.6818 16.1818 9.93281 18.83ZM20.843 9.21104C31.4424 4.89224 45.9945 2.25122 62.0007 2.25122C78.0068 2.25122 92.5589 4.89224 103.158 9.21104C108.455 11.3691 112.828 13.972 115.899 16.9299C118.973 19.8914 120.822 23.2944 120.822 26.9997C120.822 30.7051 118.973 34.1081 115.899 37.0695C112.828 40.0274 108.455 42.6304 103.158 44.7884C92.5589 49.1072 78.0068 51.7482 62.0007 51.7482C45.9945 51.7482 31.4424 49.1072 20.843 44.7884C15.5465 42.6304 11.1729 40.0274 8.10242 37.0695C5.02823 34.1081 3.17969 30.7051 3.17969 26.9997C3.17969 23.2944 5.02823 19.8914 8.10242 16.9299C11.1729 13.972 15.5465 11.3691 20.843 9.21104Z" fill="white"/>
<path fill-rule="evenodd" clip-rule="evenodd" d="M5.59128 16.9792C2.53068 20.0983 0.879433 23.484 0.879433 26.9999C0.879433 30.5159 2.53068 33.9016 5.59128 37.0207C8.65381 40.1418 13.107 42.9726 18.6444 45.3594C29.7176 50.1325 45.0458 53.0956 62 53.0956C78.9542 53.0956 94.2824 50.1325 105.356 45.3594C110.893 42.9726 115.346 40.1418 118.409 37.0207C121.469 33.9016 123.121 30.5159 123.121 26.9999C123.121 23.484 121.469 20.0983 118.409 16.9792C115.346 13.8581 110.893 11.0273 105.356 8.64044C94.2824 3.86736 78.9542 0.904335 62 0.904335C45.0458 0.904335 29.7176 3.86736 18.6444 8.64044C13.107 11.0273 8.65381 13.8581 5.59128 16.9792ZM18.2962 7.83284C29.5035 3.00201 44.9554 0.0249023 62 0.0249023C79.0446 0.0249023 94.4966 3.00201 105.704 7.83284C111.307 10.2479 115.869 13.135 119.036 16.3632C122.206 19.5934 124 23.1884 124 26.9999C124 30.8115 122.206 34.4065 119.036 37.6367C115.869 40.8649 111.307 43.752 105.704 46.167C94.4966 50.9979 79.0446 53.975 62 53.975C44.9554 53.975 29.5035 50.9979 18.2962 46.167C12.6934 43.752 8.13129 40.8649 4.96357 37.6367C1.79394 34.4065 0 30.8115 0 26.9999C0 23.1884 1.79394 19.5934 4.96357 16.3632C8.13129 13.135 12.6934 10.2479 18.2962 7.83284Z" fill="white"/>
</svg>
