<svg width="180" height="180" viewBox="0 0 180 180" fill="none" xmlns="http://www.w3.org/2000/svg">
<g id="Group 156">
<g id="Ellipse 39">
<circle cx="90" cy="90" r="90" fill="#007BED"/>
<circle cx="90" cy="90" r="90" fill="white" fill-opacity="0.9"/>
</g>
<g id="Group 28">
<path id="Vector 4" d="M29.936 135H79.4681C80.2312 135 80.9278 134.565 81.2638 133.88L89.381 117.326C90.1076 115.844 92.2154 115.83 92.961 117.303L101.367 133.903C101.707 134.576 102.397 135 103.151 135H150.213C152.168 135 152.962 132.483 151.36 131.362L148.914 129.648C148.661 129.471 148.453 129.239 148.305 128.968L93.265 28.1386C92.5157 26.7658 90.5515 26.7457 89.7741 28.1028L31.9937 128.971C31.8398 129.239 31.6256 129.469 31.368 129.641L28.8262 131.336C27.1802 132.434 27.9574 135 29.936 135Z" fill="#007BED"/>
<ellipse id="Ellipse 13" cx="84.3293" cy="64.3428" rx="3.21017" ry="3.21168" fill="black"/>
<ellipse id="Ellipse 14" cx="99.5735" cy="64.3428" rx="3.21017" ry="3.21168" fill="black"/>
<path id="Vector 5" d="M91.2977 80.401L101.985 69.1602H81.6281L91.2977 80.401Z" fill="white"/>
</g>
</g>
</svg>
