<svg width="95" height="41" viewBox="0 0 95 41" fill="none" xmlns="http://www.w3.org/2000/svg">
<path d="M15.3419 27.7494C14.0153 27.1485 13.0867 26.298 12.5639 25.1899C12.0333 24.0896 11.9006 22.7786 12.1425 21.257L16.8635 20.1489C16.7309 20.8278 16.8167 21.4365 17.1211 21.9905C17.4254 22.5445 17.956 22.9737 18.7051 23.2859C19.4543 23.598 20.4063 23.7541 21.5612 23.7541C22.3493 23.7541 23.0204 23.676 23.5588 23.52C24.0973 23.3639 24.503 23.1532 24.7683 22.8879C25.0337 22.6226 25.1975 22.3339 25.26 22.0217C25.3224 21.7252 25.3068 21.4755 25.1975 21.2648C25.0883 21.0619 24.8542 20.8824 24.4952 20.7342C24.1363 20.5859 23.6056 20.4532 22.9111 20.3362L18.9548 19.79C17.2069 19.5403 15.9271 19.033 15.1 18.2683C14.2728 17.5036 13.9841 16.5282 14.2338 15.342C14.5928 13.7268 15.6072 12.4938 17.2615 11.6355C18.9158 10.7771 20.9135 10.3479 23.2545 10.3479C25.0181 10.3479 26.5163 10.5664 27.7492 11.0034C28.9822 11.4404 29.9186 12.1661 30.5506 13.1883C31.1827 14.2106 31.4246 15.5918 31.2763 17.3397L26.3368 18.6507C26.5709 17.8313 26.5007 17.1602 26.1417 16.653C25.7828 16.1458 25.2287 15.7712 24.4952 15.5371C23.7617 15.3108 22.9346 15.1938 22.0138 15.1938C21.0383 15.1938 20.297 15.3186 19.7898 15.5761C19.2826 15.8337 18.9627 16.2082 18.8534 16.6998C18.791 16.9808 18.7988 17.2227 18.8768 17.4177C18.9627 17.6128 19.1421 17.7845 19.423 17.9406C19.704 18.0888 20.1019 18.2059 20.6092 18.2839L24.4172 18.7989C25.8686 19.033 27.0235 19.3374 27.8741 19.7275C28.7246 20.1177 29.3255 20.6015 29.6532 21.1946C29.981 21.7876 30.059 22.4977 29.8717 23.3171C29.6611 24.4017 29.0836 25.3538 28.1394 26.1731C27.203 26.9847 26.0481 27.6011 24.6903 28.0147C23.3325 28.4283 21.9123 28.6312 20.4297 28.6312C18.354 28.6312 16.6529 28.3346 15.3263 27.726L15.3419 27.7494Z" fill="white"/>
<path d="M33.8205 27.9444C33.0089 27.5231 32.3769 26.93 31.9321 26.1497C31.4873 25.3771 31.2688 24.4798 31.2688 23.4575C31.2688 22.0061 31.5809 20.6639 32.1974 19.4154C32.8139 18.1746 33.7191 17.1758 34.913 16.4423C36.1069 15.701 37.5271 15.3264 39.1736 15.3264C40.1256 15.3264 40.9762 15.5215 41.7175 15.9195C42.4588 16.3174 43.0363 16.8871 43.4576 17.6362C43.879 18.3853 44.0897 19.2827 44.0897 20.3206H44.2146C44.316 19.6417 44.4096 18.9628 44.5111 18.2683C44.6125 17.6596 44.7452 16.8169 44.9091 15.7478H49.4038L47.9212 22.6928L47.8197 23.0908C47.7183 23.5199 47.6715 23.8399 47.6871 24.0506C47.6949 24.2691 47.7885 24.4329 47.9602 24.5422C48.1318 24.6592 48.4362 24.7139 48.8654 24.7139L48.046 28.5687H47.0316C45.4865 28.5687 44.394 28.3424 43.7698 27.9054C43.1455 27.4606 42.8334 26.8676 42.8334 26.1263C42.8334 25.9468 42.849 25.7595 42.8802 25.5566C42.9114 25.3615 42.966 25.1586 43.0285 24.9636C43.0441 24.9323 43.0597 24.8777 43.0753 24.8153H42.9504C42.2715 26.1185 41.421 27.0705 40.3831 27.6713C39.3453 28.2722 38.1201 28.5687 36.6999 28.5687C35.5997 28.5687 34.6398 28.358 33.8205 27.9366V27.9444ZM41.3819 24.1598C42.0296 23.8555 42.5212 23.4653 42.8412 22.9893C43.1611 22.5133 43.325 21.9983 43.325 21.4599C43.325 21.0307 43.1923 20.6561 42.9192 20.3206C42.6461 19.9928 42.2559 19.7353 41.7331 19.5558C41.2103 19.3764 40.5704 19.2827 39.7901 19.2827C38.7678 19.2827 37.9485 19.4466 37.3164 19.7743C36.6921 20.1021 36.2395 20.5 35.9664 20.976C35.6933 21.4442 35.5606 21.9359 35.5606 22.4431C35.5606 23.0986 35.8572 23.6292 36.4502 24.0272C37.0433 24.4251 37.886 24.6202 38.9707 24.6202C39.9227 24.6202 40.7265 24.4641 41.3819 24.1598Z" fill="white"/>
<path d="M51.4328 19.8681C51.4328 19.595 51.3548 19.4077 51.1987 19.314C51.0427 19.2204 50.7383 19.1658 50.2936 19.1658L51.1051 15.3109C52.7984 15.3109 54.0236 15.4826 54.7727 15.8181C55.5218 16.1537 55.9432 16.6687 56.0368 17.3632C56.1305 18.0577 55.9822 19.0097 55.6076 20.227L55.5608 20.3519L55.0146 22.1779H55.1628C55.7715 20.5938 56.4504 19.2906 57.1917 18.2606C57.933 17.2305 58.7056 16.4892 59.5015 16.021C60.2975 15.5606 61.1012 15.3265 61.9128 15.3265C63.2939 15.3265 64.2538 15.7089 64.7766 16.4736C65.3072 17.2383 65.4633 18.2294 65.2448 19.4389C65.0341 20.6484 64.5347 21.9047 63.7621 23.2079L60.8437 23.0128C61.2417 22.2871 61.4524 21.6785 61.4758 21.1712C61.4992 20.6718 61.3587 20.2973 61.0466 20.0476C60.7344 19.7978 60.2584 19.6808 59.6108 19.6808C58.8851 19.6808 58.1984 19.9071 57.5585 20.3441C56.9186 20.7889 56.388 21.3507 55.9666 22.0374C55.5452 22.7241 55.2565 23.4264 55.0926 24.1521L54.2264 28.1552H49.7551L51.2144 21.3117C51.3626 20.6172 51.4407 20.1412 51.4407 19.8681H51.4328Z" fill="white"/>
<path d="M67.7025 27.9444C66.8909 27.5231 66.2588 26.93 65.814 26.1497C65.3692 25.3771 65.1508 24.4798 65.1508 23.4575C65.1508 22.0061 65.4629 20.6639 66.0794 19.4154C66.6958 18.1746 67.601 17.1758 68.7949 16.4423C69.9888 15.701 71.409 15.3264 73.0556 15.3264C74.0076 15.3264 74.8581 15.5215 75.5994 15.9195C76.3408 16.3174 76.9182 16.8871 77.3396 17.6362C77.761 18.3853 77.9717 19.2827 77.9717 20.3206H78.0965C78.198 19.6417 78.2916 18.9628 78.3931 18.2683C78.4945 17.6596 78.6271 16.8169 78.791 15.7478H83.2858L81.8031 22.6928L81.7017 23.0908C81.6002 23.5199 81.5534 23.8399 81.569 24.0506C81.5768 24.2691 81.6705 24.4329 81.8421 24.5422C82.0138 24.6592 82.3181 24.7139 82.7473 24.7139L81.928 28.5687H80.9135C79.3685 28.5687 78.276 28.3424 77.6517 27.9054C77.0275 27.4606 76.7153 26.8676 76.7153 26.1263C76.7153 25.9468 76.7309 25.7595 76.7621 25.5566C76.7934 25.3615 76.848 25.1586 76.9104 24.9636C76.926 24.9323 76.9416 24.8777 76.9572 24.8153H76.8324C76.1535 26.1185 75.3029 27.0705 74.2651 27.6713C73.2272 28.2722 72.0021 28.5687 70.5819 28.5687C69.4816 28.5687 68.5218 28.358 67.7025 27.9366V27.9444ZM75.2639 24.1598C75.9116 23.8555 76.4032 23.4653 76.7231 22.9893C77.0431 22.5133 77.2069 21.9983 77.2069 21.4599C77.2069 21.0307 77.0743 20.6561 76.8012 20.3206C76.528 19.9928 76.1379 19.7353 75.6151 19.5558C75.0922 19.3764 74.4524 19.2827 73.672 19.2827C72.6498 19.2827 71.8304 19.4466 71.1984 19.7743C70.5741 20.1021 70.1215 20.5 69.8484 20.976C69.5753 21.4442 69.4426 21.9359 69.4426 22.4431C69.4426 23.0986 69.7391 23.6292 70.3322 24.0272C70.9252 24.4251 71.768 24.6202 72.8527 24.6202C73.8047 24.6202 74.6084 24.4641 75.2639 24.1598Z" fill="white"/>
<path d="M47.4997 38.1589C71.4357 38.1589 90.8396 30.2527 90.8396 20.4999C90.8396 10.7471 71.4357 2.84094 47.4997 2.84094C23.5638 2.84094 4.15991 10.7471 4.15991 20.4999C4.15991 30.2527 23.5638 38.1589 47.4997 38.1589Z" stroke="white" stroke-width="1.5" stroke-miterlimit="10"/>
<path d="M47.4999 40.5C73.1253 40.5 93.8987 31.5457 93.8987 20.5C93.8987 9.45431 73.1253 0.5 47.4999 0.5C21.8746 0.5 1.1012 9.45431 1.1012 20.5C1.1012 31.5457 21.8746 40.5 47.4999 40.5Z" stroke="white" stroke-width="0.5" stroke-miterlimit="10"/>
</svg>
