<svg width="218" height="180" viewBox="0 0 218 180" fill="none" xmlns="http://www.w3.org/2000/svg">
<path d="M6.60296 180H92.6508C93.4139 180 94.1105 179.566 94.4465 178.881L109.203 148.786C109.93 147.304 112.037 147.291 112.783 148.763L128.045 178.903C128.385 179.576 129.075 180 129.829 180H211.658C213.613 180 214.407 177.483 212.805 176.362L205.251 171.072C204.999 170.895 204.791 170.662 204.643 170.392L113.344 3.13885C112.595 1.76607 110.63 1.74591 109.853 3.10301L14.0232 170.394C13.8693 170.663 13.6551 170.892 13.3975 171.064L5.49322 176.336C3.84717 177.434 4.62437 180 6.60296 180Z" fill="#007BED"/>
<ellipse cx="99.8076" cy="64.3795" rx="5.25301" ry="5.25548" fill="black"/>
<ellipse cx="124.758" cy="64.3795" rx="5.25301" ry="5.25548" fill="black"/>
<path d="M111.21 90.6569L128.699 72.2627H95.3874L111.21 90.6569Z" fill="white"/>
</svg>
