<svg  width="624" height="160" viewBox="0 0 624 160" fill="none" xmlns="http://www.w3.org/2000/svg" >
<path d="M29.0169 152.283C17.4078 147.025 9.28151 139.582 4.70618 129.885C0.0625595 120.256 -1.09835 108.784 1.0186 95.4674L42.3332 85.7704C41.1722 91.7115 41.9234 97.038 44.5867 101.886C47.2499 106.735 51.8936 110.491 58.4492 113.222C65.0049 115.954 73.3361 117.32 83.4428 117.32C90.34 117.32 96.2128 116.637 100.925 115.271C105.637 113.905 109.188 112.061 111.509 109.74C113.831 107.418 115.265 104.891 115.812 102.16C116.358 99.5647 116.221 97.3794 115.265 95.5356C114.309 93.7601 112.261 92.1895 109.119 90.892C105.978 89.5945 101.334 88.4336 95.2568 87.4093L60.6345 82.6291C45.3379 80.4439 34.1385 76.0051 26.8999 69.3128C19.6614 62.6206 17.1347 54.0845 19.3199 43.7047C22.4612 29.5689 31.3387 18.7793 45.8159 11.2676C60.293 3.75587 77.7749 0 98.2615 0C113.695 0 126.806 1.91208 137.596 5.73624C148.385 9.56039 156.58 15.9112 162.111 24.857C167.643 33.8028 169.76 45.8899 168.462 61.1865L125.235 72.659C127.284 65.4887 126.669 59.6159 123.528 55.1771C120.387 50.7384 115.538 47.4605 109.119 45.4119C102.7 43.4315 95.4616 42.4072 87.4036 42.4072C78.8675 42.4072 72.3801 43.4998 67.9413 45.7533C63.5026 48.0068 60.7028 51.2847 59.7467 55.5869C59.2004 58.0452 59.2687 60.1622 59.9516 61.8694C60.7028 63.5766 62.2734 65.079 64.7318 66.4447C67.1902 67.7422 70.6729 68.7665 75.1116 69.4494L108.436 73.9565C121.138 76.0051 131.245 78.6684 138.688 82.0828C146.132 85.4972 151.39 89.7311 154.258 94.921C157.126 100.111 157.809 106.325 156.17 113.496C154.326 122.988 149.273 131.319 141.01 138.489C132.815 145.591 122.709 150.986 110.827 154.605C98.9443 158.225 86.5158 160 73.541 160C55.3763 160 40.4894 157.405 28.8803 152.079L29.0169 152.283Z" fill="#007BED" fill-opacity="0.08"/>
<path d="M190.727 153.99C183.625 150.302 178.093 145.112 174.201 138.283C170.309 131.523 168.396 123.67 168.396 114.724C168.396 102.022 171.128 90.2765 176.523 79.3503C181.918 68.4924 189.839 59.7515 200.287 53.3324C210.735 46.845 223.164 43.5671 237.573 43.5671C245.904 43.5671 253.347 45.2744 259.835 48.7571C266.322 52.2398 271.376 57.2248 275.063 63.7805C278.751 70.3362 280.595 78.1894 280.595 87.2718H281.687C282.575 81.3307 283.394 75.3896 284.282 69.3119C285.17 63.9854 286.331 56.6103 287.765 47.2547H327.099L314.124 108.031L313.236 111.514C312.349 115.27 311.939 118.07 312.076 119.914C312.144 121.826 312.963 123.26 314.466 124.216C315.968 125.24 318.631 125.718 322.387 125.718L315.217 159.453H306.339C292.818 159.453 283.258 157.472 277.795 153.648C272.332 149.756 269.6 144.566 269.6 138.078C269.6 136.508 269.737 134.869 270.01 133.093C270.283 131.386 270.761 129.611 271.307 127.903C271.444 127.63 271.58 127.152 271.717 126.606H270.624C264.683 138.01 257.24 146.341 248.157 151.6C239.075 156.858 228.354 159.453 215.925 159.453C206.297 159.453 197.897 157.609 190.727 153.921V153.99ZM256.898 120.87C262.566 118.206 266.869 114.792 269.668 110.626C272.468 106.461 273.902 101.954 273.902 97.2419C273.902 93.4861 272.741 90.2082 270.351 87.2718C267.961 84.4037 264.547 82.1502 259.971 80.5795C255.396 79.0089 249.796 78.1894 242.968 78.1894C234.022 78.1894 226.851 79.6235 221.32 82.4916C215.857 85.3597 211.896 88.8424 209.506 93.008C207.116 97.1053 205.955 101.408 205.955 105.846C205.955 111.583 208.55 116.226 213.74 119.709C218.93 123.192 226.305 124.899 235.797 124.899C244.128 124.899 251.162 123.533 256.898 120.87Z" fill="#007BED" fill-opacity="0.08"/>
<path d="M344.842 83.3135C344.842 80.9234 344.159 79.2845 342.794 78.465C341.428 77.6455 338.764 77.1675 334.872 77.1675L341.974 43.433C356.793 43.433 367.514 44.9353 374.07 47.8717C380.625 50.8082 384.313 55.3152 385.132 61.3929C385.952 67.4706 384.654 75.8018 381.377 86.4548L380.967 87.5474L376.187 103.527H377.484C382.811 89.6643 388.752 78.2601 395.239 69.246C401.726 60.232 408.487 53.7445 415.453 49.6472C422.418 45.6182 429.452 43.5696 436.554 43.5696C448.641 43.5696 457.04 46.9157 461.616 53.608C466.259 60.3003 467.625 68.9729 465.713 79.5576C463.869 90.1423 459.499 101.137 452.738 112.541L427.198 110.834C430.681 104.483 432.525 99.1564 432.729 94.7177C432.934 90.3472 431.705 87.0694 428.974 84.8841C426.242 82.6989 422.076 81.6746 416.409 81.6746C410.058 81.6746 404.048 83.6549 398.449 87.4791C392.849 91.3715 388.205 96.2883 384.518 102.298C380.83 108.307 378.304 114.453 376.869 120.804L369.289 155.836H330.16L342.93 95.9469C344.228 89.8692 344.91 85.7036 344.91 83.3135H344.842Z" fill="#007BED" fill-opacity="0.08"/>
<path d="M487.235 153.99C480.133 150.302 474.601 145.112 470.709 138.283C466.816 131.523 464.904 123.67 464.904 114.724C464.904 102.022 467.636 90.2765 473.031 79.3503C478.425 68.4924 486.347 59.7515 496.795 53.3324C507.243 46.845 519.672 43.5671 534.081 43.5671C542.412 43.5671 549.855 45.2744 556.343 48.7571C562.83 52.2398 567.883 57.2248 571.571 63.7805C575.259 70.3362 577.102 78.1894 577.102 87.2718H578.195C579.083 81.3307 579.902 75.3896 580.79 69.3119C581.678 63.9854 582.839 56.6103 584.273 47.2547H623.607L610.632 108.031L609.744 111.514C608.856 115.27 608.447 118.07 608.583 119.914C608.652 121.826 609.471 123.26 610.973 124.216C612.476 125.24 615.139 125.718 618.895 125.718L611.725 159.453H602.847C589.326 159.453 579.766 157.472 574.302 153.648C568.839 149.756 566.108 144.566 566.108 138.078C566.108 136.508 566.244 134.869 566.518 133.093C566.791 131.386 567.269 129.611 567.815 127.903C567.952 127.63 568.088 127.152 568.225 126.606H567.132C561.191 138.01 553.748 146.341 544.665 151.6C535.583 156.858 524.862 159.453 512.433 159.453C502.804 159.453 494.405 157.609 487.235 153.921V153.99ZM553.406 120.87C559.074 118.206 563.376 114.792 566.176 110.626C568.976 106.461 570.41 101.954 570.41 97.2419C570.41 93.4861 569.249 90.2082 566.859 87.2718C564.469 84.4037 561.055 82.1502 556.479 80.5795C551.904 79.0089 546.304 78.1894 539.475 78.1894C530.53 78.1894 523.359 79.6235 517.828 82.4916C512.365 85.3597 508.404 88.8424 506.014 93.008C503.624 97.1053 502.463 101.408 502.463 105.846C502.463 111.583 505.058 116.226 510.248 119.709C515.438 123.192 522.813 124.899 532.305 124.899C540.636 124.899 547.67 123.533 553.406 120.87Z" fill="#007BED" fill-opacity="0.08"/>
</svg>
