<svg width="100%" height="100%" viewBox="0 0 224 121" fill="none" xmlns="http://www.w3.org/2000/svg">
<path d="M30.1342 21.0854C30.6744 19.1669 31.1959 17.2483 31.7361 15.3298C34.5673 14.2122 37.4358 13.1504 40.3043 12.1446C39.7642 12.871 39.2054 13.6161 38.6652 14.3612C38.2368 14.9572 37.8084 15.5347 37.38 16.1493C39.4289 15.4043 41.4964 14.6778 43.5826 14.0073C43.9365 15.0131 44.2904 16.019 44.6257 17.0434C45.0355 18.2728 45.4639 19.4835 45.8737 20.7129C43.3032 21.5324 40.7514 22.3893 38.2182 23.302C38.125 22.6873 38.0691 22.0354 37.976 21.4207C37.8829 20.6756 37.7897 19.9306 37.6966 19.1482C37.5849 18.4218 37.4917 17.6954 37.4172 16.9875C37.4172 16.9689 37.4172 16.9689 37.3986 16.9875H37.3613C37.3427 16.9875 37.3427 16.9875 37.3427 17.0248C37.1937 18.2914 37.0447 19.558 36.8957 20.806C36.7653 21.8491 36.6349 22.9108 36.5045 23.9167C33.8223 24.9039 31.1587 25.947 28.5137 27.0459C29.0538 25.0715 29.594 23.0785 30.1528 21.104L30.1342 21.0854ZM30.3577 31.9261C30.3577 31.1624 30.3577 30.436 30.3577 29.6723C35.4987 27.5861 40.7141 25.7234 45.9668 24.047V23.8049C45.9668 23.6745 45.9668 23.5441 45.9668 23.3951C45.9668 23.3765 45.9668 23.3765 45.9482 23.3951C40.6955 25.0715 35.4987 26.9342 30.3577 29.0204V26.8597C38.0319 23.7676 45.8365 21.1227 53.7342 18.9247V21.756C53.7342 22.1099 53.7342 22.4638 53.7342 22.8363C48.4256 24.3078 43.1728 25.9842 37.976 27.8655C37.9574 27.8655 37.9574 27.8655 37.9574 27.9028V28.5361C37.9574 28.5361 37.9574 28.5547 37.976 28.5361C40.9376 27.4743 43.9179 26.4685 46.9168 25.5185C49.3941 24.7362 51.8901 24.0098 54.4047 23.3206C54.1812 24.6058 53.9391 25.9097 53.7155 27.1949C45.8178 29.3929 38.0319 32.0192 30.3577 35.1299V31.9634V31.9261ZM46.1159 17.565C46.1159 16.913 46.1159 16.2238 46.1159 15.5533C46.1159 13.7651 46.1159 11.9956 46.1159 10.2074C48.6491 9.40649 51.1823 8.66143 53.7342 7.95361V10.5241C54.2557 10.3751 54.7773 10.2447 55.2802 10.0957C55.2802 12.3681 55.2802 14.622 55.2802 16.8944C54.7586 17.0248 54.2371 17.1738 53.7342 17.3228V18.3473C51.1823 19.0551 48.6491 19.8002 46.1159 20.6011C46.1159 19.5953 46.1159 18.5708 46.1159 17.565Z" fill="#007BED"/>
<path d="M57.0129 21.0852C57.1992 19.5764 57.3668 18.0676 57.5531 16.5775C57.6648 15.5344 57.7766 14.4727 57.907 13.4296C57.907 13.411 57.907 13.411 57.8883 13.4296C57.2364 13.5972 56.6031 13.7649 55.9512 13.9325C55.9512 11.8836 55.9512 9.85329 55.9512 7.80436C58.9314 7.00341 61.949 6.27697 64.9478 5.60641C64.743 8.00925 64.5381 10.3935 64.3518 12.7963C64.0351 16.4471 63.7557 20.0793 63.4391 23.7115C61.1294 24.2331 58.8197 24.8105 56.5286 25.4065C56.6776 23.9723 56.8639 22.5567 57.0129 21.1038V21.0852ZM65.3949 5.49465C68.1144 4.8986 70.8525 4.35843 73.5906 3.87414C73.3857 7.04067 73.1808 10.2072 72.9759 13.3737C72.7897 16.205 72.622 18.999 72.4358 21.8489C70.0329 22.2959 67.6301 22.7802 65.2272 23.3017C65.339 22.0351 65.4508 20.7499 65.5439 19.4833C65.7302 17.751 65.8792 16.0373 66.0096 14.3423C66.1027 13.3924 66.1586 12.4238 66.2517 11.4738C66.2517 11.4552 66.2517 11.4552 66.2331 11.4738C65.786 11.5669 65.3204 11.6787 64.8733 11.7718C65.041 9.68565 65.2086 7.61809 65.3949 5.53191V5.49465ZM74.1867 17.0618V3.31534C76.7013 2.8683 79.2159 2.47714 81.7491 2.12323V7.52496C82.2706 7.45045 82.8108 7.37595 83.3323 7.30144V15.1246C82.8108 15.1991 82.2706 15.2736 81.7491 15.3482V21.3273C79.2159 21.6812 76.7013 22.0724 74.1867 22.5194V17.0618Z" fill="#007BED"/>
<path d="M84.3574 6.81735C84.3574 5.15958 84.3574 3.55769 84.3574 1.91854C86.872 1.60189 89.3866 1.32249 91.9012 1.08035V4.22825C91.9385 3.9861 91.9757 3.72533 92.013 3.48318C92.0875 3.48318 92.0875 3.48318 92.2179 3.27829C92.5718 2.49597 92.9071 1.73228 93.261 0.94996C95.2168 0.596053 96.5951 0.428413 98.2156 0.447039C99.9852 0.465666 101.159 1.30387 101.159 2.5891V7.48791C101.159 8.53101 101.159 9.59273 101.159 10.6544C95.552 10.9338 89.9454 11.4368 84.3574 12.1446V6.79873V6.81735ZM85.8289 17.6208C85.8289 16.8571 85.8289 16.1307 85.8289 15.367C91.2493 14.7151 96.6883 14.2494 102.146 14.0072V13.7651C102.146 13.6347 102.146 13.5043 102.146 13.3553C102.146 13.3367 102.146 13.3367 102.127 13.3367C96.6883 13.5788 91.2493 14.0445 85.8476 14.6964C85.8476 13.97 85.8476 13.2435 85.8476 12.5357C93.9315 11.5485 102.053 11.027 110.174 10.9525V13.7837C110.174 14.1376 110.174 14.4915 110.174 14.8641C104.716 14.9199 99.2774 15.1621 93.8384 15.6278C93.8198 15.6278 93.8198 15.6278 93.8198 15.6464C93.8198 15.7581 93.8198 15.8513 93.8198 15.963C93.8198 16.0748 93.8198 16.1679 93.8198 16.2797C93.8198 16.2983 93.8198 16.2983 93.8384 16.2983C96.9304 16.0375 100.041 15.8513 103.133 15.7209C105.704 15.6091 108.274 15.5533 110.863 15.5346C110.621 16.764 110.397 17.9933 110.155 19.2227C102.034 19.2972 93.9315 19.8188 85.8476 20.806C85.8476 19.7443 85.8476 18.6825 85.8476 17.6394L85.8289 17.6208ZM94.0247 8.13985C94.0247 8.13985 94.0433 8.13985 94.0433 8.12122C94.0433 7.28302 94.0433 6.44482 94.0433 5.588C94.0433 5.17821 93.6335 5.04782 93.0933 5.08508C92.609 5.12233 92.3669 5.17821 91.9198 5.25272V6.61246C91.9198 7.18989 91.9198 7.74869 91.9198 8.30749C92.6277 8.23298 93.3355 8.1771 94.0247 8.12122V8.13985ZM102.295 7.56242C102.295 6.91049 102.295 6.2213 102.295 5.55074V0.204893C104.921 0.0931326 107.529 0.0186267 110.155 0V2.57048C110.696 2.57048 111.217 2.57048 111.757 2.57048V9.36921C111.217 9.36921 110.696 9.36921 110.155 9.36921V10.3937C107.529 10.4123 104.921 10.4868 102.295 10.5986V7.56242Z" fill="#007BED"/>
<path d="M113.545 14.0259C113.731 12.573 113.918 11.1015 114.085 9.64859C114.197 8.64275 114.309 7.59966 114.458 6.59382C114.458 6.57519 114.458 6.57519 114.439 6.57519C113.787 6.57519 113.117 6.57519 112.465 6.57519V0.447021C115.538 0.447021 118.593 0.521527 121.666 0.651914C121.462 2.99887 121.257 5.34583 121.052 7.69279C120.735 11.2505 120.437 14.8082 120.12 18.3472C117.773 18.2541 115.408 18.2168 113.061 18.1982C113.229 16.8198 113.396 15.4415 113.564 14.0259H113.545ZM122.113 0.670541C124.889 0.800928 127.646 0.968567 130.421 1.21071C130.216 4.32136 130.011 7.43202 129.806 10.5427C129.62 13.318 129.452 16.0748 129.266 18.8688C126.826 18.6825 124.405 18.5335 121.964 18.4217C122.076 17.1738 122.188 15.9258 122.281 14.6778C122.467 12.9828 122.616 11.325 122.765 9.64859C122.859 8.71726 122.914 7.78592 123.008 6.83596C123.008 6.81734 123.008 6.81734 122.989 6.81734C122.523 6.79871 122.058 6.78008 121.592 6.76146C121.76 4.73115 121.946 2.70085 122.113 0.670541ZM130.998 14.5474C130.998 13.2808 130.998 11.9955 130.998 10.7103V0.819554C133.532 1.04307 136.065 1.30385 138.598 1.6205C138.598 3.42729 138.598 5.21545 138.598 7.02223C139.12 7.07811 139.66 7.15262 140.181 7.22712V15.0317C139.66 14.9572 139.12 14.9013 138.598 14.8268C138.598 16.8199 138.598 18.8129 138.598 20.806C136.065 20.4893 133.532 20.2285 130.998 20.005V14.5474Z" fill="#007BED"/>
<path d="M146.215 13.3369C145.786 13.2065 145.377 13.0202 145.023 12.8526C142.918 11.8654 141.763 10.5243 141.763 9.03412C141.763 8.66159 141.893 8.2518 142.042 8.06554C142.061 8.04691 142.061 8.06554 142.042 8.04691C141.577 7.99103 141.13 7.91652 140.664 7.86064C140.664 7.1342 140.664 6.40776 140.664 5.6627C146.587 6.44502 152.492 7.46948 158.341 8.7361V10.934C156.273 10.487 154.206 10.0772 152.119 9.68606C154.075 10.2449 156.05 10.8223 158.005 11.437C158.024 11.6046 158.024 11.7536 158.024 11.884C158.024 13.1879 157.167 14.0074 155.808 14.3613C154.355 14.7339 152.268 14.6594 149.922 14.2496C148.562 14.0074 147.332 13.6908 146.233 13.3183L146.215 13.3369ZM142.266 1.95599C147.37 2.66381 152.473 3.55789 157.54 4.63823C157.279 5.68132 157 6.70579 156.739 7.74888C153.069 6.98519 149.381 6.31463 145.693 5.7372C144.538 5.55094 143.421 5.40193 142.285 5.23429C142.285 4.13531 142.285 3.03634 142.285 1.95599H142.266ZM142.694 18.3661C142.694 17.6583 142.694 16.9318 142.694 16.224C148.096 16.9877 153.461 17.9563 158.806 19.1111V18.8876C158.806 18.7759 158.806 18.6455 158.806 18.5151C158.806 18.4965 158.806 18.4965 158.788 18.4965C153.461 17.323 148.077 16.373 142.694 15.6093V13.6349C150.76 14.7711 158.769 16.3544 166.704 18.4033C166.704 18.6641 166.704 18.9249 166.704 19.1856C166.704 19.8003 166.704 20.415 166.704 21.0111C166.704 21.3463 166.704 21.663 166.704 21.9983C161.396 20.6385 156.05 19.465 150.685 18.4965C150.667 18.4965 150.667 18.4965 150.667 18.5151C150.667 18.6082 150.667 18.7014 150.667 18.8131C150.667 18.9249 150.667 18.9994 150.667 19.1111C150.667 19.1298 150.667 19.1298 150.685 19.1298C153.74 19.6699 156.776 20.2846 159.812 20.9738C162.345 21.5326 164.86 22.1473 167.375 22.7992C167.151 23.8982 166.909 24.9972 166.686 26.1148C158.769 24.0658 150.76 22.4826 142.694 21.3463V18.3847V18.3661ZM148.785 10.6546C149.083 10.8409 149.437 10.9899 149.884 11.0644C150.871 11.2321 151.542 11.0644 151.542 10.3007C151.542 9.96546 151.337 9.70468 150.983 9.48116C150.257 9.35078 149.53 9.22039 148.804 9.09C148.562 9.16451 148.245 9.35078 148.245 9.70468C148.245 10.1145 148.45 10.3939 148.785 10.6546ZM159.011 12.7595C159.011 12.0703 159.011 11.3438 159.011 10.6546V5.06665C161.582 5.62544 164.152 6.24012 166.704 6.91068C166.704 7.80476 166.704 8.68022 166.704 9.5743C167.226 9.70468 167.747 9.83507 168.269 9.98408C168.269 12.2565 168.269 14.5476 168.269 16.8201C167.747 16.6897 167.226 16.5407 166.704 16.4103C166.704 16.8573 166.704 17.3044 166.704 17.7514C164.152 17.0995 161.582 16.4848 159.011 15.9074V12.7595Z" fill="#007BED"/>
<path d="M169.052 16.4844C169.052 15.2923 169.052 14.1375 169.052 12.9826C170.281 12.9826 171.511 13.0385 172.721 13.0757C172.833 13.0757 172.87 13.0571 172.87 12.9826C171.604 12.6101 170.318 12.2562 169.033 11.9209V7.87891C171.306 8.49359 173.559 9.14552 175.813 9.8347C175.813 11.1758 175.813 12.5356 175.813 13.8767C175.329 13.7277 174.863 13.5787 174.379 13.4483V17.7697C174.379 17.7697 174.379 17.7883 174.398 17.8069C175.031 17.9932 175.664 18.1794 176.298 18.3843C176.149 19.4088 176.018 20.4333 175.888 21.4577C173.615 20.7686 171.324 20.1166 169.033 19.4833V16.4844H169.052ZM171.268 25.2017C171.268 24.2145 171.268 23.2273 171.268 22.2587C171.268 21.7558 171.268 21.2528 171.268 20.7686C174.156 21.5881 177.024 22.4449 179.874 23.3763V24.2704C179.874 24.5311 179.874 24.8478 179.874 25.1272C179.874 25.1458 179.874 25.1458 179.893 25.1644C185.257 26.9153 190.547 28.8711 195.8 31.0505C195.651 32.5592 195.502 34.068 195.353 35.5767C187.455 32.3171 179.408 29.5603 171.268 27.2693C171.268 26.5987 171.268 25.9095 171.268 25.2389V25.2017ZM176.372 18.3843C176.372 17.0246 176.372 15.5531 176.372 14.212V9.96509C178.551 10.6357 180.731 11.3435 182.891 12.0885C182.891 13.4296 182.854 14.7708 182.854 16.1119C182.258 15.907 181.681 15.7207 181.085 15.5158C181.066 15.5158 181.066 15.5158 181.066 15.5158V19.8745C181.066 19.8745 181.066 19.8931 181.085 19.9117C181.886 20.1725 182.687 20.4519 183.487 20.7313C183.394 21.7744 183.32 22.7989 183.227 23.8419C180.954 23.0596 178.682 22.3146 176.391 21.6068V18.403L176.372 18.3843ZM183.692 18.2726C183.692 16.1678 183.692 14.1188 183.692 12.014C185.294 12.5728 186.878 13.1316 188.461 13.7277V17.8069C188.461 17.8069 188.461 17.8255 188.479 17.8442C188.833 17.9746 189.187 18.1049 189.541 18.2353C189.56 18.2353 189.56 18.2353 189.56 18.2353C189.56 16.8756 189.56 15.5158 189.56 14.1747C191.478 14.9012 193.378 15.6462 195.278 16.4285C195.278 17.5648 195.278 18.701 195.278 19.8372C195.278 21.7744 195.278 23.7116 195.278 25.6301C195.278 27.0644 195.278 28.4986 195.278 29.9329C193.378 29.1505 191.478 28.4055 189.56 27.679C189.56 26.3379 189.56 24.9968 189.56 23.6557C189.56 23.6371 189.56 23.6371 189.541 23.6184C189.187 23.488 188.833 23.3577 188.479 23.2273C188.461 23.2273 188.461 23.2273 188.461 23.2273V26.5801C186.878 25.984 185.294 25.4252 183.692 24.8664C183.692 22.6685 183.692 20.4705 183.692 18.2726Z" fill="#007BED"/>
<path d="M35.2409 89.5642C32.0744 88.13 29.8578 86.0997 28.6098 83.4547C27.3432 80.8283 27.0266 77.6991 27.604 74.0669L38.8731 71.4219C38.5565 73.0424 38.7614 74.4953 39.4878 75.8178C40.2143 77.1403 41.4809 78.1647 43.269 78.9098C45.0572 79.6549 47.3296 80.0274 50.0864 80.0274C51.9677 80.0274 53.5696 79.8411 54.8548 79.4686C56.14 79.0961 57.1086 78.5931 57.7419 77.9598C58.3752 77.3265 58.7664 76.6373 58.9154 75.8923C59.0644 75.1845 59.0272 74.5884 58.7664 74.0855C58.5056 73.6012 57.9468 73.1728 57.09 72.8189C56.2332 72.465 54.9666 72.1483 53.3088 71.8689L43.8651 70.565C39.6927 69.969 36.6379 68.7583 34.6635 66.9328C32.6891 65.1074 31.9999 62.7791 32.596 59.9479C33.4528 56.0921 35.8742 53.1491 39.8231 51.1002C43.7719 49.0513 48.5404 48.0268 54.1284 48.0268C58.338 48.0268 61.9143 48.5483 64.8573 49.5914C67.8003 50.6345 70.0355 52.3668 71.5443 54.8069C73.0531 57.247 73.6305 60.5439 73.2766 64.7163L61.4859 67.8456C62.0447 65.8898 61.8771 64.2879 61.0202 63.0771C60.1634 61.8664 58.8409 60.9723 57.09 60.4135C55.3391 59.8733 53.3647 59.5939 51.1667 59.5939C48.8384 59.5939 47.0689 59.892 45.8581 60.5067C44.6474 61.1213 43.8837 62.0154 43.6229 63.1889C43.4739 63.8595 43.4925 64.4369 43.6788 64.9025C43.8837 65.3682 44.3121 65.778 44.9827 66.1505C45.6532 66.5044 46.6032 66.7838 47.8139 66.9701L56.9037 68.1995C60.3683 68.7583 63.125 69.4847 65.1553 70.416C67.1857 71.3474 68.6199 72.5022 69.4022 73.9178C70.1845 75.3335 70.3708 77.0285 69.9238 78.9843C69.4209 81.5734 68.0425 83.8459 65.7887 85.8017C63.5535 87.7388 60.7967 89.2103 57.5557 90.1975C54.3146 91.1848 50.9246 91.669 47.3855 91.669C42.4308 91.669 38.3702 90.9612 35.2037 89.5084L35.2409 89.5642Z" fill="#007BED"/>
<path d="M79.3487 90.0298C77.4116 89.024 75.9028 87.6084 74.8411 85.7457C73.7794 83.9017 73.2578 81.7596 73.2578 79.3195C73.2578 75.8549 74.0029 72.6512 75.4744 69.6709C76.9459 66.7093 79.1066 64.325 81.9565 62.5741C84.8063 60.8046 88.1964 59.9105 92.1266 59.9105C94.3991 59.9105 96.4294 60.3762 98.1989 61.3261C99.9684 62.2761 101.347 63.6359 102.353 65.424C103.358 67.2122 103.861 69.3542 103.861 71.8316H104.159C104.402 70.2111 104.625 68.5905 104.867 66.9328C105.109 65.4799 105.426 63.4682 105.817 60.9164H116.546L113.007 77.4941L112.765 78.444C112.523 79.4685 112.411 80.2322 112.448 80.7351C112.467 81.2567 112.69 81.6478 113.1 81.9086C113.51 82.188 114.236 82.3184 115.261 82.3184L113.305 91.52H110.884C107.196 91.52 104.588 90.9798 103.098 89.9367C101.608 88.875 100.863 87.4593 100.863 85.6898C100.863 85.2614 100.9 84.8144 100.974 84.3301C101.049 83.8644 101.179 83.3801 101.328 82.9144C101.365 82.8399 101.403 82.7095 101.44 82.5605H101.142C99.5214 85.6712 97.4911 87.9436 95.0137 89.3779C92.5364 90.8121 89.612 91.52 86.222 91.52C83.5956 91.52 81.3045 91.017 79.3487 90.0112V90.0298ZM97.398 80.9959C98.944 80.2695 100.117 79.3381 100.881 78.2019C101.645 77.0657 102.036 75.8363 102.036 74.5511C102.036 73.5266 101.719 72.6325 101.067 71.8316C100.415 71.0493 99.4841 70.4346 98.2362 70.0062C96.9882 69.5778 95.4608 69.3542 93.5981 69.3542C91.158 69.3542 89.2022 69.7454 87.6935 70.5277C86.2033 71.31 85.123 72.26 84.4711 73.3962C83.8191 74.5138 83.5025 75.6873 83.5025 76.898C83.5025 78.4627 84.2103 79.7293 85.6259 80.6792C87.0415 81.6292 89.0532 82.0949 91.6423 82.0949C93.9148 82.0949 95.8333 81.7223 97.398 80.9959Z" fill="#007BED"/>
<path d="M121.391 70.7516C121.391 70.0997 121.205 69.6527 120.833 69.4291C120.46 69.2056 119.734 69.0752 118.672 69.0752L120.609 59.8737C124.651 59.8737 127.575 60.2834 129.364 61.0844C131.152 61.8853 132.158 63.1147 132.381 64.7725C132.605 66.4302 132.251 68.7027 131.357 71.6085L131.245 71.9065L129.941 76.2651H130.295C131.748 72.4839 133.368 69.3733 135.138 66.9145C136.907 64.4558 138.751 62.6863 140.651 61.5687C142.551 60.4697 144.47 59.9109 146.407 59.9109C149.704 59.9109 151.995 60.8236 153.243 62.649C154.51 64.4744 154.882 66.84 154.361 69.7272C153.858 72.6143 152.666 75.6132 150.822 78.7238L143.855 78.2582C144.805 76.5259 145.308 75.073 145.364 73.8623C145.42 72.6702 145.085 71.7761 144.339 71.18C143.594 70.584 142.458 70.3046 140.912 70.3046C139.18 70.3046 137.541 70.8448 136.013 71.8879C134.486 72.9496 133.219 74.2907 132.214 75.9298C131.208 77.569 130.519 79.2454 130.127 80.9777L128.06 90.5331H117.387L120.87 74.1976C121.224 72.5398 121.41 71.4036 121.41 70.7516H121.391Z" fill="#007BED"/>
<path d="M160.228 90.0298C158.29 89.024 156.782 87.6084 155.72 85.7457C154.658 83.9017 154.137 81.7596 154.137 79.3195C154.137 75.8549 154.882 72.6512 156.353 69.6709C157.825 66.7093 159.985 64.325 162.835 62.5741C165.685 60.8046 169.075 59.9105 173.006 59.9105C175.278 59.9105 177.308 60.3762 179.078 61.3261C180.847 62.2761 182.226 63.6359 183.232 65.424C184.237 67.2122 184.74 69.3542 184.74 71.8316H185.038C185.28 70.2111 185.504 68.5905 185.746 66.9328C185.988 65.4799 186.305 63.4682 186.696 60.9164H197.425L193.886 77.4941L193.644 78.444C193.402 79.4685 193.29 80.2322 193.327 80.7351C193.346 81.2567 193.569 81.6478 193.979 81.9086C194.389 82.188 195.115 82.3184 196.14 82.3184L194.184 91.52H191.763C188.074 91.52 185.467 90.9798 183.977 89.9367C182.486 88.875 181.741 87.4593 181.741 85.6898C181.741 85.2614 181.779 84.8144 181.853 84.3301C181.928 83.8644 182.058 83.3801 182.207 82.9144C182.244 82.8399 182.282 82.7095 182.319 82.5605H182.021C180.4 85.6712 178.37 87.9436 175.893 89.3779C173.415 90.8121 170.491 91.52 167.101 91.52C164.475 91.52 162.183 91.017 160.228 90.0112V90.0298ZM178.277 80.9959C179.823 80.2695 180.996 79.3381 181.76 78.2019C182.524 77.0657 182.915 75.8363 182.915 74.5511C182.915 73.5266 182.598 72.6325 181.946 71.8316C181.294 71.0493 180.363 70.4346 179.115 70.0062C177.867 69.5778 176.34 69.3542 174.477 69.3542C172.037 69.3542 170.081 69.7454 168.572 70.5277C167.082 71.31 166.002 72.26 165.35 73.3962C164.698 74.5138 164.381 75.6873 164.381 76.898C164.381 78.4627 165.089 79.7293 166.505 80.6792C167.92 81.6292 169.932 82.0949 172.521 82.0949C174.794 82.0949 176.712 81.7223 178.277 80.9959Z" fill="#007BED"/>
<path d="M112.001 114.412C169.136 114.412 215.454 95.5398 215.454 72.2598C215.454 48.9798 169.136 30.1077 112.001 30.1077C54.8661 30.1077 8.54883 48.9798 8.54883 72.2598C8.54883 95.5398 54.8661 114.412 112.001 114.412Z" stroke="#007BED" stroke-width="4" stroke-miterlimit="10"/>
<path d="M112 120C173.168 120 222.754 98.6261 222.754 72.26C222.754 45.8938 173.168 24.5198 112 24.5198C50.8324 24.5198 1.24609 45.8938 1.24609 72.26C1.24609 98.6261 50.8324 120 112 120Z" stroke="#007BED" stroke-width="2" stroke-miterlimit="10"/>
</svg>
