<svg width="157" height="84" viewBox="0 0 157 84" fill="none" xmlns="http://www.w3.org/2000/svg">
<path d="M17.6254 14.917C18.0249 13.5598 18.4105 12.2025 18.8099 10.8452C20.9033 10.0546 23.0243 9.30345 25.1452 8.59187C24.7458 9.10579 24.3326 9.63289 23.9332 10.16C23.6165 10.5817 23.2997 10.9902 22.9829 11.425C24.4979 10.8979 26.0267 10.384 27.5692 9.90961C27.8308 10.6212 28.0925 11.3328 28.3404 12.0575C28.6434 12.9272 28.9602 13.7838 29.2632 14.6535C27.3626 15.2333 25.4758 15.8394 23.6027 16.4851C23.5338 16.0503 23.4925 15.5891 23.4237 15.1542C23.3548 14.6271 23.2859 14.1 23.2171 13.5466C23.1344 13.0327 23.0656 12.5187 23.0105 12.018C23.0105 12.0048 23.0105 12.0048 22.9967 12.018H22.9692C22.9554 12.018 22.9554 12.018 22.9554 12.0444C22.8452 12.9404 22.735 13.8365 22.6249 14.7194C22.5284 15.4573 22.432 16.2084 22.3356 16.92C20.3524 17.6184 18.3829 18.3563 16.4272 19.1338C16.8266 17.737 17.226 16.327 17.6392 14.9302L17.6254 14.917ZM17.7907 22.5863C17.7907 22.046 17.7907 21.5321 17.7907 20.9918C21.5919 19.5159 25.4482 18.1982 29.332 17.0122V16.8409C29.332 16.7487 29.332 16.6564 29.332 16.551C29.332 16.5378 29.332 16.5378 29.3183 16.551C25.4344 17.737 21.5919 19.0547 17.7907 20.5306V19.002C23.465 16.8146 29.2356 14.9434 35.0752 13.3884V15.3914C35.0752 15.6418 35.0752 15.8922 35.0752 16.1557C31.15 17.1967 27.2662 18.3827 23.4237 19.7136C23.4099 19.7136 23.4099 19.7136 23.4099 19.74V20.188C23.4099 20.188 23.4099 20.2012 23.4237 20.188C25.6135 19.4369 27.8171 18.7253 30.0344 18.0533C31.8662 17.4998 33.7117 16.9859 35.571 16.4983C35.4057 17.4076 35.2267 18.33 35.0614 19.2392C29.2219 20.7942 23.465 22.6522 17.7907 24.8528V22.6126V22.5863ZM29.4422 12.4265C29.4422 11.9653 29.4422 11.4777 29.4422 11.0033C29.4422 9.73831 29.4422 8.48645 29.4422 7.22142C31.3153 6.65479 33.1883 6.12769 35.0752 5.62695V7.44544C35.4608 7.34002 35.8464 7.24777 36.2183 7.14236C36.2183 8.75 36.2183 10.3445 36.2183 11.9521C35.8326 12.0444 35.447 12.1498 35.0752 12.2552V12.9799C33.1883 13.4807 31.3153 14.0078 29.4422 14.5744C29.4422 13.8628 29.4422 13.1381 29.4422 12.4265Z" fill="#007BED"/>
<path d="M37.4989 14.9166C37.6366 13.8492 37.7606 12.7818 37.8983 11.7276C37.9809 10.9897 38.0636 10.2386 38.16 9.50064C38.16 9.48747 38.16 9.48747 38.1462 9.50064C37.6642 9.61924 37.1959 9.73784 36.7139 9.85643C36.7139 8.40692 36.7139 6.97058 36.7139 5.52106C38.9175 4.95444 41.1486 4.44052 43.366 3.96613C43.2145 5.66602 43.063 7.35273 42.9252 9.05261C42.6911 11.6354 42.4845 14.205 42.2504 16.7746C40.5426 17.1435 38.8348 17.552 37.1408 17.9737C37.251 16.9591 37.3887 15.9576 37.4989 14.9297V14.9166ZM43.6965 3.88706C45.7073 3.46539 47.7318 3.08324 49.7564 2.74063C49.6049 4.98079 49.4534 7.22095 49.3019 9.46111C49.1642 11.4641 49.0402 13.4407 48.9025 15.4568C47.1258 15.7731 45.3492 16.1157 43.5726 16.4847C43.6552 15.5886 43.7378 14.6794 43.8067 13.7833C43.9444 12.5578 44.0546 11.3455 44.151 10.1463C44.2199 9.47429 44.2612 8.78906 44.33 8.11701C44.33 8.10384 44.33 8.10384 44.3163 8.11701C43.9857 8.1829 43.6414 8.26197 43.3109 8.32785C43.4348 6.85198 43.5588 5.38929 43.6965 3.91342V3.88706ZM50.1971 12.0702V2.34531C52.0564 2.02905 53.9157 1.75232 55.7887 1.50195V5.3234C56.1744 5.27069 56.5738 5.21798 56.9594 5.16527V10.6998C56.5738 10.7525 56.1744 10.8052 55.7887 10.8579V15.0879C53.9157 15.3382 52.0564 15.615 50.1971 15.9312V12.0702Z" fill="#007BED"/>
<path d="M57.7172 4.82293C57.7172 3.65014 57.7172 2.51689 57.7172 1.35727C59.5764 1.13326 61.4357 0.935596 63.295 0.76429V2.99127C63.3226 2.81997 63.3501 2.63548 63.3776 2.46418C63.4327 2.46418 63.4327 2.46418 63.5291 2.31922C63.7908 1.76577 64.0387 1.2255 64.3004 0.672048C65.7465 0.421678 66.7657 0.30308 67.9639 0.316258C69.2723 0.329435 70.1399 0.922419 70.1399 1.83166V5.29732C70.1399 6.03525 70.1399 6.78637 70.1399 7.53748C65.9944 7.73514 61.8489 8.09093 57.7172 8.59167V4.80976V4.82293ZM58.8052 12.4658C58.8052 11.9256 58.8052 11.4116 58.8052 10.8714C62.813 10.4102 66.8345 10.0807 70.8699 9.90941V9.73811C70.8699 9.64587 70.8699 9.55362 70.8699 9.4482C70.8699 9.43503 70.8699 9.43503 70.8561 9.43503C66.8345 9.60633 62.813 9.93577 58.819 10.397C58.819 9.88306 58.819 9.36914 58.819 8.8684C64.7962 8.17 70.801 7.80103 76.8058 7.74832V9.75128C76.8058 10.0017 76.8058 10.252 76.8058 10.5156C72.7705 10.5551 68.7489 10.7264 64.7273 11.0559C64.7136 11.0559 64.7136 11.0558 64.7136 11.069C64.7136 11.1481 64.7136 11.214 64.7136 11.293C64.7136 11.3721 64.7136 11.438 64.7136 11.5171C64.7136 11.5302 64.7136 11.5302 64.7273 11.5302C67.0136 11.3458 69.3136 11.214 71.5998 11.1217C73.5004 11.0427 75.401 11.0031 77.3154 10.99C77.1363 11.8597 76.9711 12.7294 76.792 13.5991C70.7872 13.6518 64.7962 14.0208 58.819 14.7192C58.819 13.9681 58.819 13.2169 58.819 12.479L58.8052 12.4658ZM64.8651 5.75853C64.8651 5.75853 64.8788 5.75853 64.8788 5.74535C64.8788 5.15237 64.8788 4.55938 64.8788 3.95322C64.8788 3.66332 64.5758 3.57108 64.1764 3.59743C63.8184 3.62379 63.6393 3.66332 63.3088 3.71603V4.67798C63.3088 5.08648 63.3088 5.4818 63.3088 5.87713C63.8321 5.82442 64.3555 5.78488 64.8651 5.74535V5.75853ZM70.98 5.35003C70.98 4.88882 70.98 4.40126 70.98 3.92687V0.144951C72.922 0.0658866 74.8501 0.0131774 76.792 0V1.81848C77.1914 1.81848 77.577 1.81848 77.9764 1.81848V6.62824C77.577 6.62824 77.1914 6.62824 76.792 6.62824V7.353C74.8501 7.36617 72.922 7.41888 70.98 7.49795V5.35003Z" fill="#007BED"/>
<path d="M79.2983 9.92274C79.436 8.8949 79.5738 7.85389 79.6977 6.82605C79.7804 6.11447 79.863 5.37653 79.9732 4.66495C79.9732 4.65177 79.9732 4.65177 79.9594 4.65177C79.4774 4.65177 78.9815 4.65177 78.4995 4.65177V0.316406C80.772 0.316406 83.0307 0.369115 85.3031 0.461357C85.1516 2.12171 85.0001 3.78207 84.8486 5.44242C84.6145 7.95931 84.3941 10.4762 84.16 12.9799C82.4247 12.914 80.6756 12.8877 78.9402 12.8745C79.0642 11.8994 79.1881 10.9242 79.3121 9.92274H79.2983ZM85.6336 0.474535C87.6857 0.566777 89.7241 0.685374 91.7762 0.85668C91.6247 3.05731 91.4732 5.25794 91.3217 7.45856C91.184 9.422 91.06 11.3723 90.9223 13.3489C89.1181 13.2171 87.3277 13.1117 85.5235 13.0326C85.6061 12.1497 85.6887 11.2668 85.7576 10.3839C85.8953 9.1848 86.0055 8.01201 86.1157 6.82605C86.1845 6.16718 86.2259 5.50831 86.2947 4.83626C86.2947 4.82308 86.2947 4.82308 86.281 4.82308C85.9366 4.8099 85.5923 4.79673 85.248 4.78355C85.372 3.34721 85.5097 1.91087 85.6336 0.474535ZM92.2031 10.2917C92.2031 9.39564 92.2031 8.4864 92.2031 7.57716V0.579954C94.0762 0.738083 95.9492 0.922567 97.8223 1.14658C97.8223 2.42479 97.8223 3.68982 97.8223 4.96803C98.2079 5.00757 98.6073 5.06028 98.9929 5.11298V10.6343C98.6073 10.5816 98.2079 10.5421 97.8223 10.4894C97.8223 11.8994 97.8223 13.3093 97.8223 14.7193C95.9492 14.4953 94.0762 14.3108 92.2031 14.1527V10.2917Z" fill="#007BED"/>
<path d="M103.456 9.43519C103.139 9.34294 102.836 9.21117 102.574 9.09257C101.018 8.39417 100.164 7.4454 100.164 6.39121C100.164 6.12766 100.261 5.83775 100.371 5.70598C100.385 5.6928 100.385 5.70598 100.371 5.6928C100.027 5.65327 99.696 5.60056 99.3517 5.56103C99.3517 5.04711 99.3517 4.53319 99.3517 4.00609C103.731 4.55955 108.097 5.2843 112.422 6.18037V7.7353C110.893 7.41904 109.364 7.12914 107.822 6.85241C109.268 7.24774 110.728 7.65624 112.174 8.09109C112.188 8.20969 112.188 8.31511 112.188 8.40735C112.188 9.32977 111.554 9.90957 110.549 10.1599C109.474 10.4235 107.932 10.3708 106.197 10.0809C105.191 9.90957 104.282 9.68556 103.47 9.42201L103.456 9.43519ZM100.536 1.38379C104.31 1.88453 108.083 2.51705 111.83 3.28134C111.637 4.01927 111.43 4.74403 111.237 5.48196C108.524 4.94169 105.797 4.4673 103.07 4.0588C102.216 3.92703 101.39 3.82161 100.55 3.70301C100.55 2.92555 100.55 2.14808 100.55 1.38379H100.536ZM100.853 12.9931C100.853 12.4923 100.853 11.9784 100.853 11.4777C104.847 12.018 108.813 12.7032 112.766 13.5202V13.3621C112.766 13.283 112.766 13.1907 112.766 13.0985C112.766 13.0853 112.766 13.0853 112.752 13.0853C108.813 12.2552 104.833 11.5831 100.853 11.0428V9.64603C106.816 10.4498 112.739 11.5699 118.606 13.0194C118.606 13.2039 118.606 13.3884 118.606 13.5729C118.606 14.0077 118.606 14.4426 118.606 14.8643C118.606 15.1015 118.606 15.3255 118.606 15.5627C114.68 14.6007 110.728 13.7706 106.761 13.0853C106.748 13.0853 106.747 13.0853 106.747 13.0985C106.747 13.1644 106.747 13.2303 106.747 13.3093C106.747 13.3884 106.747 13.4411 106.747 13.5202C106.747 13.5334 106.748 13.5334 106.761 13.5334C109.02 13.9155 111.265 14.3504 113.51 14.8379C115.383 15.2332 117.242 15.6681 119.101 16.1293C118.936 16.9068 118.757 17.6842 118.592 18.4749C112.739 17.0254 106.816 15.9053 100.853 15.1015V13.0063V12.9931ZM105.356 7.53764C105.577 7.66941 105.839 7.77483 106.169 7.82754C106.899 7.94614 107.395 7.82754 107.395 7.28727C107.395 7.05008 107.243 6.86559 106.982 6.70746C106.445 6.61522 105.907 6.52298 105.37 6.43074C105.191 6.48345 104.957 6.61522 104.957 6.86559C104.957 7.15549 105.109 7.35316 105.356 7.53764ZM112.918 9.02669C112.918 8.53912 112.918 8.0252 112.918 7.53764V3.58442C114.818 3.97974 116.719 4.41459 118.606 4.88898C118.606 5.5215 118.606 6.14083 118.606 6.77335C118.991 6.86559 119.377 6.95783 119.762 7.06325C119.762 8.6709 119.762 10.2917 119.762 11.8994C119.377 11.8071 118.991 11.7017 118.606 11.6095C118.606 11.9257 118.606 12.242 118.606 12.5582C116.719 12.097 114.818 11.6622 112.918 11.2537V9.02669Z" fill="#007BED"/>
<path d="M120.341 11.6622C120.341 10.8188 120.341 10.0018 120.341 9.18483C121.25 9.18483 122.159 9.22436 123.054 9.25072C123.136 9.25072 123.164 9.23754 123.164 9.18483C122.228 8.92128 121.277 8.67091 120.327 8.43372V5.57422C122.007 6.00907 123.674 6.47028 125.34 6.95785C125.34 7.90662 125.34 8.86857 125.34 9.81735C124.982 9.71193 124.638 9.60651 124.28 9.51427V12.5714C124.28 12.5714 124.28 12.5846 124.293 12.5978C124.762 12.7296 125.23 12.8613 125.698 13.0063C125.588 13.731 125.492 14.4558 125.395 15.1806C123.715 14.693 122.021 14.2318 120.327 13.7837V11.6622H120.341ZM121.98 17.8292C121.98 17.1308 121.98 16.4324 121.98 15.7472C121.98 15.3914 121.98 15.0356 121.98 14.693C124.114 15.2728 126.235 15.879 128.342 16.5378V17.1703C128.342 17.3548 128.342 17.5788 128.342 17.7765C128.342 17.7897 128.342 17.7897 128.356 17.8029C132.323 19.0415 136.234 20.4252 140.118 21.9669C140.008 23.0343 139.898 24.1017 139.787 25.169C133.948 22.863 127.998 20.9127 121.98 19.2919C121.98 18.8175 121.98 18.33 121.98 17.8556V17.8292ZM125.753 13.0063C125.753 12.0443 125.753 11.0033 125.753 10.0545V7.05009C127.365 7.52448 128.976 8.02522 130.574 8.55231C130.574 9.50109 130.546 10.4499 130.546 11.3986C130.105 11.2537 129.678 11.1219 129.238 10.977C129.224 10.977 129.224 10.977 129.224 10.977V14.0605C129.224 14.0605 129.224 14.0737 129.238 14.0868C129.83 14.2713 130.422 14.469 131.014 14.6666C130.945 15.4046 130.89 16.1293 130.822 16.8673C129.141 16.3138 127.461 15.7867 125.767 15.286V13.0195L125.753 13.0063ZM131.166 12.9272C131.166 11.4382 131.166 9.98865 131.166 8.4996C132.35 8.89493 133.521 9.29025 134.692 9.71193V12.5978C134.692 12.5978 134.692 12.611 134.705 12.6241C134.967 12.7164 135.229 12.8086 135.49 12.9009C135.504 12.9009 135.504 12.9009 135.504 12.9009C135.504 11.9389 135.504 10.977 135.504 10.0282C136.923 10.5421 138.328 11.0692 139.732 11.6227C139.732 12.4265 139.732 13.2303 139.732 14.0341C139.732 15.4046 139.732 16.775 139.732 18.1323C139.732 19.147 139.732 20.1616 139.732 21.1763C138.328 20.6228 136.923 20.0957 135.504 19.5818C135.504 18.633 135.504 17.6843 135.504 16.7355C135.504 16.7223 135.504 16.7223 135.49 16.7091C135.229 16.6169 134.967 16.5247 134.705 16.4324C134.692 16.4324 134.692 16.4324 134.692 16.4324V18.8043C133.521 18.3827 132.35 17.9873 131.166 17.592C131.166 16.0371 131.166 14.4822 131.166 12.9272Z" fill="#007BED"/>
<path d="M23.6115 62.5536C21.3676 61.5389 19.7968 60.1026 18.9125 58.2314C18.0149 56.3734 17.7905 54.1596 18.1997 51.59L26.1855 49.7188C25.9611 50.8652 26.1063 51.8931 26.6211 52.8287C27.1358 53.7643 28.0334 54.489 29.3006 55.0161C30.5677 55.5432 32.1781 55.8068 34.1316 55.8068C35.4648 55.8068 36.6 55.675 37.5107 55.4114C38.4215 55.1479 39.1079 54.7921 39.5567 54.3441C40.0055 53.896 40.2827 53.4085 40.3883 52.8814C40.4939 52.3806 40.4675 51.959 40.2827 51.6032C40.0979 51.2606 39.7019 50.9575 39.0947 50.7071C38.4875 50.4567 37.5899 50.2327 36.4152 50.0351L29.723 49.1126C26.7662 48.691 24.6015 47.8344 23.2024 46.543C21.8032 45.2517 21.3148 43.6045 21.7372 41.6015C22.3444 38.8738 24.0603 36.7918 26.8586 35.3422C29.657 33.8927 33.0361 33.168 36.996 33.168C39.9791 33.168 42.5134 33.5369 44.5989 34.2749C46.6845 35.0128 48.2684 36.2383 49.3376 37.9645C50.4068 39.6908 50.816 42.0232 50.5652 44.9749L42.2098 47.1887C42.6058 45.8051 42.487 44.6719 41.8798 43.8153C41.2726 42.9588 40.3355 42.3263 39.0947 41.9309C37.8539 41.5488 36.4548 41.3511 34.8972 41.3511C33.2473 41.3511 31.9933 41.562 31.1353 41.9968C30.2773 42.4317 29.7362 43.0642 29.5514 43.8944C29.4458 44.3688 29.459 44.7773 29.591 45.1067C29.7362 45.4361 30.0398 45.726 30.5149 45.9896C30.9901 46.24 31.6633 46.4376 32.5213 46.5694L38.9627 47.4391C41.4178 47.8344 43.3714 48.3483 44.8101 49.0072C46.2489 49.6661 47.2653 50.4831 47.8196 51.4846C48.374 52.4861 48.506 53.6852 48.1892 55.0688C47.8328 56.9005 46.8561 58.5081 45.2589 59.8918C43.675 61.2622 41.7214 62.3032 39.4247 63.0016C37.128 63.7 34.7256 64.0426 32.2177 64.0426C28.7066 64.0426 25.8291 63.5419 23.5851 62.5141L23.6115 62.5536Z" fill="#007BED"/>
<path d="M54.8682 62.8831C53.4954 62.1715 52.4262 61.17 51.6739 59.8523C50.9215 58.5477 50.5519 57.0323 50.5519 55.3061C50.5519 52.8551 51.0799 50.5885 52.1226 48.4802C53.1654 46.385 54.6966 44.6982 56.7161 43.4596C58.7356 42.2077 61.138 41.5752 63.9231 41.5752C65.5335 41.5752 66.9722 41.9046 68.2262 42.5767C69.4801 43.2487 70.4569 44.2107 71.1697 45.4757C71.8825 46.7407 72.2389 48.2561 72.2389 50.0087H72.45C72.6216 48.8623 72.78 47.7159 72.9516 46.5431C73.1232 45.5152 73.3476 44.0921 73.6248 42.2868H81.2278L78.7199 54.0147L78.5483 54.6867C78.3767 55.4115 78.2975 55.9518 78.3239 56.3075C78.3371 56.6765 78.4955 56.9532 78.7859 57.1377C79.0763 57.3354 79.591 57.4276 80.317 57.4276L78.9311 63.9373H77.2151C74.6016 63.9373 72.7536 63.5551 71.6977 62.8172C70.6417 62.0661 70.1137 61.0646 70.1137 59.8127C70.1137 59.5097 70.1401 59.1934 70.1929 58.8508C70.2457 58.5214 70.3381 58.1787 70.4437 57.8493C70.4701 57.7966 70.4965 57.7044 70.5229 57.5989H70.3117C69.1633 59.7996 67.7246 61.4072 65.969 62.4219C64.2135 63.4365 62.1412 63.9373 59.7388 63.9373C57.8777 63.9373 56.2541 63.5815 54.8682 62.8699V62.8831ZM67.6586 56.492C68.7542 55.9781 69.5857 55.3192 70.1269 54.5154C70.6681 53.7116 70.9453 52.8419 70.9453 51.9326C70.9453 51.2079 70.7209 50.5754 70.2589 50.0087C69.7969 49.4553 69.1369 49.0204 68.2526 48.7174C67.3682 48.4143 66.2858 48.2561 64.9659 48.2561C63.2367 48.2561 61.8508 48.5329 60.7816 49.0863C59.7256 49.6398 58.96 50.3118 58.4981 51.1156C58.0361 51.9063 57.8117 52.7365 57.8117 53.593C57.8117 54.6999 58.3133 55.596 59.3164 56.268C60.3196 56.9401 61.7452 57.2695 63.5799 57.2695C65.1903 57.2695 66.5498 57.0059 67.6586 56.492Z" fill="#007BED"/>
<path d="M84.6621 49.2444C84.6621 48.7832 84.5301 48.467 84.2662 48.3088C84.0022 48.1507 83.4874 48.0585 82.735 48.0585L84.1078 41.5488C86.9721 41.5488 89.0444 41.8387 90.3116 42.4054C91.5787 42.972 92.2915 43.8417 92.4499 45.0145C92.6083 46.1873 92.3575 47.7949 91.7239 49.8506L91.6447 50.0614L90.7208 53.145H90.9715C92.0011 50.4699 93.1495 48.2693 94.4034 46.5299C95.6574 44.7905 96.9642 43.5386 98.3105 42.748C99.6569 41.9705 101.016 41.5752 102.389 41.5752C104.726 41.5752 106.349 42.2209 107.233 43.5123C108.131 44.8037 108.395 46.4772 108.025 48.5197C107.669 50.5622 106.824 52.6837 105.518 54.8844L100.581 54.5549C101.254 53.3294 101.61 52.3016 101.65 51.4451C101.69 50.6017 101.452 49.9692 100.924 49.5475C100.396 49.1258 99.5909 48.9282 98.4953 48.9282C97.2678 48.9282 96.1062 49.3103 95.0238 50.0483C93.9415 50.7994 93.0439 51.7481 92.3311 52.9078C91.6183 54.0674 91.1299 55.2533 90.8528 56.4788L89.3876 63.2388H81.8242L84.2925 51.6823C84.5433 50.5095 84.6753 49.7056 84.6753 49.2444H84.6621Z" fill="#007BED"/>
<path d="M112.183 62.8831C110.81 62.1715 109.741 61.17 108.989 59.8523C108.236 58.5477 107.867 57.0323 107.867 55.3061C107.867 52.8551 108.395 50.5885 109.438 48.4802C110.48 46.385 112.011 44.6982 114.031 43.4596C116.051 42.2077 118.453 41.5752 121.238 41.5752C122.848 41.5752 124.287 41.9046 125.541 42.5767C126.795 43.2487 127.772 44.2107 128.485 45.4757C129.197 46.7407 129.554 48.2561 129.554 50.0087H129.765C129.937 48.8623 130.095 47.7159 130.267 46.5431C130.438 45.5152 130.663 44.0921 130.94 42.2868H138.543L136.035 54.0147L135.863 54.6867C135.692 55.4115 135.612 55.9518 135.639 56.3075C135.652 56.6765 135.81 56.9532 136.101 57.1377C136.391 57.3354 136.906 57.4276 137.632 57.4276L136.246 63.9373H134.53C131.917 63.9373 130.069 63.5551 129.013 62.8172C127.957 62.0661 127.429 61.0646 127.429 59.8127C127.429 59.5097 127.455 59.1934 127.508 58.8508C127.561 58.5214 127.653 58.1787 127.759 57.8493C127.785 57.7966 127.811 57.7044 127.838 57.5989H127.627C126.478 59.7996 125.04 61.4072 123.284 62.4219C121.528 63.4365 119.456 63.9373 117.054 63.9373C115.193 63.9373 113.569 63.5815 112.183 62.8699V62.8831ZM124.974 56.492C126.069 55.9781 126.901 55.3192 127.442 54.5154C127.983 53.7116 128.26 52.8419 128.26 51.9326C128.26 51.2079 128.036 50.5754 127.574 50.0087C127.112 49.4553 126.452 49.0204 125.568 48.7174C124.683 48.4143 123.601 48.2561 122.281 48.2561C120.552 48.2561 119.166 48.5329 118.097 49.0863C117.041 49.6398 116.275 50.3118 115.813 51.1156C115.351 51.9063 115.127 52.7365 115.127 53.593C115.127 54.6999 115.628 55.596 116.631 56.268C117.635 56.9401 119.06 57.2695 120.895 57.2695C122.505 57.2695 123.865 57.0059 124.974 56.492Z" fill="#007BED"/>
<path fill-rule="evenodd" clip-rule="evenodd" d="M148.323 61.2722C151.924 57.5858 153.646 53.8189 153.646 50.1139C153.646 46.4089 151.924 42.642 148.323 38.9556C144.708 35.256 139.336 31.7914 132.47 28.8189C118.748 22.8782 99.5882 19.1321 78.2727 19.1321C56.9573 19.1321 37.7977 22.8782 24.0754 28.8189C17.2095 31.7914 11.8371 35.256 8.22273 38.9556C4.62114 42.642 2.89899 46.4089 2.89899 50.1139C2.89899 53.8189 4.62114 57.5858 8.22273 61.2722C11.8371 64.9718 17.2095 68.4364 24.0754 71.4089C37.7977 77.3496 56.9573 81.0957 78.2727 81.0957C99.5882 81.0957 118.748 77.3496 132.47 71.4089C139.336 68.4364 144.708 64.9718 148.323 61.2722ZM156.545 50.1139C156.545 68.8288 121.502 84.0003 78.2727 84.0003C35.0439 84.0003 0 68.8288 0 50.1139C0 31.399 35.0439 16.2275 78.2727 16.2275C121.502 16.2275 156.545 31.399 156.545 50.1139Z" fill="#007BED"/>
<path fill-rule="evenodd" clip-rule="evenodd" d="M145.469 60.5153C149.032 57.1468 150.821 53.619 150.821 50.0787C150.821 46.5384 149.032 43.0105 145.469 39.6421C141.904 36.2715 136.666 33.1679 130.07 30.5306C116.889 25.2596 98.5784 21.9669 78.2796 21.9669C57.9809 21.9669 39.6706 25.2596 26.4888 30.5306C19.8936 33.1679 14.6551 36.2715 11.0899 39.6421C7.52692 43.0105 5.73851 46.5384 5.73851 50.0787C5.73851 53.619 7.52692 57.1468 11.0899 60.5153C14.6551 63.8859 19.8936 66.9895 26.4888 69.6267C39.6706 74.8978 57.9809 78.1905 78.2796 78.1905C98.5784 78.1905 116.889 74.8978 130.07 69.6267C136.666 66.9895 141.904 63.8859 145.469 60.5153ZM152.281 50.0787C152.281 66.4216 119.15 79.6701 78.2796 79.6701C37.4096 79.6701 4.27795 66.4216 4.27795 50.0787C4.27795 33.7358 37.4096 20.4873 78.2796 20.4873C119.15 20.4873 152.281 33.7358 152.281 50.0787Z" fill="#007BED"/>
</svg>
