<svg width="95" height="42" viewBox="0 0 95 42" fill="none" xmlns="http://www.w3.org/2000/svg">
<path d="M15.2407 28.2494C13.9141 27.6485 12.9855 26.798 12.4627 25.6899C11.9321 24.5896 11.7994 23.2786 12.0413 21.757L16.7624 20.6489C16.6297 21.3278 16.7155 21.9365 17.0199 22.4905C17.3242 23.0445 17.8548 23.4737 18.6039 23.7859C19.3531 24.098 20.3051 24.2541 21.46 24.2541C22.2481 24.2541 22.9192 24.176 23.4576 24.02C23.9961 23.8639 24.4018 23.6532 24.6672 23.3879C24.9325 23.1226 25.0963 22.8339 25.1588 22.5217C25.2212 22.2252 25.2056 21.9755 25.0963 21.7648C24.9871 21.5619 24.753 21.3824 24.394 21.2342C24.0351 21.0859 23.5045 20.9532 22.81 20.8362L18.8537 20.29C17.1057 20.0403 15.8259 19.533 14.9988 18.7683C14.1716 18.0036 13.8829 17.0282 14.1326 15.842C14.4916 14.2268 15.506 12.9938 17.1603 12.1355C18.8146 11.2771 20.8123 10.8479 23.1533 10.8479C24.9169 10.8479 26.4151 11.0664 27.648 11.5034C28.881 11.9404 29.8174 12.6661 30.4494 13.6883C31.0815 14.7106 31.3234 16.0918 31.1751 17.8397L26.2356 19.1507C26.4697 18.3313 26.3995 17.6602 26.0405 17.153C25.6816 16.6458 25.1275 16.2712 24.394 16.0371C23.6605 15.8108 22.8334 15.6938 21.9126 15.6938C20.9371 15.6938 20.1958 15.8186 19.6886 16.0761C19.1814 16.3337 18.8615 16.7082 18.7522 17.1998C18.6898 17.4808 18.6976 17.7227 18.7756 17.9177C18.8615 18.1128 19.0409 18.2845 19.3219 18.4406C19.6028 18.5888 20.0007 18.7059 20.508 18.7839L24.316 19.2989C25.7674 19.533 26.9223 19.8374 27.7729 20.2275C28.6235 20.6177 29.2243 21.1015 29.5521 21.6946C29.8798 22.2876 29.9578 22.9977 29.7705 23.8171C29.5599 24.9017 28.9824 25.8538 28.0382 26.6731C27.1018 27.4847 25.9469 28.1011 24.5891 28.5147C23.2313 28.9283 21.8111 29.1312 20.3285 29.1312C18.2528 29.1312 16.5517 28.8346 15.2251 28.226L15.2407 28.2494Z" fill="#007BED"/>
<path d="M33.7193 28.4444C32.9078 28.0231 32.2757 27.43 31.8309 26.6497C31.3861 25.8771 31.1676 24.9798 31.1676 23.9575C31.1676 22.5061 31.4797 21.1639 32.0962 19.9154C32.7127 18.6746 33.6179 17.6758 34.8118 16.9423C36.0057 16.201 37.4259 15.8264 39.0724 15.8264C40.0244 15.8264 40.875 16.0215 41.6163 16.4195C42.3576 16.8174 42.9351 17.3871 43.3564 18.1362C43.7778 18.8853 43.9885 19.7827 43.9885 20.8206H44.1134C44.2148 20.1417 44.3085 19.4628 44.4099 18.7683C44.5113 18.1596 44.644 17.3169 44.8079 16.2478H49.3026L47.82 23.1928L47.7185 23.5908C47.6171 24.0199 47.5703 24.3399 47.5859 24.5506C47.5937 24.7691 47.6873 24.9329 47.859 25.0422C48.0307 25.1592 48.335 25.2139 48.7642 25.2139L47.9448 29.0687H46.9304C45.3853 29.0687 44.2928 28.8424 43.6686 28.4054C43.0443 27.9606 42.7322 27.3676 42.7322 26.6263C42.7322 26.4468 42.7478 26.2595 42.779 26.0566C42.8102 25.8615 42.8648 25.6586 42.9273 25.4636C42.9429 25.4323 42.9585 25.3777 42.9741 25.3153H42.8492C42.1703 26.6185 41.3198 27.5705 40.2819 28.1713C39.2441 28.7722 38.019 29.0687 36.5987 29.0687C35.4985 29.0687 34.5387 28.858 33.7193 28.4366V28.4444ZM41.2808 24.6598C41.9284 24.3555 42.42 23.9653 42.74 23.4893C43.0599 23.0133 43.2238 22.4983 43.2238 21.9599C43.2238 21.5307 43.0911 21.1561 42.818 20.8206C42.5449 20.4928 42.1547 20.2353 41.6319 20.0558C41.1091 19.8764 40.4692 19.7827 39.6889 19.7827C38.6666 19.7827 37.8473 19.9466 37.2152 20.2743C36.5909 20.6021 36.1383 21 35.8652 21.476C35.5921 21.9442 35.4594 22.4359 35.4594 22.9431C35.4594 23.5986 35.756 24.1292 36.349 24.5272C36.9421 24.9251 37.7848 25.1202 38.8695 25.1202C39.8215 25.1202 40.6253 24.9641 41.2808 24.6598Z" fill="#007BED"/>
<path d="M51.3317 20.3681C51.3317 20.095 51.2536 19.9077 51.0976 19.814C50.9415 19.7204 50.6372 19.6658 50.1924 19.6658L51.0039 15.8109C52.6972 15.8109 53.9224 15.9826 54.6715 16.3181C55.4206 16.6537 55.842 17.1687 55.9356 17.8632C56.0293 18.5577 55.881 19.5097 55.5064 20.727L55.4596 20.8519L54.9134 22.6779H55.0617C55.6703 21.0938 56.3492 19.7906 57.0905 18.7606C57.8318 17.7305 58.6044 16.9892 59.4003 16.521C60.1963 16.0606 61 15.8265 61.8116 15.8265C63.1927 15.8265 64.1526 16.2089 64.6754 16.9736C65.206 17.7383 65.3621 18.7294 65.1436 19.9389C64.9329 21.1484 64.4335 22.4047 63.661 23.7079L60.7425 23.5128C61.1405 22.7871 61.3512 22.1785 61.3746 21.6712C61.398 21.1718 61.2575 20.7973 60.9454 20.5476C60.6332 20.2978 60.1572 20.1808 59.5096 20.1808C58.7839 20.1808 58.0972 20.4071 57.4573 20.8441C56.8174 21.2889 56.2868 21.8507 55.8654 22.5374C55.444 23.2241 55.1553 23.9264 54.9914 24.6521L54.1253 28.6552H49.6539L51.1132 21.8117C51.2614 21.1172 51.3395 20.6412 51.3395 20.3681H51.3317Z" fill="#007BED"/>
<path d="M67.6013 28.4444C66.7897 28.0231 66.1576 27.43 65.7128 26.6497C65.2681 25.8771 65.0496 24.9798 65.0496 23.9575C65.0496 22.5061 65.3617 21.1639 65.9782 19.9154C66.5946 18.6746 67.4998 17.6758 68.6937 16.9423C69.8876 16.201 71.3078 15.8264 72.9544 15.8264C73.9064 15.8264 74.7569 16.0215 75.4983 16.4195C76.2396 16.8174 76.817 17.3871 77.2384 18.1362C77.6598 18.8853 77.8705 19.7827 77.8705 20.8206H77.9953C78.0968 20.1417 78.1904 19.4628 78.2919 18.7683C78.3933 18.1596 78.526 17.3169 78.6898 16.2478H83.1846L81.7019 23.1928L81.6005 23.5908C81.499 24.0199 81.4522 24.3399 81.4678 24.5506C81.4756 24.7691 81.5693 24.9329 81.7409 25.0422C81.9126 25.1592 82.2169 25.2139 82.6461 25.2139L81.8268 29.0687H80.8123C79.2673 29.0687 78.1748 28.8424 77.5505 28.4054C76.9263 27.9606 76.6141 27.3676 76.6141 26.6263C76.6141 26.4468 76.6297 26.2595 76.661 26.0566C76.6922 25.8615 76.7468 25.6586 76.8092 25.4636C76.8248 25.4323 76.8404 25.3777 76.856 25.3153H76.7312C76.0523 26.6185 75.2017 27.5705 74.1639 28.1713C73.126 28.7722 71.9009 29.0687 70.4807 29.0687C69.3804 29.0687 68.4206 28.858 67.6013 28.4366V28.4444ZM75.1627 24.6598C75.8104 24.3555 76.302 23.9653 76.6219 23.4893C76.9419 23.0133 77.1057 22.4983 77.1057 21.9599C77.1057 21.5307 76.9731 21.1561 76.7 20.8206C76.4269 20.4928 76.0367 20.2353 75.5139 20.0558C74.991 19.8764 74.3512 19.7827 73.5708 19.7827C72.5486 19.7827 71.7292 19.9466 71.0972 20.2743C70.4729 20.6021 70.0203 21 69.7472 21.476C69.4741 21.9442 69.3414 22.4359 69.3414 22.9431C69.3414 23.5986 69.6379 24.1292 70.231 24.5272C70.824 24.9251 71.6668 25.1202 72.7515 25.1202C73.7035 25.1202 74.5072 24.9641 75.1627 24.6598Z" fill="#007BED"/>
<path d="M47.3985 38.6589C71.3345 38.6589 90.7384 30.7527 90.7384 20.9999C90.7384 11.2471 71.3345 3.34094 47.3985 3.34094C23.4626 3.34094 4.05872 11.2471 4.05872 20.9999C4.05872 30.7527 23.4626 38.6589 47.3985 38.6589Z" stroke="#007BED" stroke-width="1.5" stroke-miterlimit="10"/>
<path d="M47.3987 41C73.0241 41 93.7975 32.0457 93.7975 21C93.7975 9.95431 73.0241 1 47.3987 1C21.7734 1 1 9.95431 1 21C1 32.0457 21.7734 41 47.3987 41Z" stroke="#007BED" stroke-width="0.5" stroke-miterlimit="10"/>
</svg>
