<svg width="63" height="16" viewBox="0 0 63 16" fill="none" xmlns="http://www.w3.org/2000/svg">
<path d="M2.90169 15.2283C1.74078 14.7025 0.928151 13.9582 0.470618 12.9885C0.00625595 12.0256 -0.109835 10.8784 0.10186 9.54673L4.23332 8.57704C4.11723 9.17115 4.19234 9.7038 4.45867 10.1886C4.72499 10.6735 5.18936 11.0491 5.84493 11.3222C6.5005 11.5954 7.33362 11.732 8.34429 11.732C9.034 11.732 9.62128 11.6637 10.0925 11.5271C10.5637 11.3905 10.9188 11.2061 11.1509 10.974C11.3831 10.7418 11.5265 10.4891 11.5812 10.216C11.6358 9.95647 11.6221 9.73794 11.5265 9.55356C11.4309 9.37601 11.2261 9.21895 10.9119 9.0892C10.5978 8.95945 10.1334 8.84336 9.52568 8.74093L6.06345 8.26291C4.53379 8.04439 3.41385 7.60051 2.69 6.93128C1.96614 6.26206 1.71347 5.40845 1.93199 4.37047C2.24612 2.95689 3.13387 1.87793 4.58159 1.12676C6.0293 0.375587 7.77749 0 9.82615 0C11.3695 0 12.6806 0.191208 13.7596 0.573624C14.8385 0.956039 15.658 1.59112 16.2111 2.4857C16.7643 3.38028 16.976 4.58899 16.8462 6.11865L12.5235 7.2659C12.7284 6.54887 12.6669 5.96159 12.3528 5.51771C12.0387 5.07384 11.5538 4.74605 10.9119 4.54119C10.27 4.34315 9.54616 4.24072 8.74036 4.24072C7.88675 4.24072 7.23801 4.34998 6.79414 4.57533C6.35026 4.80068 6.07028 5.12847 5.97467 5.55869C5.92004 5.80452 5.92687 6.01622 5.99516 6.18694C6.07028 6.35766 6.22734 6.5079 6.47318 6.64447C6.71902 6.77422 7.06729 6.87665 7.51117 6.94494L10.8436 7.39565C12.1138 7.60051 13.1245 7.86684 13.8688 8.20828C14.6132 8.54972 15.139 8.97311 15.4258 9.4921C15.7126 10.0111 15.7809 10.6325 15.617 11.3496C15.4326 12.2988 14.9273 13.1319 14.101 13.8489C13.2815 14.5591 12.2709 15.0986 11.0827 15.4605C9.89444 15.8225 8.65158 16 7.3541 16C5.53763 16 4.04894 15.7405 2.88803 15.2079L2.90169 15.2283Z" fill="white"/>
<path d="M19.0709 15.3989C18.3607 15.0302 17.8076 14.5112 17.4183 13.8283C17.0291 13.1523 16.8379 12.3669 16.8379 11.4724C16.8379 10.2022 17.111 9.02762 17.6505 7.93501C18.19 6.84922 18.9822 5.97513 20.027 5.33322C21.0718 4.68447 22.3146 4.35669 23.7555 4.35669C24.5886 4.35669 25.333 4.52741 25.9817 4.87568C26.6305 5.22395 27.1358 5.72246 27.5046 6.37803C27.8733 7.0336 28.0577 7.81892 28.0577 8.72716H28.167C28.2557 8.13304 28.3377 7.53894 28.4265 6.93117C28.5152 6.39852 28.6313 5.661 28.7747 4.72545H32.7081L31.4107 10.8031L31.3219 11.1514C31.2331 11.527 31.1921 11.807 31.2058 11.9913C31.2126 12.1826 31.2946 12.326 31.4448 12.4216C31.595 12.524 31.8614 12.5718 32.237 12.5718L31.5199 15.9453H30.6322C29.2801 15.9453 28.324 15.7472 27.7777 15.3648C27.2314 14.9756 26.9582 14.4566 26.9582 13.8078C26.9582 13.6508 26.9719 13.4869 26.9992 13.3093C27.0265 13.1386 27.0743 12.961 27.129 12.7903C27.1426 12.763 27.1563 12.7152 27.1699 12.6606H27.0607C26.4666 13.801 25.7222 14.6341 24.814 15.1599C23.9058 15.6858 22.8336 15.9453 21.5908 15.9453C20.6279 15.9453 19.788 15.7609 19.0709 15.3921V15.3989ZM25.6881 12.087C26.2549 11.8206 26.6851 11.4792 26.9651 11.0626C27.2451 10.6461 27.3885 10.1954 27.3885 9.72417C27.3885 9.34858 27.2724 9.0208 27.0334 8.72716C26.7944 8.44034 26.4529 8.21499 25.9954 8.05793C25.5378 7.90086 24.9779 7.81892 24.295 7.81892C23.4004 7.81892 22.6834 7.96232 22.1303 8.24914C21.5839 8.53595 21.1879 8.88422 20.9489 9.30078C20.7098 9.71051 20.5938 10.1407 20.5938 10.5846C20.5938 11.1582 20.8533 11.6226 21.3722 11.9709C21.8912 12.3191 22.6288 12.4899 23.578 12.4899C24.4111 12.4899 25.1145 12.3533 25.6881 12.087Z" fill="white"/>
<path d="M34.4858 8.33131C34.4858 8.0923 34.4175 7.92841 34.2809 7.84646C34.1443 7.76452 33.878 7.71672 33.4888 7.71672L34.199 4.34326C35.6808 4.34326 36.753 4.4935 37.4085 4.78714C38.0641 5.08078 38.4329 5.53148 38.5148 6.13925C38.5967 6.74702 38.467 7.58014 38.1392 8.64544L38.0982 8.7547L37.6202 10.3527H37.75C38.2826 8.9664 38.8767 7.82598 39.5255 6.92457C40.1742 6.02316 40.8503 5.37442 41.5468 4.96469C42.2434 4.56178 42.9467 4.35692 43.6569 4.35692C44.8656 4.35692 45.7056 4.69153 46.1631 5.36076C46.6275 6.02999 46.7641 6.89725 46.5729 7.95573C46.3885 9.0142 45.9514 10.1136 45.2754 11.2541L42.7214 11.0833C43.0696 10.4483 43.254 9.91561 43.2745 9.47173C43.295 9.03468 43.1721 8.7069 42.8989 8.48838C42.6258 8.26985 42.2092 8.16742 41.6424 8.16742C41.0073 8.16742 40.4064 8.36546 39.8464 8.74787C39.2865 9.13712 38.8221 9.62879 38.4533 10.2297C38.0846 10.8307 37.8319 11.4453 37.6885 12.0804L36.9305 15.5836H33.0176L34.2946 9.59465C34.4243 8.98688 34.4926 8.57032 34.4926 8.33131H34.4858Z" fill="white"/>
<path d="M48.7252 15.3989C48.015 15.0302 47.4619 14.5112 47.0726 13.8283C46.6834 13.1523 46.4922 12.3669 46.4922 11.4724C46.4922 10.2022 46.7653 9.02762 47.3048 7.93501C47.8443 6.84922 48.6364 5.97513 49.6813 5.33322C50.7261 4.68447 51.9689 4.35669 53.4098 4.35669C54.2429 4.35669 54.9873 4.52741 55.636 4.87568C56.2848 5.22395 56.7901 5.72246 57.1589 6.37803C57.5276 7.0336 57.712 7.81892 57.712 8.72716H57.8213C57.91 8.13304 57.992 7.53894 58.0808 6.93117C58.1695 6.39852 58.2856 5.661 58.429 4.72545H62.3624L61.065 10.8031L60.9762 11.1514C60.8874 11.527 60.8464 11.807 60.8601 11.9913C60.8669 12.1826 60.9489 12.326 61.0991 12.4216C61.2493 12.524 61.5157 12.5718 61.8912 12.5718L61.1742 15.9453H60.2865C58.9344 15.9453 57.9783 15.7472 57.432 15.3648C56.8857 14.9756 56.6125 14.4566 56.6125 13.8078C56.6125 13.6508 56.6262 13.4869 56.6535 13.3093C56.6808 13.1386 56.7286 12.961 56.7833 12.7903C56.7969 12.763 56.8106 12.7152 56.8242 12.6606H56.715C56.1209 13.801 55.3765 14.6341 54.4683 15.1599C53.5601 15.6858 52.4879 15.9453 51.2451 15.9453C50.2822 15.9453 49.4422 15.7609 48.7252 15.3921V15.3989ZM55.3424 12.087C55.9092 11.8206 56.3394 11.4792 56.6194 11.0626C56.8994 10.6461 57.0428 10.1954 57.0428 9.72417C57.0428 9.34858 56.9267 9.0208 56.6877 8.72716C56.4487 8.44034 56.1072 8.21499 55.6497 8.05793C55.1921 7.90086 54.6322 7.81892 53.9493 7.81892C53.0547 7.81892 52.3377 7.96232 51.7845 8.24914C51.2382 8.53595 50.8422 8.88422 50.6032 9.30078C50.3641 9.71051 50.2481 10.1407 50.2481 10.5846C50.2481 11.1582 50.5076 11.6226 51.0265 11.9709C51.5455 12.3191 52.2831 12.4899 53.2323 12.4899C54.0654 12.4899 54.7688 12.3533 55.3424 12.087Z" fill="white"/>
</svg>
