<svg width="75" height="34" viewBox="0 0 75 34" fill="none" xmlns="http://www.w3.org/2000/svg">
<path d="M11.7737 22.7996C10.7125 22.3189 9.96958 21.6385 9.55132 20.752C9.12681 19.8718 9.02069 18.823 9.21421 17.6057L12.991 16.7192C12.8849 17.2623 12.9536 17.7493 13.197 18.1925C13.4405 18.6357 13.865 18.9791 14.4643 19.2288C15.0636 19.4785 15.8252 19.6033 16.7491 19.6033C17.3796 19.6033 17.9165 19.5409 18.3473 19.4161C18.778 19.2912 19.1026 19.1227 19.3149 18.9104C19.5271 18.6982 19.6582 18.4672 19.7082 18.2175C19.7581 17.9803 19.7456 17.7805 19.6582 17.6119C19.5708 17.4496 19.3835 17.306 19.0964 17.1874C18.8092 17.0688 18.3847 16.9627 17.8291 16.8691L14.6641 16.4321C13.2657 16.2323 12.2419 15.8265 11.5802 15.2147C10.9185 14.603 10.6875 13.8226 10.8873 12.8737C11.1744 11.5815 11.986 10.5952 13.3094 9.90846C14.6329 9.22177 16.231 8.87842 18.1038 8.87842C19.5146 8.87842 20.7132 9.05321 21.6996 9.4028C22.6859 9.75239 23.435 10.333 23.9407 11.1508C24.4464 11.9685 24.6399 13.0735 24.5213 14.4719L20.5697 15.5206C20.7569 14.8652 20.7007 14.3283 20.4136 13.9225C20.1264 13.5167 19.6832 13.2171 19.0964 13.0298C18.5096 12.8488 17.8478 12.7551 17.1112 12.7551C16.3309 12.7551 15.7378 12.855 15.332 13.061C14.9263 13.267 14.6703 13.5667 14.5829 13.96C14.533 14.1847 14.5392 14.3782 14.6016 14.5343C14.6703 14.6904 14.8139 14.8277 15.0386 14.9525C15.2634 15.0712 15.5817 15.1648 15.9875 15.2272L19.034 15.6392C20.1951 15.8265 21.119 16.07 21.7995 16.3821C22.4799 16.6943 22.9606 17.0813 23.2228 17.5557C23.485 18.0302 23.5474 18.5983 23.3976 19.2538C23.229 20.1215 22.7671 20.8831 22.0117 21.5386C21.2626 22.1878 20.3387 22.681 19.2524 23.0119C18.1662 23.3427 17.0301 23.505 15.8439 23.505C14.1834 23.505 12.8225 23.2678 11.7612 22.7809L11.7737 22.7996Z" fill="#007BED"/>
<path d="M26.557 22.9555C25.9077 22.6184 25.4021 22.144 25.0463 21.5197C24.6904 20.9017 24.5156 20.1838 24.5156 19.366C24.5156 18.2048 24.7653 17.1311 25.2585 16.1323C25.7517 15.1397 26.4758 14.3406 27.431 13.7538C28.3861 13.1607 29.5223 12.8611 30.8395 12.8611C31.6011 12.8611 32.2815 13.0172 32.8746 13.3355C33.4676 13.6539 33.9296 14.1096 34.2667 14.7089C34.6038 15.3082 34.7724 16.0261 34.7724 16.8564H34.8722C34.9534 16.3133 35.0283 15.7702 35.1095 15.2146C35.1906 14.7276 35.2967 14.0534 35.4278 13.1982H39.0236L37.8375 18.7542L37.7564 19.0726C37.6752 19.4159 37.6377 19.6719 37.6502 19.8404C37.6565 20.0152 37.7314 20.1463 37.8687 20.2337C38.0061 20.3273 38.2495 20.371 38.5929 20.371L37.9374 23.4549H37.1258C35.8898 23.4549 35.0158 23.2739 34.5164 22.9243C34.017 22.5685 33.7673 22.094 33.7673 21.501C33.7673 21.3574 33.7798 21.2076 33.8047 21.0452C33.8297 20.8892 33.8734 20.7269 33.9233 20.5708C33.9358 20.5458 33.9483 20.5021 33.9608 20.4522H33.8609C33.3178 21.4947 32.6374 22.2563 31.8071 22.737C30.9768 23.2177 29.9967 23.4549 28.8605 23.4549C27.9803 23.4549 27.2125 23.2864 26.557 22.9493V22.9555ZM32.6061 19.9278C33.1243 19.6843 33.5176 19.3722 33.7735 18.9914C34.0295 18.6106 34.1606 18.1986 34.1606 17.7678C34.1606 17.4245 34.0544 17.1248 33.836 16.8564C33.6175 16.5942 33.3053 16.3882 32.8871 16.2446C32.4688 16.101 31.9569 16.0261 31.3326 16.0261C30.5148 16.0261 29.8594 16.1572 29.3537 16.4194C28.8543 16.6816 28.4922 17 28.2737 17.3808C28.0552 17.7553 27.9491 18.1486 27.9491 18.5544C27.9491 19.0788 28.1863 19.5033 28.6608 19.8217C29.1352 20.1401 29.8094 20.2961 30.6772 20.2961C31.4388 20.2961 32.0818 20.1713 32.6061 19.9278Z" fill="#007BED"/>
<path d="M40.6469 16.4946C40.6469 16.2761 40.5844 16.1263 40.4596 16.0514C40.3347 15.9765 40.0913 15.9328 39.7354 15.9328L40.3847 12.8489C41.7393 12.8489 42.7194 12.9862 43.3187 13.2547C43.918 13.5231 44.2551 13.9351 44.33 14.4907C44.405 15.0463 44.2863 15.8079 43.9867 16.7818L43.9492 16.8817L43.5123 18.3424H43.6309C44.1178 17.0752 44.6609 16.0326 45.254 15.2086C45.847 14.3846 46.465 13.7915 47.1018 13.417C47.7386 13.0486 48.3815 12.8614 49.0308 12.8614C50.1357 12.8614 50.9036 13.1673 51.3219 13.779C51.7464 14.3908 51.8712 15.1836 51.6964 16.1513C51.5279 17.1189 51.1283 18.1239 50.5103 19.1665L48.1755 19.0104C48.4939 18.4298 48.6625 17.9429 48.6812 17.5371C48.6999 17.1376 48.5876 16.838 48.3378 16.6382C48.0881 16.4384 47.7073 16.3448 47.1892 16.3448C46.6086 16.3448 46.0593 16.5258 45.5474 16.8754C45.0355 17.2312 44.611 17.6807 44.2739 18.2301C43.9368 18.7794 43.7058 19.3413 43.5747 19.9218L42.8817 23.1243H39.3047L40.4721 17.6495C40.5907 17.0939 40.6531 16.7131 40.6531 16.4946H40.6469Z" fill="#007BED"/>
<path d="M53.6624 22.9555C53.0132 22.6184 52.5076 22.144 52.1517 21.5197C51.7959 20.9017 51.6211 20.1838 51.6211 19.366C51.6211 18.2048 51.8708 17.1311 52.364 16.1323C52.8571 15.1397 53.5813 14.3406 54.5364 13.7538C55.4916 13.1607 56.6277 12.8611 57.9449 12.8611C58.7065 12.8611 59.387 13.0172 59.98 13.3355C60.5731 13.6539 61.0351 14.1096 61.3722 14.7089C61.7093 15.3082 61.8778 16.0261 61.8778 16.8564H61.9777C62.0589 16.3133 62.1338 15.7702 62.2149 15.2146C62.2961 14.7276 62.4022 14.0534 62.5333 13.1982H66.1291L64.943 18.7542L64.8618 19.0726C64.7807 19.4159 64.7432 19.6719 64.7557 19.8404C64.7619 20.0152 64.8369 20.1463 64.9742 20.2337C65.1115 20.3273 65.355 20.371 65.6983 20.371L65.0429 23.4549H64.2313C62.9953 23.4549 62.1213 23.2739 61.6219 22.9243C61.1225 22.5685 60.8728 22.094 60.8728 21.501C60.8728 21.3574 60.8852 21.2076 60.9102 21.0452C60.9352 20.8892 60.9789 20.7269 61.0288 20.5708C61.0413 20.5458 61.0538 20.5021 61.0663 20.4522H60.9664C60.4233 21.4947 59.7428 22.2563 58.9125 22.737C58.0823 23.2177 57.1022 23.4549 55.966 23.4549C55.0858 23.4549 54.3179 23.2864 53.6624 22.9493V22.9555ZM59.7116 19.9278C60.2298 19.6843 60.623 19.3722 60.879 18.9914C61.1349 18.6106 61.266 18.1986 61.266 17.7678C61.266 17.4245 61.1599 17.1248 60.9414 16.8564C60.7229 16.5942 60.4108 16.3882 59.9925 16.2446C59.5743 16.101 59.0624 16.0261 58.4381 16.0261C57.6203 16.0261 56.9648 16.1572 56.4592 16.4194C55.9598 16.6816 55.5977 17 55.3792 17.3808C55.1607 17.7553 55.0546 18.1486 55.0546 18.5544C55.0546 19.0788 55.2918 19.5033 55.7662 19.8217C56.2407 20.1401 56.9149 20.2961 57.7826 20.2961C58.5442 20.2961 59.1872 20.1713 59.7116 19.9278Z" fill="#007BED"/>
<path d="M37.5 31.1269C56.6487 31.1269 72.1719 24.802 72.1719 16.9998C72.1719 9.19752 56.6487 2.87256 37.5 2.87256C18.3512 2.87256 2.82812 9.19752 2.82812 16.9998C2.82812 24.802 18.3512 31.1269 37.5 31.1269Z" stroke="#007BED" stroke-width="1.5" stroke-miterlimit="10"/>
<path d="M37.4999 33C58.0001 33 74.6189 25.8366 74.6189 17C74.6189 8.16344 58.0001 1 37.4999 1C16.9996 1 0.380859 8.16344 0.380859 17C0.380859 25.8366 16.9996 33 37.4999 33Z" stroke="#007BED" stroke-width="0.5" stroke-miterlimit="10"/>
</svg>
