<svg width="224" height="120" fill="none" xmlns="http://www.w3.org/2000/svg">
<g filter="url(#filter0_d_225_183)">
<rect x="20" y="20" width="175.538" height="72" rx="16" fill="white"/>
<path d="M43.47 51.0469C43.4602 54.2305 44.8177 57.4434 47.6692 58.8203L46.1653 60.8125C44.261 59.8652 42.972 58.1074 42.2395 55.9688C41.4583 58.2637 40.0911 60.1484 38.0794 61.1445L36.5364 59.1328C39.554 57.7461 40.97 54.3477 40.97 51.0469V48.3906H43.47V51.0469ZM48.4505 64.7969V47.0234H50.9505V53.8789H53.5677V55.9883H50.9505V64.7969H48.4505ZM61.1367 51.8672C61.127 54.7383 62.6113 57.8145 65.5898 59.0547L64.2422 61.0078C62.1523 60.1191 60.707 58.3516 59.9063 56.2031C59.1055 58.5371 57.6309 60.4902 55.5313 61.457L54.1055 59.4844C57.0547 58.166 58.5781 54.875 58.5781 51.8672V50.7734H54.8086V48.7422H64.8477V50.7734H61.1367V51.8672ZM66.6055 64.7969V47.0234H69.125V64.7969H66.6055Z" fill="#EF2B00"/>
<path d="M93.6237 46.3861H99.7025C100.249 48.9222 100.733 51.6378 101.162 54.525C101.591 57.4122 101.864 59.9952 101.973 62.2737H102.122C103.058 60.2605 104.236 58.0287 105.656 55.5785C107.077 53.1282 108.684 50.4126 110.502 47.4474L111.142 46.3861H117.198L113.514 63.6549H108.552L110.456 54.7357C110.573 54.0802 110.697 53.5028 110.838 53.019C110.978 52.5351 111.103 52.1294 111.22 51.7938C111.251 51.6612 111.306 51.5363 111.369 51.4193H111.197L103.955 63.6549H99.5308L97.502 51.4193H97.3771C97.3615 51.5519 97.3459 51.7002 97.3303 51.8641C97.2445 52.621 97.0884 53.5808 96.8621 54.7279L94.9581 63.6471H89.9639L93.6237 46.3783V46.3861Z" fill="#EF2B00"/>
<path d="M119.187 63.4443C118.376 63.0229 117.744 62.4298 117.299 61.6495C116.854 60.877 116.635 59.9796 116.635 58.9573C116.635 57.5059 116.948 56.1637 117.564 54.9152C118.181 53.6745 119.086 52.6756 120.28 51.9421C121.474 51.2008 122.894 50.8262 124.54 50.8262C125.492 50.8262 126.343 51.0213 127.084 51.4193C127.825 51.8173 128.403 52.3869 128.824 53.136C129.246 53.8851 129.456 54.7825 129.456 55.8204H129.581C129.683 55.1415 129.776 54.4626 129.878 53.7681C129.979 53.1594 130.112 52.3167 130.276 51.2476H134.77L133.288 58.1926L133.186 58.5906C133.085 59.0198 133.046 59.3397 133.054 59.5504C133.054 59.7689 133.155 59.9327 133.327 60.042C133.498 60.159 133.803 60.2137 134.232 60.2137L133.42 64.0685H132.406C130.853 64.0685 129.768 63.8422 129.144 63.4052C128.52 62.9604 128.208 62.3674 128.208 61.6261C128.208 61.4466 128.223 61.2593 128.255 61.0564C128.286 60.8613 128.34 60.6585 128.403 60.4634C128.419 60.4322 128.434 60.3775 128.45 60.3151H128.325C127.646 61.6183 126.795 62.5703 125.758 63.1711C124.72 63.772 123.495 64.0685 122.074 64.0685C120.974 64.0685 120.014 63.8578 119.195 63.4365L119.187 63.4443ZM126.749 59.6596C127.396 59.3553 127.888 58.9651 128.208 58.4891C128.528 58.0131 128.692 57.4981 128.692 56.9597C128.692 56.5305 128.559 56.1559 128.286 55.8204C128.013 55.4926 127.615 55.2351 127.1 55.0557C126.585 54.8762 125.937 54.7825 125.157 54.7825C124.134 54.7825 123.307 54.9464 122.683 55.2741C122.059 55.6019 121.606 55.9999 121.333 56.4759C121.06 56.9519 120.927 57.4357 120.927 57.9429C120.927 58.5984 121.224 59.129 121.817 59.527C122.41 59.9249 123.253 60.12 124.337 60.12C125.289 60.12 126.093 59.964 126.749 59.6596Z" fill="#EF2B00"/>
<path d="M136.792 55.3678C136.792 55.0947 136.714 54.9074 136.558 54.8137C136.402 54.7201 136.097 54.6655 135.653 54.6655L136.464 50.8106C138.158 50.8106 139.383 50.9823 140.132 51.3178C140.881 51.6534 141.302 52.1684 141.396 52.8629C141.49 53.5574 141.341 54.5094 140.967 55.7267L140.92 55.8516L140.374 57.6776H140.522C141.131 56.0935 141.81 54.7903 142.551 53.7603C143.292 52.7302 144.065 51.9889 144.861 51.5207C145.657 51.0603 146.46 50.8262 147.272 50.8262C148.653 50.8262 149.613 51.2086 150.136 51.9733C150.659 52.738 150.822 53.7291 150.604 54.9386C150.393 56.1481 149.894 57.4044 149.121 58.7076L146.203 58.5125C146.601 57.7868 146.811 57.1781 146.835 56.6709C146.858 56.1715 146.718 55.797 146.406 55.5472C146.094 55.2975 145.618 55.1805 144.97 55.1805C144.244 55.1805 143.565 55.4068 142.918 55.8438C142.278 56.2886 141.747 56.8504 141.326 57.5371C140.904 58.2238 140.616 58.9261 140.452 59.6518L139.586 63.6549H135.114L136.573 56.8114C136.722 56.1169 136.8 55.6409 136.8 55.3678H136.792Z" fill="#EF2B00"/>
<path d="M153.062 63.4443C152.25 63.0229 151.618 62.4298 151.174 61.6495C150.729 60.877 150.51 59.9796 150.51 58.9573C150.51 57.5059 150.822 56.1637 151.439 54.9152C152.055 53.6745 152.961 52.6756 154.154 51.9421C155.348 51.2008 156.769 50.8262 158.415 50.8262C159.367 50.8262 160.218 51.0213 160.959 51.4193C161.7 51.8173 162.278 52.3869 162.699 53.136C163.12 53.8851 163.331 54.7825 163.331 55.8204H163.456C163.557 55.1415 163.651 54.4626 163.753 53.7681C163.854 53.1594 163.987 52.3167 164.151 51.2476H168.645L167.163 58.1926L167.061 58.5906C166.96 59.0198 166.921 59.3397 166.929 59.5504C166.929 59.7689 167.03 59.9327 167.202 60.042C167.373 60.159 167.678 60.2137 168.107 60.2137L167.295 64.0685H166.281C164.728 64.0685 163.643 63.8422 163.019 63.4052C162.395 62.9604 162.083 62.3674 162.083 61.6261C162.083 61.4466 162.098 61.2593 162.129 61.0564C162.161 60.8613 162.215 60.6585 162.278 60.4634C162.293 60.4322 162.309 60.3775 162.325 60.3151H162.2C161.521 61.6183 160.67 62.5703 159.632 63.1711C158.595 63.772 157.369 64.0685 155.949 64.0685C154.849 64.0685 153.889 63.8578 153.07 63.4365L153.062 63.4443ZM160.623 59.6596C161.271 59.3553 161.763 58.9651 162.083 58.4891C162.403 58.0131 162.566 57.4981 162.566 56.9597C162.566 56.5305 162.434 56.1559 162.161 55.8204C161.888 55.4926 161.49 55.2351 160.975 55.0557C160.46 54.8762 159.812 54.7825 159.032 54.7825C158.009 54.7825 157.182 54.9464 156.558 55.2741C155.934 55.6019 155.481 55.9999 155.208 56.4759C154.935 56.9519 154.802 57.4357 154.802 57.9429C154.802 58.5984 155.099 59.129 155.692 59.527C156.285 59.9249 157.128 60.12 158.212 60.12C159.164 60.12 159.968 59.964 160.623 59.6596Z" fill="#EF2B00"/>
<path d="M129.269 73.659C155.205 73.659 176.23 65.7528 176.23 56.0001C176.23 46.2473 155.205 38.3411 129.269 38.3411C103.334 38.3411 82.3085 46.2473 82.3085 56.0001C82.3085 65.7528 103.334 73.659 129.269 73.659Z" stroke="#EF2B00" stroke-width="0.5" stroke-miterlimit="10"/>
<path d="M129.269 76C157.032 76 179.538 67.0457 179.538 56C179.538 44.9543 157.032 36 129.269 36C101.506 36 79 44.9543 79 56C79 67.0457 101.506 76 129.269 76Z" stroke="#EF2B00" stroke-width="1.5" stroke-miterlimit="10"/>
</g>
<path d="M21 76H45.5858C46.4767 76 46.9229 77.0771 46.2929 77.7071L21.7071 102.293C21.0771 102.923 20 102.477 20 101.586V77C20 76.4477 20.4477 76 21 76Z" fill="white"/>
<defs>
<filter id="filter0_d_225_183" x="0" y="0" width="223.538" height="120" filterUnits="userSpaceOnUse" color-interpolation-filters="sRGB">
<feFlood flood-opacity="0" result="BackgroundImageFix"/>
<feColorMatrix in="SourceAlpha" type="matrix" values="0 0 0 0 0 0 0 0 0 0 0 0 0 0 0 0 0 0 127 0" result="hardAlpha"/>
<feOffset dx="4" dy="4"/>
<feGaussianBlur stdDeviation="12"/>
<feComposite in2="hardAlpha" operator="out"/>
<feColorMatrix type="matrix" values="0 0 0 0 0 0 0 0 0 0 0 0 0 0 0 0 0 0 0.05 0"/>
<feBlend mode="normal" in2="BackgroundImageFix" result="effect1_dropShadow_225_183"/>
<feBlend mode="normal" in="SourceGraphic" in2="effect1_dropShadow_225_183" result="shape"/>
</filter>
</defs>
</svg>
