<svg width="285" height="131" viewBox="0 0 285 131" fill="none" xmlns="http://www.w3.org/2000/svg">
<g filter="url(#filter0_d_225_196)">
<rect x="20" y="20" width="236.797" height="72" rx="16" fill="white"/>
<path d="M43.1898 48.7617C43.1703 50.9395 44.4398 52.9512 47.2719 53.7617L46.0023 55.6953C44.059 55.0996 42.7309 53.9277 41.9691 52.4043C41.1781 54.1328 39.7523 55.4805 37.6625 56.1445L36.432 54.1719C39.3715 53.2734 40.6703 51.1152 40.6898 48.7812V47.6484H43.1898V48.7617ZM38.9711 58.7617V56.8477H50.768V61.5938H41.4516V62.707H51.2758V64.6797H39.0102V59.8164H48.2875V58.7617H38.9711ZM48.268 56.1641V47.0234H50.768V50.5H53.1703V52.5312H50.768V56.1641H48.268ZM68.2198 47.0234V53.9961H70.5831V56.0469H68.2198V64.7969H65.7198V47.0234H68.2198ZM53.63 59.6406C56.0519 57.0137 56.755 54.416 56.9112 50.8711H54.4112V48.8398H59.2941C59.2745 53.7227 58.7667 57.5312 55.5831 61.0273L53.63 59.6406ZM58.6495 60.793C61.0616 57.8242 61.7257 54.7773 61.8624 50.8711H59.88V48.8398H64.2159C64.2062 53.9082 63.7667 58.3125 60.6222 62.1797L58.6495 60.793ZM85.3983 47.0234V50.4609H87.8006V52.5117H85.3983V55.9102H82.8983V47.0234H85.3983ZM71.8241 55.2461V47.8633H80.3592V55.2461H71.8241ZM73.6014 58.5273V56.6133H85.3983V61.457H76.0819V62.6484H85.9061V64.6016H73.6405V59.6602H82.9178V58.5273H73.6014ZM74.285 53.2734H77.8983V49.8164H74.285V53.2734ZM102.85 47.0234V53.9961H105.213V56.0469H102.85V64.7969H100.35V47.0234H102.85ZM88.2603 59.6406C90.6822 57.0137 91.3853 54.416 91.5416 50.8711H89.0416V48.8398H93.9244C93.9048 53.7227 93.397 57.5312 90.2134 61.0273L88.2603 59.6406ZM93.2798 60.793C95.692 57.8242 96.356 54.7773 96.4927 50.8711H94.5103V48.8398H98.8462C98.8365 53.9082 98.397 58.3125 95.2525 62.1797L93.2798 60.793ZM120.029 46.9844V50.8516H122.431V52.8438H120.029V56.6133H117.529V46.9844H120.029ZM105.927 50.2461V48.3516H109.97V46.9062H112.45V48.3516H116.474V50.2461H105.927ZM106.786 53.5859C106.786 51.8086 108.554 50.6855 111.2 50.6758C113.866 50.6855 115.575 51.8086 115.575 53.5859C115.575 55.4023 113.866 56.4863 111.2 56.4961C108.554 56.4863 106.786 55.4023 106.786 53.5859ZM108.232 59.1328V57.3359H120.029V61.8281H110.712V62.8438H120.536V64.6797H108.271V60.1289H117.548V59.1328H108.232ZM109.228 53.5859C109.218 54.3477 109.97 54.709 111.2 54.7188C112.441 54.709 113.212 54.3477 113.212 53.5859C113.212 52.834 112.441 52.4238 111.2 52.4336C109.97 52.4238 109.218 52.834 109.228 53.5859ZM135.234 47.3555V51.9648H136.484V47.0234H138.848V60.168H136.484V53.918H135.234V59.6602H132.949V47.3555H135.234ZM123.574 57.3164V48.6055H127.324V50.5977H125.859V55.2852C126.338 55.2461 126.846 55.1777 127.422 55.0703L127.598 57.043C126.289 57.3164 125.283 57.3164 124.355 57.3164H123.574ZM126.309 64.4844V58.7227H128.809V62.4922H139.238V64.4844H126.309ZM128.105 57.3164V48.6055H132.012V50.5977H130.371V55.2949C130.908 55.2559 131.484 55.1777 132.148 55.0312L132.363 57.0625C131.006 57.3164 129.951 57.3164 128.926 57.3164H128.105Z" fill="#007BED"/>
<path d="M162.241 63.2494C160.914 62.6485 159.986 61.798 159.463 60.6899C158.932 59.5896 158.799 58.2786 159.041 56.757L163.762 55.6489C163.63 56.3278 163.716 56.9365 164.02 57.4905C164.324 58.0445 164.855 58.4737 165.604 58.7859C166.353 59.098 167.305 59.2541 168.46 59.2541C169.248 59.2541 169.919 59.176 170.458 59.02C170.996 58.8639 171.402 58.6532 171.667 58.3879C171.932 58.1226 172.096 57.8339 172.159 57.5217C172.221 57.2252 172.206 56.9755 172.096 56.7648C171.987 56.5619 171.753 56.3824 171.394 56.2342C171.035 56.0859 170.504 55.9532 169.81 55.8362L165.854 55.29C164.106 55.0403 162.826 54.533 161.999 53.7683C161.172 53.0036 160.883 52.0282 161.133 50.842C161.492 49.2268 162.506 47.9938 164.16 47.1355C165.815 46.2771 167.812 45.8479 170.153 45.8479C171.917 45.8479 173.415 46.0664 174.648 46.5034C175.881 46.9404 176.817 47.6661 177.449 48.6883C178.082 49.7106 178.323 51.0918 178.175 52.8397L173.236 54.1507C173.47 53.3313 173.399 52.6602 173.041 52.153C172.682 51.6458 172.128 51.2712 171.394 51.0371C170.661 50.8108 169.833 50.6938 168.913 50.6938C167.937 50.6938 167.196 50.8186 166.689 51.0761C166.181 51.3337 165.861 51.7082 165.752 52.1998C165.69 52.4808 165.698 52.7227 165.776 52.9177C165.861 53.1128 166.041 53.2845 166.322 53.4406C166.603 53.5888 167.001 53.7059 167.508 53.7839L171.316 54.2989C172.767 54.533 173.922 54.8374 174.773 55.2275C175.623 55.6177 176.224 56.1015 176.552 56.6946C176.88 57.2876 176.958 57.9977 176.771 58.8171C176.56 59.9017 175.982 60.8538 175.038 61.6731C174.102 62.4847 172.947 63.1011 171.589 63.5147C170.231 63.9283 168.811 64.1312 167.328 64.1312C165.253 64.1312 163.552 63.8346 162.225 63.226L162.241 63.2494Z" fill="#007BED"/>
<path d="M180.719 63.4444C179.908 63.0231 179.276 62.43 178.831 61.6497C178.386 60.8771 178.168 59.9798 178.168 58.9575C178.168 57.5061 178.48 56.1639 179.096 54.9154C179.713 53.6746 180.618 52.6758 181.812 51.9423C183.006 51.201 184.426 50.8264 186.072 50.8264C187.024 50.8264 187.875 51.0215 188.616 51.4195C189.358 51.8174 189.935 52.3871 190.356 53.1362C190.778 53.8853 190.989 54.7827 190.989 55.8206H191.113C191.215 55.1417 191.308 54.4628 191.41 53.7683C191.511 53.1596 191.644 52.3169 191.808 51.2478H196.303L194.82 58.1928L194.719 58.5908C194.617 59.0199 194.57 59.3399 194.586 59.5506C194.594 59.7691 194.687 59.9329 194.859 60.0422C195.031 60.1592 195.335 60.2139 195.764 60.2139L194.945 64.0687H193.93C192.385 64.0687 191.293 63.8424 190.669 63.4054C190.044 62.9606 189.732 62.3676 189.732 61.6263C189.732 61.4468 189.748 61.2595 189.779 61.0566C189.81 60.8615 189.865 60.6586 189.927 60.4636C189.943 60.4323 189.958 60.3777 189.974 60.3153H189.849C189.17 61.6185 188.32 62.5705 187.282 63.1713C186.244 63.7722 185.019 64.0687 183.599 64.0687C182.498 64.0687 181.539 63.858 180.719 63.4366V63.4444ZM188.281 59.6598C188.928 59.3555 189.42 58.9653 189.74 58.4893C190.06 58.0133 190.224 57.4983 190.224 56.9599C190.224 56.5307 190.091 56.1561 189.818 55.8206C189.545 55.4928 189.155 55.2353 188.632 55.0558C188.109 54.8764 187.469 54.7827 186.689 54.7827C185.667 54.7827 184.847 54.9466 184.215 55.2743C183.591 55.6021 183.138 56 182.865 56.476C182.592 56.9442 182.459 57.4359 182.459 57.9431C182.459 58.5986 182.756 59.1292 183.349 59.5272C183.942 59.9251 184.785 60.1202 185.87 60.1202C186.822 60.1202 187.625 59.9641 188.281 59.6598Z" fill="#007BED"/>
<path d="M198.332 55.3681C198.332 55.095 198.254 54.9077 198.098 54.814C197.941 54.7204 197.637 54.6658 197.192 54.6658L198.004 50.8109C199.697 50.8109 200.922 50.9826 201.671 51.3181C202.421 51.6537 202.842 52.1687 202.936 52.8632C203.029 53.5577 202.881 54.5097 202.506 55.727L202.46 55.8519L201.913 57.6779H202.062C202.67 56.0938 203.349 54.7906 204.091 53.7606C204.832 52.7305 205.604 51.9892 206.4 51.521C207.196 51.0606 208 50.8265 208.812 50.8265C210.193 50.8265 211.153 51.2089 211.675 51.9736C212.206 52.7383 212.362 53.7294 212.144 54.9389C211.933 56.1484 211.433 57.4047 210.661 58.7079L207.742 58.5128C208.14 57.7871 208.351 57.1785 208.375 56.6712C208.398 56.1718 208.258 55.7973 207.945 55.5476C207.633 55.2978 207.157 55.1808 206.51 55.1808C205.784 55.1808 205.097 55.4071 204.457 55.8441C203.817 56.2889 203.287 56.8507 202.865 57.5374C202.444 58.2241 202.155 58.9264 201.991 59.6521L201.125 63.6552H196.654L198.113 56.8117C198.261 56.1172 198.339 55.6412 198.339 55.3681H198.332Z" fill="#007BED"/>
<path d="M214.601 63.4444C213.79 63.0231 213.158 62.43 212.713 61.6497C212.268 60.8771 212.05 59.9798 212.05 58.9575C212.05 57.5061 212.362 56.1639 212.978 54.9154C213.595 53.6746 214.5 52.6758 215.694 51.9423C216.888 51.201 218.308 50.8264 219.954 50.8264C220.906 50.8264 221.757 51.0215 222.498 51.4195C223.24 51.8174 223.817 52.3871 224.238 53.1362C224.66 53.8853 224.87 54.7827 224.87 55.8206H224.995C225.097 55.1417 225.19 54.4628 225.292 53.7683C225.393 53.1596 225.526 52.3169 225.69 51.2478H230.185L228.702 58.1928L228.6 58.5908C228.499 59.0199 228.452 59.3399 228.468 59.5506C228.476 59.7691 228.569 59.9329 228.741 60.0422C228.913 60.1592 229.217 60.2139 229.646 60.2139L228.827 64.0687H227.812C226.267 64.0687 225.175 63.8424 224.551 63.4054C223.926 62.9606 223.614 62.3676 223.614 61.6263C223.614 61.4468 223.63 61.2595 223.661 61.0566C223.692 60.8615 223.747 60.6586 223.809 60.4636C223.825 60.4323 223.84 60.3777 223.856 60.3153H223.731C223.052 61.6185 222.202 62.5705 221.164 63.1713C220.126 63.7722 218.901 64.0687 217.481 64.0687C216.38 64.0687 215.421 63.858 214.601 63.4366V63.4444ZM222.163 59.6598C222.81 59.3555 223.302 58.9653 223.622 58.4893C223.942 58.0133 224.106 57.4983 224.106 56.9599C224.106 56.5307 223.973 56.1561 223.7 55.8206C223.427 55.4928 223.037 55.2353 222.514 55.0558C221.991 54.8764 221.351 54.7827 220.571 54.7827C219.549 54.7827 218.729 54.9466 218.097 55.2743C217.473 55.6021 217.02 56 216.747 56.476C216.474 56.9442 216.341 57.4359 216.341 57.9431C216.341 58.5986 216.638 59.1292 217.231 59.5272C217.824 59.9251 218.667 60.1202 219.751 60.1202C220.703 60.1202 221.507 59.9641 222.163 59.6598Z" fill="#007BED"/>
<path d="M194.399 73.6589C218.334 73.6589 237.738 65.7527 237.738 55.9999C237.738 46.2471 218.334 38.3409 194.399 38.3409C170.463 38.3409 151.059 46.2471 151.059 55.9999C151.059 65.7527 170.463 73.6589 194.399 73.6589Z" stroke="#007BED" stroke-width="1.5" stroke-miterlimit="10"/>
<path d="M194.399 76C220.024 76 240.797 67.0457 240.797 56C240.797 44.9543 220.024 36 194.399 36C168.773 36 148 44.9543 148 56C148 67.0457 168.773 76 194.399 76Z" stroke="#007BED" stroke-width="0.5" stroke-miterlimit="10"/>
<path d="M256 76H231.414C230.523 76 230.077 77.0771 230.707 77.7071L255.293 102.293C255.923 102.923 257 102.477 257 101.586V77C257 76.4477 256.552 76 256 76Z" fill="white"/>
</g>
<defs>
<filter id="filter0_d_225_196" x="0" y="0" width="285" height="130.588" filterUnits="userSpaceOnUse" color-interpolation-filters="sRGB">
<feFlood flood-opacity="0" result="BackgroundImageFix"/>
<feColorMatrix in="SourceAlpha" type="matrix" values="0 0 0 0 0 0 0 0 0 0 0 0 0 0 0 0 0 0 127 0" result="hardAlpha"/>
<feOffset dx="4" dy="4"/>
<feGaussianBlur stdDeviation="12"/>
<feComposite in2="hardAlpha" operator="out"/>
<feColorMatrix type="matrix" values="0 0 0 0 0 0 0 0 0 0 0 0 0 0 0 0 0 0 0.05 0"/>
<feBlend mode="normal" in2="BackgroundImageFix" result="effect1_dropShadow_225_196"/>
<feBlend mode="normal" in="SourceGraphic" in2="effect1_dropShadow_225_196" result="shape"/>
</filter>
</defs>
</svg>
