<svg width="14" height="14" viewBox="0 0 14 14" fill="none" xmlns="http://www.w3.org/2000/svg">
<path d="M11.7575 2.88407C11.4826 2.6038 11.1563 2.38146 10.797 2.22977C10.4378 2.07808 10.0528 2 9.66393 2C9.27509 2 8.89006 2.07808 8.53084 2.22977C8.17161 2.38146 7.84523 2.6038 7.57035 2.88407L6.99986 3.46547L6.42937 2.88407C5.87411 2.3182 5.12103 2.00029 4.33578 2.00029C3.55053 2.00029 2.79745 2.3182 2.24219 2.88407C1.68694 3.44995 1.375 4.21744 1.375 5.0177C1.375 5.81797 1.68694 6.58546 2.24219 7.15134L2.81268 7.73274L6.99986 12L11.187 7.73274L11.7575 7.15134C12.0325 6.87119 12.2507 6.53857 12.3995 6.17247C12.5484 5.80638 12.625 5.41398 12.625 5.0177C12.625 4.62143 12.5484 4.22903 12.3995 3.86293C12.2507 3.49684 12.0325 3.16422 11.7575 2.88407V2.88407Z" stroke="#333333" stroke-linecap="round" stroke-linejoin="round"/>
</svg>
