<svg width="48" height="48" viewBox="0 0 48 48" fill="none" xmlns="http://www.w3.org/2000/svg">
<rect width="48" height="48" rx="16" fill="#007BED"/>
<rect x="0.5" y="0.5" width="47" height="47" rx="15.5" stroke="black" stroke-opacity="0.1"/>
<path d="M16.9578 20.625C18.6231 20.625 19.9732 19.2819 19.9732 17.625C19.9732 15.9681 18.6231 14.625 16.9578 14.625C15.2924 14.625 13.9424 15.9681 13.9424 17.625C13.9424 19.2819 15.2924 20.625 16.9578 20.625Z" fill="black" fill-opacity="0.75"/>
<path d="M30.5271 20.625C32.1925 20.625 33.5425 19.2819 33.5425 17.625C33.5425 15.9681 32.1925 14.625 30.5271 14.625C28.8618 14.625 27.5117 15.9681 27.5117 17.625C27.5117 19.2819 28.8618 20.625 30.5271 20.625Z" fill="black" fill-opacity="0.75"/>
<path d="M23.4847 33.375L34.296 22.125H13.7031L23.4847 33.375Z" fill="white" fill-opacity="0.75"/>
</svg>
