<svg width="275" height="20" viewBox="0 0 275 20" fill="none" xmlns="http://www.w3.org/2000/svg">
<path d="M4.6366 0.00882065H11.509C12.1266 2.87601 12.6736 5.94612 13.1588 9.2103C13.644 12.4745 13.9528 15.3946 14.0763 17.9707H14.2439C15.3026 15.6946 16.6347 13.1714 18.2403 10.4013C19.846 7.63114 21.6633 4.56104 23.7189 1.20863L24.4423 0.00882065H31.2883L27.1242 19.5322H21.5133L23.6659 9.4485C23.7983 8.70744 23.9394 8.0546 24.0982 7.50763C24.257 6.96066 24.3982 6.50191 24.5305 6.12256C24.5658 5.97258 24.6276 5.83143 24.6981 5.6991H24.504L16.3171 19.5322H11.315L9.0212 5.6991H8.88005C8.8624 5.84907 8.84476 6.01669 8.82712 6.20196C8.73007 7.0577 8.55363 8.14283 8.29779 9.43968L6.14519 19.5234H0.499023L4.6366 0V0.00882065Z" fill="#EF2B00"/>
<path d="M33.5382 19.2947C32.6207 18.8183 31.9061 18.1478 31.4032 17.2656C30.9003 16.3922 30.6533 15.3777 30.6533 14.222C30.6533 12.581 31.0062 11.0636 31.7032 9.65209C32.4001 8.24937 33.4235 7.12014 34.7733 6.29086C36.123 5.45276 37.7287 5.0293 39.5901 5.0293C40.6664 5.0293 41.6281 5.24985 42.4662 5.69978C43.3043 6.14971 43.9571 6.79372 44.4335 7.64065C44.9099 8.48757 45.1481 9.50212 45.1481 10.6755H45.2892C45.4039 9.90794 45.5098 9.14041 45.6245 8.35524C45.7392 7.66711 45.8891 6.71432 46.0744 5.50569H51.156L49.4797 13.3574L49.3651 13.8073C49.2504 14.2925 49.2063 14.6542 49.2151 14.8924C49.2151 15.1395 49.3298 15.3247 49.5239 15.4482C49.7179 15.5806 50.062 15.6423 50.5472 15.6423L49.6297 20.0005H48.4828C46.7272 20.0005 45.501 19.7446 44.7952 19.2506C44.0894 18.7477 43.7365 18.0772 43.7365 17.2391C43.7365 17.0362 43.7542 16.8245 43.7895 16.5951C43.8248 16.3746 43.8865 16.1452 43.9571 15.9246C43.9747 15.8893 43.9924 15.8276 44.01 15.757H43.8689C43.1013 17.2303 42.1397 18.3066 40.9664 18.9859C39.793 19.6652 38.408 20.0005 36.8023 20.0005C35.5584 20.0005 34.4733 19.7623 33.547 19.2859L33.5382 19.2947ZM42.0868 15.0159C42.819 14.6719 43.3748 14.2308 43.7365 13.6926C44.0982 13.1545 44.2835 12.5722 44.2835 11.9635C44.2835 11.4783 44.1335 11.0548 43.8248 10.6755C43.516 10.3049 43.0661 10.0138 42.4838 9.81089C41.9015 9.60798 41.1693 9.50212 40.2871 9.50212C39.1314 9.50212 38.1962 9.68738 37.4905 10.0579C36.7847 10.4284 36.273 10.8784 35.9642 11.4165C35.6555 11.9547 35.5055 12.5016 35.5055 13.0751C35.5055 13.8161 35.8407 14.416 36.5112 14.866C37.1817 15.3159 38.1345 15.5365 39.3608 15.5365C40.4371 15.5365 41.3457 15.36 42.0868 15.0159Z" fill="#EF2B00"/>
<path d="M53.4417 10.1629C53.4417 9.85409 53.3535 9.64236 53.177 9.5365C53.0006 9.43063 52.6565 9.36888 52.1536 9.36888L53.0711 5.01074C54.9855 5.01074 56.3706 5.20483 57.2176 5.58418C58.0645 5.96353 58.5409 6.54579 58.6467 7.33096C58.7526 8.11613 58.585 9.19243 58.1615 10.5687L58.1086 10.7098L57.491 12.7742H57.6587C58.3468 10.9833 59.1143 9.51003 59.9524 8.34551C60.7905 7.18099 61.6639 6.34288 62.5638 5.81356C63.4636 5.29305 64.3723 5.02839 65.2898 5.02839C66.8513 5.02839 67.9364 5.46067 68.5275 6.32524C69.1186 7.18981 69.3039 8.31022 69.0568 9.67765C68.8187 11.0451 68.254 12.4654 67.3806 13.9387L64.0812 13.7182C64.5311 12.8977 64.7693 12.2096 64.7958 11.6362C64.8222 11.0715 64.6634 10.6481 64.3105 10.3658C63.9577 10.0835 63.4195 9.95114 62.6873 9.95114C61.8668 9.95114 61.0993 10.207 60.3671 10.701C59.6436 11.2039 59.0437 11.8391 58.5673 12.6154C58.0909 13.3918 57.7645 14.1858 57.5793 15.0062L56.6 19.532H51.5449L53.1947 11.795C53.3623 11.0098 53.4505 10.4716 53.4505 10.1629H53.4417Z" fill="#EF2B00"/>
<path d="M71.8343 19.2947C70.9168 18.8183 70.2022 18.1478 69.6993 17.2656C69.1965 16.3922 68.9495 15.3777 68.9495 14.222C68.9495 12.581 69.3024 11.0636 69.9993 9.65209C70.6962 8.24937 71.7196 7.12014 73.0694 6.29086C74.4192 5.45276 76.0248 5.0293 77.8863 5.0293C78.9626 5.0293 79.9242 5.24985 80.7623 5.69978C81.6004 6.14971 82.2532 6.79372 82.7296 7.64065C83.206 8.48757 83.4442 9.50212 83.4442 10.6755H83.5854C83.7001 9.90794 83.8059 9.14041 83.9206 8.35524C84.0353 7.66711 84.1853 6.71432 84.3706 5.50569H89.4521L87.7759 13.3574L87.6612 13.8073C87.5465 14.2925 87.5024 14.6542 87.5112 14.8924C87.5112 15.1395 87.6259 15.3247 87.82 15.4482C88.0141 15.5806 88.3582 15.6423 88.8434 15.6423L87.9259 20.0005H86.779C85.0234 20.0005 83.7971 19.7446 83.0913 19.2506C82.3856 18.7477 82.0327 18.0772 82.0327 17.2391C82.0327 17.0362 82.0503 16.8245 82.0856 16.5951C82.1209 16.3746 82.1827 16.1452 82.2532 15.9246C82.2709 15.8893 82.2885 15.8276 82.3062 15.757H82.165C81.3975 17.2303 80.4359 18.3066 79.2625 18.9859C78.0892 19.6652 76.7041 20.0005 75.0985 20.0005C73.8546 20.0005 72.7695 19.7623 71.8431 19.2859L71.8343 19.2947ZM80.3829 15.0159C81.1152 14.6719 81.671 14.2308 82.0327 13.6926C82.3944 13.1545 82.5797 12.5722 82.5797 11.9635C82.5797 11.4783 82.4297 11.0548 82.1209 10.6755C81.8121 10.3049 81.3622 10.0138 80.7799 9.81089C80.1977 9.60798 79.4654 9.50212 78.5832 9.50212C77.4275 9.50212 76.4924 9.68738 75.7866 10.0579C75.0808 10.4284 74.5692 10.8784 74.2604 11.4165C73.9516 11.9547 73.8016 12.5016 73.8016 13.0751C73.8016 13.8161 74.1369 14.416 74.8074 14.866C75.4778 15.3159 76.4306 15.5365 77.6569 15.5365C78.7332 15.5365 79.6419 15.36 80.3829 15.0159Z" fill="#EF2B00"/>
<path d="M109.233 15.3594H103.718V19.4531H101.749V15.3594H96.2646V13.7344H109.233V15.3594ZM96.9209 11.4062C97.8584 11.3021 98.6735 11.0964 99.3662 10.7891C100.064 10.4818 100.608 10.1224 100.999 9.71094C101.395 9.29427 101.634 8.86458 101.718 8.42188H97.4365V6.85938H101.749V5.23438H103.718V6.85938H108.046V8.42188H103.78C103.858 8.85417 104.09 9.28125 104.476 9.70312C104.866 10.1198 105.408 10.4818 106.101 10.7891C106.793 11.0964 107.608 11.3021 108.546 11.4062L107.827 12.9688C106.655 12.8385 105.634 12.5469 104.765 12.0938C103.9 11.6406 103.228 11.0807 102.749 10.4141C102.27 11.0859 101.593 11.6458 100.718 12.0938C99.848 12.5417 98.8219 12.8333 97.6396 12.9688L96.9209 11.4062ZM115.327 8.5625C115.332 9.11458 115.457 9.64844 115.702 10.1641C115.947 10.6745 116.319 11.1354 116.819 11.5469C117.319 11.9583 117.942 12.276 118.687 12.5L117.733 14.0469C116.957 13.8229 116.285 13.4818 115.718 13.0234C115.15 12.5599 114.702 12.0104 114.374 11.375C114.046 12.0625 113.595 12.6562 113.022 13.1562C112.455 13.6562 111.77 14.0312 110.968 14.2812L109.999 12.7188C110.744 12.4948 111.366 12.1693 111.866 11.7422C112.366 11.3151 112.736 10.8281 112.976 10.2812C113.22 9.73438 113.343 9.16146 113.343 8.5625V8.45312H110.483V6.89062H113.343V5.3125H115.358V6.89062H118.202V8.45312H115.327V8.5625ZM112.64 14.875H114.64V17.5938H122.421V19.1875H112.64V14.875ZM117.733 9.375H120.093V5.23438H122.077V15.7812H120.093V10.9844H117.733V9.375ZM139.515 15.4531H137.515V5.23438H139.515V15.4531ZM127.827 9.71875C127.827 9.03646 127.999 8.42188 128.343 7.875C128.687 7.32812 129.153 6.90365 129.741 6.60156C130.335 6.29427 130.994 6.14062 131.718 6.14062C132.437 6.14062 133.093 6.29427 133.687 6.60156C134.28 6.90365 134.749 7.32812 135.093 7.875C135.437 8.42188 135.608 9.03646 135.608 9.71875C135.608 10.4115 135.437 11.0339 135.093 11.5859C134.749 12.1328 134.28 12.5599 133.687 12.8672C133.093 13.1745 132.437 13.3281 131.718 13.3281C130.994 13.3281 130.335 13.1745 129.741 12.8672C129.147 12.5599 128.679 12.1328 128.335 11.5859C127.996 11.0339 127.827 10.4115 127.827 9.71875ZM129.78 9.71875C129.775 10.1042 129.856 10.4401 130.022 10.7266C130.189 11.0078 130.418 11.224 130.71 11.375C131.007 11.5208 131.343 11.5938 131.718 11.5938C132.082 11.5938 132.408 11.5208 132.694 11.375C132.986 11.224 133.215 11.0078 133.382 10.7266C133.554 10.4401 133.64 10.1042 133.64 9.71875C133.64 9.34375 133.554 9.01562 133.382 8.73438C133.215 8.45312 132.986 8.23958 132.694 8.09375C132.403 7.94271 132.077 7.86979 131.718 7.875C131.343 7.86979 131.007 7.94271 130.71 8.09375C130.418 8.23958 130.189 8.45312 130.022 8.73438C129.856 9.01562 129.775 9.34375 129.78 9.71875ZM129.983 14.4219H131.999V17.5938H139.89V19.1875H129.983V14.4219ZM153.39 19.4375H151.374V5.21875H153.39V19.4375ZM141.483 15.4062C142.697 14.8333 143.697 14.1953 144.483 13.4922C145.275 12.7891 145.879 12.0104 146.296 11.1562C146.718 10.2969 146.983 9.33333 147.093 8.26562H142.249V6.70312H149.124C149.119 8.22396 148.913 9.60677 148.507 10.8516C148.101 12.0964 147.41 13.2396 146.437 14.2812C145.468 15.3229 144.166 16.2292 142.53 17L141.483 15.4062ZM160.452 7.45312C160.447 8.04688 160.562 8.61198 160.796 9.14844C161.035 9.67969 161.397 10.1536 161.882 10.5703C162.371 10.987 162.978 11.3073 163.702 11.5312L162.64 13.0781C161.9 12.8333 161.265 12.4792 160.733 12.0156C160.202 11.5521 159.78 11.0026 159.468 10.3672C159.15 11.1016 158.71 11.737 158.147 12.2734C157.59 12.8047 156.916 13.2031 156.124 13.4688L155.046 11.9062C155.812 11.651 156.447 11.2865 156.952 10.8125C157.457 10.3385 157.832 9.79948 158.077 9.19531C158.322 8.58594 158.447 7.94271 158.452 7.26562V5.96875H160.452V7.45312ZM157.015 16.6875C157.015 16.1198 157.21 15.6302 157.601 15.2188C157.996 14.8021 158.562 14.4844 159.296 14.2656C160.03 14.0469 160.895 13.9375 161.89 13.9375C162.869 13.9375 163.718 14.0469 164.437 14.2656C165.155 14.4844 165.71 14.8021 166.101 15.2188C166.491 15.6302 166.687 16.1198 166.687 16.6875C166.687 17.2604 166.491 17.7526 166.101 18.1641C165.71 18.5807 165.155 18.8958 164.437 19.1094C163.718 19.3281 162.869 19.4375 161.89 19.4375C160.895 19.4375 160.03 19.3281 159.296 19.1094C158.562 18.8958 157.996 18.5807 157.601 18.1641C157.21 17.7526 157.015 17.2604 157.015 16.6875ZM159.015 16.6875C159.009 17.0833 159.249 17.3802 159.733 17.5781C160.223 17.776 160.942 17.875 161.89 17.875C163.775 17.875 164.718 17.4792 164.718 16.6875C164.718 16.3021 164.476 16.0078 163.991 15.8047C163.512 15.6016 162.812 15.5 161.89 15.5C160.952 15.5 160.236 15.6016 159.741 15.8047C159.252 16.0078 159.009 16.3021 159.015 16.6875ZM164.546 5.21875H166.546V8.54688H168.468V10.2031H166.546V13.6562H164.546V5.21875ZM182.062 13.4531H176.562V14.6719H180.515V19.2812H170.593V14.6719H174.577V13.4531H169.093V11.875H182.062V13.4531ZM170.233 5.60938H180.905V7.20312H179.046V9.375H180.812V10.9688H170.327V9.375H172.077V7.20312H170.233V5.60938ZM178.562 17.6875V16.2188H172.562V17.6875H178.562ZM177.046 9.375V7.20312H174.077V9.375H177.046ZM194.515 13.1562H190.39V16.1875H195.937V17.8125H182.921V16.1875H188.405V13.1562H184.452V6.21875H194.405V7.8125H186.452V11.5781H194.515V13.1562ZM211.89 10.0625H202.062V5.6875H211.78V7.28125H204.046V8.5H211.89V10.0625ZM200.437 10.8281H213.405V12.4062H207.905V13.3438H211.827V16.9688H203.905V17.8125H212.202V19.3281H201.952V15.5781H209.858V14.8125H201.937V13.3438H205.921V12.4062H200.437V10.8281ZM226.249 19.4688H224.265V11.9688H221.968V10.3438H224.265V5.21875H226.249V19.4688ZM214.733 6.40625H221.171V11.7344H216.749V14.5156C217.843 14.5052 218.812 14.474 219.655 14.4219C220.499 14.3646 221.348 14.2604 222.202 14.1094L222.358 15.7344C221.405 15.8958 220.45 16.0078 219.491 16.0703C218.533 16.1276 217.45 16.1562 216.241 16.1562H215.937H214.765V10.1562H219.233V8.01562H214.733V6.40625ZM241.108 17.7812H228.093V16.1562H233.577V13.5312H229.468V6.125H231.468V8.32812H237.671V6.125H239.655V13.5312H235.562V16.1562H241.108V17.7812ZM237.671 11.9375V9.92188H231.468V11.9375H237.671ZM246.483 8.79688C246.478 10.0677 246.679 11.2266 247.085 12.2734C247.491 13.3203 248.15 14.1354 249.062 14.7188L247.983 16.2656C246.843 15.5781 246.022 14.4349 245.522 12.8359C245.257 13.6745 244.905 14.4141 244.468 15.0547C244.03 15.6953 243.499 16.2031 242.874 16.5781L241.655 15.1094C242.65 14.4948 243.379 13.6328 243.843 12.5234C244.312 11.4141 244.546 10.2031 244.546 8.89062V6.4375H246.483V8.79688ZM247.562 10.0156H249.405V5.42188H251.265V18.7812H249.405V11.6406H247.562V10.0156ZM252.343 5.21875H254.249V19.4375H252.343V5.21875ZM268.765 17.7812H255.749V16.1406H258.655V12.6562C258.093 12.3177 257.658 11.901 257.351 11.4062C257.043 10.9062 256.89 10.349 256.89 9.73438C256.89 8.97917 257.119 8.3125 257.577 7.73438C258.035 7.15625 258.668 6.70833 259.476 6.39062C260.288 6.06771 261.207 5.90625 262.233 5.90625C263.254 5.90625 264.171 6.06771 264.983 6.39062C265.796 6.70833 266.434 7.15625 266.897 7.73438C267.361 8.3125 267.593 8.97917 267.593 9.73438C267.588 10.3385 267.437 10.8854 267.14 11.375C266.843 11.8646 266.421 12.2786 265.874 12.6172V16.1406H268.765V17.7812ZM258.858 9.73438C258.858 10.1927 258.996 10.5911 259.272 10.9297C259.554 11.2682 259.947 11.5286 260.452 11.7109C260.963 11.8932 261.556 11.9844 262.233 11.9844C262.9 11.9844 263.489 11.8932 263.999 11.7109C264.509 11.5286 264.908 11.2682 265.194 10.9297C265.481 10.5911 265.624 10.1927 265.624 9.73438C265.624 9.26562 265.481 8.86198 265.194 8.52344C264.913 8.1849 264.517 7.92708 264.007 7.75C263.496 7.56771 262.905 7.47917 262.233 7.48438C261.556 7.48438 260.963 7.57292 260.452 7.75C259.947 7.92708 259.554 8.1849 259.272 8.52344C258.996 8.86198 258.858 9.26562 258.858 9.73438ZM263.858 16.1406V13.375C263.338 13.4792 262.796 13.5312 262.233 13.5312C261.687 13.5312 261.15 13.4818 260.624 13.3828V16.1406H263.858ZM272.608 14.6094H270.608L270.405 6.6875H272.812L272.608 14.6094ZM270.312 16.8281C270.306 16.5938 270.361 16.3776 270.476 16.1797C270.595 15.9766 270.757 15.8177 270.96 15.7031C271.163 15.5885 271.384 15.5312 271.624 15.5312C271.853 15.5312 272.067 15.5885 272.265 15.7031C272.463 15.8177 272.621 15.9766 272.741 16.1797C272.861 16.3776 272.921 16.5938 272.921 16.8281C272.921 17.0677 272.861 17.2891 272.741 17.4922C272.621 17.6901 272.463 17.849 272.265 17.9688C272.067 18.0833 271.853 18.1406 271.624 18.1406C271.384 18.1406 271.163 18.0833 270.96 17.9688C270.757 17.849 270.595 17.6901 270.476 17.4922C270.361 17.2891 270.306 17.0677 270.312 16.8281Z" fill="#EF2B00"/>
</svg>
