<svg width="263" height="20" viewBox="0 0 263 20" fill="none" xmlns="http://www.w3.org/2000/svg">
<path d="M3.62711 19.0354C2.17598 18.3781 1.16019 17.4477 0.588273 16.2356C0.00781994 15.032 -0.137293 13.598 0.127325 11.9334L5.29165 10.7213C5.14653 11.4639 5.24043 12.1297 5.57334 12.7358C5.90624 13.3419 6.4867 13.8114 7.30616 14.1528C8.12562 14.4942 9.16702 14.665 10.4304 14.665C11.2925 14.665 12.0266 14.5796 12.6156 14.4089C13.2046 14.2382 13.6485 14.0077 13.9387 13.7175C14.2289 13.4272 14.4082 13.1114 14.4765 12.77C14.5447 12.4456 14.5277 12.1724 14.4082 11.942C14.2887 11.72 14.0326 11.5237 13.6399 11.3615C13.2473 11.1993 12.6668 11.0542 11.9071 10.9262L7.57931 10.3286C5.66723 10.0555 4.26732 9.50064 3.36249 8.66411C2.45767 7.82757 2.14184 6.76056 2.41499 5.46308C2.80765 3.69612 3.91734 2.34742 5.72699 1.40845C7.53663 0.469483 9.72187 0 12.2827 0C14.2118 0 15.8508 0.23901 17.1995 0.71703C18.5482 1.19505 19.5725 1.9889 20.2639 3.10713C20.9553 4.22535 21.2199 5.73624 21.0578 7.64831L15.6544 9.08237C15.9105 8.18609 15.8337 7.45198 15.441 6.89714C15.0484 6.3423 14.4423 5.93257 13.6399 5.67648C12.8375 5.42894 11.9327 5.3009 10.9255 5.3009C9.85844 5.3009 9.04752 5.43747 8.49267 5.71916C7.93783 6.00085 7.58785 6.41058 7.46834 6.94836C7.40005 7.25565 7.40859 7.52027 7.49395 7.73367C7.58785 7.94708 7.78418 8.13487 8.09148 8.30559C8.39878 8.46778 8.83411 8.59582 9.38896 8.68118L13.5546 9.24456C15.1423 9.50064 16.4056 9.83355 17.336 10.2603C18.2665 10.6872 18.9237 11.2164 19.2823 11.8651C19.6408 12.5139 19.7261 13.2907 19.5213 14.1869C19.2908 15.3735 18.6591 16.4149 17.6263 17.3111C16.6019 18.1989 15.3386 18.8732 13.8533 19.3257C12.368 19.7781 10.8145 20 9.19263 20C6.92203 20 5.06117 19.6756 3.61004 19.0098L3.62711 19.0354Z" fill="#007BED"/>
<path d="M23.8409 19.2481C22.9531 18.7872 22.2617 18.1384 21.7751 17.2848C21.2886 16.4398 21.0496 15.4581 21.0496 14.3399C21.0496 12.7522 21.391 11.284 22.0654 9.91821C22.7397 8.56098 23.7299 7.46836 25.0359 6.66597C26.3419 5.85504 27.8955 5.44531 29.6966 5.44531C30.738 5.44531 31.6684 5.65871 32.4794 6.09405C33.2903 6.52939 33.922 7.15253 34.3829 7.97199C34.8439 8.79145 35.0743 9.7731 35.0743 10.9084H35.2109C35.3219 10.1658 35.4243 9.42312 35.5353 8.66341C35.6462 7.9976 35.7914 7.0757 35.9706 5.90626H40.8874L39.2655 13.5034L39.1546 13.9387C39.0436 14.4082 38.9924 14.7582 39.0095 14.9886C39.018 15.2276 39.1204 15.4069 39.3082 15.5264C39.496 15.6544 39.8289 15.7142 40.2984 15.7142L39.4021 19.931H38.2924C36.6023 19.931 35.4072 19.6835 34.7243 19.2054C34.0415 18.7189 33.7 18.0702 33.7 17.2592C33.7 17.0629 33.7171 16.858 33.7512 16.6361C33.7854 16.4227 33.8451 16.2008 33.9134 15.9874C33.9305 15.9532 33.9476 15.8935 33.9646 15.8252H33.8281C33.0854 17.2507 32.155 18.2921 31.0197 18.9494C29.8844 19.6066 28.5442 19.931 26.9907 19.931C25.7871 19.931 24.7371 19.7005 23.8409 19.2396V19.2481ZM32.1123 15.1081C32.8208 14.7752 33.3586 14.3484 33.7086 13.8277C34.0585 13.307 34.2378 12.7436 34.2378 12.1547C34.2378 11.6852 34.0927 11.2754 33.7939 10.9084C33.4951 10.5499 33.0683 10.2682 32.4964 10.0719C31.9245 9.87553 31.2246 9.7731 30.3709 9.7731C29.2527 9.7731 28.3564 9.95236 27.665 10.3109C26.9821 10.6694 26.487 11.1047 26.1883 11.6254C25.8895 12.1376 25.7444 12.6754 25.7444 13.2302C25.7444 13.9472 26.0688 14.5277 26.7175 14.963C27.3663 15.3984 28.2881 15.6118 29.4747 15.6118C30.5161 15.6118 31.3953 15.441 32.1123 15.1081Z" fill="#007BED"/>
<path d="M43.1094 10.4147C43.1094 10.116 43.0241 9.91112 42.8533 9.80869C42.6826 9.70626 42.3497 9.6465 41.8632 9.6465L42.7509 5.42969C44.6032 5.42969 45.9434 5.61748 46.7629 5.98453C47.5823 6.35158 48.0433 6.91496 48.1457 7.67467C48.2481 8.43438 48.0859 9.47578 47.6762 10.8074L47.625 10.944L47.0275 12.9414H47.1897C47.8555 11.2086 48.5981 9.78308 49.409 8.65632C50.22 7.52956 51.065 6.71863 51.9357 6.20647C52.8064 5.70284 53.6856 5.44676 54.5734 5.44676C56.0842 5.44676 57.1342 5.86503 57.7061 6.70156C58.2866 7.5381 58.4573 8.62218 58.2183 9.94527C57.9878 11.2684 57.4415 12.6427 56.5964 14.0682L53.4039 13.8548C53.8393 13.0609 54.0697 12.3951 54.0953 11.8403C54.121 11.294 53.9673 10.8842 53.6259 10.6111C53.2844 10.3379 52.7637 10.2099 52.0552 10.2099C51.2614 10.2099 50.5102 10.4574 49.8102 10.9354C49.1103 11.422 48.5298 12.0366 48.0689 12.7878C47.6079 13.5389 47.2921 14.3072 47.1128 15.1011L46.1653 19.48H41.2742L42.8704 11.9939C43.0326 11.2342 43.118 10.7135 43.118 10.4147H43.1094Z" fill="#007BED"/>
<path d="M60.9042 19.2481C60.0165 18.7872 59.325 18.1384 58.8385 17.2848C58.3519 16.4398 58.1129 15.4581 58.1129 14.3399C58.1129 12.7522 58.4544 11.284 59.1287 9.91821C59.8031 8.56098 60.7932 7.46836 62.0993 6.66597C63.4053 5.85504 64.9588 5.44531 66.76 5.44531C67.8014 5.44531 68.7318 5.65871 69.5427 6.09405C70.3536 6.52939 70.9853 7.15253 71.4463 7.97199C71.9072 8.79145 72.1377 9.7731 72.1377 10.9084H72.2743C72.3852 10.1658 72.4877 9.42312 72.5986 8.66341C72.7096 7.9976 72.8547 7.0757 73.034 5.90626H77.9507L76.3289 13.5034L76.2179 13.9387C76.107 14.4082 76.0557 14.7582 76.0728 14.9886C76.0813 15.2276 76.1838 15.4069 76.3716 15.5264C76.5594 15.6544 76.8923 15.7142 77.3617 15.7142L76.4655 19.931H75.3558C73.6656 19.931 72.4706 19.6835 71.7877 19.2054C71.1048 18.7189 70.7634 18.0702 70.7634 17.2592C70.7634 17.0629 70.7804 16.858 70.8146 16.6361C70.8487 16.4227 70.9085 16.2008 70.9768 15.9874C70.9938 15.9532 71.0109 15.8935 71.028 15.8252H70.8914C70.1488 17.2507 69.2183 18.2921 68.083 18.9494C66.9477 19.6066 65.6076 19.931 64.054 19.931C62.8504 19.931 61.8005 19.7005 60.9042 19.2396V19.2481ZM69.1757 15.1081C69.8842 14.7752 70.4219 14.3484 70.7719 13.8277C71.1219 13.307 71.3011 12.7436 71.3011 12.1547C71.3011 11.6852 71.156 11.2754 70.8573 10.9084C70.5585 10.5499 70.1317 10.2682 69.5598 10.0719C68.9879 9.87553 68.2879 9.7731 67.4343 9.7731C66.3161 9.7731 65.4198 9.95236 64.7284 10.3109C64.0455 10.6694 63.5504 11.1047 63.2516 11.6254C62.9529 12.1376 62.8078 12.6754 62.8078 13.2302C62.8078 13.9472 63.1321 14.5277 63.7809 14.963C64.4296 15.3984 65.3515 15.6118 66.538 15.6118C67.5794 15.6118 68.4586 15.441 69.1757 15.1081Z" fill="#007BED"/>
<path d="M97.7322 15.3594H92.2166V19.4531H90.2478V15.3594H84.7634V13.7344H97.7322V15.3594ZM85.4197 11.4062C86.3572 11.3021 87.1723 11.0964 87.865 10.7891C88.5629 10.4818 89.1072 10.1224 89.4978 9.71094C89.8936 9.29427 90.1332 8.86458 90.2166 8.42188H85.9353V6.85938H90.2478V5.23438H92.2166V6.85938H96.5447V8.42188H92.2791C92.3572 8.85417 92.5889 9.28125 92.9744 9.70312C93.365 10.1198 93.9067 10.4818 94.5994 10.7891C95.2921 11.0964 96.1072 11.3021 97.0447 11.4062L96.3259 12.9688C95.1541 12.8385 94.1332 12.5469 93.2634 12.0938C92.3988 11.6406 91.727 11.0807 91.2478 10.4141C90.7686 11.0859 90.0916 11.6458 89.2166 12.0938C88.3468 12.5417 87.3207 12.8333 86.1384 12.9688L85.4197 11.4062ZM103.826 8.5625C103.831 9.11458 103.956 9.64844 104.201 10.1641C104.446 10.6745 104.818 11.1354 105.318 11.5469C105.818 11.9583 106.441 12.276 107.185 12.5L106.232 14.0469C105.456 13.8229 104.784 13.4818 104.217 13.0234C103.649 12.5599 103.201 12.0104 102.873 11.375C102.545 12.0625 102.094 12.6562 101.521 13.1562C100.954 13.6562 100.269 14.0312 99.4666 14.2812L98.4978 12.7188C99.2426 12.4948 99.865 12.1693 100.365 11.7422C100.865 11.3151 101.235 10.8281 101.474 10.2812C101.719 9.73438 101.842 9.16146 101.842 8.5625V8.45312H98.9822V6.89062H101.842V5.3125H103.857V6.89062H106.701V8.45312H103.826V8.5625ZM101.138 14.875H103.138V17.5938H110.92V19.1875H101.138V14.875ZM106.232 9.375H108.592V5.23438H110.576V15.7812H108.592V10.9844H106.232V9.375ZM128.013 15.4531H126.013V5.23438H128.013V15.4531ZM116.326 9.71875C116.326 9.03646 116.498 8.42188 116.842 7.875C117.185 7.32812 117.651 6.90365 118.24 6.60156C118.834 6.29427 119.493 6.14062 120.217 6.14062C120.935 6.14062 121.592 6.29427 122.185 6.60156C122.779 6.90365 123.248 7.32812 123.592 7.875C123.935 8.42188 124.107 9.03646 124.107 9.71875C124.107 10.4115 123.935 11.0339 123.592 11.5859C123.248 12.1328 122.779 12.5599 122.185 12.8672C121.592 13.1745 120.935 13.3281 120.217 13.3281C119.493 13.3281 118.834 13.1745 118.24 12.8672C117.646 12.5599 117.177 12.1328 116.834 11.5859C116.495 11.0339 116.326 10.4115 116.326 9.71875ZM118.279 9.71875C118.274 10.1042 118.355 10.4401 118.521 10.7266C118.688 11.0078 118.917 11.224 119.209 11.375C119.506 11.5208 119.842 11.5938 120.217 11.5938C120.581 11.5938 120.907 11.5208 121.193 11.375C121.485 11.224 121.714 11.0078 121.881 10.7266C122.052 10.4401 122.138 10.1042 122.138 9.71875C122.138 9.34375 122.052 9.01562 121.881 8.73438C121.714 8.45312 121.485 8.23958 121.193 8.09375C120.901 7.94271 120.576 7.86979 120.217 7.875C119.842 7.86979 119.506 7.94271 119.209 8.09375C118.917 8.23958 118.688 8.45312 118.521 8.73438C118.355 9.01562 118.274 9.34375 118.279 9.71875ZM118.482 14.4219H120.498V17.5938H128.388V19.1875H118.482V14.4219ZM141.888 19.4375H139.873V5.21875H141.888V19.4375ZM129.982 15.4062C131.196 14.8333 132.196 14.1953 132.982 13.4922C133.774 12.7891 134.378 12.0104 134.795 11.1562C135.217 10.2969 135.482 9.33333 135.592 8.26562H130.748V6.70312H137.623C137.618 8.22396 137.412 9.60677 137.006 10.8516C136.599 12.0964 135.909 13.2396 134.935 14.2812C133.967 15.3229 132.664 16.2292 131.029 17L129.982 15.4062ZM148.951 7.45312C148.946 8.04688 149.06 8.61198 149.295 9.14844C149.534 9.67969 149.896 10.1536 150.381 10.5703C150.87 10.987 151.477 11.3073 152.201 11.5312L151.138 13.0781C150.399 12.8333 149.763 12.4792 149.232 12.0156C148.701 11.5521 148.279 11.0026 147.967 10.3672C147.649 11.1016 147.209 11.737 146.646 12.2734C146.089 12.8047 145.414 13.2031 144.623 13.4688L143.545 11.9062C144.31 11.651 144.946 11.2865 145.451 10.8125C145.956 10.3385 146.331 9.79948 146.576 9.19531C146.821 8.58594 146.946 7.94271 146.951 7.26562V5.96875H148.951V7.45312ZM145.513 16.6875C145.513 16.1198 145.709 15.6302 146.099 15.2188C146.495 14.8021 147.06 14.4844 147.795 14.2656C148.529 14.0469 149.394 13.9375 150.388 13.9375C151.368 13.9375 152.217 14.0469 152.935 14.2656C153.654 14.4844 154.209 14.8021 154.599 15.2188C154.99 15.6302 155.185 16.1198 155.185 16.6875C155.185 17.2604 154.99 17.7526 154.599 18.1641C154.209 18.5807 153.654 18.8958 152.935 19.1094C152.217 19.3281 151.368 19.4375 150.388 19.4375C149.394 19.4375 148.529 19.3281 147.795 19.1094C147.06 18.8958 146.495 18.5807 146.099 18.1641C145.709 17.7526 145.513 17.2604 145.513 16.6875ZM147.513 16.6875C147.508 17.0833 147.748 17.3802 148.232 17.5781C148.722 17.776 149.441 17.875 150.388 17.875C152.274 17.875 153.217 17.4792 153.217 16.6875C153.217 16.3021 152.974 16.0078 152.49 15.8047C152.011 15.6016 151.31 15.5 150.388 15.5C149.451 15.5 148.735 15.6016 148.24 15.8047C147.75 16.0078 147.508 16.3021 147.513 16.6875ZM153.045 5.21875H155.045V8.54688H156.967V10.2031H155.045V13.6562H153.045V5.21875ZM170.56 13.4531H165.06V14.6719H169.013V19.2812H159.092V14.6719H163.076V13.4531H157.592V11.875H170.56V13.4531ZM158.732 5.60938H169.404V7.20312H167.545V9.375H169.31V10.9688H158.826V9.375H160.576V7.20312H158.732V5.60938ZM167.06 17.6875V16.2188H161.06V17.6875H167.06ZM165.545 9.375V7.20312H162.576V9.375H165.545ZM183.013 13.1562H178.888V16.1875H184.435V17.8125H171.42V16.1875H176.904V13.1562H172.951V6.21875H182.904V7.8125H174.951V11.5781H183.013V13.1562ZM200.388 10.0625H190.56V5.6875H200.279V7.28125H192.545V8.5H200.388V10.0625ZM188.935 10.8281H201.904V12.4062H196.404V13.3438H200.326V16.9688H192.404V17.8125H200.701V19.3281H190.451V15.5781H198.357V14.8125H190.435V13.3438H194.42V12.4062H188.935V10.8281ZM214.748 19.4688H212.763V11.9688H210.467V10.3438H212.763V5.21875H214.748V19.4688ZM203.232 6.40625H209.67V11.7344H205.248V14.5156C206.342 14.5052 207.31 14.474 208.154 14.4219C208.998 14.3646 209.847 14.2604 210.701 14.1094L210.857 15.7344C209.904 15.8958 208.948 16.0078 207.99 16.0703C207.032 16.1276 205.948 16.1562 204.74 16.1562H204.435H203.263V10.1562H207.732V8.01562H203.232V6.40625ZM229.607 17.7812H216.592V16.1562H222.076V13.5312H217.967V6.125H219.967V8.32812H226.17V6.125H228.154V13.5312H224.06V16.1562H229.607V17.7812ZM226.17 11.9375V9.92188H219.967V11.9375H226.17ZM234.982 8.79688C234.977 10.0677 235.177 11.2266 235.584 12.2734C235.99 13.3203 236.649 14.1354 237.56 14.7188L236.482 16.2656C235.342 15.5781 234.521 14.4349 234.021 12.8359C233.756 13.6745 233.404 14.4141 232.967 15.0547C232.529 15.6953 231.998 16.2031 231.373 16.5781L230.154 15.1094C231.149 14.4948 231.878 13.6328 232.342 12.5234C232.81 11.4141 233.045 10.2031 233.045 8.89062V6.4375H234.982V8.79688ZM236.06 10.0156H237.904V5.42188H239.763V18.7812H237.904V11.6406H236.06V10.0156ZM240.842 5.21875H242.748V19.4375H240.842V5.21875ZM257.263 17.7812H244.248V16.1406H247.154V12.6562C246.592 12.3177 246.157 11.901 245.849 11.4062C245.542 10.9062 245.388 10.349 245.388 9.73438C245.388 8.97917 245.618 8.3125 246.076 7.73438C246.534 7.15625 247.167 6.70833 247.974 6.39062C248.787 6.06771 249.706 5.90625 250.732 5.90625C251.753 5.90625 252.67 6.06771 253.482 6.39062C254.295 6.70833 254.933 7.15625 255.396 7.73438C255.86 8.3125 256.092 8.97917 256.092 9.73438C256.086 10.3385 255.935 10.8854 255.638 11.375C255.342 11.8646 254.92 12.2786 254.373 12.6172V16.1406H257.263V17.7812ZM247.357 9.73438C247.357 10.1927 247.495 10.5911 247.771 10.9297C248.052 11.2682 248.446 11.5286 248.951 11.7109C249.461 11.8932 250.055 11.9844 250.732 11.9844C251.399 11.9844 251.987 11.8932 252.498 11.7109C253.008 11.5286 253.407 11.2682 253.693 10.9297C253.98 10.5911 254.123 10.1927 254.123 9.73438C254.123 9.26562 253.98 8.86198 253.693 8.52344C253.412 8.1849 253.016 7.92708 252.506 7.75C251.995 7.56771 251.404 7.47917 250.732 7.48438C250.055 7.48438 249.461 7.57292 248.951 7.75C248.446 7.92708 248.052 8.1849 247.771 8.52344C247.495 8.86198 247.357 9.26562 247.357 9.73438ZM252.357 16.1406V13.375C251.836 13.4792 251.295 13.5312 250.732 13.5312C250.185 13.5312 249.649 13.4818 249.123 13.3828V16.1406H252.357ZM261.107 14.6094H259.107L258.904 6.6875H261.31L261.107 14.6094ZM258.81 16.8281C258.805 16.5938 258.86 16.3776 258.974 16.1797C259.094 15.9766 259.256 15.8177 259.459 15.7031C259.662 15.5885 259.883 15.5312 260.123 15.5312C260.352 15.5312 260.566 15.5885 260.763 15.7031C260.961 15.8177 261.12 15.9766 261.24 16.1797C261.36 16.3776 261.42 16.5938 261.42 16.8281C261.42 17.0677 261.36 17.2891 261.24 17.4922C261.12 17.6901 260.961 17.849 260.763 17.9688C260.566 18.0833 260.352 18.1406 260.123 18.1406C259.883 18.1406 259.662 18.0833 259.459 17.9688C259.256 17.849 259.094 17.6901 258.974 17.4922C258.86 17.2891 258.805 17.0677 258.81 16.8281Z" fill="#007BED"/>
</svg>
