<svg width="99" height="48" viewBox="0 0 99 48" fill="none" xmlns="http://www.w3.org/2000/svg">
<path d="M43.8434 32.4353C43.6867 35.5691 43.4778 38.7029 43.1644 41.7323C42.7466 45.9108 40.1353 48 36.4795 48C32.2492 48 29.429 45.5974 29.899 40.8966C31.2569 29.667 31.2569 18.3852 29.9513 7.62568C29.429 2.45484 32.2492 0 36.4795 0C40.1353 0 42.7466 2.08923 43.1644 6.37214C43.4256 8.82699 43.5823 11.2818 43.7389 13.8411L45.2535 13.6844C47.6559 13.2666 49.066 16.1393 49.066 23.086C49.066 30.0849 47.6559 32.9053 45.2535 32.6442L43.8434 32.4353ZM8.06857 45.963C3.21155 45.963 0.234665 42.3591 0.0257612 33.271C-0.183143 25.1752 0.861377 21.049 3.78603 18.333C6.39733 15.8781 7.96412 13.7889 7.96412 8.98368C7.96412 3.49945 9.89648 1.46246 14.5968 1.46246C18.8794 1.46246 21.0728 3.49945 21.0728 8.77475C21.0728 13.1621 23.5275 15.5647 26.1388 18.3852C28.1234 20.5267 29.5335 24.1828 29.2201 33.7933C28.8545 44.2916 27.1833 46.1719 23.5275 46.1719C18.8271 46.1719 17.2081 44.5005 17.2081 33.741C17.2081 27.4733 16.6859 23.556 14.5968 20.0566C13.9701 19.012 12.3511 19.7432 13.2912 21.1534C14.9102 23.7127 15.6413 27.4733 15.6413 34.5245C15.6413 44.2916 13.7612 45.963 8.06857 45.963Z" fill="#007BED"/>
<path d="M93.5466 32.4353C93.39 35.5691 93.1811 38.7029 92.8677 41.7323C92.4499 45.9108 89.8386 48 86.1828 48C81.9525 48 79.1323 45.5974 79.6023 40.8966C80.9602 29.667 80.9602 18.3852 79.6545 7.62568C79.1323 2.45484 81.9525 0 86.1828 0C89.8386 0 92.4499 2.08923 92.8677 6.37214C93.1288 8.82699 93.2855 11.2818 93.4422 13.8411L94.9567 13.6844C97.3591 13.2666 98.7692 16.1393 98.7692 23.086C98.7692 30.0849 97.3591 32.9053 94.9567 32.6442L93.5466 32.4353ZM50.3035 37.7628C49.6246 33.4276 49.5723 28.8836 50.3035 25.123C51.2436 21.049 52.497 18.1763 57.0929 18.1763C60.3831 18.1763 63.5689 18.0196 66.9114 17.4973C67.6948 17.3928 67.6948 15.7737 66.9114 15.8781C63.7256 16.3482 60.8532 16.5571 57.7196 16.5571C52.0792 16.5571 50.3035 14.3634 50.3035 10.1328C50.3035 5.9543 52.967 3.29053 58.0852 2.24592C62.3677 1.46246 65.1357 1.46246 68.7915 1.98477C72.9696 2.61153 76.4687 4.02176 77.4088 8.82699C78.1922 13.0054 78.2444 17.7584 77.4088 21.2579C76.8865 23.5038 75.3198 24.235 73.0218 24.235C67.068 24.2873 62.1588 25.2274 58.7119 26.7943C57.824 27.2644 58.3985 28.6746 59.2864 28.3613C62.2633 27.0555 66.2324 25.802 69.9405 25.802C75.6331 25.802 78.3489 28.8313 78.8189 34.3156C79.4978 43.5604 72.4473 45.963 64.8746 45.963C55.7872 45.963 51.1391 42.9859 50.3035 37.7628Z" fill="#007BED"/>
</svg>
