<svg width="240" height="64" viewBox="0 0 240 64" fill="none" xmlns="http://www.w3.org/2000/svg">
<path d="M69.4626 19.6389C69.3698 21.4945 69.2461 23.3502 69.0605 25.144C68.8131 27.6182 67.2667 28.8552 65.1018 28.8552C62.5967 28.8552 60.9266 27.4326 61.205 24.6491C62.0091 17.9997 62.0091 11.3194 61.2359 4.94838C60.9266 1.88657 62.5967 0.432983 65.1018 0.432983C67.2667 0.432983 68.8131 1.67008 69.0605 4.20612C69.2152 5.65971 69.308 7.1133 69.4007 8.62874L70.2976 8.53596C71.7203 8.28854 72.5553 9.98954 72.5553 14.1029C72.5553 18.2472 71.7203 19.9172 70.2976 19.7626L69.4626 19.6389ZM48.2773 27.6491C45.4011 27.6491 43.6382 25.5151 43.5145 20.1337C43.3908 15.34 44.0093 12.8967 45.7413 11.2885C47.2877 9.83491 48.2155 8.59781 48.2155 5.75249C48.2155 2.50512 49.3598 1.29895 52.1432 1.29895C54.6793 1.29895 55.9782 2.50512 55.9782 5.62878C55.9782 8.22668 57.4318 9.64934 58.9782 11.3194C60.1534 12.5874 60.9885 14.7524 60.8029 20.443C60.5864 26.6594 59.5968 27.7728 57.4318 27.7728C54.6484 27.7728 53.6896 26.7831 53.6896 20.4121C53.6896 16.7008 53.3803 14.3812 52.1432 12.3091C51.7721 11.6906 50.8134 12.1235 51.3701 12.9586C52.3288 14.474 52.7618 16.7008 52.7618 20.876C52.7618 26.6594 51.6484 27.6491 48.2773 27.6491Z" fill="#007BED"/>
<path d="M98.927 15.2472L99.6692 15.1853C101.092 15.0616 101.927 16.3606 101.927 19.608C101.927 22.8553 101.092 24.1543 99.6692 24.0615L98.5558 23.9378C98.5249 24.3399 98.463 24.7419 98.4321 25.144C98.1847 27.6182 96.6383 28.8552 94.4734 28.8552C91.9683 28.8552 90.2982 27.4326 90.5766 24.6491C91.3807 17.9997 91.3807 11.3194 90.6075 4.94838C90.2982 1.88657 91.9683 0.432983 94.4734 0.432983C96.6383 0.432983 98.1847 1.67008 98.4321 4.20612C98.463 4.45354 98.463 4.70096 98.494 4.94838L99.6692 4.82467C101.092 4.67003 101.927 5.99991 101.927 9.24729C101.927 12.5256 101.092 13.8555 99.6692 13.7008L98.927 13.639C98.927 14.1957 98.927 14.6905 98.927 15.2472ZM81.7623 27.7728C75.5459 27.7728 73.4119 22.5461 73.4119 14.5359C73.4119 6.49475 75.2366 1.29895 81.7623 1.29895C88.2879 1.29895 90.1127 6.49475 90.1127 14.5359C90.1127 22.5461 87.9787 27.7728 81.7623 27.7728ZM81.2365 16.5462C81.2365 17.041 82.2262 17.041 82.2262 16.5462V12.5565C82.2262 12.0308 81.2365 12.0308 81.2365 12.5565V16.5462Z" fill="#007BED"/>
<path d="M111.844 8.6906C110.329 8.22668 109.679 7.36072 109.679 6.15455C109.679 4.05149 112.215 2.84532 114.844 3.52572C114.257 3.09274 114.102 2.47419 114.102 2.01028C114.102 0.92782 115.803 0 118.339 0C120.844 0 122.545 0.92782 122.545 2.01028C122.545 2.47419 122.421 3.09274 121.834 3.52572C124.463 2.84532 126.999 4.05149 126.999 6.15455C126.999 7.36072 126.349 8.22668 124.865 8.6906C126.349 10.639 126.999 12.8967 126.999 16.0204C126.999 23.2883 124.586 27.7419 118.339 27.7419C112.123 27.7419 109.679 23.2883 109.679 16.0204C109.679 12.8967 110.329 10.639 111.844 8.6906ZM135.535 8.59781L136.277 8.50503C137.699 8.28854 138.535 9.95862 138.535 14.072C138.535 18.2162 137.699 19.9172 136.277 19.7317L135.566 19.6389C135.473 21.4945 135.349 23.3192 135.163 25.113C134.947 27.5872 133.37 28.8243 131.205 28.8243C128.7 28.8243 127.03 27.4017 127.37 24.6182C128.112 17.9688 128.112 11.2885 127.401 4.91745C127.03 1.85564 128.7 0.402056 131.205 0.402056C133.37 0.402056 134.947 1.63915 135.163 4.1752C135.318 5.62878 135.442 7.08237 135.535 8.59781ZM117.844 18.6183C117.844 19.1131 118.834 19.1131 118.834 18.6183V14.6596C118.834 14.1338 117.844 14.1338 117.844 14.6596V18.6183Z" fill="#007BED"/>
<path d="M140.381 6.83495C140.381 3.46387 142.236 1.63915 144.494 1.14431C146.906 0.58762 149.35 1.17524 150.432 3.18552C151.329 4.88653 151.082 6.89681 149.535 8.10297C149.133 8.41225 149.628 9.0308 150.061 8.56688C153.03 5.50507 156.247 2.78346 160.576 2.78346C163.484 2.78346 166.143 3.86592 166.391 6.64939C166.576 9.1545 165.123 10.9174 161.69 11.3813C157.824 11.907 151.7 12.0926 145.917 11.6596C142.267 11.3813 140.381 9.68027 140.381 6.83495ZM142.298 18.1234C140.535 17.9997 139.453 17.041 139.453 15.1853C139.453 13.639 140.535 12.3091 142.298 12.4947C148.917 13.0823 157.422 13.0204 164.288 12.4947C166.081 12.34 167.164 13.639 167.164 15.1853C167.164 17.041 166.081 17.9997 164.257 18.1234C157.422 18.6801 148.917 18.7111 142.298 18.1234ZM140.381 24.1543C140.381 21.2471 142.205 19.5152 144.494 19.144C146.937 18.742 148.917 19.5152 150.061 20.9997C150.958 22.144 150.525 24.278 149.35 25.113C148.948 25.4223 149.257 26.0099 149.721 25.6697C152.999 23.2574 157.143 20.6286 161.783 20.6286C164.071 20.6286 166.05 21.4327 166.36 23.7213C166.607 26.2264 165.308 27.7728 161.69 28.2058C157.824 28.7006 151.7 28.7625 145.917 28.4223C142.267 28.1748 140.381 26.6903 140.381 24.1543Z" fill="#007BED"/>
<path d="M193.01 28.8552C191.092 28.8552 189.793 27.4326 190.072 24.6491C190.628 17.9997 190.628 11.3194 190.103 4.94838C189.793 1.88657 191.092 0.432983 193.01 0.432983C194.711 0.432983 195.917 1.67008 196.133 4.20612C196.628 10.8864 196.628 18.4327 196.133 25.144C195.917 27.6182 194.711 28.8552 193.01 28.8552ZM181.969 19.8863C182.031 20.2265 182.092 20.5976 182.123 20.9688C182.525 26.2883 179.123 27.4635 175.412 27.4635C171.422 27.4635 169.567 25.144 169.072 21.3708C168.484 17.2266 168.484 11.8452 169.072 7.70092C169.567 3.92778 170.866 2.07213 173.062 1.67008C174.917 1.3608 176.68 1.3608 178.505 1.60822C180.67 1.9175 182.092 3.49479 182.092 6.40197C182.092 9.40192 180.793 11.3503 178.505 11.3503H175.412C175.938 12.7421 175.938 14.8142 175.536 16.175C174.824 16.4534 174.268 16.7317 173.835 17.041C173.464 17.2884 173.773 17.8451 174.144 17.5977C175.165 16.8554 176.587 16.4843 178.226 16.4843C178.412 16.4843 178.629 16.4843 178.814 16.5152C178.814 16.2369 178.783 15.9895 178.783 15.6802C178.783 12.5565 179.618 11.2576 181.01 11.3813L183.391 11.5978C183.329 9.43285 183.206 7.29886 183.02 5.1958C182.773 2.16492 184.041 0.773183 185.958 0.773183C187.659 0.773183 188.896 1.97935 189.051 4.42262C189.608 11.0101 189.608 18.4327 189.051 25.0203C188.896 27.4635 187.659 28.6697 185.958 28.6697C184.041 28.6697 182.773 27.247 182.989 24.5254C183.144 22.9481 183.237 21.3708 183.299 19.7935L181.969 19.8863Z" fill="#007BED"/>
<path d="M22.0258 52.5569C21.9639 55.1548 21.8402 57.7217 21.6547 60.165C21.4691 62.6083 20.4485 63.8144 18.7475 63.8144C16.7991 63.8144 15.7475 62.3918 15.9949 59.6702C16.5516 53.1445 16.5826 46.5879 16.0568 40.3405C15.7784 37.3097 16.7991 35.9179 18.7475 35.9179C20.4485 35.9179 21.4691 37.1241 21.6547 39.5674C21.7784 41.1137 21.8711 42.6601 21.933 44.2683L23.2938 44.392C23.232 42.9384 23.1082 41.5158 22.9845 40.0931C22.7371 37.0313 23.7886 35.5777 25.7371 35.5777C27.4071 35.5777 28.4278 36.8148 28.6442 39.3509C29.1391 46.0312 29.1391 53.5775 28.6442 60.2887C28.4278 62.7629 27.4071 64 25.7371 64C23.7886 64 22.7062 62.5773 22.9845 59.7939C23.201 57.3506 23.3557 54.8764 23.4175 52.4332L22.0258 52.5569ZM5.01572 55.1548C1.73742 53.9486 0.53125 50.6394 0.53125 46.0621C0.53125 40.2168 2.20133 36.4437 8.13939 36.4437C14.0774 36.4437 15.7475 40.2168 15.7475 46.0621C15.7475 50.2992 14.696 53.4538 11.9435 54.8455V56.4846C12.3146 56.4537 12.6548 56.3919 12.995 56.3609C14.6032 56.1135 15.531 57.4434 15.531 59.2372C15.531 61.2784 14.6032 62.6083 12.995 62.8248C10.0569 63.2268 5.91261 63.2268 3.12915 62.8557C1.55185 62.6392 0.593105 61.2784 0.593105 59.2372C0.593105 57.4434 1.55185 56.1754 3.12915 56.4228C3.71677 56.4846 4.33532 56.5465 5.01572 56.5774V55.1548ZM7.55177 47.9178C7.55177 48.4435 8.75793 48.4435 8.75793 47.9178V43.9591C8.75793 43.4024 7.55177 43.4024 7.55177 43.9591V47.9178Z" fill="#007BED"/>
<path d="M63.056 39.7839L64.0457 39.6911C65.4684 39.5364 66.3034 40.9282 66.3034 44.3611C66.3034 47.7013 65.4684 49.1549 64.0457 49.0002L63.0251 48.9074C62.9942 49.2167 62.9632 49.4951 62.9014 49.8043C62.623 51.8765 61.1076 52.8043 58.9427 52.8043C56.4376 52.8043 54.7984 51.7218 55.1386 49.4332C55.5716 46.0312 55.5716 42.4127 55.1695 39.2272C54.7984 36.6911 56.4376 35.5777 58.9427 35.5777C61.1076 35.5777 62.623 36.5365 62.9014 38.6086C62.9632 39.0107 62.9942 39.3818 63.056 39.7839ZM40.8502 52.062C39.1801 51.9074 38.2523 50.9177 38.0976 49.2167C37.7884 46.0003 37.7884 42.258 38.0976 39.0107C38.2523 37.3406 39.1801 36.3818 40.8502 36.1963C44.3759 35.9179 48.0253 35.9179 51.4892 36.1963C53.1283 36.3818 54.1489 37.3406 54.2727 39.0107C54.5819 42.258 54.5819 46.0003 54.2727 49.2167C54.1489 50.9177 53.1283 51.9074 51.4892 52.062C48.0253 52.3404 44.3759 52.3404 40.8502 52.062ZM44.314 45.5364C45.7985 45.2889 47.1594 44.4539 48.3037 43.3405C48.8294 42.8457 48.149 42.258 47.7779 42.5673C46.6027 43.5261 45.4583 44.2065 43.8811 44.6395C43.3862 44.7941 43.6336 45.5982 44.314 45.5364ZM38.5306 58.9279C38.5306 55.1238 42.2419 52.9589 51.0253 52.9589C59.7777 52.9589 63.5199 55.1238 63.5199 58.9279C63.5199 62.7938 60.4272 63.9691 51.0253 63.9691C41.5924 63.9691 38.5306 62.7938 38.5306 58.9279ZM48.7985 59.0825C50.2212 59.8248 51.8294 59.8248 53.252 59.0825C53.4685 58.9588 53.685 58.6496 53.5613 58.3403C53.4685 58.0929 53.1283 57.8764 52.8809 58.031C51.7366 58.6496 50.2212 58.6186 49.1387 58.0001C48.9222 57.8764 48.5511 57.9692 48.3965 58.2784C48.2418 58.5877 48.3964 58.8661 48.7985 59.0825Z" fill="#007BED"/>
<path d="M84.7576 46.0312C84.5102 49.1239 83.4896 49.6497 81.3556 49.6497C78.5721 49.6497 77.5825 49.1549 77.5825 45.7528C77.5825 43.7735 77.2732 42.5364 76.0361 41.4539C75.5103 40.8972 74.6753 41.3302 75.2629 41.7632C76.2217 42.5983 76.6546 43.7735 76.6546 46.0003C76.6546 49.093 75.5413 49.6188 72.1393 49.6188C69.2321 49.6188 67.4383 48.4745 67.3146 45.5982C67.1909 43.0622 67.8094 41.7632 69.5723 40.8972C71.1187 40.155 72.0774 39.5055 72.0774 37.9591C72.0774 36.1963 73.2217 35.5777 76.0361 35.5777C78.6031 35.5777 79.902 36.1963 79.902 37.8973C79.902 39.0416 80.9536 39.7529 82.1907 40.4643C82.4999 38.9488 83.2113 38.5468 84.2937 38.5468H85.6854C85.7164 36.5056 87.2627 35.5777 89.5204 35.5777C91.6854 35.5777 93.2008 36.5365 93.4791 38.6086C94.0358 42.1034 94.0358 43.6189 93.4791 47.0827C93.2008 49.1549 91.6854 50.1136 89.5204 50.1136C87.0153 50.1136 85.4071 49.0002 85.6854 46.6807C85.7164 46.4642 85.7473 46.2477 85.7782 46.0312H84.7576ZM68.8919 61.3093C68.2733 60.0413 68.2424 57.9692 68.9847 56.5465C69.4795 55.495 70.8403 55.0001 72.7887 55.0001C75.8196 55.0001 80.4587 54.9692 83.1803 54.7527C83.8298 54.6909 83.737 53.9486 83.1185 53.9795C80.335 54.1032 77.5825 54.1651 74.8918 54.2269C70.098 54.3197 68.4589 54.3816 68.4589 52.5569C68.4589 50.7322 70.4073 50.794 75.2938 50.5775C78.5721 50.4229 83.6133 50.3301 87.603 50.5775C90.4483 50.7012 92.5513 51.0105 93.0462 52.3094C93.5101 53.4847 93.4173 54.6599 93.0462 55.495C92.675 56.4228 91.5926 56.9795 89.9844 56.9486C84.6648 56.8558 79.933 57.0413 76.098 57.5362C75.3866 57.6599 75.5413 58.3712 76.2835 58.2784C78.9742 57.9073 82.2216 57.6599 85.5308 57.6599C90.6338 57.6599 93.7266 57.8455 93.7575 60.165C93.8194 62.8248 90.9122 63.134 87.0153 63.5052C83.2731 63.8454 79.9948 63.8763 76.1289 63.6598C71.7681 63.4433 69.5723 62.6701 68.8919 61.3093Z" fill="#007BED"/>
<path d="M119.109 64C116.603 64 114.902 62.5773 115.212 59.7939C115.985 53.1445 115.985 46.4642 115.243 40.0931C114.902 37.0313 116.603 35.5777 119.109 35.5777C121.273 35.5777 122.82 36.8148 123.067 39.3509C123.748 46.0312 123.748 53.5775 123.067 60.2887C122.82 62.7629 121.273 64 119.109 64ZM105.5 62.9175C99.2841 62.9175 97.1501 57.6908 97.1501 49.6806C97.1501 41.6395 98.9748 36.4437 105.5 36.4437C112.026 36.4437 113.851 41.6395 113.851 49.6806C113.851 57.6908 111.717 62.9175 105.5 62.9175ZM105.037 51.6909C105.037 52.1857 105.995 52.1857 105.995 51.6909V47.7013C105.995 47.1755 105.037 47.1755 105.037 47.7013V51.6909Z" fill="#007BED"/>
<path d="M131.965 47.0209C129.027 46.959 126.986 45.691 126.862 42.6292C126.676 39.5364 129.12 37.5571 132.46 36.722C136.882 35.6087 142.357 35.5777 146.655 36.6602C149.594 37.4334 151.666 39.1344 152.222 41.1756C152.996 43.9281 152.965 47.4848 151.727 50.2373C150.676 52.6187 148.356 53.9795 145.171 54.1032C141.738 54.2269 139.449 52.3713 139.078 49.6188C138.676 46.557 139.449 44.423 140.81 42.289C141.058 41.8869 140.47 41.5776 140.223 41.9488C137.841 45.2889 135.181 47.1137 131.965 47.0209ZM129.769 54.6909C129.583 53.7012 129.522 52.7734 129.522 51.8765C129.522 49.2476 130.821 48.1961 133.944 48.1961C137.377 48.1961 138.367 49.5569 138.367 52.2167C138.367 53.2063 138.274 54.196 138.089 55.2166C142.016 55.2785 145.913 55.1238 149.996 54.6909C152.377 54.4125 153.738 56.2991 153.738 58.5877C153.738 61.4949 152.377 62.9175 149.965 63.165C143.068 63.8763 136.666 63.8763 129.769 63.165C127.419 62.9175 126.027 61.4949 126.027 58.5877C126.027 56.2991 127.419 54.4125 129.769 54.6909Z" fill="#007BED"/>
<path d="M181.129 48.7528C181.624 45.3199 181.624 42.4127 181.16 39.2272C180.851 36.6911 182.459 35.5777 184.964 35.5777C187.129 35.5777 188.644 36.5365 188.923 38.6086C189.479 42.1034 189.479 45.6291 188.923 49.1239C188.644 51.1651 187.129 52.1239 184.964 52.1239C182.459 52.1239 180.851 51.0105 181.129 48.7528ZM163.006 44.0209C163.006 39.1962 164.923 35.6705 171.665 35.6705C178.407 35.6705 180.356 39.1962 180.356 44.0209C180.356 48.7219 178.067 52.1239 171.665 52.1239C165.232 52.1239 163.006 48.7219 163.006 44.0209ZM169.346 43.124C170.243 44.3302 171.789 45.2271 173.366 45.5982C174.139 45.7838 174.356 44.7322 173.892 44.5776C172.408 44.1446 171.139 43.3405 169.995 42.2271C169.624 41.856 168.882 42.5983 169.346 43.124ZM170.707 57.5362C170.057 57.4434 169.871 58.2784 170.521 58.4021C171.449 58.5877 172.098 59.9485 172.098 61.2784C172.098 63.3196 170.645 64 167.707 64C164.799 64 163.129 61.8351 163.129 59.299C163.129 55.1238 166.562 52.8043 170.676 52.8043C173.212 52.8043 175.84 54.3816 176.645 56.3919C177.511 54.3197 180.17 52.8043 183.572 52.8043C187.871 52.8043 190.253 55.4331 190.253 59.4846C190.253 61.7732 188.954 64 186.541 64C183.077 64 182.212 63.0413 181.964 60.2887C181.779 58.3403 180.665 57.4743 179.675 57.2269C178.964 57.0413 178.84 57.9073 179.242 58.031C180.201 58.2784 180.943 59.299 180.943 60.6289C180.943 62.9485 179.119 64 176.83 64C174.325 64 173.057 62.9794 172.964 61C172.902 58.8351 171.882 57.8145 170.707 57.5362Z" fill="#007BED"/>
<path d="M217.274 59.0825C217.243 59.4846 217.181 59.8867 217.15 60.2887C216.903 62.7629 215.356 64 213.191 64C210.686 64 209.016 62.5773 209.294 59.7939C210.099 53.1445 210.099 46.4642 209.325 40.0931C209.016 37.0313 210.686 35.5777 213.191 35.5777C215.356 35.5777 216.903 36.8148 217.15 39.3509C217.181 39.5983 217.181 39.8457 217.212 40.0931L218.387 39.9694C219.81 39.8148 220.645 41.1447 220.645 44.392C220.645 47.6703 219.81 49.0002 218.387 48.8456L217.645 48.7837C217.645 49.3404 217.645 49.8353 217.645 50.392L218.387 50.3301C219.81 50.2064 220.645 51.5053 220.645 54.7527C220.645 58.0001 219.81 59.299 218.387 59.2063L217.274 59.0825ZM196.367 62.7938C193.491 62.7938 191.728 60.6598 191.604 55.2785C191.48 50.4847 192.099 48.0415 193.831 46.4332C195.377 44.9797 196.305 43.7426 196.305 40.8972C196.305 37.6499 197.449 36.4437 200.233 36.4437C202.769 36.4437 204.068 37.6499 204.068 40.7735C204.068 43.3714 205.521 44.7941 207.068 46.4642C208.243 47.7322 209.078 49.8971 208.892 55.5878C208.676 61.8042 207.686 62.9175 205.521 62.9175C202.738 62.9175 201.779 61.9279 201.779 55.5568C201.779 51.8455 201.47 49.526 200.233 47.4538C199.862 46.8353 198.903 47.2683 199.46 48.1033C200.418 49.6188 200.851 51.8455 200.851 56.0207C200.851 61.8042 199.738 62.7938 196.367 62.7938Z" fill="#007BED"/>
<path d="M226.512 51.9692C226.326 51.1342 226.45 49.3404 227.501 47.9796C228.213 47.1137 229.202 46.2786 230.316 45.5982C230.996 45.2271 231.491 44.7941 231.491 43.8972C231.491 43.2168 231.151 43.124 230.594 43.124C230.037 43.124 229.666 43.4333 229.604 43.99C229.388 45.1343 227.903 46.4642 225.584 46.4642C222.677 46.4642 221.594 44.7941 221.594 42.8457C221.594 38.9179 225.089 36.1654 230.656 36.1654C236.779 36.1654 239.47 38.9179 239.47 42.8457C239.47 45.3508 238.759 47.2992 237.212 48.6291C236.532 49.2167 235.326 50.0827 234.955 50.5157C234.707 50.7631 234.305 51.66 234.182 51.9692C233.594 53.4847 232.419 54.4434 230.285 54.4434C228.151 54.4434 226.852 53.3919 226.512 51.9692ZM226.233 60.1032C226.233 57.5053 227.903 55.8661 230.316 55.8661C232.852 55.8661 234.46 57.5053 234.46 60.1032C234.46 62.2062 232.728 63.7835 230.316 63.7835C227.934 63.7835 226.233 62.2062 226.233 60.1032Z" fill="#007BED"/>
</svg>
