<svg width="49" height="48" viewBox="0 -3 49 52" fill="none" xmlns="http://www.w3.org/2000/svg">
<rect x="0.5" width="48" height="48" rx="16" fill="#EF2B00"/>
<rect x="0.5" width="48" height="48" rx="16" fill="white" fill-opacity="0.9"/>
<rect x="1" y="0.5" width="47" height="47" rx="15.5" stroke="#EF2B00" stroke-opacity="0"/>
<path stroke-opacity="0" d="M17.4578 20.625C19.1231 20.625 20.4732 19.2819 20.4732 17.625C20.4732 15.9681 19.1231 14.625 17.4578 14.625C15.7924 14.625 14.4424 15.9681 14.4424 17.625C14.4424 19.2819 15.7924 20.625 17.4578 20.625Z" fill="#EF2B00" fill-opacity="0.35"/>
<path stroke-opacity="0" d="M31.0271 20.625C32.6925 20.625 34.0425 19.2819 34.0425 17.625C34.0425 15.9681 32.6925 14.625 31.0271 14.625C29.3618 14.625 28.0117 15.9681 28.0117 17.625C28.0117 19.2819 29.3618 20.625 31.0271 20.625Z" fill="#EF2B00" fill-opacity="0.35"/>
<path stroke-opacity="0" d="M23.9847 33.375L34.796 22.125H14.2031L23.9847 33.375Z" fill="#EF2B00" fill-opacity="0.35"/>
</svg>
