<svg width="102" height="18" viewBox="0 0 102 18" fill="none" xmlns="http://www.w3.org/2000/svg">
<path d="M10.9072 4.81641V9.46484H12.7393V10.9277H10.9072V17.2578H9.15723V4.81641H10.9072ZM1.4873 14.373V5.80078H3.22363V8.83594H5.80762V5.80078H7.54395V14.373H1.4873ZM3.22363 12.9648H5.80762V10.1895H3.22363V12.9648ZM24.5791 14.4414V15.877H13.1904V14.4414H17.9893V12.5684H14.5029V8.38477H21.5439V7.01758H14.4893V5.62305H23.2666V9.75195H16.2529V11.1465H23.5537V12.5684H19.7256V14.4414H24.5791Z" fill="#007BED"/>
<path d="M34.1853 17.1319C32.8793 16.5403 31.9651 15.7029 31.4503 14.612C30.9279 13.5288 30.7973 12.2382 31.0355 10.7401L35.6834 9.64917C35.5528 10.3175 35.6373 10.9168 35.9369 11.4622C36.2365 12.0077 36.7589 12.4302 37.4964 12.7375C38.234 13.0448 39.1712 13.1985 40.3082 13.1985C41.0841 13.1985 41.7448 13.1216 42.2749 12.968C42.805 12.8143 43.2045 12.6069 43.4657 12.3457C43.7269 12.0845 43.8882 11.8003 43.9497 11.493C44.0112 11.201 43.9958 10.9552 43.8882 10.7478C43.7807 10.548 43.5502 10.3713 43.1968 10.2254C42.8434 10.0794 42.321 9.94878 41.6373 9.83355L37.7423 9.29578C36.0214 9.04994 34.7615 8.55058 33.9471 7.7977C33.1328 7.04481 32.8486 6.08451 33.0944 4.91677C33.4478 3.3265 34.4465 2.11268 36.0752 1.26761C37.7039 0.422535 39.6706 0 41.9753 0C43.7115 0 45.1866 0.215109 46.4004 0.645327C47.6142 1.07554 48.5361 1.79001 49.1584 2.79641C49.7807 3.80282 50.0188 5.16261 49.8729 6.88348L45.0099 8.17414C45.2404 7.36748 45.1712 6.70679 44.8178 6.20743C44.4644 5.70807 43.919 5.33931 43.1968 5.10883C42.4747 4.88604 41.6603 4.77081 40.7538 4.77081C39.7935 4.77081 39.0637 4.89373 38.5643 5.14725C38.0649 5.40077 37.75 5.76953 37.6424 6.25352C37.5809 6.53009 37.5886 6.76825 37.6655 6.96031C37.75 7.15237 37.9267 7.32138 38.2032 7.47503C38.4798 7.621 38.8716 7.73624 39.371 7.81306L43.12 8.3201C44.5489 8.55058 45.6859 8.85019 46.5233 9.23431C47.3607 9.61844 47.9523 10.0948 48.2749 10.6786C48.5976 11.2625 48.6744 11.9616 48.49 12.7682C48.2826 13.8361 47.7141 14.7734 46.7845 15.58C45.8626 16.379 44.7256 16.9859 43.3889 17.3931C42.0521 17.8003 40.6539 18 39.1943 18C37.1507 18 35.476 17.7081 34.1699 17.1088L34.1853 17.1319Z" fill="#007BED"/>
<path d="M52.3764 17.3239C51.5774 16.9091 50.9552 16.3252 50.5173 15.5569C50.0794 14.7964 49.8643 13.9129 49.8643 12.9065C49.8643 11.4776 50.1716 10.1562 50.7785 8.92698C51.3854 7.70546 52.2766 6.72211 53.452 5.99996C54.6274 5.27013 56.0256 4.90137 57.6466 4.90137C58.5838 4.90137 59.4212 5.09343 60.1511 5.48523C60.8809 5.87704 61.4494 6.43786 61.8643 7.17538C62.2791 7.91289 62.4865 8.79637 62.4865 9.81814H62.6095C62.7093 9.14977 62.8015 8.48139 62.9014 7.79765C63.0013 7.19842 63.1319 6.36872 63.2932 5.31622H67.7183L66.2586 12.1536L66.1588 12.5454C66.0589 12.9679 66.0128 13.2829 66.0282 13.4904C66.0358 13.7055 66.128 13.8668 66.297 13.9744C66.4661 14.0896 66.7657 14.1434 67.1882 14.1434L66.3815 17.9385H65.3828C63.8617 17.9385 62.7862 17.7157 62.1716 17.2855C61.557 16.8476 61.2497 16.2637 61.2497 15.5339C61.2497 15.3572 61.265 15.1728 61.2958 14.9731C61.3265 14.781 61.3803 14.5813 61.4417 14.3892C61.4571 14.3585 61.4725 14.3047 61.4878 14.2432H61.3649C60.6965 15.5262 59.8591 16.4635 58.8374 17.055C57.8156 17.6466 56.6095 17.9385 55.2113 17.9385C54.128 17.9385 53.1831 17.7311 52.3764 17.3162V17.3239ZM59.8207 13.5979C60.4584 13.2983 60.9424 12.9142 61.2573 12.4455C61.5723 11.9769 61.7337 11.4699 61.7337 10.9398C61.7337 10.5172 61.6031 10.1485 61.3342 9.81814C61.0653 9.49548 60.6812 9.24196 60.1664 9.06526C59.6517 8.88856 59.0218 8.79637 58.2535 8.79637C57.2471 8.79637 56.4404 8.95771 55.8182 9.28037C55.2036 9.60303 54.758 9.99484 54.4891 10.4635C54.2202 10.9244 54.0896 11.4084 54.0896 11.9078C54.0896 12.5531 54.3815 13.0755 54.9654 13.4673C55.5493 13.8591 56.379 14.0512 57.4468 14.0512C58.3841 14.0512 59.1754 13.8975 59.8207 13.5979Z" fill="#007BED"/>
<path d="M69.7172 9.3723C69.7172 9.10341 69.6403 8.91903 69.4867 8.82684C69.333 8.73465 69.0334 8.68088 68.5955 8.68088L69.3945 4.88574C71.0616 4.88574 72.2677 5.05476 73.0052 5.3851C73.7428 5.71545 74.1576 6.22249 74.2498 6.90623C74.342 7.58997 74.196 8.52723 73.8273 9.72569L73.7812 9.84861L73.2434 11.6463H73.3894C73.9886 10.0868 74.657 8.8038 75.3868 7.78971C76.1166 6.77563 76.8772 6.04579 77.6608 5.58485C78.4444 5.13158 79.2357 4.90111 80.0347 4.90111C81.3945 4.90111 82.3394 5.27755 82.8542 6.03043C83.3766 6.78331 83.5302 7.75898 83.3151 8.94976C83.1077 10.1405 82.616 11.3774 81.8554 12.6604L78.9822 12.4683C79.374 11.7539 79.5814 11.1546 79.6045 10.6553C79.6275 10.1636 79.4892 9.79483 79.1819 9.549C78.8746 9.30316 78.406 9.18792 77.7684 9.18792C77.0539 9.18792 76.3778 9.41071 75.7479 9.84093C75.1179 10.2788 74.5955 10.832 74.1807 11.508C73.7658 12.1841 73.4816 12.8755 73.3202 13.59L72.4675 17.5311H68.0654L69.502 10.7936C69.648 10.1098 69.7248 9.64118 69.7248 9.3723H69.7172Z" fill="#007BED"/>
<path d="M85.7368 17.3239C84.9378 16.9091 84.3155 16.3252 83.8776 15.5569C83.4397 14.7964 83.2246 13.9129 83.2246 12.9065C83.2246 11.4776 83.5319 10.1562 84.1388 8.92698C84.7457 7.70546 85.6369 6.72211 86.8123 5.99996C87.9877 5.27013 89.3859 4.90137 91.0069 4.90137C91.9442 4.90137 92.7816 5.09343 93.5114 5.48523C94.2413 5.87704 94.8098 6.43786 95.2246 7.17538C95.6395 7.91289 95.8469 8.79637 95.8469 9.81814H95.9698C96.0697 9.14977 96.1619 8.48139 96.2617 7.79765C96.3616 7.19842 96.4922 6.36872 96.6535 5.31622H101.079L99.619 12.1536L99.5191 12.5454C99.4192 12.9679 99.3731 13.2829 99.3885 13.4904C99.3962 13.7055 99.4884 13.8668 99.6574 13.9744C99.8264 14.0896 100.126 14.1434 100.549 14.1434L99.7419 17.9385H98.7432C97.222 17.9385 96.1465 17.7157 95.5319 17.2855C94.9173 16.8476 94.61 16.2637 94.61 15.5339C94.61 15.3572 94.6254 15.1728 94.6561 14.9731C94.6868 14.781 94.7406 14.5813 94.8021 14.3892C94.8174 14.3585 94.8328 14.3047 94.8482 14.2432H94.7253C94.0569 15.5262 93.2195 16.4635 92.1977 17.055C91.176 17.6466 89.9698 17.9385 88.5716 17.9385C87.4884 17.9385 86.5434 17.7311 85.7368 17.3162V17.3239ZM93.1811 13.5979C93.8187 13.2983 94.3027 12.9142 94.6177 12.4455C94.9327 11.9769 95.094 11.4699 95.094 10.9398C95.094 10.5172 94.9634 10.1485 94.6945 9.81814C94.4256 9.49548 94.0415 9.24196 93.5268 9.06526C93.0121 8.88856 92.3821 8.79637 91.6139 8.79637C90.6075 8.79637 89.8008 8.95771 89.1785 9.28037C88.5639 9.60303 88.1183 9.99484 87.8494 10.4635C87.5806 10.9244 87.45 11.4084 87.45 11.9078C87.45 12.5531 87.7419 13.0755 88.3258 13.4673C88.9096 13.8591 89.7393 14.0512 90.8072 14.0512C91.7445 14.0512 92.5357 13.8975 93.1811 13.5979Z" fill="#007BED"/>
</svg>
