<svg width="61" height="33" viewBox="0 0 61 33" fill="none" xmlns="http://www.w3.org/2000/svg">
<path d="M8.70362 5.62277C8.84767 5.11116 8.98675 4.59954 9.13079 4.08793C9.88579 3.7899 10.6507 3.50678 11.4157 3.23856C11.2716 3.43227 11.1226 3.63096 10.9786 3.82964C10.8643 3.98859 10.7501 4.14257 10.6358 4.30648C11.1822 4.1078 11.7336 3.91408 12.2899 3.73527C12.3842 4.00349 12.4786 4.27171 12.568 4.54491C12.6773 4.87273 12.7916 5.1956 12.9008 5.52343C12.2154 5.74198 11.5349 5.97046 10.8593 6.21385C10.8345 6.04994 10.8196 5.87609 10.7948 5.71218C10.7699 5.51349 10.7451 5.31481 10.7203 5.10619C10.6905 4.91247 10.6656 4.71875 10.6458 4.53C10.6458 4.52504 10.6458 4.52504 10.6408 4.53H10.6309C10.6259 4.53 10.6259 4.53 10.6259 4.53994C10.5862 4.8777 10.5464 5.21546 10.5067 5.54826C10.4719 5.82642 10.4371 6.10954 10.4024 6.37777C9.68711 6.64102 8.97681 6.91918 8.27148 7.21224C8.41553 6.68573 8.55958 6.15425 8.70859 5.62773L8.70362 5.62277ZM8.76323 8.51362C8.76323 8.30997 8.76323 8.11626 8.76323 7.9126C10.1341 7.35629 11.5249 6.85958 12.9257 6.41254V6.34797C12.9257 6.3132 12.9257 6.27843 12.9257 6.23869C12.9257 6.23372 12.9257 6.23372 12.9207 6.23869C11.52 6.68573 10.1341 7.18244 8.76323 7.73876V7.16257C10.8097 6.33803 12.8909 5.6327 14.9969 5.04658V5.80158C14.9969 5.89596 14.9969 5.99033 14.9969 6.08968C13.5813 6.48208 12.1806 6.92912 10.7948 7.43079C10.7898 7.43079 10.7898 7.43079 10.7898 7.44073V7.60961C10.7898 7.60961 10.7898 7.61458 10.7948 7.60961C11.5845 7.32649 12.3793 7.05826 13.179 6.80494C13.8396 6.59632 14.5052 6.4026 15.1758 6.21882C15.1162 6.56155 15.0516 6.90925 14.992 7.25198C12.8859 7.8381 10.8097 8.53846 8.76323 9.36797V8.52356V8.51362ZM12.9654 4.68398C12.9654 4.51014 12.9654 4.32635 12.9654 4.14754C12.9654 3.67069 12.9654 3.19882 12.9654 2.72198C13.6409 2.50839 14.3165 2.30971 14.9969 2.12096V2.80642C15.136 2.76668 15.2751 2.73191 15.4092 2.69217C15.4092 3.29816 15.4092 3.89918 15.4092 4.50517C15.2701 4.53994 15.1311 4.57967 14.9969 4.61941V4.8926C14.3165 5.08135 13.6409 5.28004 12.9654 5.49362C12.9654 5.2254 12.9654 4.95221 12.9654 4.68398Z" fill="black" fill-opacity="0.3"/>
<path d="M15.8713 5.62271C15.9209 5.22037 15.9656 4.81804 16.0153 4.42067C16.0451 4.14251 16.0749 3.85939 16.1097 3.58123C16.1097 3.57626 16.1097 3.57626 16.1047 3.58123C15.9309 3.62593 15.762 3.67063 15.5881 3.71534C15.5881 3.16896 15.5881 2.62754 15.5881 2.08116C16.3829 1.86757 17.1875 1.67386 17.9872 1.49504C17.9326 2.1358 17.878 2.77159 17.8283 3.41235C17.7439 4.3859 17.6694 5.35448 17.5849 6.32307C16.969 6.46215 16.3531 6.61613 15.7421 6.77508C15.7819 6.39261 15.8315 6.01511 15.8713 5.62768V5.62271ZM18.1065 1.46524C18.8317 1.30629 19.5618 1.16225 20.292 1.0331C20.2373 1.87751 20.1827 2.72192 20.1281 3.56633C20.0784 4.32133 20.0337 5.06639 19.984 5.82636C19.3433 5.94557 18.7025 6.07472 18.0618 6.21379C18.0916 5.87603 18.1214 5.5333 18.1462 5.19554C18.1959 4.7336 18.2356 4.27662 18.2704 3.82462C18.2952 3.57129 18.3101 3.313 18.3349 3.05968C18.3349 3.05471 18.3349 3.05471 18.33 3.05968C18.2108 3.08452 18.0866 3.11432 17.9674 3.13915C18.0121 2.58284 18.0568 2.03149 18.1065 1.47517V1.46524ZM20.4509 4.54981V0.884087C21.1215 0.764877 21.7921 0.660568 22.4676 0.566193V2.00665C22.6067 1.98679 22.7507 1.96692 22.8898 1.94705V4.03323C22.7507 4.0531 22.6067 4.07297 22.4676 4.09284V5.68728C21.7921 5.78166 21.1215 5.88596 20.4509 6.00518V4.54981Z" fill="black" fill-opacity="0.3"/>
<path d="M23.163 1.81796C23.163 1.37589 23.163 0.948717 23.163 0.511612C23.8335 0.427171 24.5041 0.352665 25.1746 0.288092V1.12753C25.1846 1.06296 25.1945 0.993421 25.2044 0.928849C25.2243 0.928849 25.2243 0.928849 25.2591 0.874211C25.3535 0.665592 25.4429 0.461941 25.5372 0.253323C26.0588 0.158948 26.4264 0.114243 26.8585 0.11921C27.3304 0.124178 27.6433 0.347697 27.6433 0.690428V1.99678C27.6433 2.27494 27.6433 2.55806 27.6433 2.84119C26.1482 2.91569 24.6531 3.0498 23.163 3.23855V1.81299V1.81796ZM23.5554 4.69888C23.5554 4.49523 23.5554 4.30152 23.5554 4.09786C25.0008 3.92402 26.4512 3.79984 27.9066 3.73527V3.67069C27.9066 3.63592 27.9066 3.60115 27.9066 3.56142C27.9066 3.55645 27.9066 3.55645 27.9016 3.55645C26.4512 3.62102 25.0008 3.7452 23.5603 3.91905C23.5603 3.72533 23.5603 3.53161 23.5603 3.34286C25.7161 3.07961 27.8817 2.94053 30.0474 2.92066V3.67566C30.0474 3.77003 30.0474 3.86441 30.0474 3.96375C28.592 3.97865 27.1416 4.04323 25.6912 4.1674C25.6863 4.1674 25.6863 4.1674 25.6863 4.17237C25.6863 4.20217 25.6863 4.22701 25.6863 4.25681C25.6863 4.28661 25.6863 4.31145 25.6863 4.34125C25.6863 4.34622 25.6863 4.34622 25.6912 4.34622C26.5158 4.27668 27.3453 4.22701 28.1698 4.19224C28.8553 4.16244 29.5407 4.14753 30.2312 4.14257C30.1666 4.4704 30.107 4.79823 30.0424 5.12606C27.8767 5.14592 25.7161 5.285 23.5603 5.54826C23.5603 5.26513 23.5603 4.98201 23.5603 4.70385L23.5554 4.69888ZM25.7409 2.17063C25.7409 2.17063 25.7459 2.17063 25.7459 2.16566C25.7459 1.94214 25.7459 1.71862 25.7459 1.49013C25.7459 1.38086 25.6366 1.34609 25.4925 1.35602C25.3634 1.36595 25.2988 1.38086 25.1796 1.40072V1.76332C25.1796 1.9173 25.1796 2.06632 25.1796 2.21533C25.3684 2.19546 25.5571 2.18056 25.7409 2.16566V2.17063ZM27.9463 2.01665C27.9463 1.8428 27.9463 1.65901 27.9463 1.4802V0.054638C28.6466 0.0248354 29.342 0.00496711 30.0424 0V0.685461C30.1865 0.685461 30.3255 0.685461 30.4696 0.685461V2.49846C30.3255 2.49846 30.1865 2.49846 30.0424 2.49846V2.77165C29.342 2.77661 28.6466 2.79648 27.9463 2.82628V2.01665Z" fill="black" fill-opacity="0.3"/>
<path d="M30.9464 3.74022C30.9961 3.35279 31.0458 2.96039 31.0905 2.57295C31.1203 2.30473 31.1501 2.02657 31.1898 1.75835C31.1898 1.75338 31.1898 1.75338 31.1848 1.75338C31.011 1.75338 30.8322 1.75338 30.6583 1.75338V0.119202C31.4779 0.119202 32.2925 0.13907 33.1121 0.17384C33.0574 0.799695 33.0028 1.42555 32.9482 2.05141C32.8637 3.00012 32.7842 3.94884 32.6998 4.89259C32.074 4.86776 31.4431 4.85782 30.8173 4.85286C30.862 4.48529 30.9067 4.11772 30.9514 3.74022H30.9464ZM33.2313 0.178807C33.9714 0.213577 34.7065 0.258281 35.4466 0.322853C35.392 1.15236 35.3373 1.98187 35.2827 2.81137C35.233 3.55147 35.1883 4.28661 35.1387 5.03167C34.488 4.982 33.8422 4.94226 33.1915 4.91246C33.2214 4.57966 33.2512 4.24687 33.276 3.91407C33.3257 3.46207 33.3654 3.01999 33.4051 2.57295C33.43 2.3246 33.4449 2.07624 33.4697 1.82292C33.4697 1.81795 33.4697 1.81795 33.4647 1.81795C33.3406 1.81299 33.2164 1.80802 33.0922 1.80305C33.1369 1.26164 33.1866 0.720222 33.2313 0.178807ZM35.6006 3.8793C35.6006 3.54154 35.6006 3.19881 35.6006 2.85608V0.218544C36.2761 0.278149 36.9516 0.347689 37.6272 0.43213C37.6272 0.913939 37.6272 1.39078 37.6272 1.87259C37.7663 1.88749 37.9103 1.90736 38.0494 1.92723V4.00845C37.9103 3.98858 37.7663 3.97368 37.6272 3.95381C37.6272 4.48529 37.6272 5.01677 37.6272 5.54825C36.9516 5.46381 36.2761 5.39427 35.6006 5.33466V3.8793Z" fill="black" fill-opacity="0.3"/>
<path d="M39.6585 3.55645C39.5443 3.52168 39.435 3.47201 39.3406 3.4273C38.7794 3.16405 38.4714 2.80642 38.4714 2.40905C38.4714 2.3097 38.5062 2.20043 38.5459 2.15076C38.5509 2.14579 38.5509 2.15076 38.5459 2.14579C38.4217 2.13089 38.3025 2.11102 38.1783 2.09612C38.1783 1.9024 38.1783 1.70868 38.1783 1.51C39.7579 1.71862 41.3325 1.99181 42.8921 2.32957V2.91569C42.3408 2.79648 41.7894 2.6872 41.2331 2.5829C41.7547 2.73191 42.2812 2.88589 42.8027 3.0498C42.8077 3.09451 42.8077 3.13424 42.8077 3.16901C42.8077 3.51671 42.5792 3.73526 42.2166 3.82964C41.8292 3.92898 41.2729 3.90911 40.647 3.79984C40.2844 3.73526 39.9566 3.65082 39.6635 3.55148L39.6585 3.55645ZM38.6055 0.521545C39.9665 0.710295 41.3275 0.948717 42.6785 1.23681C42.609 1.51497 42.5345 1.78816 42.465 2.06632C41.4864 1.86266 40.503 1.68385 39.5195 1.52987C39.2115 1.4802 38.9135 1.44046 38.6105 1.39576C38.6105 1.1027 38.6105 0.809638 38.6105 0.521545H38.6055ZM38.7198 4.89757C38.7198 4.70882 38.7198 4.5151 38.7198 4.32635C40.1602 4.53 41.5908 4.78829 43.0163 5.09625V5.03665C43.0163 5.00684 43.0163 4.97207 43.0163 4.9373C43.0163 4.93234 43.0163 4.93234 43.0113 4.93234C41.5907 4.61941 40.1553 4.36609 38.7198 4.16244V3.63592C40.8705 3.93892 43.0064 4.36112 45.1224 4.9075C45.1224 4.97704 45.1224 5.04658 45.1224 5.11612C45.1224 5.28003 45.1224 5.44395 45.1224 5.6029C45.1224 5.69231 45.1224 5.77675 45.1224 5.86615C43.7067 5.50355 42.2812 5.19063 40.8507 4.93234C40.8457 4.93234 40.8457 4.93234 40.8457 4.9373C40.8457 4.96214 40.8457 4.98698 40.8457 5.01678C40.8457 5.04658 40.8457 5.06645 40.8457 5.09625C40.8457 5.10122 40.8457 5.10122 40.8507 5.10122C41.6653 5.24527 42.4749 5.40918 43.2845 5.59296C43.9601 5.74198 44.6306 5.90589 45.3012 6.07974C45.2416 6.3728 45.177 6.66586 45.1174 6.96388C43.0064 6.4175 40.8705 5.9953 38.7198 5.6923V4.90253V4.89757ZM40.344 2.84118C40.4235 2.89086 40.5179 2.93059 40.6371 2.95046C40.9003 2.99517 41.0791 2.95046 41.0791 2.74681C41.0791 2.6574 41.0245 2.58786 40.9301 2.52826C40.7364 2.49349 40.5427 2.45872 40.349 2.42395C40.2844 2.44382 40.2 2.49349 40.2 2.58786C40.2 2.69714 40.2546 2.77165 40.344 2.84118ZM43.0709 3.40247C43.0709 3.21868 43.0709 3.02497 43.0709 2.84118V1.35105C43.7564 1.50007 44.4419 1.66398 45.1224 1.8428C45.1224 2.08122 45.1224 2.31467 45.1224 2.55309C45.2614 2.58786 45.4005 2.62263 45.5396 2.66237C45.5396 3.26836 45.5396 3.87931 45.5396 4.4853C45.4005 4.45053 45.2614 4.41079 45.1224 4.37602C45.1224 4.49523 45.1224 4.61444 45.1224 4.73365C44.4419 4.5598 43.7564 4.39589 43.0709 4.24191V3.40247Z" fill="black" fill-opacity="0.3"/>
<path d="M45.7484 4.39588C45.7484 4.07798 45.7484 3.77002 45.7484 3.46206C46.0762 3.46206 46.404 3.47696 46.7269 3.4869C46.7567 3.4869 46.7666 3.48193 46.7666 3.46206C46.4289 3.36272 46.0861 3.26834 45.7434 3.17894V2.10107C46.3494 2.26499 46.9504 2.43884 47.5514 2.62262C47.5514 2.98025 47.5514 3.34285 47.5514 3.70048C47.4223 3.66075 47.2981 3.62101 47.169 3.58624V4.73861C47.169 4.73861 47.169 4.74358 47.1739 4.74854C47.3428 4.79821 47.5117 4.84788 47.6806 4.90252C47.6408 5.17571 47.6061 5.4489 47.5713 5.7221C46.9653 5.53831 46.3544 5.36446 45.7434 5.19558V4.39588H45.7484ZM46.3395 6.72048C46.3395 6.45723 46.3395 6.19397 46.3395 5.93568C46.3395 5.80157 46.3395 5.66746 46.3395 5.53831C47.1094 5.75687 47.8743 5.98535 48.6343 6.23371V6.47213C48.6343 6.54167 48.6343 6.62611 48.6343 6.70062C48.6343 6.70558 48.6343 6.70558 48.6392 6.71055C50.0698 7.17746 51.4804 7.69901 52.8811 8.28016C52.8414 8.68249 52.8017 9.08483 52.7619 9.48716C50.6559 8.61792 48.5101 7.88279 46.3395 7.27183C46.3395 7.09302 46.3395 6.90923 46.3395 6.73042V6.72048ZM47.7004 4.90252C47.7004 4.53992 47.7004 4.14752 47.7004 3.78989V2.65739C48.2816 2.83621 48.8628 3.02496 49.4389 3.22364C49.4389 3.58127 49.429 3.9389 49.429 4.29654C49.2701 4.2419 49.1161 4.19223 48.9571 4.13759C48.9522 4.13759 48.9522 4.13759 48.9522 4.13759V5.29989C48.9522 5.29989 48.9522 5.30486 48.9571 5.30983C49.1707 5.37937 49.3843 5.45387 49.5979 5.52838C49.573 5.80654 49.5532 6.07973 49.5283 6.35789C48.9224 6.14927 48.3164 5.95058 47.7054 5.76183V4.90749L47.7004 4.90252ZM49.6525 4.87272C49.6525 4.31144 49.6525 3.76506 49.6525 3.20377C50.0797 3.35279 50.5019 3.5018 50.9241 3.66075V4.74854C50.9241 4.74854 50.9241 4.75351 50.9291 4.75848C51.0234 4.79325 51.1178 4.82802 51.2122 4.86279C51.2172 4.86279 51.2172 4.86279 51.2172 4.86279C51.2172 4.50019 51.2172 4.13759 51.2172 3.77996C51.7288 3.97367 52.2354 4.17236 52.7421 4.38098C52.7421 4.68397 52.7421 4.98696 52.7421 5.28996C52.7421 5.80654 52.7421 6.32312 52.7421 6.83473C52.7421 7.2172 52.7421 7.59966 52.7421 7.98213C52.2354 7.77351 51.7288 7.57483 51.2172 7.38111C51.2172 7.02348 51.2172 6.66585 51.2172 6.30821C51.2172 6.30325 51.2172 6.30325 51.2122 6.29828C51.1178 6.26351 51.0234 6.22874 50.9291 6.19397C50.9241 6.19397 50.9241 6.19397 50.9241 6.19397V7.08805C50.5019 6.9291 50.0797 6.78009 49.6525 6.63108C49.6525 6.04496 49.6525 5.45884 49.6525 4.87272Z" fill="black" fill-opacity="0.3"/>
<path d="M10.0652 23.8838C9.22079 23.5014 8.6297 22.96 8.2969 22.2546C7.95914 21.5543 7.8747 20.7198 8.02868 19.7512L11.0338 19.0459C10.9493 19.478 11.004 19.8654 11.1977 20.2181C11.3914 20.5708 11.7292 20.844 12.206 21.0427C12.6829 21.2413 13.2888 21.3407 14.024 21.3407C14.5257 21.3407 14.9528 21.291 15.2956 21.1917C15.6383 21.0923 15.8966 20.9582 16.0655 20.7893C16.2343 20.6204 16.3387 20.4367 16.3784 20.238C16.4181 20.0492 16.4082 19.8903 16.3387 19.7562C16.2691 19.627 16.1201 19.5128 15.8916 19.4184C15.6631 19.324 15.3254 19.2396 14.8833 19.1651L12.365 18.8174C11.2523 18.6584 10.4377 18.3356 9.91121 17.8488C9.3847 17.362 9.20092 16.7411 9.35987 15.9861C9.58835 14.9579 10.2341 14.1731 11.2871 13.6268C12.3401 13.0804 13.6117 12.8072 15.1018 12.8072C16.2244 12.8072 17.1781 12.9463 17.9629 13.2244C18.7477 13.5026 19.3438 13.9645 19.7461 14.6152C20.1484 15.2659 20.3024 16.1451 20.208 17.2577L17.0638 18.0922C17.2129 17.5706 17.1682 17.1435 16.9397 16.8206C16.7112 16.4978 16.3585 16.2593 15.8916 16.1103C15.4247 15.9663 14.8982 15.8918 14.3121 15.8918C13.6912 15.8918 13.2193 15.9712 12.8964 16.1352C12.5736 16.2991 12.3699 16.5375 12.3004 16.8504C12.2607 17.0292 12.2656 17.1832 12.3153 17.3074C12.3699 17.4316 12.4842 17.5408 12.663 17.6402C12.8418 17.7346 13.0951 17.8091 13.418 17.8587L15.8419 18.1866C16.7658 18.3356 17.501 18.5293 18.0424 18.7777C18.5838 19.026 18.9663 19.334 19.1749 19.7115C19.3835 20.089 19.4332 20.541 19.314 21.0625C19.1798 21.753 18.8123 22.3589 18.2113 22.8805C17.6152 23.3971 16.8801 23.7895 16.0158 24.0527C15.1515 24.316 14.2475 24.4451 13.3037 24.4451C11.9825 24.4451 10.8997 24.2564 10.0553 23.8689L10.0652 23.8838Z" fill="black" fill-opacity="0.3"/>
<path d="M21.8275 24.0079C21.3109 23.7397 20.9086 23.3622 20.6255 22.8655C20.3423 22.3738 20.2032 21.8025 20.2032 21.1518C20.2032 20.228 20.4019 19.3736 20.7943 18.5789C21.1867 17.7891 21.7629 17.1533 22.5229 16.6864C23.2829 16.2145 24.1869 15.9761 25.2349 15.9761C25.8409 15.9761 26.3823 16.1003 26.8542 16.3536C27.3261 16.6069 27.6936 16.9695 27.9619 17.4464C28.2301 17.9232 28.3642 18.4944 28.3642 19.1551H28.4437C28.5083 18.7229 28.5679 18.2908 28.6324 17.8487C28.697 17.4613 28.7814 16.9248 28.8858 16.2443H31.7468L30.8031 20.6651L30.7385 20.9184C30.6739 21.1916 30.6441 21.3952 30.654 21.5293C30.659 21.6684 30.7186 21.7727 30.8279 21.8423C30.9372 21.9168 31.1309 21.9515 31.4041 21.9515L30.8825 24.4053H30.2368C29.2533 24.4053 28.5579 24.2613 28.1606 23.9831C27.7632 23.7 27.5645 23.3225 27.5645 22.8506C27.5645 22.7364 27.5744 22.6171 27.5943 22.488C27.6142 22.3638 27.6489 22.2347 27.6887 22.1105C27.6986 22.0906 27.7085 22.0559 27.7185 22.0161H27.639C27.2069 22.8456 26.6655 23.4516 26.0048 23.8341C25.3442 24.2166 24.5644 24.4053 23.6604 24.4053C22.96 24.4053 22.349 24.2712 21.8275 24.003V24.0079ZM26.6406 21.5989C27.0529 21.4052 27.3658 21.1568 27.5695 20.8538C27.7731 20.5508 27.8774 20.223 27.8774 19.8803C27.8774 19.6071 27.793 19.3687 27.6191 19.1551C27.4453 18.9464 27.1969 18.7825 26.8641 18.6683C26.5313 18.554 26.124 18.4944 25.6273 18.4944C24.9766 18.4944 24.4551 18.5988 24.0528 18.8074C23.6554 19.016 23.3673 19.2693 23.1934 19.5723C23.0196 19.8703 22.9352 20.1833 22.9352 20.5061C22.9352 20.9234 23.1239 21.2611 23.5014 21.5144C23.8789 21.7678 24.4154 21.8919 25.1058 21.8919C25.7118 21.8919 26.2234 21.7926 26.6406 21.5989Z" fill="black" fill-opacity="0.3"/>
<path d="M33.0384 18.8671C33.0384 18.6933 32.9887 18.5741 32.8894 18.5145C32.79 18.4549 32.5963 18.4201 32.3132 18.4201L32.8298 15.9663C33.9076 15.9663 34.6875 16.0756 35.1643 16.2892C35.6411 16.5028 35.9094 16.8306 35.969 17.2727C36.0286 17.7148 35.9342 18.3207 35.6958 19.0956L35.666 19.1751L35.3183 20.3374H35.4127C35.8001 19.3291 36.2322 18.4996 36.7041 17.8439C37.176 17.1882 37.6677 16.7164 38.1744 16.4183C38.681 16.1253 39.1926 15.9763 39.7092 15.9763C40.5884 15.9763 41.1993 16.2197 41.5321 16.7064C41.8699 17.1932 41.9692 17.824 41.8302 18.5939C41.6961 19.3638 41.3782 20.1635 40.8864 20.9931L39.0287 20.8689C39.282 20.4069 39.4162 20.0195 39.4311 19.6966C39.446 19.3787 39.3565 19.1403 39.1579 18.9814C38.9592 18.8224 38.6562 18.7479 38.2439 18.7479C37.782 18.7479 37.3449 18.892 36.9376 19.1701C36.5303 19.4532 36.1925 19.8109 35.9243 20.248C35.6561 20.6851 35.4723 21.1321 35.368 21.5941L34.8166 24.1422H31.9705L32.8993 19.786C32.9937 19.344 33.0434 19.041 33.0434 18.8671H33.0384Z" fill="black" fill-opacity="0.3"/>
<path d="M43.3945 24.0079C42.8779 23.7397 42.4756 23.3622 42.1925 22.8655C41.9093 22.3738 41.7703 21.8025 41.7703 21.1518C41.7703 20.228 41.9689 19.3736 42.3614 18.5789C42.7538 17.7891 43.3299 17.1533 44.0899 16.6864C44.8499 16.2145 45.7539 15.9761 46.8019 15.9761C47.4079 15.9761 47.9493 16.1003 48.4212 16.3536C48.8931 16.6069 49.2607 16.9695 49.5289 17.4464C49.7971 17.9232 49.9312 18.4944 49.9312 19.1551H50.0107C50.0753 18.7229 50.1349 18.2908 50.1994 17.8487C50.264 17.4613 50.3485 16.9248 50.4528 16.2443H53.3138L52.3701 20.6651L52.3055 20.9184C52.2409 21.1916 52.2111 21.3952 52.2211 21.5293C52.226 21.6684 52.2856 21.7727 52.3949 21.8423C52.5042 21.9168 52.6979 21.9515 52.9711 21.9515L52.4495 24.4053H51.8038C50.8203 24.4053 50.1249 24.2613 49.7276 23.9831C49.3302 23.7 49.1315 23.3225 49.1315 22.8506C49.1315 22.7364 49.1415 22.6171 49.1613 22.488C49.1812 22.3638 49.216 22.2347 49.2557 22.1105C49.2656 22.0906 49.2756 22.0559 49.2855 22.0161H49.206C48.7739 22.8456 48.2325 23.4516 47.5718 23.8341C46.9112 24.2166 46.1314 24.4053 45.2274 24.4053C44.527 24.4053 43.9161 24.2712 43.3945 24.003V24.0079ZM48.2076 21.5989C48.6199 21.4052 48.9328 21.1568 49.1365 20.8538C49.3401 20.5508 49.4444 20.223 49.4444 19.8803C49.4444 19.6071 49.36 19.3687 49.1862 19.1551C49.0123 18.9464 48.7639 18.7825 48.4312 18.6683C48.0984 18.554 47.6911 18.4944 47.1943 18.4944C46.5437 18.4944 46.0221 18.5988 45.6198 18.8074C45.2224 19.016 44.9343 19.2693 44.7605 19.5723C44.5866 19.8703 44.5022 20.1833 44.5022 20.5061C44.5022 20.9234 44.6909 21.2611 45.0684 21.5144C45.4459 21.7678 45.9824 21.8919 46.6728 21.8919C47.2788 21.8919 47.7904 21.7926 48.2076 21.5989Z" fill="black" fill-opacity="0.3"/>
<path d="M30.5343 30.5099C45.7704 30.5099 58.1217 25.4773 58.1217 19.2693C58.1217 13.0613 45.7704 8.02875 30.5343 8.02875C15.2983 8.02875 2.94702 13.0613 2.94702 19.2693C2.94702 25.4773 15.2983 30.5099 30.5343 30.5099Z" stroke="black" stroke-opacity="0.3" stroke-miterlimit="10"/>
<path d="M30.5344 32C46.8458 32 60.0688 26.3003 60.0688 19.2693C60.0688 12.2383 46.8458 6.53859 30.5344 6.53859C14.223 6.53859 1 12.2383 1 19.2693C1 26.3003 14.223 32 30.5344 32Z" stroke="black" stroke-opacity="0.3" stroke-width="0.4" stroke-miterlimit="10"/>
</svg>
