<svg width="121" height="64" viewBox="0 0 121 64" fill="none" xmlns="http://www.w3.org/2000/svg">
<path d="M15.6451 26.919H23.2828C23.9691 30.1054 24.577 33.5173 25.1162 37.145C25.6554 40.7726 25.9986 44.0179 26.1359 46.8808H26.3221C27.4987 44.3512 28.9791 41.5472 30.7635 38.4686C32.5479 35.39 34.5676 31.9781 36.8521 28.2524L37.656 26.919H45.2643L40.6366 48.6161H34.401L36.7932 37.4097C36.9403 36.5861 37.0972 35.8606 37.2737 35.2527C37.4501 34.6449 37.607 34.135 37.7541 33.7134C37.7933 33.5468 37.8619 33.3899 37.9404 33.2428H37.7247L28.6262 48.6161H23.0671L20.5179 33.2428H20.3611C20.3415 33.4095 20.3218 33.5958 20.3022 33.8017C20.1944 34.7527 19.9983 35.9586 19.714 37.3999L17.3217 48.6063H11.0469L15.6451 26.9092V26.919Z" fill="#EF2B00"/>
<path d="M47.7646 48.3513C46.745 47.8218 45.9508 47.0767 45.392 46.0963C44.8331 45.1256 44.5586 43.9981 44.5586 42.7138C44.5586 40.8901 44.9508 39.2038 45.7253 37.6351C46.4999 36.0762 47.6372 34.8212 49.1373 33.8996C50.6373 32.9682 52.4217 32.4976 54.4905 32.4976C55.6866 32.4976 56.7553 32.7427 57.6867 33.2427C58.6181 33.7427 59.3436 34.4584 59.8731 35.3997C60.4025 36.3409 60.6672 37.4684 60.6672 38.7724H60.8241C60.9516 37.9194 61.0692 37.0664 61.1967 36.1938C61.3241 35.4291 61.4908 34.3702 61.6967 33.027H67.344L65.4812 41.7529L65.3537 42.2529C65.2263 42.7922 65.1773 43.1942 65.1871 43.4589C65.1871 43.7334 65.3145 43.9393 65.5302 44.0766C65.7459 44.2236 66.1283 44.2923 66.6675 44.2923L65.6479 49.1356H64.3733C62.4222 49.1356 61.0594 48.8513 60.2751 48.3023C59.4907 47.7434 59.0985 46.9983 59.0985 46.0669C59.0985 45.8414 59.1181 45.606 59.1574 45.3511C59.1966 45.106 59.2652 44.8511 59.3436 44.606C59.3632 44.5668 59.3829 44.4982 59.4025 44.4197H59.2456C58.3926 46.0571 57.3239 47.2532 56.0199 48.0081C54.716 48.7631 53.1767 49.1356 51.3923 49.1356C50.0098 49.1356 48.8039 48.8709 47.7744 48.3415L47.7646 48.3513ZM57.2651 43.5961C58.0789 43.2138 58.6965 42.7236 59.0985 42.1255C59.5005 41.5274 59.7064 40.8803 59.7064 40.2038C59.7064 39.6646 59.5397 39.194 59.1966 38.7724C58.8534 38.3606 58.3534 38.037 57.7063 37.8115C57.0592 37.586 56.2454 37.4684 55.265 37.4684C53.9806 37.4684 52.9414 37.6743 52.157 38.0861C51.3727 38.4979 50.804 38.9979 50.4608 39.5959C50.1177 40.194 49.951 40.8019 49.951 41.4392C49.951 42.2627 50.3236 42.9294 51.0687 43.4295C51.8139 43.9295 52.8727 44.1746 54.2355 44.1746C55.4317 44.1746 56.4415 43.9785 57.2651 43.5961Z" fill="#EF2B00"/>
<path d="M69.8814 38.2038C69.8814 37.8606 69.7833 37.6253 69.5873 37.5077C69.3912 37.39 69.0088 37.3214 68.4499 37.3214L69.4696 32.478C71.5972 32.478 73.1364 32.6937 74.0777 33.1153C75.0189 33.5369 75.5483 34.184 75.666 35.0566C75.7836 35.9292 75.5974 37.1253 75.1267 38.6548L75.0679 38.8117L74.3816 41.1059H74.5679C75.3326 39.1156 76.1856 37.4783 77.117 36.1841C78.0485 34.8899 79.0191 33.9585 80.0191 33.3702C81.0192 32.7918 82.029 32.4976 83.0487 32.4976C84.7841 32.4976 85.99 32.9781 86.6469 33.9389C87.3038 34.8997 87.5097 36.1449 87.2352 37.6646C86.9705 39.1842 86.343 40.7627 85.3723 42.4001L81.7055 42.155C82.2055 41.2432 82.4702 40.4784 82.4997 39.8411C82.5291 39.2137 82.3526 38.743 81.9604 38.4293C81.5682 38.1156 80.9702 37.9685 80.1564 37.9685C79.2446 37.9685 78.3916 38.2528 77.5778 38.8019C76.7739 39.3607 76.1072 40.0666 75.5777 40.9294C75.0483 41.7922 74.6855 42.6746 74.4796 43.5864L73.3914 48.6161H67.7734L69.6069 40.0176C69.7931 39.145 69.8912 38.547 69.8912 38.2038H69.8814Z" fill="#EF2B00"/>
<path d="M90.3232 48.3513C89.3036 47.8218 88.5094 47.0767 87.9506 46.0963C87.3917 45.1256 87.1172 43.9981 87.1172 42.7138C87.1172 40.8901 87.5094 39.2038 88.2839 37.6351C89.0585 36.0762 90.1958 34.8212 91.6959 33.8996C93.1959 32.9682 94.9803 32.4976 97.0491 32.4976C98.2452 32.4976 99.3139 32.7427 100.245 33.2427C101.177 33.7427 101.902 34.4584 102.432 35.3997C102.961 36.3409 103.226 37.4684 103.226 38.7724H103.383C103.51 37.9194 103.628 37.0664 103.755 36.1938C103.883 35.4291 104.049 34.3702 104.255 33.027H109.903L108.04 41.7529L107.912 42.2529C107.785 42.7922 107.736 43.1942 107.746 43.4589C107.746 43.7334 107.873 43.9393 108.089 44.0766C108.305 44.2236 108.687 44.2923 109.226 44.2923L108.206 49.1356H106.932C104.981 49.1356 103.618 48.8513 102.834 48.3023C102.049 47.7434 101.657 46.9983 101.657 46.0669C101.657 45.8414 101.677 45.606 101.716 45.3511C101.755 45.106 101.824 44.8511 101.902 44.606C101.922 44.5668 101.941 44.4982 101.961 44.4197H101.804C100.951 46.0571 99.8825 47.2532 98.5785 48.0081C97.2746 48.7631 95.7353 49.1356 93.9509 49.1356C92.5684 49.1356 91.3625 48.8709 90.333 48.3415L90.3232 48.3513ZM99.8237 43.5961C100.637 43.2138 101.255 42.7236 101.657 42.1255C102.059 41.5274 102.265 40.8803 102.265 40.2038C102.265 39.6646 102.098 39.194 101.755 38.7724C101.412 38.3606 100.912 38.037 100.265 37.8115C99.6178 37.586 98.804 37.4684 97.8236 37.4684C96.5392 37.4684 95.5 37.6743 94.7156 38.0861C93.9312 38.4979 93.3626 38.9979 93.0194 39.5959C92.6763 40.194 92.5096 40.8019 92.5096 41.4392C92.5096 42.2627 92.8822 42.9294 93.6273 43.4295C94.3724 43.9295 95.4313 44.1746 96.7941 44.1746C97.9903 44.1746 99.0001 43.9785 99.8237 43.5961Z" fill="#EF2B00"/>
<path d="M99.1342 7.03986V3.45917C99.1342 2.3182 99.1342 1.20151 99.1342 0.0605469H101.792V2.26965C101.792 2.28179 101.792 2.28179 101.805 2.28179H102.399C102.411 2.28179 102.411 2.28179 102.411 2.26965V0.0605469H105.628V1.91765C105.628 2.97365 105.628 4.01751 105.628 5.06137V7.40399H102.411V5.21917C102.411 5.20703 102.411 5.20703 102.399 5.20703H101.805C101.792 5.20703 101.792 5.20703 101.792 5.21917V7.03986H99.1342ZM91.0625 6.55434V4.92786C91.0625 4.28455 91.0625 3.65338 91.0625 3.0222L93.0774 2.51241C93.1381 2.50027 93.1624 2.476 93.1624 2.43958H91.0625V0.242616H94.7888V2.43958H93.9999V4.80648C93.9999 4.81862 93.9999 4.81862 94.012 4.81862H95.0559L94.8253 6.55434H91.0625ZM92.2763 10.4385V9.33393C92.2763 8.79986 92.2763 8.26579 92.2763 7.73172V6.91848H97.0222V7.40399C97.0222 7.54965 97.0222 7.71958 97.0222 7.86524C97.0222 7.87737 97.0222 7.87737 97.0344 7.87737H105.931L105.677 10.4385H92.2763ZM95.0802 6.55434V4.81862C95.0802 4.0782 95.0802 3.2771 95.0802 2.54882V0.242616H98.6851L98.6608 2.43958H97.6777C97.6655 2.43958 97.6655 2.43958 97.6655 2.45172V4.80648C97.6655 4.81862 97.6655 4.81862 97.6777 4.81862H99.0129L98.8672 6.55434H95.0802Z" fill="#EF2B00"/>
<path d="M80.6836 6.03255C79.9553 6.03255 79.2877 5.97186 78.693 5.86262C78.4623 5.82621 78.2439 5.76552 78.0497 5.70483C76.9208 5.34069 76.3018 4.69738 76.3018 3.88414C76.3018 3.67779 76.3746 3.44717 76.4474 3.33793C76.4596 3.32579 76.4596 3.32579 76.4474 3.32579H75.707V2.13628H85.2353V3.32579H81.8731L85.0532 3.64138C85.0654 3.72635 85.0654 3.81131 85.0654 3.88414C85.0654 4.58814 84.6041 5.13435 83.8637 5.48635C83.0748 5.85048 81.9459 6.03255 80.6836 6.03255ZM76.5688 1.78428V0H84.7983L84.3614 1.78428H78.4017C77.7826 1.78428 77.1757 1.78428 76.5688 1.78428ZM76.7994 10.4993V8.88497C76.7994 8.49655 76.7994 8.10814 76.7994 7.71973H85.4902V7.59835C85.4902 7.53766 85.4902 7.46483 85.4902 7.392C85.4902 7.37986 85.4902 7.37986 85.4781 7.37986H76.7994V6.31172H89.787V6.73655V7.73186C89.787 7.91393 89.787 8.08386 89.787 8.26593H81.0963C81.0841 8.26593 81.0841 8.26593 81.0841 8.27807V8.43586C81.0841 8.49655 81.0841 8.53297 81.0841 8.59366C81.0841 8.60579 81.0841 8.60579 81.0963 8.60579H86.0364H90.1512L89.7749 10.4993H76.7994ZM79.7854 3.71421C79.7854 3.93269 79.8946 4.06621 80.0767 4.17545C80.2345 4.24828 80.4287 4.29683 80.6714 4.29683C81.2055 4.29683 81.5697 4.1269 81.5697 3.71421C81.5697 3.53214 81.4604 3.41076 81.2662 3.32579H80.0888C79.9553 3.38648 79.7854 3.52 79.7854 3.71421ZM85.5995 5.94759V4.23614C85.5995 3.85986 85.5995 3.47145 85.5995 3.09517V0.0606896H89.787V1.5051H90.6367V5.21931H89.787V5.94759H85.5995Z" fill="#EF2B00"/>
<path d="M60.9718 9.95296C61.0568 9.20041 61.1539 8.44786 61.2389 7.68317L61.5302 5.30413C61.5909 4.75793 61.6516 4.18744 61.7244 3.64124C61.7244 3.6291 61.7244 3.6291 61.7122 3.6291H60.6562V0.303306H65.56L65.2322 4.13889C65.0623 6.08096 64.9045 8.02303 64.7346 9.95296H60.9718ZM65.5236 3.6291L65.8027 0.303306H70.2331L69.9054 5.40124C69.8082 6.91848 69.7111 8.42358 69.614 9.95296H65.7178C65.7785 9.27324 65.8391 8.59351 65.8877 7.91379C65.9848 6.99131 66.0698 6.08096 66.1426 5.17062C66.1911 4.66082 66.2276 4.15103 66.2761 3.64124C66.2761 3.6291 66.2761 3.6291 66.264 3.6291H65.5236ZM70.5487 10.4992V7.52538C70.5487 6.83351 70.5487 6.14165 70.5487 5.43765V0.0605469H74.6149V2.99793H75.4645V7.2462H74.6149V10.4992H70.5487Z" fill="#EF2B00"/>
<path d="M45.668 5.70464V2.80367C45.668 1.90547 45.668 1.03154 45.668 0.145467H49.7099V1.85691L49.7706 1.45636C49.807 1.45636 49.807 1.45636 49.8798 1.35926L50.4382 0.145467C51.482 0.0483629 52.2225 0.0119498 53.0842 0.0726394C54.031 0.145467 54.65 0.630984 54.65 1.32285V3.98105C54.65 4.55153 54.65 5.12202 54.65 5.70464H45.668ZM46.4569 10.4991V8.77554C46.4569 8.36285 46.4569 7.96229 46.4569 7.5496H55.172V7.41609C55.172 7.34326 55.172 7.27043 55.172 7.1976C55.172 7.18547 55.172 7.18547 55.1598 7.18547H46.4569V6.00809H59.4445V6.46933V7.5496C59.4445 7.74381 59.4445 7.93802 59.4445 8.13222H50.7295C50.7173 8.13222 50.7174 8.13222 50.7174 8.14436V8.31429C50.7174 8.37498 50.7174 8.42354 50.7174 8.48422C50.7174 8.49636 50.7173 8.49636 50.7295 8.49636H55.6939H59.8087L59.4324 10.4991H46.4569ZM49.7099 4.07816H50.8387C50.8509 4.07816 50.8509 4.07816 50.8509 4.06602V2.69443C50.8509 2.47595 50.6324 2.37885 50.3411 2.37885C50.0862 2.37885 49.9527 2.39098 49.7099 2.41526V3.15567C49.7099 3.47126 49.7099 3.77471 49.7099 4.07816ZM55.2569 5.70464V4.05388C55.2569 3.70188 55.2569 3.3256 55.2569 2.96147V0.0605007H59.4445V1.45636H60.2942V5.14629H59.4445V5.70464H55.2569Z" fill="#EF2B00"/>
<path d="M30.6281 9.95296C30.7131 9.20041 30.8102 8.44786 30.8951 7.68317L31.1864 5.30413C31.2471 4.75793 31.3078 4.18744 31.3806 3.64124C31.3806 3.6291 31.3806 3.6291 31.3685 3.6291H30.3125V0.303306H35.2162L34.8885 4.13889C34.7186 6.08096 34.5608 8.02303 34.3908 9.95296H30.6281ZM35.1798 3.6291L35.459 0.303306H39.8893L39.5616 5.40124C39.4645 6.91848 39.3674 8.42358 39.2703 9.95296H35.374C35.4347 9.27324 35.4954 8.59351 35.544 7.91379C35.6411 6.99131 35.726 6.08096 35.7988 5.17062C35.8474 4.66082 35.8838 4.15103 35.9324 3.64124C35.9324 3.6291 35.9324 3.6291 35.9202 3.6291H35.1798ZM40.2049 10.4992V7.52538C40.2049 6.83351 40.2049 6.14165 40.2049 5.43765V0.0605469H44.2711V2.99793H45.1208V7.2462H44.2711V10.4992H40.2049Z" fill="#EF2B00"/>
<path d="M15.0664 5.70469L15.9889 2.84013C16.2923 1.91765 16.5836 0.98303 16.8871 0.0605469H21.6816L20.7712 0.946616C20.5285 1.18938 20.2979 1.42 20.0551 1.66275H23.5023L24.0849 3.49558C24.3155 4.236 24.5461 4.96427 24.7768 5.70469H20.5285C20.4799 5.35269 20.4435 4.98855 20.395 4.63655C20.3464 4.21172 20.2857 3.78689 20.2372 3.34993C20.1765 2.93724 20.1279 2.52455 20.0794 2.124C20.0794 2.11186 20.0794 2.11186 20.0672 2.11186H20.043C20.0308 2.11186 20.0308 2.11186 20.0308 2.124L19.7759 4.09034C19.7031 4.63655 19.6303 5.18275 19.5574 5.70469H15.0664ZM16.1103 10.4992V8.77558C16.1103 8.36289 16.1103 7.96234 16.1103 7.54965H24.8253V7.41613C24.8253 7.34331 24.8253 7.27048 24.8253 7.19765C24.8253 7.18551 24.8253 7.18551 24.8132 7.18551H16.1103V6.00813H29.0979V6.46938V7.54965C29.0979 7.74386 29.0979 7.93807 29.0979 8.13227H20.3828C20.3707 8.13227 20.3707 8.13227 20.3707 8.14441V8.31434C20.3707 8.37503 20.3707 8.42358 20.3707 8.48427C20.3707 8.49641 20.3707 8.49641 20.3828 8.49641H25.3472H29.462L29.0857 10.4992H16.1103ZM24.9103 5.70469V4.05393C24.9103 3.70193 24.9103 3.32565 24.9103 2.96151V0.0605469H29.0979V1.45641H29.9475V5.14634H29.0979V5.70469H24.9103Z" fill="#EF2B00"/>
<path fill-rule="evenodd" clip-rule="evenodd" d="M119.038 62.8938V13.4704H67.1012L60.8633 18.5457L54.7257 13.4704H31.2303H1.96088V62.8938H119.038ZM0.863281 12.3639V64.0002H120.136V12.3639L66.6824 12.3638L60.8633 17.0911L55.1568 12.3639H30.6815H0.863281Z" fill="#EF2B00"/>
<path fill-rule="evenodd" clip-rule="evenodd" d="M115.746 59.6022V16.7613H68.1891L60.865 22.7753L53.6246 16.7613H5.25667V59.6022H115.746ZM3.04687 14.5454V61.8181H117.956V14.5454L67.4609 14.5454L60.865 19.8543L54.3528 14.5454H3.04687Z" fill="#EF2B00"/>
</svg>
