<svg width="100%" height="100%" viewBox="0 0 157 85" fill="none" xmlns="http://www.w3.org/2000/svg">
<g clip-path="url(#clip0_7386_28208)">
<path d="M19.3989 35.4472H29.4264C30.3276 39.6424 31.1239 44.136 31.8326 48.9104C32.5414 53.6848 32.9876 57.959 33.1714 61.7241H33.4164C34.9564 58.3978 36.9076 54.7029 39.2439 50.6482C41.5889 46.5934 44.2401 42.0998 47.2326 37.2025L48.2914 35.4472H58.2751L52.2026 64.0148H44.0214L47.1626 49.2615C47.3551 48.1732 47.5651 47.2253 47.7926 46.4179C48.0201 45.6192 48.2301 44.9434 48.4226 44.3905C48.4751 44.1711 48.5626 43.9605 48.6676 43.7674H48.3876L36.4439 64.006H29.1464L25.8039 43.7674H25.5939C25.5676 43.9868 25.5414 44.2325 25.5151 44.5046C25.3751 45.7596 25.1126 47.3482 24.7451 49.2439L21.6039 63.9972H13.3701L19.4076 35.4297L19.3989 35.4472Z" fill="#EF2B00"/>
<path d="M61.5562 63.6635C60.2174 62.9702 59.1762 61.9872 58.4412 60.6971C57.7062 59.4157 57.3474 57.9325 57.3474 56.2474C57.3474 53.8426 57.8637 51.6309 58.8787 49.5597C59.8937 47.506 61.3899 45.856 63.3587 44.6448C65.3274 43.4161 67.6724 42.8018 70.3849 42.8018C71.9512 42.8018 73.3599 43.1265 74.5762 43.7847C75.8012 44.443 76.7549 45.3821 77.4462 46.6283C78.1374 47.8658 78.4874 49.349 78.4874 51.0692H78.6974C78.8637 49.9458 79.0212 48.8224 79.1874 47.6727C79.3537 46.6634 79.5724 45.268 79.8437 43.5039H87.2549L84.8137 54.9923L84.6474 55.6506C84.4812 56.3615 84.4199 56.8881 84.4287 57.2391C84.4287 57.599 84.5949 57.871 84.8749 58.0553C85.1549 58.2484 85.6624 58.3362 86.3712 58.3362L85.0324 64.7167H83.3612C80.7974 64.7167 79.0124 64.3393 77.9799 63.6196C76.9474 62.8824 76.4399 61.8994 76.4399 60.6795C76.4399 60.3811 76.4662 60.0739 76.5187 59.7404C76.5712 59.4157 76.6587 59.0822 76.7637 58.7575C76.7899 58.7048 76.8162 58.617 76.8424 58.5117H76.6324C75.5124 60.6707 74.1124 62.2417 72.3974 63.2335C70.6824 64.2252 68.6699 64.7167 66.3249 64.7167C64.5137 64.7167 62.9299 64.3656 61.5737 63.6723H61.5649L61.5562 63.6635ZM74.0249 57.3971C75.0924 56.8968 75.9062 56.2474 76.4312 55.4575C76.9562 54.6676 77.2274 53.8163 77.2274 52.9299C77.2274 52.219 77.0087 51.6046 76.5624 51.0429C76.1162 50.4988 75.4599 50.0775 74.6024 49.7791C73.7537 49.4807 72.6862 49.3315 71.3999 49.3315C69.7112 49.3315 68.3462 49.6036 67.3224 50.1477C66.2899 50.6918 65.5462 51.3501 65.0999 52.1312C64.6537 52.9211 64.4349 53.7197 64.4349 54.5535C64.4349 55.6418 64.9249 56.5194 65.9049 57.1777C66.8849 57.8359 68.2762 58.1607 70.0612 58.1607C71.6274 58.1607 72.9574 57.9061 74.0337 57.3971H74.0249Z" fill="#EF2B00"/>
<path d="M90.5889 50.3056C90.5889 49.858 90.4576 49.5421 90.2039 49.3929C89.9501 49.2349 89.4426 49.1471 88.7076 49.1471L90.0464 42.7754C92.8376 42.7754 94.8589 43.0562 96.0926 43.6179C97.3264 44.1796 98.0264 45.0222 98.1751 46.1719C98.3326 47.3216 98.0876 48.8926 97.4664 50.9112L97.3876 51.1219L96.4864 54.141H96.7314C97.7376 51.5168 98.8576 49.3666 100.074 47.6639C101.299 45.9613 102.568 44.7326 103.88 43.9602C105.193 43.1967 106.514 42.8105 107.853 42.8105C110.128 42.8105 111.711 43.4424 112.578 44.7062C113.444 45.97 113.706 47.6112 113.348 49.6123C112.998 51.6133 112.175 53.6934 110.906 55.8436L106.094 55.5189C106.75 54.3165 107.1 53.316 107.135 52.4734C107.17 51.6484 106.943 51.0253 106.426 50.6128C105.91 50.2003 105.123 50.0072 104.055 50.0072C102.856 50.0072 101.736 50.3846 100.669 51.1043C99.6101 51.8415 98.7351 52.7718 98.0439 53.904C97.3526 55.0362 96.8714 56.2035 96.6001 57.4058L95.1739 64.0233H87.7976L90.2039 52.7016C90.4489 51.5519 90.5801 50.762 90.5801 50.3144H90.5714L90.5889 50.3056Z" fill="#EF2B00"/>
<path d="M117.416 63.6635C116.078 62.9702 115.036 61.9872 114.301 60.6971C113.566 59.4157 113.208 57.9325 113.208 56.2474C113.208 53.8426 113.724 51.6309 114.739 49.5597C115.754 47.506 117.25 45.856 119.219 44.6448C121.188 43.4161 123.533 42.8018 126.245 42.8018C127.811 42.8018 129.22 43.1265 130.436 43.7847C131.653 44.443 132.615 45.3821 133.306 46.6283C133.998 47.8658 134.348 49.349 134.348 51.0692H134.558C134.724 49.9458 134.881 48.8224 135.048 47.6727C135.214 46.6634 135.433 45.268 135.704 43.5039H143.115L140.674 54.9923L140.508 55.6506C140.341 56.3615 140.28 56.8881 140.289 57.2391C140.289 57.599 140.455 57.871 140.735 58.0553C141.015 58.2484 141.523 58.3362 142.231 58.3362L140.893 64.7167H139.221C136.658 64.7167 134.873 64.3393 133.84 63.6196C132.808 62.8824 132.3 61.8994 132.3 60.6795C132.3 60.3811 132.326 60.0739 132.379 59.7404C132.431 59.4157 132.519 59.0822 132.624 58.7575C132.65 58.7048 132.676 58.617 132.703 58.5117H132.493C131.373 60.6707 129.973 62.2417 128.258 63.2335C126.543 64.2252 124.53 64.7167 122.185 64.7167C120.374 64.7167 118.79 64.3656 117.434 63.6723H117.425L117.416 63.6635ZM129.885 57.3971C130.953 56.8968 131.766 56.2474 132.291 55.4575C132.816 54.6676 133.088 53.8163 133.088 52.9299C133.088 52.219 132.869 51.6046 132.423 51.0429C131.976 50.4988 131.32 50.0775 130.463 49.7791C129.614 49.4807 128.546 49.3315 127.26 49.3315C125.571 49.3315 124.206 49.6036 123.183 50.1477C122.15 50.6918 121.406 51.3501 120.96 52.1312C120.514 52.9123 120.295 53.7197 120.295 54.5535C120.295 55.6418 120.785 56.5194 121.765 57.1777C122.745 57.8359 124.136 58.1607 125.921 58.1607C127.488 58.1607 128.818 57.9061 129.894 57.3971H129.885Z" fill="#EF2B00"/>
<path fill-rule="evenodd" clip-rule="evenodd" d="M155.181 82.8053V17.745H86.975L78.785 24.4239L70.7262 17.745H1.44375V82.814H155.181V82.8053ZM0 16.2881V84.2622H156.625V16.2881H86.4325L78.7938 22.5106L71.3037 16.2881H0Z" fill="#EF2B00"/>
<path fill-rule="evenodd" clip-rule="evenodd" d="M150.859 78.4689V22.071H88.4101L78.7938 29.9874L69.2826 22.071H5.76633V78.4689H150.859ZM2.86133 19.1572V81.3915H153.755V19.1572H87.4476L78.7851 26.1433L70.2363 19.1572H2.86133Z" fill="#EF2B00"/>
<path d="M32.2787 3.28084C32.2787 4.81673 31.0887 6.37017 28.6825 6.37017C28.665 6.37017 28.665 6.38772 28.6825 6.38772C31.4475 6.38772 32.795 8.09914 32.795 9.80179C32.795 11.5044 31.4562 13.1983 28.84 13.1983H15.3037V0.261719H28.84C31.1237 0.261719 32.2787 1.7625 32.2787 3.28084ZM22.0937 6.17709H24.4475C25.0687 6.17709 25.375 5.7997 25.375 5.3872C25.375 4.97471 25.1037 4.63242 24.605 4.63242H22.0937L22.0762 4.64998V6.16831C22.0762 6.16831 22.0762 6.18586 22.0937 6.18586V6.17709ZM22.0937 8.59063H24.535C25.1562 8.59063 25.4625 8.21324 25.4625 7.80074C25.4625 7.38825 25.1912 7.03719 24.6925 7.03719H22.0937L22.0762 7.05474V8.57308C22.0762 8.57308 22.0762 8.59063 22.0937 8.59063Z" fill="#EF2B00"/>
<path d="M33.2849 5.35237V2.50878H39.2349V8.0292C39.2349 8.80154 39.6812 9.06483 40.1624 9.06483C40.4862 9.06483 40.8537 8.94196 41.0549 8.77521L39.6812 13.0318C39.0424 13.3565 38.0624 13.5847 37.0474 13.5847C35.2099 13.5847 33.2849 12.7948 33.2849 10.3286V5.36114V5.35237ZM47.0049 7.17788V13.1986H41.0549V2.5H47.0049V7.17788Z" fill="#EF2B00"/>
<path d="M53.9524 13.1986H50.7412L47.3374 2.5H53.6462L54.8712 9.88105L54.8887 9.98637L54.9062 9.8986C55.3349 7.4324 55.7462 4.9662 56.1749 2.5H62.1599L57.9949 15.261H52.1674L53.9524 13.1898V13.1986Z" fill="#EF2B00"/>
<path d="M65.7476 7.8705C65.7476 3.95617 69.2038 1.99023 73.4826 1.99023C77.7613 1.99023 81.2176 3.95617 81.2176 7.8705C81.2176 11.7848 77.7788 13.7157 73.4826 13.7157C69.1863 13.7157 65.7476 11.855 65.7476 7.8705ZM73.5001 9.14309C74.9263 9.14309 75.4601 8.4673 75.4601 7.83539C75.4601 7.24736 74.9613 6.5628 73.5001 6.5628C72.0388 6.5628 71.5051 7.23859 71.5051 7.85294C71.5051 8.4673 72.0388 9.14309 73.5001 9.14309Z" fill="#EF2B00"/>
<path d="M87.6836 8.76658V9.00354L88.5936 4.44853C89.0924 1.96478 92.5661 1.72781 93.6336 2.57036L92.3299 8.98599C91.0261 7.91525 88.2174 8.21366 87.6836 9.0562V13.1987H81.7336V2.50015H87.6836V8.7578V8.76658Z" fill="#EF2B00"/>
<path d="M114.354 6.73001V13.1983H106.391L104.221 6.98453C104.221 6.98453 104.186 6.96697 104.186 6.98453V13.1983H97.5625V0.261719H105.263L107.686 7.42335C107.686 7.42335 107.721 7.42335 107.721 7.4058V0.261719H114.345V6.73001H114.354Z" fill="#EF2B00"/>
<path d="M114.861 7.8705C114.861 3.95617 118.318 1.99023 122.596 1.99023C126.875 1.99023 130.331 3.95617 130.331 7.8705C130.331 11.7848 126.893 13.7157 122.596 13.7157C118.3 13.7157 114.861 11.855 114.861 7.8705ZM122.623 9.14309C124.049 9.14309 124.583 8.4673 124.583 7.83539C124.583 7.24736 124.084 6.5628 122.623 6.5628C121.161 6.5628 120.628 7.23859 120.628 7.85294C120.628 8.4673 121.161 9.14309 122.623 9.14309Z" fill="#EF2B00"/>
<path d="M130.883 2.47357L136.763 1.06055V7.11634C136.763 7.97644 137.568 8.42404 138.758 8.42404C139.755 8.42404 140.928 7.94133 141.321 7.19533V12.4349C140.341 13.2072 138.618 13.5934 137.078 13.5934C133.516 13.5934 130.883 11.8206 130.883 8.69611V2.47357ZM137.97 2.49989H141.321V7.19533H136.78L137.97 2.49989Z" fill="#EF2B00"/>
</g>
<defs>
<clipPath id="clip0_7386_28208">
<rect width="156.625" height="84" fill="white" transform="translate(0 0.261719)"/>
</clipPath>
</defs>
</svg>
