<svg width="100%" height="100%" viewBox="0 0 81 18" fill="none" xmlns="http://www.w3.org/2000/svg">
<path d="M4.43386 0.00791826H10.6207C11.1766 2.58909 11.669 5.35296 12.1059 8.29154C12.5427 11.2301 12.8206 13.859 12.9319 16.178H13.0827C14.0358 14.129 15.235 11.8575 16.6805 9.36369C18.1259 6.86991 19.762 4.10604 21.6126 1.08806L22.2638 0.00791826H28.4267L24.6779 17.5838H19.627L21.5649 8.50599C21.684 7.83883 21.8111 7.25115 21.9541 6.75869C22.097 6.26632 22.2241 5.85334 22.3432 5.51184C22.3749 5.37679 22.4306 5.24974 22.4941 5.1306H22.3194L14.9491 17.5838H10.446L8.38103 5.1306H8.25397C8.23806 5.26557 8.22223 5.41653 8.20632 5.58332C8.11893 6.35371 7.96013 7.33054 7.72977 8.498L5.79193 17.5758H0.708984L4.43386 0V0.00791826Z" fill="currentColor"/>
<path d="M30.4496 17.3648C29.6243 16.9359 28.9804 16.3323 28.5278 15.5381C28.0751 14.7519 27.8525 13.8385 27.8525 12.7981C27.8525 11.3208 28.1707 9.95483 28.7982 8.68407C29.4256 7.42131 30.3465 6.40473 31.5618 5.65817C32.7771 4.90362 34.2224 4.52246 35.8985 4.52246C36.8673 4.52246 37.733 4.721 38.4874 5.12606C39.2418 5.53104 39.8296 6.11081 40.2583 6.87328C40.6871 7.63575 40.9014 8.5491 40.9014 9.60534H41.0292C41.1322 8.91442 41.2271 8.22344 41.3309 7.51662C41.434 6.89711 41.5692 6.03941 41.7358 4.95128H46.31L44.8012 12.0197L44.6981 12.4248C44.595 12.8616 44.5554 13.1873 44.5629 13.4017C44.5629 13.6241 44.666 13.7908 44.8408 13.902C45.0155 14.0211 45.3255 14.0768 45.7625 14.0768L44.9364 18.0001H43.9041C42.3236 18.0001 41.2196 17.7698 40.584 17.325C39.9484 16.8724 39.6309 16.2688 39.6309 15.5142C39.6309 15.3316 39.6466 15.141 39.6787 14.9345C39.7101 14.7359 39.7661 14.5294 39.8296 14.3309C39.8453 14.2991 39.861 14.2436 39.8774 14.18H39.7504C39.0595 15.5063 38.1938 16.4752 37.1369 17.0868C36.0807 17.6984 34.8341 18.0001 33.3888 18.0001C32.2684 18.0001 31.2922 17.7857 30.4578 17.3569L30.4496 17.3648ZM38.146 13.5128C38.8048 13.2032 39.3053 12.806 39.6309 12.3216C39.9566 11.8371 40.1231 11.3129 40.1231 10.7649C40.1231 10.3281 39.9887 9.94691 39.7101 9.60534C39.4322 9.27183 39.0274 9.00973 38.503 8.82703C37.9787 8.64441 37.3199 8.5491 36.5259 8.5491C35.4854 8.5491 34.6436 8.71581 34.008 9.04939C33.3724 9.38297 32.9123 9.78804 32.6337 10.2725C32.3558 10.757 32.2213 11.2493 32.2213 11.7656C32.2213 12.4328 32.5231 12.9728 33.1266 13.3779C33.7301 13.7829 34.5876 13.9815 35.6916 13.9815C36.6604 13.9815 37.479 13.8226 38.146 13.5128Z" fill="currentColor"/>
<path d="M48.3686 9.14303C48.3686 8.86503 48.2887 8.67441 48.1303 8.5791C47.9712 8.48379 47.6613 8.42822 47.2086 8.42822L48.0347 4.50488C49.7587 4.50488 51.0053 4.67959 51.7679 5.02109C52.5298 5.36259 52.9593 5.88678 53.0541 6.59361C53.1497 7.30043 52.9989 8.26942 52.6172 9.50836L52.5701 9.63541L52.0136 11.4939H52.1645C52.7845 9.8816 53.4754 8.55527 54.2298 7.50695C54.9842 6.45863 55.7707 5.70408 56.5804 5.22754C57.3908 4.75899 58.2087 4.52072 59.0348 4.52072C60.4405 4.52072 61.4175 4.90987 61.9493 5.68825C62.4812 6.46655 62.6485 7.47521 62.4259 8.70623C62.2115 9.93725 61.7029 11.2159 60.9171 12.5422L57.9465 12.3436C58.3514 11.6051 58.5657 10.9856 58.5896 10.4694C58.6135 9.96107 58.4709 9.57984 58.1534 9.32566C57.8352 9.07155 57.3512 8.95242 56.6917 8.95242C55.953 8.95242 55.2621 9.1827 54.6033 9.62749C53.9519 10.0802 53.4119 10.652 52.9832 11.3509C52.5537 12.0498 52.2601 12.7646 52.0936 13.5033L51.2114 17.5775H46.6611L48.146 10.6123C48.2969 9.90543 48.3761 9.42097 48.3761 9.14303H48.3686Z" fill="currentColor"/>
<path d="M64.9301 17.3648C64.104 16.9359 63.4609 16.3323 63.0082 15.5381C62.5556 14.7519 62.333 13.8385 62.333 12.7981C62.333 11.3208 62.6512 9.95483 63.2786 8.68407C63.906 7.42131 64.827 6.40473 66.0423 5.65817C67.2575 4.90362 68.7028 4.52246 70.3782 4.52246C71.3477 4.52246 72.2134 4.721 72.9678 5.12606C73.7222 5.53104 74.3101 6.11081 74.7388 6.87328C75.1675 7.63575 75.3819 8.5491 75.3819 9.60534H75.5089C75.612 8.91442 75.7076 8.22344 75.8106 7.51662C75.9137 6.89711 76.0489 6.03941 76.2162 4.95128H80.7905L79.2816 12.0197L79.1786 12.4248C79.0747 12.8616 79.0352 13.1873 79.0434 13.4017C79.0434 13.6241 79.1464 13.7908 79.3212 13.902C79.496 14.0211 79.806 14.0768 80.2422 14.0768L79.4168 18.0001H78.3838C76.8033 18.0001 75.6994 17.7698 75.0645 17.325C74.4288 16.8724 74.1114 16.2688 74.1114 15.5142C74.1114 15.3316 74.1271 15.141 74.1592 14.9345C74.1906 14.7359 74.2466 14.5294 74.3101 14.3309C74.3257 14.2991 74.3414 14.2436 74.3571 14.18H74.2301C73.5392 15.5063 72.6735 16.4752 71.6174 17.0868C70.5612 17.6984 69.3146 18.0001 67.8685 18.0001C66.7489 18.0001 65.7719 17.7857 64.9383 17.3569L64.9301 17.3648ZM72.6257 13.5128C73.2853 13.2032 73.7857 12.806 74.1114 12.3216C74.437 11.8371 74.6036 11.3129 74.6036 10.7649C74.6036 10.3281 74.4684 9.94691 74.1906 9.60534C73.9127 9.27183 73.5079 9.00973 72.9835 8.82703C72.4592 8.64441 71.8004 8.5491 71.0056 8.5491C69.9652 8.5491 69.1234 8.71581 68.4885 9.04939C67.8528 9.38297 67.392 9.78804 67.1141 10.2725C66.8363 10.757 66.7011 11.2493 66.7011 11.7656C66.7011 12.4328 67.0028 12.9728 67.6063 13.3779C68.2106 13.7829 69.0681 13.9815 70.1721 13.9815C71.1408 13.9815 71.9587 13.8226 72.6257 13.5128Z" fill="currentColor"/>
</svg>
