<svg width="100%" height="100%" viewBox="0 0 157 85" fill="none" xmlns="http://www.w3.org/2000/svg">
<g clip-path="url(#clip0_7386_28203)">
<path d="M19.3989 36.8032H29.4264C30.3276 40.9948 31.1239 45.4847 31.8326 50.2551C32.5414 55.0255 32.9876 59.2961 33.1714 63.0581H33.4164C34.9564 59.7346 36.9076 56.0428 39.2439 51.9914C41.5889 47.94 44.2401 43.4502 47.2326 38.557L48.2914 36.8032H58.2751L52.2026 65.3469H44.0214L47.1626 50.6059C47.3551 49.5185 47.5651 48.5714 47.7926 47.7647C48.0201 46.9667 48.2301 46.2914 48.4226 45.739C48.4751 45.5197 48.5626 45.3093 48.6676 45.1164H48.3876L36.4439 65.3381H29.1464L25.8039 45.1164H25.5939C25.5676 45.3356 25.5414 45.5811 25.5151 45.853C25.3751 47.107 25.1126 48.6942 24.7451 50.5883L21.6039 65.3293H13.3701L19.4076 36.7856L19.3989 36.8032Z" fill="#EF2B00"/>
<path d="M61.5564 64.9869C60.2177 64.2942 59.1764 63.312 58.4414 62.0229C57.7064 60.7426 57.3477 59.2606 57.3477 57.577C57.3477 55.1742 57.8639 52.9644 58.8789 50.8948C59.8939 48.8429 61.3902 47.1943 63.3589 45.9841C65.3277 44.7564 67.6727 44.1426 70.3852 44.1426C71.9514 44.1426 73.3602 44.467 74.5764 45.1247C75.8014 45.7824 76.7552 46.7207 77.4464 47.9659C78.1377 49.2024 78.4877 50.6844 78.4877 52.4031H78.6977C78.8639 51.2807 79.0214 50.1582 79.1877 49.0095C79.3539 48.001 79.5727 46.6067 79.8439 44.8441H87.2552L84.8139 56.323L84.6477 56.9807C84.4814 57.691 84.4202 58.2171 84.4289 58.5679C84.4289 58.9274 84.5952 59.1993 84.8752 59.3834C85.1552 59.5763 85.6627 59.664 86.3714 59.664L85.0327 66.0392H83.3614C80.7977 66.0392 79.0127 65.6622 77.9802 64.9431C76.9477 64.2065 76.4402 63.2243 76.4402 62.0054C76.4402 61.7073 76.4664 61.4003 76.5189 61.0671C76.5714 60.7426 76.6589 60.4094 76.7639 60.085C76.7902 60.0323 76.8164 59.9446 76.8427 59.8394H76.6327C75.5127 61.9966 74.1127 63.5663 72.3977 64.5572C70.6827 65.5482 68.6702 66.0392 66.3252 66.0392C64.5139 66.0392 62.9302 65.6885 61.5739 64.9957H61.5652L61.5564 64.9869ZM74.0252 58.7345C75.0927 58.2347 75.9064 57.5857 76.4314 56.7965C76.9564 56.0073 77.2277 55.1567 77.2277 54.271C77.2277 53.5607 77.0089 52.9468 76.5627 52.3856C76.1164 51.8419 75.4602 51.421 74.6027 51.1228C73.7539 50.8247 72.6864 50.6756 71.4002 50.6756C69.7114 50.6756 68.3464 50.9475 67.3227 51.4912C66.2902 52.0348 65.5464 52.6925 65.1002 53.473C64.6539 54.2622 64.4352 55.0602 64.4352 55.8933C64.4352 56.9807 64.9252 57.8576 65.9052 58.5153C66.8852 59.173 68.2764 59.4974 70.0614 59.4974C71.6277 59.4974 72.9577 59.2431 74.0339 58.7345H74.0252Z" fill="#EF2B00"/>
<path d="M90.5889 51.6407C90.5889 51.1934 90.4576 50.8777 90.2039 50.7287C89.9501 50.5708 89.4426 50.4831 88.7076 50.4831L90.0464 44.1167C92.8376 44.1167 94.8589 44.3973 96.0926 44.9585C97.3264 45.5198 98.0264 46.3616 98.1751 47.5104C98.3326 48.6591 98.0876 50.2288 97.4664 52.2457L97.3876 52.4562L96.4864 55.4728H96.7314C97.7376 52.8508 98.8576 50.7024 100.074 49.0011C101.299 47.2999 102.568 46.0722 103.88 45.3005C105.193 44.5376 106.514 44.1518 107.853 44.1518C110.128 44.1518 111.711 44.7832 112.578 46.0459C113.444 47.3087 113.706 48.9485 113.348 50.9479C112.998 52.9473 112.175 55.0256 110.906 57.174L106.094 56.8496C106.75 55.6482 107.1 54.6485 107.135 53.8066C107.17 52.9823 106.943 52.3597 106.426 51.9476C105.91 51.5354 105.123 51.3425 104.055 51.3425C102.856 51.3425 101.736 51.7196 100.669 52.4387C99.6101 53.1753 98.7351 54.1048 98.0439 55.236C97.3526 56.3672 96.8714 57.5336 96.6001 58.7349L95.1739 65.3469H87.7976L90.2039 54.0346C90.4489 52.8859 90.5801 52.0967 90.5801 51.6494H90.5714L90.5889 51.6407Z" fill="#EF2B00"/>
<path d="M117.417 64.9869C116.078 64.2942 115.037 63.312 114.302 62.0229C113.567 60.7426 113.208 59.2606 113.208 57.577C113.208 55.1742 113.724 52.9644 114.739 50.8948C115.754 48.8429 117.25 47.1943 119.219 45.9841C121.188 44.7564 123.533 44.1426 126.245 44.1426C127.812 44.1426 129.22 44.467 130.437 45.1247C131.653 45.7824 132.615 46.7207 133.307 47.9659C133.998 49.2024 134.348 50.6844 134.348 52.4031H134.558C134.724 51.2807 134.882 50.1582 135.048 49.0095C135.214 48.001 135.433 46.6067 135.704 44.8441H143.115L140.674 56.323L140.508 56.9807C140.342 57.691 140.28 58.2171 140.289 58.5679C140.289 58.9274 140.455 59.1993 140.735 59.3834C141.015 59.5763 141.523 59.664 142.232 59.664L140.893 66.0392H139.222C136.658 66.0392 134.873 65.6622 133.84 64.9431C132.808 64.2065 132.3 63.2243 132.3 62.0054C132.3 61.7073 132.327 61.4003 132.379 61.0671C132.432 60.7426 132.519 60.4094 132.624 60.085C132.65 60.0323 132.677 59.9446 132.703 59.8394H132.493C131.373 61.9966 129.973 63.5663 128.258 64.5572C126.543 65.5482 124.53 66.0392 122.185 66.0392C120.374 66.0392 118.79 65.6885 117.434 64.9957H117.425L117.417 64.9869ZM129.885 58.7345C130.953 58.2347 131.767 57.5857 132.292 56.7965C132.817 56.0073 133.088 55.1567 133.088 54.271C133.088 53.5607 132.869 52.9468 132.423 52.3856C131.977 51.8419 131.32 51.421 130.463 51.1228C129.614 50.8247 128.547 50.6756 127.26 50.6756C125.572 50.6756 124.207 50.9475 123.183 51.4912C122.15 52.0348 121.407 52.6925 120.96 53.473C120.514 54.2534 120.295 55.0602 120.295 55.8933C120.295 56.9807 120.785 57.8576 121.765 58.5153C122.745 59.173 124.137 59.4974 125.922 59.4974C127.488 59.4974 128.818 59.2431 129.894 58.7345H129.885Z" fill="#EF2B00"/>
<path fill-rule="evenodd" clip-rule="evenodd" d="M155.181 82.9028V22.0008H86.975L78.785 28.2533L70.7262 22.0008H1.44375V82.9028H155.181ZM0 20.6416V84.2708H156.625V20.6416H86.4325L78.7938 26.4643L71.3037 20.6416H0Z" fill="#EF2B00"/>
<path fill-rule="evenodd" clip-rule="evenodd" d="M150.859 78.8429V26.0612H88.4101L78.7938 33.4711L69.2826 26.0612H5.76633V78.8517H150.859V78.8429ZM2.86133 23.3252V81.5701H153.755V23.3252H87.4476L78.7851 29.867L70.2363 23.3252H2.86133Z" fill="#EF2B00"/>
<path d="M28.7261 5.11147C29.4611 5.35701 29.9599 5.81301 30.2311 6.46193C30.5024 7.11962 30.6424 8.1193 30.6424 9.4873C30.6424 11.2324 30.6161 12.539 30.5636 13.3984C30.5111 14.2577 30.4061 14.9154 30.2574 15.3714C30.1086 15.8274 29.8724 16.222 29.5486 16.5728C29.1986 16.9499 28.5686 17.2393 27.6499 17.4409C26.7311 17.6426 25.4274 17.8005 23.7386 17.8882C23.5286 16.4237 23.2486 15.2837 22.9161 14.4682C22.6274 15.3714 22.2336 16.45 21.7349 17.6865C20.0549 17.0814 18.3311 16.6166 16.5461 16.2834C17.3949 15.0031 18.0599 13.8017 18.5411 12.6705C19.0224 11.5393 19.3724 10.3028 19.5999 8.93484L17.1411 9.1716C17.1674 7.68084 16.9924 6.26901 16.5986 4.95363C18.0336 4.90101 19.1536 4.86594 19.9499 4.85717C19.9674 4.33978 19.9674 3.50671 19.9674 2.37549H24.8761C24.8499 3.03318 24.7974 3.81363 24.7186 4.7344H25.3399C26.8536 4.7344 27.9824 4.85717 28.7174 5.1027L28.7261 5.11147ZM26.1186 12.2496C26.2149 11.7585 26.2674 11.1184 26.2674 10.3467C26.2674 9.80299 26.2324 9.41714 26.1799 9.18914C26.1186 8.96114 25.9961 8.81207 25.8211 8.74192C25.6374 8.67176 25.3311 8.63668 24.8936 8.63668C24.6399 8.63668 24.4386 8.63668 24.2724 8.65422C23.9924 10.3905 23.6511 11.9339 23.2574 13.2931C23.8261 13.3633 24.2811 13.3896 24.6136 13.3896C25.1999 13.3896 25.5674 13.3194 25.7074 13.1879C25.8824 13.0564 26.0136 12.7407 26.1186 12.2496ZM34.3961 3.30502C34.9911 5.34824 35.4286 7.08454 35.6911 8.53146C35.9536 9.9696 36.1899 11.8725 36.3911 14.2314L31.7011 14.8891C31.6311 12.6705 31.4561 10.7501 31.1674 9.12776C30.8786 7.49669 30.4061 5.6727 29.7411 3.64702L34.3961 3.30502Z" fill="#EF2B00"/>
<path d="M40.3899 15.354C40.0136 14.6174 39.4799 13.9334 38.8061 13.2932C41.8774 13.2406 44.2049 13.1617 45.7711 13.0565C47.3374 12.9512 48.4399 12.7846 49.0786 12.5654C49.7174 12.3462 50.0236 12.0305 50.0236 11.6183C50.0236 11.0483 49.7699 10.68 49.2711 10.5309C48.7724 10.3819 48.0636 10.3029 47.1449 10.3029C44.2136 10.3029 41.2299 11.0132 38.1761 12.4426L37.3186 7.8388C39.6461 7.30388 41.4399 6.94434 42.6911 6.76019C43.9424 6.57604 45.3424 6.47958 46.8824 6.47958C49.6386 6.47958 51.7299 6.87419 53.1736 7.67218C54.6086 8.47018 55.3261 9.75925 55.3261 11.5657C55.3261 13.5651 54.2324 15.0909 52.0361 16.152C49.8399 17.2043 46.3311 17.8094 41.5099 17.976C41.1336 16.9763 40.7574 16.1081 40.3811 15.3715L40.3899 15.354ZM53.2261 6.74265C51.4936 6.43573 49.7874 6.20773 48.1074 6.05866C46.4274 5.90958 44.6336 5.83943 42.7436 5.83943C41.5361 5.83943 40.5999 5.85696 39.9524 5.8745L40.1711 2.20898H41.4049C43.6711 2.20898 45.7974 2.29668 47.7924 2.48083C49.7874 2.66498 51.8874 2.96313 54.0836 3.39282L53.2261 6.73388V6.74265Z" fill="#EF2B00"/>
<path d="M68.6612 5.11147C69.3962 5.35701 69.895 5.81301 70.1662 6.46193C70.4375 7.11962 70.5775 8.1193 70.5775 9.4873C70.5775 11.2324 70.5512 12.539 70.4987 13.3984C70.4462 14.2577 70.3412 14.9154 70.1925 15.3714C70.0437 15.8274 69.8075 16.222 69.4837 16.5728C69.1337 16.9499 68.5037 17.2393 67.5849 17.4409C66.6662 17.6426 65.3624 17.8005 63.6737 17.8882C63.4637 16.4237 63.1837 15.2837 62.8512 14.4682C62.5625 15.3714 62.1687 16.45 61.67 17.6865C59.99 17.0814 58.2662 16.6166 56.4812 16.2834C57.33 15.0031 57.995 13.8017 58.4762 12.6705C58.9575 11.5393 59.3074 10.3028 59.5349 8.93484L57.0762 9.1716C57.1025 7.68084 56.9274 6.26901 56.5337 4.95363C57.9687 4.90101 59.0887 4.86594 59.885 4.85717C59.9025 4.33978 59.9024 3.50671 59.9024 2.37549H64.8112C64.7849 3.03318 64.7324 3.81363 64.6537 4.7344H65.2749C66.7887 4.7344 67.9174 4.85717 68.6524 5.1027L68.6612 5.11147ZM66.0537 12.2496C66.1499 11.7585 66.2025 11.1184 66.2025 10.3467C66.2025 9.80299 66.1674 9.41714 66.1149 9.18914C66.0537 8.96114 65.9312 8.81207 65.7562 8.74192C65.5725 8.67176 65.2662 8.63668 64.8287 8.63668C64.5749 8.63668 64.3737 8.63668 64.2074 8.65422C63.9274 10.3905 63.5862 11.9339 63.1925 13.2931C63.7612 13.3633 64.2162 13.3896 64.5487 13.3896C65.1349 13.3896 65.5024 13.3194 65.6424 13.1879C65.8174 13.0564 65.9487 12.7407 66.0537 12.2496ZM74.3312 3.30502C74.9262 5.34824 75.3637 7.08454 75.6262 8.53146C75.8887 9.9696 76.125 11.8725 76.3262 14.2314L71.6362 14.8891C71.5662 12.6705 71.3912 10.7501 71.1025 9.12776C70.8137 7.49669 70.3412 5.6727 69.6762 3.64702L74.3312 3.30502Z" fill="#EF2B00"/>
<path d="M87.1674 12.2672C87.1674 12.4777 87.5349 12.6268 88.2787 12.6969C89.0137 12.7671 89.9849 12.8021 91.1837 12.8021C93.9924 12.8021 96.6962 12.6355 99.2949 12.3023C99.1199 13.0214 99.0149 13.7404 98.9624 14.4595C98.9187 15.1786 98.8924 16.0818 98.8924 17.1604C96.0137 17.3621 93.1262 17.4586 90.2037 17.4586C87.4474 17.4586 85.3912 17.0727 84.0437 16.2923C82.6962 15.5118 82.0137 14.3367 82.0137 12.7583C82.0137 11.1798 82.9237 9.75923 84.7262 8.47893C84.1837 7.19863 83.4049 5.62018 82.3899 3.7348C82.3112 3.55942 82.1887 3.33142 82.0312 3.03327L87.5612 2.1125C88.1824 3.65588 88.6987 5.04141 89.1012 6.25156C91.3937 5.3571 94.3074 4.50649 97.8512 3.69096L98.8312 8.25093C95.2349 9.14539 92.5749 9.86446 90.8424 10.4082C89.1099 10.9518 87.9462 11.4868 87.3512 11.9866C87.2287 12.0831 87.1674 12.1708 87.1674 12.2497V12.2672ZM97.3349 0.498975C97.3437 1.44605 97.2387 2.37558 96.9937 3.27881L95.2962 3.04204C95.5324 2.16512 95.6549 1.23559 95.6549 0.262207L97.3349 0.498975ZM99.5487 0.805896C99.5662 1.75297 99.4524 2.6825 99.2074 3.58573L97.5099 3.34896C97.7374 2.47204 97.8599 1.54251 97.8687 0.569128L99.5487 0.805896Z" fill="#EF2B00"/>
<path d="M104.291 15.354C103.915 14.6174 103.381 13.9334 102.707 13.2932C105.779 13.2406 108.106 13.1617 109.672 13.0565C111.239 12.9512 112.341 12.7846 112.98 12.5654C113.619 12.3462 113.925 12.0305 113.925 11.6183C113.925 11.0483 113.671 10.68 113.172 10.5309C112.674 10.3819 111.965 10.3029 111.046 10.3029C108.115 10.3029 105.131 11.0132 102.077 12.4426L101.22 7.8388C103.547 7.30388 105.341 6.94434 106.592 6.76019C107.844 6.57604 109.244 6.47958 110.784 6.47958C113.54 6.47958 115.631 6.87419 117.075 7.67218C118.51 8.47018 119.227 9.75925 119.227 11.5657C119.227 13.5651 118.134 15.0909 115.937 16.152C113.741 17.2043 110.232 17.8094 105.411 17.976C105.035 16.9763 104.659 16.1081 104.282 15.3715L104.291 15.354ZM117.119 6.74265C115.386 6.43573 113.68 6.20773 112 6.05866C110.32 5.90958 108.526 5.83943 106.636 5.83943C105.429 5.83943 104.492 5.85696 103.845 5.8745L104.064 2.20898H105.297C107.564 2.20898 109.69 2.29668 111.685 2.48083C113.68 2.66498 115.78 2.96313 117.976 3.39282L117.119 6.73388V6.74265Z" fill="#EF2B00"/>
<path d="M132.554 5.11147C133.289 5.35701 133.787 5.81301 134.059 6.46193C134.33 7.11962 134.47 8.1193 134.47 9.4873C134.47 11.2324 134.444 12.539 134.391 13.3984C134.339 14.2577 134.234 14.9154 134.085 15.3714C133.936 15.8274 133.7 16.222 133.376 16.5728C133.026 16.9499 132.396 17.2393 131.477 17.4409C130.559 17.6426 129.255 17.8005 127.566 17.8882C127.356 16.4237 127.076 15.2837 126.744 14.4682C126.455 15.3714 126.061 16.45 125.562 17.6865C123.882 17.0814 122.159 16.6166 120.374 16.2834C121.222 15.0031 121.887 13.8017 122.369 12.6705C122.85 11.5393 123.2 10.3028 123.427 8.93484L120.969 9.1716C120.995 7.68084 120.82 6.26901 120.426 4.95363C121.861 4.90101 122.981 4.86594 123.777 4.85717C123.795 4.33978 123.795 3.50671 123.795 2.37549H128.704C128.677 3.03318 128.625 3.81363 128.546 4.7344H129.167C130.681 4.7344 131.81 4.85717 132.545 5.1027L132.554 5.11147ZM129.946 12.2496C130.042 11.7585 130.095 11.1184 130.095 10.3467C130.095 9.80299 130.06 9.41714 130.007 9.18914C129.946 8.96114 129.824 8.81207 129.649 8.74192C129.465 8.67176 129.159 8.63668 128.721 8.63668C128.467 8.63668 128.266 8.63668 128.1 8.65422C127.82 10.3905 127.479 11.9339 127.085 13.2931C127.654 13.3633 128.109 13.3896 128.441 13.3896C129.027 13.3896 129.395 13.3194 129.535 13.1879C129.71 13.0564 129.841 12.7407 129.946 12.2496ZM138.224 3.30502C138.819 5.34824 139.256 7.08454 139.519 8.53146C139.781 9.9696 140.017 11.8725 140.219 14.2314L135.529 14.8891C135.459 12.6705 135.284 10.7501 134.995 9.12776C134.706 7.49669 134.234 5.6727 133.569 3.64702L138.224 3.30502Z" fill="#EF2B00"/>
</g>
<defs>
<clipPath id="clip0_7386_28203">
<rect width="156.625" height="84" fill="white" transform="translate(0 0.262207)"/>
</clipPath>
</defs>
</svg>
