<svg width="71" height="18" viewBox="0 0 71 18" fill="none" xmlns="http://www.w3.org/2000/svg">
<path d="M3.38318 17.1319C2.07496 16.5403 1.15921 15.7029 0.643618 14.612C0.120331 13.5288 -0.0104908 12.2382 0.228067 10.7401L4.88379 9.64917C4.75296 10.3175 4.83761 10.9168 5.13773 11.4622C5.43785 12.0077 5.96114 12.4302 6.6999 12.7375C7.43866 13.0448 8.3775 13.1985 9.51642 13.1985C10.2937 13.1985 10.9555 13.1216 11.4864 12.968C12.0174 12.8143 12.4176 12.6069 12.6792 12.3457C12.9409 12.0845 13.1025 11.8003 13.164 11.493C13.2256 11.201 13.2102 10.9552 13.1025 10.7478C12.9947 10.548 12.7639 10.3713 12.4099 10.2254C12.0559 10.0794 11.5326 9.94878 10.8477 9.83355L6.94615 9.29578C5.22238 9.04994 3.96034 8.55058 3.14462 7.7977C2.32891 7.04482 2.04418 6.08451 2.29044 4.91677C2.64442 3.3265 3.64483 2.11268 5.27625 1.26761C6.90768 0.422535 8.8777 0 11.1863 0C12.9255 0 14.403 0.215109 15.6189 0.645327C16.8347 1.07554 17.7582 1.79001 18.3815 2.79641C19.0049 3.80282 19.2434 5.16261 19.0972 6.88348L14.226 8.17414C14.4569 7.36748 14.3876 6.70679 14.0336 6.20743C13.6796 5.70807 13.1333 5.33931 12.4099 5.10884C11.6865 4.88604 10.8708 4.77081 9.96275 4.77081C9.00083 4.77081 8.26976 4.89373 7.76956 5.14725C7.26936 5.40077 6.95385 5.76953 6.84611 6.25352C6.78455 6.53009 6.79225 6.76825 6.8692 6.96031C6.95385 7.15237 7.13084 7.32138 7.40788 7.47503C7.68491 7.621 8.07738 7.73624 8.57758 7.81306L12.3329 8.3201C13.7643 8.55058 14.9032 8.85019 15.742 9.23432C16.5808 9.61844 17.1733 10.0948 17.4965 10.6786C17.8198 11.2625 17.8967 11.9616 17.712 12.7682C17.5042 13.8361 16.9348 14.7734 16.0036 15.58C15.0802 16.379 13.9413 16.9859 12.6023 17.3931C11.2633 17.8003 9.86271 18 8.40058 18C6.35361 18 4.67601 17.7081 3.36779 17.1088L3.38318 17.1319Z" fill="currentColor"  />
<path d="M21.6043 17.3259C20.804 16.911 20.1806 16.3271 19.742 15.5589C19.3034 14.7983 19.0879 13.9148 19.0879 12.9084C19.0879 11.4795 19.3957 10.1581 20.0036 8.92893C20.6116 7.70742 21.5042 6.72406 22.6816 6.00191C23.859 5.27208 25.2596 4.90332 26.8833 4.90332C27.8222 4.90332 28.661 5.09538 29.392 5.48719C30.1231 5.87899 30.6926 6.43981 31.1081 7.17733C31.5237 7.91484 31.7314 8.79833 31.7314 9.82009H31.8546C31.9546 9.15172 32.047 8.48335 32.147 7.79961C32.247 7.20038 32.3779 6.37067 32.5395 5.31817H36.972L35.5099 12.1556L35.4098 12.5474C35.3098 12.9699 35.2636 13.2849 35.279 13.4923C35.2867 13.7074 35.3791 13.8687 35.5484 13.9763C35.7177 14.0915 36.0178 14.1453 36.441 14.1453L35.633 17.9405H34.6326C33.1089 17.9405 32.0316 17.7177 31.4159 17.2874C30.8003 16.8495 30.4925 16.2657 30.4925 15.5358C30.4925 15.3591 30.5079 15.1748 30.5387 14.975C30.5694 14.783 30.6233 14.5832 30.6849 14.3912C30.7003 14.3604 30.7156 14.3066 30.731 14.2452H30.6079C29.9384 15.5282 29.0996 16.4654 28.0761 17.057C27.0526 17.6485 25.8445 17.9405 24.4439 17.9405C23.3588 17.9405 22.4123 17.733 21.6043 17.3182V17.3259ZM29.0611 13.5999C29.6999 13.3002 30.1847 12.9161 30.5002 12.4475C30.8157 11.9789 30.9773 11.4718 30.9773 10.9417C30.9773 10.5192 30.8465 10.1504 30.5771 9.82009C30.3078 9.49743 29.923 9.24391 29.4074 9.06721C28.8918 8.89052 28.2608 8.79833 27.4913 8.79833C26.4832 8.79833 25.6752 8.95966 25.0518 9.28232C24.4362 9.60498 23.9899 9.99679 23.7205 10.4654C23.4512 10.9264 23.3204 11.4104 23.3204 11.9097C23.3204 12.555 23.6128 13.0775 24.1976 13.4693C24.7825 13.8611 25.6136 14.0531 26.6833 14.0531C27.6221 14.0531 28.4147 13.8995 29.0611 13.5999Z" fill="currentColor"  />
<path d="M38.9738 9.37034C38.9738 9.10146 38.8969 8.91708 38.743 8.82489C38.5891 8.7327 38.289 8.67892 37.8503 8.67892L38.6506 4.88379C40.3205 4.88379 41.5287 5.0528 42.2675 5.38315C43.0062 5.7135 43.4218 6.22054 43.5141 6.90428C43.6065 7.58801 43.4603 8.52527 43.0909 9.72374L43.0447 9.84665L42.506 11.6443H42.6522C43.2525 10.0848 43.922 8.80184 44.6531 7.78776C45.3841 6.77367 46.146 6.04384 46.9309 5.58289C47.7158 5.12963 48.5085 4.89915 49.3088 4.89915C50.6709 4.89915 51.6174 5.2756 52.133 6.02848C52.6563 6.78136 52.8102 7.75703 52.5947 8.94781C52.3869 10.1386 51.8944 11.3755 51.1326 12.6584L48.2545 12.4664C48.647 11.7519 48.8547 11.1527 48.8778 10.6533C48.9009 10.1616 48.7624 9.79288 48.4546 9.54704C48.1468 9.3012 47.6774 9.18596 47.0386 9.18596C46.323 9.18596 45.6458 9.40876 45.0147 9.83897C44.3837 10.2769 43.8604 10.83 43.4449 11.5061C43.0293 12.1821 42.7446 12.8735 42.583 13.588L41.7288 17.5291H37.3193L38.7584 10.7916C38.9046 10.1079 38.9815 9.63923 38.9815 9.37034H38.9738Z" fill="currentColor"  />
<path d="M55.0193 17.3259C54.219 16.911 53.5957 16.3271 53.157 15.5589C52.7184 14.7983 52.5029 13.9148 52.5029 12.9084C52.5029 11.4795 52.8107 10.1581 53.4187 8.92893C54.0266 7.70742 54.9193 6.72406 56.0967 6.00191C57.2741 5.27208 58.6746 4.90332 60.2984 4.90332C61.2372 4.90332 62.076 5.09538 62.8071 5.48719C63.5381 5.87899 64.1076 6.43981 64.5232 7.17733C64.9387 7.91484 65.1465 8.79833 65.1465 9.82009H65.2696C65.3696 9.15172 65.462 8.48335 65.562 7.79961C65.6621 7.20038 65.7929 6.37067 65.9545 5.31817H70.3871L68.9249 12.1556L68.8249 12.5474C68.7248 12.9699 68.6787 13.2849 68.6941 13.4923C68.7018 13.7074 68.7941 13.8687 68.9634 13.9763C69.1327 14.0915 69.4328 14.1453 69.8561 14.1453L69.0481 17.9405H68.0476C66.524 17.9405 65.4466 17.7177 64.831 17.2874C64.2153 16.8495 63.9075 16.2657 63.9075 15.5358C63.9075 15.3591 63.9229 15.1748 63.9537 14.975C63.9845 14.783 64.0383 14.5832 64.0999 14.3912C64.1153 14.3604 64.1307 14.3066 64.1461 14.2452H64.023C63.3535 15.5282 62.5147 16.4654 61.4912 17.057C60.4677 17.6485 59.2595 17.9405 57.8589 17.9405C56.7739 17.9405 55.8273 17.733 55.0193 17.3182V17.3259ZM62.4762 13.5999C63.1149 13.3002 63.5997 12.9161 63.9152 12.4475C64.2307 11.9789 64.3923 11.4718 64.3923 10.9417C64.3923 10.5192 64.2615 10.1504 63.9922 9.82009C63.7228 9.49743 63.3381 9.24391 62.8225 9.06721C62.3069 8.89052 61.6759 8.79833 60.9063 8.79833C59.8982 8.79833 59.0902 8.95966 58.4669 9.28232C57.8512 9.60498 57.4049 9.99679 57.1356 10.4654C56.8662 10.9264 56.7354 11.4104 56.7354 11.9097C56.7354 12.555 57.0278 13.0775 57.6127 13.4693C58.1975 13.8611 59.0286 14.0531 60.0983 14.0531C61.0371 14.0531 61.8298 13.8995 62.4762 13.5999Z" fill="currentColor"  />
</svg>
