<svg width="121" height="64" viewBox="0 0 121 64" fill="none" xmlns="http://www.w3.org/2000/svg">
<path d="M14.2918 11.3653C14.5961 10.3311 14.8899 9.29703 15.1942 8.26292C16.7892 7.66053 18.4052 7.08825 20.0212 6.54609C19.7169 6.93765 19.4021 7.33925 19.0978 7.74084C18.8564 8.06212 18.6151 8.37336 18.3737 8.70468C19.528 8.30308 20.6927 7.91152 21.868 7.55009C22.0674 8.09224 22.2667 8.6344 22.4556 9.18659C22.6865 9.84923 22.9278 10.5018 23.1587 11.1645C21.7106 11.6062 20.273 12.0681 18.8459 12.56C18.7934 12.2287 18.762 11.8773 18.7095 11.546C18.657 11.1444 18.6046 10.7428 18.5521 10.3211C18.4891 9.92955 18.4367 9.53799 18.3947 9.15647C18.3947 9.14643 18.3947 9.14643 18.3842 9.15647H18.3632C18.3527 9.15647 18.3527 9.15647 18.3527 9.17655C18.2688 9.85927 18.1848 10.542 18.1009 11.2147C18.0274 11.7769 17.954 12.3492 17.8805 12.8913C16.3695 13.4234 14.869 13.9857 13.3789 14.578C13.6832 13.5138 13.9875 12.4395 14.3023 11.3753L14.2918 11.3653ZM14.4177 17.2085C14.4177 16.7969 14.4177 16.4053 14.4177 15.9937C17.3139 14.8692 20.252 13.8652 23.2111 12.9616V12.8311C23.2111 12.7608 23.2111 12.6905 23.2111 12.6102C23.2111 12.6002 23.2111 12.6002 23.2006 12.6102C20.2415 13.5138 17.3139 14.5178 14.4177 15.6423V14.4776C18.741 12.811 23.1377 11.3853 27.5868 10.2006V11.7267C27.5868 11.9175 27.5868 12.1082 27.5868 12.309C24.5962 13.1022 21.6371 14.0058 18.7095 15.0198C18.699 15.0198 18.699 15.0198 18.699 15.0399V15.3812C18.699 15.3812 18.699 15.3913 18.7095 15.3812C20.3779 14.809 22.0569 14.2668 23.7463 13.7548C25.1419 13.3331 26.548 12.9415 27.9646 12.5701C27.8387 13.2628 27.7023 13.9656 27.5763 14.6584C23.1272 15.8431 18.741 17.2587 14.4177 18.9354V17.2286V17.2085ZM23.2951 9.46771C23.2951 9.11631 23.2951 8.74484 23.2951 8.3834C23.2951 7.41957 23.2951 6.46577 23.2951 5.50194C24.7222 5.07022 26.1493 4.66863 27.5868 4.28711V5.67262C27.8807 5.5923 28.1745 5.52202 28.4578 5.4417C28.4578 6.66657 28.4578 7.8814 28.4578 9.10628C28.164 9.17655 27.8702 9.25687 27.5868 9.33719V9.88939C26.1493 10.2709 24.7222 10.6725 23.2951 11.1042C23.2951 10.5621 23.2951 10.0099 23.2951 9.46771Z" fill="#007BED"/>
<path d="M29.4341 11.3652C29.539 10.5519 29.6334 9.73872 29.7384 8.93552C29.8013 8.37328 29.8643 7.80101 29.9377 7.23877C29.9377 7.22873 29.9377 7.22873 29.9272 7.23877C29.56 7.32913 29.2032 7.41949 28.8359 7.50985C28.8359 6.40546 28.8359 5.3111 28.8359 4.20671C30.5149 3.77499 32.2148 3.38344 33.9042 3.022C33.7888 4.31715 33.6733 5.60226 33.5684 6.89741C33.39 8.86524 33.2326 10.823 33.0542 12.7808C31.7531 13.0619 30.4519 13.3732 29.1612 13.6944C29.2452 12.9214 29.3501 12.1583 29.4341 11.3752V11.3652ZM34.156 2.96176C35.6881 2.64048 37.2306 2.34932 38.7731 2.08829C38.6577 3.79507 38.5422 5.50186 38.4268 7.20865C38.3219 8.73472 38.2274 10.2407 38.1225 11.7768C36.7689 12.0178 35.4152 12.2788 34.0616 12.5599C34.1246 11.8772 34.1875 11.1845 34.24 10.5017C34.3449 9.56804 34.4289 8.64436 34.5023 7.73073C34.5548 7.21869 34.5863 6.69661 34.6387 6.18458C34.6387 6.17454 34.6387 6.17454 34.6282 6.18458C34.3764 6.23478 34.1141 6.29502 33.8622 6.34522C33.9567 5.22074 34.0511 4.10631 34.156 2.98184V2.96176ZM39.1089 9.19656V1.78709C40.5255 1.54613 41.9421 1.33529 43.3692 1.14453V4.05611C43.663 4.01595 43.9673 3.97579 44.2611 3.93563V8.15241C43.9673 8.19257 43.663 8.23272 43.3692 8.27288V11.4957C41.9421 11.6865 40.5255 11.8973 39.1089 12.1383V9.19656Z" fill="#007BED"/>
<path d="M44.8359 3.67462C44.8359 2.78106 44.8359 1.91763 44.8359 1.03411C46.2525 0.863434 47.6691 0.712835 49.0857 0.582316V2.27907C49.1067 2.14855 49.1277 2.00799 49.1487 1.87747C49.1907 1.87747 49.1907 1.87747 49.2641 1.76703C49.4635 1.34535 49.6524 0.933714 49.8517 0.512037C50.9535 0.321278 51.73 0.230918 52.643 0.240958C53.6398 0.250998 54.3009 0.702795 54.3009 1.39555V4.03605C54.3009 4.59829 54.3009 5.17057 54.3009 5.74284C51.1424 5.89344 47.9839 6.16452 44.8359 6.54604V3.66458V3.67462ZM45.6649 9.49778C45.6649 9.08614 45.6649 8.69458 45.6649 8.28295C48.7185 7.93155 51.7825 7.68055 54.857 7.55003V7.41951C54.857 7.34923 54.857 7.27895 54.857 7.19863C54.857 7.18859 54.857 7.18859 54.8465 7.18859C51.7825 7.31911 48.7185 7.57011 45.6754 7.92151C45.6754 7.52995 45.6754 7.13839 45.6754 6.75688C50.2295 6.22476 54.8046 5.94364 59.3796 5.90348V7.42955C59.3796 7.62031 59.3796 7.81107 59.3796 8.01187C56.3051 8.04199 53.2411 8.17251 50.177 8.42351C50.1665 8.42351 50.1665 8.4235 50.1665 8.43354C50.1665 8.49378 50.1665 8.54398 50.1665 8.60422C50.1665 8.66446 50.1665 8.71466 50.1665 8.7749C50.1665 8.78494 50.1665 8.78494 50.177 8.78494C51.9189 8.64438 53.6713 8.54398 55.4132 8.4737C56.8613 8.41346 58.3093 8.38334 59.7679 8.3733C59.6315 9.03594 59.5056 9.69858 59.3692 10.3612C54.7941 10.4014 50.2295 10.6825 45.6754 11.2146C45.6754 10.6423 45.6754 10.0701 45.6754 9.50782L45.6649 9.49778ZM50.282 4.38745C50.282 4.38745 50.2925 4.38745 50.2925 4.37741C50.2925 3.92561 50.2925 3.47382 50.2925 3.01198C50.2925 2.7911 50.0616 2.72082 49.7573 2.7409C49.4845 2.76098 49.3481 2.7911 49.0962 2.83126V3.56418C49.0962 3.87541 49.0962 4.17661 49.0962 4.47781C49.495 4.43765 49.8937 4.40753 50.282 4.37741V4.38745ZM54.941 4.07621C54.941 3.72482 54.941 3.35334 54.941 2.9919V0.110439C56.4205 0.0501993 57.8896 0.0100399 59.3692 0V1.38551C59.6735 1.38551 59.9673 1.38551 60.2716 1.38551V5.05009C59.9673 5.05009 59.6735 5.05009 59.3692 5.05009V5.60228C57.8896 5.61232 56.4205 5.65248 54.941 5.71272V4.07621Z" fill="#007BED"/>
<path d="M61.2805 7.56032C61.3854 6.77721 61.4904 5.98405 61.5848 5.20094C61.6478 4.65878 61.7107 4.09655 61.7947 3.55439C61.7947 3.54435 61.7947 3.54435 61.7842 3.54435C61.4169 3.54435 61.0391 3.54435 60.6719 3.54435V0.241211C62.4033 0.241211 64.1242 0.28137 65.8556 0.35165C65.7401 1.61668 65.6247 2.88171 65.5093 4.14675C65.3309 6.06437 65.163 7.982 64.9846 9.88959C63.6625 9.83939 62.3298 9.81931 61.0077 9.80927C61.1021 9.06631 61.1965 8.32336 61.291 7.56032H61.2805ZM66.1074 0.36169C67.6709 0.43197 69.2239 0.522329 70.7874 0.652848C70.672 2.32952 70.5566 4.00619 70.4411 5.68286C70.3362 7.17881 70.2418 8.66472 70.1368 10.1707C68.7622 10.0703 67.3981 9.98999 66.0235 9.92975C66.0864 9.25707 66.1494 8.5844 66.2019 7.91172C66.3068 6.99809 66.3907 6.10453 66.4747 5.20094C66.5271 4.69894 66.5586 4.19695 66.6111 3.68491C66.6111 3.67487 66.6111 3.67487 66.6006 3.67487C66.3383 3.66483 66.0759 3.65479 65.8136 3.64475C65.908 2.5504 66.013 1.45604 66.1074 0.36169ZM71.1127 7.84144C71.1127 7.15873 71.1127 6.46597 71.1127 5.77321V0.442009C72.5398 0.562489 73.9669 0.703048 75.394 0.873727C75.394 1.8476 75.394 2.81143 75.394 3.78531C75.6878 3.81543 75.9921 3.85559 76.2859 3.89575V8.10248C75.9921 8.06232 75.6878 8.0322 75.394 7.99204C75.394 9.06631 75.394 10.1406 75.394 11.2149C73.9669 11.0442 72.5398 10.9036 71.1127 10.7831V7.84144Z" fill="#007BED"/>
<path d="M79.6856 7.1886C79.4443 7.11832 79.2134 7.01792 79.014 6.92756C77.8283 6.39544 77.1777 5.67257 77.1777 4.86937C77.1777 4.66857 77.2512 4.4477 77.3351 4.3473C77.3456 4.33726 77.3456 4.3473 77.3351 4.33726C77.0728 4.30714 76.8209 4.26698 76.5586 4.23686C76.5586 3.8453 76.5586 3.45374 76.5586 3.05215C79.8955 3.47382 83.2218 4.02602 86.5167 4.70873V5.89345C85.352 5.65249 84.1872 5.43161 83.012 5.22077C84.1138 5.52197 85.2261 5.83321 86.3279 6.16452C86.3384 6.25488 86.3384 6.3352 86.3384 6.40548C86.3384 7.10828 85.8557 7.55003 85.0897 7.74079C84.2712 7.94159 83.0959 7.90143 81.7738 7.68055C81.0078 7.55003 80.3152 7.37936 79.6961 7.17856L79.6856 7.1886ZM77.461 1.0542C80.3362 1.43572 83.2114 1.91763 86.0655 2.49995C85.9186 3.06219 85.7612 3.61438 85.6143 4.17662C83.5471 3.76498 81.4695 3.40354 79.3918 3.09231C78.7412 2.99191 78.1116 2.91159 77.4715 2.82123C77.4715 2.22887 77.4715 1.63652 77.4715 1.0542H77.461ZM77.7024 9.89938C77.7024 9.51786 77.7024 9.1263 77.7024 8.74479C80.7454 9.15642 83.7675 9.6785 86.7791 10.301V10.1805C86.7791 10.1203 86.7791 10.05 86.7791 9.9797C86.7791 9.96966 86.7791 9.96966 86.7686 9.96966C83.7675 9.33714 80.7349 8.82511 77.7024 8.41347V7.34924C82.246 7.96167 86.7581 8.81506 91.2282 9.91946C91.2282 10.06 91.2282 10.2006 91.2282 10.3411C91.2282 10.6725 91.2282 11.0038 91.2282 11.325C91.2282 11.5058 91.2282 11.6764 91.2282 11.8572C88.2376 11.1242 85.2261 10.4917 82.204 9.96966C82.1935 9.96966 82.1935 9.96966 82.1935 9.9797C82.1935 10.0299 82.1935 10.0801 82.1935 10.1403C82.1935 10.2006 82.1935 10.2407 82.1935 10.301C82.1935 10.311 82.1935 10.311 82.204 10.311C83.9249 10.6022 85.6353 10.9335 87.3457 11.305C88.7728 11.6062 90.1894 11.9375 91.606 12.2889C91.4801 12.8812 91.3437 13.4736 91.2177 14.076C86.7581 12.9716 82.246 12.1182 77.7024 11.5058V9.90942V9.89938ZM81.1337 5.74285C81.3016 5.84325 81.5009 5.92357 81.7528 5.96373C82.3089 6.05408 82.6867 5.96373 82.6867 5.55209C82.6867 5.37137 82.5713 5.23081 82.3719 5.11033C81.9626 5.04005 81.5534 4.96977 81.1442 4.89949C81.0078 4.93965 80.8294 5.04005 80.8294 5.23081C80.8294 5.45169 80.9448 5.60229 81.1337 5.74285ZM86.8945 6.87736C86.8945 6.50588 86.8945 6.11432 86.8945 5.74285V2.73087C88.3426 3.03207 89.7907 3.36338 91.2282 3.72482C91.2282 4.20674 91.2282 4.67861 91.2282 5.16053C91.5221 5.23081 91.8159 5.30109 92.1097 5.38141C92.1097 6.60628 92.1097 7.84119 92.1097 9.06606C91.8159 8.99578 91.5221 8.91546 91.2282 8.84519C91.2282 9.08614 91.2282 9.3271 91.2282 9.56806C89.7907 9.21666 88.3426 8.88534 86.8945 8.57411V6.87736Z" fill="#007BED"/>
<path d="M92.5496 8.88503C92.5496 8.24248 92.5496 7.62 92.5496 6.99752C93.2421 6.99752 93.9347 7.02764 94.6167 7.04772C94.6797 7.04772 94.7007 7.03768 94.7007 6.99752C93.9871 6.79673 93.2631 6.60597 92.5391 6.42525V4.24658C93.8192 4.5779 95.0889 4.9293 96.3586 5.30078C96.3586 6.02365 96.3586 6.75657 96.3586 7.47944C96.0858 7.39912 95.8235 7.3188 95.5506 7.24852V9.57779C95.5506 9.57779 95.5506 9.58783 95.5611 9.59787C95.9179 9.69827 96.2747 9.79867 96.6315 9.90911C96.5475 10.4613 96.4741 11.0135 96.4006 11.5657C95.1204 11.1942 93.8297 10.8428 92.5391 10.5015V8.88503H92.5496ZM93.7983 13.5837C93.7983 13.0516 93.7983 12.5195 93.7983 11.9974C93.7983 11.7263 93.7983 11.4553 93.7983 11.1942C95.4247 11.636 97.0407 12.0978 98.6462 12.5998V13.0817C98.6462 13.2223 98.6462 13.393 98.6462 13.5436C98.6462 13.5536 98.6462 13.5536 98.6567 13.5636C101.679 14.5074 104.659 15.5616 107.618 16.7363C107.534 17.5495 107.45 18.3627 107.366 19.176C102.917 17.419 98.3838 15.9331 93.7983 14.6982C93.7983 14.3367 93.7983 13.9652 93.7983 13.6038V13.5837ZM96.6734 9.90911C96.6734 9.17619 96.6734 8.38304 96.6734 7.66016V5.37105C97.9011 5.73249 99.1289 6.11401 100.346 6.51561C100.346 7.23848 100.325 7.96136 100.325 8.68423C99.9893 8.57379 99.664 8.47339 99.3282 8.36296C99.3177 8.36296 99.3177 8.36296 99.3177 8.36296V10.7123C99.3177 10.7123 99.3177 10.7223 99.3282 10.7324C99.7794 10.8729 100.231 11.0235 100.682 11.1741C100.629 11.7364 100.587 12.2886 100.535 12.8508C99.2548 12.4291 97.9746 12.0275 96.6839 11.646V9.91915L96.6734 9.90911ZM100.797 9.84887C100.797 8.71435 100.797 7.60996 100.797 6.47545C101.7 6.77665 102.592 7.07784 103.484 7.39912V9.59787C103.484 9.59787 103.484 9.60791 103.494 9.61795C103.693 9.68823 103.893 9.75851 104.092 9.82879C104.103 9.82879 104.103 9.82879 104.103 9.82879C104.103 9.09587 104.103 8.36296 104.103 7.64008C105.183 8.03164 106.254 8.43323 107.324 8.85491C107.324 9.46735 107.324 10.0798 107.324 10.6922C107.324 11.7364 107.324 12.7805 107.324 13.8146C107.324 14.5877 107.324 15.3608 107.324 16.1339C106.254 15.7122 105.183 15.3106 104.103 14.919C104.103 14.1962 104.103 13.4733 104.103 12.7504C104.103 12.7404 104.103 12.7404 104.092 12.7303C103.893 12.66 103.693 12.5898 103.494 12.5195C103.484 12.5195 103.484 12.5195 103.484 12.5195V14.3267C102.592 14.0054 101.7 13.7042 100.797 13.403C100.797 12.2183 100.797 11.0336 100.797 9.84887Z" fill="#007BED"/>
<path d="M18.8514 47.6601C17.1418 46.887 15.945 45.7926 15.2712 44.367C14.5873 42.9513 14.4164 41.2646 14.7281 39.3068L20.8125 37.8812C20.6416 38.7546 20.7522 39.5377 21.1444 40.2506C21.5366 40.9634 22.2205 41.5156 23.186 41.9172C24.1514 42.3188 25.3783 42.5196 26.8668 42.5196C27.8825 42.5196 28.7474 42.4192 29.4413 42.2184C30.1352 42.0176 30.6582 41.7465 31.0001 41.4052C31.3421 41.0638 31.5533 40.6923 31.6337 40.2907C31.7142 39.9092 31.6941 39.5879 31.5533 39.3169C31.4125 39.0558 31.1108 38.8249 30.6481 38.6342C30.1855 38.4434 29.5017 38.2727 28.6066 38.1221L23.5078 37.4193C21.255 37.098 19.6057 36.4454 18.5397 35.4615C17.4737 34.4776 17.1016 33.2226 17.4234 31.6966C17.886 29.6183 19.1934 28.032 21.3254 26.9276C23.4575 25.8232 26.032 25.271 29.0491 25.271C31.3219 25.271 33.2529 25.5521 34.8418 26.1144C36.4308 26.6766 37.6377 27.6103 38.4523 28.9255C39.2669 30.2408 39.5786 32.0178 39.3875 34.2668L33.0216 35.9535C33.3233 34.8993 33.2327 34.0359 32.7701 33.3833C32.3075 32.7307 31.5935 32.2488 30.6481 31.9476C29.7028 31.6564 28.6368 31.5058 27.4501 31.5058C26.193 31.5058 25.2375 31.6664 24.5839 31.9978C23.9302 32.3291 23.5178 32.811 23.377 33.4435C23.2966 33.8049 23.3066 34.1162 23.4072 34.3672C23.5178 34.6182 23.7491 34.8391 24.1112 35.0399C24.4732 35.2306 24.9861 35.3812 25.6398 35.4816L30.5476 36.1442C32.4181 36.4454 33.9066 36.837 35.0028 37.339C36.099 37.841 36.8733 38.4635 37.2957 39.2265C37.7181 39.9895 37.8187 40.9032 37.5773 41.9574C37.3058 43.3529 36.5616 44.5778 35.3447 45.632C34.1379 46.6761 32.6495 47.4693 30.8996 48.0014C29.1497 48.5335 27.3193 48.7946 25.4085 48.7946C22.7334 48.7946 20.541 48.413 18.8313 47.6299L18.8514 47.6601Z" fill="#007BED"/>
<path d="M42.6675 47.9108C41.6216 47.3687 40.807 46.6057 40.2337 45.6017C39.6605 44.6077 39.3789 43.4531 39.3789 42.1379C39.3789 40.2705 39.7812 38.5436 40.5757 36.9372C41.3702 35.3408 42.5368 34.0557 44.0755 33.112C45.6142 32.1582 47.4445 31.6763 49.5665 31.6763C50.7934 31.6763 51.8896 31.9273 52.845 32.4393C53.8004 32.9513 54.5446 33.6843 55.0877 34.6481C55.6308 35.6119 55.9023 36.7665 55.9023 38.1018H56.0632C56.194 37.2284 56.3147 36.3549 56.4454 35.4613C56.5761 34.6782 56.7471 33.5939 56.9583 32.2184H62.751L60.8402 41.154L60.7095 41.666C60.5788 42.2182 60.5184 42.6298 60.5385 42.9009C60.5486 43.182 60.6693 43.3929 60.8905 43.5334C61.1118 43.684 61.504 43.7543 62.0571 43.7543L61.0011 48.714H59.6938C57.7025 48.714 56.2945 48.4229 55.49 47.8606C54.6854 47.2884 54.2832 46.5253 54.2832 45.5715C54.2832 45.3406 54.3033 45.0997 54.3435 44.8386C54.3837 44.5876 54.4541 44.3266 54.5346 44.0756C54.5547 44.0354 54.5748 43.9652 54.5949 43.8848H54.434C53.5591 45.5615 52.4629 46.7864 51.1253 47.5594C49.7878 48.3325 48.2088 48.714 46.3785 48.714C44.9605 48.714 43.7235 48.443 42.6675 47.9008V47.9108ZM52.4126 43.0415C53.2473 42.6499 53.8809 42.1479 54.2932 41.5355C54.7056 40.9231 54.9167 40.2604 54.9167 39.5677C54.9167 39.0155 54.7458 38.5335 54.3938 38.1018C54.0418 37.6802 53.539 37.3488 52.8651 37.1179C52.1913 36.887 51.3667 36.7665 50.361 36.7665C49.0435 36.7665 47.9876 36.9774 47.173 37.399C46.3684 37.8207 45.7851 38.3327 45.4331 38.9452C45.0811 39.5476 44.9102 40.1801 44.9102 40.8327C44.9102 41.676 45.2923 42.3588 46.0567 42.8708C46.821 43.3828 47.9071 43.6338 49.305 43.6338C50.532 43.6338 51.5678 43.433 52.4126 43.0415Z" fill="#007BED"/>
<path d="M65.3653 37.5201C65.3653 37.1687 65.2648 36.9277 65.0636 36.8072C64.8625 36.6867 64.4703 36.6165 63.897 36.6165L64.943 31.6567C67.1253 31.6567 68.7042 31.8776 69.6697 32.3093C70.6351 32.7411 71.1782 33.4037 71.2989 34.2972C71.4196 35.1908 71.2285 36.4157 70.7458 37.9819L70.6854 38.1425L69.9814 40.4919H70.1725C70.957 38.4538 71.8319 36.7771 72.7873 35.4518C73.7427 34.1266 74.7383 33.1728 75.7641 32.5704C76.7899 31.978 77.8258 31.6768 78.8717 31.6768C80.6518 31.6768 81.8888 32.1688 82.5626 33.1527C83.2464 34.1366 83.4476 35.4117 83.166 36.9679C82.8944 38.5241 82.2508 40.1405 81.2552 41.8171L77.4939 41.5661C78.0068 40.6324 78.2783 39.8493 78.3085 39.1967C78.3387 38.5542 78.1577 38.0723 77.7554 37.751C77.3531 37.4297 76.7396 37.2791 75.9049 37.2791C74.9696 37.2791 74.0846 37.5703 73.26 38.1325C72.4353 38.7048 71.7514 39.4276 71.2084 40.3112C70.6653 41.1947 70.2932 42.0983 70.082 43.032L68.9657 48.1825H63.2031L65.0838 39.3774C65.2748 38.4839 65.3754 37.8715 65.3754 37.5201H65.3653Z" fill="#007BED"/>
<path d="M86.3355 47.9108C85.2896 47.3687 84.4749 46.6057 83.9017 45.6017C83.3285 44.6077 83.0469 43.4531 83.0469 42.1379C83.0469 40.2705 83.4492 38.5436 84.2436 36.9372C85.0381 35.3408 86.2047 34.0557 87.7434 33.112C89.2821 32.1582 91.1125 31.6763 93.2345 31.6763C94.4614 31.6763 95.5576 31.9273 96.513 32.4393C97.4684 32.9513 98.2126 33.6843 98.7557 34.6481C99.2988 35.6119 99.5703 36.7665 99.5703 38.1018H99.7312C99.8619 37.2284 99.9826 36.3549 100.113 35.4613C100.244 34.6782 100.415 33.5939 100.626 32.2184H106.419L104.508 41.154L104.377 41.666C104.247 42.2182 104.186 42.6298 104.206 42.9009C104.217 43.182 104.337 43.3929 104.558 43.5334C104.78 43.684 105.172 43.7543 105.725 43.7543L104.669 48.714H103.362C101.37 48.714 99.9625 48.4229 99.158 47.8606C98.3534 47.2884 97.9511 46.5253 97.9511 45.5715C97.9511 45.3406 97.9712 45.0997 98.0115 44.8386C98.0517 44.5876 98.1221 44.3266 98.2026 44.0756C98.2227 44.0354 98.2428 43.9652 98.2629 43.8848H98.102C97.227 45.5615 96.1308 46.7864 94.7933 47.5594C93.4557 48.3325 91.8768 48.714 90.0464 48.714C88.6284 48.714 87.3914 48.443 86.3355 47.9008V47.9108ZM96.0806 43.0415C96.9153 42.6499 97.5489 42.1479 97.9612 41.5355C98.3735 40.9231 98.5847 40.2604 98.5847 39.5677C98.5847 39.0155 98.4138 38.5335 98.0618 38.1018C97.7098 37.6802 97.2069 37.3488 96.5331 37.1179C95.8593 36.887 95.0346 36.7665 94.029 36.7665C92.7115 36.7665 91.6555 36.9774 90.8409 37.399C90.0364 37.8207 89.4531 38.3327 89.1011 38.9452C88.7491 39.5476 88.5781 40.1801 88.5781 40.8327C88.5781 41.676 88.9603 42.3588 89.7246 42.8708C90.4889 43.3828 91.5751 43.6338 92.973 43.6338C94.1999 43.6338 95.2358 43.433 96.0806 43.0415Z" fill="#007BED"/>
<path fill-rule="evenodd" clip-rule="evenodd" d="M113.871 46.6835C116.615 43.8748 117.927 41.0048 117.927 38.182C117.927 35.3591 116.615 32.4891 113.871 29.6804C111.117 26.8617 107.024 24.2219 101.793 21.9572C91.3378 17.4309 76.74 14.5768 60.4997 14.5768C44.2593 14.5768 29.6616 17.4309 19.2065 21.9572C13.9753 24.2219 9.88205 26.8617 7.12822 29.6804C4.38415 32.4891 3.07204 35.3591 3.07204 38.182C3.07204 41.0048 4.38415 43.8748 7.12822 46.6835C9.88205 49.5022 13.9753 52.142 19.2065 54.4067C29.6616 58.933 44.2593 61.7872 60.4997 61.7872C76.74 61.7872 91.3378 58.933 101.793 54.4067C107.024 52.142 111.117 49.5022 113.871 46.6835ZM120.136 38.182C120.136 52.4409 93.4359 64.0001 60.4997 64.0001C27.5634 64.0001 0.863281 52.4409 0.863281 38.182C0.863281 23.923 27.5634 12.3638 60.4997 12.3638C93.4359 12.3638 120.136 23.923 120.136 38.182Z" fill="#007BED"/>
<path fill-rule="evenodd" clip-rule="evenodd" d="M111.695 46.1074C114.41 43.5409 115.773 40.8531 115.773 38.1557C115.773 35.4583 114.41 32.7704 111.695 30.204C108.979 27.6359 104.988 25.2713 99.963 23.2619C89.9197 19.2459 75.969 16.7372 60.5033 16.7372C45.0376 16.7372 31.0869 19.2459 21.0437 23.2619C16.0187 25.2713 12.0275 27.6359 9.31115 30.204C6.5965 32.7704 5.2339 35.4583 5.2339 38.1557C5.2339 40.8531 6.5965 43.5409 9.31115 46.1074C12.0275 48.6755 16.0187 51.0401 21.0437 53.0494C31.0869 57.0655 45.0376 59.5742 60.5033 59.5742C75.969 59.5742 89.9197 57.0655 99.963 53.0494C104.988 51.0401 108.979 48.6755 111.695 46.1074ZM116.886 38.1557C116.886 50.6074 91.6424 60.7015 60.5033 60.7015C29.3643 60.7015 4.12109 50.6074 4.12109 38.1557C4.12109 25.704 29.3643 15.6099 60.5033 15.6099C91.6424 15.6099 116.886 25.704 116.886 38.1557Z" fill="#007BED"/>
</svg>
