<svg width="100%" height="100%" viewBox="0 0 157 85" fill="none" xmlns="http://www.w3.org/2000/svg">
<g clip-path="url(#clip0_7386_28209)">
<path d="M23.66 62.8179C21.42 61.803 19.845 60.3682 18.9613 58.4959C18.06 56.6411 17.8413 54.4275 18.2525 51.8553L26.2413 49.983C26.0138 51.1291 26.1625 52.1528 26.6788 53.0889C27.195 54.0251 28.0875 54.7513 29.3563 55.2762C30.625 55.8011 32.235 56.0636 34.1863 56.0636C35.5163 56.0636 36.6538 55.9324 37.5638 55.6699C38.4738 55.4074 39.165 55.0487 39.6113 54.6025C40.0575 54.1563 40.3375 53.6664 40.4425 53.1414C40.5475 52.6427 40.5213 52.2228 40.3375 51.8641C40.1538 51.5228 39.76 51.2166 39.1475 50.9717C38.5438 50.7179 37.6425 50.4992 36.47 50.298L29.7763 49.3793C26.8188 48.9594 24.6575 48.102 23.2575 46.8071C21.8575 45.5122 21.3675 43.8674 21.7963 41.8638C22.4 39.1341 24.1238 37.0519 26.915 35.6083C29.715 34.1559 33.0925 33.4385 37.0563 33.4385C40.04 33.4385 42.5775 33.8059 44.66 34.5496C46.7425 35.2845 48.3263 36.5094 49.4025 38.2417C50.47 39.9653 50.8813 42.3013 50.6275 45.2497L42.2713 47.4633C42.665 46.0809 42.5513 44.9435 41.9388 44.0861C41.335 43.2287 40.3988 42.5988 39.1563 42.2051C37.9138 41.8201 36.5138 41.6276 34.9563 41.6276C33.3025 41.6276 32.0513 41.8376 31.1938 42.2751C30.3363 42.7125 29.7938 43.3424 29.61 44.1736C29.505 44.6461 29.5138 45.0573 29.6538 45.3897C29.8025 45.7222 30.1 46.0109 30.5813 46.2734C31.0538 46.5271 31.7275 46.7196 32.585 46.8508L39.025 47.717C41.4838 48.1107 43.435 48.6269 44.87 49.2831C46.305 49.9393 47.3288 50.7617 47.88 51.7591C48.4313 52.7565 48.5625 53.9551 48.2475 55.3462C47.8888 57.1748 46.9175 58.7846 45.3163 60.1669C43.7325 61.5406 41.7813 62.5817 39.48 63.2729C37.1875 63.9728 34.7813 64.314 32.27 64.314C28.7613 64.314 25.8825 63.8153 23.6338 62.7829L23.66 62.8267V62.8179Z" fill="#007BED"/>
<path d="M54.9151 63.1497C53.5413 62.4411 52.4738 61.4349 51.7213 60.1225C50.9688 58.8189 50.6013 57.3053 50.6013 55.573C50.6013 53.1233 51.1263 50.8573 52.1763 48.7487C53.2176 46.6577 54.7488 44.9691 56.7701 43.7268C58.7913 42.4756 61.1888 41.8457 63.9801 41.8457C65.5901 41.8457 67.0251 42.1782 68.2851 42.8431C69.5363 43.5168 70.5163 44.4792 71.2251 45.739C71.9338 47.0077 72.2926 48.5213 72.2926 50.2711H72.5026C72.6776 49.1249 72.8351 47.9788 73.0013 46.8064C73.1763 45.7828 73.3951 44.3567 73.6751 42.5544H81.2788L78.7676 54.2782L78.5926 54.9518C78.4176 55.678 78.3388 56.2205 78.3651 56.5704C78.3826 56.9379 78.5401 57.2179 78.8288 57.4016C79.1176 57.6028 79.6338 57.6903 80.3601 57.6903L78.9776 64.1996H77.2626C74.6463 64.1996 72.8001 63.8147 71.7413 63.0797C70.6826 62.3273 70.1576 61.3299 70.1576 60.0788C70.1576 59.7726 70.1838 59.4576 70.2363 59.1164C70.2888 58.7839 70.3851 58.4427 70.4901 58.119C70.5163 58.0665 70.5426 57.9703 70.5688 57.8653H70.3588C69.2126 60.0613 67.7688 61.6711 66.0188 62.686C64.2601 63.7009 62.1951 64.1996 59.7888 64.1996C57.9251 64.1996 56.3063 63.8409 54.9151 63.1322V63.1497ZM67.7076 56.7629C68.8013 56.2467 69.6326 55.5905 70.1751 54.7856C70.7176 53.9807 70.9976 53.1145 70.9976 52.2046C70.9976 51.4784 70.7701 50.8485 70.3151 50.2798C69.8513 49.7286 69.1951 49.2912 68.3113 48.985C67.4276 48.6787 66.3426 48.5213 65.0213 48.5213C63.2888 48.5213 61.9063 48.8012 60.8388 49.3524C59.7801 49.9036 59.0188 50.5773 58.5551 51.3822C58.0913 52.1696 57.8726 53.0008 57.8726 53.8582C57.8726 54.9693 58.3713 55.8617 59.3776 56.5354C60.3838 57.2091 61.8101 57.5328 63.6388 57.5328C65.2488 57.5328 66.6051 57.2703 67.7163 56.7542L67.7076 56.7629Z" fill="#007BED"/>
<path d="M84.7087 49.5107C84.7087 49.047 84.5775 48.7321 84.315 48.5746C84.0525 48.4171 83.5362 48.3208 82.7837 48.3208L84.1575 41.8115C87.0187 41.8115 89.0925 42.1002 90.3612 42.6689C91.63 43.2376 92.3387 44.1038 92.4962 45.2762C92.6537 46.4485 92.4087 48.0584 91.77 50.1144L91.6912 50.3244L90.7637 53.4041H91.0175C92.05 50.7268 93.1962 48.5308 94.4475 46.7898C95.6987 45.0487 97.0112 43.7976 98.3587 43.0101C99.7062 42.2315 101.062 41.8378 102.436 41.8378C104.772 41.8378 106.4 42.4852 107.284 43.7713C108.185 45.0662 108.447 46.7373 108.071 48.7758C107.712 50.8143 106.872 52.9404 105.56 55.1364L100.625 54.8039C101.299 53.579 101.657 52.5467 101.692 51.698C101.736 50.8581 101.491 50.2194 100.966 49.7994C100.441 49.3795 99.6362 49.1783 98.5337 49.1783C97.3087 49.1783 96.145 49.5632 95.06 50.2981C93.975 51.0506 93.0825 51.9955 92.365 53.1591C91.6475 54.3227 91.1662 55.5038 90.8862 56.7287L89.425 63.4918H81.865L84.3325 51.9342C84.5862 50.7618 84.7175 49.9569 84.7175 49.4932H84.7L84.7087 49.5107Z" fill="#007BED"/>
<path d="M112.228 63.1497C110.854 62.4411 109.786 61.4349 109.034 60.1225C108.281 58.8189 107.914 57.3053 107.914 55.573C107.914 53.1233 108.439 50.8573 109.48 48.7487C110.521 46.6577 112.053 44.9691 114.074 43.7268C116.095 42.4756 118.493 41.8457 121.284 41.8457C122.894 41.8457 124.338 42.1782 125.589 42.8431C126.84 43.5168 127.82 44.4792 128.529 45.739C129.246 47.0077 129.596 48.5213 129.596 50.2711H129.806C129.981 49.1249 130.139 47.9788 130.305 46.8064C130.48 45.7828 130.699 44.3567 130.979 42.5544H138.583L136.071 54.2782L135.896 54.9518C135.721 55.678 135.643 56.2205 135.669 56.5704C135.678 56.9379 135.844 57.2179 136.133 57.4016C136.421 57.6028 136.938 57.6903 137.664 57.6903L136.281 64.1996H134.566C131.95 64.1996 130.104 63.8147 129.045 63.0797C127.986 62.3273 127.461 61.3299 127.461 60.0788C127.461 59.7726 127.488 59.4576 127.54 59.1164C127.593 58.7839 127.689 58.4427 127.794 58.119C127.82 58.0665 127.846 57.9703 127.873 57.8653H127.663C126.516 60.0613 125.073 61.6711 123.323 62.686C121.564 63.7009 119.499 64.1996 117.093 64.1996C115.229 64.1996 113.61 63.8409 112.219 63.1322V63.1497H112.228ZM125.02 56.7629C126.114 56.2467 126.945 55.5905 127.488 54.7856C128.03 53.9807 128.301 53.1145 128.301 52.2046C128.301 51.4784 128.074 50.8485 127.619 50.2798C127.155 49.7286 126.499 49.2912 125.615 48.985C124.731 48.6787 123.646 48.5213 122.325 48.5213C120.593 48.5213 119.21 48.8012 118.143 49.3524C117.084 49.9036 116.323 50.5773 115.859 51.3822C115.395 52.1696 115.176 53.0008 115.176 53.8582C115.176 54.9693 115.675 55.8617 116.681 56.5354C117.688 57.2091 119.114 57.5328 120.943 57.5328C122.553 57.5328 123.909 57.2703 125.02 56.7542V56.7629Z" fill="#007BED"/>
<path fill-rule="evenodd" clip-rule="evenodd" d="M148.4 61.5403C152.005 57.8569 153.729 54.0861 153.729 50.3852C153.729 46.6844 152.005 42.9135 148.4 39.2301C144.786 35.5293 139.405 32.0646 132.536 29.0987C118.808 23.1581 99.6363 19.4134 78.3125 19.4134C56.9888 19.4134 37.8175 23.1581 24.0888 29.0987C17.22 32.0734 11.8475 35.538 8.225 39.2301C4.62 42.9135 2.89625 46.6844 2.89625 50.3852C2.89625 54.0861 4.62 57.8569 8.225 61.5403C11.8387 65.2412 17.22 68.7058 24.0888 71.6718C37.8175 77.6124 56.9888 81.357 78.3125 81.357C99.6363 81.357 118.808 77.6124 132.536 71.6718C139.405 68.6971 144.778 65.2324 148.4 61.5403ZM156.625 50.3852C156.625 69.0995 121.564 84.2704 78.3125 84.2704C35.0612 84.2704 0 69.0995 0 50.3852C0 31.6709 35.0612 16.5 78.3125 16.5C121.564 16.5 156.625 31.6709 156.625 50.3852Z" fill="#007BED"/>
<path fill-rule="evenodd" clip-rule="evenodd" d="M145.539 60.7878C149.1 57.4194 150.894 53.8935 150.894 50.3502C150.894 46.8068 149.109 43.2809 145.539 39.9125C141.969 36.5441 136.728 33.4382 130.13 30.8047C116.944 25.5377 98.6213 22.2393 78.3126 22.2393C58.0038 22.2393 39.6813 25.529 26.4951 30.8047C19.8976 33.4382 14.6563 36.5441 11.0863 39.9125C7.52506 43.2809 5.73131 46.8068 5.73131 50.3502C5.73131 53.8935 7.51631 57.4194 11.0863 60.7878C14.6563 64.1562 19.8976 67.2621 26.4951 69.8956C39.6813 75.1626 58.0038 78.461 78.3126 78.461C98.6213 78.461 116.944 75.1713 130.13 69.8956C136.728 67.2621 141.969 64.1562 145.539 60.7878ZM152.355 50.3502C152.355 66.6935 119.21 79.9396 78.3126 79.9396C37.4151 79.9396 4.27881 66.6935 4.27881 50.3502C4.27881 34.0069 37.4326 20.7607 78.3213 20.7607C119.21 20.7607 152.364 34.0069 152.364 50.3502H152.355Z" fill="#007BED"/>
<path d="M33.2676 8.88837C33.2676 10.5332 32.1213 12.5192 29.8026 13.2454C29.7851 13.2454 29.7851 13.2717 29.8026 13.2629C32.4626 12.423 33.7663 13.8841 33.7663 15.7039C33.7663 17.515 32.4626 19.7022 29.9513 20.4984C25.6113 21.8808 21.3151 23.4469 17.0801 25.1967C17.0801 21.8633 17.0801 18.5386 17.0801 15.2052C17.0801 13.9366 17.0801 12.6417 17.0801 11.3731C21.3151 9.61455 25.6113 8.04846 29.9513 6.67486C32.1476 5.97493 33.2676 7.26979 33.2676 8.88837ZM23.5026 15.2052C24.2463 14.934 24.9988 14.6628 25.7513 14.4003C26.3463 14.1903 26.6438 13.6916 26.6438 13.2454C26.6438 12.8255 26.3813 12.528 25.9001 12.6855C25.1038 12.9655 24.2988 13.2454 23.5026 13.5341C23.4851 13.5341 23.4851 13.5604 23.4851 13.5604V14.3741C23.4851 14.654 23.4851 14.9427 23.4851 15.1877C23.4851 15.2052 23.4851 15.2052 23.5026 15.1965V15.2052ZM23.5026 17.7862C24.2813 17.5062 25.0513 17.2263 25.8301 16.955C26.4251 16.7538 26.7138 16.2464 26.7138 15.8002C26.7138 15.3802 26.4513 15.0827 25.9701 15.2402C25.1388 15.5289 24.3163 15.8177 23.4938 16.1239C23.4938 16.1239 23.4851 16.1414 23.4763 16.1501C23.4763 16.4301 23.4763 16.7013 23.4763 16.9638V17.7774C23.4763 17.7774 23.4763 17.7949 23.4938 17.7862H23.5026Z" fill="#007BED"/>
<path d="M34.2476 10.8131C34.2476 9.79824 34.2476 8.78335 34.2476 7.76845C36.1638 7.21726 38.0976 6.70106 40.0313 6.21986V12.1168C40.0313 12.9479 40.4688 13.1141 40.9413 13.0004C41.2563 12.9217 41.6151 12.7117 41.8163 12.4755C41.3701 14.1028 40.9238 15.7214 40.4776 17.3487C39.8563 17.8474 38.9026 18.3286 37.9138 18.5911C36.1201 19.0548 34.2563 18.7486 34.2563 16.1063V10.7956L34.2476 10.8131ZM47.6438 9.53577C47.6438 11.6968 47.6438 13.8316 47.6438 15.9664C45.6926 16.3513 43.7501 16.7713 41.8076 17.2262V5.79991C43.7501 5.34496 45.6926 4.925 47.6438 4.54004V9.53577Z" fill="#007BED"/>
<path d="M54.495 14.7761C53.4363 14.9336 52.3775 15.1086 51.3188 15.2923C50.1988 11.6789 49.0788 8.07428 47.9675 4.47841C50.0325 4.07595 52.115 3.71724 54.1888 3.39352C54.5913 5.96575 54.9938 8.52924 55.3963 11.1015C55.3963 11.1365 55.405 11.1715 55.4138 11.2065C55.4138 11.1715 55.4225 11.1452 55.4313 11.1102C55.86 8.4155 56.2625 5.72078 56.6913 3.02606C58.6688 2.75484 60.6463 2.51861 62.6325 2.31738C61.25 7.00689 59.8763 11.7052 58.5025 16.4297C56.5775 16.6746 54.6525 16.9546 52.7363 17.2696C53.3225 16.4384 53.9175 15.6072 54.5038 14.7761H54.495Z" fill="#007BED"/>
<path d="M66.2026 7.73375C66.2026 3.55168 69.6414 1.15443 73.9114 1.03195C78.1989 0.90071 81.6289 3.08798 81.6289 7.27005C81.6289 11.4609 78.1989 13.4382 73.9114 13.5694C69.6239 13.6919 66.2026 11.9946 66.2026 7.73375ZM73.9289 8.67865C75.3551 8.6349 75.8801 7.91748 75.8801 7.23505C75.8801 6.61386 75.3814 5.87894 73.9289 5.91394C72.4501 5.95768 71.9426 6.70135 71.9426 7.36629C71.9426 8.04871 72.4764 8.72239 73.9289 8.67865Z" fill="#007BED"/>
<path d="M88.0863 8.47713C88.0863 8.57337 88.0863 8.64336 88.0863 8.73085C88.3926 7.12977 88.6901 5.51994 88.9963 3.91885C89.4951 1.28538 92.9513 1.29413 94.0101 2.30902C93.5726 4.55754 93.1438 6.7973 92.7063 9.04582C91.4113 7.7772 88.6113 7.90844 88.0863 8.78335V13.2104C86.1088 13.0966 84.1313 13.0179 82.1538 12.9742C82.1538 10.5419 82.1538 8.10967 82.1538 5.67742C82.1538 4.31256 82.1538 2.93021 82.1538 1.54785C84.1313 1.5916 86.1088 1.67034 88.0863 1.78408V8.47713Z" fill="#007BED"/>
<path d="M114.468 10.0432V16.955C111.869 16.36 109.261 15.8351 106.645 15.3801C105.936 13.0441 105.219 10.7081 104.51 8.38087C104.51 8.36337 104.475 8.35462 104.475 8.38087V15.0214C102.296 14.6715 100.109 14.3652 97.9214 14.1028V0.261719C100.468 0.567937 103.014 0.935399 105.543 1.3641C106.339 4.05007 107.135 6.73604 107.931 9.43951C107.931 9.45701 107.966 9.43951 107.966 9.43076V1.79281C110.136 2.19527 112.306 2.64147 114.468 3.13142V10.0432Z" fill="#007BED"/>
<path d="M114.975 11.3726C114.975 7.19056 118.361 5.8432 122.509 7.01558C126.674 8.18796 129.964 11.4251 129.964 15.6072C129.964 19.798 126.674 20.7254 122.509 19.553C118.344 18.3719 114.975 15.6334 114.975 11.3726ZM122.526 14.671C123.909 15.0647 124.425 14.5048 124.425 13.8136C124.425 13.1924 123.944 12.3 122.526 11.8976C121.091 11.4951 120.593 12.0813 120.593 12.7462C120.593 13.4287 121.109 14.2598 122.526 14.6623V14.671Z" fill="#007BED"/>
<path d="M130.489 10.0166C132.361 10.1478 134.234 10.3141 136.089 10.524V14.2512C136.089 15.1698 136.089 16.0797 136.089 16.9634V16.9984C136.089 17.917 136.859 18.6869 137.979 19.1332C138.924 19.5006 140.018 19.4394 140.394 18.8007V24.4089C139.475 24.8551 137.856 24.6101 136.386 24.0501C133.018 22.7553 130.489 20.0256 130.489 16.6834V10.0254V10.0166ZM137.235 12.5013C138.294 12.9125 139.344 13.3325 140.394 13.77V18.7832C138.976 18.197 137.541 17.6283 136.106 17.0771C136.483 15.546 136.859 14.0237 137.226 12.4926L137.235 12.5013Z" fill="#007BED"/>
</g>
<defs>
<clipPath id="clip0_7386_28209">
<rect width="156.625" height="84" fill="white" transform="translate(0 0.261719)"/>
</clipPath>
</defs>
</svg>
