<svg width="100%" height="100%" viewBox="0 0 157 85" fill="none" xmlns="http://www.w3.org/2000/svg">
<g clip-path="url(#clip0_7386_28202)">
<path d="M23.66 63.7616C21.42 62.7539 19.845 61.3293 18.9613 59.4704C18.06 57.6288 17.8413 55.4311 18.2525 52.8772L26.2413 51.0183C26.0138 52.1562 26.1625 53.1726 26.6788 54.102C27.195 55.0315 28.0875 55.7525 29.3563 56.2737C30.625 56.7949 32.235 57.0555 34.1863 57.0555C35.5163 57.0555 36.6538 56.9252 37.5638 56.6646C38.4738 56.404 39.165 56.0478 39.6113 55.6048C40.0575 55.1618 40.3375 54.6754 40.4425 54.1542C40.5475 53.659 40.5213 53.2421 40.3375 52.8859C40.1538 52.5471 39.76 52.2431 39.1475 51.9999C38.5438 51.748 37.6425 51.5308 36.47 51.331L29.7763 50.4189C26.8188 50.0019 24.6575 49.1506 23.2575 47.865C21.8575 46.5794 21.3675 44.9463 21.7963 42.9571C22.4 40.2468 24.1238 38.1794 26.915 36.7461C29.715 35.3041 33.0925 34.5918 37.0563 34.5918C40.04 34.5918 42.5775 34.9566 44.66 35.695C46.7425 36.4247 48.3263 37.6408 49.4025 39.3608C50.47 41.072 50.8813 43.3914 50.6275 46.3188L42.2713 48.5165C42.665 47.144 42.5513 46.0148 41.9388 45.1635C41.335 44.3122 40.3988 43.6867 39.1563 43.2958C37.9138 42.9136 36.5138 42.7225 34.9563 42.7225C33.3025 42.7225 32.0513 42.931 31.1938 43.3653C30.3363 43.7997 29.7938 44.4251 29.61 45.2503C29.505 45.7194 29.5138 46.1277 29.6538 46.4578C29.8025 46.7879 30.1 47.0745 30.5813 47.3351C31.0538 47.587 31.7275 47.7781 32.585 47.9084L39.025 48.7684C41.4838 49.1593 43.435 49.6718 44.87 50.3233C46.305 50.9748 47.3288 51.7914 47.88 52.7817C48.4313 53.7719 48.5625 54.962 48.2475 56.3432C47.8888 58.1587 46.9175 59.757 45.3163 61.1295C43.7325 62.4933 41.7813 63.5271 39.48 64.2133C37.1875 64.9082 34.7813 65.247 32.27 65.247C28.7613 65.247 25.8825 64.7519 23.6338 63.7269L23.66 63.7703V63.7616Z" fill="#007BED"/>
<path d="M54.9151 64.0832C53.5413 63.3796 52.4738 62.3806 51.7213 61.0776C50.9688 59.7833 50.6013 58.2805 50.6013 56.5605C50.6013 54.1283 51.1263 51.8784 52.1763 49.7849C53.2176 47.7088 54.7488 46.0323 56.7701 44.7988C58.7913 43.5566 61.1888 42.9312 63.9801 42.9312C65.5901 42.9312 67.0251 43.2612 68.2851 43.9214C69.5363 44.5903 70.5163 45.5458 71.2251 46.7967C71.9338 48.0563 72.2926 49.5591 72.2926 51.2964H72.5026C72.6776 50.1585 72.8351 49.0205 73.0013 47.8565C73.1763 46.8402 73.3951 45.4242 73.6751 43.6348H81.2788L78.7676 55.2749L78.5926 55.9438C78.4176 56.6648 78.3388 57.2033 78.3651 57.5508C78.3826 57.9156 78.5401 58.1936 78.8288 58.376C79.1176 58.5758 79.6338 58.6627 80.3601 58.6627L78.9776 65.1256H77.2626C74.6463 65.1256 72.8001 64.7434 71.7413 64.0137C70.6826 63.2666 70.1576 62.2763 70.1576 61.0342C70.1576 60.7301 70.1838 60.4174 70.2363 60.0786C70.2888 59.7485 70.3851 59.4097 70.4901 59.0883C70.5163 59.0362 70.5426 58.9407 70.5688 58.8364H70.3588C69.2126 61.0168 67.7688 62.6151 66.0188 63.6228C64.2601 64.6304 62.1951 65.1256 59.7888 65.1256C57.9251 65.1256 56.3063 64.7694 54.9151 64.0658V64.0832ZM67.7076 57.7419C68.8013 57.2294 69.6326 56.5779 70.1751 55.7787C70.7176 54.9796 70.9976 54.1196 70.9976 53.2162C70.9976 52.4952 70.7701 51.8697 70.3151 51.3051C69.8513 50.7578 69.1951 50.3235 68.3113 50.0195C67.4276 49.7154 66.3426 49.5591 65.0213 49.5591C63.2888 49.5591 61.9063 49.837 60.8388 50.3843C59.7801 50.9316 59.0188 51.6004 58.5551 52.3996C58.0913 53.1814 57.8726 54.0066 57.8726 54.8579C57.8726 55.9611 58.3713 56.8472 59.3776 57.5161C60.3838 58.1849 61.8101 58.5063 63.6388 58.5063C65.2488 58.5063 66.6051 58.2457 67.7163 57.7332L67.7076 57.7419Z" fill="#007BED"/>
<path d="M84.7087 50.549C84.7087 50.0887 84.5775 49.7759 84.315 49.6196C84.0525 49.4632 83.5362 49.3677 82.7837 49.3677L84.1575 42.9048C87.0187 42.9048 89.0925 43.1914 90.3612 43.7561C91.63 44.3207 92.3387 45.1807 92.4962 46.3447C92.6537 47.5087 92.4087 49.1071 91.77 51.1484L91.6912 51.3569L90.7637 54.4146H91.0175C92.05 51.7565 93.1962 49.5761 94.4475 47.8475C95.6987 46.1188 97.0112 44.8767 98.3587 44.0949C99.7062 43.3217 101.062 42.9308 102.436 42.9308C104.772 42.9308 106.4 43.5737 107.284 44.8506C108.185 46.1362 108.447 47.7954 108.071 49.8194C107.712 51.8434 106.872 53.9542 105.56 56.1346L100.625 55.8045C101.299 54.5883 101.657 53.5633 101.692 52.7207C101.736 51.8868 101.491 51.2527 100.966 50.8357C100.441 50.4187 99.6362 50.219 98.5337 50.219C97.3087 50.219 96.145 50.6012 95.06 51.3308C93.975 52.0779 93.0825 53.0161 92.365 54.1714C91.6475 55.3267 91.1662 56.4994 90.8862 57.7155L89.425 64.4303H81.865L84.3325 52.9553C84.5862 51.7912 84.7175 50.9921 84.7175 50.5317H84.7L84.7087 50.549Z" fill="#007BED"/>
<path d="M112.228 64.0832C110.854 63.3796 109.786 62.3806 109.034 61.0776C108.281 59.7833 107.914 58.2805 107.914 56.5605C107.914 54.1283 108.439 51.8784 109.48 49.7849C110.521 47.7088 112.053 46.0323 114.074 44.7988C116.095 43.5566 118.493 42.9312 121.284 42.9312C122.894 42.9312 124.338 43.2612 125.589 43.9214C126.84 44.5903 127.82 45.5458 128.529 46.7967C129.246 48.0563 129.596 49.5591 129.596 51.2964H129.806C129.981 50.1585 130.139 49.0205 130.305 47.8565C130.48 46.8402 130.699 45.4242 130.979 43.6348H138.583L136.071 55.2749L135.896 55.9438C135.721 56.6648 135.643 57.2033 135.669 57.5508C135.678 57.9156 135.844 58.1936 136.133 58.376C136.421 58.5758 136.938 58.6627 137.664 58.6627L136.281 65.1256H134.566C131.95 65.1256 130.104 64.7434 129.045 64.0137C127.986 63.2666 127.461 62.2763 127.461 61.0342C127.461 60.7301 127.488 60.4174 127.54 60.0786C127.593 59.7485 127.689 59.4097 127.794 59.0883C127.82 59.0362 127.846 58.9407 127.873 58.8364H127.663C126.516 61.0168 125.073 62.6151 123.323 63.6228C121.564 64.6304 119.499 65.1256 117.093 65.1256C115.229 65.1256 113.61 64.7694 112.219 64.0658V64.0832H112.228ZM125.02 57.7419C126.114 57.2294 126.945 56.5779 127.488 55.7787C128.03 54.9796 128.301 54.1196 128.301 53.2162C128.301 52.4952 128.074 51.8697 127.619 51.3051C127.155 50.7578 126.499 50.3235 125.615 50.0195C124.731 49.7154 123.646 49.5591 122.325 49.5591C120.593 49.5591 119.21 49.837 118.143 50.3843C117.084 50.9316 116.323 51.6004 115.859 52.3996C115.395 53.1814 115.176 54.0066 115.176 54.8579C115.176 55.9611 115.675 56.8472 116.681 57.5161C117.688 58.1849 119.114 58.5063 120.943 58.5063C122.553 58.5063 123.909 58.2457 125.02 57.7332V57.7419Z" fill="#007BED"/>
<path fill-rule="evenodd" clip-rule="evenodd" d="M148.4 62.224C152.005 58.6538 153.729 54.9967 153.729 51.4091C153.729 47.8215 152.005 44.1644 148.4 40.5942C144.786 37.0066 139.405 33.6449 132.536 30.7696C118.808 25.0103 99.6363 21.3793 78.3125 21.3793C56.9888 21.3793 37.8175 25.0103 24.0888 30.7696C17.22 33.6536 11.8475 37.0066 8.225 40.5942C4.62 44.1644 2.89625 47.8215 2.89625 51.4091C2.89625 54.9967 4.62 58.6538 8.225 62.224C11.8387 65.8116 17.22 69.1733 24.0888 72.0486C37.8175 77.8079 56.9888 81.4389 78.3125 81.4389C99.6363 81.4389 118.808 77.8079 132.536 72.0486C139.405 69.1646 144.778 65.8116 148.4 62.224ZM156.625 51.4091C156.625 69.5555 121.564 84.262 78.3125 84.262C35.0612 84.262 0 69.5555 0 51.4091C0 33.2627 35.0612 18.5562 78.3125 18.5562C121.564 18.5562 156.625 33.2627 156.625 51.4091Z" fill="#007BED"/>
<path fill-rule="evenodd" clip-rule="evenodd" d="M145.539 61.4946C149.1 58.2284 150.894 54.8059 150.894 51.3747C150.894 47.9434 149.109 44.5209 145.539 41.2547C141.969 37.9885 136.728 34.9742 130.13 32.4204C116.944 27.3126 98.6213 24.1159 78.3126 24.1159C58.0038 24.1159 39.6813 27.3126 26.4951 32.4204C19.8976 34.9742 14.6563 37.9885 11.0863 41.2547C7.52506 44.5209 5.73131 47.9434 5.73131 51.3747C5.73131 54.8059 7.51631 58.2284 11.0863 61.4946C14.6563 64.7608 19.8976 67.7751 26.4951 70.329C39.6813 75.4367 58.0038 78.6334 78.3126 78.6334C98.6213 78.6334 116.944 75.4367 130.13 70.329C136.728 67.7751 141.969 64.7608 145.539 61.4946ZM152.355 51.3747C152.355 67.2191 119.21 80.0667 78.3126 80.0667C37.4151 80.0667 4.27881 67.2191 4.27881 51.3747C4.27881 35.5302 37.4326 22.6826 78.3213 22.6826C119.21 22.6826 152.364 35.5302 152.364 51.3747H152.355Z" fill="#007BED"/>
<path d="M29.2162 10.4255C29.9249 10.4863 30.4149 10.799 30.6862 11.3723C30.9487 11.9456 31.0887 12.8925 31.0887 14.2215C31.0887 15.9241 31.0624 17.2097 31.0099 18.061C30.9574 18.9123 30.8612 19.5812 30.7037 20.059C30.5549 20.5367 30.3274 20.9884 30.0124 21.4054C29.6712 21.8571 29.0587 22.2914 28.1662 22.7258C27.2737 23.1601 26.0049 23.6466 24.3687 24.2025C24.1587 22.83 23.8962 21.7876 23.5724 21.0927C23.2924 22.0569 22.9074 23.2209 22.4349 24.5673C20.8162 24.4544 19.1449 24.5152 17.4299 24.7411C18.2524 23.2296 18.8912 21.8484 19.3462 20.6062C19.8099 19.364 20.1512 18.0437 20.3699 16.6538C19.5824 16.9752 18.7949 17.2966 18.0074 17.6267C18.0337 16.1587 17.8587 14.8383 17.4912 13.6743C18.8737 13.1791 19.9499 12.8143 20.7199 12.5711C20.7287 12.0586 20.7374 11.2507 20.7374 10.1475C22.3124 9.66972 23.8962 9.20933 25.4887 8.77499C25.4624 9.41781 25.4099 10.1996 25.3312 11.1204C25.5324 11.0683 25.7337 11.0075 25.9349 10.9553C27.4049 10.5558 28.4987 10.3907 29.2162 10.4515V10.4255ZM26.6787 18.0523C26.7749 17.5485 26.8274 16.9144 26.8274 16.1587C26.8274 15.6288 26.8012 15.2552 26.7399 15.0468C26.6787 14.8383 26.5649 14.7254 26.3899 14.6993C26.2149 14.6732 25.9174 14.7167 25.4887 14.8383C25.2437 14.9078 25.0424 14.9686 24.8849 15.0207C24.6137 16.7928 24.2812 18.3911 23.8962 19.8331C24.4474 19.7376 24.8937 19.6507 25.2087 19.5638C25.7774 19.4075 26.1362 19.2424 26.2762 19.0774C26.4424 18.9036 26.5737 18.5562 26.6699 18.0523H26.6787ZM34.7549 7.33301C35.3412 9.19195 35.7612 10.799 36.0237 12.1454C36.2862 13.4918 36.5137 15.2987 36.7062 17.5659C35.1749 18.1132 33.6437 18.6691 32.1124 19.2511C32.0512 17.1055 31.8762 15.2726 31.5962 13.7524C31.3162 12.2323 30.8524 10.5644 30.2049 8.74893C31.7187 8.26248 33.2324 7.7934 34.7462 7.33301H34.7549Z" fill="#007BED"/>
<path d="M40.635 17.8521C40.2587 17.2093 39.7425 16.636 39.0775 16.1496C42.0963 15.4894 44.3888 15.0203 45.9375 14.6554C47.4862 14.2993 48.58 13.9692 49.2013 13.6652C49.8225 13.3611 50.1375 13.005 50.1375 12.5967C50.1375 12.0408 49.8925 11.7194 49.3938 11.6412C48.9038 11.563 48.195 11.5977 47.2937 11.7367C44.3975 12.1971 41.4575 13.4219 38.465 15.4286C38.185 13.9866 37.905 12.5533 37.625 11.1113C39.9087 10.1123 41.6762 9.43476 42.9012 9.02649C44.135 8.61822 45.5087 8.28812 47.04 8.0449C49.7612 7.61056 51.835 7.72349 53.2612 8.31418C54.6875 8.90488 55.3963 10.0949 55.3963 11.8497C55.3963 13.8042 54.3025 15.4112 52.1325 16.7316C49.9538 18.0519 46.48 19.1291 41.7375 20.1715C41.37 19.2681 41.0025 18.4863 40.6263 17.8434L40.635 17.8521ZM53.305 7.42814C51.59 7.34997 49.9012 7.36734 48.23 7.48027C46.5675 7.59319 44.8 7.81036 42.9362 8.14914C41.7375 8.3663 40.8275 8.55741 40.1888 8.70508C40.2588 7.49764 40.3288 6.29019 40.4075 5.09143C40.81 5.01325 41.2212 4.93507 41.6237 4.85689C43.8462 4.43993 45.955 4.17065 47.9237 4.04035C49.9013 3.91005 51.975 3.91873 54.1537 4.06641C53.8737 5.18699 53.585 6.30757 53.305 7.43683V7.42814Z" fill="#007BED"/>
<path d="M68.6525 4.48392C69.3787 4.6924 69.8862 5.10936 70.1575 5.7348C70.4287 6.36024 70.5687 7.34183 70.5687 8.67089C70.5687 10.3735 70.5425 11.6504 70.49 12.493C70.4375 13.3356 70.3325 13.9784 70.1837 14.4301C70.035 14.8819 69.7987 15.2814 69.475 15.6289C69.1337 16.0111 68.5037 16.3238 67.585 16.5758C66.6662 16.8277 65.3712 17.0535 63.6912 17.262C63.4812 15.8461 63.21 14.7516 62.8775 13.9871C62.5887 14.8992 62.195 15.9764 61.705 17.2273C60.0337 16.7842 58.3187 16.4889 56.5425 16.3586C57.3912 15.0122 58.0475 13.77 58.5287 12.6233C59.0012 11.4767 59.3512 10.2258 59.5787 8.87937C58.765 9.03573 57.9512 9.19209 57.1375 9.35714C57.1637 7.89778 56.9887 6.54266 56.6037 5.29178C58.03 5.0833 59.1412 4.94431 59.9375 4.85745C59.9462 4.34493 59.955 3.53707 59.955 2.43387C61.5825 2.2862 63.21 2.14721 64.8462 2.04297C64.82 2.68578 64.7675 3.45889 64.6887 4.36231C64.89 4.34493 65.1 4.33625 65.3012 4.31887C66.815 4.22332 67.935 4.28413 68.6612 4.48392H68.6525ZM66.0625 11.5896C66.1587 11.1032 66.2112 10.4777 66.2112 9.72198C66.2112 9.19209 66.185 8.80988 66.1237 8.59271C66.0625 8.37554 65.9487 8.23656 65.765 8.17575C65.59 8.11494 65.275 8.09757 64.8375 8.13232C64.5837 8.14969 64.3825 8.16706 64.225 8.19312C63.945 9.9044 63.6125 11.4419 63.21 12.7971C63.7787 12.8231 64.2337 12.8231 64.5662 12.7971C65.1525 12.7536 65.5112 12.6668 65.66 12.5278C65.835 12.3888 65.9662 12.0761 66.0712 11.5809L66.0625 11.5896ZM74.305 2.52073C74.9 4.50129 75.3375 6.19519 75.6 7.59374C75.8625 8.9923 76.0987 10.8512 76.3 13.1532C74.7425 13.3877 73.1762 13.631 71.6187 13.9003C71.5487 11.746 71.3737 9.86965 71.0937 8.29736C70.805 6.71639 70.3325 4.953 69.6675 3.00719C71.2162 2.82477 72.7562 2.66841 74.305 2.52942V2.52073Z" fill="#007BED"/>
<path d="M87.115 11.4247C87.115 11.6331 87.4825 11.7895 88.2175 11.8937C88.9525 11.998 89.915 12.0849 91.1138 12.163C93.9138 12.3455 96.6 12.4149 99.1813 12.3628C99.0063 13.0491 98.9013 13.7353 98.8575 14.4389C98.8138 15.1339 98.7875 16.0112 98.7875 17.071C95.935 16.9668 93.0475 16.8365 90.1425 16.6627C87.395 16.4977 85.3475 16.0547 84 15.2468C82.6525 14.4476 81.9788 13.2923 81.9788 11.7548C81.9788 10.2172 82.88 8.83604 84.6825 7.64597C84.14 6.37772 83.3613 4.81412 82.355 2.95517C82.2763 2.78144 82.1538 2.55559 81.9963 2.26024C83.8338 1.99095 85.6713 1.75642 87.5088 1.53925C88.13 3.07679 88.6463 4.44928 89.04 5.65673C91.3238 4.90967 94.22 4.26686 97.7463 3.81515C98.07 5.32663 98.3938 6.8468 98.7175 8.36696C95.1475 8.87079 92.4963 9.39199 90.7725 9.81764C89.0488 10.2433 87.885 10.7037 87.29 11.1728C87.1675 11.2596 87.1063 11.3378 87.1063 11.416L87.115 11.4247ZM97.23 0.653209C97.2388 1.574 97.1338 2.46872 96.8888 3.33739C96.3288 3.20709 95.76 3.07679 95.2 2.95517C95.4363 2.11257 95.5588 1.22653 95.5588 0.270996C96.1188 0.401296 96.67 0.522909 97.23 0.661896V0.653209ZM99.435 1.16572C99.4438 2.09519 99.3388 2.98123 99.0938 3.84121C98.5338 3.70223 97.9738 3.57193 97.405 3.43294C97.6325 2.59902 97.7463 1.7043 97.7638 0.757449C98.3238 0.887749 98.875 1.02674 99.4263 1.16572H99.435Z" fill="#007BED"/>
<path d="M104.134 15.9238C103.757 15.1594 103.232 14.4211 102.559 13.7087C105.612 14.0302 107.905 14.2994 109.454 14.4471C111.002 14.5861 112.087 14.6208 112.717 14.5166C113.339 14.4124 113.654 14.1605 113.654 13.7522C113.654 13.1962 113.409 12.7966 112.919 12.5534C112.429 12.3189 111.729 12.1191 110.819 11.9714C107.931 11.4936 104.974 11.7629 101.946 12.7966C101.666 11.2678 101.377 9.73894 101.097 8.2014C103.407 7.94949 105.184 7.83656 106.417 7.83656C107.651 7.83656 109.034 7.94949 110.565 8.2014C113.286 8.65311 115.351 9.43491 116.76 10.486C118.169 11.5371 118.877 12.953 118.877 14.7164C118.877 16.6709 117.801 17.9305 115.64 18.5385C113.479 19.1553 110.022 19.1118 105.254 18.6167C104.886 17.5917 104.51 16.697 104.134 15.9325V15.9238ZM116.804 9.59996C115.106 8.96583 113.417 8.43594 111.764 8.0103C110.101 7.58465 108.334 7.2285 106.47 6.9679C105.271 6.79416 104.344 6.68992 103.705 6.62912C103.775 5.44773 103.854 4.26635 103.924 3.08496C104.335 3.13708 104.746 3.1892 105.149 3.25001C107.389 3.55404 109.497 3.971 111.466 4.47483C113.435 4.98734 115.5 5.65621 117.661 6.5075C117.381 7.54122 117.101 8.56624 116.821 9.59996H116.804Z" fill="#007BED"/>
<path d="M131.871 11.5982C132.58 12.0413 133.07 12.6146 133.332 13.3269C133.595 14.0392 133.726 15.0642 133.726 16.3933C133.726 18.0959 133.7 19.3641 133.647 20.1893C133.595 21.0146 133.499 21.6226 133.35 22.0309C133.201 22.4305 132.974 22.7519 132.667 23.0038C132.335 23.2731 131.722 23.386 130.83 23.3426C129.937 23.2992 128.669 23.1081 127.024 22.778C126.814 21.2925 126.551 20.1112 126.227 19.2425C125.939 20.059 125.562 21.0059 125.081 22.1004C123.445 21.1188 121.747 20.2762 120.006 19.5726C120.837 18.5041 121.494 17.4704 121.966 16.4801C122.439 15.4812 122.78 14.3519 122.999 13.075C122.202 12.9707 121.397 12.8665 120.592 12.7709C120.619 11.3203 120.444 9.90434 120.067 8.54053C121.476 8.79244 122.57 9.00961 123.349 9.17466C123.357 8.67083 123.366 7.86297 123.366 6.75977C124.967 7.13329 126.56 7.52419 128.152 7.94115C128.126 8.57528 128.074 9.33102 127.995 10.2084C128.196 10.2605 128.397 10.3126 128.599 10.3647C130.077 10.7469 131.162 11.1726 131.871 11.6156V11.5982ZM129.342 17.87C129.439 17.4096 129.491 16.8102 129.491 16.0545C129.491 15.5246 129.465 15.1337 129.404 14.8992C129.342 14.6646 129.229 14.4822 129.054 14.3693C128.879 14.2477 128.581 14.1347 128.152 14.0218C127.907 13.961 127.706 13.9089 127.549 13.8828C127.277 15.5072 126.945 16.9318 126.56 18.1653C127.12 18.3738 127.557 18.5128 127.881 18.5997C128.45 18.7474 128.809 18.7734 128.949 18.6865C129.115 18.5997 129.246 18.3304 129.342 17.87ZM137.349 11.4506C137.926 13.6222 138.337 15.4551 138.6 16.9405C138.854 18.426 139.081 20.3544 139.274 22.7258C137.769 22.4566 136.264 22.2046 134.75 21.9701C134.689 19.7898 134.514 17.8613 134.242 16.1935C133.962 14.5256 133.507 12.6059 132.86 10.4429C134.365 10.7643 135.861 11.0944 137.349 11.4506Z" fill="#007BED"/>
</g>
<defs>
<clipPath id="clip0_7386_28202">
<rect width="156.625" height="84" fill="white" transform="translate(0 0.262207)"/>
</clipPath>
</defs>
</svg>
