<svg width="134" height="18" viewBox="0 0 134 18" fill="none" xmlns="http://www.w3.org/2000/svg">
<path d="M3.99877 17.1319C2.69276 16.5403 1.77854 15.7029 1.26382 14.612C0.741413 13.5288 0.610811 12.2382 0.848967 10.7401L5.49685 9.64917C5.36625 10.3175 5.45076 10.9168 5.75038 11.4622C6.04999 12.0077 6.5724 12.4302 7.30992 12.7375C8.04743 13.0448 8.98469 13.1985 10.1217 13.1985C10.8976 13.1985 11.5583 13.1216 12.0884 12.968C12.6185 12.8143 13.018 12.6069 13.2792 12.3457C13.5404 12.0845 13.7017 11.8003 13.7632 11.493C13.8246 11.201 13.8093 10.9552 13.7017 10.7478C13.5942 10.548 13.3637 10.3713 13.0103 10.2254C12.6569 10.0794 12.1345 9.94878 11.4508 9.83355L7.55575 9.29578C5.83488 9.04994 4.57496 8.55058 3.76062 7.7977C2.94628 7.04481 2.66203 6.08451 2.90787 4.91677C3.26126 3.3265 4.25998 2.11268 5.88866 1.26761C7.51734 0.422535 9.48405 0 11.7888 0C13.525 0 15.0001 0.215109 16.2139 0.645327C17.4277 1.07554 18.3496 1.79001 18.9719 2.79641C19.5942 3.80282 19.8323 5.16261 19.6864 6.88348L14.8234 8.17414C15.0538 7.36748 14.9847 6.70679 14.6313 6.20743C14.2779 5.70807 13.7325 5.33931 13.0103 5.10883C12.2881 4.88604 11.4738 4.77081 10.5673 4.77081C9.60697 4.77081 8.87714 4.89373 8.37778 5.14725C7.87842 5.40077 7.56344 5.76953 7.45588 6.25352C7.39442 6.53009 7.4021 6.76825 7.47893 6.96031C7.56344 7.15237 7.74013 7.32138 8.0167 7.47503C8.29327 7.621 8.68507 7.73624 9.18443 7.81306L12.9335 8.3201C14.3624 8.55058 15.4994 8.85019 16.3368 9.23431C17.1742 9.61844 17.7657 10.0948 18.0884 10.6786C18.4111 11.2625 18.4879 11.9616 18.3035 12.7682C18.0961 13.8361 17.5276 14.7734 16.598 15.58C15.6761 16.379 14.5391 16.9859 13.2024 17.3931C11.8656 17.8003 10.4674 18 9.00774 18C6.9642 18 5.28943 17.7081 3.98341 17.1088L3.99877 17.1319Z" fill="#EF2B00"/>
<path d="M22.1899 17.3241C21.3909 16.9092 20.7686 16.3253 20.3307 15.5571C19.8928 14.7965 19.6777 13.913 19.6777 12.9066C19.6777 11.4777 19.985 10.1563 20.5919 8.92713C21.1989 7.70562 22.09 6.72226 23.2654 6.00011C24.4409 5.27028 25.8391 4.90152 27.4601 4.90152C28.3973 4.90152 29.2347 5.09358 29.9645 5.48539C30.6944 5.87719 31.2629 6.43801 31.6777 7.17553C32.0926 7.91304 32.3 8.79653 32.3 9.81829H32.4229C32.5228 9.14992 32.615 8.48155 32.7149 7.79781C32.8147 7.19858 32.9453 6.36887 33.1067 5.31637H37.5318L36.0721 12.1538L35.9722 12.5456C35.8724 12.9681 35.8263 13.2831 35.8416 13.4905C35.8493 13.7056 35.9415 13.8669 36.1105 13.9745C36.2795 14.0897 36.5791 14.1435 37.0017 14.1435L36.195 17.9387H35.1963C33.6752 17.9387 32.5996 17.7159 31.985 17.2856C31.3704 16.8477 31.0631 16.2639 31.0631 15.534C31.0631 15.3573 31.0785 15.173 31.1092 14.9732C31.14 14.7812 31.1937 14.5814 31.2552 14.3894C31.2706 14.3586 31.2859 14.3048 31.3013 14.2434H31.1784C30.51 15.5264 29.6726 16.4636 28.6508 17.0552C27.6291 17.6467 26.4229 17.9387 25.0247 17.9387C23.9415 17.9387 22.9966 17.7312 22.1899 17.3164V17.3241ZM29.6342 13.5981C30.2718 13.2984 30.7558 12.9143 31.0708 12.4457C31.3858 11.9771 31.5471 11.47 31.5471 10.9399C31.5471 10.5174 31.4165 10.1486 31.1476 9.81829C30.8788 9.49563 30.4946 9.24211 29.9799 9.06541C29.4652 8.88872 28.8352 8.79653 28.067 8.79653C27.0606 8.79653 26.2539 8.95786 25.6316 9.28052C25.017 9.60318 24.5715 9.99499 24.3026 10.4636C24.0337 10.9246 23.9031 11.4086 23.9031 11.9079C23.9031 12.5532 24.195 13.0757 24.7789 13.4675C25.3628 13.8593 26.1925 14.0513 27.2603 14.0513C28.1976 14.0513 28.9889 13.8977 29.6342 13.5981Z" fill="#EF2B00"/>
<path d="M39.5306 9.37236C39.5306 9.10347 39.4538 8.91909 39.3002 8.8269C39.1465 8.73472 38.8469 8.68094 38.409 8.68094L39.208 4.8858C40.8751 4.8858 42.0812 5.05482 42.8187 5.38516C43.5562 5.71551 43.9711 6.22255 44.0633 6.90629C44.1555 7.59003 44.0095 8.52729 43.6407 9.72575L43.5947 9.84867L43.0569 11.6464H43.2028C43.8021 10.0868 44.4705 8.80386 45.2003 7.78977C45.9301 6.77569 46.6907 6.04585 47.4743 5.58491C48.2579 5.13164 49.0492 4.90117 49.8482 4.90117C51.208 4.90117 52.1529 5.27761 52.6676 6.03049C53.19 6.78337 53.3437 7.75904 53.1286 8.94982C52.9212 10.1406 52.4295 11.3775 51.6689 12.6604L48.7957 12.4684C49.1875 11.7539 49.3949 11.1547 49.418 10.6553C49.441 10.1637 49.3027 9.79489 48.9954 9.54906C48.6881 9.30322 48.2195 9.18798 47.5819 9.18798C46.8674 9.18798 46.1913 9.41077 45.5614 9.84099C44.9314 10.2789 44.409 10.832 43.9941 11.5081C43.5793 12.1841 43.295 12.8756 43.1337 13.59L42.281 17.5311H37.8789L39.3155 10.7936C39.4615 10.1099 39.5383 9.64124 39.5383 9.37236H39.5306Z" fill="#EF2B00"/>
<path d="M55.5502 17.3241C54.7513 16.9092 54.129 16.3253 53.6911 15.5571C53.2532 14.7965 53.0381 13.913 53.0381 12.9066C53.0381 11.4777 53.3454 10.1563 53.9523 8.92713C54.5592 7.70562 55.4504 6.72226 56.6258 6.00011C57.8012 5.27028 59.1994 4.90152 60.8204 4.90152C61.7577 4.90152 62.5951 5.09358 63.3249 5.48539C64.0547 5.87719 64.6232 6.43801 65.0381 7.17553C65.4529 7.91304 65.6604 8.79653 65.6604 9.81829H65.7833C65.8832 9.14992 65.9753 8.48155 66.0752 7.79781C66.1751 7.19858 66.3057 6.36887 66.467 5.31637H70.8921L69.4325 12.1538L69.3326 12.5456C69.2327 12.9681 69.1866 13.2831 69.202 13.4905C69.2097 13.7056 69.3019 13.8669 69.4709 13.9745C69.6399 14.0897 69.9395 14.1435 70.362 14.1435L69.5554 17.9387H68.5567C67.0355 17.9387 65.96 17.7159 65.3454 17.2856C64.7308 16.8477 64.4235 16.2639 64.4235 15.534C64.4235 15.3573 64.4389 15.173 64.4696 14.9732C64.5003 14.7812 64.5541 14.5814 64.6156 14.3894C64.6309 14.3586 64.6463 14.3048 64.6616 14.2434H64.5387C63.8704 15.5264 63.033 16.4636 62.0112 17.0552C60.9894 17.6467 59.7833 17.9387 58.3851 17.9387C57.3019 17.9387 56.3569 17.7312 55.5502 17.3164V17.3241ZM62.9946 13.5981C63.6322 13.2984 64.1162 12.9143 64.4312 12.4457C64.7462 11.9771 64.9075 11.47 64.9075 10.9399C64.9075 10.5174 64.7769 10.1486 64.508 9.81829C64.2391 9.49563 63.855 9.24211 63.3403 9.06541C62.8255 8.88872 62.1956 8.79653 61.4273 8.79653C60.4209 8.79653 59.6143 8.95786 58.992 9.28052C58.3774 9.60318 57.9318 9.99499 57.6629 10.4636C57.394 10.9246 57.2634 11.4086 57.2634 11.9079C57.2634 12.5532 57.5554 13.0757 58.1392 13.4675C58.7231 13.8593 59.5528 14.0513 60.6207 14.0513C61.5579 14.0513 62.3492 13.8977 62.9946 13.5981Z" fill="#EF2B00"/>
<path d="M124.803 11.3917C124.803 11.8081 124.833 12.1899 124.892 12.5369C124.962 12.8839 125.076 13.2111 125.234 13.5185C125.393 13.8159 125.601 14.1084 125.859 14.3959C126.127 14.6736 126.459 14.9512 126.855 15.2288C127.173 15.4568 127.381 15.7146 127.48 16.0022C127.589 16.2897 127.545 16.5921 127.346 16.9094C127.237 17.0779 127.103 17.2019 126.945 17.2812C126.796 17.3704 126.632 17.42 126.454 17.4299C126.345 17.4299 126.231 17.415 126.112 17.3853C125.993 17.3655 125.879 17.3159 125.77 17.2366C125.324 16.9193 124.922 16.5723 124.565 16.1955C124.218 15.8286 123.916 15.437 123.658 15.0206C123.4 15.4667 123.103 15.8782 122.766 16.255C122.438 16.6318 122.067 16.954 121.65 17.2217C121.382 17.3902 121.085 17.4844 120.758 17.5043C120.589 17.5142 120.416 17.4844 120.237 17.415C120.059 17.3456 119.91 17.2118 119.791 17.0135C119.593 16.6962 119.543 16.3938 119.642 16.1063C119.751 15.8187 119.965 15.5609 120.282 15.3329C120.678 15.0553 121.006 14.7727 121.263 14.4852C121.531 14.1877 121.744 13.8804 121.903 13.5631C122.062 13.2458 122.171 12.9087 122.23 12.5518C122.3 12.1948 122.334 11.8081 122.334 11.3917V6.30534C122.334 6.05747 122.369 5.84926 122.438 5.6807C122.508 5.51215 122.597 5.3783 122.706 5.27915C122.825 5.18 122.959 5.11059 123.108 5.07093C123.256 5.03127 123.41 5.01144 123.569 5.01144C123.727 5.01144 123.881 5.03127 124.03 5.07093C124.178 5.11059 124.307 5.18 124.416 5.27915C124.535 5.3783 124.63 5.51215 124.699 5.6807C124.768 5.84926 124.803 6.05747 124.803 6.30534V11.3917ZM128.566 6.30534C128.566 5.8096 128.685 5.47249 128.923 5.29402C129.171 5.10564 129.453 5.01144 129.77 5.01144C129.929 5.01144 130.078 5.03127 130.217 5.07093C130.365 5.11059 130.494 5.18 130.603 5.27915C130.712 5.3783 130.802 5.51215 130.871 5.6807C130.94 5.84926 130.975 6.05747 130.975 6.30534V7.73309H131.912C132.19 7.73309 132.418 7.76284 132.596 7.82233C132.775 7.88182 132.913 7.96114 133.013 8.06029C133.112 8.14952 133.176 8.25859 133.206 8.38748C133.246 8.50646 133.265 8.62544 133.265 8.74442C133.265 8.89314 133.246 9.03195 133.206 9.16085C133.176 9.27982 133.112 9.38889 133.013 9.48804C132.913 9.57727 132.775 9.65164 132.596 9.71112C132.418 9.7607 132.19 9.78549 131.912 9.78549H130.975V12.3584H131.912C132.19 12.3584 132.418 12.3882 132.596 12.4476C132.775 12.5071 132.913 12.5865 133.013 12.6856C133.112 12.7748 133.176 12.8839 133.206 13.0128C133.246 13.1318 133.265 13.2508 133.265 13.3697C133.265 13.5185 133.246 13.6573 133.206 13.7862C133.176 13.9051 133.112 14.0142 133.013 14.1134C132.913 14.2026 132.775 14.277 132.596 14.3364C132.418 14.386 132.19 14.4108 131.912 14.4108H130.975V16.4632C130.975 16.721 130.94 16.9342 130.871 17.1027C130.802 17.2713 130.712 17.4051 130.603 17.5043C130.494 17.6034 130.365 17.6728 130.217 17.7125C130.078 17.7521 129.929 17.772 129.77 17.772C129.612 17.772 129.458 17.7521 129.309 17.7125C129.171 17.6728 129.042 17.6034 128.923 17.5043C128.814 17.4051 128.724 17.2713 128.655 17.1027C128.596 16.9342 128.566 16.721 128.566 16.4632V6.30534Z" fill="#EF2B00"/>
<path d="M115.309 6.30534C115.309 5.8096 115.428 5.47249 115.666 5.29402C115.914 5.10564 116.197 5.01144 116.514 5.01144C116.672 5.01144 116.821 5.03127 116.96 5.07093C117.109 5.11059 117.238 5.18 117.347 5.27915C117.456 5.3783 117.545 5.51215 117.614 5.6807C117.684 5.84926 117.718 6.05747 117.718 6.30534V16.4632C117.718 16.721 117.684 16.9342 117.614 17.1027C117.545 17.2713 117.456 17.4051 117.347 17.5043C117.238 17.6034 117.109 17.6728 116.96 17.7125C116.821 17.7521 116.672 17.772 116.514 17.772C116.355 17.772 116.201 17.7521 116.053 17.7125C115.914 17.6728 115.785 17.6034 115.666 17.5043C115.557 17.4051 115.468 17.2713 115.398 17.1027C115.339 16.9342 115.309 16.721 115.309 16.4632V6.30534ZM109.226 5.05606C109.772 5.05606 110.238 5.12547 110.624 5.26428C111.021 5.39317 111.343 5.58651 111.591 5.8443C111.849 6.10209 112.042 6.42432 112.171 6.81101C112.31 7.18777 112.394 7.61907 112.424 8.1049C112.424 8.19414 112.424 8.40731 112.424 8.74442C112.434 9.07161 112.439 9.46325 112.439 9.91934C112.439 10.3754 112.439 10.8613 112.439 11.3768C112.449 11.8924 112.449 12.3782 112.439 12.8343C112.439 13.2904 112.434 13.687 112.424 14.0241C112.424 14.3513 112.424 14.5546 112.424 14.6339C112.404 15.6353 112.146 16.3839 111.651 16.8796C111.155 17.3754 110.347 17.6232 109.226 17.6232C108.651 17.6232 108.165 17.5588 107.769 17.4299C107.382 17.301 107.065 17.1077 106.817 16.8499C106.569 16.602 106.381 16.2897 106.252 15.9129C106.133 15.5461 106.059 15.1197 106.029 14.6339C106.019 14.5447 106.014 14.3364 106.014 14.0093C106.014 13.6721 106.009 13.2755 105.999 12.8195C105.999 12.3634 105.999 11.8775 105.999 11.362C105.999 10.8464 105.999 10.3606 105.999 9.90447C106.009 9.44838 106.014 9.05674 106.014 8.72955C106.014 8.40235 106.019 8.19414 106.029 8.1049C106.059 7.60916 106.133 7.1729 106.252 6.79613C106.371 6.41937 106.554 6.10209 106.802 5.8443C107.05 5.58651 107.367 5.39317 107.754 5.26428C108.151 5.12547 108.641 5.05606 109.226 5.05606ZM110.015 8.04541C110.015 7.8372 109.99 7.66865 109.94 7.53975C109.891 7.41086 109.826 7.31667 109.747 7.25718C109.668 7.18777 109.578 7.14316 109.479 7.12333C109.39 7.1035 109.306 7.09358 109.226 7.09358C109.147 7.09358 109.063 7.10845 108.974 7.1382C108.884 7.15803 108.8 7.20265 108.721 7.27205C108.651 7.34145 108.587 7.44556 108.527 7.58437C108.478 7.71326 108.448 7.88182 108.438 8.09003C108.438 8.17927 108.433 8.39244 108.423 8.72955C108.423 9.06665 108.418 9.46325 108.408 9.91934C108.408 10.3754 108.408 10.8613 108.408 11.3768C108.408 11.8924 108.408 12.3782 108.408 12.8343C108.418 13.2904 108.423 13.687 108.423 14.0241C108.423 14.3513 108.428 14.5546 108.438 14.6339C108.438 14.8619 108.463 15.0404 108.512 15.1693C108.562 15.2883 108.622 15.3825 108.691 15.4519C108.77 15.5213 108.855 15.5609 108.944 15.5709C109.043 15.5907 109.137 15.6006 109.226 15.6006C109.306 15.6006 109.39 15.5907 109.479 15.5709C109.568 15.5609 109.648 15.5213 109.717 15.4519C109.796 15.3825 109.861 15.2883 109.91 15.1693C109.97 15.0404 110.005 14.8619 110.015 14.6339C110.015 14.5447 110.015 14.3315 110.015 13.9944C110.024 13.6573 110.029 13.2607 110.029 12.8046C110.029 12.3386 110.029 11.8478 110.029 11.3322C110.029 10.8166 110.029 10.3308 110.029 9.87472C110.029 9.40872 110.024 9.01212 110.015 8.68493C110.015 8.34782 110.015 8.13465 110.015 8.04541Z" fill="#EF2B00"/>
<path d="M99.543 13.5185C99.543 13.8655 99.6471 14.1728 99.8553 14.4405C100.073 14.7083 100.346 14.9363 100.673 15.1247C101.01 15.3131 101.387 15.4667 101.804 15.5857C102.22 15.7047 102.636 15.789 103.053 15.8386C103.44 15.8881 103.727 16.0121 103.916 16.2104C104.104 16.4186 104.173 16.7111 104.124 17.0878C104.094 17.2861 104.034 17.4448 103.945 17.5638C103.866 17.6827 103.767 17.7769 103.648 17.8463C103.529 17.9157 103.395 17.9604 103.246 17.9802C103.098 18 102.949 18.005 102.8 17.9951C101.967 17.9256 101.169 17.7224 100.406 17.3853C99.6422 17.0581 98.9779 16.6516 98.4127 16.1657C98.1351 16.4037 97.8129 16.6268 97.446 16.835C97.0891 17.0432 96.7074 17.2266 96.3008 17.3853C95.9042 17.5538 95.4928 17.6877 95.0664 17.7868C94.6401 17.8959 94.2187 17.9653 93.8023 17.9951C93.6536 18.005 93.5048 18 93.3561 17.9802C93.2074 17.9604 93.0735 17.9157 92.9545 17.8463C92.8356 17.7769 92.7315 17.6827 92.6422 17.5638C92.5629 17.4448 92.5084 17.2861 92.4786 17.0878C92.4291 16.7111 92.4985 16.4186 92.6868 16.2104C92.8752 16.0121 93.1628 15.8881 93.5494 15.8386C93.9758 15.789 94.3972 15.7097 94.8136 15.6006C95.23 15.5014 95.6018 15.3577 95.929 15.1693C96.2661 14.9809 96.5388 14.7529 96.747 14.4852C96.9552 14.2075 97.0643 13.8804 97.0742 13.5036V13.3102C97.0742 13.0326 97.1833 12.8145 97.4014 12.6559C97.6195 12.4873 97.9219 12.403 98.3086 12.403C98.6953 12.403 98.9977 12.4873 99.2158 12.6559C99.434 12.8145 99.543 13.0326 99.543 13.3102V13.5185ZM96.5091 5.18991C96.7768 5.18991 96.985 5.21966 97.1337 5.27915C97.2824 5.32872 97.3964 5.40308 97.4758 5.50223C97.5551 5.59147 97.6047 5.70549 97.6245 5.8443C97.6443 5.98311 97.6542 6.14175 97.6542 6.32022V8.31312C97.6542 8.61057 97.6195 8.94272 97.5501 9.30957C97.4807 9.66651 97.3667 10.0334 97.2081 10.4101C97.0593 10.7869 96.8561 11.1587 96.5983 11.5256C96.3504 11.8825 96.043 12.1998 95.6762 12.4774C95.4085 12.6757 95.1457 12.7501 94.888 12.7005C94.6302 12.641 94.412 12.5418 94.2336 12.403C94.0055 12.2444 93.8766 12.0213 93.8469 11.7338C93.8271 11.4363 93.9163 11.1587 94.1146 10.9009C94.4517 10.4746 94.7194 10.073 94.9177 9.69625C95.1259 9.30957 95.23 8.89314 95.23 8.44697V7.24231H92.6571C92.3795 7.24231 92.1514 7.21752 91.973 7.16794C91.7945 7.10845 91.6557 7.03409 91.5565 6.94486C91.4574 6.84571 91.388 6.73664 91.3483 6.61766C91.3186 6.48877 91.3037 6.34996 91.3037 6.20124C91.3037 6.08226 91.3186 5.96328 91.3483 5.8443C91.388 5.7154 91.4574 5.60634 91.5565 5.51711C91.6557 5.41796 91.7945 5.33864 91.973 5.27915C92.1514 5.21966 92.3795 5.18991 92.6571 5.18991H96.5091ZM101.09 9.85985H99.543C99.2654 9.85985 99.0423 9.83506 98.8738 9.78549C98.7052 9.726 98.5714 9.64668 98.4722 9.54753C98.383 9.44838 98.3235 9.33931 98.2937 9.22034C98.264 9.09144 98.2491 8.95263 98.2491 8.80391C98.2491 8.68493 98.264 8.56595 98.2937 8.44697C98.3235 8.31808 98.383 8.20405 98.4722 8.1049C98.5714 8.00576 98.7052 7.92644 98.8738 7.86695C99.0423 7.80746 99.2654 7.77771 99.543 7.77771H101.09V6.30534C101.09 5.8096 101.209 5.47249 101.447 5.29402C101.695 5.10564 101.977 5.01144 102.294 5.01144C102.453 5.01144 102.602 5.03127 102.741 5.07093C102.889 5.11059 103.018 5.18 103.127 5.27915C103.236 5.3783 103.326 5.51215 103.395 5.6807C103.464 5.84926 103.499 6.05747 103.499 6.30534V11.6594C103.499 11.9172 103.464 12.1304 103.395 12.2989C103.326 12.4675 103.236 12.6013 103.127 12.7005C103.018 12.7996 102.889 12.869 102.741 12.9087C102.602 12.9484 102.453 12.9682 102.294 12.9682C102.136 12.9682 101.982 12.9484 101.833 12.9087C101.695 12.869 101.566 12.7996 101.447 12.7005C101.338 12.6013 101.248 12.4675 101.179 12.2989C101.119 12.1304 101.09 11.9172 101.09 11.6594V9.85985Z" fill="#EF2B00"/>
<path d="M74.0219 12.76C73.774 12.76 73.5757 12.7352 73.427 12.6856C73.2783 12.636 73.1643 12.5716 73.0849 12.4923C73.0056 12.403 72.9511 12.3039 72.9213 12.1948C72.9015 12.0758 72.8916 11.9469 72.8916 11.8081C72.8916 11.6991 72.9015 11.59 72.9213 11.4809C72.9511 11.3719 73.0056 11.2727 73.0849 11.1835C73.1643 11.0943 73.2783 11.0249 73.427 10.9753C73.5757 10.9158 73.774 10.886 74.0219 10.886H84.8341C85.082 10.886 85.2803 10.9158 85.429 10.9753C85.5778 11.0249 85.6918 11.0943 85.7711 11.1835C85.8504 11.2727 85.9 11.3719 85.9198 11.4809C85.9496 11.59 85.9644 11.6991 85.9644 11.8081C85.9644 11.9469 85.9496 12.0758 85.9198 12.1948C85.9 12.3039 85.8504 12.403 85.7711 12.4923C85.6918 12.5716 85.5778 12.636 85.429 12.6856C85.2803 12.7352 85.082 12.76 84.8341 12.76H74.0219ZM75.1373 9.51778C74.8597 9.51778 74.6416 9.493 74.4829 9.44342C74.3243 9.38393 74.2004 9.30957 74.1111 9.22034C74.0318 9.12119 73.9822 9.01212 73.9624 8.89314C73.9426 8.76425 73.9327 8.62544 73.9327 8.47671V6.30534C73.9327 5.8096 74.0516 5.47249 74.2896 5.29402C74.5375 5.10564 74.8201 5.01144 75.1373 5.01144C75.296 5.01144 75.4447 5.03127 75.5835 5.07093C75.7322 5.11059 75.8611 5.18 75.9702 5.27915C76.0793 5.3783 76.1685 5.51215 76.2379 5.6807C76.3073 5.84926 76.342 6.05747 76.342 6.30534V7.61412H83.7633C84.0112 7.61412 84.2095 7.64386 84.3582 7.70335C84.507 7.76284 84.621 7.8372 84.7003 7.92644C84.7796 8.01567 84.8292 8.11978 84.849 8.23876C84.8788 8.34782 84.8936 8.45193 84.8936 8.55108C84.8936 8.67997 84.8788 8.80391 84.849 8.92289C84.8292 9.03195 84.7796 9.1311 84.7003 9.22034C84.621 9.30957 84.507 9.38393 84.3582 9.44342C84.2095 9.493 84.0112 9.51778 83.7633 9.51778H75.1373ZM75.1373 17.9207C74.8597 17.9207 74.6416 17.8909 74.4829 17.8315C74.3243 17.7819 74.2004 17.7075 74.1111 17.6084C74.0318 17.5191 73.9822 17.4101 73.9624 17.2812C73.9426 17.1622 73.9327 17.0283 73.9327 16.8796V14.9611C73.9327 14.4653 74.0516 14.1282 74.2896 13.9498C74.5375 13.7614 74.8201 13.6672 75.1373 13.6672C75.296 13.6672 75.4447 13.687 75.5835 13.7267C75.7322 13.7663 75.8611 13.8357 75.9702 13.9349C76.0793 14.034 76.1685 14.1679 76.2379 14.3364C76.3073 14.505 76.342 14.7132 76.342 14.9611V16.017H83.7633C84.0112 16.017 84.2095 16.0468 84.3582 16.1063C84.507 16.1657 84.621 16.2401 84.7003 16.3293C84.7796 16.4186 84.8292 16.5177 84.849 16.6268C84.8788 16.7458 84.8936 16.8548 84.8936 16.954C84.8936 17.0829 84.8788 17.2019 84.849 17.3109C84.8292 17.4299 84.7796 17.534 84.7003 17.6232C84.621 17.7125 84.507 17.7819 84.3582 17.8315C84.2095 17.8909 84.0112 17.9207 83.7633 17.9207H75.1373Z" fill="#EF2B00"/>
</svg>
