<svg width="135" height="72" viewBox="0 0 135 72" fill="none" xmlns="http://www.w3.org/2000/svg">
<path d="M16.6276 30.2835H25.22C25.9921 33.8682 26.6759 37.7066 27.2826 41.7877C27.8892 45.8688 28.2753 49.5197 28.4297 52.7405H28.6393C29.9629 49.8948 31.6284 46.7402 33.6358 43.2768C35.6433 39.8134 37.9155 35.9749 40.4854 31.7836L41.3899 30.2835H49.9491L44.743 54.6928H37.7279L40.4193 42.0855C40.5847 41.159 40.7612 40.3428 40.9597 39.659C41.1583 38.9751 41.3347 38.4015 41.5002 37.9272C41.5443 37.7397 41.6215 37.5633 41.7098 37.3978H41.4671L31.2313 54.6928H24.9773L22.1095 37.3978H21.9331C21.911 37.5853 21.8889 37.7949 21.8669 38.0265C21.7455 39.0964 21.5249 40.4531 21.2051 42.0745L18.5138 54.6818H11.4546L16.6276 30.2725V30.2835Z" fill="#EF2B00"/>
<path d="M52.7606 54.395C51.6135 53.7994 50.7201 52.9611 50.0914 51.8581C49.4626 50.7662 49.1538 49.4977 49.1538 48.0528C49.1538 46.0012 49.595 44.1041 50.4664 42.3393C51.3377 40.5855 52.6172 39.1737 54.3048 38.1369C55.9924 37.089 57.9998 36.5596 60.3272 36.5596C61.6728 36.5596 62.8751 36.8353 63.9229 37.3978C64.9708 37.9604 65.787 38.7656 66.3826 39.8244C66.9782 40.8833 67.276 42.1518 67.276 43.6187H67.4525C67.5959 42.6591 67.7283 41.6995 67.8716 40.7179C68.015 39.8575 68.2025 38.6663 68.4342 37.1552H74.7874L72.6917 46.9718L72.5484 47.5344C72.405 48.141 72.3498 48.5933 72.3608 48.8911C72.3608 49.1999 72.5042 49.4315 72.7469 49.586C72.9895 49.7514 73.4197 49.8286 74.0264 49.8286L72.8793 55.2774H71.4454C69.2504 55.2774 67.7172 54.9575 66.8348 54.3399C65.9524 53.7112 65.5112 52.8729 65.5112 51.825C65.5112 51.5713 65.5333 51.3066 65.5774 51.0198C65.6215 50.7441 65.6987 50.4573 65.787 50.1816C65.809 50.1374 65.8311 50.0602 65.8532 49.972H65.6767C64.7171 51.814 63.5148 53.1597 62.0478 54.009C60.5808 54.8583 58.8491 55.2774 56.8417 55.2774C55.2865 55.2774 53.9298 54.9796 52.7716 54.384L52.7606 54.395ZM63.4486 49.0455C64.3641 48.6153 65.059 48.0638 65.5112 47.391C65.9635 46.7182 66.1951 45.9902 66.1951 45.2291C66.1951 44.6225 66.0076 44.093 65.6215 43.6187C65.2355 43.1555 64.673 42.7915 63.945 42.5378C63.217 42.2841 62.3015 42.1518 61.1985 42.1518C59.7536 42.1518 58.5844 42.3834 57.702 42.8466C56.8196 43.3099 56.1799 43.8724 55.7938 44.5453C55.4078 45.2181 55.2203 45.9019 55.2203 46.6189C55.2203 47.5454 55.6394 48.2954 56.4777 48.858C57.316 49.4205 58.5072 49.6962 60.0404 49.6962C61.386 49.6962 62.5221 49.4757 63.4486 49.0455Z" fill="#EF2B00"/>
<path d="M77.6441 42.9786C77.6441 42.5926 77.5338 42.3278 77.3132 42.1955C77.0926 42.0631 76.6625 41.9859 76.0338 41.9859L77.1809 36.5371C79.5744 36.5371 81.3061 36.7798 82.365 37.2541C83.4238 37.7283 84.0195 38.4563 84.1518 39.438C84.2842 40.4197 84.0746 41.7653 83.5452 43.486L83.479 43.6625L82.7069 46.2435H82.9165C83.7768 44.0044 84.7364 42.1624 85.7843 40.7064C86.8321 39.2505 87.9241 38.2026 89.0491 37.5408C90.1742 36.8901 91.3103 36.5592 92.4574 36.5592C94.4097 36.5592 95.7664 37.0996 96.5054 38.1806C97.2444 39.2615 97.476 40.6623 97.1672 42.372C96.8694 44.0816 96.1634 45.8574 95.0715 47.6994L90.9463 47.4237C91.5088 46.3979 91.8066 45.5376 91.8397 44.8206C91.8728 44.1147 91.6742 43.5853 91.2331 43.2323C90.7919 42.8793 90.119 42.7139 89.2035 42.7139C88.1777 42.7139 87.2181 43.0338 86.3027 43.6514C85.3982 44.2801 84.6482 45.0743 84.0525 46.0449C83.4569 47.0156 83.0488 48.0083 82.8172 49.034L81.5929 54.6924H75.2727L77.3353 45.0191C77.5449 44.0375 77.6552 43.3647 77.6552 42.9786H77.6441Z" fill="#EF2B00"/>
<path d="M100.642 54.395C99.4953 53.7994 98.6019 52.9611 97.9732 51.8581C97.3445 50.7662 97.0356 49.4977 97.0356 48.0528C97.0356 46.0012 97.4768 44.1041 98.3482 42.3393C99.2196 40.5855 100.499 39.1737 102.187 38.1369C103.874 37.089 105.882 36.5596 108.209 36.5596C109.555 36.5596 110.757 36.8353 111.805 37.3978C112.853 37.9604 113.669 38.7656 114.264 39.8244C114.86 40.8833 115.158 42.1518 115.158 43.6187H115.334C115.478 42.6591 115.61 41.6995 115.753 40.7179C115.897 39.8575 116.084 38.6663 116.316 37.1552H122.669L120.574 46.9718L120.43 47.5344C120.287 48.141 120.232 48.5933 120.243 48.8911C120.243 49.1999 120.386 49.4315 120.629 49.586C120.871 49.7514 121.302 49.8286 121.908 49.8286L120.761 55.2774H119.327C117.132 55.2774 115.599 54.9575 114.717 54.3399C113.834 53.7112 113.393 52.8729 113.393 51.825C113.393 51.5713 113.415 51.3066 113.459 51.0198C113.503 50.7441 113.581 50.4573 113.669 50.1816C113.691 50.1374 113.713 50.0602 113.735 49.972H113.559C112.599 51.814 111.397 53.1597 109.93 54.009C108.463 54.8583 106.731 55.2774 104.724 55.2774C103.168 55.2774 101.812 54.9796 100.653 54.384L100.642 54.395ZM111.33 49.0455C112.246 48.6153 112.941 48.0638 113.393 47.391C113.845 46.7182 114.077 45.9902 114.077 45.2291C114.077 44.6225 113.889 44.093 113.503 43.6187C113.117 43.1555 112.555 42.7915 111.827 42.5378C111.099 42.2841 110.183 42.1518 109.08 42.1518C107.635 42.1518 106.466 42.3834 105.584 42.8466C104.701 43.3099 104.062 43.8724 103.676 44.5453C103.29 45.2181 103.102 45.9019 103.102 46.6189C103.102 47.5454 103.521 48.2954 104.36 48.858C105.198 49.4205 106.389 49.6962 107.922 49.6962C109.268 49.6962 110.404 49.4757 111.33 49.0455Z" fill="#EF2B00"/>
<path d="M110.555 7.92008V3.89181C110.555 2.60822 110.555 1.35195 110.555 0.0683594H113.546V2.5536C113.546 2.56726 113.546 2.56726 113.559 2.56726H114.229C114.242 2.56726 114.242 2.56726 114.242 2.5536V0.0683594H117.861V2.1576C117.861 3.3456 117.861 4.51995 117.861 5.69429V8.32974H114.242V5.87181C114.242 5.85815 114.242 5.85815 114.229 5.85815H113.559C113.546 5.85815 113.546 5.85815 113.546 5.87181V7.92008H110.555ZM101.475 7.37388V5.54408C101.475 4.82036 101.475 4.11029 101.475 3.40022L103.741 2.8267C103.81 2.81305 103.837 2.78574 103.837 2.74477H101.475V0.273188H105.667V2.74477H104.779V5.40753C104.779 5.42119 104.779 5.42119 104.793 5.42119H105.967L105.708 7.37388H101.475ZM102.84 11.7435V10.5009C102.84 9.90008 102.84 9.29926 102.84 8.69843V7.78353H108.179V8.32974C108.179 8.4936 108.179 8.68477 108.179 8.84864C108.179 8.86229 108.179 8.86229 108.193 8.86229H118.202L117.915 11.7435H102.84ZM105.994 7.37388V5.42119C105.994 4.58822 105.994 3.68698 105.994 2.86767V0.273188H110.05L110.023 2.74477H108.917C108.903 2.74477 108.903 2.74477 108.903 2.75843V5.40753C108.903 5.42119 108.903 5.42119 108.917 5.42119H110.419L110.255 7.37388H105.994Z" fill="#EF2B00"/>
<path d="M89.7996 6.78662C88.9802 6.78662 88.2292 6.71834 87.5601 6.59545C87.3007 6.55448 87.0549 6.48621 86.8364 6.41793C85.5664 6.00828 84.87 5.28455 84.87 4.36966C84.87 4.13752 84.952 3.87807 85.0339 3.75517C85.0475 3.74152 85.0475 3.74152 85.0339 3.74152H84.2009V2.40331H94.9202V3.74152H91.1378L94.7154 4.09655C94.7291 4.19214 94.7291 4.28772 94.7291 4.36966C94.7291 5.16166 94.2102 5.77614 93.3772 6.17214C92.4896 6.58179 91.2197 6.78662 89.7996 6.78662ZM85.1704 2.00731V0H94.4287L93.9371 2.00731H87.2324C86.536 2.00731 85.8532 2.00731 85.1704 2.00731ZM85.4299 11.8117V9.99559C85.4299 9.55862 85.4299 9.12166 85.4299 8.68469H95.207V8.54814C95.207 8.47986 95.207 8.39793 95.207 8.316C95.207 8.30234 95.207 8.30234 95.1934 8.30234H85.4299V7.10069H100.041V7.57862V8.69834C100.041 8.90317 100.041 9.09434 100.041 9.29917H90.2638C90.2502 9.29917 90.2502 9.29917 90.2502 9.31283V9.49035C90.2502 9.55862 90.2502 9.59959 90.2502 9.66786C90.2502 9.68152 90.2502 9.68152 90.2638 9.68152H95.8215H100.451L100.027 11.8117H85.4299ZM88.7891 4.17848C88.7891 4.42428 88.912 4.57448 89.1168 4.69738C89.2943 4.77931 89.5128 4.83393 89.7859 4.83393C90.3867 4.83393 90.7964 4.64276 90.7964 4.17848C90.7964 3.97365 90.6735 3.8371 90.455 3.74152H89.1304C88.9802 3.80979 88.7891 3.96 88.7891 4.17848ZM95.3299 6.69103V4.76566C95.3299 4.34235 95.3299 3.90538 95.3299 3.48207V0.0682758H100.041V1.69324H100.997V5.87172H100.041V6.69103H95.3299Z" fill="#EF2B00"/>
<path d="M67.6236 11.1973C67.7192 10.3507 67.8284 9.50409 67.924 8.64381L68.2517 5.9674C68.32 5.35291 68.3883 4.71112 68.4702 4.09664C68.4702 4.08298 68.4702 4.08298 68.4566 4.08298H67.2686V0.341464H72.7852L72.4166 4.6565C72.2254 6.84133 72.0479 9.02615 71.8567 11.1973H67.6236ZM72.7443 4.08298L73.0584 0.341464H78.0425L77.6738 6.07664C77.5646 7.78353 77.4553 9.47678 77.3461 11.1973H72.9628C73.031 10.4326 73.0993 9.66795 73.1539 8.90326C73.2632 7.86546 73.3588 6.84133 73.4407 5.81719C73.4953 5.24367 73.5363 4.67015 73.5909 4.09664C73.5909 4.08298 73.5909 4.08298 73.5772 4.08298H72.7443ZM78.3975 11.8118V8.46629C78.3975 7.68795 78.3975 6.9096 78.3975 6.1176V0.0683594H82.972V3.37291H83.9279V8.15222H82.972V11.8118H78.3975Z" fill="#EF2B00"/>
<path d="M50.4043 6.41821V3.15462C50.4043 2.14414 50.4043 1.16097 50.4043 0.164138H54.9515V2.08952L55.0197 1.6389C55.0607 1.6389 55.0607 1.6389 55.1426 1.52966L55.7708 0.164138C56.9451 0.0548966 57.7781 0.0139318 58.7476 0.0822076C59.8127 0.164138 60.5091 0.710345 60.5091 1.48869V4.47917C60.5091 5.12097 60.5091 5.76276 60.5091 6.41821H50.4043ZM51.2919 11.812V9.87297C51.2919 9.40869 51.2919 8.95807 51.2919 8.49379H61.0963V8.34359C61.0963 8.26165 61.0963 8.17972 61.0963 8.09779C61.0963 8.08414 61.0963 8.08414 61.0826 8.08414H51.2919V6.75959H65.9029V7.27848V8.49379C65.9029 8.71228 65.9029 8.93076 65.9029 9.14924H56.0985C56.0848 9.14924 56.0849 9.14924 56.0849 9.1629V9.35407C56.0849 9.42234 56.0849 9.47697 56.0849 9.54524C56.0849 9.5589 56.0848 9.5589 56.0985 9.5589H61.6835H66.3126L65.8893 11.812H51.2919ZM54.9515 4.58841H56.2214C56.2351 4.58841 56.2351 4.58841 56.2351 4.57476V3.03172C56.2351 2.78593 55.9893 2.67669 55.6615 2.67669C55.3748 2.67669 55.2246 2.69035 54.9515 2.71765V3.55062C54.9515 3.90565 54.9515 4.24703 54.9515 4.58841ZM61.1919 6.41821V4.5611C61.1919 4.1651 61.1919 3.74179 61.1919 3.33214V0.0685516H65.9029V1.6389H66.8588V5.79007H65.9029V6.41821H61.1919Z" fill="#EF2B00"/>
<path d="M33.4854 11.1973C33.581 10.3507 33.6902 9.50409 33.7858 8.64381L34.1135 5.9674C34.1818 5.35291 34.2501 4.71112 34.332 4.09664C34.332 4.08298 34.332 4.08298 34.3184 4.08298H33.1304V0.341464H38.6471L38.2784 4.6565C38.0872 6.84133 37.9097 9.02615 37.7185 11.1973H33.4854ZM38.6061 4.08298L38.9202 0.341464H43.9043L43.5356 6.07664C43.4264 7.78353 43.3171 9.47678 43.2079 11.1973H38.8246C38.8929 10.4326 38.9611 9.66795 39.0158 8.90326C39.125 7.86546 39.2206 6.84133 39.3025 5.81719C39.3571 5.24367 39.3981 4.67015 39.4527 4.09664C39.4527 4.08298 39.4527 4.08298 39.4391 4.08298H38.6061ZM44.2593 11.8118V8.46629C44.2593 7.68795 44.2593 6.9096 44.2593 6.1176V0.0683594H48.8338V3.37291H49.7897V8.15222H48.8338V11.8118H44.2593Z" fill="#EF2B00"/>
<path d="M15.9795 6.41802L17.0173 3.19539C17.3587 2.1576 17.6864 1.10615 18.0278 0.0683594H23.4216L22.3974 1.06519C22.1243 1.33829 21.8649 1.59774 21.5918 1.87084H25.4698L26.1253 3.93277C26.3847 4.76574 26.6442 5.58505 26.9036 6.41802H22.1243C22.0697 6.02202 22.0287 5.61236 21.9741 5.21636C21.9195 4.73843 21.8512 4.2605 21.7966 3.76891C21.7283 3.30464 21.6737 2.84036 21.6191 2.38974C21.6191 2.37608 21.6191 2.37608 21.6054 2.37608H21.5781C21.5645 2.37608 21.5645 2.37608 21.5645 2.38974L21.2777 4.60188C21.1958 5.21636 21.1138 5.83084 21.0319 6.41802H15.9795ZM17.1538 11.8118V9.87278C17.1538 9.4085 17.1538 8.95788 17.1538 8.4936H26.9583V8.3434C26.9583 8.26146 26.9583 8.17953 26.9583 8.0976C26.9583 8.08395 26.9583 8.08395 26.9446 8.08395H17.1538V6.7594H31.7649V7.27829V8.4936C31.7649 8.71209 31.7649 8.93057 31.7649 9.14905H21.9605C21.9468 9.14905 21.9468 9.14905 21.9468 9.16271V9.35388C21.9468 9.42215 21.9468 9.47678 21.9468 9.54505C21.9468 9.55871 21.9468 9.55871 21.9605 9.55871H27.5454H32.1745L31.7512 11.8118H17.1538ZM27.0538 6.41802V4.56091C27.0538 4.16491 27.0538 3.7416 27.0538 3.33195V0.0683594H31.7649V1.6387H32.7207V5.78988H31.7649V6.41802H27.0538Z" fill="#EF2B00"/>
<path fill-rule="evenodd" clip-rule="evenodd" d="M132.947 70.7554V15.1541H74.5177L67.5 20.8638L60.5953 15.1541H34.1629H1.2348V70.7554H132.947ZM0 13.9093V72.0002H134.182V13.9093L74.0466 13.9092L67.5 19.2275L61.0802 13.9093H33.5455H0Z" fill="#EF2B00"/>
<path fill-rule="evenodd" clip-rule="evenodd" d="M129.241 67.0522V18.8562H75.7396L67.5 25.6219L59.3545 18.8562H4.9406V67.0522H129.241ZM2.45459 16.3633V69.5451H131.727V16.3633L74.9203 16.3633L67.5 22.3358L60.1737 16.3633H2.45459Z" fill="#EF2B00"/>
</svg>
