<svg width="135" height="72" viewBox="0 0 135 72" fill="none" xmlns="http://www.w3.org/2000/svg">
<path d="M15.1076 12.7862C15.4499 11.6228 15.7805 10.4594 16.1228 9.29603C17.9172 8.61834 19.7351 7.97452 21.5531 7.3646C21.2108 7.8051 20.8566 8.2569 20.5143 8.70869C20.2428 9.07013 19.9712 9.42027 19.6997 9.79301C20.9983 9.34121 22.3086 8.90071 23.6308 8.49409C23.8551 9.10402 24.0794 9.71394 24.2919 10.3352C24.5516 11.0806 24.8231 11.8148 25.0828 12.5603C23.4537 13.0572 21.8364 13.5768 20.231 14.1303C20.1719 13.7575 20.1365 13.3622 20.0775 12.9895C20.0185 12.5377 19.9594 12.0859 19.9004 11.6115C19.8296 11.171 19.7706 10.7305 19.7233 10.3013C19.7233 10.29 19.7233 10.29 19.7115 10.3013H19.6879C19.6761 10.3013 19.6761 10.3013 19.6761 10.3239C19.5817 11.0919 19.4872 11.86 19.3928 12.6167C19.3102 13.2493 19.2275 13.8931 19.1449 14.503C17.445 15.1016 15.7569 15.7341 14.0806 16.4005C14.4229 15.2033 14.7653 13.9947 15.1194 12.7975L15.1076 12.7862ZM15.2493 19.3598C15.2493 18.8967 15.2493 18.4562 15.2493 17.9931C18.5074 16.7281 21.8128 15.5986 25.1418 14.5821V14.4352C25.1418 14.3562 25.1418 14.2771 25.1418 14.1867C25.1418 14.1754 25.1418 14.1754 25.13 14.1867C21.801 15.2033 18.5074 16.3328 15.2493 17.5978V16.2876C20.1129 14.4126 25.0592 12.8088 30.0645 11.4759V13.1928C30.0645 13.4074 30.0645 13.622 30.0645 13.8479C26.7001 14.7402 23.3711 15.7567 20.0775 16.8975C20.0657 16.8975 20.0657 16.8975 20.0657 16.9201V17.3041C20.0657 17.3041 20.0657 17.3154 20.0775 17.3041C21.9545 16.6603 23.8433 16.0504 25.7439 15.4744C27.3139 15 28.8958 14.5595 30.4895 14.1416C30.3478 14.9209 30.1943 15.7115 30.0527 16.4909C25.0474 17.8237 20.1129 19.4163 15.2493 21.3025V19.3824V19.3598ZM25.2363 10.6514C25.2363 10.2561 25.2363 9.83819 25.2363 9.43157C25.2363 8.34726 25.2363 7.27424 25.2363 6.18993C26.8417 5.70425 28.4472 5.25245 30.0645 4.82324V6.38194C30.395 6.29158 30.7256 6.21252 31.0443 6.12216C31.0443 7.50014 31.0443 8.86682 31.0443 10.2448C30.7138 10.3239 30.3832 10.4142 30.0645 10.5046V11.1258C28.4472 11.555 26.8417 12.0068 25.2363 12.4925C25.2363 11.8826 25.2363 11.2613 25.2363 10.6514Z" fill="#007BED"/>
<path d="M32.1419 12.7853C32.2599 11.8705 32.3662 10.9556 32.4842 10.052C32.5551 9.41946 32.6259 8.77565 32.7085 8.14313C32.7085 8.13183 32.7085 8.13183 32.6967 8.14313C32.2835 8.24478 31.8822 8.34644 31.469 8.44809C31.469 7.20565 31.469 5.9745 31.469 4.73206C33.3578 4.24638 35.2702 3.80588 37.1708 3.39926C37.0409 4.85631 36.9111 6.30206 36.793 7.7591C36.5923 9.97291 36.4153 12.1754 36.2146 14.3779C34.7508 14.6942 33.287 15.0443 31.8349 15.4058C31.9294 14.5361 32.0474 13.6776 32.1419 12.7966V12.7853ZM37.4541 3.33149C39.1776 2.97005 40.913 2.6425 42.6483 2.34883C42.5184 4.26897 42.3886 6.18911 42.2587 8.10924C42.1407 9.82607 42.0344 11.5203 41.9164 13.2484C40.3935 13.5195 38.8707 13.8132 37.3479 14.1294C37.4187 13.3614 37.4895 12.582 37.5486 11.814C37.6666 10.7636 37.761 9.72442 37.8437 8.69658C37.9027 8.12054 37.9381 7.5332 37.9971 6.95716C37.9971 6.94587 37.9971 6.94587 37.9853 6.95716C37.702 7.01364 37.4069 7.08141 37.1236 7.13788C37.2298 5.87285 37.3361 4.61911 37.4541 3.35408V3.33149ZM43.0261 10.3456V2.00998C44.6197 1.73891 46.2134 1.50171 47.8189 1.28711V4.56264C48.1494 4.51746 48.4918 4.47228 48.8223 4.4271V9.17097C48.4918 9.21615 48.1494 9.26133 47.8189 9.30651V12.9322C46.2134 13.1468 44.6197 13.384 43.0261 13.6551V10.3456Z" fill="#007BED"/>
<path d="M49.4719 4.13394C49.4719 3.12869 49.4719 2.15733 49.4719 1.16338C51.0656 0.971363 52.6593 0.80194 54.2529 0.655106V2.56395C54.2765 2.41711 54.3002 2.25898 54.3238 2.11215C54.371 2.11215 54.371 2.11215 54.4536 1.98791C54.6779 1.51352 54.8904 1.05043 55.1147 0.576041C56.3542 0.361438 57.2278 0.259783 58.2548 0.271078C59.3763 0.282373 60.12 0.790645 60.12 1.56999V4.54056C60.12 5.17308 60.12 5.81689 60.12 6.4607C56.5667 6.63012 53.0134 6.93508 49.4719 7.36429V4.12265V4.13394ZM50.4045 10.685C50.4045 10.2219 50.4045 9.78141 50.4045 9.31831C53.8398 8.92299 57.2868 8.64062 60.7457 8.49378V8.34695C60.7457 8.26789 60.7457 8.18882 60.7457 8.09846C60.7457 8.08717 60.7457 8.08717 60.7339 8.08717C57.2868 8.234 53.8398 8.51637 50.4163 8.9117C50.4163 8.47119 50.4163 8.03069 50.4163 7.60148C55.5397 7.00285 60.6866 6.6866 65.8336 6.64142V8.35824C65.8336 8.57285 65.8336 8.78745 65.8336 9.01335C62.3747 9.04724 58.9277 9.19407 55.4806 9.47644C55.4688 9.47644 55.4688 9.47644 55.4688 9.48774C55.4688 9.55551 55.4688 9.61198 55.4688 9.67975C55.4688 9.74752 55.4688 9.80399 55.4688 9.87176C55.4688 9.88306 55.4688 9.88306 55.4806 9.88306C57.4403 9.72493 59.4117 9.61198 61.3713 9.53292C63.0004 9.46515 64.6295 9.43126 66.2704 9.41997C66.1169 10.1654 65.9753 10.9109 65.8218 11.6564C60.6748 11.7015 55.5397 12.0178 50.4163 12.6164C50.4163 11.9726 50.4163 11.3288 50.4163 10.6963L50.4045 10.685ZM55.5987 4.93588C55.5987 4.93588 55.6105 4.93588 55.6105 4.92459C55.6105 4.41632 55.6105 3.90804 55.6105 3.38848C55.6105 3.13999 55.3508 3.06092 55.0085 3.08351C54.7015 3.1061 54.5481 3.13999 54.2647 3.18517V4.0097C54.2647 4.35984 54.2647 4.69869 54.2647 5.03754C54.7133 4.99236 55.1619 4.95847 55.5987 4.92459V4.93588ZM60.8401 4.58574C60.8401 4.19042 60.8401 3.77251 60.8401 3.36589V0.124244C62.5046 0.0564742 64.1573 0.0112949 65.8218 0V1.5587C66.1641 1.5587 66.4947 1.5587 66.837 1.5587V5.68135C66.4947 5.68135 66.1641 5.68135 65.8218 5.68135V6.30257C64.1573 6.31386 62.5046 6.35904 60.8401 6.42681V4.58574Z" fill="#007BED"/>
<path d="M67.9701 8.50549C68.0881 7.62448 68.2062 6.73218 68.3124 5.85118C68.3833 5.24125 68.4541 4.60874 68.5485 3.99881C68.5485 3.98752 68.5485 3.98751 68.5367 3.98751C68.1236 3.98751 67.6986 3.98751 67.2854 3.98751V0.271484C69.2332 0.271484 71.1692 0.316664 73.1171 0.395728C72.9872 1.81889 72.8573 3.24205 72.7275 4.66521C72.5268 6.82254 72.3379 8.97987 72.1372 11.1259C70.6498 11.0694 69.1506 11.0468 67.6632 11.0355C67.7694 10.1997 67.8756 9.3639 67.9819 8.50549H67.9701ZM73.4004 0.407023C75.1593 0.486088 76.9064 0.587742 78.6654 0.734576C78.5355 2.62083 78.4057 4.50708 78.2758 6.39333C78.1578 8.07628 78.0515 9.74793 77.9335 11.4422C76.387 11.3292 74.8524 11.2389 73.3059 11.1711C73.3768 10.4143 73.4476 9.65757 73.5066 8.90081C73.6247 7.87297 73.7191 6.86772 73.8135 5.85118C73.8726 5.28643 73.908 4.72169 73.967 4.14564C73.967 4.13435 73.967 4.13435 73.9552 4.13435C73.6601 4.12305 73.365 4.11176 73.0698 4.10046C73.1761 2.86932 73.2941 1.63817 73.4004 0.407023ZM79.0313 8.82174C79.0313 8.05369 79.0313 7.27434 79.0313 6.49499V0.497383C80.6368 0.632922 82.2423 0.791051 83.8478 0.983065C83.8478 2.07867 83.8478 3.16299 83.8478 4.25859C84.1783 4.29248 84.5207 4.33766 84.8512 4.38284V9.11541C84.5207 9.07023 84.1783 9.03635 83.8478 8.99117C83.8478 10.1997 83.8478 11.4083 83.8478 12.6168C82.2423 12.4248 80.6368 12.2667 79.0313 12.1312V8.82174Z" fill="#007BED"/>
<path d="M88.6766 8.08772C88.4051 8.00866 88.1454 7.89571 87.9211 7.79405C86.5871 7.19542 85.8552 6.38219 85.8552 5.47859C85.8552 5.2527 85.9378 5.00421 86.0323 4.89126C86.0441 4.87996 86.0441 4.89126 86.0323 4.87996C85.7371 4.84608 85.4538 4.8009 85.1587 4.76701C85.1587 4.32651 85.1587 3.88601 85.1587 3.43421C88.9127 3.9086 92.6549 4.52982 96.3616 5.29787V6.63068C95.0513 6.3596 93.7409 6.11111 92.4187 5.87392C93.6583 6.21276 94.9096 6.56291 96.1491 6.93564C96.1609 7.03729 96.1609 7.12765 96.1609 7.20672C96.1609 7.99736 95.6179 8.49434 94.7561 8.70894C93.8354 8.93484 92.5132 8.88966 91.0258 8.64117C90.164 8.49434 89.3849 8.30232 88.6884 8.07643L88.6766 8.08772ZM86.1739 1.18652C89.4085 1.61573 92.643 2.15789 95.854 2.81299C95.6887 3.44551 95.5117 4.06673 95.3464 4.69924C93.0208 4.23615 90.6834 3.82954 88.346 3.47939C87.6141 3.36644 86.9058 3.27608 86.1857 3.17443C86.1857 2.50803 86.1857 1.84163 86.1857 1.18652H86.1739ZM86.4454 11.1374C86.4454 10.7081 86.4454 10.2676 86.4454 9.83843C89.8689 10.3015 93.2687 10.8889 96.6567 11.5891V11.4536C96.6567 11.3858 96.6567 11.3068 96.6567 11.2277C96.6567 11.2164 96.6567 11.2164 96.6449 11.2164C93.2687 10.5048 89.8571 9.92879 86.4454 9.4657V8.26844C91.557 8.95743 96.6331 9.9175 101.662 11.1599C101.662 11.3181 101.662 11.4762 101.662 11.6343C101.662 12.0071 101.662 12.3798 101.662 12.7412C101.662 12.9445 101.662 13.1366 101.662 13.3399C98.2976 12.5153 94.9096 11.8038 91.5098 11.2164C91.498 11.2164 91.498 11.2164 91.498 11.2277C91.498 11.2842 91.498 11.3407 91.498 11.4084C91.498 11.4762 91.498 11.5214 91.498 11.5891C91.498 11.6004 91.498 11.6004 91.5098 11.6004C93.4458 11.928 95.37 12.3007 97.2942 12.7186C98.8997 13.0575 100.493 13.4302 102.087 13.8255C101.945 14.4919 101.792 15.1583 101.65 15.836C96.6331 14.5936 91.557 13.6335 86.4454 12.9445V11.1486V11.1374ZM90.3057 6.46125C90.4945 6.5742 90.7188 6.66456 91.0022 6.70974C91.6278 6.81139 92.0528 6.70974 92.0528 6.24665C92.0528 6.04334 91.9229 5.88521 91.6986 5.74967C91.2383 5.67061 90.7779 5.59154 90.3175 5.51248C90.164 5.55766 89.9633 5.67061 89.9633 5.88521C89.9633 6.1337 90.0932 6.30312 90.3057 6.46125ZM96.7866 7.73758C96.7866 7.31967 96.7866 6.87916 96.7866 6.46125V3.07278C98.4157 3.41162 100.045 3.78436 101.662 4.19097C101.662 4.73313 101.662 5.26399 101.662 5.80615C101.993 5.88521 102.323 5.96428 102.654 6.05464C102.654 7.43262 102.654 8.82189 102.654 10.1999C102.323 10.1208 101.993 10.0304 101.662 9.95138C101.662 10.2225 101.662 10.4935 101.662 10.7646C100.045 10.3693 98.4157 9.99656 96.7866 9.64642V7.73758Z" fill="#007BED"/>
<path d="M103.149 9.9956C103.149 9.27272 103.149 8.57244 103.149 7.87215C103.928 7.87215 104.708 7.90604 105.475 7.92863C105.546 7.92863 105.569 7.91733 105.569 7.87215C104.767 7.64626 103.952 7.43165 103.137 7.22834V4.77734C104.578 5.15008 106.006 5.5454 107.434 5.96331C107.434 6.77655 107.434 7.60108 107.434 8.41431C107.128 8.32395 106.832 8.23359 106.525 8.15453V10.775C106.525 10.775 106.525 10.7862 106.537 10.7975C106.939 10.9105 107.34 11.0234 107.741 11.1477C107.647 11.7689 107.564 12.3901 107.482 13.0113C106.041 12.5934 104.589 12.1981 103.137 11.8141V9.9956H103.149ZM104.554 15.2816C104.554 14.683 104.554 14.0844 104.554 13.497C104.554 13.1921 104.554 12.8871 104.554 12.5934C106.384 13.0904 108.202 13.61 110.008 14.1747V14.7169C110.008 14.875 110.008 15.067 110.008 15.2364C110.008 15.2477 110.008 15.2477 110.02 15.259C113.42 16.3208 116.772 17.5067 120.101 18.8282C120.007 19.7431 119.912 20.658 119.818 21.5729C114.813 19.5963 109.713 17.9246 104.554 16.5354C104.554 16.1287 104.554 15.7108 104.554 15.3042V15.2816ZM107.789 11.1477C107.789 10.3232 107.789 9.43085 107.789 8.61762V6.04238C109.17 6.44899 110.551 6.8782 111.92 7.33C111.92 8.14323 111.897 8.95647 111.897 9.7697C111.519 9.64546 111.153 9.53251 110.775 9.40826C110.763 9.40826 110.763 9.40826 110.763 9.40826V12.0513C110.763 12.0513 110.763 12.0626 110.775 12.0739C111.283 12.232 111.79 12.4014 112.298 12.5708C112.239 13.2034 112.192 13.8246 112.133 14.4571C110.693 13.9827 109.252 13.5309 107.8 13.1017V11.159L107.789 11.1477ZM112.428 11.0799C112.428 9.80359 112.428 8.56114 112.428 7.28482C113.443 7.62367 114.447 7.96251 115.45 8.32395V10.7975C115.45 10.7975 115.45 10.8088 115.462 10.8201C115.686 10.8992 115.91 10.9783 116.135 11.0573C116.147 11.0573 116.147 11.0573 116.147 11.0573C116.147 10.2328 116.147 9.40826 116.147 8.59503C117.362 9.03553 118.567 9.48733 119.771 9.96171C119.771 10.6507 119.771 11.3397 119.771 12.0287C119.771 13.2034 119.771 14.378 119.771 15.5414C119.771 16.4111 119.771 17.2808 119.771 18.1505C118.567 17.6762 117.362 17.2244 116.147 16.7838C116.147 15.9706 116.147 15.1574 116.147 14.3441C116.147 14.3329 116.147 14.3329 116.135 14.3216C115.91 14.2425 115.686 14.1634 115.462 14.0844C115.45 14.0844 115.45 14.0844 115.45 14.0844V16.1175C114.447 15.756 113.443 15.4172 112.428 15.0783C112.428 13.7455 112.428 12.4127 112.428 11.0799Z" fill="#007BED"/>
<path d="M20.2384 53.6174C18.315 52.7477 16.9687 51.5165 16.2106 49.9126C15.4413 48.3201 15.2489 46.4225 15.5997 44.22L22.4446 42.6161C22.2523 43.5988 22.3767 44.4798 22.818 45.2817C23.2592 46.0837 24.0286 46.7049 25.1147 47.1567C26.2009 47.6085 27.5812 47.8344 29.2556 47.8344C30.3983 47.8344 31.3713 47.7214 32.152 47.4955C32.9327 47.2696 33.521 46.9647 33.9057 46.5806C34.2903 46.1966 34.5279 45.7787 34.6184 45.3269C34.709 44.8977 34.6863 44.5363 34.5279 44.2313C34.3695 43.9376 34.0301 43.6778 33.5097 43.4632C32.9892 43.2486 32.2199 43.0566 31.2129 42.8872L25.4768 42.0965C22.9424 41.7351 21.0869 41.0009 19.8877 39.894C18.6884 38.7871 18.2698 37.3753 18.6318 35.6584C19.1523 33.3204 20.6231 31.5358 23.0216 30.2933C25.4202 29.0509 28.3166 28.4297 31.7108 28.4297C34.2677 28.4297 36.44 28.7459 38.2276 29.3785C40.0152 30.011 41.3729 31.0614 42.2893 32.541C43.2057 34.0207 43.5565 36.0199 43.3415 38.5499L36.1798 40.4475C36.5192 39.2615 36.4174 38.2902 35.8969 37.556C35.3765 36.8218 34.5732 36.2797 33.5097 35.9408C32.4462 35.6133 31.2469 35.4438 29.9118 35.4438C28.4976 35.4438 27.4228 35.6246 26.6874 35.9973C25.9519 36.37 25.4881 36.9122 25.3297 37.6238C25.2392 38.0304 25.2505 38.3805 25.3636 38.6629C25.4881 38.9453 25.7483 39.1938 26.1556 39.4197C26.5629 39.6343 27.1399 39.8037 27.8753 39.9166L33.3965 40.6621C35.5009 41.0009 37.1754 41.4414 38.4086 42.0062C39.6418 42.5709 40.513 43.2712 40.9882 44.1296C41.4634 44.9881 41.5765 46.0159 41.305 47.2019C40.9995 48.7719 40.1623 50.1498 38.7933 51.3358C37.4356 52.5105 35.7612 53.4028 33.7925 54.0014C31.8239 54.6 29.7648 54.8937 27.6151 54.8937C24.6056 54.8937 22.1391 54.4645 20.2158 53.5835L20.2384 53.6174Z" fill="#007BED"/>
<path d="M47.0297 53.8996C45.8531 53.2897 44.9367 52.4313 44.2918 51.3018C43.6469 50.1836 43.3301 48.8847 43.3301 47.4051C43.3301 45.3042 43.7826 43.3615 44.6764 41.5543C45.5702 39.7584 46.8827 38.3126 48.6137 37.2509C50.3447 36.1779 52.4039 35.6357 54.7911 35.6357C56.1714 35.6357 57.4046 35.9181 58.4795 36.4942C59.5543 37.0702 60.3915 37.8947 61.0025 38.979C61.6134 40.0634 61.9189 41.3623 61.9189 42.8645H62.0999C62.247 41.8818 62.3828 40.8992 62.5299 39.8939C62.677 39.0129 62.8693 37.7931 63.1069 36.2457H69.6237L67.4741 46.2982L67.327 46.8742C67.1799 47.4954 67.112 47.9585 67.1347 48.2635C67.146 48.5797 67.2817 48.8169 67.5306 48.9751C67.7796 49.1445 68.2208 49.2235 68.8431 49.2235L67.6551 54.8032H66.1843C63.9441 54.8032 62.3602 54.4757 61.455 53.8432C60.5499 53.1994 60.0974 52.3409 60.0974 51.2679C60.0974 51.0081 60.12 50.7371 60.1653 50.4434C60.2105 50.161 60.2897 49.8674 60.3802 49.585C60.4028 49.5398 60.4255 49.4607 60.4481 49.3704H60.2671C59.2828 51.2566 58.0495 52.6346 56.5448 53.5043C55.04 54.374 53.2637 54.8032 51.2046 54.8032C49.6093 54.8032 48.2177 54.4983 47.0297 53.8883V53.8996ZM57.993 48.4216C58.932 47.9811 59.6448 47.4164 60.1087 46.7274C60.5726 46.0384 60.8102 45.2929 60.8102 44.5136C60.8102 43.8923 60.6178 43.3502 60.2218 42.8645C59.8258 42.3901 59.2601 42.0174 58.5021 41.7576C57.7441 41.4978 56.8163 41.3623 55.6849 41.3623C54.2028 41.3623 53.0148 41.5995 52.0984 42.0739C51.1933 42.5482 50.5371 43.1243 50.1411 43.8133C49.7451 44.491 49.5528 45.2025 49.5528 45.9367C49.5528 46.8855 49.9827 47.6535 50.8425 48.2296C51.7024 48.8056 52.9243 49.088 54.497 49.088C55.8773 49.088 57.0426 48.8621 57.993 48.4216Z" fill="#007BED"/>
<path d="M72.5675 42.2095C72.5675 41.8142 72.4544 41.5431 72.2281 41.4076C72.0018 41.272 71.5606 41.193 70.9157 41.193L72.0923 35.6133C74.5475 35.6133 76.3237 35.8618 77.4099 36.3475C78.496 36.8331 79.107 37.5786 79.2427 38.5838C79.3785 39.5891 79.1635 40.9671 78.6205 42.7291L78.5526 42.9098L77.7606 45.5528H77.9756C78.8581 43.2599 79.8424 41.3737 80.9172 39.8828C81.992 38.3918 83.1121 37.3188 84.2661 36.6411C85.4202 35.9747 86.5855 35.6359 87.7622 35.6359C89.7647 35.6359 91.1563 36.1893 91.9144 37.2962C92.6837 38.4031 92.91 39.8376 92.5932 41.5883C92.2877 43.339 91.5636 45.1575 90.4436 47.0437L86.2121 46.7614C86.7892 45.7109 87.0946 44.8299 87.1286 44.0958C87.1625 43.3729 86.9589 42.8307 86.5063 42.4693C86.0537 42.1079 85.3636 41.9384 84.4245 41.9384C83.3723 41.9384 82.3767 42.266 81.449 42.8985C80.5212 43.5423 79.7519 44.3556 79.1409 45.3495C78.53 46.3435 78.1114 47.36 77.8738 48.4104L76.6179 54.2047H70.135L72.2507 44.2991C72.4657 43.2938 72.5788 42.6048 72.5788 42.2095H72.5675Z" fill="#007BED"/>
<path d="M96.1569 53.8996C94.9803 53.2897 94.0639 52.4313 93.419 51.3018C92.7741 50.1836 92.4573 48.8847 92.4573 47.4051C92.4573 45.3042 92.9098 43.3615 93.8036 41.5543C94.6974 39.7584 96.0099 38.3126 97.7409 37.2509C99.4719 36.1779 101.531 35.6357 103.918 35.6357C105.299 35.6357 106.532 35.9181 107.607 36.4942C108.681 37.0702 109.519 37.8947 110.13 38.979C110.741 40.0634 111.046 41.3623 111.046 42.8645H111.227C111.374 41.8818 111.51 40.8992 111.657 39.8939C111.804 39.0129 111.996 37.7931 112.234 36.2457H118.751L116.601 46.2982L116.454 46.8742C116.307 47.4954 116.239 47.9585 116.262 48.2635C116.273 48.5797 116.409 48.8169 116.658 48.9751C116.907 49.1445 117.348 49.2235 117.97 49.2235L116.782 54.8032H115.311C113.071 54.8032 111.487 54.4757 110.582 53.8432C109.677 53.1994 109.225 52.3409 109.225 51.2679C109.225 51.0081 109.247 50.7371 109.292 50.4434C109.338 50.161 109.417 49.8674 109.507 49.585C109.53 49.5398 109.553 49.4607 109.575 49.3704H109.394C108.41 51.2566 107.177 52.6346 105.672 53.5043C104.167 54.374 102.391 54.8032 100.332 54.8032C98.7365 54.8032 97.3449 54.4983 96.1569 53.8883V53.8996ZM107.12 48.4216C108.059 47.9811 108.772 47.4164 109.236 46.7274C109.7 46.0384 109.937 45.2929 109.937 44.5136C109.937 43.8923 109.745 43.3502 109.349 42.8645C108.953 42.3901 108.387 42.0174 107.629 41.7576C106.871 41.4978 105.944 41.3623 104.812 41.3623C103.33 41.3623 102.142 41.5995 101.226 42.0739C100.32 42.5482 99.6643 43.1243 99.2683 43.8133C98.8723 44.491 98.68 45.2025 98.68 45.9367C98.68 46.8855 99.1099 47.6535 99.9697 48.2296C100.83 48.8056 102.052 49.088 103.624 49.088C105.004 49.088 106.17 48.8621 107.12 48.4216Z" fill="#007BED"/>
<path fill-rule="evenodd" clip-rule="evenodd" d="M127.134 52.5189C130.221 49.3591 131.697 46.1303 131.697 42.9546C131.697 39.7789 130.221 36.5501 127.134 33.3904C124.036 30.2193 119.431 27.2496 113.546 24.7018C101.784 19.6097 85.3613 16.3988 67.0909 16.3988C48.8205 16.3988 32.3981 19.6097 20.6361 24.7018C14.751 27.2496 10.1461 30.2193 7.04806 33.3904C3.96098 36.5501 2.48485 39.7789 2.48485 42.9546C2.48485 46.1303 3.96098 49.3591 7.04806 52.5189C10.1461 55.69 14.751 58.6597 20.6361 61.2075C32.3981 66.2996 48.8205 69.5105 67.0909 69.5105C85.3613 69.5105 101.784 66.2996 113.546 61.2075C119.431 58.6597 124.036 55.69 127.134 52.5189ZM134.182 42.9546C134.182 58.996 104.144 72.0001 67.0909 72.0001C30.0376 72.0001 0 58.996 0 42.9546C0 26.9133 30.0376 13.9092 67.0909 13.9092C104.144 13.9092 134.182 26.9133 134.182 42.9546Z" fill="#007BED"/>
<path fill-rule="evenodd" clip-rule="evenodd" d="M124.688 51.8703C127.742 48.983 129.275 45.9592 129.275 42.9246C129.275 39.89 127.742 36.8662 124.688 33.9789C121.632 31.0898 117.142 28.4296 111.489 26.1691C100.19 21.6511 84.4957 18.8287 67.0968 18.8287C49.6978 18.8287 34.0033 21.6511 22.7046 26.1691C17.0516 28.4296 12.5615 31.0898 9.50556 33.9789C6.45158 36.8662 4.91866 39.89 4.91866 42.9246C4.91866 45.9592 6.45158 48.983 9.50556 51.8703C12.5615 54.7594 17.0516 57.4195 22.7046 59.68C34.0033 64.1981 49.6978 67.0204 67.0968 67.0204C84.4957 67.0204 100.19 64.1981 111.489 59.68C117.142 57.4195 121.632 54.7594 124.688 51.8703ZM130.527 42.9246C130.527 56.9328 102.128 68.2886 67.0968 68.2886C32.0653 68.2886 3.66675 56.9328 3.66675 42.9246C3.66675 28.9164 32.0653 17.5605 67.0968 17.5605C102.128 17.5605 130.527 28.9164 130.527 42.9246Z" fill="#007BED"/>
</svg>
