<svg width="25" height="22" viewBox="0 0 25 22" fill="none" xmlns="http://www.w3.org/2000/svg">
<path d="M21.765 2.76815C21.2153 2.20759 20.5625 1.76292 19.8441 1.45954C19.1256 1.15615 18.3555 1 17.5779 1C16.8002 1 16.0301 1.15615 15.3117 1.45954C14.5932 1.76292 13.9405 2.20759 13.3907 2.76815L12.2497 3.93095L11.1087 2.76815C9.99823 1.6364 8.49205 1.00059 6.92156 1.00059C5.35106 1.00059 3.84489 1.6364 2.73438 2.76815C1.62388 3.89989 1 5.43487 1 7.03541C1 8.63594 1.62388 10.1709 2.73438 11.3027L3.87536 12.4655L12.2497 21L20.6241 12.4655L21.765 11.3027C22.3151 10.7424 22.7514 10.0771 23.0491 9.34495C23.3468 8.61276 23.5 7.82796 23.5 7.03541C23.5 6.24285 23.3468 5.45806 23.0491 4.72587C22.7514 3.99368 22.3151 3.32844 21.765 2.76815V2.76815Z" stroke="#EF2B00" stroke-width="1.5" stroke-linecap="round" stroke-linejoin="round"/>
</svg>
