<svg width="64" height="14" viewBox="0 0 64 14" fill="none" xmlns="http://www.w3.org/2000/svg">
<path d="M3.76341 0.00617428H8.57399C9.00626 2.01315 9.38913 4.16216 9.72877 6.44703C10.0684 8.7319 10.2845 10.7759 10.371 12.5791H10.4883C11.2294 10.9859 12.1618 9.21975 13.2858 7.2807C14.4097 5.34165 15.6818 3.19264 17.1206 0.846018L17.627 0.00617428H22.419L19.5043 13.6722H15.5768L17.0836 6.61376C17.1762 6.09504 17.275 5.63806 17.3862 5.25519C17.4973 4.87232 17.5961 4.55121 17.6888 4.28567C17.7135 4.18069 17.7567 4.08188 17.8061 3.98925H17.6702L11.9395 13.6722H8.43813L6.83255 3.98925H6.73374C6.72139 4.09423 6.70904 4.21157 6.69669 4.34125C6.62876 4.94025 6.50525 5.69982 6.32617 6.60759L4.81939 13.666H0.867188L3.76341 0V0.00617428Z" fill="#EF2B00"/>
<path d="M23.9949 13.506C23.3527 13.1725 22.8525 12.7032 22.5005 12.0857C22.1485 11.4743 21.9756 10.7642 21.9756 9.95519C21.9756 8.80658 22.2226 7.74442 22.7104 6.75637C23.1983 5.7745 23.9146 4.98406 24.8595 4.40358C25.8043 3.81692 26.9282 3.52051 28.2312 3.52051C28.9846 3.52051 29.6577 3.67489 30.2443 3.98983C30.831 4.30477 31.288 4.75557 31.6214 5.3484C31.9549 5.94123 32.1216 6.65139 32.1216 7.47271H32.2204C32.3007 6.93546 32.3748 6.39821 32.4551 5.8486C32.5354 5.36693 32.6404 4.69999 32.77 3.85398H36.327L35.1537 9.35001L35.0734 9.66495C34.9932 10.0046 34.9623 10.2578 34.9685 10.4245C34.9685 10.5974 35.0487 10.7271 35.1846 10.8136C35.3204 10.9062 35.5613 10.9494 35.9009 10.9494L35.2587 14H34.4559C33.227 14 32.3686 13.8209 31.8746 13.4751C31.3806 13.1231 31.1336 12.6538 31.1336 12.0671C31.1336 11.9251 31.1459 11.7769 31.1706 11.6164C31.1953 11.462 31.2386 11.3014 31.288 11.147C31.3003 11.1223 31.3127 11.0791 31.325 11.0297H31.2262C30.689 12.061 30.0158 12.8144 29.1945 13.2899C28.3732 13.7654 27.4037 14 26.2798 14C25.4091 14 24.6495 13.8333 24.0011 13.4998L23.9949 13.506ZM29.9788 10.511C30.4913 10.2701 30.8804 9.96136 31.1336 9.58467C31.3868 9.20798 31.5164 8.80041 31.5164 8.37431C31.5164 8.03467 31.4115 7.73825 31.1953 7.47271C30.9792 7.21335 30.6643 7.00956 30.2567 6.86753C29.8491 6.7255 29.3366 6.65139 28.719 6.65139C27.9101 6.65139 27.2555 6.78108 26.7615 7.04044C26.2674 7.2998 25.9093 7.61474 25.6931 7.99144C25.477 8.36813 25.372 8.751 25.372 9.1524C25.372 9.67112 25.6067 10.091 26.076 10.406C26.5453 10.7209 27.2123 10.8753 28.0706 10.8753C28.824 10.8753 29.4601 10.7518 29.9788 10.511Z" fill="#EF2B00"/>
<path d="M37.9263 7.11322C37.9263 6.89709 37.8646 6.74888 37.7411 6.67477C37.6176 6.60067 37.3767 6.55744 37.0247 6.55744L37.667 3.50684C39.007 3.50684 39.9765 3.64269 40.5694 3.90823C41.1622 4.17377 41.4957 4.58134 41.5698 5.13095C41.6439 5.68055 41.5265 6.43394 41.2301 7.39729L41.1931 7.49609L40.7608 8.94112H40.8781C41.3598 7.68753 41.8971 6.65625 42.4837 5.84111C43.0704 5.02596 43.6817 4.43931 44.3116 4.06879C44.9415 3.70445 45.5775 3.51919 46.2198 3.51919C47.3128 3.51919 48.0724 3.82178 48.4861 4.42696C48.8999 5.03214 49.0295 5.81641 48.8566 6.77358C48.6899 7.73075 48.2947 8.72498 47.6833 9.75626L45.3738 9.60187C45.6887 9.02757 45.8554 8.5459 45.874 8.1445C45.8925 7.74928 45.7813 7.45287 45.5343 7.25526C45.2873 7.05765 44.9106 6.96501 44.3981 6.96501C43.8238 6.96501 43.2865 7.1441 42.774 7.48992C42.2676 7.84191 41.8477 8.28653 41.5142 8.82996C41.1807 9.37339 40.9522 9.92917 40.8225 10.5035L40.1371 13.6714H36.5986L37.7534 8.25566C37.8707 7.70605 37.9325 7.32936 37.9325 7.11322H37.9263Z" fill="#EF2B00"/>
<path d="M50.8016 13.506C50.1593 13.1725 49.6591 12.7032 49.3071 12.0857C48.9551 11.4743 48.7822 10.7642 48.7822 9.95519C48.7822 8.80658 49.0292 7.74442 49.5171 6.75637C50.0049 5.7745 50.7213 4.98406 51.6661 4.40358C52.6109 3.81692 53.7348 3.52051 55.0378 3.52051C55.7912 3.52051 56.4643 3.67489 57.051 3.98983C57.6376 4.30477 58.0946 4.75557 58.4281 5.3484C58.7615 5.94123 58.9283 6.65139 58.9283 7.47271H59.0271C59.1074 6.93546 59.1815 6.39821 59.2617 5.8486C59.342 5.36693 59.447 4.69999 59.5767 3.85398H63.1337L61.9604 9.35001L61.8801 9.66495C61.7998 10.0046 61.7689 10.2578 61.7751 10.4245C61.7751 10.5974 61.8554 10.7271 61.9912 10.8136C62.1271 10.9062 62.3679 10.9494 62.7076 10.9494L62.0653 14H61.2625C60.0337 14 59.1753 13.8209 58.6813 13.4751C58.1872 13.1231 57.9402 12.6538 57.9402 12.0671C57.9402 11.9251 57.9526 11.7769 57.9773 11.6164C58.002 11.462 58.0452 11.3014 58.0946 11.147C58.107 11.1223 58.1193 11.0791 58.1317 11.0297H58.0329C57.4956 12.061 56.8225 12.8144 56.0012 13.2899C55.1799 13.7654 54.2103 14 53.0864 14C52.2157 14 51.4561 13.8333 50.8077 13.4998L50.8016 13.506ZM56.7854 10.511C57.298 10.2701 57.687 9.96136 57.9402 9.58467C58.1934 9.20798 58.3231 8.80041 58.3231 8.37431C58.3231 8.03467 58.2181 7.73825 58.002 7.47271C57.7858 7.21335 57.4709 7.00956 57.0633 6.86753C56.6558 6.7255 56.1432 6.65139 55.5257 6.65139C54.7167 6.65139 54.0621 6.78108 53.5681 7.04044C53.0741 7.2998 52.7159 7.61474 52.4998 7.99144C52.2836 8.36813 52.1787 8.751 52.1787 9.1524C52.1787 9.67112 52.4133 10.091 52.8826 10.406C53.352 10.7209 54.0189 10.8753 54.8773 10.8753C55.6307 10.8753 56.2667 10.7518 56.7854 10.511Z" fill="#EF2B00"/>
</svg>
