<svg width="144" height="18" viewBox="0 0 144 18" fill="none" xmlns="http://www.w3.org/2000/svg">
<path d="M3.2644 17.1319C1.95838 16.5403 1.04417 15.7029 0.529445 14.612C0.00703794 13.5288 -0.123564 12.2382 0.114592 10.7401L4.76248 9.64917C4.63188 10.3175 4.71638 10.9168 5.016 11.4622C5.31562 12.0077 5.83802 12.4302 6.57554 12.7375C7.31306 13.0448 8.25032 13.1985 9.38732 13.1985C10.1632 13.1985 10.8239 13.1216 11.354 12.968C11.8841 12.8143 12.2836 12.6069 12.5448 12.3457C12.806 12.0845 12.9673 11.8003 13.0288 11.493C13.0903 11.201 13.0749 10.9552 12.9673 10.7478C12.8598 10.548 12.6293 10.3713 12.2759 10.2254C11.9225 10.0794 11.4001 9.94878 10.7164 9.83355L6.82138 9.29578C5.10051 9.04994 3.84058 8.55058 3.02624 7.7977C2.2119 7.04481 1.92765 6.08451 2.17349 4.91677C2.52689 3.3265 3.5256 2.11268 5.15428 1.26761C6.78297 0.422535 8.74968 0 11.0544 0C12.7906 0 14.2657 0.215109 15.4795 0.645327C16.6933 1.07554 17.6152 1.79001 18.2375 2.79641C18.8598 3.80282 19.0979 5.16261 18.952 6.88348L14.089 8.17414C14.3195 7.36748 14.2503 6.70679 13.8969 6.20743C13.5435 5.70807 12.9981 5.33931 12.2759 5.10883C11.5538 4.88604 10.7394 4.77081 9.8329 4.77081C8.8726 4.77081 8.14276 4.89373 7.6434 5.14725C7.14404 5.40077 6.82906 5.76953 6.72151 6.25352C6.66005 6.53009 6.66773 6.76825 6.74455 6.96031C6.82906 7.15237 7.00576 7.32138 7.28233 7.47503C7.5589 7.621 7.9507 7.73624 8.45006 7.81306L12.1991 8.3201C13.628 8.55058 14.765 8.85019 15.6024 9.23431C16.4398 9.61844 17.0314 10.0948 17.354 10.6786C17.6767 11.2625 17.7535 11.9616 17.5691 12.7682C17.3617 13.8361 16.7932 14.7734 15.8636 15.58C14.9417 16.379 13.8047 16.9859 12.468 17.3931C11.1312 17.8003 9.73303 18 8.27336 18C6.22983 18 4.55505 17.7081 3.24904 17.1088L3.2644 17.1319Z" fill="#007BED"/>
<path d="M21.4555 17.3239C20.6565 16.9091 20.0343 16.3252 19.5964 15.5569C19.1585 14.7964 18.9434 13.9129 18.9434 12.9065C18.9434 11.4776 19.2507 10.1562 19.8576 8.92698C20.4645 7.70546 21.3557 6.72211 22.5311 5.99996C23.7065 5.27013 25.1047 4.90137 26.7257 4.90137C27.663 4.90137 28.5003 5.09343 29.2302 5.48523C29.96 5.87704 30.5285 6.43786 30.9434 7.17538C31.3582 7.91289 31.5656 8.79637 31.5656 9.81814H31.6886C31.7884 9.14977 31.8806 8.48139 31.9805 7.79765C32.0804 7.19842 32.211 6.36872 32.3723 5.31622H36.7974L35.3377 12.1536L35.2379 12.5454C35.138 12.9679 35.0919 13.2829 35.1073 13.4904C35.1149 13.7055 35.2071 13.8668 35.3761 13.9744C35.5452 14.0896 35.8448 14.1434 36.2673 14.1434L35.4606 17.9385H34.4619C32.9408 17.9385 31.8653 17.7157 31.2507 17.2855C30.6361 16.8476 30.3288 16.2637 30.3288 15.5339C30.3288 15.3572 30.3441 15.1728 30.3749 14.9731C30.4056 14.781 30.4594 14.5813 30.5208 14.3892C30.5362 14.3585 30.5516 14.3047 30.5669 14.2432H30.444C29.7756 15.5262 28.9382 16.4635 27.9165 17.055C26.8947 17.6466 25.6886 17.9385 24.2904 17.9385C23.2071 17.9385 22.2622 17.7311 21.4555 17.3162V17.3239ZM28.8998 13.5979C29.5375 13.2983 30.0215 12.9142 30.3364 12.4455C30.6514 11.9769 30.8128 11.4699 30.8128 10.9398C30.8128 10.5172 30.6822 10.1485 30.4133 9.81814C30.1444 9.49548 29.7603 9.24196 29.2455 9.06526C28.7308 8.88856 28.1009 8.79637 27.3326 8.79637C26.3262 8.79637 25.5195 8.95771 24.8973 9.28037C24.2827 9.60303 23.8371 9.99484 23.5682 10.4635C23.2993 10.9244 23.1687 11.4084 23.1687 11.9078C23.1687 12.5531 23.4606 13.0755 24.0445 13.4673C24.6284 13.8591 25.4581 14.0512 26.5259 14.0512C27.4632 14.0512 28.2545 13.8975 28.8998 13.5979Z" fill="#007BED"/>
<path d="M38.7963 9.3723C38.7963 9.10341 38.7194 8.91903 38.5658 8.82684C38.4121 8.73465 38.1125 8.68088 37.6746 8.68088L38.4736 4.88574C40.1407 4.88574 41.3468 5.05476 42.0843 5.3851C42.8219 5.71545 43.2367 6.22249 43.3289 6.90623C43.4211 7.58997 43.2751 8.52723 42.9064 9.72569L42.8603 9.84861L42.3225 11.6463H42.4685C43.0677 10.0868 43.7361 8.8038 44.4659 7.78971C45.1957 6.77563 45.9563 6.04579 46.7399 5.58485C47.5235 5.13158 48.3148 4.90111 49.1138 4.90111C50.4736 4.90111 51.4185 5.27755 51.9333 6.03043C52.4557 6.78331 52.6093 7.75898 52.3942 8.94976C52.1868 10.1405 51.6951 11.3774 50.9345 12.6604L48.0613 12.4683C48.4531 11.7539 48.6605 11.1546 48.6836 10.6553C48.7066 10.1636 48.5683 9.79483 48.261 9.549C47.9537 9.30316 47.4851 9.18792 46.8475 9.18792C46.133 9.18792 45.4569 9.41071 44.827 9.84093C44.197 10.2788 43.6746 10.832 43.2598 11.508C42.8449 12.1841 42.5607 12.8755 42.3993 13.59L41.5466 17.5311H37.1445L38.5812 10.7936C38.7271 10.1098 38.8039 9.64118 38.8039 9.3723H38.7963Z" fill="#007BED"/>
<path d="M54.8149 17.3239C54.0159 16.9091 53.3936 16.3252 52.9557 15.5569C52.5178 14.7964 52.3027 13.9129 52.3027 12.9065C52.3027 11.4776 52.61 10.1562 53.2169 8.92698C53.8239 7.70546 54.715 6.72211 55.8904 5.99996C57.0659 5.27013 58.4641 4.90137 60.0851 4.90137C61.0223 4.90137 61.8597 5.09343 62.5895 5.48523C63.3194 5.87704 63.8879 6.43786 64.3027 7.17538C64.7176 7.91289 64.925 8.79637 64.925 9.81814H65.0479C65.1478 9.14977 65.24 8.48139 65.3399 7.79765C65.4397 7.19842 65.5703 6.36872 65.7317 5.31622H70.1568L68.6971 12.1536L68.5972 12.5454C68.4974 12.9679 68.4513 13.2829 68.4666 13.4904C68.4743 13.7055 68.5665 13.8668 68.7355 13.9744C68.9045 14.0896 69.2041 14.1434 69.6267 14.1434L68.82 17.9385H67.8213C66.3002 17.9385 65.2246 17.7157 64.61 17.2855C63.9954 16.8476 63.6881 16.2637 63.6881 15.5339C63.6881 15.3572 63.7035 15.1728 63.7342 14.9731C63.765 14.781 63.8187 14.5813 63.8802 14.3892C63.8956 14.3585 63.9109 14.3047 63.9263 14.2432H63.8034C63.135 15.5262 62.2976 16.4635 61.2758 17.055C60.2541 17.6466 59.0479 17.9385 57.6497 17.9385C56.5665 17.9385 55.6216 17.7311 54.8149 17.3162V17.3239ZM62.2592 13.5979C62.8968 13.2983 63.3808 12.9142 63.6958 12.4455C64.0108 11.9769 64.1721 11.4699 64.1721 10.9398C64.1721 10.5172 64.0415 10.1485 63.7726 9.81814C63.5038 9.49548 63.1196 9.24196 62.6049 9.06526C62.0902 8.88856 61.4602 8.79637 60.692 8.79637C59.6856 8.79637 58.8789 8.95771 58.2566 9.28037C57.642 9.60303 57.1965 9.99484 56.9276 10.4635C56.6587 10.9244 56.5281 11.4084 56.5281 11.9078C56.5281 12.5531 56.82 13.0755 57.4039 13.4673C57.9878 13.8591 58.8175 14.0512 59.8853 14.0512C60.8226 14.0512 61.6139 13.8975 62.2592 13.5979Z" fill="#007BED"/>
<path d="M87.3633 4.81641V17.2578H85.6953V4.81641H87.3633ZM76.6855 10.2031C76.6855 7.4209 77.7451 5.69824 79.3926 5.70508C80.8896 5.69824 81.915 7.09961 82.1064 9.42383H83.125V4.99414H84.7656V16.6836H83.125V10.8047H82.1201C81.9697 13.2451 80.9238 14.7285 79.3926 14.7285C77.7451 14.7285 76.6855 12.999 76.6855 10.2031ZM78.2988 10.2031C78.2852 12.1172 78.6953 13.0605 79.3926 13.0469C80.1104 13.0605 80.5342 12.1172 80.5273 10.2031C80.5342 8.2959 80.1104 7.3457 79.3926 7.3457C78.6953 7.3457 78.2852 8.2959 78.2988 10.2031ZM99.4629 4.81641V17.2578H97.8223V4.81641H99.4629ZM88.5254 13.4434C91.041 11.9531 92.1484 10.1416 92.3877 7.70117H89.209V6.29297H94.1172C94.1172 7.48242 93.9873 8.58984 93.6865 9.61523H95.1836V5.08984H96.8105V16.7109H95.1836V10.9961H93.1465C92.4355 12.418 91.2803 13.6484 89.5098 14.6738L88.5254 13.4434ZM113.873 4.83008V8.64453H115.555V10.0664H113.873V14.1133H112.123V4.83008H113.873ZM104.002 7.50977V6.12891H106.832V4.80273H108.568V6.12891H111.385V7.50977H104.002ZM104.604 10.3535C104.604 8.91113 105.882 7.94727 107.693 7.94727C109.498 7.94727 110.756 8.91113 110.756 10.3535C110.756 11.7891 109.498 12.7324 107.693 12.7324C105.882 12.7324 104.604 11.7891 104.604 10.3535ZM105.807 17.0391V13.4023H107.543V15.6445H114.324V17.0391H105.807ZM106.312 10.3535C106.306 11.0371 106.859 11.4062 107.693 11.4062C108.534 11.4062 109.102 11.0371 109.102 10.3535C109.102 9.66309 108.534 9.28027 107.693 9.27344C106.859 9.28027 106.306 9.66309 106.312 10.3535ZM129.732 4.81641V11.2012H127.996V4.81641H129.732ZM119.383 9.95703C121.317 9.42383 122.274 8.11816 122.391 6.78516H119.848V5.39062H126.684V6.78516H124.195C124.312 8.02246 125.255 9.23926 127.162 9.73828L126.328 11.0781C124.886 10.6816 123.888 9.84766 123.327 8.78125C122.76 9.96387 121.707 10.9004 120.176 11.3379L119.383 9.95703ZM121.393 13.0195V11.6934H129.746V15.0156H123.129V15.8359H130.088V17.1758H121.42V13.7715H128.01V13.0195H121.393ZM142.803 10.9688V12.3496H138.113V14.4961H136.391V12.3496H131.414V10.9688H142.803ZM132.754 17.0391V13.416H134.49V15.6445H141.545V17.0391H132.754ZM132.836 9.94336V5.36328H141.34V9.94336H132.836ZM134.545 8.58984H139.631V6.7168H134.545V8.58984Z" fill="#007BED"/>
</svg>
