<svg width="56" height="14" viewBox="0 0 56 14" fill="none" xmlns="http://www.w3.org/2000/svg">
<path d="M3.25675 13.3248C2.24096 12.8647 1.52991 12.2134 1.12956 11.3649C0.723247 10.5224 0.621668 9.51857 0.806901 8.35339L4.42193 7.50491C4.32035 8.02475 4.38607 8.49082 4.61911 8.91507C4.85214 9.33931 5.25846 9.66795 5.83208 9.90696C6.40571 10.146 7.13469 10.2655 8.01903 10.2655C8.62253 10.2655 9.1364 10.2057 9.54869 10.0862C9.96098 9.96671 10.2717 9.80538 10.4749 9.60222C10.678 9.39906 10.8035 9.17798 10.8513 8.93897C10.8991 8.71191 10.8871 8.5207 10.8035 8.35937C10.7198 8.20401 10.5406 8.06658 10.2657 7.95305C9.99086 7.83952 9.58454 7.73794 9.05274 7.64831L6.02329 7.23005C4.68484 7.03884 3.7049 6.65045 3.07152 6.06487C2.43814 5.4793 2.21706 4.73239 2.40827 3.82416C2.68313 2.58728 3.45991 1.64319 4.72666 0.985915C5.99342 0.328638 7.52308 0 9.31565 0C10.6661 0 11.8133 0.167307 12.7574 0.501921C13.7015 0.836535 14.4185 1.39223 14.9025 2.17499C15.3865 2.95775 15.5717 4.01536 15.4582 5.35382L11.6759 6.35766C11.8551 5.73026 11.8014 5.21639 11.5265 4.828C11.2516 4.43961 10.8274 4.1528 10.2657 3.97354C9.70405 3.80026 9.07067 3.71063 8.36559 3.71063C7.61868 3.71063 7.05103 3.80623 6.66264 4.00341C6.27425 4.2006 6.02927 4.48741 5.94561 4.86385C5.89781 5.07896 5.90379 5.26419 5.96354 5.41357C6.02927 5.56295 6.1667 5.69441 6.38181 5.81391C6.59692 5.92744 6.90165 6.01707 7.29004 6.07683L10.206 6.47119C11.3174 6.65045 12.2017 6.88348 12.853 7.18224C13.5043 7.48101 13.9644 7.85147 14.2154 8.30559C14.4663 8.75971 14.5261 9.30346 14.3827 9.93086C14.2213 10.7614 13.7792 11.4904 13.0562 12.1178C12.3391 12.7392 11.4548 13.2113 10.4151 13.528C9.37541 13.8446 8.28791 14 7.15261 14C5.5632 14 4.26059 13.7729 3.2448 13.3069L3.25675 13.3248Z" fill="#007BED"/>
<path d="M17.4041 13.4725C16.7827 13.1499 16.2987 12.6957 15.9581 12.0982C15.6175 11.5067 15.4502 10.8195 15.4502 10.0368C15.4502 8.92536 15.6892 7.89761 16.1613 6.94158C16.6333 5.99151 17.3264 5.22668 18.2406 4.66501C19.1549 4.09736 20.2423 3.81055 21.5031 3.81055C22.2321 3.81055 22.8834 3.95993 23.4511 4.26467C24.0187 4.5694 24.4609 5.0056 24.7835 5.57922C25.1062 6.15284 25.2675 6.84 25.2675 7.6347H25.3631C25.4408 7.11486 25.5125 6.59501 25.5902 6.06321C25.6679 5.59715 25.7694 4.95182 25.8949 4.13321H29.3367L28.2014 9.45118L28.1237 9.75592C28.046 10.0846 28.0102 10.3295 28.0221 10.4909C28.0281 10.6582 28.0998 10.7837 28.2313 10.8673C28.3627 10.9569 28.5957 10.9988 28.9244 10.9988L28.297 13.9505H27.5202C26.3371 13.9505 25.5006 13.7773 25.0225 13.4426C24.5445 13.1021 24.3055 12.6479 24.3055 12.0803C24.3055 11.9429 24.3175 11.7994 24.3414 11.6441C24.3653 11.4947 24.4071 11.3394 24.4549 11.19C24.4668 11.1661 24.4788 11.1242 24.4907 11.0764H24.3951C23.8753 12.0743 23.224 12.8033 22.4293 13.2634C21.6346 13.7235 20.6965 13.9505 19.609 13.9505C18.7665 13.9505 18.0315 13.7892 17.4041 13.4665V13.4725ZM23.1941 10.5745C23.6901 10.3415 24.0665 10.0427 24.3115 9.67824C24.5565 9.31375 24.682 8.91938 24.682 8.50709C24.682 8.17845 24.5804 7.89164 24.3712 7.6347C24.1621 7.38374 23.8633 7.18656 23.463 7.04913C23.0627 6.9117 22.5727 6.84 21.9752 6.84C21.1924 6.84 20.565 6.96548 20.081 7.21644C19.603 7.4674 19.2564 7.77213 19.0473 8.13662C18.8382 8.49514 18.7366 8.87158 18.7366 9.25997C18.7366 9.76189 18.9636 10.1682 19.4178 10.4729C19.8719 10.7777 20.5172 10.9271 21.3478 10.9271C22.0767 10.9271 22.6922 10.8076 23.1941 10.5745Z" fill="#007BED"/>
<path d="M30.8941 7.28935C30.8941 7.08021 30.8343 6.93681 30.7148 6.86511C30.5953 6.7934 30.3623 6.75158 30.0217 6.75158L30.6431 3.7998C31.9397 3.7998 32.8778 3.93126 33.4515 4.1882C34.0251 4.44513 34.3477 4.8395 34.4194 5.37129C34.4912 5.90309 34.3776 6.63207 34.0908 7.56421L34.055 7.65981L33.6367 9.05802H33.7502C34.2163 7.84505 34.7361 6.84718 35.3038 6.05845C35.8714 5.26972 36.463 4.70207 37.0725 4.34355C37.6819 3.99101 38.2974 3.81176 38.9188 3.81176C39.9764 3.81176 40.7114 4.10454 41.1117 4.69012C41.518 5.27569 41.6375 6.03455 41.4702 6.96071C41.3089 7.88687 40.9265 8.84889 40.3349 9.84675L38.1002 9.69737C38.4049 9.14167 38.5663 8.6756 38.5842 8.28721C38.6021 7.9048 38.4946 7.61799 38.2556 7.42678C38.0165 7.23557 37.6521 7.14594 37.1561 7.14594C36.6004 7.14594 36.0746 7.31922 35.5846 7.65384C35.0947 7.99443 34.6883 8.42464 34.3657 8.95047C34.043 9.47629 33.8219 10.0141 33.6964 10.5698L33.0332 13.6351H29.6094L30.7267 8.39477C30.8403 7.86297 30.9 7.49848 30.9 7.28935H30.8941Z" fill="#007BED"/>
<path d="M43.3504 13.4725C42.729 13.1499 42.245 12.6957 41.9044 12.0982C41.5638 11.5067 41.3965 10.8195 41.3965 10.0368C41.3965 8.92536 41.6355 7.89761 42.1075 6.94158C42.5796 5.99151 43.2727 5.22668 44.1869 4.66501C45.1011 4.09736 46.1886 3.81055 47.4494 3.81055C48.1784 3.81055 48.8297 3.95993 49.3973 4.26467C49.965 4.5694 50.4072 5.0056 50.7298 5.57922C51.0525 6.15284 51.2138 6.84 51.2138 7.6347H51.3094C51.3871 7.11486 51.4588 6.59501 51.5365 6.06321C51.6142 5.59715 51.7157 4.95182 51.8412 4.13321H55.283L54.1477 9.45118L54.07 9.75592C53.9923 10.0846 53.9565 10.3295 53.9684 10.4909C53.9744 10.6582 54.0461 10.7837 54.1775 10.8673C54.309 10.9569 54.542 10.9988 54.8707 10.9988L54.2433 13.9505H53.4665C52.2834 13.9505 51.4469 13.7773 50.9688 13.4426C50.4908 13.1021 50.2518 12.6479 50.2518 12.0803C50.2518 11.9429 50.2638 11.7994 50.2877 11.6441C50.3116 11.4947 50.3534 11.3394 50.4012 11.19C50.4131 11.1661 50.4251 11.1242 50.437 11.0764H50.3414C49.8216 12.0743 49.1703 12.8033 48.3756 13.2634C47.5809 13.7235 46.6428 13.9505 45.5553 13.9505C44.7127 13.9505 43.9778 13.7892 43.3504 13.4665V13.4725ZM49.1404 10.5745C49.6364 10.3415 50.0128 10.0427 50.2578 9.67824C50.5028 9.31375 50.6282 8.91938 50.6282 8.50709C50.6282 8.17845 50.5267 7.89164 50.3175 7.6347C50.1084 7.38374 49.8096 7.18656 49.4093 7.04913C49.0089 6.9117 48.519 6.84 47.9215 6.84C47.1387 6.84 46.5113 6.96548 46.0273 7.21644C45.5493 7.4674 45.2027 7.77213 44.9936 8.13662C44.7844 8.49514 44.6829 8.87158 44.6829 9.25997C44.6829 9.76189 44.9099 10.1682 45.364 10.4729C45.8182 10.7777 46.4635 10.9271 47.2941 10.9271C48.023 10.9271 48.6385 10.8076 49.1404 10.5745Z" fill="#007BED"/>
</svg>
