<svg width="286" height="20" viewBox="0 0 286 20" fill="none" xmlns="http://www.w3.org/2000/svg">
<path d="M4.16102 0.00882065H11.0335C11.651 2.87601 12.198 5.94612 12.6832 9.2103C13.1684 12.4745 13.4772 15.3946 13.6007 17.9707H13.7683C14.827 15.6946 16.1591 13.1714 17.7647 10.4013C19.3704 7.63114 21.1877 4.56104 23.2433 1.20863L23.9667 0.00882065H30.8127L26.6486 19.5322H21.0378L23.1904 9.4485C23.3227 8.70744 23.4638 8.0546 23.6226 7.50763C23.7814 6.96066 23.9226 6.50191 24.0549 6.12256C24.0902 5.97258 24.152 5.83143 24.2225 5.6991H24.0285L15.8415 19.5322H10.8394L8.54562 5.6991H8.40446C8.38682 5.84907 8.36917 6.01669 8.35153 6.20196C8.25449 7.0577 8.07804 8.14283 7.8222 9.43968L5.6696 19.5234H0.0234375L4.16102 0V0.00882065Z" fill="#EF2B00"/>
<path d="M33.0626 19.2947C32.1451 18.8183 31.4305 18.1478 30.9276 17.2656C30.4248 16.3922 30.1777 15.3777 30.1777 14.222C30.1777 12.581 30.5306 11.0636 31.2276 9.65209C31.9245 8.24937 32.9479 7.12014 34.2977 6.29086C35.6475 5.45276 37.2531 5.0293 39.1146 5.0293C40.1909 5.0293 41.1525 5.24985 41.9906 5.69978C42.8287 6.14971 43.4815 6.79372 43.9579 7.64065C44.4343 8.48757 44.6725 9.50212 44.6725 10.6755H44.8136C44.9283 9.90794 45.0342 9.14041 45.1489 8.35524C45.2636 7.66711 45.4136 6.71432 45.5988 5.50569H50.6804L49.0042 13.3574L48.8895 13.8073C48.7748 14.2925 48.7307 14.6542 48.7395 14.8924C48.7395 15.1395 48.8542 15.3247 49.0483 15.4482C49.2424 15.5806 49.5864 15.6423 50.0716 15.6423L49.1541 20.0005H48.0073C46.2517 20.0005 45.0254 19.7446 44.3196 19.2506C43.6138 18.7477 43.261 18.0772 43.261 17.2391C43.261 17.0362 43.2786 16.8245 43.3139 16.5951C43.3492 16.3746 43.4109 16.1452 43.4815 15.9246C43.4992 15.8893 43.5168 15.8276 43.5344 15.757H43.3933C42.6258 17.2303 41.6641 18.3066 40.4908 18.9859C39.3175 19.6652 37.9324 20.0005 36.3268 20.0005C35.0828 20.0005 33.9977 19.7623 33.0714 19.2859L33.0626 19.2947ZM41.6112 15.0159C42.3435 14.6719 42.8992 14.2308 43.261 13.6926C43.6227 13.1545 43.8079 12.5722 43.8079 11.9635C43.8079 11.4783 43.658 11.0548 43.3492 10.6755C43.0404 10.3049 42.5905 10.0138 42.0082 9.81089C41.426 9.60798 40.6937 9.50212 39.8115 9.50212C38.6558 9.50212 37.7207 9.68738 37.0149 10.0579C36.3091 10.4284 35.7974 10.8784 35.4887 11.4165C35.1799 11.9547 35.0299 12.5016 35.0299 13.0751C35.0299 13.8161 35.3651 14.416 36.0356 14.866C36.7061 15.3159 37.6589 15.5365 38.8852 15.5365C39.9615 15.5365 40.8702 15.36 41.6112 15.0159Z" fill="#EF2B00"/>
<path d="M52.9661 10.1629C52.9661 9.85409 52.8779 9.64236 52.7014 9.5365C52.525 9.43063 52.1809 9.36888 51.6781 9.36888L52.5956 5.01074C54.51 5.01074 55.895 5.20483 56.742 5.58418C57.5889 5.96353 58.0653 6.54579 58.1711 7.33096C58.277 8.11613 58.1094 9.19243 57.6859 10.5687L57.633 10.7098L57.0154 12.7742H57.1831C57.8712 10.9833 58.6387 9.51003 59.4768 8.34551C60.3149 7.18099 61.1883 6.34288 62.0882 5.81356C62.988 5.29305 63.8967 5.02839 64.8142 5.02839C66.3757 5.02839 67.4609 5.46067 68.0519 6.32524C68.643 7.18981 68.8283 8.31022 68.5813 9.67765C68.3431 11.0451 67.7784 12.4654 66.9051 13.9387L63.6056 13.7182C64.0555 12.8977 64.2937 12.2096 64.3202 11.6362C64.3466 11.0715 64.1878 10.6481 63.835 10.3658C63.4821 10.0835 62.9439 9.95114 62.2117 9.95114C61.3912 9.95114 60.6237 10.207 59.8915 10.701C59.1681 11.2039 58.5681 11.8391 58.0918 12.6154C57.6154 13.3918 57.2889 14.1858 57.1037 15.0062L56.1244 19.532H51.0693L52.7191 11.795C52.8867 11.0098 52.9749 10.4716 52.9749 10.1629H52.9661Z" fill="#EF2B00"/>
<path d="M71.359 19.2947C70.4415 18.8183 69.7269 18.1478 69.224 17.2656C68.7211 16.3922 68.4741 15.3777 68.4741 14.222C68.4741 12.581 68.827 11.0636 69.524 9.65209C70.2209 8.24937 71.2443 7.12014 72.5941 6.29086C73.9438 5.45276 75.5495 5.0293 77.4109 5.0293C78.4872 5.0293 79.4489 5.24985 80.287 5.69978C81.1251 6.14971 81.7779 6.79372 82.2543 7.64065C82.7307 8.48757 82.9689 9.50212 82.9689 10.6755H83.11C83.2247 9.90794 83.3306 9.14041 83.4453 8.35524C83.56 7.66711 83.7099 6.71432 83.8952 5.50569H88.9768L87.3006 13.3574L87.1859 13.8073C87.0712 14.2925 87.0271 14.6542 87.0359 14.8924C87.0359 15.1395 87.1506 15.3247 87.3447 15.4482C87.5387 15.5806 87.8828 15.6423 88.368 15.6423L87.4505 20.0005H86.3036C84.548 20.0005 83.3218 19.7446 82.616 19.2506C81.9102 18.7477 81.5573 18.0772 81.5573 17.2391C81.5573 17.0362 81.575 16.8245 81.6103 16.5951C81.6456 16.3746 81.7073 16.1452 81.7779 15.9246C81.7955 15.8893 81.8132 15.8276 81.8308 15.757H81.6897C80.9222 17.2303 79.9605 18.3066 78.7872 18.9859C77.6139 19.6652 76.2288 20.0005 74.6231 20.0005C73.3792 20.0005 72.2941 19.7623 71.3678 19.2859L71.359 19.2947ZM79.9076 15.0159C80.6398 14.6719 81.1956 14.2308 81.5573 13.6926C81.919 13.1545 82.1043 12.5722 82.1043 11.9635C82.1043 11.4783 81.9543 11.0548 81.6456 10.6755C81.3368 10.3049 80.8869 10.0138 80.3046 9.81089C79.7223 9.60798 78.9901 9.50212 78.1079 9.50212C76.9522 9.50212 76.017 9.68738 75.3113 10.0579C74.6055 10.4284 74.0938 10.8784 73.785 11.4165C73.4763 11.9547 73.3263 12.5016 73.3263 13.0751C73.3263 13.8161 73.6615 14.416 74.332 14.866C75.0025 15.3159 75.9553 15.5365 77.1816 15.5365C78.2579 15.5365 79.1665 15.36 79.9076 15.0159Z" fill="#EF2B00"/>
<path d="M106.75 10.6719H108.766V12.3125H106.75V19.4062H104.75V5.21875H106.75V10.6719ZM95.375 15.4219C97.0677 14.5729 98.3698 13.5677 99.2812 12.4062C100.193 11.2448 100.742 9.875 100.93 8.29688H96.1875V6.67188H102.953C102.943 8.9375 102.432 10.9375 101.422 12.6719C100.417 14.4062 98.776 15.8333 96.5 16.9531L95.375 15.4219ZM117.594 7.75C117.594 8.56771 117.815 9.31771 118.258 10C118.706 10.6771 119.38 11.1875 120.281 11.5312L119.219 13.0469C118.625 12.8229 118.115 12.5104 117.688 12.1094C117.26 11.7083 116.917 11.237 116.656 10.6953C116.385 11.3359 116.021 11.8958 115.562 12.375C115.109 12.8542 114.562 13.2292 113.922 13.5L112.844 11.9688C113.484 11.6875 114.016 11.3203 114.438 10.8672C114.859 10.4141 115.167 9.92188 115.359 9.39062C115.557 8.85417 115.656 8.30729 115.656 7.75V6.07812H117.594V7.75ZM115.484 16.7812C115.484 16.2344 115.682 15.7604 116.078 15.3594C116.479 14.9583 117.049 14.6536 117.789 14.4453C118.534 14.2318 119.406 14.125 120.406 14.125C121.401 14.125 122.268 14.2318 123.008 14.4453C123.753 14.6536 124.326 14.9583 124.727 15.3594C125.133 15.7604 125.339 16.2344 125.344 16.7812C125.339 17.3229 125.133 17.7943 124.727 18.1953C124.326 18.5964 123.753 18.9036 123.008 19.1172C122.268 19.3307 121.401 19.4375 120.406 19.4375C119.406 19.4375 118.534 19.3307 117.789 19.1172C117.049 18.9036 116.479 18.5964 116.078 18.1953C115.682 17.7943 115.484 17.3229 115.484 16.7812ZM117.484 16.7812C117.479 17.1615 117.729 17.4505 118.234 17.6484C118.74 17.8411 119.464 17.9375 120.406 17.9375C121.344 17.9375 122.065 17.8411 122.57 17.6484C123.076 17.4505 123.328 17.1615 123.328 16.7812C123.328 16.3958 123.076 16.1042 122.57 15.9062C122.065 15.7083 121.344 15.6094 120.406 15.6094C119.464 15.6094 118.74 15.7083 118.234 15.9062C117.729 16.1042 117.479 16.3958 117.484 16.7812ZM120.328 5.48438H122.188V8.70312H123.375V5.23438H125.266V13.9219H123.375V10.3125H122.188V13.4844H120.328V5.48438ZM138.156 8.54688H140.078V10.2031H138.156V13.4844H136.156V5.21875H138.156V8.54688ZM126.672 11.9375C128.26 11.5365 129.505 10.9583 130.406 10.2031C131.312 9.44271 131.844 8.57292 132 7.59375H127.422V6.01562H134.156C134.151 7.90104 133.576 9.47917 132.43 10.75C131.289 12.0156 129.646 12.9167 127.5 13.4531L126.672 11.9375ZM128.578 14.0469H138.156V19.4375H136.156V15.6406H128.578V14.0469ZM151.984 8.28125H153.906V9.875H151.984V12.8906H149.984V5.1875H151.984V8.28125ZM140.703 6.28125H143.938V5.125H145.922V6.28125H149.141V7.79688H140.703V6.28125ZM141.391 10.4688C141.391 10 141.536 9.59115 141.828 9.24219C142.125 8.89323 142.539 8.6224 143.07 8.42969C143.602 8.23698 144.219 8.14062 144.922 8.14062C145.63 8.14062 146.247 8.23698 146.773 8.42969C147.299 8.6224 147.706 8.89323 147.992 9.24219C148.279 9.59115 148.422 10 148.422 10.4688C148.422 10.9479 148.279 11.362 147.992 11.7109C147.706 12.0599 147.299 12.3281 146.773 12.5156C146.247 12.7031 145.63 12.7969 144.922 12.7969C144.219 12.7969 143.599 12.7031 143.062 12.5156C142.531 12.3281 142.12 12.0599 141.828 11.7109C141.536 11.362 141.391 10.9479 141.391 10.4688ZM142.547 13.4688H151.984V17.0625H144.531V17.875H152.391V19.3438H142.578V15.7031H150V14.9062H142.547V13.4688ZM143.344 10.4688C143.339 10.7656 143.474 10.9896 143.75 11.1406C144.026 11.2917 144.417 11.3698 144.922 11.375C145.432 11.3698 145.828 11.2917 146.109 11.1406C146.391 10.9896 146.531 10.7656 146.531 10.4688C146.531 10.1771 146.391 9.95052 146.109 9.78906C145.833 9.6276 145.448 9.54688 144.953 9.54688C144.443 9.54688 144.044 9.625 143.758 9.78125C143.477 9.9375 143.339 10.1667 143.344 10.4688ZM163.75 8.4375C163.745 9.32812 163.878 10.1875 164.148 11.0156C164.419 11.8438 164.826 12.5807 165.367 13.2266C165.909 13.8724 166.568 14.3594 167.344 14.6875L166.172 16.2812C165.38 15.9219 164.698 15.4062 164.125 14.7344C163.557 14.0625 163.107 13.2734 162.773 12.3672C162.445 13.3568 161.984 14.2188 161.391 14.9531C160.797 15.6823 160.078 16.2396 159.234 16.625L158.031 14.9688C158.833 14.6302 159.51 14.1276 160.062 13.4609C160.62 12.7891 161.036 12.0208 161.312 11.1562C161.589 10.2865 161.729 9.38021 161.734 8.4375V6.3125H163.75V8.4375ZM168.109 5.21875H170.125V19.4688H168.109V5.21875ZM183.328 9.20312H185.25V10.8438H183.328V15.4062H181.312V5.21875H183.328V9.20312ZM171.953 12.4375C173.526 12 174.763 11.3906 175.664 10.6094C176.57 9.82292 177.102 8.92188 177.258 7.90625H172.578V6.28125H179.453C179.453 7.55208 179.193 8.69792 178.672 9.71875C178.156 10.7344 177.401 11.6042 176.406 12.3281C175.411 13.0521 174.203 13.6146 172.781 14.0156L171.953 12.4375ZM174.078 14.3594H176.094V17.5938H183.812V19.1875H174.078V14.3594ZM197.781 19.4688H195.766V5.21875H197.781V19.4688ZM186.297 11.2812C186.297 10.2656 186.456 9.375 186.773 8.60938C187.096 7.84375 187.542 7.25521 188.109 6.84375C188.682 6.42708 189.333 6.21875 190.062 6.21875C190.776 6.21875 191.414 6.42708 191.977 6.84375C192.544 7.25521 192.99 7.84375 193.312 8.60938C193.635 9.375 193.797 10.2656 193.797 11.2812C193.797 12.3021 193.635 13.1979 193.312 13.9688C192.99 14.7344 192.544 15.3255 191.977 15.7422C191.414 16.1536 190.776 16.3594 190.062 16.3594C189.333 16.3594 188.682 16.1536 188.109 15.7422C187.542 15.3255 187.096 14.7344 186.773 13.9688C186.456 13.1979 186.297 12.3021 186.297 11.2812ZM188.219 11.2812C188.219 11.974 188.294 12.5677 188.445 13.0625C188.596 13.5521 188.81 13.9245 189.086 14.1797C189.367 14.4297 189.693 14.5521 190.062 14.5469C190.422 14.5521 190.737 14.4297 191.008 14.1797C191.284 13.9245 191.497 13.5521 191.648 13.0625C191.799 12.5677 191.875 11.974 191.875 11.2812C191.875 10.5885 191.799 9.9974 191.648 9.50781C191.497 9.01823 191.284 8.64844 191.008 8.39844C190.737 8.14323 190.422 8.01562 190.062 8.01562C189.693 8.01562 189.367 8.14323 189.086 8.39844C188.81 8.64844 188.596 9.01823 188.445 9.50781C188.294 9.9974 188.219 10.5885 188.219 11.2812ZM216.391 14.9844H210.828V19.4375H208.859V14.9844H203.375V13.4219H216.391V14.9844ZM204.906 5.76562H206.875V7.40625H212.844V5.76562H214.844V12.0469H204.906V5.76562ZM212.844 10.4531V8.96875H206.875V10.4531H212.844ZM229.016 7.3125H225.125C225.229 7.67188 225.466 8.01042 225.836 8.32812C226.211 8.64583 226.719 8.91927 227.359 9.14844C228.005 9.3724 228.766 9.52604 229.641 9.60938L228.922 11.1719C227.615 11.0365 226.51 10.7344 225.609 10.2656C224.714 9.79688 224.073 9.20573 223.688 8.49219C223.302 9.20573 222.667 9.79688 221.781 10.2656C220.896 10.7344 219.802 11.0365 218.5 11.1719L217.797 9.60938C218.661 9.52604 219.409 9.36979 220.039 9.14062C220.674 8.91146 221.177 8.64062 221.547 8.32812C221.917 8.01042 222.156 7.67188 222.266 7.3125H218.406V5.73438H229.016V7.3125ZM217.219 12.1406H222.703V10.2812H224.672V12.1406H230.188V13.7344H217.219V12.1406ZM218.656 14.75H228.609V19.4375H226.625V16.3438H218.656V14.75ZM242.266 10.7812H244.359V12.4219H242.266V19.4375H240.297V5.21875H242.266V10.7812ZM230.969 7.34375H234.188V5.4375H236.188V7.34375H239.328V8.9375H230.969V7.34375ZM231.547 13.125C231.547 12.474 231.703 11.8906 232.016 11.375C232.328 10.8594 232.76 10.4583 233.312 10.1719C233.87 9.88021 234.495 9.73438 235.188 9.73438C235.87 9.73438 236.487 9.88021 237.039 10.1719C237.591 10.4583 238.023 10.8594 238.336 11.375C238.654 11.8906 238.812 12.474 238.812 13.125C238.812 13.776 238.654 14.3594 238.336 14.875C238.023 15.3854 237.591 15.7865 237.039 16.0781C236.487 16.3698 235.87 16.5156 235.188 16.5156C234.495 16.5156 233.87 16.3698 233.312 16.0781C232.76 15.7865 232.328 15.3854 232.016 14.875C231.703 14.3594 231.547 13.776 231.547 13.125ZM233.453 13.125C233.453 13.4844 233.526 13.7969 233.672 14.0625C233.823 14.3281 234.029 14.5312 234.289 14.6719C234.549 14.8125 234.849 14.8802 235.188 14.875C235.521 14.8802 235.818 14.8125 236.078 14.6719C236.339 14.5312 236.542 14.3281 236.688 14.0625C236.833 13.7969 236.906 13.4844 236.906 13.125C236.906 12.7656 236.833 12.4531 236.688 12.1875C236.542 11.9219 236.339 11.7161 236.078 11.5703C235.818 11.4245 235.521 11.349 235.188 11.3438C234.849 11.349 234.549 11.4245 234.289 11.5703C234.029 11.7161 233.823 11.9219 233.672 12.1875C233.526 12.4531 233.453 12.7656 233.453 13.125ZM257.172 19.4375H255.281V12.2969H253.906V18.75H252.078V5.45312H253.906V10.7031H255.281V5.21875H257.172V19.4375ZM245.281 6.85938H250.578V8.46875H247.281V14.5469C248.021 14.5365 248.703 14.5052 249.328 14.4531C249.958 14.401 250.599 14.3177 251.25 14.2031L251.391 15.8281C250.589 15.9792 249.799 16.0807 249.023 16.1328C248.247 16.1849 247.328 16.2135 246.266 16.2188H245.281V6.85938ZM271.719 17.7812H258.703V16.1406H261.609V12.6562C261.047 12.3177 260.612 11.901 260.305 11.4062C259.997 10.9062 259.844 10.349 259.844 9.73438C259.844 8.97917 260.073 8.3125 260.531 7.73438C260.99 7.15625 261.622 6.70833 262.43 6.39062C263.242 6.06771 264.161 5.90625 265.188 5.90625C266.208 5.90625 267.125 6.06771 267.938 6.39062C268.75 6.70833 269.388 7.15625 269.852 7.73438C270.315 8.3125 270.547 8.97917 270.547 9.73438C270.542 10.3385 270.391 10.8854 270.094 11.375C269.797 11.8646 269.375 12.2786 268.828 12.6172V16.1406H271.719V17.7812ZM261.812 9.73438C261.812 10.1927 261.951 10.5911 262.227 10.9297C262.508 11.2682 262.901 11.5286 263.406 11.7109C263.917 11.8932 264.51 11.9844 265.188 11.9844C265.854 11.9844 266.443 11.8932 266.953 11.7109C267.464 11.5286 267.862 11.2682 268.148 10.9297C268.435 10.5911 268.578 10.1927 268.578 9.73438C268.578 9.26562 268.435 8.86198 268.148 8.52344C267.867 8.1849 267.471 7.92708 266.961 7.75C266.451 7.56771 265.859 7.47917 265.188 7.48438C264.51 7.48438 263.917 7.57292 263.406 7.75C262.901 7.92708 262.508 8.1849 262.227 8.52344C261.951 8.86198 261.812 9.26562 261.812 9.73438ZM266.812 16.1406V13.375C266.292 13.4792 265.75 13.5312 265.188 13.5312C264.641 13.5312 264.104 13.4818 263.578 13.3828V16.1406H266.812ZM274.375 18.1406C274.135 18.1406 273.914 18.0833 273.711 17.9688C273.508 17.849 273.346 17.6901 273.227 17.4922C273.112 17.2891 273.057 17.0677 273.062 16.8281C273.057 16.5938 273.112 16.3776 273.227 16.1797C273.346 15.9766 273.508 15.8177 273.711 15.7031C273.914 15.5885 274.135 15.5312 274.375 15.5312C274.604 15.5312 274.818 15.5885 275.016 15.7031C275.214 15.8177 275.372 15.9766 275.492 16.1797C275.612 16.3776 275.672 16.5938 275.672 16.8281C275.672 17.0677 275.612 17.2891 275.492 17.4922C275.372 17.6901 275.214 17.849 275.016 17.9688C274.818 18.0833 274.604 18.1406 274.375 18.1406ZM278.891 18.1406C278.651 18.1406 278.43 18.0833 278.227 17.9688C278.023 17.849 277.862 17.6901 277.742 17.4922C277.628 17.2891 277.573 17.0677 277.578 16.8281C277.573 16.5938 277.628 16.3776 277.742 16.1797C277.862 15.9766 278.023 15.8177 278.227 15.7031C278.43 15.5885 278.651 15.5312 278.891 15.5312C279.12 15.5312 279.333 15.5885 279.531 15.7031C279.729 15.8177 279.888 15.9766 280.008 16.1797C280.128 16.3776 280.188 16.5938 280.188 16.8281C280.188 17.0677 280.128 17.2891 280.008 17.4922C279.888 17.6901 279.729 17.849 279.531 17.9688C279.333 18.0833 279.12 18.1406 278.891 18.1406ZM284.391 14.6094H282.391L282.188 6.6875H284.594L284.391 14.6094ZM282.094 16.8281C282.089 16.5938 282.143 16.3776 282.258 16.1797C282.378 15.9766 282.539 15.8177 282.742 15.7031C282.945 15.5885 283.167 15.5312 283.406 15.5312C283.635 15.5312 283.849 15.5885 284.047 15.7031C284.245 15.8177 284.404 15.9766 284.523 16.1797C284.643 16.3776 284.703 16.5938 284.703 16.8281C284.703 17.0677 284.643 17.2891 284.523 17.4922C284.404 17.6901 284.245 17.849 284.047 17.9688C283.849 18.0833 283.635 18.1406 283.406 18.1406C283.167 18.1406 282.945 18.0833 282.742 17.9688C282.539 17.849 282.378 17.6901 282.258 17.4922C282.143 17.2891 282.089 17.0677 282.094 16.8281Z" fill="#EF2B00"/>
</svg>
