<svg width="115" height="21" viewBox="0 0 115 21" fill="none" xmlns="http://www.w3.org/2000/svg">
<g filter="url(#filter0_d_6609_30160)">
<rect x="4.5" y="1" width="105.5" height="11" stroke="none" shape-rendering="crispEdges"/>
<path d="M6.23343 11.9213C5.33988 11.5269 4.7144 10.9686 4.36223 10.2414C4.00482 9.51921 3.91546 8.65877 4.0784 7.66005L7.25838 6.93278C7.16902 7.37836 7.22684 7.77785 7.43183 8.14149C7.63682 8.50512 7.99424 8.78681 8.49883 8.99168C9.00343 9.19654 9.64468 9.29898 10.4226 9.29898C10.9535 9.29898 11.4055 9.24776 11.7682 9.14533C12.1308 9.04289 12.4042 8.90461 12.5829 8.73047C12.7616 8.55634 12.872 8.36684 12.914 8.16197C12.9561 7.96735 12.9455 7.80346 12.872 7.66517C12.7984 7.53201 12.6407 7.41421 12.3989 7.3169C12.1571 7.21959 11.7997 7.13252 11.3319 7.0557L8.66703 6.69718C7.48965 6.53329 6.62764 6.20038 6.07049 5.69846C5.51333 5.19654 5.31886 4.55634 5.48705 3.77785C5.72884 2.71767 6.41214 1.90845 7.52644 1.34507C8.64075 0.78169 9.98633 0.5 11.5632 0.5C12.7511 0.5 13.7603 0.643406 14.5907 0.930218C15.4212 1.21703 16.0519 1.69334 16.4777 2.36428C16.9034 3.03521 17.0664 3.94174 16.9665 5.08899L13.6394 5.94942C13.797 5.41165 13.7497 4.97119 13.508 4.63828C13.2662 4.30538 12.893 4.05954 12.3989 3.90589C11.9048 3.75736 11.3477 3.68054 10.7274 3.68054C10.0704 3.68054 9.57109 3.76248 9.22944 3.9315C8.88779 4.10051 8.67229 4.34635 8.5987 4.66901C8.55665 4.85339 8.56191 5.01216 8.61447 5.1402C8.67229 5.26825 8.79318 5.38092 8.9824 5.48336C9.17162 5.58067 9.43969 5.65749 9.78134 5.70871L12.3463 6.04674C13.324 6.20038 14.1019 6.40013 14.6748 6.65621C15.2477 6.91229 15.6525 7.22983 15.8732 7.61908C16.094 8.00832 16.1465 8.47439 16.0204 9.01217C15.8785 9.72407 15.4895 10.3489 14.8535 10.8867C14.2228 11.4193 13.4449 11.8239 12.5303 12.0954C11.6157 12.3668 10.6591 12.5 9.66044 12.5C8.26231 12.5 7.11646 12.3054 6.22292 11.9059L6.23343 11.9213Z" fill="currentColor"/>
<path d="M18.6796 12.0493C18.1329 11.7727 17.7072 11.3835 17.4076 10.8713C17.108 10.3642 16.9608 9.77526 16.9608 9.10433C16.9608 8.1517 17.1711 7.27078 17.5863 6.45132C18.0015 5.63698 18.6113 4.98141 19.4155 4.49997C20.2196 4.01342 21.1763 3.76758 22.2853 3.76758C22.9266 3.76758 23.4995 3.89562 23.9988 4.15682C24.4982 4.41803 24.8871 4.79191 25.1709 5.28358C25.4548 5.77526 25.5967 6.36425 25.5967 7.04543H25.6808C25.7491 6.59984 25.8122 6.15426 25.8805 5.69844C25.9489 5.29895 26.0382 4.74581 26.1486 4.04415H29.1761L28.1775 8.6024L28.1091 8.86361C28.0408 9.1453 28.0093 9.35529 28.0198 9.49357C28.025 9.63698 28.0881 9.74453 28.2038 9.81623C28.3194 9.89306 28.5244 9.92891 28.8135 9.92891L28.2616 12.459H27.5783C26.5375 12.459 25.8017 12.3105 25.3812 12.0237C24.9607 11.7317 24.7505 11.3425 24.7505 10.8559C24.7505 10.7381 24.761 10.6152 24.782 10.482C24.803 10.354 24.8398 10.2208 24.8819 10.0928C24.8924 10.0723 24.9029 10.0365 24.9134 9.99549H24.8293C24.372 10.8508 23.7991 11.4756 23.1 11.87C22.401 12.2644 21.5757 12.459 20.6191 12.459C19.878 12.459 19.2315 12.3207 18.6796 12.0441V12.0493ZM23.7728 9.56527C24.2091 9.36553 24.5402 9.10945 24.7557 8.79703C24.9712 8.48461 25.0816 8.14658 25.0816 7.79319C25.0816 7.5115 24.9922 7.26566 24.8083 7.04543C24.6243 6.83032 24.3615 6.6613 24.0093 6.54351C23.6572 6.42571 23.2262 6.36425 22.7006 6.36425C22.012 6.36425 21.4601 6.4718 21.0343 6.68691C20.6139 6.90202 20.309 7.16322 20.125 7.47564C19.9411 7.78294 19.8517 8.10561 19.8517 8.43851C19.8517 8.86873 20.0514 9.217 20.4509 9.47821C20.8504 9.73941 21.418 9.86745 22.1487 9.86745C22.7899 9.86745 23.3313 9.76502 23.7728 9.56527Z" fill="currentColor"/>
<path d="M30.5434 6.74787C30.5434 6.56862 30.4909 6.4457 30.3858 6.38424C30.2806 6.32278 30.0756 6.28693 29.776 6.28693L30.3227 3.75684C31.4633 3.75684 32.2885 3.86951 32.7931 4.08974C33.2977 4.30997 33.5815 4.648 33.6446 5.10383C33.7076 5.55965 33.6078 6.18449 33.3555 6.98347L33.3239 7.06542L32.956 8.26388H33.0559C33.4659 7.22419 33.9231 6.36887 34.4225 5.69282C34.9218 5.01676 35.4422 4.5302 35.9783 4.2229C36.5144 3.92073 37.0558 3.76708 37.6025 3.76708C38.5328 3.76708 39.1793 4.01804 39.5315 4.51996C39.8889 5.02188 39.994 5.67233 39.8468 6.46618C39.7049 7.26004 39.3685 8.08462 38.8482 8.93993L36.8824 8.81189C37.1504 8.33558 37.2923 7.93609 37.3081 7.60319C37.3239 7.2754 37.2293 7.02956 37.019 6.86567C36.8088 6.70178 36.4882 6.62495 36.0519 6.62495C35.5631 6.62495 35.1005 6.77348 34.6695 7.06029C34.2385 7.35223 33.8811 7.72098 33.5973 8.17169C33.3134 8.62239 33.119 9.08334 33.0086 9.55965L32.4251 12.1871H29.4134L30.3963 7.69538C30.4961 7.23955 30.5487 6.92713 30.5487 6.74787H30.5434Z" fill="currentColor"/>
<path d="M41.5034 12.0493C40.9568 11.7727 40.5311 11.3835 40.2315 10.8713C39.9319 10.3642 39.7847 9.77526 39.7847 9.10433C39.7847 8.1517 39.9949 7.27078 40.4102 6.45132C40.8254 5.63698 41.4351 4.98141 42.2393 4.49997C43.0435 4.01342 44.0001 3.76758 45.1092 3.76758C45.7504 3.76758 46.3233 3.89562 46.8227 4.15682C47.322 4.41803 47.711 4.79191 47.9948 5.28358C48.2786 5.77526 48.4206 6.36425 48.4206 7.04543H48.5046C48.573 6.59984 48.6361 6.15426 48.7044 5.69844C48.7727 5.29895 48.8621 4.74581 48.9724 4.04415H52L51.0013 8.6024L50.933 8.86361C50.8647 9.1453 50.8331 9.35529 50.8436 9.49357C50.8489 9.63698 50.912 9.74453 51.0276 9.81623C51.1432 9.89306 51.3482 9.92891 51.6373 9.92891L51.0854 12.459H50.4021C49.3614 12.459 48.6255 12.3105 48.205 12.0237C47.7846 11.7317 47.5743 11.3425 47.5743 10.8559C47.5743 10.7381 47.5848 10.6152 47.6058 10.482C47.6269 10.354 47.6637 10.2208 47.7057 10.0928C47.7162 10.0723 47.7267 10.0365 47.7372 9.99549H47.6532C47.1959 10.8508 46.6229 11.4756 45.9239 11.87C45.2248 12.2644 44.3996 12.459 43.443 12.459C42.7018 12.459 42.0553 12.3207 41.5034 12.0441V12.0493ZM46.5967 9.56527C47.0329 9.36553 47.3641 9.10945 47.5796 8.79703C47.7951 8.48461 47.9054 8.14658 47.9054 7.79319C47.9054 7.5115 47.8161 7.26566 47.6321 7.04543C47.4482 6.83032 47.1854 6.6613 46.8332 6.54351C46.481 6.42571 46.05 6.36425 45.5244 6.36425C44.8358 6.36425 44.284 6.4718 43.8582 6.68691C43.4377 6.90202 43.1329 7.16322 42.9489 7.47564C42.7649 7.78294 42.6756 8.10561 42.6756 8.43851C42.6756 8.86873 42.8753 9.217 43.2748 9.47821C43.6742 9.73941 44.2419 9.86745 44.9725 9.86745C45.6138 9.86745 46.1551 9.76502 46.5967 9.56527Z" fill="currentColor"/>
<path d="M60.442 0.505292H64.4981C64.8626 2.22563 65.1854 4.06772 65.4717 6.02627C65.7581 7.98481 65.9404 9.73691 66.0133 11.2826H66.1122C66.737 9.91689 67.5232 8.40299 68.4709 6.74087C69.4185 5.07876 70.4911 3.23667 71.7043 1.22519L72.1312 0.505292H76.1717L73.7141 12.2195H70.4026L71.673 6.16919C71.7511 5.72455 71.8344 5.33284 71.9282 5.00465C72.0219 4.67646 72.1052 4.40121 72.1833 4.17359C72.2041 4.0836 72.2406 3.99891 72.2822 3.91951H72.1677L67.3358 12.2195H64.3835L63.0298 3.91951H62.9465C62.936 4.0095 62.9256 4.11007 62.9152 4.22123C62.8579 4.73469 62.7538 5.38577 62.6028 6.16389L61.3323 12.2142H58L60.442 0.5V0.505292Z" fill="currentColor"/>
<path d="M77.4995 12.0769C76.958 11.7911 76.5362 11.3888 76.2394 10.8595C75.9426 10.3354 75.7969 9.72669 75.7969 9.03326C75.7969 8.0487 76.0051 7.13824 76.4165 6.2913C76.8278 5.44965 77.4318 4.7721 78.2284 4.27453C79.0251 3.77166 79.9727 3.51758 81.0713 3.51758C81.7066 3.51758 82.2741 3.64991 82.7688 3.91987C83.2634 4.18983 83.6487 4.57625 83.9299 5.08441C84.211 5.59258 84.3516 6.20131 84.3516 6.90533H84.4349C84.5026 6.44481 84.5651 5.98428 84.6328 5.51318C84.7005 5.10029 84.789 4.52861 84.8983 3.80342H87.8974L86.9081 8.51451L86.8405 8.78447C86.7728 9.07561 86.7467 9.29263 86.7519 9.43555C86.7519 9.58377 86.8196 9.69493 86.9342 9.76904C87.0487 9.84844 87.2518 9.88549 87.5382 9.88549L86.9967 12.5004H86.3198C85.2836 12.5004 84.5599 12.3469 84.1433 12.0505C83.7268 11.7488 83.5185 11.3465 83.5185 10.8436C83.5185 10.7218 83.5289 10.5948 83.5498 10.4572C83.5706 10.3248 83.607 10.1872 83.6487 10.0549C83.6591 10.0337 83.6695 9.99665 83.6799 9.9543H83.5966C83.1436 10.8383 82.5761 11.4841 81.8836 11.8917C81.1911 12.2993 80.3736 12.5004 79.426 12.5004C78.6918 12.5004 78.0514 12.3575 77.5047 12.0716L77.4995 12.0769ZM82.5449 9.50966C82.977 9.30322 83.3051 9.03855 83.5185 8.71566C83.732 8.39276 83.8414 8.0434 83.8414 7.67816C83.8414 7.38702 83.7528 7.13294 83.5706 6.90533C83.3884 6.68301 83.1228 6.50833 82.7792 6.38658C82.4355 6.26483 82.0034 6.20131 81.4827 6.20131C80.8006 6.20131 80.2487 6.31247 79.8321 6.53479C79.4156 6.75711 79.1136 7.02708 78.9313 7.34997C78.7491 7.67287 78.6606 8.00105 78.6606 8.34512C78.6606 8.78976 78.8585 9.14971 79.2542 9.41967C79.6499 9.68964 80.2122 9.82197 80.936 9.82197C81.5712 9.82197 82.1075 9.7161 82.5449 9.50966Z" fill="currentColor"/>
<path d="M89.247 6.59718C89.247 6.41192 89.1949 6.28487 89.0908 6.22135C88.9866 6.15783 88.7836 6.12078 88.4868 6.12078L89.0283 3.50586C90.1582 3.50586 90.9756 3.62231 91.4755 3.84993C91.9753 4.07754 92.2565 4.4269 92.319 4.89801C92.3815 5.36912 92.2825 6.01491 92.0326 6.84068L92.0014 6.92537L91.6369 8.16402H91.7358C92.142 7.08946 92.5949 6.20547 93.0896 5.50675C93.5842 4.80803 94.0997 4.30516 94.6308 3.98756C95.1619 3.67525 95.6982 3.51645 96.2397 3.51645C97.1613 3.51645 97.8017 3.77582 98.1506 4.29457C98.4994 4.81332 98.6088 5.48558 98.463 6.30605C98.3224 7.12652 97.9892 7.97875 97.4737 8.86274L95.5264 8.73041C95.7919 8.23812 95.9325 7.82524 95.9481 7.48117C95.9637 7.1424 95.87 6.88832 95.6617 6.71893C95.4535 6.54954 95.1359 6.47014 94.7037 6.47014C94.2195 6.47014 93.7665 6.62365 93.3343 6.92008C92.9074 7.2218 92.5533 7.60292 92.2721 8.06874C91.991 8.53455 91.7983 9.01096 91.689 9.50324L91.111 12.2187H88.1275L89.1012 7.57646C89.2001 7.10535 89.2522 6.78245 89.2522 6.59718H89.247Z" fill="currentColor"/>
<path d="M100.102 12.0769C99.5605 11.7911 99.1387 11.3888 98.8419 10.8595C98.5452 10.3354 98.3994 9.72669 98.3994 9.03326C98.3994 8.0487 98.6076 7.13824 99.019 6.2913C99.4303 5.44965 100.034 4.7721 100.831 4.27453C101.628 3.77166 102.575 3.51758 103.674 3.51758C104.309 3.51758 104.877 3.64991 105.371 3.91987C105.866 4.18983 106.251 4.57625 106.532 5.08441C106.814 5.59258 106.954 6.20131 106.954 6.90533H107.037C107.105 6.44481 107.168 5.98428 107.235 5.51318C107.303 5.10029 107.391 4.52861 107.501 3.80342H110.5L109.511 8.51451L109.443 8.78447C109.375 9.07561 109.349 9.29263 109.354 9.43555C109.354 9.58377 109.422 9.69493 109.537 9.76904C109.651 9.84844 109.854 9.88549 110.141 9.88549L109.599 12.5004H108.922C107.886 12.5004 107.162 12.3469 106.746 12.0505C106.329 11.7488 106.121 11.3465 106.121 10.8436C106.121 10.7218 106.131 10.5948 106.152 10.4572C106.173 10.3248 106.21 10.1872 106.251 10.0549C106.262 10.0337 106.272 9.99665 106.282 9.9543H106.199C105.746 10.8383 105.179 11.4841 104.486 11.8917C103.794 12.2993 102.976 12.5004 102.029 12.5004C101.294 12.5004 100.654 12.3575 100.107 12.0716L100.102 12.0769ZM105.147 9.50966C105.58 9.30322 105.908 9.03855 106.121 8.71566C106.335 8.39276 106.444 8.0434 106.444 7.67816C106.444 7.38702 106.355 7.13294 106.173 6.90533C105.991 6.68301 105.725 6.50833 105.382 6.38658C105.038 6.26483 104.606 6.20131 104.085 6.20131C103.403 6.20131 102.851 6.31247 102.435 6.53479C102.018 6.75711 101.716 7.02708 101.534 7.34997C101.352 7.67287 101.263 8.00105 101.263 8.34512C101.263 8.78976 101.461 9.14971 101.857 9.41967C102.252 9.68964 102.815 9.82197 103.538 9.82197C104.174 9.82197 104.71 9.7161 105.147 9.50966Z" fill="currentColor"/>
</g>
<defs>
<filter id="filter0_d_6609_30160" x="0" y="0.5" width="114.5" height="20" filterUnits="userSpaceOnUse" color-interpolation-filters="sRGB">
<feFlood flood-opacity="0" result="BackgroundImageFix"/>
<feColorMatrix in="SourceAlpha" type="matrix" values="0 0 0 0 0 0 0 0 0 0 0 0 0 0 0 0 0 0 127 0" result="hardAlpha"/>
<feOffset dy="4"/>
<feGaussianBlur stdDeviation="2"/>
<feComposite in2="hardAlpha" operator="out"/>
<feColorMatrix type="matrix" values="0 0 0 0 0 0 0 0 0 0 0 0 0 0 0 0 0 0 0.25 0"/>
<feBlend mode="normal" in2="BackgroundImageFix" result="effect1_dropShadow_6609_30160"/>
<feBlend mode="normal" in="SourceGraphic" in2="effect1_dropShadow_6609_30160" result="shape"/>
</filter>
</defs>
</svg>
