<svg width="276" height="20" viewBox="0 0 276 20" fill="none" xmlns="http://www.w3.org/2000/svg">
<path d="M4.15153 19.0354C2.70039 18.3781 1.6846 17.4477 1.11269 16.2356C0.532234 15.032 0.387121 13.598 0.651739 11.9334L5.81606 10.7213C5.67095 11.4639 5.76484 12.1297 6.09775 12.7358C6.43066 13.3419 7.01111 13.8114 7.83057 14.1528C8.65003 14.4942 9.69143 14.665 10.9548 14.665C11.8169 14.665 12.551 14.5796 13.14 14.4089C13.729 14.2382 14.1729 14.0077 14.4631 13.7175C14.7533 13.4272 14.9326 13.1114 15.0009 12.77C15.0692 12.4456 15.0521 12.1724 14.9326 11.942C14.8131 11.72 14.557 11.5237 14.1643 11.3615C13.7717 11.1993 13.1912 11.0542 12.4315 10.9262L8.10373 10.3286C6.19165 10.0555 4.79173 9.50064 3.88691 8.66411C2.98209 7.82757 2.66625 6.76056 2.93941 5.46308C3.33207 3.69612 4.44175 2.34742 6.2514 1.40845C8.06105 0.469483 10.2463 0 12.8071 0C14.7363 0 16.3752 0.23901 17.7239 0.71703C19.0726 1.19505 20.0969 1.9889 20.7883 3.10713C21.4797 4.22535 21.7444 5.73624 21.5822 7.64831L16.1788 9.08237C16.4349 8.18609 16.3581 7.45198 15.9654 6.89714C15.5728 6.3423 14.9667 5.93257 14.1643 5.67648C13.3619 5.42894 12.4571 5.3009 11.4499 5.3009C10.3829 5.3009 9.57193 5.43747 9.01709 5.71916C8.46224 6.00085 8.11226 6.41058 7.99276 6.94836C7.92447 7.25565 7.933 7.52027 8.01837 7.73367C8.11226 7.94708 8.30859 8.13487 8.61589 8.30559C8.92319 8.46778 9.35853 8.59582 9.91337 8.68118L14.079 9.24456C15.6667 9.50064 16.93 9.83355 17.8605 10.2603C18.7909 10.6872 19.4482 11.2164 19.8067 11.8651C20.1652 12.5139 20.2506 13.2907 20.0457 14.1869C19.8152 15.3735 19.1835 16.4149 18.1507 17.3111C17.1264 18.1989 15.863 18.8732 14.3777 19.3257C12.8925 19.7781 11.3389 20 9.71704 20C7.44645 20 5.58559 19.6756 4.13446 19.0098L4.15153 19.0354Z" fill="#007BED"/>
<path d="M24.3655 19.2481C23.4778 18.7872 22.7863 18.1384 22.2998 17.2848C21.8132 16.4398 21.5742 15.4581 21.5742 14.3399C21.5742 12.7522 21.9157 11.284 22.59 9.91821C23.2644 8.56098 24.2545 7.46836 25.5606 6.66597C26.8666 5.85504 28.4201 5.44531 30.2213 5.44531C31.2627 5.44531 32.1931 5.65871 33.004 6.09405C33.8149 6.52939 34.4466 7.15253 34.9076 7.97199C35.3685 8.79145 35.599 9.7731 35.599 10.9084H35.7356C35.8465 10.1658 35.949 9.42312 36.0599 8.66341C36.1709 7.9976 36.316 7.0757 36.4953 5.90626H41.412L39.7902 13.5034L39.6792 13.9387C39.5683 14.4082 39.517 14.7582 39.5341 14.9886C39.5426 15.2276 39.6451 15.4069 39.8329 15.5264C40.0207 15.6544 40.3536 15.7142 40.8231 15.7142L39.9268 19.931H38.8171C37.1269 19.931 35.9319 19.6835 35.249 19.2054C34.5661 18.7189 34.2247 18.0702 34.2247 17.2592C34.2247 17.0629 34.2417 16.858 34.2759 16.6361C34.31 16.4227 34.3698 16.2008 34.4381 15.9874C34.4551 15.9532 34.4722 15.8935 34.4893 15.8252H34.3527C33.6101 17.2507 32.6796 18.2921 31.5443 18.9494C30.409 19.6066 29.0689 19.931 27.5153 19.931C26.3117 19.931 25.2618 19.7005 24.3655 19.2396V19.2481ZM32.637 15.1081C33.3455 14.7752 33.8832 14.3484 34.2332 13.8277C34.5832 13.307 34.7624 12.7436 34.7624 12.1547C34.7624 11.6852 34.6173 11.2754 34.3186 10.9084C34.0198 10.5499 33.593 10.2682 33.0211 10.0719C32.4492 9.87553 31.7492 9.7731 30.8956 9.7731C29.7774 9.7731 28.8811 9.95236 28.1897 10.3109C27.5068 10.6694 27.0117 11.1047 26.7129 11.6254C26.4142 12.1376 26.2691 12.6754 26.2691 13.2302C26.2691 13.9472 26.5934 14.5277 27.2422 14.963C27.8909 15.3984 28.8128 15.6118 29.9993 15.6118C31.0407 15.6118 31.9199 15.441 32.637 15.1081Z" fill="#007BED"/>
<path d="M43.6341 10.4147C43.6341 10.116 43.5487 9.91112 43.378 9.80869C43.2073 9.70626 42.8744 9.6465 42.3878 9.6465L43.2756 5.42969C45.1279 5.42969 46.4681 5.61748 47.2875 5.98453C48.107 6.35158 48.5679 6.91496 48.6704 7.67467C48.7728 8.43438 48.6106 9.47578 48.2009 10.8074L48.1497 10.944L47.5521 12.9414H47.7143C48.3801 11.2086 49.1228 9.78308 49.9337 8.65632C50.7446 7.52956 51.5897 6.71863 52.4604 6.20647C53.3311 5.70284 54.2103 5.44676 55.098 5.44676C56.6089 5.44676 57.6588 5.86503 58.2308 6.70156C58.8112 7.5381 58.9819 8.62218 58.7429 9.94527C58.5125 11.2684 57.9661 12.6427 57.1211 14.0682L53.9286 13.8548C54.3639 13.0609 54.5944 12.3951 54.62 11.8403C54.6456 11.294 54.492 10.8842 54.1505 10.6111C53.8091 10.3379 53.2884 10.2099 52.5799 10.2099C51.786 10.2099 51.0349 10.4574 50.3349 10.9354C49.6349 11.422 49.0545 12.0366 48.5935 12.7878C48.1326 13.5389 47.8168 14.3072 47.6375 15.1011L46.69 19.48H41.7988L43.3951 11.9939C43.5573 11.2342 43.6426 10.7135 43.6426 10.4147H43.6341Z" fill="#007BED"/>
<path d="M61.4285 19.2481C60.5407 18.7872 59.8493 18.1384 59.3628 17.2848C58.8762 16.4398 58.6372 15.4581 58.6372 14.3399C58.6372 12.7522 58.9787 11.284 59.653 9.91821C60.3274 8.56098 61.3175 7.46836 62.6236 6.66597C63.9296 5.85504 65.4831 5.44531 67.2842 5.44531C68.3256 5.44531 69.2561 5.65871 70.067 6.09405C70.8779 6.52939 71.5096 7.15253 71.9706 7.97199C72.4315 8.79145 72.662 9.7731 72.662 10.9084H72.7985C72.9095 10.1658 73.012 9.42312 73.1229 8.66341C73.2339 7.9976 73.379 7.0757 73.5583 5.90626H78.475L76.8532 13.5034L76.7422 13.9387C76.6312 14.4082 76.58 14.7582 76.5971 14.9886C76.6056 15.2276 76.7081 15.4069 76.8959 15.5264C77.0837 15.6544 77.4166 15.7142 77.886 15.7142L76.9898 19.931H75.8801C74.1899 19.931 72.9949 19.6835 72.312 19.2054C71.6291 18.7189 71.2877 18.0702 71.2877 17.2592C71.2877 17.0629 71.3047 16.858 71.3389 16.6361C71.373 16.4227 71.4328 16.2008 71.5011 15.9874C71.5181 15.9532 71.5352 15.8935 71.5523 15.8252H71.4157C70.6731 17.2507 69.7426 18.2921 68.6073 18.9494C67.472 19.6066 66.1319 19.931 64.5783 19.931C63.3747 19.931 62.3248 19.7005 61.4285 19.2396V19.2481ZM69.7 15.1081C70.4084 14.7752 70.9462 14.3484 71.2962 13.8277C71.6462 13.307 71.8254 12.7436 71.8254 12.1547C71.8254 11.6852 71.6803 11.2754 71.3816 10.9084C71.0828 10.5499 70.656 10.2682 70.0841 10.0719C69.5122 9.87553 68.8122 9.7731 67.9586 9.7731C66.8404 9.7731 65.9441 9.95236 65.2527 10.3109C64.5698 10.6694 64.0747 11.1047 63.7759 11.6254C63.4772 12.1376 63.332 12.6754 63.332 13.2302C63.332 13.9472 63.6564 14.5277 64.3052 14.963C64.9539 15.3984 65.8758 15.6118 67.0623 15.6118C68.1037 15.6118 68.9829 15.441 69.7 15.1081Z" fill="#007BED"/>
<path d="M96.249 10.6719H98.2646V12.3125H96.249V19.4062H94.249V5.21875H96.249V10.6719ZM84.874 15.4219C86.5667 14.5729 87.8688 13.5677 88.7803 12.4062C89.6917 11.2448 90.2412 9.875 90.4287 8.29688H85.6865V6.67188H92.4521C92.4417 8.9375 91.9313 10.9375 90.9209 12.6719C89.9157 14.4062 88.2751 15.8333 85.999 16.9531L84.874 15.4219ZM107.093 7.75C107.093 8.56771 107.314 9.31771 107.757 10C108.205 10.6771 108.879 11.1875 109.78 11.5312L108.718 13.0469C108.124 12.8229 107.614 12.5104 107.187 12.1094C106.759 11.7083 106.416 11.237 106.155 10.6953C105.884 11.3359 105.52 11.8958 105.062 12.375C104.608 12.8542 104.062 13.2292 103.421 13.5L102.343 11.9688C102.983 11.6875 103.515 11.3203 103.937 10.8672C104.358 10.4141 104.666 9.92188 104.858 9.39062C105.056 8.85417 105.155 8.30729 105.155 7.75V6.07812H107.093V7.75ZM104.983 16.7812C104.983 16.2344 105.181 15.7604 105.577 15.3594C105.978 14.9583 106.549 14.6536 107.288 14.4453C108.033 14.2318 108.905 14.125 109.905 14.125C110.9 14.125 111.767 14.2318 112.507 14.4453C113.252 14.6536 113.825 14.9583 114.226 15.3594C114.632 15.7604 114.838 16.2344 114.843 16.7812C114.838 17.3229 114.632 17.7943 114.226 18.1953C113.825 18.5964 113.252 18.9036 112.507 19.1172C111.767 19.3307 110.9 19.4375 109.905 19.4375C108.905 19.4375 108.033 19.3307 107.288 19.1172C106.549 18.9036 105.978 18.5964 105.577 18.1953C105.181 17.7943 104.983 17.3229 104.983 16.7812ZM106.983 16.7812C106.978 17.1615 107.228 17.4505 107.733 17.6484C108.239 17.8411 108.963 17.9375 109.905 17.9375C110.843 17.9375 111.564 17.8411 112.069 17.6484C112.575 17.4505 112.827 17.1615 112.827 16.7812C112.827 16.3958 112.575 16.1042 112.069 15.9062C111.564 15.7083 110.843 15.6094 109.905 15.6094C108.963 15.6094 108.239 15.7083 107.733 15.9062C107.228 16.1042 106.978 16.3958 106.983 16.7812ZM109.827 5.48438H111.687V8.70312H112.874V5.23438H114.765V13.9219H112.874V10.3125H111.687V13.4844H109.827V5.48438ZM127.655 8.54688H129.577V10.2031H127.655V13.4844H125.655V5.21875H127.655V8.54688ZM116.171 11.9375C117.759 11.5365 119.004 10.9583 119.905 10.2031C120.812 9.44271 121.343 8.57292 121.499 7.59375H116.921V6.01562H123.655C123.65 7.90104 123.075 9.47917 121.929 10.75C120.788 12.0156 119.145 12.9167 116.999 13.4531L116.171 11.9375ZM118.077 14.0469H127.655V19.4375H125.655V15.6406H118.077V14.0469ZM141.483 8.28125H143.405V9.875H141.483V12.8906H139.483V5.1875H141.483V8.28125ZM130.202 6.28125H133.437V5.125H135.421V6.28125H138.64V7.79688H130.202V6.28125ZM130.89 10.4688C130.89 10 131.035 9.59115 131.327 9.24219C131.624 8.89323 132.038 8.6224 132.569 8.42969C133.101 8.23698 133.718 8.14062 134.421 8.14062C135.129 8.14062 135.746 8.23698 136.272 8.42969C136.799 8.6224 137.205 8.89323 137.491 9.24219C137.778 9.59115 137.921 10 137.921 10.4688C137.921 10.9479 137.778 11.362 137.491 11.7109C137.205 12.0599 136.799 12.3281 136.272 12.5156C135.746 12.7031 135.129 12.7969 134.421 12.7969C133.718 12.7969 133.098 12.7031 132.562 12.5156C132.03 12.3281 131.619 12.0599 131.327 11.7109C131.035 11.362 130.89 10.9479 130.89 10.4688ZM132.046 13.4688H141.483V17.0625H134.03V17.875H141.89V19.3438H132.077V15.7031H139.499V14.9062H132.046V13.4688ZM132.843 10.4688C132.838 10.7656 132.973 10.9896 133.249 11.1406C133.525 11.2917 133.916 11.3698 134.421 11.375C134.931 11.3698 135.327 11.2917 135.608 11.1406C135.89 10.9896 136.03 10.7656 136.03 10.4688C136.03 10.1771 135.89 9.95052 135.608 9.78906C135.332 9.6276 134.947 9.54688 134.452 9.54688C133.942 9.54688 133.543 9.625 133.257 9.78125C132.976 9.9375 132.838 10.1667 132.843 10.4688ZM153.249 8.4375C153.244 9.32812 153.377 10.1875 153.647 11.0156C153.918 11.8438 154.325 12.5807 154.866 13.2266C155.408 13.8724 156.067 14.3594 156.843 14.6875L155.671 16.2812C154.879 15.9219 154.197 15.4062 153.624 14.7344C153.056 14.0625 152.606 13.2734 152.272 12.3672C151.944 13.3568 151.483 14.2188 150.89 14.9531C150.296 15.6823 149.577 16.2396 148.733 16.625L147.53 14.9688C148.332 14.6302 149.009 14.1276 149.562 13.4609C150.119 12.7891 150.535 12.0208 150.812 11.1562C151.088 10.2865 151.228 9.38021 151.233 8.4375V6.3125H153.249V8.4375ZM157.608 5.21875H159.624V19.4688H157.608V5.21875ZM172.827 9.20312H174.749V10.8438H172.827V15.4062H170.812V5.21875H172.827V9.20312ZM161.452 12.4375C163.025 12 164.262 11.3906 165.163 10.6094C166.069 9.82292 166.601 8.92188 166.757 7.90625H162.077V6.28125H168.952C168.952 7.55208 168.692 8.69792 168.171 9.71875C167.655 10.7344 166.9 11.6042 165.905 12.3281C164.91 13.0521 163.702 13.6146 162.28 14.0156L161.452 12.4375ZM163.577 14.3594H165.593V17.5938H173.312V19.1875H163.577V14.3594ZM187.28 19.4688H185.265V5.21875H187.28V19.4688ZM175.796 11.2812C175.796 10.2656 175.955 9.375 176.272 8.60938C176.595 7.84375 177.041 7.25521 177.608 6.84375C178.181 6.42708 178.832 6.21875 179.562 6.21875C180.275 6.21875 180.913 6.42708 181.476 6.84375C182.043 7.25521 182.489 7.84375 182.812 8.60938C183.134 9.375 183.296 10.2656 183.296 11.2812C183.296 12.3021 183.134 13.1979 182.812 13.9688C182.489 14.7344 182.043 15.3255 181.476 15.7422C180.913 16.1536 180.275 16.3594 179.562 16.3594C178.832 16.3594 178.181 16.1536 177.608 15.7422C177.041 15.3255 176.595 14.7344 176.272 13.9688C175.955 13.1979 175.796 12.3021 175.796 11.2812ZM177.718 11.2812C177.718 11.974 177.793 12.5677 177.944 13.0625C178.095 13.5521 178.309 13.9245 178.585 14.1797C178.866 14.4297 179.192 14.5521 179.562 14.5469C179.921 14.5521 180.236 14.4297 180.507 14.1797C180.783 13.9245 180.996 13.5521 181.147 13.0625C181.299 12.5677 181.374 11.974 181.374 11.2812C181.374 10.5885 181.299 9.9974 181.147 9.50781C180.996 9.01823 180.783 8.64844 180.507 8.39844C180.236 8.14323 179.921 8.01562 179.562 8.01562C179.192 8.01562 178.866 8.14323 178.585 8.39844C178.309 8.64844 178.095 9.01823 177.944 9.50781C177.793 9.9974 177.718 10.5885 177.718 11.2812ZM205.89 14.9844H200.327V19.4375H198.358V14.9844H192.874V13.4219H205.89V14.9844ZM194.405 5.76562H196.374V7.40625H202.343V5.76562H204.343V12.0469H194.405V5.76562ZM202.343 10.4531V8.96875H196.374V10.4531H202.343ZM218.515 7.3125H214.624C214.728 7.67188 214.965 8.01042 215.335 8.32812C215.71 8.64583 216.218 8.91927 216.858 9.14844C217.504 9.3724 218.265 9.52604 219.14 9.60938L218.421 11.1719C217.114 11.0365 216.009 10.7344 215.108 10.2656C214.213 9.79688 213.572 9.20573 213.187 8.49219C212.801 9.20573 212.166 9.79688 211.28 10.2656C210.395 10.7344 209.301 11.0365 207.999 11.1719L207.296 9.60938C208.16 9.52604 208.908 9.36979 209.538 9.14062C210.174 8.91146 210.676 8.64062 211.046 8.32812C211.416 8.01042 211.655 7.67188 211.765 7.3125H207.905V5.73438H218.515V7.3125ZM206.718 12.1406H212.202V10.2812H214.171V12.1406H219.687V13.7344H206.718V12.1406ZM208.155 14.75H218.108V19.4375H216.124V16.3438H208.155V14.75ZM231.765 10.7812H233.858V12.4219H231.765V19.4375H229.796V5.21875H231.765V10.7812ZM220.468 7.34375H223.687V5.4375H225.687V7.34375H228.827V8.9375H220.468V7.34375ZM221.046 13.125C221.046 12.474 221.202 11.8906 221.515 11.375C221.827 10.8594 222.259 10.4583 222.812 10.1719C223.369 9.88021 223.994 9.73438 224.687 9.73438C225.369 9.73438 225.986 9.88021 226.538 10.1719C227.09 10.4583 227.522 10.8594 227.835 11.375C228.153 11.8906 228.312 12.474 228.312 13.125C228.312 13.776 228.153 14.3594 227.835 14.875C227.522 15.3854 227.09 15.7865 226.538 16.0781C225.986 16.3698 225.369 16.5156 224.687 16.5156C223.994 16.5156 223.369 16.3698 222.812 16.0781C222.259 15.7865 221.827 15.3854 221.515 14.875C221.202 14.3594 221.046 13.776 221.046 13.125ZM222.952 13.125C222.952 13.4844 223.025 13.7969 223.171 14.0625C223.322 14.3281 223.528 14.5312 223.788 14.6719C224.049 14.8125 224.348 14.8802 224.687 14.875C225.02 14.8802 225.317 14.8125 225.577 14.6719C225.838 14.5312 226.041 14.3281 226.187 14.0625C226.332 13.7969 226.405 13.4844 226.405 13.125C226.405 12.7656 226.332 12.4531 226.187 12.1875C226.041 11.9219 225.838 11.7161 225.577 11.5703C225.317 11.4245 225.02 11.349 224.687 11.3438C224.348 11.349 224.049 11.4245 223.788 11.5703C223.528 11.7161 223.322 11.9219 223.171 12.1875C223.025 12.4531 222.952 12.7656 222.952 13.125ZM246.671 19.4375H244.78V12.2969H243.405V18.75H241.577V5.45312H243.405V10.7031H244.78V5.21875H246.671V19.4375ZM234.78 6.85938H240.077V8.46875H236.78V14.5469C237.52 14.5365 238.202 14.5052 238.827 14.4531C239.457 14.401 240.098 14.3177 240.749 14.2031L240.89 15.8281C240.088 15.9792 239.299 16.0807 238.522 16.1328C237.746 16.1849 236.827 16.2135 235.765 16.2188H234.78V6.85938ZM261.218 17.7812H248.202V16.1406H251.108V12.6562C250.546 12.3177 250.111 11.901 249.804 11.4062C249.496 10.9062 249.343 10.349 249.343 9.73438C249.343 8.97917 249.572 8.3125 250.03 7.73438C250.489 7.15625 251.121 6.70833 251.929 6.39062C252.741 6.06771 253.66 5.90625 254.687 5.90625C255.707 5.90625 256.624 6.06771 257.437 6.39062C258.249 6.70833 258.887 7.15625 259.351 7.73438C259.814 8.3125 260.046 8.97917 260.046 9.73438C260.041 10.3385 259.89 10.8854 259.593 11.375C259.296 11.8646 258.874 12.2786 258.327 12.6172V16.1406H261.218V17.7812ZM251.312 9.73438C251.312 10.1927 251.45 10.5911 251.726 10.9297C252.007 11.2682 252.4 11.5286 252.905 11.7109C253.416 11.8932 254.009 11.9844 254.687 11.9844C255.353 11.9844 255.942 11.8932 256.452 11.7109C256.963 11.5286 257.361 11.2682 257.647 10.9297C257.934 10.5911 258.077 10.1927 258.077 9.73438C258.077 9.26562 257.934 8.86198 257.647 8.52344C257.366 8.1849 256.97 7.92708 256.46 7.75C255.95 7.56771 255.358 7.47917 254.687 7.48438C254.009 7.48438 253.416 7.57292 252.905 7.75C252.4 7.92708 252.007 8.1849 251.726 8.52344C251.45 8.86198 251.312 9.26562 251.312 9.73438ZM256.312 16.1406V13.375C255.791 13.4792 255.249 13.5312 254.687 13.5312C254.14 13.5312 253.603 13.4818 253.077 13.3828V16.1406H256.312ZM263.874 18.1406C263.634 18.1406 263.413 18.0833 263.21 17.9688C263.007 17.849 262.845 17.6901 262.726 17.4922C262.611 17.2891 262.556 17.0677 262.562 16.8281C262.556 16.5938 262.611 16.3776 262.726 16.1797C262.845 15.9766 263.007 15.8177 263.21 15.7031C263.413 15.5885 263.634 15.5312 263.874 15.5312C264.103 15.5312 264.317 15.5885 264.515 15.7031C264.713 15.8177 264.871 15.9766 264.991 16.1797C265.111 16.3776 265.171 16.5938 265.171 16.8281C265.171 17.0677 265.111 17.2891 264.991 17.4922C264.871 17.6901 264.713 17.849 264.515 17.9688C264.317 18.0833 264.103 18.1406 263.874 18.1406ZM268.39 18.1406C268.15 18.1406 267.929 18.0833 267.726 17.9688C267.522 17.849 267.361 17.6901 267.241 17.4922C267.127 17.2891 267.072 17.0677 267.077 16.8281C267.072 16.5938 267.127 16.3776 267.241 16.1797C267.361 15.9766 267.522 15.8177 267.726 15.7031C267.929 15.5885 268.15 15.5312 268.39 15.5312C268.619 15.5312 268.832 15.5885 269.03 15.7031C269.228 15.8177 269.387 15.9766 269.507 16.1797C269.627 16.3776 269.687 16.5938 269.687 16.8281C269.687 17.0677 269.627 17.2891 269.507 17.4922C269.387 17.6901 269.228 17.849 269.03 17.9688C268.832 18.0833 268.619 18.1406 268.39 18.1406ZM273.89 14.6094H271.89L271.687 6.6875H274.093L273.89 14.6094ZM271.593 16.8281C271.588 16.5938 271.642 16.3776 271.757 16.1797C271.877 15.9766 272.038 15.8177 272.241 15.7031C272.444 15.5885 272.666 15.5312 272.905 15.5312C273.134 15.5312 273.348 15.5885 273.546 15.7031C273.744 15.8177 273.903 15.9766 274.022 16.1797C274.142 16.3776 274.202 16.5938 274.202 16.8281C274.202 17.0677 274.142 17.2891 274.022 17.4922C273.903 17.6901 273.744 17.849 273.546 17.9688C273.348 18.0833 273.134 18.1406 272.905 18.1406C272.666 18.1406 272.444 18.0833 272.241 17.9688C272.038 17.849 271.877 17.6901 271.757 17.4922C271.642 17.2891 271.588 17.0677 271.593 16.8281Z" fill="#007BED"/>
</svg>
