<svg width="154" height="18" viewBox="0 0 154 18" fill="none" xmlns="http://www.w3.org/2000/svg">
<path d="M3.72388 0.00793871H9.90917C10.465 2.58845 10.9573 5.35159 11.394 8.2894C11.8307 11.2272 12.1086 13.8554 12.2197 16.1739H12.3706C13.3234 14.1253 14.5223 11.8545 15.9674 9.36131C17.4125 6.86813 19.0482 4.105 20.8982 1.08778L21.5493 0.00793871H27.7107L23.963 17.5792H18.9132L20.8505 8.50378C20.9696 7.83682 21.0967 7.24926 21.2396 6.75697C21.3825 6.26469 21.5096 5.85181 21.6287 5.51039C21.6604 5.37541 21.716 5.24837 21.7795 5.12927H21.6048L14.2365 17.5792H9.73449L7.67008 5.12927H7.54304C7.52716 5.26425 7.51128 5.41511 7.4954 5.58185C7.40806 6.35203 7.24926 7.32866 7.01899 8.49584L5.08163 17.5713H0L3.72388 0V0.00793871Z" fill="#EF2B00"/>
<path d="M29.7351 17.3649C28.9093 16.9362 28.2662 16.3327 27.8136 15.5387C27.361 14.7527 27.1387 13.8395 27.1387 12.7994C27.1387 11.3226 27.4563 9.95687 28.0835 8.68646C28.7108 7.42399 29.6318 6.40767 30.8467 5.6613C32.0615 4.907 33.5066 4.52588 35.1819 4.52588C36.1506 4.52588 37.0161 4.72438 37.7704 5.12932C38.5247 5.53426 39.1123 6.11389 39.541 6.87613C39.9698 7.63838 40.1842 8.55148 40.1842 9.6075H40.3112C40.4144 8.91672 40.5097 8.22594 40.6129 7.51927C40.7161 6.89995 40.8511 6.04243 41.0179 4.95464H45.5913L44.0827 12.0213L43.9795 12.4262C43.8763 12.8629 43.8366 13.1885 43.8445 13.4028C43.8445 13.6252 43.9477 13.7919 44.1224 13.9031C44.2971 14.0222 44.6068 14.0777 45.0435 14.0777L44.2177 18.0001H43.1855C41.6054 18.0001 40.5018 17.7699 39.8666 17.3252C39.2314 16.8726 38.9138 16.2692 38.9138 15.5149C38.9138 15.3323 38.9296 15.1417 38.9614 14.9353C38.9932 14.7368 39.0487 14.5303 39.1123 14.3318C39.1281 14.3001 39.144 14.2445 39.1599 14.181H39.0329C38.3421 15.507 37.4766 16.4756 36.4206 17.087C35.3646 17.6984 34.118 18.0001 32.6729 18.0001C31.5533 18.0001 30.5767 17.7857 29.743 17.357L29.7351 17.3649ZM37.429 13.514C38.088 13.2043 38.5882 12.8073 38.9138 12.323C39.2393 11.8387 39.406 11.3146 39.406 10.7668C39.406 10.33 39.2711 9.94893 38.9932 9.6075C38.7153 9.27402 38.3103 9.012 37.7863 8.82938C37.2622 8.64676 36.6032 8.55148 35.8092 8.55148C34.7691 8.55148 33.9274 8.71822 33.2922 9.0517C32.657 9.38518 32.1965 9.79013 31.9186 10.2745C31.6407 10.7588 31.5057 11.2511 31.5057 11.7672C31.5057 12.4342 31.8074 12.9741 32.4109 13.379C33.0143 13.784 33.8718 13.9825 34.9755 13.9825C35.9442 13.9825 36.762 13.8237 37.429 13.514Z" fill="#EF2B00"/>
<path d="M47.6505 9.14626C47.6505 8.86836 47.5711 8.6778 47.4123 8.58252C47.2535 8.48724 46.9438 8.43166 46.4912 8.43166L47.317 4.50928C49.04 4.50928 50.2866 4.68396 51.0488 5.02538C51.811 5.3668 52.2398 5.89085 52.3351 6.59751C52.4304 7.30417 52.2795 8.27286 51.8984 9.5115L51.8507 9.63855L51.2949 11.4965H51.4458C52.0651 9.88469 52.7559 8.5587 53.5102 7.51061C54.2645 6.46253 55.0506 5.70822 55.8605 5.23182C56.6704 4.76336 57.4882 4.52516 58.3139 4.52516C59.7193 4.52516 60.696 4.91422 61.2279 5.69234C61.7599 6.47047 61.9267 7.47885 61.7043 8.70956C61.49 9.94027 60.9818 11.2186 60.1957 12.5446L57.2262 12.3461C57.6311 11.6077 57.8455 10.9884 57.8693 10.4723C57.8931 9.96409 57.7502 9.58297 57.4326 9.32888C57.115 9.0748 56.6307 8.9557 55.9716 8.9557C55.2332 8.9557 54.5424 9.18596 53.8834 9.63061C53.2323 10.0832 52.6924 10.6549 52.2636 11.3536C51.8349 12.0523 51.5411 12.7669 51.3743 13.5053L50.493 17.5786H45.9434L47.4281 10.6152C47.579 9.90851 47.6584 9.42416 47.6584 9.14626H47.6505Z" fill="#EF2B00"/>
<path d="M64.2038 17.3649C63.3781 16.9362 62.7349 16.3327 62.2823 15.5387C61.8297 14.7527 61.6074 13.8395 61.6074 12.7994C61.6074 11.3226 61.925 9.95687 62.5523 8.68646C63.1796 7.42399 64.1006 6.40767 65.3154 5.6613C66.5303 4.907 67.9753 4.52588 69.6507 4.52588C70.6194 4.52588 71.4848 4.72438 72.2391 5.12932C72.9934 5.53426 73.581 6.11389 74.0098 6.87613C74.4385 7.63838 74.6529 8.55148 74.6529 9.6075H74.78C74.8832 8.91672 74.9785 8.22594 75.0817 7.51927C75.1849 6.89995 75.3199 6.04243 75.4866 4.95464H80.0601L78.5515 12.0213L78.4482 12.4262C78.345 12.8629 78.3053 13.1885 78.3133 13.4028C78.3133 13.6252 78.4165 13.7919 78.5912 13.9031C78.7658 14.0222 79.0755 14.0777 79.5122 14.0777L78.6865 18.0001H77.6542C76.0742 18.0001 74.9705 17.7699 74.3353 17.3252C73.7001 16.8726 73.3825 16.2692 73.3825 15.5149C73.3825 15.3323 73.3984 15.1417 73.4301 14.9353C73.4619 14.7368 73.5175 14.5303 73.581 14.3318C73.5969 14.3001 73.6128 14.2445 73.6286 14.181H73.5016C72.8108 15.507 71.9454 16.4756 70.8893 17.087C69.8333 17.6984 68.5867 18.0001 67.1416 18.0001C66.0221 18.0001 65.0455 17.7857 64.2118 17.357L64.2038 17.3649ZM71.8977 13.514C72.5567 13.2043 73.057 12.8073 73.3825 12.323C73.708 11.8387 73.8748 11.3146 73.8748 10.7668C73.8748 10.33 73.7398 9.94893 73.4619 9.6075C73.184 9.27402 72.7791 9.012 72.255 8.82938C71.731 8.64676 71.072 8.55148 70.278 8.55148C69.2378 8.55148 68.3962 8.71822 67.761 9.0517C67.1257 9.38518 66.6652 9.79013 66.3873 10.2745C66.1094 10.7588 65.9744 11.2511 65.9744 11.7672C65.9744 12.4342 66.2762 12.9741 66.8796 13.379C67.4831 13.784 68.3406 13.9825 69.4442 13.9825C70.4129 13.9825 71.2308 13.8237 71.8977 13.514Z" fill="#EF2B00"/>
<path d="M97.2637 17.2578H95.5957V4.81641H97.2637V17.2578ZM86.5859 10.2031C86.5859 9.28711 86.6953 8.48958 86.9141 7.81055C87.1374 7.13151 87.4518 6.61198 87.8574 6.25195C88.2676 5.88737 88.7461 5.70508 89.293 5.70508C89.7897 5.70508 90.2295 5.85319 90.6123 6.14941C90.9997 6.44564 91.3118 6.87402 91.5488 7.43457C91.7904 7.99056 91.943 8.65365 92.0068 9.42383H93.0254V4.99414H94.666V16.6836H93.0254V10.8047H92.0205C91.9704 11.6113 91.8268 12.3109 91.5898 12.9033C91.3529 13.4912 91.0361 13.9424 90.6396 14.2568C90.2477 14.5713 89.7988 14.7285 89.293 14.7285C88.7461 14.7285 88.2676 14.5462 87.8574 14.1816C87.4518 13.8125 87.1374 13.2884 86.9141 12.6094C86.6953 11.9258 86.5859 11.1237 86.5859 10.2031ZM88.1992 10.2031C88.1947 11.1465 88.2858 11.8597 88.4727 12.3428C88.6641 12.8213 88.9375 13.056 89.293 13.0469C89.653 13.056 89.931 12.8236 90.127 12.3496C90.3275 11.8757 90.4277 11.1761 90.4277 10.251C90.4277 9.28939 90.3298 8.56478 90.1338 8.07715C89.9378 7.58952 89.6576 7.3457 89.293 7.3457C88.9375 7.3457 88.6641 7.58724 88.4727 8.07031C88.2858 8.55339 88.1947 9.26432 88.1992 10.2031ZM109.363 17.2578H107.723V4.81641H109.363V17.2578ZM98.4258 13.4434C99.6608 12.7096 100.581 11.8802 101.188 10.9551C101.798 10.0299 102.165 8.94531 102.288 7.70117H99.1094V6.29297H104.018C104.018 7.52799 103.874 8.63542 103.587 9.61523H105.084V5.08984H106.711V16.7109H105.084V10.9961H103.047C102.682 11.7253 102.201 12.3952 101.604 13.0059C101.007 13.6165 100.276 14.1725 99.4102 14.6738L98.4258 13.4434ZM123.773 8.64453H125.455V10.0664H123.773V14.1133H122.023V4.83008H123.773V8.64453ZM113.902 6.12891H116.732V4.80273H118.469V6.12891H121.285V7.50977H113.902V6.12891ZM114.504 10.3535C114.504 9.87956 114.634 9.46029 114.894 9.0957C115.158 8.73112 115.525 8.44857 115.994 8.24805C116.464 8.04753 116.997 7.94727 117.594 7.94727C118.191 7.94727 118.719 8.04753 119.18 8.24805C119.645 8.44857 120.007 8.73112 120.267 9.0957C120.526 9.46029 120.656 9.87956 120.656 10.3535C120.656 10.8275 120.526 11.2445 120.267 11.6045C120.011 11.96 119.651 12.238 119.187 12.4385C118.722 12.6344 118.191 12.7324 117.594 12.7324C116.992 12.7324 116.457 12.6344 115.987 12.4385C115.522 12.238 115.158 11.9577 114.894 11.5977C114.634 11.2376 114.504 10.8229 114.504 10.3535ZM115.707 13.4023H117.443V15.6445H124.225V17.0391H115.707V13.4023ZM116.213 10.3535C116.208 10.6908 116.331 10.9505 116.582 11.1328C116.833 11.3151 117.17 11.4062 117.594 11.4062C118.022 11.4062 118.364 11.3151 118.619 11.1328C118.874 10.9505 119.002 10.6908 119.002 10.3535C119.002 10.0163 118.874 9.75423 118.619 9.56738C118.364 9.37598 118.022 9.27799 117.594 9.27344C117.17 9.27799 116.833 9.37598 116.582 9.56738C116.331 9.75423 116.208 10.0163 116.213 10.3535ZM139.633 11.2012H137.896V4.81641H139.633V11.2012ZM129.283 9.95703C129.908 9.78385 130.436 9.53548 130.869 9.21191C131.307 8.88835 131.642 8.51921 131.874 8.10449C132.111 7.68522 132.25 7.24544 132.291 6.78516H129.748V5.39062H136.584V6.78516H134.096C134.137 7.20898 134.271 7.61686 134.499 8.00879C134.731 8.39616 135.062 8.74251 135.49 9.04785C135.923 9.34863 136.447 9.57878 137.062 9.73828L136.229 11.0781C135.527 10.8867 134.923 10.5928 134.417 10.1963C133.911 9.7998 133.515 9.32812 133.228 8.78125C132.936 9.39193 132.523 9.91829 131.99 10.3604C131.462 10.7979 130.824 11.1237 130.076 11.3379L129.283 9.95703ZM131.293 11.6934H139.646V15.0156H133.029V15.8359H139.988V17.1758H131.32V13.7715H137.91V13.0195H131.293V11.6934ZM152.703 12.3496H148.014V14.4961H146.291V12.3496H141.314V10.9688H152.703V12.3496ZM142.654 13.416H144.391V15.6445H151.445V17.0391H142.654V13.416ZM142.736 5.36328H151.24V9.94336H142.736V5.36328ZM149.531 8.58984V6.7168H144.445V8.58984H149.531Z" fill="#EF2B00"/>
</svg>
