<svg width="51" height="22" viewBox="0 0 51 22" fill="none" xmlns="http://www.w3.org/2000/svg">
<rect width="50.9763" height="22" rx="11" fill="#007BED"/>
<path d="M7.81356 15.5177C7.08799 15.1891 6.58009 14.7239 6.29414 14.1178C6.00391 13.516 5.93135 12.799 6.06366 11.9667L8.64582 11.3606C8.57327 11.732 8.62021 12.0649 8.78667 12.3679C8.95312 12.6709 9.24335 12.9057 9.65308 13.0764C10.0628 13.2471 10.5835 13.3325 11.2152 13.3325C11.6462 13.3325 12.0133 13.2898 12.3078 13.2044C12.6023 13.1191 12.8242 13.0038 12.9693 12.8587C13.1145 12.7136 13.2041 12.5557 13.2382 12.385C13.2724 12.2228 13.2638 12.0862 13.2041 11.971C13.1443 11.86 13.0163 11.7618 12.82 11.6808C12.6236 11.5997 12.3334 11.5271 11.9535 11.4631L9.78965 11.1643C8.83362 11.0277 8.13366 10.7503 7.68125 10.3321C7.22884 9.91379 7.07092 9.38028 7.2075 8.73154C7.40383 7.84806 7.95867 7.17371 8.86349 6.70423C9.76831 6.23474 10.8609 6 12.1413 6C13.1059 6 13.9254 6.1195 14.5997 6.35851C15.2741 6.59752 15.7862 6.99445 16.132 7.55356C16.4777 8.11268 16.61 8.86812 16.5289 9.82416L13.8272 10.5412C13.9553 10.093 13.9168 9.72599 13.7205 9.44857C13.5242 9.17115 13.2212 8.96628 12.82 8.83824C12.4188 8.71447 11.9664 8.65045 11.4627 8.65045C10.9292 8.65045 10.5238 8.71874 10.2463 8.85958C9.96891 9.00043 9.79392 9.20529 9.73417 9.47418C9.70003 9.62783 9.70429 9.76014 9.74697 9.86684C9.79392 9.97354 9.89209 10.0674 10.0457 10.1528C10.1994 10.2339 10.4171 10.2979 10.6945 10.3406L12.7773 10.6223C13.5711 10.7503 14.2028 10.9168 14.668 11.1302C15.1332 11.3436 15.4619 11.6082 15.6411 11.9326C15.8204 12.2569 15.8631 12.6453 15.7606 13.0935C15.6454 13.6867 15.3296 14.2074 14.8131 14.6556C14.301 15.0994 13.6693 15.4366 12.9267 15.6628C12.184 15.889 11.4072 16 10.5963 16C9.46102 16 8.53059 15.8378 7.80502 15.5049L7.81356 15.5177Z" fill="white"/>
<path d="M17.9201 15.6246C17.4762 15.3941 17.1305 15.0697 16.8872 14.6429C16.6439 14.2204 16.5244 13.7295 16.5244 13.1704C16.5244 12.3766 16.6951 11.6425 17.0323 10.9596C17.3695 10.281 17.8646 9.73467 18.5176 9.33347C19.1706 8.92801 19.9474 8.72314 20.8479 8.72314C21.3686 8.72314 21.8338 8.82985 22.2393 9.04752C22.6448 9.26518 22.9606 9.57675 23.1911 9.98648C23.4216 10.3962 23.5368 10.887 23.5368 11.4547H23.6051C23.6606 11.0834 23.7118 10.712 23.7673 10.3322C23.8228 9.99929 23.8953 9.53834 23.9849 8.95362H26.4433L25.6324 12.7522L25.5769 12.9698C25.5214 13.2046 25.4958 13.3796 25.5044 13.4948C25.5086 13.6143 25.5598 13.7039 25.6537 13.7637C25.7476 13.8277 25.9141 13.8576 26.1488 13.8576L25.7007 15.966H25.1458C24.3008 15.966 23.7032 15.8422 23.3618 15.6032C23.0204 15.3599 22.8496 15.0356 22.8496 14.6301C22.8496 14.5319 22.8582 14.4295 22.8752 14.3185C22.8923 14.2118 22.9222 14.1009 22.9563 13.9942C22.9649 13.9771 22.9734 13.9472 22.9819 13.9131H22.9137C22.5423 14.6258 22.0771 15.1465 21.5095 15.4752C20.9418 15.8038 20.2717 15.966 19.495 15.966C18.8932 15.966 18.3682 15.8508 17.9201 15.6203V15.6246ZM22.0558 13.5546C22.41 13.3881 22.6789 13.1747 22.8539 12.9144C23.0289 12.654 23.1185 12.3723 23.1185 12.0778C23.1185 11.8431 23.046 11.6382 22.8966 11.4547C22.7472 11.2754 22.5338 11.1346 22.2478 11.0364C21.9619 10.9383 21.6119 10.887 21.1851 10.887C20.626 10.887 20.1779 10.9767 19.8321 11.1559C19.4907 11.3352 19.2432 11.5528 19.0938 11.8132C18.9444 12.0693 18.8718 12.3382 18.8718 12.6156C18.8718 12.9741 19.034 13.2643 19.3584 13.482C19.6828 13.6997 20.1437 13.8064 20.737 13.8064C21.2577 13.8064 21.6973 13.721 22.0558 13.5546Z" fill="white"/>
<path d="M27.5534 11.2069C27.5534 11.0575 27.5107 10.9551 27.4253 10.9039C27.34 10.8526 27.1735 10.8228 26.9302 10.8228L27.3741 8.71436C28.3003 8.71436 28.9704 8.80825 29.3801 8.99178C29.7898 9.1753 30.0203 9.45699 30.0715 9.83685C30.1227 10.2167 30.0416 10.7374 29.8368 11.4032L29.8112 11.4715L29.5124 12.4702H29.5935C29.9264 11.6038 30.2977 10.8911 30.7032 10.3277C31.1086 9.76429 31.5312 9.35883 31.9665 9.10275C32.4019 8.85093 32.8415 8.72289 33.2853 8.72289C34.0408 8.72289 34.5657 8.93203 34.8517 9.35029C35.1419 9.76856 35.2273 10.3106 35.1078 10.9721C34.9926 11.6337 34.7194 12.3208 34.2969 13.0336L32.7006 12.9269C32.9183 12.53 33.0335 12.1971 33.0463 11.9196C33.0591 11.6465 32.9823 11.4416 32.8116 11.3051C32.6409 11.1685 32.3805 11.1045 32.0263 11.1045C31.6293 11.1045 31.2538 11.2282 30.9038 11.4672C30.5538 11.7105 30.2636 12.0178 30.0331 12.3934C29.8026 12.769 29.6447 13.1531 29.5551 13.55L29.0813 15.7395H26.6357L27.4339 11.9965C27.515 11.6166 27.5576 11.3563 27.5576 11.2069H27.5534Z" fill="white"/>
<path d="M36.4533 15.6246C36.0094 15.3941 35.6637 15.0697 35.4204 14.6429C35.1771 14.2204 35.0576 13.7295 35.0576 13.1704C35.0576 12.3766 35.2283 11.6425 35.5655 10.9596C35.9027 10.281 36.3978 9.73467 37.0508 9.33347C37.7038 8.92801 38.4806 8.72314 39.3811 8.72314C39.9018 8.72314 40.367 8.82985 40.7725 9.04752C41.178 9.26518 41.4938 9.57675 41.7243 9.98648C41.9548 10.3962 42.07 10.887 42.07 11.4547H42.1383C42.1938 11.0834 42.245 10.712 42.3005 10.3322C42.356 9.99929 42.4285 9.53834 42.5181 8.95362H44.9765L44.1656 12.7522L44.1101 12.9698C44.0546 13.2046 44.029 13.3796 44.0376 13.4948C44.0418 13.6143 44.093 13.7039 44.1869 13.7637C44.2808 13.8277 44.4473 13.8576 44.682 13.8576L44.2339 15.966H43.679C42.834 15.966 42.2364 15.8422 41.895 15.6032C41.5536 15.3599 41.3828 15.0356 41.3828 14.6301C41.3828 14.5319 41.3914 14.4295 41.4084 14.3185C41.4255 14.2118 41.4554 14.1009 41.4895 13.9942C41.4981 13.9771 41.5066 13.9472 41.5151 13.9131H41.4469C41.0755 14.6258 40.6103 15.1465 40.0427 15.4752C39.475 15.8038 38.8049 15.966 38.0282 15.966C37.4264 15.966 36.9014 15.8508 36.4533 15.6203V15.6246ZM40.589 13.5546C40.9432 13.3881 41.2121 13.1747 41.3871 12.9144C41.5621 12.654 41.6517 12.3723 41.6517 12.0778C41.6517 11.8431 41.5792 11.6382 41.4298 11.4547C41.2804 11.2754 41.067 11.1346 40.781 11.0364C40.4951 10.9383 40.1451 10.887 39.7183 10.887C39.1592 10.887 38.7111 10.9767 38.3653 11.1559C38.0239 11.3352 37.7764 11.5528 37.627 11.8132C37.4776 12.0693 37.405 12.3382 37.405 12.6156C37.405 12.9741 37.5672 13.2643 37.8916 13.482C38.216 13.6997 38.6769 13.8064 39.2702 13.8064C39.7909 13.8064 40.2305 13.721 40.589 13.5546Z" fill="white"/>
</svg>
